<?xml version="1.0" encoding="UTF-8" standalone="no"?>
<!-- Created with Inkscape (http://www.inkscape.org/) -->

<svg
   xmlns:dc="http://purl.org/dc/elements/1.1/"
   xmlns:cc="http://creativecommons.org/ns#"
   xmlns:rdf="http://www.w3.org/1999/02/22-rdf-syntax-ns#"
   xmlns:svg="http://www.w3.org/2000/svg"
   xmlns="http://www.w3.org/2000/svg"
   xmlns:sodipodi="http://sodipodi.sourceforge.net/DTD/sodipodi-0.dtd"
   xmlns:inkscape="http://www.inkscape.org/namespaces/inkscape"
   width="297mm"
   height="210mm"
   viewBox="0 0 297 210"
   version="1.1"
   id="svg8"
   inkscape:version="0.92.2 (5c3e80d, 2017-08-06)"
   sodipodi:docname="alexanderkyckling_print.svg">
  <defs
     id="defs2" />
  <sodipodi:namedview
     id="base"
     pagecolor="#ffffff"
     bordercolor="#666666"
     borderopacity="1.0"
     inkscape:pageopacity="0.0"
     inkscape:pageshadow="2"
     inkscape:zoom="0.98994949"
     inkscape:cx="573.74438"
     inkscape:cy="415.83742"
     inkscape:document-units="mm"
     inkscape:current-layer="layer2"
     showgrid="false"
     inkscape:window-width="1680"
     inkscape:window-height="987"
     inkscape:window-x="-4"
     inkscape:window-y="-4"
     inkscape:window-maximized="1"
     inkscape:snap-global="false"
     showguides="false" />
  <metadata
     id="metadata5">
    <rdf:RDF>
      <cc:Work
         rdf:about="">
        <dc:format>image/svg+xml</dc:format>
        <dc:type
           rdf:resource="http://purl.org/dc/dcmitype/StillImage" />
        <dc:title></dc:title>
      </cc:Work>
    </rdf:RDF>
  </metadata>
  <g
     inkscape:label="Layer 1"
     inkscape:groupmode="layer"
     id="layer1"
     transform="translate(0,-87)" />
  <g
     inkscape:groupmode="layer"
     id="layer2"
     inkscape:label="Layer 2"
     transform="translate(0,-87)">
    <g
       id="g5339"
       transform="matrix(0.23448358,0,0,0.23448358,-440.09983,141.82784)">
      <g
         id="g5053"
         transform="translate(1101.4815,27.068907)"
         style="fill:none">
        <ellipse
           style="opacity:1;fill:none;fill-opacity:1;stroke:#000000;stroke-width:12.03571129;stroke-linecap:round;stroke-miterlimit:4;stroke-dasharray:none;stroke-dashoffset:0;stroke-opacity:1"
           id="ellipse5003"
           cx="1695.7594"
           cy="483.56329"
           rx="105.83874"
           ry="113.99776"
           transform="matrix(1,0,0.10869991,0.99407461,0,0)" />
        <path
           style="fill:none;stroke:#000000;stroke-width:0.4264691;stroke-linecap:butt;stroke-linejoin:miter;stroke-opacity:1;stroke-miterlimit:4;stroke-dasharray:none"
           d="m 1747.7619,485.98806 -1.016,-117.35982"
           id="path5005"
           inkscape:connector-curvature="0"
           inkscape:transform-center-x="0.13363476"
           inkscape:transform-center-y="-57.964079" />
        <path
           inkscape:transform-center-y="-56.023589"
           inkscape:transform-center-x="-14.873125"
           inkscape:connector-curvature="0"
           id="path5007"
           d="m 1747.5639,486.06056 29.3935,-113.62384"
           style="fill:none;stroke:#000000;stroke-width:0.4264691;stroke-linecap:butt;stroke-linejoin:miter;stroke-opacity:1;stroke-miterlimit:4;stroke-dasharray:none" />
        <path
           sodipodi:nodetypes="cc"
           style="fill:none;stroke:#000000;stroke-width:0.4264691;stroke-linecap:butt;stroke-linejoin:miter;stroke-opacity:1;stroke-miterlimit:4;stroke-dasharray:none"
           d="m 1747.3538,486.07934 56.2882,-98.55382"
           id="path5009"
           inkscape:connector-curvature="0"
           inkscape:transform-center-x="-28.86631"
           inkscape:transform-center-y="-50.265184" />
        <path
           sodipodi:nodetypes="cc"
           inkscape:transform-center-y="-41.081289"
           inkscape:transform-center-x="-40.8923"
           inkscape:connector-curvature="0"
           id="path5011"
           d="m 1747.1461,486.04311 78.8657,-80.11357"
           style="fill:none;stroke:#000000;stroke-width:0.4264691;stroke-linecap:butt;stroke-linejoin:miter;stroke-opacity:1;stroke-miterlimit:4;stroke-dasharray:none" />
        <path
           sodipodi:nodetypes="cc"
           style="fill:none;stroke:#000000;stroke-width:0.4264691;stroke-linecap:butt;stroke-linejoin:miter;stroke-opacity:1;stroke-miterlimit:4;stroke-dasharray:none"
           d="m 1746.9548,485.95435 95.459,-56.158"
           id="path5013"
           inkscape:connector-curvature="0"
           inkscape:transform-center-x="-50.13155"
           inkscape:transform-center-y="-29.097774" />
        <path
           sodipodi:nodetypes="cc"
           inkscape:transform-center-y="-15.131294"
           inkscape:transform-center-x="-55.954415"
           inkscape:connector-curvature="0"
           id="path5015"
           d="m 1746.793,485.8191 106.1053,-29.27746"
           style="fill:none;stroke:#000000;stroke-width:0.4264691;stroke-linecap:butt;stroke-linejoin:miter;stroke-opacity:1;stroke-miterlimit:4;stroke-dasharray:none" />
        <path
           sodipodi:nodetypes="cc"
           style="fill:none;stroke:#000000;stroke-width:0.4264691;stroke-linecap:butt;stroke-linejoin:miter;stroke-opacity:1;stroke-miterlimit:4;stroke-dasharray:none"
           d="m 1746.6717,485.64659 110.5562,-0.82701"
           id="path5017"
           inkscape:connector-curvature="0"
           inkscape:transform-center-x="-57.964085"
           inkscape:transform-center-y="-0.133639" />
        <path
           sodipodi:nodetypes="cc"
           inkscape:transform-center-y="14.873121"
           inkscape:transform-center-x="-56.023595"
           inkscape:connector-curvature="0"
           id="path5019"
           d="m 1746.5992,485.44856 110.978,28.44864"
           style="fill:none;stroke:#000000;stroke-width:0.4264691;stroke-linecap:butt;stroke-linejoin:miter;stroke-opacity:1;stroke-miterlimit:4;stroke-dasharray:none" />
        <path
           style="fill:none;stroke:#000000;stroke-width:0.4264691;stroke-linecap:butt;stroke-linejoin:miter;stroke-opacity:1;stroke-miterlimit:4;stroke-dasharray:none"
           d="m 1746.5804,485.23852 102.1446,57.80003"
           id="path5021"
           inkscape:connector-curvature="0"
           inkscape:transform-center-x="-50.26519"
           inkscape:transform-center-y="28.866306" />
        <path
           inkscape:transform-center-y="40.892296"
           inkscape:transform-center-x="-41.081295"
           inkscape:connector-curvature="0"
           id="path5023"
           d="m 1746.6167,485.03077 83.7043,82.26751"
           style="fill:none;stroke:#000000;stroke-width:0.4264691;stroke-linecap:butt;stroke-linejoin:miter;stroke-opacity:1;stroke-miterlimit:4;stroke-dasharray:none" />
        <path
           style="fill:none;stroke:#000000;stroke-width:0.4264691;stroke-linecap:butt;stroke-linejoin:miter;stroke-opacity:1;stroke-miterlimit:4;stroke-dasharray:none"
           d="m 1746.7054,484.83948 59.5598,101.12859"
           id="path5025"
           inkscape:connector-curvature="0"
           inkscape:transform-center-x="-29.09778"
           inkscape:transform-center-y="50.131546" />
        <path
           inkscape:transform-center-y="55.954416"
           inkscape:transform-center-x="-15.1313"
           inkscape:connector-curvature="0"
           id="path5027"
           d="m 1746.8407,484.67768 31.3563,113.09793"
           style="fill:none;stroke:#000000;stroke-width:0.4264691;stroke-linecap:butt;stroke-linejoin:miter;stroke-opacity:1;stroke-miterlimit:4;stroke-dasharray:none" />
        <path
           sodipodi:nodetypes="cc"
           style="fill:none;stroke:#000000;stroke-width:0.4264691;stroke-linecap:butt;stroke-linejoin:miter;stroke-opacity:1;stroke-miterlimit:4;stroke-dasharray:none"
           d="m 1747.0132,484.5564 1.016,113.76906"
           id="path5029"
           inkscape:connector-curvature="0"
           inkscape:transform-center-x="-0.133645"
           inkscape:transform-center-y="57.964086" />
        <path
           sodipodi:nodetypes="cc"
           inkscape:transform-center-y="56.023596"
           inkscape:transform-center-x="14.873115"
           inkscape:connector-curvature="0"
           id="path5031"
           d="m 1747.2112,484.4839 -27.5037,107.00927"
           style="fill:none;stroke:#000000;stroke-width:0.4264691;stroke-linecap:butt;stroke-linejoin:miter;stroke-opacity:1;stroke-miterlimit:4;stroke-dasharray:none" />
        <path
           sodipodi:nodetypes="cc"
           style="fill:none;stroke:#000000;stroke-width:0.4264691;stroke-linecap:butt;stroke-linejoin:miter;stroke-opacity:1;stroke-miterlimit:4;stroke-dasharray:none"
           d="m 1747.4212,484.46513 -51.1854,93.64013"
           id="path5033"
           inkscape:connector-curvature="0"
           inkscape:transform-center-x="28.8663"
           inkscape:transform-center-y="50.265196" />
        <path
           sodipodi:nodetypes="cc"
           inkscape:transform-center-y="41.081306"
           inkscape:transform-center-x="40.892295"
           inkscape:connector-curvature="0"
           id="path5035"
           d="m 1747.629,484.50136 -73.0071,75.38887"
           style="fill:none;stroke:#000000;stroke-width:0.4264691;stroke-linecap:butt;stroke-linejoin:miter;stroke-opacity:1;stroke-miterlimit:4;stroke-dasharray:none" />
        <path
           sodipodi:nodetypes="cc"
           style="fill:none;stroke:#000000;stroke-width:0.4264691;stroke-linecap:butt;stroke-linejoin:miter;stroke-opacity:1;stroke-miterlimit:4;stroke-dasharray:none"
           d="m 1747.8203,484.59012 -89.9783,53.89016"
           id="path5037"
           inkscape:connector-curvature="0"
           inkscape:transform-center-x="50.131545"
           inkscape:transform-center-y="29.097791" />
        <path
           sodipodi:nodetypes="cc"
           inkscape:transform-center-y="15.131306"
           inkscape:transform-center-x="55.954415"
           inkscape:connector-curvature="0"
           id="path5039"
           d="m 1747.9821,484.72536 -102.5146,29.46647"
           style="fill:none;stroke:#000000;stroke-width:0.4264691;stroke-linecap:butt;stroke-linejoin:miter;stroke-opacity:1;stroke-miterlimit:4;stroke-dasharray:none" />
        <path
           sodipodi:nodetypes="cc"
           style="fill:none;stroke:#000000;stroke-width:0.4264691;stroke-linecap:butt;stroke-linejoin:miter;stroke-opacity:1;stroke-miterlimit:4;stroke-dasharray:none"
           d="m 1748.1034,484.89787 -110.5563,0.82703"
           id="path5041"
           inkscape:connector-curvature="0"
           inkscape:transform-center-x="57.964085"
           inkscape:transform-center-y="0.133651" />
        <path
           sodipodi:nodetypes="cc"
           inkscape:transform-center-y="-14.873109"
           inkscape:transform-center-x="56.0236"
           inkscape:connector-curvature="0"
           id="path5043"
           d="M 1748.1759,485.0959 1637.5758,456.83627"
           style="fill:none;stroke:#000000;stroke-width:0.4264691;stroke-linecap:butt;stroke-linejoin:miter;stroke-opacity:1;stroke-miterlimit:4;stroke-dasharray:none" />
        <path
           style="fill:none;stroke:#000000;stroke-width:0.4264691;stroke-linecap:butt;stroke-linejoin:miter;stroke-opacity:1;stroke-miterlimit:4;stroke-dasharray:none"
           d="M 1748.1946,485.30594 1646.05,427.50593"
           id="path5045"
           inkscape:connector-curvature="0"
           inkscape:transform-center-x="50.265195"
           inkscape:transform-center-y="-28.866294" />
        <path
           inkscape:transform-center-y="-40.892284"
           inkscape:transform-center-x="41.081305"
           inkscape:connector-curvature="0"
           id="path5047"
           d="M 1748.1584,485.51369 1664.454,403.2462"
           style="fill:none;stroke:#000000;stroke-width:0.4264691;stroke-linecap:butt;stroke-linejoin:miter;stroke-opacity:1;stroke-miterlimit:4;stroke-dasharray:none" />
        <path
           style="fill:none;stroke:#000000;stroke-width:0.4264691;stroke-linecap:butt;stroke-linejoin:miter;stroke-opacity:1;stroke-miterlimit:4;stroke-dasharray:none"
           d="M 1748.0696,485.70498 1688.5098,384.5764"
           id="path5049"
           inkscape:connector-curvature="0"
           inkscape:transform-center-x="29.09779"
           inkscape:transform-center-y="-50.131539" />
        <path
           inkscape:transform-center-y="-55.954409"
           inkscape:transform-center-x="15.13131"
           inkscape:connector-curvature="0"
           id="path5051"
           d="M 1747.9344,485.86678 1716.578,372.76886"
           style="fill:none;stroke:#000000;stroke-width:0.4264691;stroke-linecap:butt;stroke-linejoin:miter;stroke-opacity:1;stroke-miterlimit:4;stroke-dasharray:none" />
      </g>
      <path
         inkscape:connector-curvature="0"
         id="path4971"
         d="m 2801.0977,375.90625 c -2.6818,-0.15297 -5.4831,0.63799 -8.2891,2.04102 a 4.0004,4.0004 0 1 0 3.5762,7.15429 c 2.6842,-1.34209 4.1001,-1.3529 4.9375,-1.08789 0.8373,0.26502 1.8339,1.04632 3.0507,3.25 2.4337,4.40736 4.6685,13.53514 7.5196,25.43164 5.7021,23.79301 14.5993,59.03314 40.0469,96.52149 a 4.0004,4.0004 0 1 0 6.6191,-4.49414 c -24.6286,-36.28187 -33.205,-70.19095 -38.8848,-93.89063 -2.8398,-11.84984 -4.7728,-21.05339 -8.2968,-27.43555 -1.7621,-3.19107 -4.1919,-5.91765 -7.6426,-7.00976 -0.8627,-0.27303 -1.7428,-0.42948 -2.6367,-0.48047 z"
         style="color:#000000;font-style:normal;font-variant:normal;font-weight:normal;font-stretch:normal;font-size:medium;line-height:normal;font-family:sans-serif;font-variant-ligatures:normal;font-variant-position:normal;font-variant-caps:normal;font-variant-numeric:normal;font-variant-alternates:normal;font-feature-settings:normal;text-indent:0;text-align:start;text-decoration:none;text-decoration-line:none;text-decoration-style:solid;text-decoration-color:#000000;letter-spacing:normal;word-spacing:normal;text-transform:none;writing-mode:lr-tb;direction:ltr;text-orientation:mixed;dominant-baseline:auto;baseline-shift:baseline;text-anchor:start;white-space:normal;shape-padding:0;clip-rule:nonzero;display:inline;overflow:visible;visibility:visible;opacity:1;isolation:auto;mix-blend-mode:normal;color-interpolation:sRGB;color-interpolation-filters:linearRGB;solid-color:#000000;solid-opacity:1;vector-effect:none;fill:none;fill-opacity:1;fill-rule:nonzero;stroke:#000000;stroke-width:1;stroke-linecap:round;stroke-linejoin:miter;stroke-miterlimit:4;stroke-dasharray:none;stroke-dashoffset:0;stroke-opacity:1;color-rendering:auto;image-rendering:auto;shape-rendering:auto;text-rendering:auto;enable-background:accumulate" />
      <path
         inkscape:connector-curvature="0"
         id="path4951"
         d="m 2540.3164,283.31836 -101.832,121.47656 8.6738,2.64453 c 59.1987,18.04981 104.2182,35.52862 160.6055,57.3086 l 4.3242,-11.19336 c -53.5271,-20.67518 -97.5225,-37.61731 -152.8457,-54.8418 l 90.2695,-107.68555 z"
         style="color:#000000;font-style:normal;font-variant:normal;font-weight:normal;font-stretch:normal;font-size:medium;line-height:normal;font-family:sans-serif;font-variant-ligatures:normal;font-variant-position:normal;font-variant-caps:normal;font-variant-numeric:normal;font-variant-alternates:normal;font-feature-settings:normal;text-indent:0;text-align:start;text-decoration:none;text-decoration-line:none;text-decoration-style:solid;text-decoration-color:#000000;letter-spacing:normal;word-spacing:normal;text-transform:none;writing-mode:lr-tb;direction:ltr;text-orientation:mixed;dominant-baseline:auto;baseline-shift:baseline;text-anchor:start;white-space:normal;shape-padding:0;clip-rule:nonzero;display:inline;overflow:visible;visibility:visible;opacity:1;isolation:auto;mix-blend-mode:normal;color-interpolation:sRGB;color-interpolation-filters:linearRGB;solid-color:#000000;solid-opacity:1;vector-effect:none;fill:#ffffff;fill-opacity:1;fill-rule:nonzero;stroke:#000000;stroke-width:1;stroke-linecap:butt;stroke-linejoin:miter;stroke-miterlimit:4;stroke-dasharray:none;stroke-dashoffset:0;stroke-opacity:1;color-rendering:auto;image-rendering:auto;shape-rendering:auto;text-rendering:auto;enable-background:accumulate" />
      <g
         id="g5201">
        <ellipse
           style="opacity:1;fill:none;fill-opacity:1;stroke:#000000;stroke-width:12.04853916;stroke-linecap:round;stroke-miterlimit:4;stroke-dasharray:none;stroke-dashoffset:0;stroke-opacity:1"
           id="ellipse4953"
           cx="2386.1565"
           cy="407.53595"
           rx="82.611"
           ry="91.536644"
           transform="matrix(1,0,0.12656018,0.99195893,0,0)" />
        <path
           inkscape:transform-center-y="-43.65625"
           inkscape:connector-curvature="0"
           id="path5071"
           d="M 2437.7342,404.25893 V 316.27677"
           style="fill:none;stroke:#000000;stroke-width:0.4264691;stroke-linecap:butt;stroke-linejoin:miter;stroke-opacity:1;stroke-miterlimit:4;stroke-dasharray:none" />
        <path
           inkscape:transform-center-x="-11.29905"
           style="fill:none;stroke:#000000;stroke-width:0.4264691;stroke-linecap:butt;stroke-linejoin:miter;stroke-opacity:1;stroke-miterlimit:4;stroke-dasharray:none"
           d="m 2437.6475,404.24752 22.7715,-84.98424"
           id="path5073"
           inkscape:connector-curvature="0"
           inkscape:transform-center-y="-42.1687" />
        <path
           inkscape:transform-center-y="-37.807425"
           inkscape:connector-curvature="0"
           id="path5075"
           d="m 2437.5667,404.21406 43.9912,-76.19477"
           style="fill:none;stroke:#000000;stroke-width:0.4264691;stroke-linecap:butt;stroke-linejoin:miter;stroke-opacity:1;stroke-miterlimit:4;stroke-dasharray:none"
           inkscape:transform-center-x="-21.8281" />
        <path
           sodipodi:nodetypes="cc"
           inkscape:transform-center-x="-30.86965"
           style="fill:none;stroke:#000000;stroke-width:0.4264691;stroke-linecap:butt;stroke-linejoin:miter;stroke-opacity:1;stroke-miterlimit:4;stroke-dasharray:none"
           d="m 2437.4974,404.16083 60.89,-60.88982"
           id="path5077"
           inkscape:connector-curvature="0"
           inkscape:transform-center-y="-30.86964" />
        <path
           sodipodi:nodetypes="cc"
           inkscape:transform-center-y="-21.828125"
           inkscape:connector-curvature="0"
           id="path5079"
           d="m 2437.4442,404.09148 73.8325,-42.5736"
           style="fill:none;stroke:#000000;stroke-width:0.4264691;stroke-linecap:butt;stroke-linejoin:miter;stroke-opacity:1;stroke-miterlimit:4;stroke-dasharray:none"
           inkscape:transform-center-x="-37.80745" />
        <path
           sodipodi:nodetypes="cc"
           inkscape:transform-center-x="-42.16875"
           style="fill:none;stroke:#000000;stroke-width:0.4264691;stroke-linecap:butt;stroke-linejoin:miter;stroke-opacity:1;stroke-miterlimit:4;stroke-dasharray:none"
           d="m 2437.4108,404.01072 83.2834,-22.01541"
           id="path5081"
           inkscape:connector-curvature="0"
           inkscape:transform-center-y="-11.29906" />
        <path
           inkscape:transform-center-y="2.5e-005"
           inkscape:connector-curvature="0"
           id="path5083"
           d="m 2437.3994,403.92407 87.9822,1.1e-4"
           style="fill:none;stroke:#000000;stroke-width:0.4264691;stroke-linecap:butt;stroke-linejoin:miter;stroke-opacity:1;stroke-miterlimit:4;stroke-dasharray:none"
           inkscape:transform-center-x="-43.6563" />
        <path
           inkscape:transform-center-x="-42.16875"
           style="fill:none;stroke:#000000;stroke-width:0.4264691;stroke-linecap:butt;stroke-linejoin:miter;stroke-opacity:1;stroke-miterlimit:4;stroke-dasharray:none"
           d="m 2437.4108,403.83742 84.9843,22.77157"
           id="path5085"
           inkscape:connector-curvature="0"
           inkscape:transform-center-y="11.299105" />
        <path
           inkscape:transform-center-y="21.82817"
           inkscape:connector-curvature="0"
           id="path5087"
           d="m 2437.4443,403.75667 76.1948,43.9912"
           style="fill:none;stroke:#000000;stroke-width:0.4264691;stroke-linecap:butt;stroke-linejoin:miter;stroke-opacity:1;stroke-miterlimit:4;stroke-dasharray:none"
           inkscape:transform-center-x="-37.8075" />
        <path
           inkscape:transform-center-x="-30.8697"
           style="fill:none;stroke:#000000;stroke-width:0.4264691;stroke-linecap:butt;stroke-linejoin:miter;stroke-opacity:1;stroke-miterlimit:4;stroke-dasharray:none"
           d="m 2437.4975,403.68734 62.2128,62.2129"
           id="path5089"
           inkscape:connector-curvature="0"
           inkscape:transform-center-y="30.86969" />
        <path
           inkscape:transform-center-y="37.807495"
           inkscape:connector-curvature="0"
           id="path5091"
           d="m 2437.5668,403.63414 43.9911,76.19491"
           style="fill:none;stroke:#000000;stroke-width:0.4264691;stroke-linecap:butt;stroke-linejoin:miter;stroke-opacity:1;stroke-miterlimit:4;stroke-dasharray:none"
           inkscape:transform-center-x="-21.82815" />
        <path
           inkscape:transform-center-x="-11.2991"
           style="fill:none;stroke:#000000;stroke-width:0.4264691;stroke-linecap:butt;stroke-linejoin:miter;stroke-opacity:1;stroke-miterlimit:4;stroke-dasharray:none"
           d="m 2437.6476,403.60069 22.7714,84.98437"
           id="path5093"
           inkscape:connector-curvature="0"
           inkscape:transform-center-y="42.168775" />
        <path
           inkscape:transform-center-y="43.656335"
           inkscape:connector-curvature="0"
           id="path5095"
           d="m 2437.7343,403.5893 -1e-4,87.98227"
           style="fill:none;stroke:#000000;stroke-width:0.4264691;stroke-linecap:butt;stroke-linejoin:miter;stroke-opacity:1;stroke-miterlimit:4;stroke-dasharray:none"
           inkscape:transform-center-x="-5e-005" />
        <path
           inkscape:transform-center-x="11.29905"
           style="fill:none;stroke:#000000;stroke-width:0.4264691;stroke-linecap:butt;stroke-linejoin:miter;stroke-opacity:1;stroke-miterlimit:4;stroke-dasharray:none"
           d="m 2437.8209,403.60073 -22.7715,84.98432"
           id="path5097"
           inkscape:connector-curvature="0"
           inkscape:transform-center-y="42.16879" />
        <path
           inkscape:transform-center-y="37.807515"
           inkscape:connector-curvature="0"
           id="path5099"
           d="m 2437.9016,403.63419 -43.9911,76.19485"
           style="fill:none;stroke:#000000;stroke-width:0.4264691;stroke-linecap:butt;stroke-linejoin:miter;stroke-opacity:1;stroke-miterlimit:4;stroke-dasharray:none"
           inkscape:transform-center-x="21.82815" />
        <path
           sodipodi:nodetypes="cc"
           inkscape:transform-center-x="30.8697"
           style="fill:none;stroke:#000000;stroke-width:0.4264691;stroke-linecap:butt;stroke-linejoin:miter;stroke-opacity:1;stroke-miterlimit:4;stroke-dasharray:none"
           d="m 2437.9709,403.68739 -60.9433,60.87649"
           id="path5101"
           inkscape:connector-curvature="0"
           inkscape:transform-center-y="30.86971" />
        <path
           sodipodi:nodetypes="cc"
           inkscape:transform-center-y="21.828185"
           inkscape:connector-curvature="0"
           id="path5103"
           d="m 2438.0241,403.75672 -73.9898,42.65478"
           style="fill:none;stroke:#000000;stroke-width:0.4264691;stroke-linecap:butt;stroke-linejoin:miter;stroke-opacity:1;stroke-miterlimit:4;stroke-dasharray:none"
           inkscape:transform-center-x="37.8075" />
        <path
           sodipodi:nodetypes="cc"
           inkscape:transform-center-x="42.1688"
           style="fill:none;stroke:#000000;stroke-width:0.4264691;stroke-linecap:butt;stroke-linejoin:miter;stroke-opacity:1;stroke-miterlimit:4;stroke-dasharray:none"
           d="m 2438.0575,403.83745 -83.4723,22.39353"
           id="path5105"
           inkscape:connector-curvature="0"
           inkscape:transform-center-y="11.299105" />
        <path
           inkscape:transform-center-y="1e-005"
           inkscape:connector-curvature="0"
           id="path5107"
           d="m 2438.0689,403.92408 -87.9821,6e-5"
           style="fill:none;stroke:#000000;stroke-width:0.4264691;stroke-linecap:butt;stroke-linejoin:miter;stroke-opacity:1;stroke-miterlimit:4;stroke-dasharray:none"
           inkscape:transform-center-x="43.65635" />
        <path
           inkscape:transform-center-x="42.1688"
           style="fill:none;stroke:#000000;stroke-width:0.4264691;stroke-linecap:butt;stroke-linejoin:miter;stroke-opacity:1;stroke-miterlimit:4;stroke-dasharray:none"
           d="m 2438.0575,404.01071 -84.9842,-22.77139"
           id="path5109"
           inkscape:connector-curvature="0"
           inkscape:transform-center-y="-11.299085" />
        <path
           inkscape:transform-center-y="-21.828165"
           inkscape:connector-curvature="0"
           id="path5111"
           d="m 2438.0241,404.09144 -76.1948,-43.99101"
           style="fill:none;stroke:#000000;stroke-width:0.4264691;stroke-linecap:butt;stroke-linejoin:miter;stroke-opacity:1;stroke-miterlimit:4;stroke-dasharray:none"
           inkscape:transform-center-x="37.8075" />
        <path
           inkscape:transform-center-x="30.8697"
           style="fill:none;stroke:#000000;stroke-width:0.4264691;stroke-linecap:butt;stroke-linejoin:miter;stroke-opacity:1;stroke-miterlimit:4;stroke-dasharray:none"
           d="m 2437.9709,404.16077 -62.2128,-62.21272"
           id="path5113"
           inkscape:connector-curvature="0"
           inkscape:transform-center-y="-30.86969" />
        <path
           inkscape:transform-center-y="-37.807495"
           inkscape:connector-curvature="0"
           id="path5115"
           d="m 2437.9016,404.21397 -43.9911,-76.19473"
           style="fill:none;stroke:#000000;stroke-width:0.4264691;stroke-linecap:butt;stroke-linejoin:miter;stroke-opacity:1;stroke-miterlimit:4;stroke-dasharray:none"
           inkscape:transform-center-x="21.82815" />
        <path
           inkscape:transform-center-x="11.29905"
           style="fill:none;stroke:#000000;stroke-width:0.4264691;stroke-linecap:butt;stroke-linejoin:miter;stroke-opacity:1;stroke-miterlimit:4;stroke-dasharray:none"
           d="m 2437.8209,404.24742 -22.7715,-84.98419"
           id="path5117"
           inkscape:connector-curvature="0"
           inkscape:transform-center-y="-42.168775" />
      </g>
      <path
         inkscape:connector-curvature="0"
         id="path5165"
         d="m 2421.1265,409.63691 28.5372,-8.31549"
         style="fill:none;stroke:#000000;stroke-width:6;stroke-linecap:round;stroke-linejoin:miter;stroke-miterlimit:4;stroke-dasharray:none;stroke-opacity:1" />
      <path
         sodipodi:nodetypes="cscccccccccccsc"
         inkscape:connector-curvature="0"
         id="path4955"
         d="M 2513.9964,-1.2727927 C 2405.2736,58.112804 2438.0733,283.99319 2394.2596,257.44411 c -90.6227,-54.91314 51.4072,-224.841502 -164.686,-187.623208 26.7124,7.96009 49.9865,13.391809 71.5087,33.141408 -30.6726,-9.972775 -58.82,-24.393248 -107.7396,13.36348 43.1338,0.76456 79.0255,8.11096 106.6341,22.98518 -39.975,-3.77124 -79.8665,-5.19019 -118.5739,26.72696 55.8327,-14.81904 91.8002,4.00265 130.5137,18.17432 -43.9399,-7.70879 -85.3151,-1.72805 -122.2794,27.79603 46.4523,-7.22222 90.1624,-3.05145 128.8668,21.9161 -35.5123,4.09023 -71.3622,-1.0228 -105.399,43.29766 41.0909,-25.78203 85.5985,-16.07613 130.5137,-2.13815 -22.1512,13.44958 -47.52,21.58213 -61.7573,48.10852 54.1156,-20.18602 78.047,-18.03135 99.9744,-6.38418 38.1326,20.25487 66.7597,-23.9642 99.122,-33.30141"
         style="fill:#ffffff;stroke:#000000;stroke-width:3;stroke-linecap:butt;stroke-linejoin:miter;stroke-miterlimit:4;stroke-dasharray:none;stroke-opacity:1" />
      <path
         sodipodi:nodetypes="cc"
         inkscape:connector-curvature="0"
         id="path4959"
         d="m 2628.8244,486.74404 15.497,29.10416"
         style="fill:none;stroke:#000000;stroke-width:5;stroke-linecap:butt;stroke-linejoin:miter;stroke-miterlimit:4;stroke-dasharray:none;stroke-opacity:1" />
      <path
         inkscape:connector-curvature="0"
         id="path4961"
         d="m 2645.4553,486.55505 c -5.2917,-14.1741 -22.1116,-18.89881 -16.6309,-24.19048 5.4806,-5.29167 16.2529,12.66222 16.2529,12.66222"
         style="fill:#ffffff;stroke:#000000;stroke-width:3;stroke-linecap:butt;stroke-linejoin:miter;stroke-miterlimit:4;stroke-dasharray:none;stroke-opacity:1" />
      <path
         inkscape:connector-curvature="0"
         id="path4963"
         d="m 2640.3526,508.85566 c 0,0 36.6637,-28.15924 46.4911,-18.70983 9.8274,9.44941 -39.6875,31.56101 -39.6875,31.56101 z"
         style="fill:#000000;stroke:none;stroke-width:0.26458332px;stroke-linecap:butt;stroke-linejoin:miter;stroke-opacity:1" />
      <path
         sodipodi:nodetypes="cccsccsc"
         inkscape:connector-curvature="0"
         id="path4965"
         d="m 2628.4464,404.34524 c 10.5833,90.71427 69.1696,79.37501 66.1458,91.47022 -3.0238,12.09525 -30.994,-10.58333 -30.994,-10.58333 0,0 37.7976,37.79763 19.6547,41.57739 -18.1428,3.77976 -27.2143,-34.77381 -27.2143,-34.77381 0,0 9.0715,51.40475 -6.0476,48.38096 -15.119,-3.02381 -1.5119,-49.13691 -8.3154,-61.23215 -6.8036,-12.09524 -29.1042,-74.08334 -29.1042,-74.08334"
         style="fill:#ffffff;stroke:#000000;stroke-width:3;stroke-linecap:butt;stroke-linejoin:miter;stroke-miterlimit:4;stroke-dasharray:none;stroke-opacity:1" />
      <path
         sodipodi:nodetypes="ccsc"
         inkscape:connector-curvature="0"
         id="path4967"
         d="m 2607.2797,257.69047 c 5.2917,18.14286 -13.6071,46.86905 -13.6071,46.86905 0,0 68.7916,97.51787 27.9702,102.05357 -40.8214,4.53572 -62.744,-89.95833 -62.744,-89.95833 -8.5538,-13.24029 -24.3227,-42.90721 -24.3227,-42.90721"
         style="fill:#ffffff;stroke:#000000;stroke-width:3;stroke-linecap:butt;stroke-linejoin:miter;stroke-miterlimit:4;stroke-dasharray:none;stroke-opacity:1" />
      <path
         sodipodi:nodetypes="cccccccccccccccc"
         inkscape:connector-curvature="0"
         id="path4969"
         d="m 2535.4199,279.31836 -117.6824,127.78155 c -2.0277,2.03354 -1.7623,4.49926 0.6237,5.43599 l 3.9611,1.46996 c 61.3508,23.9717 126.681,40.66483 189.7265,54.41016 l 2.4239,0.52929 2.0898,-1.33984 176.6465,-113.11328 -13.3789,-44.14844 z m 4.625,12.68359 233.5805,29.45657 7.1653,27.06873 -168.5778,107.61533 c -59.1646,-12.95854 -119.9673,-28.5755 -177.2422,-50.22266 z"
         style="color:#000000;font-style:normal;font-variant:normal;font-weight:normal;font-stretch:normal;font-size:medium;line-height:normal;font-family:sans-serif;font-variant-ligatures:normal;font-variant-position:normal;font-variant-caps:normal;font-variant-numeric:normal;font-variant-alternates:normal;font-feature-settings:normal;text-indent:0;text-align:start;text-decoration:none;text-decoration-line:none;text-decoration-style:solid;text-decoration-color:#000000;letter-spacing:normal;word-spacing:normal;text-transform:none;writing-mode:lr-tb;direction:ltr;text-orientation:mixed;dominant-baseline:auto;baseline-shift:baseline;text-anchor:start;white-space:normal;shape-padding:0;clip-rule:nonzero;display:inline;overflow:visible;visibility:visible;opacity:1;isolation:auto;mix-blend-mode:normal;color-interpolation:sRGB;color-interpolation-filters:linearRGB;solid-color:#000000;solid-opacity:1;vector-effect:none;fill:#ffffff;fill-opacity:1;fill-rule:nonzero;stroke:#000000;stroke-width:1;stroke-linecap:butt;stroke-linejoin:miter;stroke-miterlimit:4;stroke-dasharray:none;stroke-dashoffset:0;stroke-opacity:1;color-rendering:auto;image-rendering:auto;shape-rendering:auto;text-rendering:auto;enable-background:accumulate" />
      <path
         sodipodi:nodetypes="ccc"
         inkscape:connector-curvature="0"
         id="path4973"
         d="m 2585.9565,-11.126572 c 2.0856,-0.501717 26.5505,5.1632095 21.1667,34.206845 -37.4197,-6.614585 -42.1997,-23.42306003 -42.1997,-32.4944877"
         style="fill:none;stroke:#000000;stroke-width:3;stroke-linecap:butt;stroke-linejoin:miter;stroke-miterlimit:4;stroke-dasharray:none;stroke-opacity:1" />
      <path
         sodipodi:nodetypes="ccc"
         inkscape:connector-curvature="0"
         id="path4975"
         d="m 2564.7675,-8.8855777 c 1.0803,44.4335007 37.253,45.5729937 37.253,45.5729937 0,0 2.5041,-9.354911 -1.0867,-15.024554"
         style="fill:none;stroke:#000000;stroke-width:3;stroke-linecap:butt;stroke-linejoin:miter;stroke-miterlimit:4;stroke-dasharray:none;stroke-opacity:1" />
      <path
         inkscape:connector-curvature="0"
         id="path4977"
         d="m 2552.0823,-67.288367 c 0,0 -4.5436,-10.289876 -2.1382,-14.298919 2.4054,-4.009041 3.8754,5.078121 7.6172,3.87541 3.7418,-1.202714 -4.1427,-6.949008 -1.0691,-11.626225 3.0736,-4.677217 5.0781,8.953529 7.6172,8.15172 2.5391,-0.80181 -6.8154,-11.225308 -0.1336,-12.695301 6.6817,-1.469972 4.5436,10.557146 7.7508,10.022607 3.2072,-0.534539 -2.0045,-12.29441 3.2072,-13.363478 5.2118,-1.069088 -0.1336,13.229836 5.8799,12.2944 6.0136,-0.935451 -0.4009,-10.156243 1.8709,-12.82894 2.2718,-2.672697 5.88,10.958057 10.2899,11.49259 4.41,0.534545 1.7373,-10.557168 3.4745,-13.096205 1.7373,-2.539082 12.829,6.280832 -4.8108,44.36674 -6.6591,-22.013473 -17.6221,-18.224343 -17.6221,-18.224343"
         style="fill:none;stroke:#000000;stroke-width:3;stroke-linecap:butt;stroke-linejoin:miter;stroke-miterlimit:4;stroke-dasharray:none;stroke-opacity:1"
         sodipodi:nodetypes="cssssssssssscc" />
      <path
         inkscape:connector-curvature="0"
         id="path4979"
         d="m 2560.6942,-30.98884 c -1.6064,-4.724702 -1.512,-6.520088 0.2834,-7.276042 1.7954,-0.755952 2.6459,-1.511903 3.1183,1.039437 0.4725,2.551337 0.6615,2.83482 0.8505,4.724701 0.189,1.889882 -0.8505,2.55134 -2.3624,2.55134 -1.5119,0 -1.7009,-0.661458 -1.8898,-1.039436 z"
         style="fill:#000000;stroke:none;stroke-width:3;stroke-linecap:butt;stroke-linejoin:miter;stroke-miterlimit:4;stroke-dasharray:none;stroke-opacity:1" />
      <path
         inkscape:connector-curvature="0"
         id="path4981"
         d="m 2601.4711,-29.276841 c 3.1183,-0.472469 5.2917,1.511906 5.1972,3.496281 -0.095,1.984375 0.189,3.496278 -1.7009,3.685266 -1.8899,0.188988 -4.6302,-1.322916 -4.9137,-3.118304 -0.2835,-1.795386 -2.0788,-1.795386 -1.1339,-2.456844 0.9449,-0.661458 2.5513,-1.606399 2.5513,-1.606399 z"
         style="fill:#000000;stroke:none;stroke-width:3;stroke-linecap:butt;stroke-linejoin:miter;stroke-miterlimit:4;stroke-dasharray:none;stroke-opacity:1" />
      <path
         inkscape:connector-curvature="0"
         id="path4983"
         d="m 2570.2381,-50.927083 c -7.5596,-8.315476 -18.7099,-1.133928 -18.7099,-1.133928"
         style="fill:none;stroke:#000000;stroke-width:3;stroke-linecap:butt;stroke-linejoin:miter;stroke-miterlimit:4;stroke-dasharray:none;stroke-opacity:1" />
      <path
         inkscape:connector-curvature="0"
         id="path4985"
         d="m 2605.4288,-44.212452 c 12.2842,0 11.1503,5.858632 11.1503,5.858632"
         style="fill:none;stroke:#000000;stroke-width:3;stroke-linecap:butt;stroke-linejoin:miter;stroke-miterlimit:4;stroke-dasharray:none;stroke-opacity:1" />
      <path
         inkscape:connector-curvature="0"
         id="path4987"
         d="m 2550.4536,416.34874 c -4.5357,-24.94642 -23.4345,-27.78125 -20.4107,-35.34076 3.0238,-7.55952 18.7098,10.01638 18.7098,10.01638"
         style="fill:#ffffff;stroke:#000000;stroke-width:3;stroke-linecap:butt;stroke-linejoin:miter;stroke-miterlimit:4;stroke-dasharray:none;stroke-opacity:1" />
      <path
         inkscape:connector-curvature="0"
         id="path4995"
         d="m 2594.0506,303.80358 c -2.2679,4.15774 -9.8274,10.20534 -9.8274,10.20534"
         style="fill:none;stroke:#000000;stroke-width:3;stroke-linecap:butt;stroke-linejoin:miter;stroke-miterlimit:4;stroke-dasharray:none;stroke-opacity:1" />
      <path
         inkscape:connector-curvature="0"
         id="path5059"
         d="m 2539.5176,258.10352 a 6.0006,6.0006 0 0 0 -5.7617,8.17382 l 73.9492,198.3711 a 6.0006,6.0006 0 1 0 11.2441,-4.19141 L 2545,262.08594 a 6.0006,6.0006 0 0 0 -5.4824,-3.98242 z"
         style="color:#000000;font-style:normal;font-variant:normal;font-weight:normal;font-stretch:normal;font-size:medium;line-height:normal;font-family:sans-serif;font-variant-ligatures:normal;font-variant-position:normal;font-variant-caps:normal;font-variant-numeric:normal;font-variant-alternates:normal;font-feature-settings:normal;text-indent:0;text-align:start;text-decoration:none;text-decoration-line:none;text-decoration-style:solid;text-decoration-color:#000000;letter-spacing:normal;word-spacing:normal;text-transform:none;writing-mode:lr-tb;direction:ltr;text-orientation:mixed;dominant-baseline:auto;baseline-shift:baseline;text-anchor:start;white-space:normal;shape-padding:0;clip-rule:nonzero;display:inline;overflow:visible;visibility:visible;opacity:1;isolation:auto;mix-blend-mode:normal;color-interpolation:sRGB;color-interpolation-filters:linearRGB;solid-color:#000000;solid-opacity:1;vector-effect:none;fill:#ffffff;fill-opacity:1;fill-rule:nonzero;stroke:#000000;stroke-width:1;stroke-linecap:round;stroke-linejoin:miter;stroke-miterlimit:4;stroke-dasharray:none;stroke-dashoffset:0;stroke-opacity:1;color-rendering:auto;image-rendering:auto;shape-rendering:auto;text-rendering:auto;enable-background:accumulate" />
      <ellipse
         transform="matrix(1,0,0.16829647,0.98573642,0,0)"
         ry="31.44253"
         rx="24.946428"
         cy="466.17914"
         cx="2534.115"
         id="ellipse4997"
         style="opacity:1;fill:#ffffff;fill-opacity:1;stroke:#000000;stroke-width:3.02162695;stroke-linecap:round;stroke-miterlimit:4;stroke-dasharray:none;stroke-dashoffset:0;stroke-opacity:1" />
      <path
         sodipodi:nodetypes="cc"
         inkscape:connector-curvature="0"
         id="path4999"
         d="m 2611.8154,459.90772 -17.3869,-37.7976"
         style="fill:none;stroke:#000000;stroke-width:5;stroke-linecap:round;stroke-linejoin:miter;stroke-miterlimit:4;stroke-dasharray:none;stroke-opacity:1" />
      <path
         inkscape:connector-curvature="0"
         id="path5001"
         d="m 2591.0267,412.28274 7.5596,15.11903 c 0,0 -38.9316,44.60121 -48.003,26.83632 -9.0714,-17.76489 40.4434,-41.95535 40.4434,-41.95535 z"
         style="fill:#000000;stroke:none;stroke-width:0.26458332px;stroke-linecap:butt;stroke-linejoin:miter;stroke-opacity:1" />
      <path
         inkscape:connector-curvature="0"
         id="path5055"
         d="m 2759.2285,250.0957 a 6.0006,6.0006 0 0 0 -5.7676,7.74414 l 34.7813,120.65039 a 6.0006,6.0006 0 1 0 11.5293,-3.32421 l -34.7793,-120.6504 a 6.0006,6.0006 0 0 0 -5.7637,-4.41992 z"
         style="color:#000000;font-style:normal;font-variant:normal;font-weight:normal;font-stretch:normal;font-size:medium;line-height:normal;font-family:sans-serif;font-variant-ligatures:normal;font-variant-position:normal;font-variant-caps:normal;font-variant-numeric:normal;font-variant-alternates:normal;font-feature-settings:normal;text-indent:0;text-align:start;text-decoration:none;text-decoration-line:none;text-decoration-style:solid;text-decoration-color:#000000;letter-spacing:normal;word-spacing:normal;text-transform:none;writing-mode:lr-tb;direction:ltr;text-orientation:mixed;dominant-baseline:auto;baseline-shift:baseline;text-anchor:start;white-space:normal;shape-padding:0;clip-rule:nonzero;display:inline;overflow:visible;visibility:visible;opacity:1;isolation:auto;mix-blend-mode:normal;color-interpolation:sRGB;color-interpolation-filters:linearRGB;solid-color:#000000;solid-opacity:1;vector-effect:none;fill:#ffffff;fill-opacity:1;fill-rule:nonzero;stroke:#000000;stroke-width:1;stroke-linecap:round;stroke-linejoin:miter;stroke-miterlimit:4;stroke-dasharray:none;stroke-dashoffset:0;stroke-opacity:1;color-rendering:auto;image-rendering:auto;shape-rendering:auto;text-rendering:auto;enable-background:accumulate" />
      <path
         inkscape:connector-curvature="0"
         id="path5171"
         d="m 2694.0769,289.78373 127.7548,-69.22282"
         style="fill:none;stroke:#000000;stroke-width:15;stroke-linecap:round;stroke-linejoin:miter;stroke-miterlimit:4;stroke-dasharray:none;stroke-opacity:1" />
      <path
         sodipodi:nodetypes="ccccsccccscccssccccccc"
         inkscape:connector-curvature="0"
         id="path4989"
         d="m 2612.2848,31.567949 c 5.6276,20.341991 47.1643,65.977646 54.5897,65.247174 -7.2294,0.896688 -29.5778,-11.980408 -44.3667,-21.916101 23.9953,24.172262 51.2926,41.173578 78.7987,58.324048 -0.2921,2.04474 -36.3203,-15.36989 -35.501,-14.49185 1.5626,1.67479 59.0673,34.49452 58.4727,38.65681 l -32.5476,-13.2662 c 27.9714,17.46444 59.4643,32.16333 84.8771,52.18634 -16.6515,-10.39378 -35.8883,-15.94421 -53.6066,-20.64854 0,0 104.8837,47.20387 100.3401,55.48922 -4.5436,8.28536 -37.9523,-11.49258 -37.9523,-11.49258 0,0 53.1866,33.67596 41.694,39.55588 -11.4925,5.87994 -57.1956,-33.94323 -57.1956,-33.94323 0,0 54.5841,42.6346 41.9613,50.78122 -6.6197,4.27231 -30.521,-16.6446 -60.2474,-35.33801 -26.9571,-16.95195 -59.4168,-31.07836 -74.8377,-41.53278 7.9401,6.58528 13.9421,12.68604 15.8527,17.76393 -16.0333,-7.86347 -26.6448,-25.66708 -39.907,-38.61095 0.7888,5.70175 3.9477,10.60169 8.2854,16.30344 -17.8984,-17.1762 -39.471,-33.64059 -47.574,-63.87742 1.6204,18.45491 7.5852,26.48312 12.5617,36.8832 -18.9264,-10.38267 -33.0006,-31.2786 -47.8412,-50.51394"
         style="fill:#ffffff;stroke:#000000;stroke-width:3;stroke-linecap:butt;stroke-linejoin:miter;stroke-miterlimit:4;stroke-dasharray:none;stroke-opacity:1" />
      <path
         style="fill:none;stroke:#000000;stroke-width:1;stroke-linecap:butt;stroke-linejoin:miter;stroke-miterlimit:4;stroke-dasharray:none;stroke-opacity:1"
         d="m 2594.8719,308.13361 1.8709,13.898 c -1.6536,-4.25024 -3.1676,-8.59813 -8.2853,-10.4235 2.566,4.27631 2.7614,8.55262 2.1381,12.82893 -2.1914,-3.4718 -4.7776,-6.4829 -9.0871,-7.48355 3.2664,3.19918 2.3931,7.52739 1.8708,11.75986 -2.779,-3.90274 -6.3124,-7.05103 -11.2253,-8.81989 2.0132,3.54586 3.0534,7.41604 1.8709,12.02714 -1.099,-4.19697 -4.2524,-7.02435 -8.5526,-9.08717"
         id="path5153"
         inkscape:connector-curvature="0"
         sodipodi:nodetypes="ccccccccc" />
      <path
         style="fill:none;stroke:#000000;stroke-width:12;stroke-linecap:round;stroke-linejoin:miter;stroke-miterlimit:4;stroke-dasharray:none;stroke-opacity:1"
         d="m 2530.496,259.92868 30.8596,3.71492"
         id="path5061"
         inkscape:connector-curvature="0" />
      <path
         sodipodi:nodetypes="cccccccsczcscccccccccc"
         inkscape:connector-curvature="0"
         id="path5063"
         d="m 2533.7743,85.322533 c 31.5378,44.901277 72.1628,66.817387 72.1628,66.817387 l -24.5888,-6.94901 60.4029,34.74503 -20.847,0.53454 53.9884,25.12334 -14.9671,1.06908 c 0,0 125.2115,63.51315 111.1842,74.03365 -10.6908,8.01808 -40.625,-19.51067 -40.625,-19.51067 0,0 50.2467,37.68501 34.745,41.96133 -15.5016,4.27631 -43.8322,-31.8051 -43.8322,-31.8051 0,0 34.2105,34.21051 18.7089,35.2796 -15.5016,1.06909 -50.2467,-29.39966 -70.0246,-34.74506 -19.778,-5.34538 -31.0033,-9.08715 -31.0033,-9.08715 0,0 27.796,14.96709 22.9852,13.89801 -4.8109,-1.06907 -51.8503,-24.58879 -51.8503,-24.58879 l 10.1562,16.03616 -57.1956,-40.09042 6.4144,16.57071 -55.0575,-43.8322 11.7599,18.70887 -46.5049,-38.48682"
         style="fill:#ffffff;stroke:#000000;stroke-width:3;stroke-linecap:butt;stroke-linejoin:miter;stroke-miterlimit:4;stroke-dasharray:none;stroke-opacity:1" />
      <path
         sodipodi:nodetypes="cssccccsc"
         inkscape:connector-curvature="0"
         id="path5065"
         d="m 2549.4494,339.33333 c 1.1484,14.92977 8.9232,40.63825 17.0994,50.86388 16.0423,20.06354 36.6766,18.60452 33.1714,25.86529 -5.2917,10.96132 -30.6161,-9.44941 -30.6161,-9.44941 0,0 30.9941,24.19048 20.0328,28.72618 -10.9613,4.53573 -24.9465,-17.00892 -24.9465,-17.00892 0,0 18.1429,41.95535 0.756,40.44347 -17.3869,-1.51191 -15.875,-51.40479 -20.4107,-74.08334 -4.5357,-22.67857 -6.0476,-48.00298 -6.0476,-48.00298"
         style="fill:#ffffff;stroke:#000000;stroke-width:3;stroke-linecap:butt;stroke-linejoin:miter;stroke-miterlimit:4;stroke-dasharray:none;stroke-opacity:1" />
      <path
         sodipodi:nodetypes="csc"
         inkscape:connector-curvature="0"
         id="path5067"
         d="m 2506.3601,244.46131 c 59.3422,16.63095 58.9179,90.7744 44.0777,94.5635 -24.2991,6.20425 -39.101,-44.42515 -39.101,-44.42515"
         style="fill:#ffffff;stroke:#000000;stroke-width:3;stroke-linecap:butt;stroke-linejoin:miter;stroke-miterlimit:4;stroke-dasharray:none;stroke-opacity:1" />
      <path
         sodipodi:nodetypes="cc"
         inkscape:connector-curvature="0"
         id="path5069"
         d="m 2523.6127,296.80544 c -16.528,-4.62257 -36.2185,-2.74174 -47.7436,-21.37234"
         style="fill:none;stroke:#000000;stroke-width:3;stroke-linecap:butt;stroke-linejoin:miter;stroke-miterlimit:4;stroke-dasharray:none;stroke-opacity:1" />
      <path
         sodipodi:nodetypes="ccccc"
         inkscape:connector-curvature="0"
         id="path5119"
         d="m 2609.5207,38.388307 c 0,0 43.3051,-87.803487 -11.8794,-107.836223 m -22.7748,-3.864889 c -38.6319,0.787633 -57.6546,42.288695 -60.1909,72.0895906 -0.378,6.425595 2.0788,11.9062494 2.0788,11.9062494"
         style="fill:none;stroke:#000000;stroke-width:3;stroke-linecap:butt;stroke-linejoin:miter;stroke-miterlimit:4;stroke-dasharray:none;stroke-opacity:1" />
      <path
         style="fill:none;stroke:#000000;stroke-width:3;stroke-linecap:butt;stroke-linejoin:miter;stroke-miterlimit:4;stroke-dasharray:none;stroke-opacity:1"
         d="m 2536.3116,39.812605 c 4.4089,4.83474 14.8739,15.329003 28.8052,16.815595 m 21.1502,-0.247089 c 3.3524,-0.06287 10.6522,-2.805725 12.9758,-5.584507"
         id="path5121"
         inkscape:connector-curvature="0"
         sodipodi:nodetypes="cccc" />
      <path
         sodipodi:nodetypes="cccc"
         inkscape:connector-curvature="0"
         id="path5123"
         d="m 2542.5161,46.644975 c -13.7961,26.269344 3.5315,47.948773 18.8395,23.758297 0.7559,20.221726 43.8452,19.465774 19.8437,-23.62351 -9.4494,13.796131 -16.8199,9.638393 -16.8199,9.638393"
         style="fill:none;stroke:#000000;stroke-width:3;stroke-linecap:butt;stroke-linejoin:miter;stroke-miterlimit:4;stroke-dasharray:none;stroke-opacity:1" />
      <path
         style="font-style:normal;font-variant:normal;font-weight:normal;font-stretch:normal;font-size:95.06243896px;line-height:1.25;font-family:'Blackoak Std';-inkscape-font-specification:'Blackoak Std';letter-spacing:0px;word-spacing:0px;fill:none;fill-opacity:1;stroke:#000000;stroke-width:2;stroke-miterlimit:4;stroke-dasharray:none"
         d="m 2382.804,-198.12305 c -7.2884,0.68111 -6.133,10.31095 -8.1262,15.30929 -1.5246,4.95192 -2.4262,11.51916 -4.7624,15.45634 -11.1716,-1.56585 -21.4499,6.3406 -28.0567,14.61328 -5.562,7.78205 -10.3505,20.41773 -2.5644,28.35937 7.738,6.82619 18.8455,1.69345 26.0664,-3.33789 -0.4114,7.02445 11.7153,6.77327 12.1289,0.13086 1.7452,-10.76067 0.7775,-21.76106 4.3924,-32.29895 2.3108,-11.20853 6.5171,-22.27927 7.7775,-33.56628 -0.5626,-3.26636 -3.7862,-4.8213 -6.8555,-4.66602 z m -241.9023,2.13477 c -6.9751,0.96399 -5.7035,10.21363 -7.2876,15.09854 -3.9243,17.74611 -9.9059,35.10595 -12.6518,53.07919 -0.9903,5.89282 7.3797,11.02247 11.2324,5.62891 3.7049,-6.02766 1.6176,-13.79454 4.3143,-20.21244 3.7566,-16.1174 8.493,-32.10995 11.7677,-48.28951 -0.4347,-3.36029 -4.3276,-5.21234 -7.375,-5.30469 z m -39.828,3.80664 c -13.2947,0.98694 -22.3019,12.80811 -29.6722,22.64857 -7.682,12.17235 -17.0932,24.92003 -17.4587,39.87096 -0.5731,4.83644 3.8223,11.28523 9.0566,8.13477 6.3167,-3.72873 2.7821,-12.46751 6.0254,-18.04493 1.1181,-2.18309 1.7166,-6.61506 3.8067,-7.13867 7.8707,1.3116 15.4601,-2.93398 23.1132,-3.80843 2.7154,-0.79769 5.4244,-1.06289 3.3907,2.51351 -0.6822,7.94074 -7.1328,14.62236 -6.6426,22.63281 1.3231,6.72033 11.5592,5.60408 12.7852,-0.62695 5.6809,-15.91252 11.1662,-32.49237 10.8828,-49.58789 -0.039,-8.73235 -5.7013,-17.20803 -15.2871,-16.59375 z m 0.01,13.33984 c 4.1459,2.06595 1.9535,8.58253 2.1992,12.35157 0.2394,4.87313 -6.9995,2.66286 -10.1331,4.14296 -4.1428,0.59146 -8.5378,1.21354 -12.6989,1.04844 5.3933,-6.84748 11.0908,-16.60064 20.6328,-17.54297 z m 200.244,7.1836 c -6.9599,-0.0325 -6.8503,8.7821 -9.3822,13.30465 -3.7543,10.32547 -8.2709,20.84182 -9.0592,31.89066 -0.098,7.25696 12.0522,6.81321 11.9199,-0.32031 1.5713,-7.33014 2.5186,-15.24353 6.6114,-21.44532 5.7396,-3.76186 10.6065,-10.74133 17.8808,-10.99023 0.759,8.46932 -5.106,16.06623 -7.2773,24.07422 -2.4491,4.9236 -4.9936,16.49698 4.1328,15.0293 7.0192,-1.14097 6.2928,-10.42014 9.0645,-15.21094 2.8013,-9.64778 9.7874,-20.31413 5.4746,-30.53516 -4.3605,-7.50443 -15.0235,-5.78123 -21.1016,-1.5039 -2.8356,3.00334 -1.3346,-2.71641 -4.207,-3.37696 -1.2102,-0.73342 -2.6583,-0.97529 -4.0567,-0.91601 z m -69.707,0.41797 c -6.621,1.30307 -9.1319,9.05553 -13.9961,12.95898 -1.1809,-5.80039 -6.2054,-14.11022 -13.1719,-11.30273 -4.3412,2.02269 -4.1929,7.92242 -0.8008,10.85742 2.0231,3.88515 6.9241,9.44969 1.0118,12.10351 -5.8008,4.78356 -11.2847,10.17887 -17.9629,13.71289 1.6751,-3.75214 -2.1619,-7.63331 -5.8555,-5.63867 -6.9841,3.40167 -15.5725,11.0733 -23.291,5.49414 -1.3951,-2.54432 -0.016,-5.8142 3.3535,-4.88281 9.4727,-1.51908 22.1206,-4.57912 24.6367,-15.40234 2.0406,-7.14469 -4.5026,-13.89217 -11.6211,-13.30274 -11.7402,-0.33762 -20.2854,9.72234 -25.8965,18.72266 -4.1793,1.62743 -5.2791,7.43347 -2.8671,10.61328 -1.8483,7.4298 3.126,15.55207 10.9336,16.44141 9.6736,2.11009 20.7682,-1.55637 27.8066,-7.08789 -0.2615,5.87874 7.7939,7.50899 11.0243,3.18934 5.646,-4.43369 11.3063,-8.85201 16.9327,-13.30849 3.4314,5.41589 4.5038,12.21087 8.3555,17.26563 4.7515,4.04568 10.7919,-1.94133 9.5371,-7.15625 -1.1135,-6.89158 -6.3435,-12.25595 -8.3242,-18.81836 4.6323,-5.28392 10.5479,-9.50619 14.8828,-14.95898 2.1722,-3.89794 0.8027,-10.04506 -4.6875,-9.5 z m 215.9531,1.16211 c -6.0608,0.67103 -5.1408,8.57703 -5.6054,12.99936 -1.5762,10.66838 -5.1771,21.15188 -5.9297,31.88345 0.4216,6.85204 11.8699,6.54028 11.9472,-0.26563 0.3538,-7.62014 2.4139,-15.33163 5.3418,-22.25781 2.9854,-3.65808 6.6988,-8.85563 11.7481,-8.74219 1.9052,5.39579 10.7896,6.54584 12.3554,0.31055 2.5119,-10.84488 -13.3388,-16.84602 -20.6972,-9.84766 -1.5737,1.00742 -3.1246,3.37022 -3.0567,0.15821 -0.7005,-2.68148 -3.3437,-4.51617 -6.1035,-4.23828 z m -173.7793,1.61523 c -6.8807,0.34512 -14.8852,-1.13239 -20.4531,4.24414 -9.7417,7.53609 -17.1265,19.65004 -16.5703,32.2168 1.2729,7.91312 11.4406,12.78445 17.9512,7.42383 2.0499,-1.18444 4.1503,-2.8963 5.8769,-4.14649 -1.3098,3.51799 0.1369,8.45485 4.6055,8.12109 6.0348,1.24998 8.3977,-5.77329 8.1302,-10.54097 1.6074,-10.63914 5.9462,-20.8895 7.3639,-31.49809 -0.1947,-3.61614 -3.3712,-6.06047 -6.9043,-5.82031 z m 142.3848,1.82617 c -11.0955,0.60049 -18.9455,10.10596 -24.3691,18.7168 -4.1794,1.62743 -5.2792,7.43347 -2.8672,10.61328 -1.8483,7.42964 3.126,15.55235 10.9336,16.44141 10.4485,1.75777 22.8384,-1.09276 29.625,-9.66602 3.8722,-4.49876 -1.0483,-11.2757 -6.1582,-7.45117 -6.3242,3.71014 -14.4489,9.84766 -21.7754,5.2207 -1.7751,-2.39778 -0.3894,-6.23162 3.123,-5.17578 9.4727,-1.51908 22.1206,-4.57912 24.6367,-15.40234 2.0625,-8.21529 -5.3253,-14.23784 -13.1484,-13.29688 z m -148.9785,9.19531 c -0.4727,10.28008 -8.8908,18.50063 -17.1817,23.44532 -3.6337,1.03734 -0.9583,-5.12092 -0.5644,-6.93164 3.0804,-7.61055 9.1044,-15.60711 17.7539,-16.87305 z m 101.084,1.49805 c -1.0499,7.54233 -2.1671,16.50875 -10.0521,20.30962 -2.4617,2.29425 -10.4301,6.05911 -10.7468,-0.0635 0.234,-10.74103 10.7251,-19.21547 20.8379,-20.54296 z m -196.2325,0.58594 c 2.7275,1.20791 -2.3731,4.1899 -3.9257,4.5918 -1.3802,0.3914 -6.8649,2.65469 -4.1426,0.0996 2.131,-2.21639 4.7831,-4.72774 8.0683,-4.6914 z m 243.7832,0 c 2.7275,1.20791 -2.3731,4.1899 -3.9257,4.5918 -1.3802,0.3914 -6.8649,2.65469 -4.1426,0.0996 2.131,-2.21639 4.7831,-4.72774 8.0683,-4.6914 z"
         id="path5125"
         inkscape:connector-curvature="0" />
      <path
         style="font-style:normal;font-variant:normal;font-weight:normal;font-stretch:normal;font-size:95.06243896px;line-height:1.25;font-family:'Blackoak Std';-inkscape-font-specification:'Blackoak Std';letter-spacing:0px;word-spacing:0px;fill:none;fill-opacity:1;stroke:#000000;stroke-width:2;stroke-miterlimit:4;stroke-dasharray:none"
         d="m 2845.6732,-191.45117 c -6.9871,0.94161 -5.72,10.21393 -7.3014,15.09851 -3.9256,17.74145 -9.9022,35.09719 -12.6517,53.06555 -1.0011,5.89174 7.3677,11.03868 11.2265,5.64649 3.7127,-6.0261 1.6207,-13.79932 4.3202,-20.21831 3.703,-16.18737 8.6512,-32.23586 11.7423,-48.49263 -0.5634,-3.20647 -4.3765,-5.02494 -7.3359,-5.09961 z m -44.5059,2.9707 c -5.9156,-0.37905 -6.1185,6.66662 -7.3462,10.76413 -4.6768,18.55944 -11.3512,36.6318 -14.8042,55.45072 -0.6519,6.6463 10.8127,7.6599 11.3779,1.07736 1.3423,-4.94958 2.383,-10.13289 3.9034,-14.94455 2.7392,-1.4577 7.6122,-5.487 9.3613,-0.58789 3.7035,5.89204 1.1514,13.0418 3.7246,19.03515 3.4422,5.12505 12.0168,1.79719 11.6953,-4.21875 0.173,-8.98667 -1.1642,-19.26805 -8.2793,-25.57422 5.0304,-4.86929 14.2936,-8.405 14.5293,-16.45703 -1.3672,-5.93549 -10.041,-6.05554 -12.6853,-0.92834 -4.1837,4.71585 -8.7016,9.00816 -13.8596,12.75647 2.5538,-10.50717 6.8473,-20.53557 9.4317,-30.98438 -0.054,-3.5251 -3.9104,-5.47675 -7.0489,-5.38867 z m -121.5136,1.81055 c -6.6997,0.53121 -7.26,9.28932 -12.0059,12.67169 -7.1944,7.68795 -13.7965,16.56873 -23.3242,21.50995 2.2302,-9.63933 8.267,-19.67914 5.6679,-29.79688 -2.9233,-4.81456 -11.5783,-2.43847 -11.7098,3.29863 -3.84,17.87961 -9.9823,35.34022 -12.4073,53.48653 -1.0704,4.83335 2.0032,12.22483 7.9726,9.79883 6.8859,-3.29025 3.2316,-12.71044 5.502,-18.4375 -0.047,-5.07866 6.1885,-5.53057 9.9668,-6.90235 10.1335,1.29513 19.7782,8.96385 20.381,19.68527 -0.3472,5.26188 5.3169,9.79501 10.1463,6.87528 5.4128,-2.43964 4.1462,-8.72247 2.4102,-13.23437 -2.9927,-10.17795 -10.5086,-18.99628 -20.42,-22.97071 8.6367,-8.1525 18.2448,-16.34996 23.6192,-26.98437 0.3053,-3.64084 -1.4265,-8.98013 -5.7988,-9 z m 189.7519,3.43945 c -7.2353,-0.005 -11.9433,11.58691 -4.6074,15.04492 6.5294,2.1093 14.5516,-5.79511 10.0976,-11.97851 -1.9326,-0.86342 -3.1366,-3.17595 -5.4902,-3.06641 z m 21.5625,16.10742 c -6.5836,-0.0762 -6.7876,7.93545 -9.0228,12.37494 -3.883,10.62976 -8.5819,21.43931 -9.4186,32.82038 -0.098,7.25725 12.0492,6.81329 11.9199,-0.31836 1.5952,-7.25859 2.4976,-15.34915 6.6114,-21.44727 5.7419,-3.7873 10.601,-10.69028 17.8828,-10.98828 0.768,8.4724 -5.113,16.06502 -7.2813,24.07422 -2.4442,4.92456 -4.9928,16.48891 4.1309,15.0293 7.0104,-1.14286 6.2787,-10.33711 9.0683,-15.2129 2.8008,-9.6462 9.7868,-20.31234 5.4746,-30.53125 -4.3559,-7.50849 -15.0236,-5.78544 -21.1015,-1.50781 -2.8344,3.00232 -1.3358,-2.71503 -4.2071,-3.37695 -1.2103,-0.73158 -2.6588,-0.9751 -4.0566,-0.91602 z m -125.832,0.19727 c -10.9379,1.42238 -18.0913,11.66714 -22.8028,20.77539 -3.5026,7.93253 -7.4144,19.23792 -0.2988,26.32227 6.8333,6.72789 17.1079,2.30722 23.9981,-1.93555 3.7809,-2.49984 9.42,-7.727 6.7871,-12.67578 -5.019,-3.94623 -9.8813,3.33174 -14.4258,4.80664 -2.3972,1.09284 -8.8966,4.23164 -8.5195,-0.68164 0.8886,-8.74254 5.2757,-17.82957 12.8671,-22.79883 4.6787,4.34409 12.5166,0.60886 12.3516,-5.66602 0.7754,-5.71278 -4.9081,-8.79817 -9.957,-8.14648 z m -63.4082,0.95703 c -5.2776,0.051 -6.9109,5.78199 -6.798,10.10507 -1.5321,8.98109 -5.7085,19.2178 -1.3583,27.98673 3.3602,6.86724 13.1138,8.20236 18.3535,2.70898 3.1889,-3.08552 1.7278,-0.53185 0.1348,1.95313 -5.2908,8.42002 -13.8673,14.72017 -23.7012,16.48046 -5.7949,3.15749 -2.0291,13.834768 4.7676,11.281255 10.641,-2.620563 19.729,-10.066735 26.6953,-18.300785 7.8156,-11.14104 10.6356,-24.83756 15.043,-37.51171 1.8663,-4.59105 2.7725,-12.3553 -3.5742,-13.7793 -4.2479,-1.29629 -8.6379,2.03931 -8.3379,6.61133 -2.535,9.87796 -8.2259,21.0428 -18.4043,24.27929 -2.1332,-6.48776 1.7099,-13.50138 2.9687,-19.89648 2.9621,-4.64727 0.8025,-12.80758 -5.789,-11.91797 z m 252.2265,1.82617 c -11.8057,0.6984 -20.3879,10.99526 -25.7851,20.60547 -2.9174,5.89589 -5.4458,14.4788 0.7402,19.24805 5.4224,5.8387 13.9231,2.3321 19.0859,-1.9043 -2.0341,7.53953 -5.8633,16.96025 -14.8007,17.46289 -6.0441,0.1156 -10.4307,9.92672 -4.4239,13.068361 17.2255,2.503292 28.7716,-14.878121 32.004,-29.782411 2.4037,-10.46153 4.8748,-21.09591 5.7187,-31.77032 -1.327,-5.45318 -7.5272,-7.41653 -12.5391,-6.92774 z m -90.5781,2.21289 c -6.5361,-0.1857 -7.1155,7.56016 -8.2187,12.21485 -2.3521,9.82656 -5.9844,19.49725 -7.4024,29.46484 0.016,5.75842 9.4358,9.19 11.4238,2.81641 3.1884,-13.49842 7.7999,-26.81113 10.3653,-40.38477 -0.442,-2.93673 -3.5193,-4.1638 -6.168,-4.11133 z m 90.1621,8.22852 c 0.2485,4.72446 -3.4832,9.20962 -6.1113,13.04687 -2.9249,2.98763 -6.6048,7.00473 -10.6602,7.52344 1.3733,-9.00514 9.3161,-16.36098 16.7715,-20.57031 z"
         id="path5127"
         inkscape:connector-curvature="0" />
      <path
         style="font-style:normal;font-variant:normal;font-weight:normal;font-stretch:normal;font-size:95.06243896px;line-height:1.25;font-family:'Blackoak Std';-inkscape-font-specification:'Blackoak Std';letter-spacing:0px;word-spacing:0px;fill:none;fill-opacity:1;stroke:#000000;stroke-width:2;stroke-miterlimit:4;stroke-dasharray:none"
         d="m 2137.2095,-91.970703 c -9.1769,1.41197 -14.8927,10.20844 -20.4712,16.77447 -3.6754,4.873076 -7.2194,9.840945 -10.7025,14.852483 0.5027,-8.097723 5.5994,-16.474594 2.7949,-24.554688 -2.4192,-6.470043 -11.337,-7.480788 -16.1328,-3.013671 -17.2264,12.79009 -26.8451,33.009102 -35.0488,52.261477 -1.5396,5.619806 -6.9363,13.590227 -1.125,18.426023 4.5121,3.121968 10.382,-0.755121 10.6543,-5.914063 6.8237,-17.999496 13.5226,-36.702165 26.5117,-51.15039 1.4942,-1.505204 4.5861,-3.772064 3.4433,0.0098 -2.5492,17.057334 -9.2505,33.339044 -11.9453,50.414063 -0.7767,5.848868 7.9868,8.238389 10.3946,2.904296 4.0942,-7.969453 7.6347,-15.940422 13.1788,-23.097609 6.8429,-9.962451 13.3996,-21.335289 22.0007,-29.271531 -3.0048,15.824535 -7.2925,31.607286 -9.535,47.457031 0.4681,5.494806 8.1036,7.81106 10.8358,2.683594 4.0414,-8.802622 3.6724,-19.022775 5.9403,-28.362523 1.3195,-11.184162 4.7152,-22.244882 5.1105,-33.528102 -0.048,-3.336723 -2.1663,-7.07626 -5.9043,-6.890625 z m 342.7265,7.013672 c -7.3631,-0.04776 -12.0092,11.967975 -4.3457,15.136719 6.5004,1.793912 14.22,-5.968984 9.836,-12.06836 -1.9316,-0.864405 -3.1362,-3.178326 -5.4903,-3.068359 z m -228.6953,1.386723 c -5.7047,0.08531 -5.8688,7.067893 -5.7226,11.240234 -0.9465,3.646574 -1.9303,7.288691 -2.8262,10.945312 -4.1773,-0.99745 -10.1441,-0.09229 -10.5742,5.103516 -0.6523,3.78435 3.2278,6.366162 6.5156,6.931641 -2.4172,9.086218 -4.9018,21.682074 4.209,27.984375 10.2287,6.459132 23.5959,-1.26745 27.6755,-11.526803 3.1462,-3.684068 6.4553,-14.049708 -1.6794,-13.066947 -5.126,3.625729 -7.5094,10.657449 -13.4961,13.542968 -2.7588,2.261039 -7.7607,1.263015 -6.8027,-3.070312 0.2373,-5.028073 1.5532,-9.939872 2.9785,-14.746094 7.2797,-1.736943 14.8605,-2.714351 21.7422,-5.5625 4.5379,-2.22987 4.1394,-10.360126 -1.6582,-10.232422 -5.5932,-0.15804 -10.9299,2.473508 -16.4942,2.931641 1.489,-5.506004 7.2095,-19.520551 -3.8672,-20.474609 z m -35.6406,15.894531 c -7.7631,1.048359 -14.8696,6.011742 -19.7617,11.984375 -5.3128,6.566378 0.5551,16.089902 7.934,17.80355 1.929,1.264561 6.5299,1.676157 6.9293,4.116372 -5.3541,3.527129 -12.1799,3.950993 -18.2539,3.298828 -4.2555,1.50827 -5.0428,7.744856 -0.8008,9.886718 7.8671,5.308914 17.851,0.196633 24.9512,-4.105468 5.1449,-3.24155 8.0965,-10.936026 5.2656,-16.490235 -3.7104,-5.0442 -11.3881,-5.601961 -15.6875,-9.060547 2.8981,-3.251503 7.1866,-5.782159 11.5644,-6.005859 2.3345,3.070408 8.0629,3.798895 9.0957,-0.787109 2.7239,-5.099259 -1.772,-10.824975 -7.25,-10.515625 -1.3248,-0.109516 -2.6569,-0.181941 -3.9863,-0.125 z m 122.6348,0.40625 c -6.059,0.67027 -5.1409,8.570937 -5.6057,12.991494 -1.5709,10.569178 -5.1699,21.163712 -5.9295,31.891318 0.4199,6.853993 11.8712,6.540509 11.9473,-0.265625 0.3513,-7.619882 2.4331,-15.324096 5.3418,-22.257812 2.9921,-3.675427 6.6485,-8.749759 11.7265,-8.777344 1.8925,5.418833 10.807,6.601449 12.3789,0.341797 2.3643,-9.382209 -10.2662,-15.861904 -17.8574,-11.505859 -1.9094,0.298632 -4.6996,3.916484 -5.5937,3.248046 -0.2167,-3.282202 -3.0485,-6.025824 -6.4082,-5.666015 z m -157.8125,1.617187 c -6.8789,0.344745 -14.8838,-1.135818 -20.4492,4.242188 -9.7456,7.533507 -17.1297,19.65125 -16.5743,32.21875 1.2739,7.911421 11.4392,12.783079 17.9493,7.423828 2.0537,-1.180258 4.1516,-2.897991 5.8789,-4.148438 -1.3102,3.518521 0.1364,8.455521 4.6054,8.121094 6.0361,1.253036 8.3978,-5.773599 8.1303,-10.540965 1.6076,-10.639763 5.9475,-20.890692 7.3639,-31.500051 -0.1972,-3.615031 -3.3721,-6.057145 -6.9043,-5.816406 z m 135.5371,0 c -6.8803,0.343068 -14.8831,-1.133231 -20.4512,4.242188 -9.7443,7.537823 -17.1282,19.654968 -16.5723,32.224609 1.2831,7.90714 11.44,12.776593 17.9493,7.417969 2.0553,-1.185477 4.1378,-2.88214 5.8789,-4.152344 -1.3078,3.519685 0.1341,8.457922 4.6054,8.125 6.0366,1.253074 8.4012,-5.774222 8.1313,-10.543007 1.6064,-10.639406 5.9463,-20.889693 7.3648,-31.498009 -0.2015,-3.615412 -3.3705,-6.05835 -6.9062,-5.816406 z m 78.3359,1.824219 c -11.1036,0.594773 -18.9479,10.117764 -24.3828,18.71875 -4.1737,1.635615 -5.2681,7.433491 -2.8594,10.611328 -1.8467,7.43018 3.1255,15.552647 10.9336,16.443359 10.4485,1.753808 22.84,-1.092664 29.625,-9.667968 3.8719,-4.498676 -1.0482,-11.274066 -6.1582,-7.451172 -6.3045,3.727048 -14.479,9.851691 -21.7754,5.220703 -1.7837,-2.410868 -0.384,-6.225116 3.1231,-5.173828 9.4721,-1.521922 22.1206,-4.577879 24.6367,-15.402344 2.0627,-8.214381 -5.3201,-14.234608 -13.1426,-13.298828 z m 79.6113,0.171875 c -6.5365,-0.185806 -7.1144,7.560404 -8.2187,12.214844 -2.3433,9.830181 -5.9943,19.503113 -7.4023,29.474609 0.024,5.754618 9.4376,9.176443 11.4238,2.806641 3.1883,-13.498418 7.7998,-26.811127 10.3652,-40.384766 -0.4416,-2.935669 -3.52,-4.163302 -6.168,-4.111328 z m -300.0781,9.025391 c -0.4518,10.289442 -8.8829,18.527674 -17.1953,23.449218 -3.5308,0.849127 -1.0112,-5.034755 -0.5351,-6.980468 3.0912,-7.622485 9.1031,-15.532842 17.7382,-16.828125 z m 135.5391,0 c -0.484,10.279073 -8.8827,18.532785 -17.209,23.453125 -3.5169,0.85283 -1.019,-4.983405 -0.5352,-6.945313 3.0858,-7.629325 9.1013,-15.572611 17.752,-16.867187 z m 84.5547,2.082031 c 2.7795,1.173151 -2.323,4.184977 -3.9082,4.59375 -1.9267,0.698798 -7.4712,2.636373 -3.459,-0.621094 1.9976,-1.922252 4.4282,-4.026674 7.3672,-3.972656 z"
         id="path5129"
         inkscape:connector-curvature="0"
         sodipodi:nodetypes="cccccccccccccccccccccccccccccccccccccccccccccccccccccccccccccccccccccccccccccccccccccccccccccccccccccccccccccc" />
      <path
         style="font-style:normal;font-variant:normal;font-weight:normal;font-stretch:normal;font-size:95.06243896px;line-height:1.25;font-family:'Blackoak Std';-inkscape-font-specification:'Blackoak Std';letter-spacing:0px;word-spacing:0px;fill:none;fill-opacity:1;stroke:#000000;stroke-width:2;stroke-miterlimit:4;stroke-dasharray:none"
         d="m 2845.6621,-93.177734 c -6.9771,0.957819 -5.7084,10.2141 -7.2915,15.098542 -3.9243,17.745499 -9.9052,35.104656 -12.6518,53.077239 -0.9897,5.89001 7.3722,11.023609 11.2285,5.634765 3.6838,-6.046214 1.6712,-13.740082 4.3222,-20.233922 3.7544,-16.112984 8.4929,-32.100353 11.7637,-48.275843 -0.4376,-3.355728 -4.3256,-5.20893 -7.3711,-5.300781 z m -44.498,2.970703 c -5.9151,-0.375194 -6.1165,6.667243 -7.3445,10.76603 -4.6843,18.534682 -11.3476,36.647666 -14.802,55.448813 -0.6554,6.647444 10.8136,7.660947 11.3759,1.077362 1.3436,-4.94892 2.3811,-10.136368 3.9053,-14.944549 2.9125,-1.635629 7.8917,-5.586798 9.5508,-0.242187 3.4773,5.720178 0.9935,12.815413 3.5293,18.68164 3.434,5.135287 12.0253,1.809474 11.6992,-4.210937 0.175,-8.985528 -1.1635,-19.269177 -8.2793,-25.572266 5.03,-4.8686 14.2806,-8.400151 14.5313,-16.445313 -1.3508,-5.946081 -10.0379,-6.074011 -12.6862,-0.944774 -4.1787,4.72173 -8.7034,9.006979 -13.8587,12.759228 2.5605,-10.514008 6.8409,-20.559688 9.4296,-30.984375 -0.051,-3.5263 -3.9135,-5.476623 -7.0507,-5.388672 z m 68.2402,5.25 c -7.3619,-0.04541 -12.0092,11.96845 -4.3437,15.136719 6.4998,1.794302 14.2207,-5.970541 9.8339,-12.06836 -1.9311,-0.865022 -3.1366,-3.180312 -5.4902,-3.068359 z m 21.5508,16.109375 c -6.9537,-0.0077 -6.8328,8.752538 -9.372,13.302869 -3.749,10.327447 -8.2693,20.841278 -9.0577,31.89049 -0.094,7.258205 12.0489,6.815034 11.9199,-0.318359 1.5908,-7.234683 2.4976,-15.305626 6.6074,-21.445313 5.7278,-3.74062 10.5854,-10.720879 17.8946,-10.980469 0.75,8.505996 -5.1184,16.037052 -7.2852,24.064454 -2.4494,4.922748 -4.9948,16.491371 4.1289,15.029296 7.0147,-1.142845 6.2636,-10.343499 9.0664,-15.214843 2.8037,-9.645594 9.7916,-20.316954 5.4727,-30.535157 -4.3627,-7.504756 -15.024,-5.775109 -21.1035,-1.5 -2.8308,3.000726 -1.3329,-2.732928 -4.209,-3.382812 -1.2118,-0.729721 -2.6643,-0.973966 -4.0625,-0.910156 z M 2715,-68.650391 c -10.9337,1.42339 -18.0869,11.664789 -22.7949,20.771485 -3.5832,8.026374 -7.5317,19.732519 0.076,26.662109 7.5174,6.677644 18.1995,1.311882 25.2304,-3.376953 3.1244,-2.498482 8.2552,-7.997575 4.7246,-11.994141 -5.4281,-2.948981 -9.774,4.17317 -14.6093,5.533203 -2.5345,1.301869 -8.9011,3.575101 -7.8711,-1.580078 1.1863,-8.559286 5.4088,-17.424231 12.8535,-22.205078 4.4671,4.132106 12.1046,0.958359 12.291,-5.109375 1.1267,-5.96846 -4.5182,-9.391195 -9.9004,-8.701172 z m 27.2031,0.955079 c -5.2764,0.05346 -6.9105,5.781067 -6.7979,10.105065 -1.5321,8.981034 -5.708,19.217847 -1.3583,27.986731 3.3601,6.867468 13.1137,8.203419 18.3535,2.708985 2.6373,-2.48396 2.3092,-1.460322 0.5957,1.203125 -5.2507,8.771005 -14.0347,15.417215 -24.1563,17.2285154 -5.8023,3.1508432 -2.0378,13.8387651 4.7618,11.2832031 10.6414,-2.62055552 19.7295,-10.0655113 26.6953,-18.3007815 7.8228,-11.157568 10.631,-24.823226 15.0429,-37.509765 1.8662,-4.592098 2.7738,-12.35638 -3.5742,-13.78125 -4.2719,-1.306196 -8.6029,2.055097 -8.3379,6.611328 -2.553,9.947692 -8.1398,20.812223 -18.332,24.357422 -2.3042,-6.459667 1.6617,-13.566651 2.8965,-19.97461 2.9637,-4.646239 0.8015,-12.807205 -5.7891,-11.917968 z m 211.75,1.826171 c -11.8078,0.700648 -20.3893,10.999824 -25.789,20.611329 -2.9126,5.899505 -5.4392,14.474926 0.7461,19.246093 5.4251,5.832347 13.9202,2.328274 19.0839,-1.90625 -1.9692,7.398243 -5.8787,17.020721 -14.7949,17.460938 -6.0489,0.109293 -10.4381,9.93058485 -4.4258,13.0703122 15.9392,2.4258442 27.5887,-12.8961492 31.1465,-26.8457032 3.0467,-11.346736 5.5245,-23.047968 6.5723,-34.714844 -1.3237,-5.438698 -7.537,-7.417646 -12.5391,-6.921875 z m -90.5781,2.212891 c -6.5363,-0.185194 -7.1103,7.560333 -8.2187,12.212891 -2.3486,9.828424 -5.9821,19.497793 -7.4024,29.466797 0.018,5.752385 9.4201,9.190223 11.4219,2.828124 3.1965,-13.499645 7.7895,-26.81503 10.3711,-40.390624 -0.4437,-2.937743 -3.5191,-4.170651 -6.1719,-4.117188 z m 90.1621,8.228516 c 0.2453,4.71811 -3.4551,9.215658 -6.1113,13.046875 -2.9282,3.018205 -6.5996,6.978661 -10.6602,7.52539 1.2991,-8.897309 9.3188,-16.378251 16.7715,-20.572265 z"
         id="path5131"
         inkscape:connector-curvature="0" />
      <path
         sodipodi:type="star"
         style="opacity:1;fill:none;fill-opacity:1;stroke:#000000;stroke-width:2;stroke-linecap:round;stroke-miterlimit:4;stroke-dasharray:none;stroke-dashoffset:0;stroke-opacity:1"
         id="path5133"
         sodipodi:sides="5"
         sodipodi:cx="2165.4023"
         sodipodi:cy="-81.186371"
         sodipodi:r1="8.3154764"
         sodipodi:r2="4.1577382"
         sodipodi:arg1="0.78539816"
         sodipodi:arg2="1.4137167"
         inkscape:flatsided="false"
         inkscape:rounded="0"
         inkscape:randomized="0"
         d="m 2171.2823,-75.306441 -5.2295,-1.77338 -4.4256,3.302594 0.071,-5.52157 -4.5086,-3.188401 5.2732,-1.639138 1.6391,-5.273134 3.1884,4.508527 5.5216,-0.07058 -3.3026,4.425561 z"
         inkscape:transform-center-x="0.40199163"
         inkscape:transform-center-y="-0.40197657" />
      <path
         inkscape:transform-center-y="-0.099518122"
         inkscape:transform-center-x="-0.69882404"
         d="m 1083.7779,-75.306441 -5.2295,-1.77338 -4.4256,3.302594 0.071,-5.52157 -4.5085,-3.188401 5.2731,-1.639138 1.6391,-5.273134 3.1884,4.508527 5.5216,-0.07058 -3.3026,4.425561 z"
         inkscape:randomized="0"
         inkscape:rounded="0"
         inkscape:flatsided="false"
         sodipodi:arg2="1.4137167"
         sodipodi:arg1="0.78539816"
         sodipodi:r2="4.1577382"
         sodipodi:r1="8.3154764"
         sodipodi:cy="-81.186371"
         sodipodi:cx="1077.8979"
         sodipodi:sides="5"
         id="path5135"
         style="opacity:1;fill:none;fill-opacity:1;stroke:#000000;stroke-width:2;stroke-linecap:round;stroke-miterlimit:4;stroke-dasharray:none;stroke-dashoffset:0;stroke-opacity:1"
         sodipodi:type="star"
         transform="rotate(24.780908,1633.6773,2448.6524)" />
      <path
         style="fill:none;stroke:#000000;stroke-width:3;stroke-linecap:butt;stroke-linejoin:miter;stroke-miterlimit:4;stroke-dasharray:none;stroke-opacity:1"
         d="m 2602.0558,36.679481 c 0,0 -20.496,8.663329 -32.5231,-9.778267 -12.0271,-18.4415971 -4.761,-35.6575534 -4.761,-35.6575534"
         id="path5137"
         inkscape:connector-curvature="0"
         sodipodi:nodetypes="csc" />
      <path
         style="fill:none;stroke:#000000;stroke-width:2;stroke-linecap:butt;stroke-linejoin:miter;stroke-miterlimit:4;stroke-dasharray:none;stroke-opacity:1"
         d="m 2404.6845,258.44643 c -18.1429,13.60715 -24.1905,13.22916 -24.1905,13.22916 l 27.9702,3.77976 -27.5922,14.74108 30.616,-0.37799 -22.3006,15.11906 26.0804,-6.04763 -13.2292,16.63096"
         id="path5139"
         inkscape:connector-curvature="0" />
      <path
         style="fill:none;stroke:#000000;stroke-width:1;stroke-linecap:butt;stroke-linejoin:miter;stroke-miterlimit:4;stroke-dasharray:none;stroke-opacity:1"
         d="m 2298.7049,101.09143 c 36.2723,21.02753 60.6036,54.43769 60.4029,54.65662"
         id="path5141"
         inkscape:connector-curvature="0"
         sodipodi:nodetypes="cc" />
      <path
         style="fill:none;stroke:#000000;stroke-width:1;stroke-linecap:butt;stroke-linejoin:miter;stroke-miterlimit:4;stroke-dasharray:none;stroke-opacity:1"
         d="m 2297.1012,137.17282 c 63.6102,45.43582 64.1447,71.09369 64.1447,71.09369"
         id="path5143"
         inkscape:connector-curvature="0" />
      <path
         style="fill:none;stroke:#000000;stroke-width:1;stroke-linecap:butt;stroke-linejoin:miter;stroke-miterlimit:4;stroke-dasharray:none;stroke-opacity:1"
         d="m 2309.6629,183.41045 c 43.4642,14.94288 60.8072,50.80869 60.6702,51.04848"
         id="path5145"
         inkscape:connector-curvature="0"
         sodipodi:nodetypes="cc" />
      <path
         style="fill:none;stroke:#000000;stroke-width:1;stroke-linecap:butt;stroke-linejoin:miter;stroke-miterlimit:4;stroke-dasharray:none;stroke-opacity:1"
         d="m 2318.2386,234.56908 c 44.4351,-3.69308 69.5243,16.67016 68.681,17.82973"
         id="path5147"
         inkscape:connector-curvature="0"
         sodipodi:nodetypes="cc" />
      <path
         style="fill:none;stroke:#000000;stroke-width:1;stroke-linecap:butt;stroke-linejoin:miter;stroke-miterlimit:4;stroke-dasharray:none;stroke-opacity:1"
         d="m 2342.6964,276.21132 c 34.6246,-19.91108 57.3264,-15.65462 57.4524,-15.11906"
         id="path5149"
         inkscape:connector-curvature="0"
         sodipodi:nodetypes="cc" />
      <path
         style="fill:none;stroke:#000000;stroke-width:1;stroke-linecap:butt;stroke-linejoin:miter;stroke-miterlimit:4;stroke-dasharray:none;stroke-opacity:1"
         d="m 2505.8387,245.14971 c 16.5708,8.81989 17.6398,15.50163 17.6398,15.50163 -5.8932,-4.78432 -11.8671,-9.40726 -19.2434,-11.22532 3.4173,4.94684 8.8604,9.51344 8.2747,16.96213 -6.1584,-8.40615 -11.3874,-10.6783 -16.2928,-10.81493 5.4135,3.84661 10.4939,7.94308 10.9581,15.50164 -3.8706,-3.88778 -7.7193,-7.7962 -15.7689,-7.75082 5.4657,3.02833 8.304,7.83628 7.2676,13.86559 -3.6663,-3.90033 -7.3706,-7.75742 -14.4839,-7.71839 3.2586,3.49065 9.6125,5.88427 7.6781,11.60051 -4.0987,-3.89554 -10.2028,-4.11472 -15.6962,-5.45331"
         id="path5151"
         inkscape:connector-curvature="0"
         sodipodi:nodetypes="ccccccccccc" />
      <path
         style="fill:none;stroke:#000000;stroke-width:1;stroke-linecap:butt;stroke-linejoin:miter;stroke-miterlimit:4;stroke-dasharray:none;stroke-opacity:1"
         d="m 2690.7893,222.69907 c 11.7598,9.88897 16.5706,17.90706 16.5706,17.90706 -6.19,-3.83311 -12.1956,-7.91221 -20.5797,-8.8199 5.797,4.54049 9.8084,9.9738 13.0962,15.7689 -5.2867,-4.75007 -12.2282,-6.19052 -19.2434,-7.48354 6.9376,3.9029 10.0188,10.25993 14.4326,15.7689 -8.2821,-1.47871 -16.5929,-3.27228 -25.1234,-7.48355 8.0727,4.41787 15.5828,9.32791 21.6488,15.50164 -6.7274,2.18061 -17.1235,-2.24233 -28.8651,-9.08717 6.0608,6.93508 2.1365,9.34861 20.0453,21.64882"
         id="path5155"
         inkscape:connector-curvature="0"
         sodipodi:nodetypes="cccccccccc" />
      <path
         style="fill:none;stroke:#000000;stroke-width:1;stroke-linecap:butt;stroke-linejoin:miter;stroke-miterlimit:4;stroke-dasharray:none;stroke-opacity:1"
         d="m 2742.105,185.81588 c 21.7139,11.86383 22.0252,16.20889 21.9161,16.30343 l -23.2525,-9.35443 c 7.2362,4.75992 12.7259,10.10198 12.4538,17.36465 -6.1472,-3.4447 -13.5228,-11.23367 -19.67,-11.21745 l 15.7689,16.30344 c -9.3404,-0.8564 -16.9671,-4.75949 -24.0543,-9.6217 5.4964,9.18208 10.2024,13.35897 14.9671,17.90706 -7.7514,-1.69033 -14.2558,-10.45312 -21.3816,-9.08717 0.8325,6.08693 4.7876,9.44165 9.6218,12.02713"
         id="path5157"
         inkscape:connector-curvature="0"
         sodipodi:nodetypes="cccccccccc" />
      <ellipse
         style="opacity:1;fill:#000000;fill-opacity:1;stroke:#000000;stroke-width:1;stroke-linecap:round;stroke-miterlimit:4;stroke-dasharray:none;stroke-dashoffset:0;stroke-opacity:1"
         id="ellipse5159"
         cx="2575.7539"
         cy="-2.8268318"
         rx="1.6063988"
         ry="1.7008928" />
      <ellipse
         ry="1.7008928"
         rx="1.6063988"
         cy="-2.9241076"
         cx="2588.2864"
         id="ellipse5161"
         style="opacity:1;fill:#000000;fill-opacity:1;stroke:#000000;stroke-width:1;stroke-linecap:round;stroke-miterlimit:4;stroke-dasharray:none;stroke-dashoffset:0;stroke-opacity:1" />
      <path
         style="fill:none;stroke:#000000;stroke-width:8.00055981;stroke-linecap:round;stroke-linejoin:miter;stroke-miterlimit:4;stroke-dasharray:none;stroke-opacity:1"
         d="m 2852.3722,509.35881 -10.917,7.29861"
         id="path5163"
         inkscape:connector-curvature="0"
         sodipodi:nodetypes="cc" />
      <path
         inkscape:connector-curvature="0"
         id="path5057"
         d="m 2794.7676,377.61523 a 4.0004,4.0004 0 0 0 -2.1856,0.53516 c 0,0 -3.6184,2.1642 -5.9238,6.76758 -2.3054,4.60338 -3.5715,11.7685 -0.9336,21.74414 2.3547,8.90427 6.4435,29.27704 14.3399,51.40234 7.8963,22.12531 19.6066,46.24803 37.8847,63.27344 a 4.0004,4.0004 0 1 0 5.4531,-5.85351 c -16.749,-15.60117 -28.137,-38.62496 -35.8046,-60.10938 -7.6677,-21.48442 -11.607,-41.1838 -14.1387,-50.75781 -2.2484,-8.50265 -1.0393,-13.33791 0.3515,-16.11524 1.3909,-2.77732 2.6895,-3.375 2.6895,-3.375 a 4.0004,4.0004 0 0 0 -1.7324,-7.51172 z"
         style="color:#000000;font-style:normal;font-variant:normal;font-weight:normal;font-stretch:normal;font-size:medium;line-height:normal;font-family:sans-serif;font-variant-ligatures:normal;font-variant-position:normal;font-variant-caps:normal;font-variant-numeric:normal;font-variant-alternates:normal;font-feature-settings:normal;text-indent:0;text-align:start;text-decoration:none;text-decoration-line:none;text-decoration-style:solid;text-decoration-color:#000000;letter-spacing:normal;word-spacing:normal;text-transform:none;writing-mode:lr-tb;direction:ltr;text-orientation:mixed;dominant-baseline:auto;baseline-shift:baseline;text-anchor:start;white-space:normal;shape-padding:0;clip-rule:nonzero;display:inline;overflow:visible;visibility:visible;opacity:1;isolation:auto;mix-blend-mode:normal;color-interpolation:sRGB;color-interpolation-filters:linearRGB;solid-color:#000000;solid-opacity:1;vector-effect:none;fill:#ffffff;fill-opacity:1;fill-rule:nonzero;stroke:#000000;stroke-width:1;stroke-linecap:round;stroke-linejoin:miter;stroke-miterlimit:4;stroke-dasharray:none;stroke-dashoffset:0;stroke-opacity:1;color-rendering:auto;image-rendering:auto;shape-rendering:auto;text-rendering:auto;enable-background:accumulate" />
      <path
         sodipodi:nodetypes="cccsccsccc"
         inkscape:connector-curvature="0"
         id="path5226"
         d="m 2789.1578,379.11857 c 0.8687,1.46997 0.2675,2.3386 0.067,3.47448 -0.2006,1.13591 2.9901,4.25962 4.126,4.32643 0.7052,0.0415 1.7767,-1.37165 3.2795,-2.35568 0.9176,-0.6008 2.0381,-0.93233 3.0513,-1.18564 2.6728,-0.66818 1.0359,-6.93231 1.0359,-6.93231 0,0 0.4743,0.12785 -0.2164,-0.0551 -0.2033,-0.0539 -1.0128,0.0355 -1.2537,-0.0117 -1.5369,-0.86863 -8.0848,-0.80182 -8.2854,-0.46773 -0.2005,0.33409 -1.8042,3.20725 -1.8042,3.20725 z"
         style="fill:#ffffff;stroke:none;stroke-width:0.26458332px;stroke-linecap:butt;stroke-linejoin:miter;stroke-opacity:1" />
      <path
         inkscape:connector-curvature="0"
         id="path5228"
         d="m 2789.0242,380.25445 c 3.1406,2.00451 10.0227,0 10.9583,-4.14268"
         style="fill:none;stroke:#000000;stroke-width:1;stroke-linecap:butt;stroke-linejoin:miter;stroke-miterlimit:4;stroke-dasharray:none;stroke-opacity:1" />
    </g>
  </g>
</svg>
