<?xml version="1.0" encoding="UTF-8" standalone="no"?>
<!-- Created with Inkscape (http://www.inkscape.org/) -->

<svg
   xmlns:dc="http://purl.org/dc/elements/1.1/"
   xmlns:cc="http://creativecommons.org/ns#"
   xmlns:rdf="http://www.w3.org/1999/02/22-rdf-syntax-ns#"
   xmlns:svg="http://www.w3.org/2000/svg"
   xmlns="http://www.w3.org/2000/svg"
   xmlns:sodipodi="http://sodipodi.sourceforge.net/DTD/sodipodi-0.dtd"
   xmlns:inkscape="http://www.inkscape.org/namespaces/inkscape"
   width="744.09448819"
   height="1052.3622047"
   id="svg5122"
   version="1.1"
   inkscape:version="0.48.4 r9939"
   sodipodi:docname="blackspotsfilter.svg">
  <defs
     id="defs5124">
    <filter
       id="filter5132"
       inkscape:label="filter1">
      <feTurbulence
         id="feTurbulence5134"
         baseFrequency="0.013999999999999999"
         numOctaves="2"
         seed="0" />
      <feDiffuseLighting
         id="feDiffuseLighting5136"
         surfaceScale="305.43933054393312"
         diffuseConstant="10.612244897959183"
         kernelUnitLength="6.474117647058824 9.4575565610859726"
         lighting-color="rgb(255,255,255)">
        <feDistantLight
           id="feDistantLight5142"
           azimuth="22"
           elevation="77" />
      </feDiffuseLighting>
      <feMorphology
         id="feMorphology5159"
         radius="4.2000000000000002"
         operator="dilate"
         result="result1" />
      <feComposite
         id="feComposite5671"
         in2="SourceGraphic"
         operator="arithmetic"
         in="result1"
         k1="1"
         k2="-2.7755575615628914e-017"
         k3="2.7755575615628914e-017" />
    </filter>
  </defs>
  <sodipodi:namedview
     id="base"
     pagecolor="#ffffff"
     bordercolor="#666666"
     borderopacity="1.0"
     inkscape:pageopacity="0.0"
     inkscape:pageshadow="2"
     inkscape:zoom="0.35"
     inkscape:cx="-90.714286"
     inkscape:cy="520"
     inkscape:document-units="px"
     inkscape:current-layer="layer1"
     showgrid="false"
     inkscape:window-width="1366"
     inkscape:window-height="721"
     inkscape:window-x="-4"
     inkscape:window-y="24"
     inkscape:window-maximized="1" />
  <metadata
     id="metadata5127">
    <rdf:RDF>
      <cc:Work
         rdf:about="">
        <dc:format>image/svg+xml</dc:format>
        <dc:type
           rdf:resource="http://purl.org/dc/dcmitype/StillImage" />
        <dc:title></dc:title>
      </cc:Work>
    </rdf:RDF>
  </metadata>
  <g
     inkscape:label="Layer 1"
     inkscape:groupmode="layer"
     id="layer1">
    <rect
       style="opacity:1;fill:#800000;fill-opacity:1;fill-rule:nonzero;stroke:none"
       id="rect5161"
       width="765.71429"
       height="562.85712"
       x="65.714287"
       y="106.6479" />
    <rect
       style="fill:#ffffff;fill-opacity:1;fill-rule:nonzero;stroke:none;filter:url(#filter5132)"
       id="rect5130"
       width="425.71429"
       height="320"
       x="171.4286"
       y="52.36219" />
    <g
       style="font-size:243.11555480999996000px;font-style:normal;font-variant:normal;font-weight:bold;font-stretch:normal;line-height:125%;letter-spacing:0px;word-spacing:0px;fill:#ff0000;fill-opacity:1;stroke:none;filter:url(#filter5132);font-family:Arial;-inkscape-font-specification:Arial Bold"
       id="text5673"
       transform="translate(31.428571,62.857143)">
      <path
         d="m 74.928064,453.59455 34.188126,-3.32385 c 2.05757,11.47523 6.23216,19.90354 12.52377,25.28497 6.29151,5.38149 14.77918,8.07222 25.46303,8.07219 11.31681,3e-5 19.84405,-2.39393 25.58174,-7.18188 5.73748,-4.78788 8.60627,-10.38697 8.60639,-16.79729 -1.2e-4,-4.11518 -1.20699,-7.61708 -3.62062,-10.50572 -2.41385,-2.88852 -6.62801,-5.40119 -12.64248,-7.53801 -4.11533,-1.42443 -13.49332,-3.95689 -28.13398,-7.59736 -18.83518,-4.66913 -32.0514,-10.40672 -39.648727,-17.21277 -10.68381,-9.57574 -16.025699,-21.24876 -16.025684,-35.01909 -1.5e-5,-8.86345 2.512651,-17.15327 7.538007,-24.86948 5.02531,-7.71591 12.266534,-13.59199 21.723704,-17.62826 9.45708,-4.03592 20.87289,-6.05397 34.24748,-6.05414 21.84231,1.7e-4 38.28346,4.78809 49.32349,14.36376 11.03978,9.57599 16.83672,22.35696 17.39084,38.34293 l -35.1378,1.54321 c -1.50375,-8.94259 -4.72867,-15.37264 -9.67476,-19.29017 -4.9463,-3.91725 -12.36559,-5.87594 -22.2579,-5.87609 -10.20902,1.5e-4 -18.20207,2.09734 -23.97917,6.29157 -3.71959,2.69087 -5.57936,6.2917 -5.57931,10.8025 -5e-5,4.11536 1.74101,7.63705 5.22319,10.56508 4.43173,3.71965 15.19465,7.59747 32.28878,11.63346 17.09396,4.0362 29.73643,8.21079 37.92745,12.52377 8.19077,4.31318 14.60104,10.20904 19.23082,17.68761 4.6295,7.47872 6.94431,16.71821 6.94446,27.71849 -1.5e-4,9.97158 -2.77001,19.31 -8.30961,28.01527 -5.53988,8.70533 -13.37465,15.17495 -23.50433,19.40889 -10.12993,4.23394 -22.75261,6.35091 -37.8681,6.35092 -22.00075,-10e-6 -38.89695,-5.08469 -50.688645,-15.25408 C 84.266469,487.88162 77.22309,473.06282 74.928064,453.59455 z"
         id="path5678"
         inkscape:connector-curvature="0"
         style="fill:#ff0000" />
      <path
         d="m 245.03773,384.14992 31.1017,0 0,18.51857 c 4.03605,-6.33103 9.49665,-11.47507 16.38181,-15.43214 6.88504,-3.95684 14.52196,-5.93531 22.91079,-5.93544 14.64065,1.3e-4 27.06549,5.73771 37.27456,17.21277 10.20882,11.47528 15.31329,27.46138 15.31343,47.95834 -1.4e-4,21.05106 -5.14418,37.41307 -15.43214,49.08608 -10.28821,11.67303 -22.75262,17.50954 -37.39326,17.50954 -6.96433,0 -13.27567,-1.38494 -18.93405,-4.15481 -5.65852,-2.76987 -11.61373,-7.51821 -17.86567,-14.24505 l 0,63.50919 -33.35717,0 z m 33.00104,60.89759 c -5e-5,14.16597 2.80939,24.63211 8.42832,31.39847 5.61882,6.76643 12.46435,10.14963 20.53662,10.1496 7.75555,3e-5 14.20539,-3.10618 19.34953,-9.31863 5.14394,-6.21239 7.71596,-16.40155 7.71607,-30.56751 -1.1e-4,-13.21617 -2.65127,-23.02942 -7.95349,-29.43978 -5.30241,-6.41017 -11.87096,-9.6153 -19.70565,-9.61541 -8.15141,1.1e-4 -14.9178,3.14588 -20.2992,9.43735 -5.38152,6.29165 -8.07225,15.61028 -8.0722,27.95591 z"
         id="path5680"
         inkscape:connector-curvature="0"
         style="fill:#ff0000" />
      <path
         d="m 386.8947,445.40364 c -10e-6,-11.07941 2.73029,-21.80276 8.19091,-32.17007 5.46058,-10.36713 13.19642,-18.28104 23.20756,-23.74176 10.01106,-5.46048 21.18945,-8.19077 33.53523,-8.1909 19.07245,1.3e-4 34.70242,6.19276 46.88996,18.57792 12.1873,12.38538 18.28101,28.03514 18.28115,46.94932 -1.4e-4,19.07258 -6.1532,34.88062 -18.45921,47.42415 -12.30625,12.54356 -27.79773,18.81534 -46.47448,18.81534 -11.55439,0 -22.57451,-2.61159 -33.0604,-7.83478 -10.48597,-5.22318 -18.45923,-12.87988 -23.91981,-22.97015 -5.46062,-10.0902 -8.19092,-22.37655 -8.19091,-36.85907 z m 34.18813,1.78063 c -5e-5,12.50404 2.96767,22.07987 8.90315,28.72752 5.93538,6.64772 13.25575,9.97157 21.96113,9.97154 8.70522,3e-5 16.0058,-3.32382 21.90176,-9.97154 5.89577,-6.64765 8.8437,-16.30262 8.84381,-28.96493 -1.1e-4,-12.34564 -2.94804,-21.84233 -8.84381,-28.49011 -5.89596,-6.64759 -13.19654,-9.97143 -21.90176,-9.97154 -8.70538,1.1e-4 -16.02575,3.32395 -21.96113,9.97154 -5.93548,6.64778 -8.9032,16.22361 -8.90315,28.72752 z"
         id="path5682"
         inkscape:connector-curvature="0"
         style="fill:#ff0000" />
      <path
         d="m 601.04535,384.14992 0,26.59076 -22.79208,0 0,50.80735 c -5e-5,10.28813 0.21758,16.28292 0.6529,17.98438 0.43521,1.70152 1.42445,3.10624 2.96772,4.21416 1.54316,1.10798 3.42271,1.66195 5.63867,1.66193 3.08636,2e-5 7.55772,-1.06836 13.41409,-3.20514 l 2.84901,25.87851 c -7.75571,3.32384 -16.54015,4.98577 -26.35335,4.98577 -6.01462,0 -11.43565,-1.00903 -16.2631,-3.02708 -4.82752,-2.01804 -8.369,-4.62963 -10.62444,-7.83477 -2.25548,-3.20513 -3.81848,-7.53799 -4.68899,-12.99861 -0.71227,-3.8778 -1.0684,-11.71257 -1.06838,-23.50434 l 0,-54.96216 -15.31343,0 0,-26.59076 15.31343,0 0,-25.04755 33.47587,-19.46824 0,44.51579 z"
         id="path5684"
         inkscape:connector-curvature="0"
         style="fill:#ff0000" />
      <path
         d="m 682.24213,384.14992 0,26.59076 -22.79208,0 0,50.80735 c -5e-5,10.28813 0.21758,16.28292 0.6529,17.98438 0.43521,1.70152 1.42445,3.10624 2.96772,4.21416 1.54315,1.10798 3.42271,1.66195 5.63866,1.66193 3.08637,2e-5 7.55772,-1.06836 13.41409,-3.20514 l 2.84901,25.87851 c -7.75571,3.32384 -16.54015,4.98577 -26.35334,4.98577 -6.01463,0 -11.43565,-1.00903 -16.2631,-3.02708 -4.82752,-2.01804 -8.369,-4.62963 -10.62444,-7.83477 -2.25549,-3.20513 -3.81848,-7.53799 -4.68899,-12.99861 -0.71228,-3.8778 -1.0684,-11.71257 -1.06838,-23.50434 l 0,-54.96216 -15.31343,0 0,-26.59076 15.31343,0 0,-25.04755 33.47587,-19.46824 0,44.51579 z"
         id="path5686"
         inkscape:connector-curvature="0"
         style="fill:#ff0000" />
      <path
         d="m 689.83947,384.14992 35.49393,0 30.15202,89.50641 29.43978,-89.50641 34.54425,0 -44.51579,121.32036 -7.95349,21.96112 c -2.92822,7.35992 -5.71788,12.97879 -8.36897,16.85664 -2.65123,3.87779 -5.69808,7.02357 -9.14057,9.43735 -3.44261,2.4137 -7.67655,4.29325 -12.70184,5.63867 -5.02538,1.34531 -10.70361,2.018 -17.03471,2.01805 -6.4103,-5e-5 -12.70185,-0.67274 -18.87469,-2.01805 l -2.96772,-26.11593 c 5.22317,1.02878 9.93195,1.54319 14.12634,1.54321 7.75561,-2e-5 13.4932,-2.27527 17.21277,-6.82575 3.7195,-4.55052 6.56851,-10.34746 8.54704,-17.39084 z"
         id="path5688"
         inkscape:connector-curvature="0"
         style="fill:#ff0000" />
    </g>
  </g>
</svg>
