<?xml version="1.0" encoding="UTF-8" standalone="no"?>
<!-- Created with Inkscape (http://www.inkscape.org/) -->

<svg
   xmlns:dc="http://purl.org/dc/elements/1.1/"
   xmlns:cc="http://creativecommons.org/ns#"
   xmlns:rdf="http://www.w3.org/1999/02/22-rdf-syntax-ns#"
   xmlns:svg="http://www.w3.org/2000/svg"
   xmlns="http://www.w3.org/2000/svg"
   xmlns:sodipodi="http://sodipodi.sourceforge.net/DTD/sodipodi-0.dtd"
   xmlns:inkscape="http://www.inkscape.org/namespaces/inkscape"
   width="744.09448819"
   height="1052.3622047"
   id="svg2"
   version="1.1"
   inkscape:version="0.48.4 r9939"
   sodipodi:docname="blackboardfilter2.svg">
  <defs
     id="defs4">
    <filter
       id="filter2987"
       inkscape:menu-tooltip="Draws a black outline around"
       inkscape:menu="ABCs"
       inkscape:label="Black outline"
       color-interpolation-filters="sRGB">
      <feTurbulence
         id="feTurbulence2995"
         baseFrequency=".01"
         type="fractalNoise"
         numOctaves="5"
         result="turb" />
      <feConvolveMatrix
         id="feConvolveMatrix3003"
         kernelMatrix="-1 0 1"
         divisor=".04"
         result="result1" />
      <feTurbulence
         id="feTurbulence4153"
         baseFrequency=".2"
         result="result2" />
      <feDisplacementMap
         id="feDisplacementMap4155"
         in2="result2"
         in="result1"
         scale="70"
         xChannelSelector="A"
         yChannelSelector="A" />
      <feMorphology
         id="feMorphology4159"
         radius="1" />
      <feGaussianBlur
         id="feGaussianBlur4161"
         stdDeviation=".5"
         result="result3" />
      <feComposite
         id="feComposite4163"
         in2="result3"
         in="SourceGraphic"
         operator="out"
         result="genomskinlig" />
    </filter>
    <filter
       id="filter2987-1"
       inkscape:menu-tooltip="Draws a black outline around"
       inkscape:menu="ABCs"
       inkscape:label="Black outline"
       color-interpolation-filters="sRGB">
      <feTurbulence
         id="feTurbulence2995-7"
         result="result1"
         baseFrequency=".32" />
      <feComposite
         id="feComposite2997"
         in2="result1"
         in="SourceGraphic"
         operator="out" />
      <feConvolveMatrix
         id="feConvolveMatrix3003-4"
         kernelMatrix="-10 0 10" />
      <feMorphology
         id="feMorphology3007"
         radius="1.5"
         operator="dilate"
         result="krita_fin" />
      <feTurbulence
         id="feTurbulence3009"
         baseFrequency=".5"
         type="fractalNoise"
         result="result2" />
      <feDisplacementMap
         id="feDisplacementMap3011"
         in2="result2"
         in="krita_fin"
         scale="2"
         xChannelSelector="A"
         yChannelSelector="A"
         result="krita" />
      <feConvolveMatrix
         id="feConvolveMatrix3085"
         in="SourceGraphic"
         kernelMatrix="-2 0 2"
         result="outline" />
      <feOffset
         id="feOffset3087"
         in="outline"
         result="result3"
         dx="8"
         dy="2" />
      <feComposite
         id="feComposite3089"
         in2="result3"
         in="krita" />
    </filter>
  </defs>
  <sodipodi:namedview
     id="base"
     pagecolor="#ffffff"
     bordercolor="#666666"
     borderopacity="1.0"
     inkscape:pageopacity="0.0"
     inkscape:pageshadow="2"
     inkscape:zoom="0.98994949"
     inkscape:cx="-563.80599"
     inkscape:cy="52.216616"
     inkscape:document-units="px"
     inkscape:current-layer="layer1"
     showgrid="false"
     inkscape:window-width="1366"
     inkscape:window-height="721"
     inkscape:window-x="-4"
     inkscape:window-y="24"
     inkscape:window-maximized="1" />
  <metadata
     id="metadata7">
    <rdf:RDF>
      <cc:Work
         rdf:about="">
        <dc:format>image/svg+xml</dc:format>
        <dc:type
           rdf:resource="http://purl.org/dc/dcmitype/StillImage" />
        <dc:title />
      </cc:Work>
    </rdf:RDF>
  </metadata>
  <g
     inkscape:label="Layer 1"
     inkscape:groupmode="layer"
     id="layer1">
    <rect
       style="fill:#000000;fill-opacity:1"
       id="rect3001"
       width="765.69562"
       height="411.13208"
       x="-268.24222"
       y="383.0762" />
    <rect
       style="fill:#1a1a1a;fill-opacity:1;filter:url(#filter2987)"
       id="rect2985"
       width="757.63605"
       height="394.96664"
       x="-724.6106"
       y="796.59863" />
    <path
       style="fill:#ffffff;fill-opacity:1;fill-rule:nonzero;stroke:none;filter:url(#filter2987-1)"
       d="m -687.24656,911.29443 -12.09375,8.8125 c 9.3592,0.83348 18.59394,2.73743 27.78125,4.65625 9.22983,1.95025 18.46156,3.67284 27.84375,4.6875 5.34193,0.48086 9.75509,0.23691 14.68749,-1.875 1.60025,-0.91899 3.21135,-1.83259 4.8125,-2.75 -0.72323,0.71078 -0.25093,0.41063 1.3125,-0.625 -0.0197,-0.0347 -0.0413,-0.0608 -0.0625,-0.0937 -0.40418,0.23163 -0.81454,0.4559 -1.21875,0.6875 0.23325,-0.22853 0.58454,-0.54447 1.03125,-0.96875 0.0795,0.0806 0.12374,0.18246 0.1875,0.28125 0.54191,-0.31055 1.08319,-0.62679 1.625,-0.9375 -0.49057,0.3214 -1.20019,0.79126 -1.5625,1.03125 0.55036,0.97174 0.506,2.6119 0.625,3.59375 0.25056,2.06729 0.34431,2.56556 0.6875,4.75 0.94572,7.11722 1.67541,14.27607 2.1875,21.4375 0.38931,6.29533 0.63154,12.61255 0.0625,18.90625 -0.47321,5.23385 -0.79334,6.26337 -1.75,11.4375 -1.77718,7.20567 -3.35177,15.1844 -7,21.74997 -0.55415,0.9973 -1.27717,1.892 -1.90625,2.8438 -4.08198,5.4514 -9.75741,9.3488 -15.15624,13.375 -0.77071,0.6511 -2.0441,1.5477 -3.4375,2.5 -0.3092,0.084 -0.6194,0.1518 -0.9375,0.1875 -6.75266,0.7569 -14.00477,-3.9251 -19.59375,-7.125 -3.41556,-2.0893 -6.41479,-4.709 -9.40625,-7.3438 l -12.25,7.625 c 3.09476,2.6806 6.22401,5.3692 9.71875,7.5313 5.54217,3.1139 13.32988,8.1143 19.84375,8.1562 0.88159,0.01 1.7503,-0.2336 2.625,-0.3437 9.56687,-5.305 18.41052,-9.8947 26.93749,-16.5625 5.44253,-4.0802 11.07229,-8.1332 14.9375,-13.8438 0.59062,-1.0078 1.22697,-1.9867 1.75,-3.0312 2.51666,-5.02575 3.94121,-10.50959 5.1875,-16.00002 0.63376,1.05351 1.26095,2.12176 1.875,3.1875 2.25981,4.3644 4.20539,8.87202 6.43751,13.25002 2.38775,4.7466 6.00951,8.5218 10.03124,11.9062 2.64582,1.9992 4.6987,4.6182 7.5625,6.3125 2.70555,1.3763 5.78996,1.3298 8.75,1.4063 7.82083,0.4246 15.47296,-4.5328 20.21875,-10.625 0.65502,-0.8409 1.25978,-1.7546 1.875,-2.625 2.67694,-4.6111 5.14202,-9.34532 7.46875,-14.15627 0.72516,0.88014 1.75535,1.45926 3.125,1.65625 2.91565,-0.0166 5.47981,-1.68917 8,-2.96875 0.81042,-0.27604 4.10499,-2.67199 5,-2.03125 0.45966,0.32907 0.73146,1.57418 0.84375,1.9375 0.65804,4.45399 0.69051,8.98272 1.125,13.46872 0.30806,2.5716 0.65966,5.1473 0.96875,7.7188 0.36159,3.0081 0.24387,6.6966 2.6875,8.9687 1.03492,0.9623 2.36912,1.4931 3.5625,2.25 1.87009,0.5976 3.72497,1.3184 5.625,1.8125 9.89948,2.5746 20.28018,3.7531 30.5,4.0313 l -2.09375,1.5937 c 3.155,-1.2416 6.65968,-2.4335 9.8125,-4.0625 0.31923,0.8153 0.69565,1.6054 1.15625,2.375 1.42386,1.6472 3.62434,2.5695 5.71875,1.4375 13.57406,-7.3361 10.61977,-5.1477 16.90625,-10.1875 5.5591,-4.3674 9.1944,-9.4587 12.34375,-15.4062 0.32121,5.0372 0.97536,10.0275 2,14.9687 1.0361,3.3743 1.38669,7.1108 3.25,10.1563 1.97054,2.1888 4.2727,3.3676 7.21875,3.25 9.85,-2.4347 15.9654,-8.9264 21.96875,-16.0313 5.43951,-7.109 10.09262,-14.7652 14.6875,-22.43747 0.90748,-1.46838 1.7946,-2.95372 2.6875,-4.4375 -1.46574,3.49249 -2.80142,7.04461 -3.96875,10.65627 -1.18636,4.6168 -2.90283,9.4213 -1.5,14.1562 1.26528,2.1317 3.76915,3.4329 6.28125,3.2813 0.66544,-0.04 1.31382,-0.2506 1.96875,-0.375 11.9313,-6.7094 15.5546,-7.33 18.46875,-14.8125 3.43892,5.0429 8.2319,9.0772 13.875,11.7812 1.95693,0.9377 4.04019,1.5569 6.0625,2.3438 8.63329,2.1986 4.3074,1.3317 12.96875,2.6875 l 11.375,-8 c -8.5619,-1.1777 -4.30462,-0.3838 -12.78125,-2.4375 -1.94844,-0.7469 -3.95658,-1.3596 -5.84375,-2.25 -7.88146,-3.7188 -13.56525,-9.67874 -16.625,-17.81252 -0.83719,-2.34285 -1.58722,-4.7168 -2.5,-7.03125 -0.30306,-0.76844 -0.21002,-2.49141 -1,-2.25 -12.06179,3.68598 -13.39307,2.38545 -14.15625,9.125 -0.42635,4.75208 -1.25478,9.45383 -2.625,14.03127 -0.51528,1.7811 -1.00725,3.5538 -1.71875,5.25 -0.25455,-0.2036 -0.50299,-0.4069 -0.6875,-0.6563 -1.28106,-4.3354 0.52507,-8.92736 1.46875,-13.15622 2.96396,-9.41967 6.98414,-18.48749 12.4375,-26.75 2.10193,-2.85298 4.13533,-5.47549 6.8125,-7.8125 4.48627,-3.91624 12.71902,-6.08356 -11.03125,3.3125 3.84356,-2.19868 7.70721,-4.36131 11.53125,-6.59375 0.0511,-0.0299 0.039,-0.0476 0.0625,-0.0625 -0.35751,0.17257 -1.76189,0.90362 -2.3125,1.21875 -8.79016,5.03089 -17.43399,9.16447 -24.375,16.5 -1.0344,1.14912 -2.10602,2.24803 -3.09375,3.4375 -5.72031,6.88868 -9.91782,14.86174 -14.71875,22.37502 -4.67568,7.7004 -9.43846,15.4258 -15.15625,22.4062 -0.30077,0.34 -0.60539,0.6896 -0.90625,1.0313 -0.74246,-0.4195 -1.45071,-0.9411 -2,-1.4375 -1.84283,-2.7434 -2.17489,-6.5327 -3.09375,-9.6563 -1.21481,-5.4033 -2.17875,-10.8679 -2.5,-16.40622 -0.56379,-8.4919 -0.5473,-16.99326 -0.4375,-25.5 2.98658,-1.7499 6.12786,-3.75254 9.9375,-5.96875 4.89485,-3.97453 8.96985,-8.81705 12.96875,-13.65625 l -13.125,5.59375 c -3.01445,3.61562 -6.10081,7.2215 -9.625,10.34375 -0.0609,0.0172 -0.12651,0.0144 -0.1875,0.0312 -0.005,-0.72921 0.005,-1.4585 0,-2.1875 0.93419,-6.64437 1.38539,-13.34128 1.78125,-20.03125 0.027,-3.11056 0.81831,-10.07366 -1.125,-12.75 -4.47058,2.61246 -9.16658,4.87117 -13.40625,7.84375 -0.43327,0.30378 -0.019,1.0335 -0.0312,1.5625 -0.0934,4.04056 -0.0675,8.08343 -0.0625,12.125 0.0364,4.89258 -0.004,9.79389 -0.0312,14.6875 -2.92046,-9.3e-4 -5.86178,0.005 -8.78125,-0.0625 l -12.09375,8.78125 c 4.51344,-0.0997 9.01689,-0.08 13.53125,-0.0625 2.42487,-0.0526 4.59003,-0.30794 6.59375,-0.6875 -0.22623,1.11716 -0.45413,2.23192 -0.71875,3.34375 -2.17777,9.34939 -5.07342,18.54674 -8.9375,27.34372 -0.6799,1.3342 -1.29575,2.6957 -2.03125,4 -2.25417,3.9976 -5.06931,7.6202 -8.34375,10.7813 -0.17172,-0.119 -0.344,-0.2279 -0.53125,-0.4063 -2.52632,-3.7559 -2.56689,-8.515 -3.03125,-12.875 -0.10196,-2.6471 -0.15096,-5.288 -0.15625,-7.9375 0.007,-0.1246 0.0249,-0.2503 0.0312,-0.375 0.1489,-2.97547 0.1637,-5.92772 0.1875,-8.90622 0.0189,-0.70512 0.004,-1.41933 0,-2.125 0.14356,-0.6807 0.57136,-1.73579 0.0625,-1.5625 -0.0108,0.004 -0.0205,-0.004 -0.0312,0 0.0525,-0.23115 0.14851,-0.54302 0,-0.46875 -1.17382,0.58683 -2.20593,1.06448 -3.1875,1.5 -5.26302,1.67195 -7.89739,2.29131 -9.09375,3.21875 -1.1621,0.44643 -1.20617,1.09109 -1.0625,3.28125 -0.004,0.78518 0.0221,1.71587 0.0312,2.90625 0.005,2.94332 -0.029,5.87262 -0.1875,8.81252 -0.20159,2.8541 -0.59139,5.6845 -1.09375,8.5 -0.1799,1.7256 -0.44222,3.4236 -0.78125,5.125 -9.31871,-0.4888 -18.58703,-2.1051 -27.40625,-5.1875 -1.02638,-0.61 -2.20026,-1.0206 -3.09375,-1.8125 -1.50861,-1.3372 -1.73599,-3.0912 -2.0625,-4.9375 -0.64627,-3.6545 -0.8884,-7.3522 -1.34375,-11.03127 -0.28135,-4.65223 0.0111,-9.38942 -0.9375,-13.96875 -0.46266,-1.3851 -0.95932,-3.37625 -2.625,-3.84375 -1.70935,-0.47977 -3.33187,1.31278 -4.71875,1.90625 -2.43923,1.18503 -4.76467,2.61781 -7.375,3.40625 -2.14921,0.19425 -2.74817,-0.18035 -3.21875,-2.40625 -0.53341,-2.71677 -1.31576,-5.40406 -2.65625,-7.84375 -0.32624,-0.93262 -0.4333,-1.14678 -0.65625,-2.0625 -0.0748,-0.3071 0.1097,-1.01384 -0.1875,-0.90625 -0.0575,0.0208 -0.0992,0.0419 -0.15625,0.0625 0.68063,-1.36183 2.12635,-2.73896 3.21875,-3.65625 -1.24165,0.90153 -3.44076,2.41801 -7.5625,5.125 -11.78678,3.76114 -8.20961,0.18773 -9.34375,5.4375 -1.05059,4.38742 -2.85185,8.53011 -4.71875,12.625 -3.00772,6.62991 -6.14762,13.25957 -10.0625,19.40627 -1.96615,-0.033 -3.92638,-0.189 -5.78125,-0.8438 -2.95895,-1.4128 -4.92347,-4.1008 -7.5625,-6 -4.01381,-3.1278 -7.4488,-6.74744 -9.75,-11.34372 -2.27742,-4.3864 -4.14744,-8.95174 -6.40625,-13.34375 -2.09329,-3.62773 -4.3423,-7.15732 -6.68749,-10.625 9.51021,-3.9007 18.9328,-6.54539 27.21874,-13.5 0.78359,-0.64179 1.61984,-1.22908 2.34375,-1.9375 3.85841,-3.77584 5.74076,-9.03819 7.125,-14.125 0.97399,-4.42298 1.47229,-8.88876 1.78125,-13.40625 l -13.34375,6.8125 c 0.0109,4.39507 -0.70478,8.68937 -1.625,12.96875 -1.12734,4.19761 -2.74413,8.48646 -5.6875,11.75 -2.27362,0.90155 -4.58691,1.7304 -6.875,2.59375 -2.40488,1.0251 -4.84962,1.86081 -7.43749,2.25 -1.93672,0.24085 -3.89802,0.1885 -5.84376,0.25 -0.76933,0.098 -1.53673,0.23278 -2.3125,0.375 0.30037,-5.29557 0.10675,-10.60595 -0.15625,-15.90625 -0.45987,-7.2247 -1.26985,-14.42391 -2,-21.625 -0.27865,-2.43228 -0.37143,-7.31231 -1.46875,-9.46875 -0.18666,-0.36683 -0.47604,-0.66758 -0.71875,-1 -0.29335,-0.1717 -0.5711,-0.68351 -0.875,-0.53125 -3.04823,1.52729 -6.00727,3.25251 -8.9375,5 -3.60296,1.31164 -7.05886,1.58947 -11.3125,1.34375 -9.47109,-0.82644 -18.81751,-2.41184 -28.12499,-4.34375 -9.04622,-1.8808 -18.1412,-3.56554 -27.1875,-5.4375 z m 153.31249,57.5 c 1.8623,-1.35218 1.28067,-1.07538 0,0 z m 93.78125,-28.28125 c 0.0187,-0.004 0.0437,0.0852 0.0625,0.125 -0.0747,0.0381 -0.14392,0.0871 -0.21875,0.125 0.0849,-0.14186 0.11789,-0.24126 0.15625,-0.25 z m -20.15625,4.0625 -13.34375,6.8125 c 0.1652,4.06954 0.10955,8.116 0.0937,12.1875 -0.0181,2.39341 -0.0101,1.22629 -0.0312,3.5 l 13.21875,-6.71875 c -0.0213,-2.25332 -0.0131,-1.09478 -0.0312,-3.46875 -0.0161,-4.10135 -0.0698,-8.21303 0.0937,-12.3125 z"
       id="path3093"
       inkscape:connector-curvature="0" />
  </g>
</svg>
