<?xml version="1.0" encoding="UTF-8" standalone="no"?>
<!-- Created with Inkscape (http://www.inkscape.org/) -->

<svg
   xmlns:dc="http://purl.org/dc/elements/1.1/"
   xmlns:cc="http://creativecommons.org/ns#"
   xmlns:rdf="http://www.w3.org/1999/02/22-rdf-syntax-ns#"
   xmlns:svg="http://www.w3.org/2000/svg"
   xmlns="http://www.w3.org/2000/svg"
   xmlns:xlink="http://www.w3.org/1999/xlink"
   xmlns:sodipodi="http://sodipodi.sourceforge.net/DTD/sodipodi-0.dtd"
   xmlns:inkscape="http://www.inkscape.org/namespaces/inkscape"
   width="744.09448819"
   height="1052.3622047"
   id="svg2"
   version="1.1"
   inkscape:version="0.48.4 r9939"
   sodipodi:docname="brickfilter.svg">
  <defs
     id="defs4">
    <linearGradient
       inkscape:collect="always"
       id="linearGradient3133">
      <stop
         style="stop-color:#1a1a1a;stop-opacity:1;"
         offset="0"
         id="stop3135" />
      <stop
         style="stop-color:#1a1a1a;stop-opacity:0;"
         offset="1"
         id="stop3137" />
    </linearGradient>
    <inkscape:path-effect
       effect="skeletal"
       id="path-effect3122"
       is_visible="true"
       pattern="M 0,5 C 0,2.24 2.24,0 5,0 7.76,0 10,2.24 10,5 10,7.76 7.76,10 5,10 2.24,10 0,7.76 0,5 z"
       copytype="single_stretched"
       prop_scale="1"
       scale_y_rel="false"
       spacing="0"
       normal_offset="0"
       tang_offset="0"
       prop_units="false"
       vertical_pattern="false"
       fuse_tolerance="0" />
    <inkscape:path-effect
       effect="spiro"
       id="path-effect3120"
       is_visible="true" />
    <filter
       id="filter3755"
       color-interpolation-filters="sRGB"
       width="1.2">
      <feMorphology
         id="feMorphology3763"
         result="result0"
         radius="10" />
      <feComposite
         id="feComposite3759"
         in2="result0"
         result="result3"
         operator="arithmetic"
         in="SourceGraphic"
         k2="1"
         k3="1"
         k1="0"
         k4="0" />
      <feTurbulence
         id="feTurbulence3767"
         baseFrequency="0.003"
         result="turb1" />
      <feTurbulence
         id="feTurbulence3769"
         result="turb2"
         baseFrequency="0.01" />
      <feComposite
         id="feComposite3771"
         in2="turb1"
         in="turb2"
         operator="in"
         result="turb12" />
      <feConvolveMatrix
         id="feConvolveMatrix3773"
         kernelMatrix="0 -1 0  -1 5 -1  0 -1 0"
         divisor=".3" />
      <feColorMatrix
         id="feColorMatrix3777"
         type="saturate"
         result="result4" />
      <feComposite
         id="feComposite3781"
         in2="result4"
         in="SourceGraphic"
         operator="arithmetic"
         k1="-1.1"
         k2="1"
         k3="1"
         k4="0"
         result="result5" />
      <feComposite
         id="feComposite3785"
         in2="SourceGraphic"
         in="result5"
         operator="in"
         result="result6" />
      <feDisplacementMap
         id="feDisplacementMap3787"
         in2="turb2"
         in="result6"
         scale="5"
         xChannelSelector="A"
         yChannelSelector="A"
         result="litedisp" />
      <feTurbulence
         id="feTurbulence3789"
         result="turb3"
         baseFrequency=".1"
         numOctaves="4"
         type="fractalNoise" />
      <feDisplacementMap
         id="feDisplacementMap3791"
         in2="turb3"
         in="litedisp"
         scale="6"
         xChannelSelector="A"
         yChannelSelector="A"
         result="disp" />
      <feSpecularLighting
         id="feSpecularLighting3793"
         result="spec"
         surfaceScale="1000"
         specularConstant="0.60000002"
         specularExponent="1">
        <fePointLight
           id="fePointLight3795"
           z="30"
           y="10"
           x="10" />
      </feSpecularLighting>
      <feComposite
         id="feComposite3797"
         in2="spec"
         in="disp"
         operator="arithmetic"
         k1="1.2"
         k2="1"
         k3="0"
         k4="0"
         result="strukt" />
      <feMorphology
         id="feMorphology3811"
         in="strukt"
         radius="13"
         operator="dilate"
         result="dilatad" />
      <feFlood
         id="feFlood3817"
         flood-color="#888870"
         result="flood" />
      <feComposite
         id="feComposite3819"
         in2="dilatad"
         in="flood"
         operator="in"
         result="grabakgrund" />
      <feComposite
         id="feComposite3821"
         in2="grabakgrund"
         in="strukt"
         result="result8" />
      <feDiffuseLighting
         id="feDiffuseLighting3825"
         surfaceScale="40"
         in="strukt"
         result="diffus">
        <feDistantLight
           id="feDistantLight3833"
           elevation="40"
           azimuth="225" />
      </feDiffuseLighting>
      <feComposite
         id="feComposite3829"
         in2="diffus"
         in="strukt"
         operator="arithmetic"
         k1="1"
         k2="0"
         k3="0"
         k4="0"
         result="result9" />
      <feComposite
         id="feComposite3831"
         in2="grabakgrund"
         in="result9"
         result="brickamedgra" />
      <feTurbulence
         id="feTurbulence3835"
         result="turb4"
         baseFrequency=".3"
         numOctaves="1" />
      <feComposite
         id="feComposite3837"
         in2="turb4"
         in="grabakgrund"
         operator="in" />
      <feColorMatrix
         id="feColorMatrix3839"
         type="saturate"
         result="result10" />
      <feComposite
         id="feComposite3841"
         in2="result10"
         in="grabakgrund"
         operator="arithmetic"
         k1="-1.5"
         k2="1"
         k3="1"
         k4="0" />
      <feGaussianBlur
         id="feGaussianBlur3843"
         stdDeviation="1"
         result="blurbakgr" />
      <feComposite
         id="feComposite3845"
         in="blurbakgr"
         operator="over"
         in2="grabakgrund"
         result="result11" />
      <feDiffuseLighting
         id="feDiffuseLighting3853"
         in="turb4"
         surfaceScale="15"
         diffuseConstant="1"
         result="grout">
        <feDistantLight
           id="feDistantLight3855"
           elevation="70"
           azimuth="225" />
      </feDiffuseLighting>
      <feComposite
         id="feComposite3857"
         in2="grout"
         in="grabakgrund"
         operator="arithmetic"
         k1="0.8"
         k2="1"
         k3="0"
         k4="0"
         result="result12" />
      <feTurbulence
         id="feTurbulence3861"
         result="turbu"
         baseFrequency=".4" />
      <feColorMatrix
         id="feColorMatrix3865"
         type="saturate"
         result="turb5" />
      <feComposite
         id="feComposite3863"
         in2="turb5"
         in="result9"
         operator="arithmetic"
         k1="3"
         k2="1"
         k3="0"
         k4="0"
         result="result13" />
      <feComposite
         id="feComposite3869"
         in2="result12"
         in="result13" />
    </filter>
    <filter
       width="1.2"
       color-interpolation-filters="sRGB"
       id="grout">
      <feTurbulence
         baseFrequency="0.01"
         result="turb2"
         id="feTurbulence5865" />
      <feColorMatrix
         result="result4"
         type="saturate"
         id="feColorMatrix5871" />
      <feComposite
         result="result5"
         k4="0"
         k3="1"
         k2="1"
         k1="-1.05"
         operator="arithmetic"
         in="SourceGraphic"
         in2="result4"
         id="feComposite5873" />
      <feComposite
         result="result6"
         operator="in"
         in="result5"
         in2="SourceGraphic"
         id="feComposite5875" />
      <feDisplacementMap
         result="litedisp"
         yChannelSelector="A"
         xChannelSelector="A"
         scale="20"
         in="result6"
         in2="turb2"
         id="feDisplacementMap5877" />
      <feTurbulence
         type="fractalNoise"
         numOctaves="4"
         baseFrequency=".1"
         result="turb3"
         id="feTurbulence5879" />
      <feDisplacementMap
         result="disp"
         yChannelSelector="A"
         xChannelSelector="A"
         scale="6"
         in="litedisp"
         in2="turb3"
         id="feDisplacementMap5881" />
      <feSpecularLighting
         specularExponent="1"
         specularConstant="0.60000002"
         surfaceScale="1000"
         result="spec"
         id="feSpecularLighting5883">
        <fePointLight
           x="10"
           y="10"
           z="30"
           id="fePointLight5885" />
      </feSpecularLighting>
      <feComposite
         result="strukt"
         k4="0"
         k3="0"
         k2="1"
         k1="1.2"
         operator="arithmetic"
         in="disp"
         in2="spec"
         id="feComposite5887" />
      <feFlood
         result="flood"
         flood-color="#888870"
         id="feFlood5891" />
      <feComposite
         result="grabakgrund"
         operator="in"
         in="flood"
         in2="strukt"
         id="feComposite5893" />
      <feTurbulence
         numOctaves="1"
         baseFrequency=".3"
         result="turb4"
         id="feTurbulence5905" />
      <feDiffuseLighting
         result="grout"
         diffuseConstant="1"
         surfaceScale="15"
         in="turb4"
         id="feDiffuseLighting5917">
        <feDistantLight
           azimuth="225"
           elevation="70"
           id="feDistantLight5919" />
      </feDiffuseLighting>
      <feComposite
         result="result12"
         k4="0"
         k3="0"
         k2="1"
         k1="0.8"
         operator="arithmetic"
         in="grabakgrund"
         in2="grout"
         id="feComposite5921" />
    </filter>
    <filter
       id="brickonly"
       color-interpolation-filters="sRGB"
       width="1.2">
      <feTurbulence
         id="feTurbulence5939"
         baseFrequency="0.003"
         result="turb1" />
      <feTurbulence
         id="feTurbulence5941"
         result="turb2"
         baseFrequency="0.01" />
      <feComposite
         id="feComposite5943"
         in2="turb1"
         in="turb2"
         operator="in"
         result="turb12" />
      <feConvolveMatrix
         id="feConvolveMatrix5945"
         kernelMatrix="0 -1 0  -1 5 -1  0 -1 0"
         divisor=".2" />
      <feColorMatrix
         id="feColorMatrix5947"
         type="saturate"
         result="result4" />
      <feComposite
         id="feComposite5949"
         in2="result4"
         in="SourceGraphic"
         operator="arithmetic"
         k1="-1.1"
         k2="1"
         k3="1"
         k4="0"
         result="result5" />
      <feComposite
         id="feComposite5951"
         in2="SourceGraphic"
         in="result5"
         operator="in"
         result="result6" />
      <feDisplacementMap
         id="feDisplacementMap5953"
         in2="turb2"
         in="result6"
         scale="14"
         xChannelSelector="R"
         yChannelSelector="A"
         result="litedisp" />
      <feTurbulence
         id="feTurbulence5955"
         result="turb3"
         baseFrequency=".1"
         numOctaves="4"
         type="fractalNoise" />
      <feDisplacementMap
         id="feDisplacementMap5957"
         in2="turb3"
         in="litedisp"
         scale="6"
         xChannelSelector="A"
         yChannelSelector="A"
         result="disp" />
      <feSpecularLighting
         id="feSpecularLighting5959"
         result="spec"
         surfaceScale="1000"
         specularConstant="0.60000002"
         specularExponent="1">
        <fePointLight
           id="fePointLight5961"
           z="30"
           y="10"
           x="10" />
      </feSpecularLighting>
      <feComposite
         id="feComposite5963"
         in2="spec"
         in="disp"
         operator="arithmetic"
         k1="1.2"
         k2="1"
         k3="0"
         k4="0"
         result="strukt" />
      <feDiffuseLighting
         id="feDiffuseLighting5973"
         surfaceScale="40"
         in="strukt"
         result="diffus">
        <feDistantLight
           id="feDistantLight5975"
           elevation="35"
           azimuth="-90" />
      </feDiffuseLighting>
      <feComposite
         id="feComposite5977"
         in2="diffus"
         in="strukt"
         operator="arithmetic"
         k1="1"
         k2="0"
         k3="0"
         k4="0"
         result="result9" />
      <feComposite
         id="feComposite5997"
         in2="result9"
         in="grabakgrund"
         operator="arithmetic"
         k1="0.8"
         k2="1"
         k3="0"
         k4="0"
         result="result12" />
      <feTurbulence
         id="feTurbulence5999"
         result="turbu"
         baseFrequency=".4" />
      <feColorMatrix
         id="feColorMatrix6001"
         type="saturate"
         result="turb5" />
      <feComposite
         id="feComposite6003"
         in2="turb5"
         in="result9"
         operator="arithmetic"
         k1="3"
         k2="1"
         k3="0"
         k4="0"
         result="result13" />
    </filter>
    <linearGradient
       inkscape:collect="always"
       xlink:href="#linearGradient3133"
       id="linearGradient3139"
       x1="533.59937"
       y1="1615.1605"
       x2="527.87872"
       y2="1204.8479"
       gradientUnits="userSpaceOnUse" />
    <linearGradient
       inkscape:collect="always"
       xlink:href="#linearGradient3133"
       id="linearGradient3141"
       gradientUnits="userSpaceOnUse"
       x1="535.17584"
       y1="1693.9841"
       x2="527.87872"
       y2="1334.1185" />
  </defs>
  <sodipodi:namedview
     id="base"
     pagecolor="#ffffff"
     bordercolor="#666666"
     borderopacity="1.0"
     inkscape:pageopacity="0.0"
     inkscape:pageshadow="2"
     inkscape:zoom="0.44853767"
     inkscape:cx="707.33596"
     inkscape:cy="-562.81481"
     inkscape:document-units="px"
     inkscape:current-layer="layer1"
     showgrid="false"
     inkscape:window-width="1366"
     inkscape:window-height="721"
     inkscape:window-x="-4"
     inkscape:window-y="24"
     inkscape:window-maximized="1" />
  <metadata
     id="metadata7">
    <rdf:RDF>
      <cc:Work
         rdf:about="">
        <dc:format>image/svg+xml</dc:format>
        <dc:type
           rdf:resource="http://purl.org/dc/dcmitype/StillImage" />
        <dc:title />
      </cc:Work>
    </rdf:RDF>
  </metadata>
  <g
     inkscape:label="Layer 1"
     inkscape:groupmode="layer"
     id="layer1">
    <rect
       transform="matrix(0.91993793,0,0,0.83602781,-227.09952,354.6703)"
       style="fill:#aa5605;fill-opacity:1;fill-rule:nonzero;stroke:none;filter:url(#grout)"
       id="rect6767"
       width="1379.2159"
       height="832.29852"
       x="156.57722"
       y="180.44463" />
    <rect
       y="154.04527"
       x="91.457703"
       height="334.48203"
       width="690.31995"
       id="rect3765"
       style="fill:#aa5605;fill-opacity:1;fill-rule:nonzero;stroke:none;filter:url(#grout)"
       transform="matrix(0.91993793,0,0,0.83602781,22.077047,48.223085)" />
    <path
       style="fill:#d86c1a;fill-opacity:1;fill-rule:nonzero;stroke:none;filter:url(#brickonly)"
       d="m 118.27132,320.24582 118.0522,0 88.06395,0 85.3124,0 0,114.28571 -291.42855,0 z"
       id="rect3801"
       inkscape:connector-curvature="0"
       sodipodi:nodetypes="ccccccc" />
    <path
       style="fill:#da5a0d;fill-opacity:1;fill-rule:nonzero;stroke:none;filter:url(#brickonly)"
       d="m 116.23312,194.01036 261.66157,0 18.61965,15.60627 11.14734,14.49849 0,84.18095 -291.42856,0 z"
       id="rect2985"
       inkscape:connector-curvature="0"
       sodipodi:nodetypes="ccccccc" />
    <rect
       y="198.08679"
       x="424.82303"
       height="114.28571"
       width="291.42856"
       id="rect3799"
       style="fill:#ab4b13;fill-opacity:1;fill-rule:nonzero;stroke:none;filter:url(#brickonly)" />
    <rect
       style="fill:#008080;fill-opacity:1;fill-rule:nonzero;stroke:none;filter:url(#brickonly)"
       id="rect3803"
       width="291.42856"
       height="114.28571"
       x="429.78195"
       y="323.89587" />
    <path
       inkscape:tile-y0="525.99282"
       inkscape:tile-x0="43.316964"
       inkscape:connector-curvature="0"
       id="use6370"
       d="m 60.658148,525.99282 169.607992,-6.29852 87.13819,6.29852 c 9.58202,0.69261 17.34119,7.73417 17.34119,17.34119 l 0,79.60334 c 0,9.60702 -7.73417,17.34118 -17.34119,17.34118 l -256.746182,0 c -9.607016,0 -17.341184,-7.73416 -17.341184,-17.34118 l 0,-79.60334 c 0,-9.60702 7.734168,-17.34119 17.341184,-17.34119 z"
       style="fill:#843405;fill-opacity:1;fill-rule:nonzero;stroke:none;filter:url(#brickonly)"
       transform="matrix(0.99999879,-0.00155486,0.00155486,0.99999879,-104.95357,9.7534498)"
       sodipodi:nodetypes="scssssssss" />
    <path
       inkscape:tile-y0="525.99282"
       inkscape:tile-x0="43.316964"
       inkscape:connector-curvature="0"
       id="use6372"
       d="m -43.388922,800.6952 256.746112,0 c 9.6071,0 17.3412,7.73417 17.3412,17.34119 l 0,79.60335 c 0,9.607 -7.7341,17.3412 -17.3412,17.3412 l -256.746112,0 c -9.6071,0 -17.3412,-7.7342 -17.3412,-17.3412 l 0,-79.60335 c 0,-9.60702 7.7341,-17.34119 17.3412,-17.34119 z"
       style="fill:#9c5406;fill-opacity:1;fill-rule:nonzero;stroke:none;filter:url(#brickonly)" />
    <path
       inkscape:tile-y0="525.99282"
       inkscape:tile-x0="43.316964"
       inkscape:connector-curvature="0"
       id="use6374"
       d="m 266.47347,933.31698 256.7462,0 c 9.607,0 17.3412,7.73417 17.3412,17.34119 l 0,79.60333 c 0,9.607 -7.7342,17.3412 -17.3412,17.3412 l -256.7462,0 c -9.607,0 -17.3412,-7.7342 -17.3412,-17.3412 l 0,-79.60333 c 0,-9.60702 7.7342,-17.34119 17.3412,-17.34119 z"
       style="fill:#833109;fill-opacity:1;fill-rule:nonzero;stroke:none;filter:url(#brickonly)" />
    <path
       inkscape:tile-y0="525.99282"
       inkscape:tile-x0="43.316964"
       inkscape:connector-curvature="0"
       id="use6376"
       d="m 576.33592,668.07343 256.74615,0 c 9.6071,0 17.3412,7.73417 17.3412,17.34119 l 0,79.60334 c 0,9.60702 -7.7341,17.34118 -17.3412,17.34118 l -256.74615,0 c -9.60701,0 -17.34118,-7.73416 -17.34118,-17.34118 l 0,-79.60334 c 0,-9.60702 7.73417,-17.34119 17.34118,-17.34119 z"
       style="fill:#ad4a0b;fill-opacity:1;fill-rule:nonzero;stroke:none;filter:url(#brickonly)" />
    <path
       inkscape:tile-y0="525.99282"
       inkscape:tile-x0="43.316964"
       inkscape:connector-curvature="0"
       id="use6378"
       d="m 576.33591,800.69517 256.74619,0 c 9.607,0 17.3412,7.7341 17.3412,17.3411 l 0,79.6035 c 0,9.607 -7.7342,17.3412 -17.3412,17.3412 l -256.74619,0 c -9.607,0 -17.3412,-7.7342 -17.3412,-17.3412 l 0,-79.6035 c 0,-9.607 7.7342,-17.3411 17.3412,-17.3411 z"
       style="fill:#995309;fill-opacity:1;fill-rule:nonzero;stroke:none;filter:url(#brickonly)" />
    <path
       inkscape:tile-y0="525.99282"
       inkscape:tile-x0="43.316964"
       inkscape:connector-curvature="0"
       id="use6380"
       d="m 576.33596,1065.9387 256.7461,0 c 9.607,0 17.3412,7.7342 17.3412,17.3412 l 0,79.6034 c 0,9.607 -7.7342,17.3412 -17.3412,17.3412 l -256.7461,0 c -9.6071,0 -17.3412,-7.7342 -17.3412,-17.3412 l 0,-79.6034 c 0,-9.607 7.7341,-17.3412 17.3412,-17.3412 z"
       style="fill:#a12209;fill-opacity:1;fill-rule:nonzero;stroke:none;filter:url(#brickonly)" />
    <path
       inkscape:tile-y0="525.99282"
       inkscape:tile-x0="43.316964"
       inkscape:connector-curvature="0"
       id="use6382"
       d="m 886.19839,933.31695 256.74611,0 c 9.6071,0 17.3412,7.7342 17.3412,17.3412 l 0,79.60335 c 0,9.607 -7.7341,17.3412 -17.3412,17.3412 l -256.74611,0 c -9.6071,0 -17.3412,-7.7342 -17.3412,-17.3412 l 0,-79.60335 c 0,-9.607 7.7341,-17.3412 17.3412,-17.3412 z"
       style="fill:#a63c08;fill-opacity:1;fill-rule:nonzero;stroke:none;filter:url(#brickonly)" />
    <path
       inkscape:tile-y0="525.99282"
       inkscape:tile-x0="43.316964"
       inkscape:connector-curvature="0"
       id="use6384"
       d="m 266.47347,535.45165 148.1385,7.88236 108.6077,-7.88236 c 9.5818,-0.69541 17.3412,7.73417 17.3412,17.34119 l 0,79.60334 c 0,9.60702 -7.7342,17.34118 -17.3412,17.34118 l -256.7462,0 c -9.607,0 -17.3412,-7.73416 -17.3412,-17.34118 l 0,-29.32834 0,-50.275 c 0,-9.60702 7.7342,-17.34119 17.3412,-17.34119 z"
       style="fill:#7c3604;fill-opacity:1;fill-rule:nonzero;stroke:none;filter:url(#brickonly)"
       sodipodi:nodetypes="scsssssscss" />
    <path
       inkscape:tile-y0="525.99282"
       inkscape:tile-x0="43.316964"
       inkscape:connector-curvature="0"
       id="use6386"
       d="m -43.388917,1065.9387 256.746097,0 c 9.6071,0 17.3412,7.7342 17.3412,17.3412 l 0,79.6034 c 0,9.607 -7.7341,17.3412 -17.3412,17.3412 l -256.746097,0 c -9.6071,0 -17.3412,-7.7342 -17.3412,-17.3412 l 0,-79.6034 c 0,-9.607 7.7341,-17.3412 17.3412,-17.3412 z"
       style="fill:#c16405;fill-opacity:1;fill-rule:nonzero;stroke:none;filter:url(#brickonly)" />
    <path
       inkscape:tile-y0="525.99282"
       inkscape:tile-x0="43.316964"
       inkscape:connector-curvature="0"
       id="use6388"
       d="m 266.47352,668.07343 256.7461,0 c 9.607,0 17.3412,7.73417 17.3412,17.34119 l 0,79.60334 c 0,9.60702 -7.7342,17.34118 -17.3412,17.34118 l -256.7461,0 c -9.6071,0 -17.3412,-7.73416 -17.3412,-17.34118 l 0,-79.60334 c 0,-9.60702 7.7341,-17.34119 17.3412,-17.34119 z"
       style="fill:#743e05;fill-opacity:1;fill-rule:nonzero;stroke:none;filter:url(#brickonly)" />
    <path
       inkscape:tile-y0="525.99282"
       inkscape:tile-x0="43.316964"
       inkscape:connector-curvature="0"
       id="use6390"
       d="m -43.388915,933.317 256.746095,0 c 9.6071,0 17.3412,7.73417 17.3412,17.34119 l 0,79.60331 c 0,9.607 -7.7341,17.3412 -17.3412,17.3412 l -256.746095,0 c -9.607,0 -17.3412,-7.7342 -17.3412,-17.3412 l 0,-79.60331 c 0,-9.60702 7.7342,-17.34119 17.3412,-17.34119 z"
       style="fill:#742504;fill-opacity:1;fill-rule:nonzero;stroke:none;filter:url(#brickonly)" />
    <path
       inkscape:tile-y0="525.99282"
       inkscape:tile-x0="43.316964"
       inkscape:connector-curvature="0"
       id="use6392"
       d="m 886.19829,535.45165 256.74621,0 c 9.607,0 17.3412,7.73417 17.3412,17.34119 l 0,79.60334 c 0,9.60702 -7.7342,17.34118 -17.3412,17.34118 l -256.74621,0 c -9.607,0 -17.3411,-7.73416 -17.3411,-17.34118 l 0,-79.60334 c 0,-9.60702 7.7341,-17.34119 17.3411,-17.34119 z"
       style="fill:#842f04;fill-opacity:1;fill-rule:nonzero;stroke:none;filter:url(#brickonly)" />
    <path
       inkscape:tile-y0="525.99282"
       inkscape:tile-x0="43.316964"
       inkscape:connector-curvature="0"
       id="use6394"
       d="m 576.33593,535.45165 121.4873,0 91.40815,0 43.85066,0 c 9.60713,0 17.34125,7.73417 17.34125,17.34119 l 0,79.60334 c 0,9.60702 -7.73412,17.34118 -17.34125,17.34118 l -75.0632,0 -131.53856,0 -50.14435,0 c -9.607,0 -17.3412,-7.73416 -17.3412,-17.34118 l 0,-79.60334 c 0,-9.60702 7.7342,-17.34119 17.3412,-17.34119 z"
       style="fill:#a22106;fill-opacity:1;fill-rule:nonzero;stroke:none;filter:url(#brickonly)"
       sodipodi:nodetypes="sccssssccssss" />
    <path
       inkscape:tile-y0="525.99282"
       inkscape:tile-x0="43.316964"
       inkscape:connector-curvature="0"
       id="use6396"
       d="m -43.388967,668.07342 256.746197,0 c 9.607,0 17.3412,7.73417 17.3412,17.34119 l 0,79.60334 c 0,9.607 -7.7342,17.3412 -17.3412,17.3412 l -256.746197,0 c -9.607,0 -17.3412,-7.7342 -17.3412,-17.3412 l 0,-79.60334 c 0,-9.60702 7.7342,-17.34119 17.3412,-17.34119 z"
       style="fill:#bd540c;fill-opacity:1;fill-rule:nonzero;stroke:none;filter:url(#brickonly)" />
    <path
       inkscape:tile-y0="525.99282"
       inkscape:tile-x0="43.316964"
       inkscape:connector-curvature="0"
       id="use6398"
       d="m 886.19829,668.07339 256.74621,0 c 9.607,0 17.3412,7.7342 17.3412,17.3413 l 0,79.6033 c 0,9.607 -7.7342,17.3412 -17.3412,17.3412 l -256.74621,0 c -9.607,0 -17.3411,-7.7342 -17.3411,-17.3412 l 0,-79.6033 c 0,-9.6071 7.7341,-17.3413 17.3411,-17.3413 z"
       style="fill:#d15409;fill-opacity:1;fill-rule:nonzero;stroke:none;filter:url(#brickonly)" />
    <path
       inkscape:tile-y0="525.99282"
       inkscape:tile-x0="43.316964"
       inkscape:connector-curvature="0"
       id="use6400"
       d="m 576.33596,933.31696 256.7462,0 c 9.6069,0 17.3411,7.7342 17.3411,17.3413 l 0,79.60324 c 0,9.607 -7.7342,17.3412 -17.3411,17.3412 l -256.7462,0 c -9.607,0 -17.3412,-7.7342 -17.3412,-17.3412 l 0,-79.60324 c 0,-9.6071 7.7342,-17.3413 17.3412,-17.3413 z"
       style="fill:#a6430b;fill-opacity:1;fill-rule:nonzero;stroke:none;filter:url(#brickonly)" />
    <path
       inkscape:tile-y0="525.99282"
       inkscape:tile-x0="43.316964"
       inkscape:connector-curvature="0"
       id="use6402"
       d="m 886.19838,800.69518 256.74612,0 c 9.607,0 17.3412,7.7342 17.3412,17.3413 l 0,79.60328 c 0,9.607 -7.7342,17.3412 -17.3412,17.3412 l -256.74612,0 c -9.607,0 -17.3412,-7.7342 -17.3412,-17.3412 l 0,-79.60328 c 0,-9.6071 7.7342,-17.3413 17.3412,-17.3413 z"
       style="fill:#b02d07;fill-opacity:1;fill-rule:nonzero;stroke:none;filter:url(#brickonly)" />
    <path
       inkscape:tile-y0="525.99282"
       inkscape:tile-x0="43.316964"
       inkscape:connector-curvature="0"
       id="use6404"
       d="m 886.19839,1065.9387 256.74621,0 c 9.607,0 17.3411,7.7342 17.3411,17.3413 l 0,79.6033 c 0,9.607 -7.7341,17.3412 -17.3411,17.3412 l -256.74621,0 c -9.607,0 -17.3412,-7.7342 -17.3412,-17.3412 l 0,-79.6033 c 0,-9.6071 7.7342,-17.3413 17.3412,-17.3413 z"
       style="fill:#963508;fill-opacity:1;fill-rule:nonzero;stroke:none;filter:url(#brickonly)" />
    <path
       inkscape:tile-y0="525.99282"
       inkscape:tile-x0="43.316964"
       inkscape:connector-curvature="0"
       id="use6406"
       d="m 266.47352,800.69517 256.7462,0 c 9.6069,0 17.3411,7.7342 17.3411,17.3413 l 0,79.6033 c 0,9.607 -7.7342,17.3412 -17.3411,17.3412 l -256.7462,0 c -9.607,0 -17.3412,-7.7342 -17.3412,-17.3412 l 0,-79.6033 c 0,-9.6071 7.7342,-17.3413 17.3412,-17.3413 z"
       style="fill:#8a4904;fill-opacity:1;fill-rule:nonzero;stroke:none;filter:url(#brickonly)" />
    <path
       inkscape:tile-y0="525.99282"
       inkscape:tile-x0="43.316964"
       inkscape:connector-curvature="0"
       id="use6408"
       d="m 266.47352,1065.9387 256.7461,0 c 9.607,0 17.3412,7.7341 17.3412,17.3411 l 0,79.6035 c 0,9.607 -7.7342,17.3412 -17.3412,17.3412 l -256.7461,0 c -9.607,0 -17.3412,-7.7342 -17.3412,-17.3412 l 0,-79.6035 c 0,-9.607 7.7342,-17.3411 17.3412,-17.3411 z"
       style="fill:#aa4e08;fill-opacity:1;fill-rule:nonzero;stroke:none;filter:url(#brickonly)" />
    <rect
       y="180.44463"
       x="156.57722"
       height="832.29852"
       width="1379.2159"
       id="rect6771"
       style="fill:#aa5605;fill-opacity:1;fill-rule:nonzero;stroke:none;filter:url(#grout)"
       transform="matrix(0.91993793,0,0,0.83602781,-343.7584,1142.906)" />
    <g
       transform="matrix(0.82672716,0,0,1.1756895,17.612067,-31.529427)"
       style="font-size:574.30731201px;font-style:normal;font-variant:normal;font-weight:normal;font-stretch:normal;line-height:125%;letter-spacing:0px;word-spacing:0px;fill:#a64e0c;fill-opacity:1;stroke:none;filter:url(#brickonly);font-family:Arial;-inkscape-font-specification:Arial"
       id="text6773">
      <path
         d="m -187.03824,1168.9744 121.651219,0 c 37.039088,5e-4 65.48743824,3.0034 85.345137,9.0086 19.857239,6.0062 35.911467,18.1929 48.162735,36.5603 12.250711,18.3681 18.376205,47.2984 18.376502,86.791 -2.97e-4,27.2248 -4.498753,46.5009 -13.495381,57.8286 -8.997194,11.3282 -24.659999,18.0788 -46.988461,20.2518 25.156063,2.7928 42.901594,11.7868 53.236647,26.982 10.334475,15.1957 15.501856,37.7318 15.502161,67.6084 l 0,41.2398 c -3.05e-4,30.7532 -3.707149,53.9377 -11.120544,69.5538 -7.413982,15.6161 -19.180073,26.2751 -35.298307,31.977 -16.118751,5.7019 -47.88544282,8.5529 -95.300171,8.5529 l -140.071537,0 z m 128.083433,87.3695 0,87.7725 c 0.747644,-0.1516 2.541184,-0.2451 5.380625,-0.2804 8.844859,3e-4 14.427034,-2.0795 16.746541,-6.2394 2.31916,-4.1593 3.478827,-18.9984 3.479004,-44.5172 -1.77e-4,-13.0628 -1.043001,-21.8698 -3.128475,-26.4212 -2.085821,-4.5507 -4.641762,-7.3637 -7.66783,-8.439 -3.026399,-1.0746 -7.963016,-1.6997 -14.809865,-1.8753 z m 0,168.2716 0,113.3437 c 10.270349,-0.4439 17.105664,-2.3981 20.505968,-5.8626 3.399959,-3.4643 5.100025,-13.4807 5.100202,-30.0492 l 0,-41.5202 c -1.77e-4,-17.5379 -1.478241,-27.7851 -4.434197,-30.7414 -2.9563,-2.9559 -10.013618,-4.6794 -21.171973,-5.1703 z"
         style="font-weight:bold;fill:#a64e0c;font-family:Impact;-inkscape-font-specification:Impact Bold"
         id="path3096" />
      <path
         d="m 131.52286,1168.9744 88.10555,0 c 54.92779,5e-4 92.61842,2.2322 113.07201,6.6951 20.45315,4.4639 37.16754,15.9116 50.14323,34.3432 12.97514,18.4324 19.46285,47.1319 19.46314,86.0987 -2.9e-4,35.7193 -4.75872,60.1541 -14.2753,73.3045 -9.51715,13.1509 -26.0183,19.9775 -49.50351,20.4797 21.16003,0.7246 36.04291,6.2864 44.64867,16.6852 8.60522,10.3992 13.94494,19.9015 16.0192,28.5068 2.07367,8.6056 3.11065,31.0132 3.11094,67.2227 l 0,123.0183 -119.84599,0 0,-153.5318 c -1.7e-4,-22.6908 -1.4461,-36.2271 -4.3378,-40.6089 -2.89203,-4.3814 -9.06426,-6.5722 -18.51671,-6.5724 l 0,200.7131 -128.08343,0 z m 128.08343,87.3695 0,87.7725 c 7.55959,3e-4 13.25861,-1.3142 17.09707,-3.9434 3.83812,-2.6287 5.75727,-12.8291 5.75744,-30.6012 l 0,-24.467 c -1.7e-4,-12.4317 -1.931,-20.3333 -5.79249,-23.7045 -3.86183,-3.3706 -9.54917,-5.0561 -17.06202,-5.0564 z"
         style="font-weight:bold;fill:#a64e0c;font-family:Impact;-inkscape-font-specification:Impact Bold"
         id="path3098" />
      <path
         d="m 570.31552,1168.9744 0,456.3542 -128.08343,0 0,-456.3542 z"
         style="font-weight:bold;fill:#a64e0c;font-family:Impact;-inkscape-font-specification:Impact Bold"
         id="path3100" />
      <path
         d="m 891.97877,1374.297 -128.10095,0 0,-83.1456 c -1.8e-4,-21.7558 -0.90864,-34.6903 -2.72537,-38.8036 -1.81708,-4.1125 -5.54145,-6.1689 -11.17312,-6.1693 -6.64853,4e-4 -10.94836,2.5797 -12.89948,7.738 -1.95143,5.159 -2.92707,18.7624 -2.92692,40.8103 l 0,206.7598 c -1.5e-4,21.102 0.96965,34.1504 2.90939,39.1454 1.93944,4.9951 5.97053,7.4926 12.09326,7.4925 5.72515,1e-4 9.61018,-2.5412 11.6551,-7.624 2.04458,-5.0826 3.06696,-19.4601 3.06714,-43.1326 l 0,-61.4303 128.10095,0 0,22.9421 c -3e-4,46.4687 -3.4092,79.7894 -10.22669,99.9623 -6.81809,20.173 -21.91128,37.8542 -45.27963,53.0438 -23.36885,15.1896 -52.01876,22.7844 -85.9498,22.7844 -35.12317,0 -64.24921,-6.4585 -87.37821,-19.3755 -23.12915,-12.917 -38.4239,-30.7092 -45.88429,-53.3768 -7.46046,-22.6675 -11.19067,-56.0963 -11.19065,-100.2865 l 0,-130.0639 c -2e-5,-32.5405 1.12459,-57.0279 3.37384,-73.4622 2.24921,-16.4336 9.12542,-32.482 20.62865,-48.1452 11.50315,-15.6624 27.40841,-27.966 47.71581,-36.9108 20.30723,-8.9438 43.45383,-13.416 69.43987,-13.4165 35.26306,5e-4 64.55268,6.938 87.86895,20.8127 23.31577,13.8756 38.62513,31.1362 45.92811,51.782 7.30239,20.6465 10.95374,52.0189 10.95404,94.1171 z"
         style="font-weight:bold;fill:#a64e0c;font-family:Impact;-inkscape-font-specification:Impact Bold"
         id="path3102" />
      <path
         d="m 1217.1473,1168.9744 -66.2501,206.6371 72.5772,249.7171 -130.8001,0 -35.5437,-190.8106 0,190.8106 -128.08339,0 0,-456.3542 128.08339,0 0,172.9337 40.4687,-172.9337 z"
         style="font-weight:bold;fill:#a64e0c;font-family:Impact;-inkscape-font-specification:Impact Bold"
         id="path3104" />
    </g>
    <g
       id="g3106"
       style="font-size:574.30731200999992000px;font-style:normal;font-variant:normal;font-weight:normal;font-stretch:normal;line-height:125%;letter-spacing:0px;word-spacing:0px;fill:url(#linearGradient3139);fill-opacity:1;stroke:none;filter:url(#brickonly);font-family:Arial;-inkscape-font-specification:Arial"
       transform="matrix(0.82672716,0,0,1.1756895,17.612067,-31.529427)">
      <path
         style="font-weight:bold;fill:url(#linearGradient3141);font-family:Impact;-inkscape-font-specification:Impact Bold;fill-opacity:1"
         d="M -137.03125 1342.8125 L -137.03125 1602.4062 L -137.03125 1879.3438 L -21.21875 1879.3438 C 17.980294 1879.3438 44.236691 1875.9849 57.5625 1869.2812 C 70.887882 1862.5776 80.62066 1850.0472 86.75 1831.6875 C 92.878855 1813.3278 95.937248 1786.0937 95.9375 1749.9375 L 95.9375 1701.4375 C 95.937248 1666.3119 91.668791 1639.8342 83.125 1621.9688 C 78.806814 1612.94 72.916559 1605.7731 65.46875 1600.4688 C 58.179795 1595.2775 49.411509 1591.8428 39.125 1590.2188 C 57.584546 1587.664 70.530525 1579.7559 77.96875 1566.4375 C 85.406507 1553.1196 89.124754 1530.4454 89.125 1498.4375 C 89.124754 1452.0065 84.065496 1418.0014 73.9375 1396.4062 C 63.809044 1374.8119 50.541519 1360.4677 34.125 1353.4062 C 17.708101 1346.346 -5.81628 1342.8131 -36.4375 1342.8125 L -137.03125 1342.8125 z M -31.125 1445.5312 C -25.464524 1445.7377 -21.377006 1446.4866 -18.875 1447.75 C -16.373267 1449.0142 -14.255655 1452.306 -12.53125 1457.6562 C -10.807132 1463.0073 -9.9688963 1473.361 -9.96875 1488.7188 C -9.9688963 1518.7209 -10.926437 1536.1725 -12.84375 1541.0625 C -14.761349 1545.9533 -19.375215 1548.4066 -26.6875 1548.4062 C -29.034943 1548.4478 -30.506902 1548.5405 -31.125 1548.7188 L -31.125 1445.5312 z M -31.125 1643.375 C -21.900085 1643.9521 -16.069054 1645.9935 -13.625 1649.4688 C -11.181231 1652.9444 -9.9688963 1664.9746 -9.96875 1685.5938 L -9.96875 1734.4062 C -9.9688963 1753.8857 -11.376662 1765.6771 -14.1875 1769.75 C -16.998624 1773.8232 -22.634224 1776.1031 -31.125 1776.625 L -31.125 1643.375 z "
         transform="matrix(1.2095889,0,0,0.85056471,-21.303361,26.817818)"
         id="path3108" />
      <path
         id="path3110"
         style="font-weight:bold;fill:url(#linearGradient3139);font-family:Impact;-inkscape-font-specification:Impact Bold;fill-opacity:1"
         d="m 131.52286,1168.9744 88.10555,0 c 54.92779,5e-4 92.61842,2.2322 113.07201,6.6951 20.45315,4.4639 37.16754,15.9116 50.14323,34.3432 12.97514,18.4324 19.46285,47.1319 19.46314,86.0987 -2.9e-4,35.7193 -4.75872,60.1541 -14.2753,73.3045 -9.51715,13.1509 -26.0183,19.9775 -49.50351,20.4797 21.16003,0.7246 36.04291,6.2864 44.64867,16.6852 8.60522,10.3992 13.94494,19.9015 16.0192,28.5068 2.07367,8.6056 3.11065,31.0132 3.11094,67.2227 l 0,123.0183 -119.84599,0 0,-153.5318 c -1.7e-4,-22.6908 -1.4461,-36.2271 -4.3378,-40.6089 -2.89203,-4.3814 -9.06426,-6.5722 -18.51671,-6.5724 l 0,200.7131 -128.08343,0 z m 128.08343,87.3695 0,87.7725 c 7.55959,3e-4 13.25861,-1.3142 17.09707,-3.9434 3.83812,-2.6287 5.75727,-12.8291 5.75744,-30.6012 l 0,-24.467 c -1.7e-4,-12.4317 -1.931,-20.3333 -5.79249,-23.7045 -3.86183,-3.3706 -9.54917,-5.0561 -17.06202,-5.0564 z" />
      <path
         id="path3112"
         style="font-weight:bold;fill:url(#linearGradient3139);font-family:Impact;-inkscape-font-specification:Impact Bold;fill-opacity:1"
         d="m 570.31552,1168.9744 0,456.3542 -128.08343,0 0,-456.3542 z" />
      <path
         id="path3114"
         style="font-weight:bold;fill:url(#linearGradient3139);font-family:Impact;-inkscape-font-specification:Impact Bold;fill-opacity:1"
         d="m 891.97877,1374.297 -128.10095,0 0,-83.1456 c -1.8e-4,-21.7558 -0.90864,-34.6903 -2.72537,-38.8036 -1.81708,-4.1125 -5.54145,-6.1689 -11.17312,-6.1693 -6.64853,4e-4 -10.94836,2.5797 -12.89948,7.738 -1.95143,5.159 -2.92707,18.7624 -2.92692,40.8103 l 0,206.7598 c -1.5e-4,21.102 0.96965,34.1504 2.90939,39.1454 1.93944,4.9951 5.97053,7.4926 12.09326,7.4925 5.72515,1e-4 9.61018,-2.5412 11.6551,-7.624 2.04458,-5.0826 3.06696,-19.4601 3.06714,-43.1326 l 0,-61.4303 128.10095,0 0,22.9421 c -3e-4,46.4687 -3.4092,79.7894 -10.22669,99.9623 -6.81809,20.173 -21.91128,37.8542 -45.27963,53.0438 -23.36885,15.1896 -52.01876,22.7844 -85.9498,22.7844 -35.12317,0 -64.24921,-6.4585 -87.37821,-19.3755 -23.12915,-12.917 -38.4239,-30.7092 -45.88429,-53.3768 -7.46046,-22.6675 -11.19067,-56.0963 -11.19065,-100.2865 l 0,-130.0639 c -2e-5,-32.5405 1.12459,-57.0279 3.37384,-73.4622 2.24921,-16.4336 9.12542,-32.482 20.62865,-48.1452 11.50315,-15.6624 27.40841,-27.966 47.71581,-36.9108 20.30723,-8.9438 43.45383,-13.416 69.43987,-13.4165 35.26306,5e-4 64.55268,6.938 87.86895,20.8127 23.31577,13.8756 38.62513,31.1362 45.92811,51.782 7.30239,20.6465 10.95374,52.0189 10.95404,94.1171 z" />
      <path
         id="path3116"
         style="font-weight:bold;fill:url(#linearGradient3139);font-family:Impact;-inkscape-font-specification:Impact Bold;fill-opacity:1"
         d="m 1217.1473,1168.9744 -66.2501,206.6371 72.5772,249.7171 -130.8001,0 -35.5437,-190.8106 0,190.8106 -128.08339,0 0,-456.3542 128.08339,0 0,172.9337 40.4687,-172.9337 z" />
    </g>
  </g>
</svg>
