<?xml version="1.0" encoding="UTF-8" standalone="no"?>
<!-- Created with Inkscape (http://www.inkscape.org/) -->

<svg
   xmlns:dc="http://purl.org/dc/elements/1.1/"
   xmlns:cc="http://creativecommons.org/ns#"
   xmlns:rdf="http://www.w3.org/1999/02/22-rdf-syntax-ns#"
   xmlns:svg="http://www.w3.org/2000/svg"
   xmlns="http://www.w3.org/2000/svg"
   xmlns:sodipodi="http://sodipodi.sourceforge.net/DTD/sodipodi-0.dtd"
   xmlns:inkscape="http://www.inkscape.org/namespaces/inkscape"
   width="744.09448819"
   height="1052.3622047"
   id="svg2"
   version="1.1"
   inkscape:version="0.48.4 r9939"
   sodipodi:docname="chalkwithoutlinefilter.svg">
  <defs
     id="defs4">
    <filter
       id="filter2989"
       inkscape:menu-tooltip="Draws a black outline around"
       inkscape:menu="ABCs"
       inkscape:label="Black outline"
       color-interpolation-filters="sRGB">
      <feConvolveMatrix
         id="feConvolveMatrix2997"
         in="SourceGraphic"
         kernelMatrix="0 -1 0  -1 0 1  0 1 0"
         result="outline" />
      <feOffset
         id="feOffset2999"
         in="outline"
         dx="5"
         result="result1"
         dy="2" />
      <feComposite
         id="feComposite3001"
         in2="result1"
         in="SourceGraphic" />
    </filter>
    <filter
       id="filter2987"
       inkscape:menu-tooltip="Draws a black outline around"
       inkscape:menu="ABCs"
       inkscape:label="Black outline"
       color-interpolation-filters="sRGB">
      <feTurbulence
         id="feTurbulence2995"
         result="result1"
         baseFrequency=".32" />
      <feComposite
         id="feComposite2997"
         in2="result1"
         in="SourceGraphic"
         operator="out" />
      <feConvolveMatrix
         id="feConvolveMatrix3003"
         kernelMatrix="-10 0 10" />
      <feMorphology
         id="feMorphology3007"
         radius="1.5"
         operator="dilate"
         result="krita_fin" />
      <feTurbulence
         id="feTurbulence3009"
         baseFrequency=".5"
         type="fractalNoise"
         result="result2" />
      <feDisplacementMap
         id="feDisplacementMap3011"
         in2="result2"
         in="krita_fin"
         scale="2"
         xChannelSelector="A"
         yChannelSelector="A"
         result="krita" />
      <feConvolveMatrix
         id="feConvolveMatrix3085"
         in="SourceGraphic"
         kernelMatrix="-2 0 2"
         result="outline" />
      <feOffset
         id="feOffset3087"
         in="outline"
         result="result3"
         dx="8"
         dy="2" />
      <feComposite
         id="feComposite3089"
         in2="result3"
         in="krita" />
    </filter>
  </defs>
  <sodipodi:namedview
     id="base"
     pagecolor="#ffffff"
     bordercolor="#666666"
     borderopacity="1.0"
     inkscape:pageopacity="0.0"
     inkscape:pageshadow="2"
     inkscape:zoom="0.98994949"
     inkscape:cx="392.32227"
     inkscape:cy="741.54032"
     inkscape:document-units="px"
     inkscape:current-layer="layer1"
     showgrid="false"
     inkscape:window-width="1366"
     inkscape:window-height="721"
     inkscape:window-x="-4"
     inkscape:window-y="24"
     inkscape:window-maximized="1" />
  <metadata
     id="metadata7">
    <rdf:RDF>
      <cc:Work
         rdf:about="">
        <dc:format>image/svg+xml</dc:format>
        <dc:type
           rdf:resource="http://purl.org/dc/dcmitype/StillImage" />
        <dc:title></dc:title>
      </cc:Work>
    </rdf:RDF>
  </metadata>
  <g
     inkscape:label="Layer 1"
     inkscape:groupmode="layer"
     id="layer1">
    <rect
       style="fill:#1a1a1a;fill-opacity:1;fill-rule:nonzero;stroke:none"
       id="rect3003"
       width="654.57886"
       height="486.89352"
       x="-248.49753"
       y="34.128422" />
    <text
       xml:space="preserve"
       style="font-size:120px;font-style:normal;font-weight:normal;line-height:125%;letter-spacing:0px;word-spacing:0px;fill:#ffffff;fill-opacity:1;stroke:none;filter:url(#filter2989);font-family:Sans"
       x="-133.89491"
       y="215.13011"
       id="text2985"
       sodipodi:linespacing="125%"><tspan
         sodipodi:role="line"
         id="tspan2987"
         x="-133.89491"
         y="215.13011">TEST!</tspan></text>
    <g
       transform="translate(-327.92963,167.69169)"
       style="font-size:120px;font-style:normal;font-weight:normal;line-height:125%;letter-spacing:0px;word-spacing:0px;fill:#ffffff;fill-opacity:1;stroke:none;filter:url(#filter2987);font-family:Sans"
       id="text3013">
      <path
         style="fill:#ffffff"
         d="m 139.49495,165.64149 c 0,-28.63281 0,-57.26562 0,-85.898433 11.20396,-3.98523 12.59045,6.616005 11.36719,14.576128 0,9.340505 0,18.681015 0,28.021525 14.21875,-14.19922 28.4375,-28.398435 42.65625,-42.597653 5.13672,0 10.27343,0 15.41015,0 -12.01172,11.601561 -24.02343,23.203123 -36.03515,34.804683 12.53906,17.03125 25.07812,34.0625 37.61718,51.09375 -5,0 -10,0 -15,0 -10.19531,-14.49219 -20.39062,-28.98437 -30.58593,-43.47656 -4.6875,4.57031 -9.375,9.14063 -14.0625,13.71094 0,9.92187 0,19.84375 0,29.76562 -3.78906,0 -7.57813,0 -11.36719,0 z"
         id="path3018"
         inkscape:connector-curvature="0" />
      <path
         style="fill:#ffffff"
         d="m 218.65511,165.64149 c 0,-20.74219 0,-41.48437 0,-62.22656 6.7885,-5.320462 10.8337,7.73683 11.01284,5.99934 3.52351,-12.532561 30.9872,-7.00989 18.17109,4.23286 -11.44795,-2.31979 -19.41871,3.68412 -18.25996,15.6566 -1.25873,11.68536 0.17716,23.43351 -0.35926,35.14338 -2.7933,2.80602 -7.1554,0.40673 -10.56471,1.19438 z"
         id="path3020"
         inkscape:connector-curvature="0" />
      <path
         style="fill:#ffffff"
         d="m 258.90901,91.871964 c 0,-4.042969 0,-8.085938 0,-12.128907 13.82352,-5.261911 15.90892,17.863591 0,12.128907 z m 0,73.769526 c 0,-20.74219 0,-41.48437 0,-62.22656 11.15951,-4.204449 11.3933,7.77851 10.54688,15.23759 0,15.66299 0,31.32598 0,46.98897 -3.51563,0 -7.03125,0 -10.54688,0 z"
         id="path3022"
         inkscape:connector-curvature="0" />
      <path
         style="fill:#ffffff"
         d="m 308.59651,156.2079 c 7.03861,16.85536 -24.35008,11.97889 -20.96542,-2.69697 -0.45929,-13.94705 0.0477,-27.92562 -0.12833,-41.89287 -10.50425,4.13413 -8.72712,-11.914977 -0.31738,-9.58106 -1.40377,-8.462821 1.44042,-19.942228 10.89094,-18.893751 -0.21015,6.741102 -0.036,13.505504 -0.0853,20.271681 11.43153,-5.217353 14.67793,11.5595 2.33618,8.60075 -6.11409,10.57016 -0.23379,24.65032 -2.32796,36.67873 -0.57633,6.3166 4.65486,10.18767 10.59725,7.51349 z"
         id="path3024"
         inkscape:connector-curvature="0" />
      <path
         style="fill:#ffffff"
         d="m 359.45589,157.96571 c -10.96897,10.80713 -32.88126,13.79068 -42.29003,-0.46857 -7.65937,-14.02293 8.6448,-30.62166 23.02582,-27.40694 11.35692,3.6436 26.64079,-11.5759 11.42225,-18.11514 -11.29448,-6.27503 -20.90192,4.66657 -27.98824,10.114 -13.65242,-3.59407 4.56426,-21.89205 13.95823,-19.51001 11.02464,-1.80639 26.77144,-0.80464 30.51758,11.98346 3.63569,15.56978 -2.07422,31.9958 3.31731,47.31805 0.48121,8.52324 -15.91131,3.00891 -11.96292,-3.91485 z m -0.87891,-23.55468 c -9.76228,5.45911 -25.86873,0.3299 -31.25072,12.37875 -1.88959,18.87121 31.44788,13.74795 30.86409,-3.0159 0.50251,-3.09312 0.517,-6.24023 0.38663,-9.36285 z"
         id="path3026"
         inkscape:connector-curvature="0" />
      <path
         style="fill:#ffffff"
         d="m 391.27229,144.31337 c -1.28968,-21.50773 -3.84269,-42.99067 -3.22265,-64.570313 4.35547,0 8.71093,0 13.0664,0 0.58861,21.573733 -1.82839,43.060873 -3.04687,64.570313 -2.26563,0 -4.53125,0 -6.79688,0 z m -2.7539,21.32812 c 0,-4.0039 0,-8.00781 0,-12.01171 4.04297,0 8.08593,0 12.1289,0 0,4.0039 0,8.00781 0,12.01171 -4.04297,0 -8.08593,0 -12.1289,0 z"
         id="path3028"
         inkscape:connector-curvature="0" />
    </g>
    <path
       style="fill:#ffffff;fill-opacity:1;fill-rule:nonzero;stroke:none;filter:url(#filter2987)"
       d="m -79.855339,353.98445 -12.09375,8.8125 c 9.359199,0.83348 18.593943,2.73743 27.78125,4.65625 9.22983,1.95025 18.461563,3.67284 27.84375,4.6875 5.341932,0.48086 9.755095,0.23691 14.6875,-1.875 1.600243,-0.91899 3.21135,-1.83259 4.8125,-2.75 -0.723233,0.71078 -0.250939,0.41063 1.3125,-0.625 -0.01966,-0.0347 -0.04125,-0.0608 -0.0625,-0.0937 -0.404186,0.23163 -0.814547,0.4559 -1.21875,0.6875 0.233246,-0.22853 0.584537,-0.54447 1.03125,-0.96875 0.07945,0.0806 0.123737,0.18246 0.1875,0.28125 0.541908,-0.31055 1.083185,-0.62679 1.625,-0.9375 -0.490573,0.3214 -1.200195,0.79126 -1.5625,1.03125 0.550358,0.97174 0.505999,2.6119 0.625,3.59375 0.250557,2.06729 0.344309,2.56556 0.6875,4.75 0.945715,7.11722 1.675407,14.27607 2.1875,21.4375 0.38931,6.29533 0.631536,12.61255 0.0625,18.90625 -0.473212,5.23385 -0.793342,6.26337 -1.75,11.4375 -1.777185,7.20567 -3.351773,15.1844 -7,21.75 -0.554156,0.9973 -1.277175,1.89193 -1.90625,2.84375 -4.081981,5.45141 -9.757423,9.34882 -15.15625,13.375 -0.770712,0.65111 -2.044095,1.54772 -3.4375,2.5 -0.309196,0.084 -0.619403,0.15184 -0.9375,0.1875 -6.752657,0.75692 -14.004766,-3.92503 -19.59375,-7.125 -3.415561,-2.08927 -6.41479,-4.70894 -9.40625,-7.34375 l -12.25,7.625 c 3.094766,2.6806 6.224007,5.36915 9.71875,7.53125 5.542175,3.11392 13.329879,8.11435 19.84375,8.15625 0.881589,0.006 1.750303,-0.23359 2.625,-0.34375 9.566875,-5.30497 18.410524,-9.8947 26.9375,-16.5625 5.44253,-4.08016 11.07229,-8.13315 14.9374999,-13.84375 0.590617,-1.00783 1.226962,-1.98675 1.75,-3.03125 2.516658,-5.02573 3.941206,-10.50957 5.1875,-16 0.633759,1.05351 1.260941,2.12176 1.87499997,3.1875 2.25980203,4.3644 4.20539003,8.87202 6.43750043,13.25 2.387754,4.7466 6.0095147,8.52182 10.0312497,11.90625 2.645819,1.99921 4.698699,4.61815 7.5625,6.3125 2.705548,1.37624 5.789952,1.32975 8.75,1.40625 7.820826,0.42458 15.472959,-4.53276 20.21875,-10.625 0.655013,-0.84085 1.259773,-1.75462 1.875,-2.625 2.67694,-4.61103 5.142012,-9.3453 7.46875,-14.15625 0.725154,0.88014 1.755346,1.45926 3.125,1.65625 2.91565,-0.0166 5.47981,-1.68917 8,-2.96875 0.81042,-0.27604 4.104988,-2.67199 4.999998,-2.03125 0.45966,0.32907 0.73146,1.57418 0.84375,1.9375 0.65804,4.45399 0.69051,8.98271 1.125,13.46875 0.30806,2.57162 0.65966,5.14727 0.96875,7.71875 0.36159,3.00816 0.24387,6.69658 2.6875,8.96875 1.03492,0.9623 2.36912,1.4931 3.5625,2.25 1.87009,0.59755 3.72497,1.31836 5.625,1.8125 9.899481,2.57457 20.280181,3.7531 30.500001,4.03125 l -2.09375,1.59375 c 3.155,-1.24167 6.65968,-2.4335 9.8125,-4.0625 0.31923,0.81527 0.69565,1.6054 1.15625,2.375 1.42386,1.6472 3.62434,2.56943 5.71875,1.4375 13.57406,-7.33614 10.61977,-5.14768 16.90625,-10.1875 5.5591,-4.36743 9.1944,-9.45877 12.34375,-15.40625 0.32121,5.03724 0.97536,10.02753 2,14.96875 1.0361,3.37431 1.38669,7.11082 3.25,10.15625 1.97054,2.18883 4.2727,3.36758 7.21875,3.25 9.85,-2.4347 15.9654,-8.92635 21.96875,-16.03125 5.43951,-7.10904 10.09262,-14.76524 14.6875,-22.4375 0.90748,-1.46838 1.7946,-2.95372 2.6875,-4.4375 -1.46574,3.49249 -2.80142,7.04461 -3.96875,10.65625 -1.18636,4.61683 -2.90283,9.42132 -1.5,14.15625 1.26528,2.13169 3.76915,3.43292 6.28125,3.28125 0.66544,-0.0402 1.31382,-0.25054 1.96875,-0.375 11.9313,-6.70938 15.5546,-7.33 18.46875,-14.8125 3.43892,5.04291 8.2319,9.07721 13.875,11.78125 1.95693,0.93772 4.04019,1.55689 6.0625,2.34375 8.63329,2.19861 4.3074,1.33168 12.96875,2.6875 l 11.375,-8 c -8.5619,-1.17771 -4.30462,-0.38381 -12.78125,-2.4375 -1.94844,-0.74692 -3.95658,-1.35955 -5.84375,-2.25 -7.88146,-3.71879 -13.56525,-9.67872 -16.625,-17.8125 -0.83719,-2.34285 -1.58722,-4.7168 -2.5,-7.03125 -0.30306,-0.76844 -0.21002,-2.49141 -1,-2.25 -12.06179,3.68598 -13.39307,2.38545 -14.15625,9.125 -0.42635,4.75208 -1.25478,9.45383 -2.625,14.03125 -0.51528,1.78113 -1.00725,3.5538 -1.71875,5.25 -0.25455,-0.20361 -0.50299,-0.40691 -0.6875,-0.65625 -1.28106,-4.33547 0.52507,-8.92739 1.46875,-13.15625 2.96396,-9.41967 6.98414,-18.48749 12.4375,-26.75 2.10193,-2.85298 4.13533,-5.47549 6.8125,-7.8125 4.48627,-3.91624 12.71902,-6.08356 -11.03125,3.3125 3.84356,-2.19868 7.70721,-4.36131 11.53125,-6.59375 0.0511,-0.0299 0.039,-0.0476 0.0625,-0.0625 -0.35751,0.17257 -1.76189,0.90362 -2.3125,1.21875 -8.79016,5.03089 -17.43399,9.16447 -24.375,16.5 -1.0344,1.14912 -2.10602,2.24803 -3.09375,3.4375 -5.72031,6.88868 -9.91782,14.86174 -14.71875,22.375 -4.67568,7.70039 -9.43846,15.42584 -15.15625,22.40625 -0.30077,0.34002 -0.60539,0.68954 -0.90625,1.03125 -0.74246,-0.41951 -1.45071,-0.94109 -2,-1.4375 -1.84283,-2.74339 -2.17489,-6.53268 -3.09375,-9.65625 -1.21481,-5.40332 -2.17875,-10.86795 -2.5,-16.40625 -0.56379,-8.4919 -0.5473,-16.99326 -0.4375,-25.5 2.98658,-1.7499 6.12786,-3.75254 9.9375,-5.96875 4.89485,-3.97453 8.96985,-8.81705 12.96875,-13.65625 l -13.125,5.59375 c -3.01445,3.61562 -6.10081,7.2215 -9.625,10.34375 -0.0609,0.0172 -0.12651,0.0144 -0.1875,0.0312 -0.005,-0.72921 0.005,-1.4585 0,-2.1875 0.93419,-6.64437 1.38539,-13.34128 1.78125,-20.03125 0.027,-3.11056 0.81831,-10.07366 -1.125,-12.75 -4.47058,2.61246 -9.16658,4.87117 -13.40625,7.84375 -0.43327,0.30378 -0.019,1.0335 -0.0312,1.5625 -0.0934,4.04056 -0.0675,8.08343 -0.0625,12.125 0.0364,4.89258 -0.004,9.79389 -0.0312,14.6875 -2.92046,-9.3e-4 -5.86178,0.005 -8.78125,-0.0625 l -12.09375,8.78125 c 4.51344,-0.0997 9.01689,-0.08 13.53125,-0.0625 2.42487,-0.0526 4.59003,-0.30794 6.59375,-0.6875 -0.22623,1.11716 -0.45413,2.23192 -0.71875,3.34375 -2.17777,9.34939 -5.07342,18.54674 -8.9375,27.34375 -0.6799,1.33416 -1.29575,2.69566 -2.03125,4 -2.25417,3.99754 -5.06931,7.62019 -8.34375,10.78125 -0.17172,-0.11895 -0.344,-0.22788 -0.53125,-0.40625 -2.52632,-3.75597 -2.56689,-8.51506 -3.03125,-12.875 -0.10196,-2.64708 -0.15096,-5.28807 -0.15625,-7.9375 0.007,-0.12462 0.0249,-0.25037 0.0312,-0.375 0.1489,-2.9755 0.1637,-5.92775 0.1875,-8.90625 0.0189,-0.70512 0.004,-1.41933 0,-2.125 0.14356,-0.6807 0.57136,-1.73579 0.0625,-1.5625 -0.0108,0.004 -0.0205,-0.004 -0.0312,0 0.0525,-0.23115 0.14851,-0.54302 0,-0.46875 -1.17382,0.58683 -2.20593,1.06448 -3.1875,1.5 -5.26302,1.67195 -7.89739,2.29131 -9.09375,3.21875 -1.1621,0.44643 -1.20617,1.09109 -1.0625,3.28125 -0.004,0.78518 0.0221,1.71587 0.0312,2.90625 0.005,2.9433 -0.029,5.87262 -0.1875,8.8125 -0.20159,2.85414 -0.59139,5.68451 -1.09375,8.5 -0.1799,1.72559 -0.44222,3.42367 -0.78125,5.125 -9.31871,-0.48873 -18.58703,-2.10512 -27.406253,-5.1875 -1.02638,-0.60996 -2.20026,-1.02054 -3.09375,-1.8125 -1.508608,-1.33718 -1.735988,-3.09115 -2.062498,-4.9375 -0.64627,-3.65452 -0.8884,-7.35221 -1.34375,-11.03125 -0.28135,-4.65223 0.0111,-9.38942 -0.9375,-13.96875 -0.46266,-1.3851 -0.95932,-3.37625 -2.625,-3.84375 -1.70935,-0.47977 -3.33187,1.31278 -4.71875,1.90625 -2.43923,1.18503 -4.76467,2.61781 -7.375,3.40625 -2.149208,0.19425 -2.748168,-0.18035 -3.218748,-2.40625 -0.53341,-2.71677 -1.31576,-5.40406 -2.65625,-7.84375 -0.32624,-0.93262 -0.4333,-1.14678 -0.65625,-2.0625 -0.07478,-0.3071 0.1097,-1.01384 -0.1875,-0.90625 -0.05752,0.0208 -0.09921,0.0419 -0.15625,0.0625 0.68063,-1.36183 2.12635,-2.73896 3.21875,-3.65625 -1.24165,0.90153 -3.44076,2.41801 -7.5625,5.125 -11.786784,3.76114 -8.20961,0.18773 -9.34375,5.4375 -1.050592,4.38742 -2.851859,8.53011 -4.71875,12.625 -3.007724,6.62991 -6.147622,13.25953 -10.0625,19.40625 -1.966154,-0.0329 -3.926386,-0.18899 -5.78125,-0.84375 -2.958959,-1.4128 -4.923477,-4.10079 -7.5625,-6 -4.013811,-3.12782 -7.448803,-6.74747 -9.75,-11.34375 -2.277424,-4.3864 -4.147447,-8.95174 -6.40625,-13.34375 -2.093298,-3.62773 -4.3423077,-7.15732 -6.6874997,-10.625 9.5102117,-3.9007 18.9328057,-6.54539 27.2187497,-13.5 0.783584,-0.64179 1.619839,-1.22908 2.34375,-1.9375 3.858401,-3.77584 5.740753,-9.03819 7.125,-14.125 0.973988,-4.42298 1.472286,-8.88876 1.78125,-13.40625 l -13.34375,6.8125 c 0.01091,4.39507 -0.704781,8.68937 -1.625,12.96875 -1.127342,4.19761 -2.744137,8.48646 -5.6875,11.75 -2.273621,0.90155 -4.586911,1.7304 -6.875,2.59375 -2.404885,1.0251 -4.84962,1.86081 -7.4374997,2.25 -1.936711,0.24085 -3.898019,0.1885 -5.8437504,0.25 -0.769335,0.098 -1.536731,0.23278 -2.31250003,0.375 0.30037003,-5.29557 0.10674303,-10.60595 -0.15625,-15.90625 -0.459875,-7.2247 -1.269854,-14.42391 -1.99999997,-21.625 -0.278651,-2.43228 -0.371436,-7.31231 -1.46875,-9.46875 -0.186664,-0.36683 -0.476045,-0.66758 -0.71875,-1 -0.293351,-0.1717 -0.571108,-0.68351 -0.875,-0.53125 -3.048232,1.52729 -6.0072789,3.25251 -8.9374999,5 -3.602967,1.31164 -7.058861,1.58947 -11.3125,1.34375 -9.471101,-0.82644 -18.817522,-2.41184 -28.125,-4.34375 -9.046218,-1.8808 -18.141198,-3.56554 -27.1875,-5.4375 z m 153.3125,57.5 c 1.8623,-1.35218 1.28067,-1.07538 0,0 z M 167.23841,383.2032 c 0.0187,-0.004 0.0437,0.0852 0.0625,0.125 -0.0747,0.0381 -0.14392,0.0871 -0.21875,0.125 0.0849,-0.14186 0.11789,-0.24126 0.15625,-0.25 z m -20.15625,4.0625 -13.34375,6.8125 c 0.1652,4.06954 0.10955,8.116 0.0937,12.1875 -0.0181,2.39341 -0.0101,1.22629 -0.0312,3.5 l 13.21875,-6.71875 c -0.0213,-2.25332 -0.0131,-1.09478 -0.0312,-3.46875 -0.0161,-4.10135 -0.0698,-8.21303 0.0937,-12.3125 z"
       id="path3093"
       inkscape:connector-curvature="0" />
    <path
       inkscape:connector-curvature="0"
       id="path3105"
       d="m -51.571068,519.64947 -12.09375,8.8125 c 9.359199,0.83348 18.593943,2.73743 27.78125,4.65625 9.22983,1.95025 18.461563,3.67284 27.8437502,4.6875 5.3419327,0.48086 9.7550951,0.23691 14.6875,-1.875 1.600243,-0.91899 3.21135,-1.83259 4.8124998,-2.75 -0.723233,0.71078 -0.250939,0.41063 1.3125,-0.625 -0.01966,-0.0347 -0.04125,-0.0608 -0.0625,-0.0937 -0.404186,0.23163 -0.814547,0.4559 -1.21875,0.6875 0.233246,-0.22853 0.584537,-0.54447 1.03125,-0.96875 0.07945,0.0806 0.123737,0.18246 0.1875,0.28125 0.541908,-0.31055 1.083185,-0.62679 1.625,-0.9375 -0.490573,0.3214 -1.200195,0.79126 -1.5625,1.03125 0.550358,0.97174 0.505999,2.6119 0.625,3.59375 0.250557,2.06729 0.344309,2.56556 0.6875,4.75 0.945715,7.11722 1.675407,14.27607 2.1875,21.4375 0.38931,6.29533 0.631536,12.61255 0.0625,18.90625 -0.473212,5.23385 -0.793342,6.26337 -1.75,11.4375 -1.777185,7.20567 -3.351773,15.1844 -6.9999998,21.75 -0.554156,0.9973 -1.277175,1.89193 -1.90625,2.84375 -4.0819807,5.45141 -9.7574231,9.34882 -15.15625,13.375 -0.7707122,0.65111 -2.0440952,1.54772 -3.4375002,2.5 -0.309196,0.084 -0.619403,0.15184 -0.9375,0.1875 -6.752657,0.75692 -14.004766,-3.92503 -19.59375,-7.125 -3.415561,-2.08927 -6.41479,-4.70894 -9.40625,-7.34375 l -12.25,7.625 c 3.094766,2.6806 6.224007,5.36915 9.71875,7.53125 5.542175,3.11392 13.329879,8.11435 19.84375,8.15625 0.881589,0.006 1.750303,-0.23359 2.625,-0.34375 9.566875,-5.30497 18.4105246,-9.8947 26.9375002,-16.5625 5.44253,-4.08016 11.0722898,-8.13315 14.9374998,-13.84375 0.590617,-1.00783 1.226962,-1.98675 1.75,-3.03125 2.516658,-5.02573 3.941206,-10.50957 5.1875,-16 0.633759,1.05351 1.260941,2.12176 1.875,3.1875 2.259802,4.3644 4.20539,8.87202 6.4375,13.25 2.387754,4.7466 6.009515,8.52182 10.03125,11.90625 2.645819,1.99921 4.698699,4.61815 7.5625,6.3125 2.705548,1.37624 5.789952,1.32975 8.75,1.40625 7.820826,0.42458 15.472959,-4.53276 20.21875,-10.625 0.655013,-0.84085 1.259773,-1.75462 1.875,-2.625 2.67694,-4.61103 5.142012,-9.3453 7.46875,-14.15625 0.725154,0.88014 1.755346,1.45926 3.125,1.65625 2.91565,-0.0166 5.47981,-1.68917 7.999998,-2.96875 0.81042,-0.27604 4.10499,-2.67199 5,-2.03125 0.45966,0.32907 0.73146,1.57418 0.84375,1.9375 0.65804,4.45399 0.69051,8.98271 1.125,13.46875 0.30806,2.57162 0.65966,5.14727 0.96875,7.71875 0.36159,3.00816 0.24387,6.69658 2.6875,8.96875 1.03492,0.9623 2.36912,1.4931 3.5625,2.25 1.87009,0.59755 3.72497,1.31836 5.625,1.8125 9.89948,2.57457 20.28018,3.7531 30.5,4.03125 l -2.09375,1.59375 c 3.155,-1.24167 6.65968,-2.4335 9.8125,-4.0625 0.31923,0.81527 0.69565,1.6054 1.15625,2.375 1.42386,1.6472 3.62434,2.56943 5.71875,1.4375 13.57406,-7.33614 10.61977,-5.14768 16.90625,-10.1875 5.5591,-4.36743 9.1944,-9.45877 12.34375,-15.40625 0.32121,5.03724 0.97536,10.02753 2,14.96875 1.0361,3.37431 1.38669,7.11082 3.25,10.15625 1.97054,2.18883 4.2727,3.36758 7.21875,3.25 9.85,-2.4347 15.9654,-8.92635 21.96875,-16.03125 5.43951,-7.10904 10.09262,-14.76524 14.6875,-22.4375 0.90748,-1.46838 1.7946,-2.95372 2.6875,-4.4375 -1.46574,3.49249 -2.80142,7.04461 -3.96875,10.65625 -1.18636,4.61683 -2.90283,9.42132 -1.5,14.15625 1.26528,2.13169 3.76915,3.43292 6.28125,3.28125 0.66544,-0.0402 1.31382,-0.25054 1.96875,-0.375 11.9313,-6.70938 15.5546,-7.33 18.46875,-14.8125 3.43892,5.04291 8.2319,9.07721 13.875,11.78125 1.95693,0.93772 4.04019,1.55689 6.0625,2.34375 8.63329,2.19861 4.3074,1.33168 12.96875,2.6875 l 11.375,-8 c -8.5619,-1.17771 -4.30462,-0.38381 -12.78125,-2.4375 -1.94844,-0.74692 -3.95658,-1.35955 -5.84375,-2.25 -7.88146,-3.71879 -13.56525,-9.67872 -16.625,-17.8125 -0.83719,-2.34285 -1.58722,-4.7168 -2.5,-7.03125 -0.30306,-0.76844 -0.21002,-2.49141 -1,-2.25 -12.06179,3.68598 -13.39307,2.38545 -14.15625,9.125 -0.42635,4.75208 -1.25478,9.45383 -2.625,14.03125 -0.51528,1.78113 -1.00725,3.5538 -1.71875,5.25 -0.25455,-0.20361 -0.50299,-0.40691 -0.6875,-0.65625 -1.28106,-4.33547 0.52507,-8.92739 1.46875,-13.15625 2.96396,-9.41967 6.98414,-18.48749 12.4375,-26.75 2.10193,-2.85298 4.13533,-5.47549 6.8125,-7.8125 4.48627,-3.91624 12.71902,-6.08356 -11.03125,3.3125 3.84356,-2.19868 7.70721,-4.36131 11.53125,-6.59375 0.0511,-0.0299 0.039,-0.0476 0.0625,-0.0625 -0.35751,0.17257 -1.76189,0.90362 -2.3125,1.21875 -8.79016,5.03089 -17.43399,9.16447 -24.375,16.5 -1.0344,1.14912 -2.10602,2.24803 -3.09375,3.4375 -5.72031,6.88868 -9.91782,14.86174 -14.71875,22.375 -4.67568,7.70039 -9.43846,15.42584 -15.15625,22.40625 -0.30077,0.34002 -0.60539,0.68954 -0.90625,1.03125 -0.74246,-0.41951 -1.45071,-0.94109 -2,-1.4375 -1.84283,-2.74339 -2.17489,-6.53268 -3.09375,-9.65625 -1.21481,-5.40332 -2.17875,-10.86795 -2.5,-16.40625 -0.56379,-8.4919 -0.5473,-16.99326 -0.4375,-25.5 2.98658,-1.7499 6.12786,-3.75254 9.9375,-5.96875 4.89485,-3.97453 8.96985,-8.81705 12.96875,-13.65625 l -13.125,5.59375 c -3.01445,3.61562 -6.10081,7.2215 -9.625,10.34375 -0.0609,0.0172 -0.12651,0.0144 -0.1875,0.0312 -0.005,-0.72921 0.005,-1.4585 0,-2.1875 0.93419,-6.64437 1.38539,-13.34128 1.78125,-20.03125 0.027,-3.11056 0.81831,-10.07366 -1.125,-12.75 -4.47058,2.61246 -9.16658,4.87117 -13.40625,7.84375 -0.43327,0.30378 -0.019,1.0335 -0.0312,1.5625 -0.0934,4.04056 -0.0675,8.08343 -0.0625,12.125 0.0364,4.89258 -0.004,9.79389 -0.0312,14.6875 -2.92046,-9.3e-4 -5.86178,0.005 -8.78125,-0.0625 l -12.09375,8.78125 c 4.51344,-0.0997 9.01689,-0.08 13.53125,-0.0625 2.42487,-0.0526 4.59003,-0.30794 6.59375,-0.6875 -0.22623,1.11716 -0.45413,2.23192 -0.71875,3.34375 -2.17777,9.34939 -5.07342,18.54674 -8.9375,27.34375 -0.6799,1.33416 -1.29575,2.69566 -2.03125,4 -2.25417,3.99754 -5.06931,7.62019 -8.34375,10.78125 -0.17172,-0.11895 -0.344,-0.22788 -0.53125,-0.40625 -2.52632,-3.75597 -2.56689,-8.51506 -3.03125,-12.875 -0.10196,-2.64708 -0.15096,-5.28807 -0.15625,-7.9375 0.007,-0.12462 0.0249,-0.25037 0.0312,-0.375 0.1489,-2.9755 0.1637,-5.92775 0.1875,-8.90625 0.0189,-0.70512 0.004,-1.41933 0,-2.125 0.14356,-0.6807 0.57136,-1.73579 0.0625,-1.5625 -0.0108,0.004 -0.0205,-0.004 -0.0312,0 0.0525,-0.23115 0.14851,-0.54302 0,-0.46875 -1.17382,0.58683 -2.20593,1.06448 -3.1875,1.5 -5.26302,1.67195 -7.89739,2.29131 -9.09375,3.21875 -1.1621,0.44643 -1.20617,1.09109 -1.0625,3.28125 -0.004,0.78518 0.0221,1.71587 0.0312,2.90625 0.005,2.9433 -0.029,5.87262 -0.1875,8.8125 -0.20159,2.85414 -0.59139,5.68451 -1.09375,8.5 -0.1799,1.72559 -0.44222,3.42367 -0.78125,5.125 -9.31871,-0.48873 -18.58703,-2.10512 -27.40625,-5.1875 -1.02638,-0.60996 -2.20026,-1.02054 -3.09375,-1.8125 -1.50861,-1.33718 -1.73599,-3.09115 -2.0625,-4.9375 -0.64627,-3.65452 -0.8884,-7.35221 -1.34375,-11.03125 -0.28135,-4.65223 0.0111,-9.38942 -0.9375,-13.96875 -0.46266,-1.3851 -0.95932,-3.37625 -2.625,-3.84375 -1.70935,-0.47977 -3.33187,1.31278 -4.71875,1.90625 -2.43923,1.18503 -4.76467,2.61781 -7.375,3.40625 -2.14921,0.19425 -2.74817,-0.18035 -3.21875,-2.40625 -0.53341,-2.71677 -1.31576,-5.40406 -2.656248,-7.84375 -0.32624,-0.93262 -0.4333,-1.14678 -0.65625,-2.0625 -0.07478,-0.3071 0.1097,-1.01384 -0.1875,-0.90625 -0.05752,0.0208 -0.09921,0.0419 -0.15625,0.0625 0.68063,-1.36183 2.126348,-2.73896 3.218748,-3.65625 -1.24165,0.90153 -3.440758,2.41801 -7.562498,5.125 -11.786784,3.76114 -8.20961,0.18773 -9.34375,5.4375 -1.050592,4.38742 -2.851859,8.53011 -4.71875,12.625 -3.007724,6.62991 -6.147622,13.25953 -10.0625,19.40625 -1.966154,-0.0329 -3.926386,-0.18899 -5.78125,-0.84375 -2.958959,-1.4128 -4.923477,-4.10079 -7.5625,-6 -4.013811,-3.12782 -7.448803,-6.74747 -9.75,-11.34375 -2.277424,-4.3864 -4.147447,-8.95174 -6.40625,-13.34375 -2.093298,-3.62773 -4.342308,-7.15732 -6.6875,-10.625 9.510212,-3.9007 18.932806,-6.54539 27.21875,-13.5 0.783584,-0.64179 1.619839,-1.22908 2.34375,-1.9375 3.858401,-3.77584 5.740753,-9.03819 7.125,-14.125 0.973988,-4.42298 1.472286,-8.88876 1.78125,-13.40625 l -13.34375,6.8125 c 0.01091,4.39507 -0.704781,8.68937 -1.625,12.96875 -1.127342,4.19761 -2.744137,8.48646 -5.6875,11.75 -2.273621,0.90155 -4.586911,1.7304 -6.875,2.59375 -2.404885,1.0251 -4.84962,1.86081 -7.4375,2.25 -1.936711,0.24085 -3.898019,0.1885 -5.84375,0.25 -0.769335,0.098 -1.536731,0.23278 -2.3125,0.375 0.30037,-5.29557 0.106743,-10.60595 -0.15625,-15.90625 -0.459875,-7.2247 -1.269854,-14.42391 -2,-21.625 -0.278651,-2.43228 -0.371436,-7.31231 -1.46875,-9.46875 -0.186664,-0.36683 -0.476045,-0.66758 -0.71875,-1 -0.293351,-0.1717 -0.571108,-0.68351 -0.875,-0.53125 -3.048232,1.52729 -6.007279,3.25251 -8.9375,5 -3.602967,1.31164 -7.0588608,1.58947 -11.3124998,1.34375 -9.4711002,-0.82644 -18.8175222,-2.41184 -28.1250002,-4.34375 -9.046218,-1.8808 -18.141198,-3.56554 -27.1875,-5.4375 z m 153.312498,57.5 c 1.8623,-1.35218 1.28067,-1.07538 0,0 z m 93.78125,-28.28125 c 0.0187,-0.004 0.0437,0.0852 0.0625,0.125 -0.0747,0.0381 -0.14392,0.0871 -0.21875,0.125 0.0849,-0.14186 0.11789,-0.24126 0.15625,-0.25 z m -20.15625,4.0625 -13.34375,6.8125 c 0.1652,4.06954 0.10955,8.116 0.0937,12.1875 -0.0181,2.39341 -0.0101,1.22629 -0.0312,3.5 l 13.21875,-6.71875 c -0.0213,-2.25332 -0.0131,-1.09478 -0.0312,-3.46875 -0.0161,-4.10135 -0.0698,-8.21303 0.0937,-12.3125 z"
       style="fill:#ffffff;fill-opacity:1;fill-rule:nonzero;stroke:none" />
    <text
       xml:space="preserve"
       style="font-size:120px;font-style:normal;font-weight:normal;line-height:125%;letter-spacing:0px;word-spacing:0px;fill:#ffffff;fill-opacity:1;stroke:none;filter:url(#filter2987);font-family:Sans"
       x="125.25892"
       y="292.72748"
       id="text3110"
       sodipodi:linespacing="125%"><tspan
         sodipodi:role="line"
         id="tspan3112"
         x="125.25892"
         y="292.72748">hehehe</tspan></text>
  </g>
</svg>
