<?xml version="1.0" encoding="UTF-8" standalone="no"?>
<!-- Created with Inkscape (http://www.inkscape.org/) -->

<svg
   xmlns:dc="http://purl.org/dc/elements/1.1/"
   xmlns:cc="http://creativecommons.org/ns#"
   xmlns:rdf="http://www.w3.org/1999/02/22-rdf-syntax-ns#"
   xmlns:svg="http://www.w3.org/2000/svg"
   xmlns="http://www.w3.org/2000/svg"
   xmlns:sodipodi="http://sodipodi.sourceforge.net/DTD/sodipodi-0.dtd"
   xmlns:inkscape="http://www.inkscape.org/namespaces/inkscape"
   version="1.1"
   id="svg10"
   width="297mm"
   height="210mm"
   viewBox="0 0 1122.5197 793.70079"
   sodipodi:docname="crazy_horse_coloring_page.svg"
   inkscape:version="0.92.2 (5c3e80d, 2017-08-06)">
  <metadata
     id="metadata16">
    <rdf:RDF>
      <cc:Work
         rdf:about="">
        <dc:format>image/svg+xml</dc:format>
        <dc:type
           rdf:resource="http://purl.org/dc/dcmitype/StillImage" />
        <dc:title></dc:title>
      </cc:Work>
    </rdf:RDF>
  </metadata>
  <defs
     id="defs14" />
  <sodipodi:namedview
     pagecolor="#ffffff"
     bordercolor="#666666"
     borderopacity="1"
     objecttolerance="10"
     gridtolerance="10"
     guidetolerance="10"
     inkscape:pageopacity="0"
     inkscape:pageshadow="2"
     inkscape:window-width="1680"
     inkscape:window-height="987"
     id="namedview12"
     showgrid="false"
     units="mm"
     inkscape:snap-global="false"
     inkscape:zoom="2.1013333"
     inkscape:cx="881.95309"
     inkscape:cy="481.25705"
     inkscape:window-x="-4"
     inkscape:window-y="-4"
     inkscape:window-maximized="1"
     inkscape:current-layer="layer2" />
  <g
     inkscape:groupmode="layer"
     id="layer1"
     inkscape:label="Layer 1" />
  <g
     inkscape:groupmode="layer"
     id="layer2"
     inkscape:label="Layer 2">
    <path
       style="fill:#ffffff;fill-opacity:1;stroke:#000000;stroke-width:3;stroke-linecap:butt;stroke-linejoin:miter;stroke-miterlimit:4;stroke-dasharray:none;stroke-opacity:1"
       d="m 603.18317,297.18936 c 10.09512,-2.69203 14.80617,5.13168 14.80617,5.13168 l -20.09514,4.29684 z"
       id="path4769"
       inkscape:connector-curvature="0" />
    <path
       style="fill:#ffffff;fill-opacity:1;stroke:#000000;stroke-width:3;stroke-linecap:butt;stroke-linejoin:miter;stroke-miterlimit:4;stroke-dasharray:none;stroke-opacity:1"
       d="m 357.3671,467.29206 c 23.55527,114.41131 168.25193,181.71208 168.25193,181.71208 l 12.11414,-32.97737 c 0,0 -43.3135,4.14173 -76.55138,-23.75957 -32.02912,-26.88662 -19.818,-101.81861 -57.4646,-143.98265 l -9.16641,-38.7029 -48.62481,33.81863 z"
       id="path4625"
       inkscape:connector-curvature="0"
       sodipodi:nodetypes="cccscccc" />
    <path
       style="fill:#ffffff;fill-opacity:1;stroke:#000000;stroke-width:3;stroke-linecap:butt;stroke-linejoin:miter;stroke-miterlimit:4;stroke-dasharray:none;stroke-opacity:1"
       d="m 872.55451,153.67046 c 0,0 -9.6616,-56.173432 21.87275,-63.935734 21.87276,-5.384062 16.82519,51.485084 -1.00951,77.395884"
       id="path4621"
       inkscape:connector-curvature="0"
       sodipodi:nodetypes="csc" />
    <path
       style="fill:none;stroke:#000000;stroke-width:3;stroke-linecap:butt;stroke-linejoin:miter;stroke-miterlimit:4;stroke-dasharray:none;stroke-opacity:1"
       d="m 908.11443,103.16004 c -20.27436,-27.8457 -24.79179,55.89448 -24.79179,55.89448"
       id="path4623"
       inkscape:connector-curvature="0"
       sodipodi:nodetypes="cc" />
    <path
       style="fill:#ffffff;fill-opacity:1;stroke:none;stroke-width:1px;stroke-linecap:butt;stroke-linejoin:miter;stroke-opacity:1"
       d="m 929.08716,319.56686 c 23.55527,-1.17776 27.92777,-5.55231 31.62932,18.00296 3.70154,23.55527 0.67505,45.59627 -22.03896,41.05347 -22.71401,-4.5428 -40.88522,-36.17416 -42.23123,-42.23123 -1.34602,-6.05707 19.51722,-13.96491 32.64087,-16.8252 z"
       id="path4617"
       inkscape:connector-curvature="0"
       sodipodi:nodetypes="csscc" />
    <path
       inkscape:connector-curvature="0"
       id="path4611"
       d="m 927.50249,378.00582 c -0.53596,-2.52223 -20.14156,-39.34322 -18.76111,-41.75021 2.55668,-4.59184 15.33705,33.31538 33.25216,31.07154 17.9151,-2.24382 6.22525,-29.59155 11.37246,-31.05314 2.03557,-0.42365 4.5399,21.72397 5.90157,23.26888 2.51193,2.67846 4.2106,6.32517 4.76992,10.23247"
       style="fill:#ffffff;stroke:#000000;stroke-width:0.9299863px;stroke-linecap:butt;stroke-linejoin:miter;stroke-opacity:1"
       sodipodi:nodetypes="cczccc" />
    <path
       style="fill:#ffffff;fill-opacity:1;stroke:#000000;stroke-width:2.78995895;stroke-linecap:butt;stroke-linejoin:miter;stroke-miterlimit:4;stroke-dasharray:none;stroke-opacity:1"
       d="m 953.33875,316.03008 c 10.6896,31.7495 24.55442,65.48378 -12.4678,66.32696 -37.02221,0.84318 -39.65013,-54.0814 -52.42642,-79.54548 l 19.05447,30.16398 c 0,0 12.75566,47.18923 38.01787,40.94969 25.26222,-6.23955 1.16827,-49.77168 1.16827,-49.77168"
       id="path4609"
       inkscape:connector-curvature="0"
       sodipodi:nodetypes="csccsc" />
    <path
       style="fill:#ffffff;stroke:#000000;stroke-width:2;stroke-linecap:butt;stroke-linejoin:miter;stroke-opacity:1;fill-opacity:1;stroke-miterlimit:4;stroke-dasharray:none"
       d="m 941.30711,341.13101 c 0,0 20.4632,33.07424 15.70431,60.67576 -4.75888,27.60152 -25.06371,7.89578 -19.03553,-9.75571 7.21573,-21.12883 -11.36466,-40.19333 -25.20916,-54.73362"
       id="path4747"
       inkscape:connector-curvature="0"
       sodipodi:nodetypes="cssc" />
    <path
       style="fill:none;stroke:#000000;stroke-width:2;stroke-linecap:butt;stroke-linejoin:miter;stroke-opacity:1;stroke-miterlimit:4;stroke-dasharray:none"
       d="m 946.30394,397.52377 c 11.18337,-31.64656 -21.65292,-59.01015 -21.65292,-59.01015"
       id="path4749"
       inkscape:connector-curvature="0"
       sodipodi:nodetypes="cc" />
    <path
       style="fill:#ffffff;stroke:#000000;stroke-width:1px;stroke-linecap:butt;stroke-linejoin:miter;stroke-opacity:1"
       d="m 914.99825,333.75511 c 0.44524,2.55347 0.53695,5.7017 2.96859,7.25529 4.55737,2.99967 10.31755,4.1072 15.65969,2.98819 6.05388,-1.0303 12.09942,-2.11274 18.14645,-3.18092 2.32939,-0.5634 3.51533,-2.98497 4.33872,-5.03145 1.58788,-3.61858 1.92397,-7.7417 0.94683,-11.57091"
       id="path4597"
       inkscape:connector-curvature="0" />
    <path
       style="fill:#ffffff;fill-opacity:1;stroke:#000000;stroke-width:3;stroke-linecap:butt;stroke-linejoin:miter;stroke-miterlimit:4;stroke-dasharray:none;stroke-opacity:1"
       d="m 853.34375,144.80078 c -18.13787,-0.0172 -31.96094,3.5957 -31.96094,3.5957 -74.34468,21.0899 -102.9469,116.31942 -173.94922,141.22071 -71.00231,24.90129 -161.07607,28.19588 -185.82226,-0.35742 -24.7462,-28.5533 -169.41584,-18.08477 -138.95899,99.93554 30.45686,118.0203 -51.39648,266.49805 -51.39648,266.49805 l 23.79492,18.08398 c 8.93286,-27.45304 6.96093,-56.53579 19.95471,-83.64322 23.00673,-47.99632 85.71613,-86.9962 77.26135,-137.6701 0,0 46.87253,47.74216 173.15699,31.58286 60.16163,-7.69827 100.56448,-27.92524 141.78703,-63.94315 -30.10666,65.35383 -17.63308,116.79737 -34.87688,200.63455 l 33.6504,-7.4043 c 0,0 -16.82364,-28.26493 -6.72852,-56.53125 9.758,-27.32238 33.41716,-125.83552 35.82191,-132.8376 8.81779,10.22975 17.38526,18.29078 38.09788,30.83237 33.43289,20.24377 59.80629,-2.39246 85.25582,-12.20404 30.39135,-11.7168 82.64368,-3.39799 82.64368,-3.39799 l -14.13897,-19.88364 c 0,0 -51.3529,16.34958 -124.03774,10.96551 -70.66792,-5.23466 -53.82056,-85.3416 -34.60983,-112.0259 25.12281,-34.89636 46.63403,-61.59519 57.98483,-76.11472 8.46532,17.78674 22.24778,30.5308 36.03711,41.88672 13.08858,10.77883 20.22474,29.58562 32.08398,43.35742 10.13149,11.76541 22.19609,12.28547 45.87503,8.55823 16.45214,-2.58969 25.39621,-5.02053 27.05271,-19.53089 0.56141,-4.91771 1.60738,-13.55021 -1.18862,-18.71748 C 950.09374,268.04745 944.6769,227.53454 930.83789,190.75 916.37132,152.29738 879.85294,144.82589 853.34375,144.80078 Z"
       id="path4627"
       inkscape:connector-curvature="0"
       sodipodi:nodetypes="scsssccscscccscssccsscsssssss" />
    <path
       style="fill:#ffffff;fill-opacity:1;stroke:#000000;stroke-width:3;stroke-linecap:butt;stroke-linejoin:miter;stroke-miterlimit:4;stroke-dasharray:none;stroke-opacity:1"
       d="m 814.84411,149.80066 c -5.59627,12.46325 -16.15645,24.46686 -12.29107,39.0954 -0.40395,13.27671 -5.08804,-5.1916 -5.05042,-9.47173 -7.85081,7.36623 -6.46852,35.24786 -22.18466,22.471 -6.96491,3.67352 1.25216,27.42952 -8.67685,19.62803 -3.16091,-9.63303 -1.79876,-22.63085 8.65862,-25.73969 -15.26407,5.07188 -7.04761,19.01819 -13.49608,26.64016 -6.5154,12.31911 14.26182,6.97898 15.07533,3.61696 3.91302,11.16618 -18.23811,22.33481 -20.75935,8.04843 -1.48821,-6.06742 -5.70674,-25.16767 -10.29204,-11.15321 2.42709,10.14302 10.83449,24.04081 -5.14087,27.76369 -9.72088,1.95195 -1.95761,-20.79258 -14.86853,-11.90698 3.90996,11.06992 4.31589,22.65341 3.4436,34.93568 0.017,9.68246 -8.7327,16.77583 -16.87142,18.78936 -10.99303,-7.27961 3.24436,-18.26736 3.59335,-27.2941 1.97814,-14.70346 -9.03343,-29.4577 -1.93679,-43.67813 7.38306,-6.00429 15.65074,-11.41234 23.58114,-16.91863 8.98273,-9.63663 18.94959,-18.19865 29.70404,-25.65071 6.64522,-8.59284 12.31428,-19.00658 24.10288,-20.82219 7.99013,-2.28355 14.54274,-10.96333 23.40912,-8.35334 z"
       id="path4638"
       inkscape:connector-curvature="0"
       sodipodi:nodetypes="cccccccccccccccccccc" />
    <g
       id="g4649"
       transform="translate(-17.607868,-3.3312183)">
      <path
         sodipodi:nodetypes="cccc"
         inkscape:connector-curvature="0"
         id="path3726"
         d="m 900.8566,169.81121 c 0,0 51.39594,-39.97462 104.2195,32.36041 l 10.4735,-0.23188 c 9.5178,-25.22208 -52.89215,-121.488944 -143.83634,-55.16761"
         style="fill:#ffffff;stroke:#000000;stroke-width:3;stroke-linecap:butt;stroke-linejoin:miter;stroke-miterlimit:4;stroke-dasharray:none;stroke-opacity:1;fill-opacity:1" />
      <path
         inkscape:connector-curvature="0"
         id="path3728"
         d="m 1005.0761,202.17162 c 1.7435,-3.83027 -1.7057,-4.75566 3.0895,-3.83027 4.7952,0.92538 2.3555,-1.26189 4.3745,-0.75714 2.019,0.50476 1.9349,0.75714 2.1873,1.5984 0.2524,0.84126 0.8222,2.75713 0.8222,2.75713 0,0 3.2158,2.37455 2.3746,3.04756 -0.8413,0.67301 -3.0286,1.43014 -5.2158,1.9349 -2.1873,0.50475 -3.1968,0.673 -4.0381,0 -0.8412,-0.67301 -2.9444,0.3365 -3.7856,-0.25239 -0.8413,-0.58888 0.1914,-4.49819 0.1914,-4.49819"
         style="fill:#000000;stroke:#000000;stroke-width:1px;stroke-linecap:butt;stroke-linejoin:miter;stroke-opacity:1"
         sodipodi:nodetypes="cccscccccc" />
      <path
         sodipodi:nodetypes="cccc"
         inkscape:connector-curvature="0"
         id="path3730"
         d="m 1011.8671,199.43498 c 0,0 -53.5041,-98.25913 -136.1158,-42.39948 l -2.69203,-2.86028 c 0,0 80.57662,-58.772056 140.49033,44.58676"
         style="fill:#000000;stroke:#000000;stroke-width:1px;stroke-linecap:butt;stroke-linejoin:miter;stroke-opacity:1" />
    </g>
    <ellipse
       style="opacity:1;fill:#ffffff;fill-opacity:1;stroke:#000000;stroke-width:3.81562567;stroke-linecap:round;stroke-miterlimit:4;stroke-dasharray:none;stroke-dashoffset:0;stroke-opacity:1"
       id="path3772"
       cx="835.29871"
       cy="242.53197"
       rx="14.637918"
       ry="22.464037"
       transform="matrix(1,0,0.19315458,0.98116834,0,0)" />
    <ellipse
       transform="matrix(1,0,0.19315458,0.98116834,0,0)"
       ry="22.464037"
       rx="14.637918"
       cy="235.67271"
       cx="873.97552"
       id="ellipse3774"
       style="opacity:1;fill:#ffffff;fill-opacity:1;stroke:#000000;stroke-width:3.81562567;stroke-linecap:round;stroke-miterlimit:4;stroke-dasharray:none;stroke-dashoffset:0;stroke-opacity:1" />
    <circle
       style="opacity:1;fill:#000000;fill-opacity:1;stroke:#000000;stroke-width:3;stroke-linecap:round;stroke-miterlimit:4;stroke-dasharray:none;stroke-dashoffset:0;stroke-opacity:1"
       id="path4583"
       cx="883.23853"
       cy="242.42336"
       r="5.6364398" />
    <circle
       r="5.6364398"
       cy="225.09341"
       cx="922.10468"
       id="circle4585"
       style="opacity:1;fill:#000000;fill-opacity:1;stroke:#000000;stroke-width:3;stroke-linecap:round;stroke-miterlimit:4;stroke-dasharray:none;stroke-dashoffset:0;stroke-opacity:1" />
    <path
       style="fill:none;stroke:#000000;stroke-width:5;stroke-linecap:round;stroke-linejoin:miter;stroke-miterlimit:4;stroke-dasharray:none;stroke-opacity:1"
       d="m 884.80804,201.86516 c -9.34644,-13.76973 -33.30181,-3.18741 -32.97738,12.78715"
       id="path4587"
       inkscape:connector-curvature="0"
       sodipodi:nodetypes="cc" />
    <path
       style="fill:none;stroke:#000000;stroke-width:5;stroke-linecap:round;stroke-linejoin:miter;stroke-miterlimit:4;stroke-dasharray:none;stroke-opacity:1"
       d="m 902.81595,197.33432 c 7.52133,-8.00946 28.47359,-9.19759 28.74571,0.41815"
       id="path4589"
       inkscape:connector-curvature="0"
       sodipodi:nodetypes="cc" />
    <path
       style="fill:#ffffff;fill-opacity:1;stroke:#000000;stroke-width:3;stroke-linecap:butt;stroke-linejoin:miter;stroke-miterlimit:19.5;stroke-dasharray:none;stroke-opacity:1"
       d="m 850.88833,144.58913 c 18.40955,-16.40247 45.30062,-10.57915 60.2465,-0.63919 -16.51372,-0.45412 -30.80518,-3.57494 -51.39433,0.86146 11.82496,-1.79454 42.37972,-0.57967 48.56992,31.29773 -9.02324,-13.83215 -35.03682,-24.90937 -43.87329,-25.1687 15.09273,1.7049 23.19868,6.82167 21.42899,26.48499 -6.8476,-10.22743 -25.59293,-22.89465 -39.49873,-19.86833"
       id="path4644"
       inkscape:connector-curvature="0"
       sodipodi:nodetypes="ccccccc" />
    <path
       style="fill:#ffffff;stroke:#000000;stroke-width:3;stroke-linecap:butt;stroke-linejoin:miter;stroke-opacity:1;stroke-miterlimit:4;stroke-dasharray:none;fill-opacity:1"
       d="m 817.70439,163.42907 c 0,0 -21.87276,-71.338817 18.1712,-72.011825 40.04396,-0.673008 9.75862,69.319795 9.75862,69.319795"
       id="path4619"
       inkscape:connector-curvature="0" />
    <path
       style="fill:none;stroke:#000000;stroke-width:3;stroke-linecap:butt;stroke-linejoin:miter;stroke-miterlimit:4;stroke-dasharray:none;stroke-opacity:1"
       d="M 735.68663,424.39105 C 719.22808,406.59802 711.80562,384.55394 711.80562,384.55394"
       id="path4636"
       inkscape:connector-curvature="0"
       sodipodi:nodetypes="cc" />
    <path
       style="fill:#ffffff;stroke:#000000;stroke-width:3;stroke-linecap:butt;stroke-linejoin:miter;stroke-miterlimit:4;stroke-dasharray:none;stroke-opacity:1"
       d="m 834.4367,96.452554 c 30.57775,0 -2.56276,64.159926 -2.56276,64.159926 0,0 -28.01496,-64.159926 2.56276,-64.159926 z"
       id="path4651"
       inkscape:connector-curvature="0"
       sodipodi:nodetypes="scs" />
    <path
       style="fill:#ffffff;fill-opacity:1;stroke:#000000;stroke-width:3;stroke-linecap:butt;stroke-linejoin:miter;stroke-miterlimit:4;stroke-dasharray:none;stroke-opacity:1"
       d="M 388.35869,288.42287 C 306.5059,247.02059 196.5757,390.73886 196.5757,390.73886 c 0,0 27.70817,-81.4018 -39.02284,-71.38325 -44.17951,6.63282 -39.66285,43.22188 -23.43354,66.58527 10.07935,14.51003 25.40726,18.51061 34.17484,23.4833 -19.80868,18.89337 -46.16256,28.26462 -74.034451,26.99996 0,0 51.633881,25.34105 92.560281,-23.67545 0,0 35.45368,-4.87785 53.53744,-33.90704 18.08375,-29.02919 70.57086,-67.75345 106.26248,-63.94634"
       id="path4655"
       inkscape:connector-curvature="0"
       sodipodi:nodetypes="ccsscccsc" />
    <path
       style="fill:#ffffff;stroke:#000000;stroke-width:3;stroke-linecap:butt;stroke-linejoin:miter;stroke-miterlimit:4;stroke-dasharray:none;stroke-opacity:1"
       d="m 176.32802,393.76596 c 0,0 14.63792,-52.8311 -15.81568,-48.96131 -30.4536,3.86979 -5.80468,41.05347 15.81568,48.96131 z"
       id="path4657"
       inkscape:connector-curvature="0"
       sodipodi:nodetypes="csc" />
    <path
       style="fill:none;stroke:#000000;stroke-width:3;stroke-linecap:butt;stroke-linejoin:miter;stroke-miterlimit:4;stroke-dasharray:none;stroke-opacity:1"
       d="m 197.86427,389.13903 c -8.58085,11.10464 -22.71401,4.2063 -22.71401,4.2063"
       id="path4659"
       inkscape:connector-curvature="0"
       sodipodi:nodetypes="cc" />
    <path
       style="fill:none;stroke:#000000;stroke-width:3;stroke-linecap:butt;stroke-linejoin:miter;stroke-miterlimit:4;stroke-dasharray:none;stroke-opacity:1"
       d="m 187.71595,412.76399 c -12.01558,1.2689 -20.84509,-3.99845 -20.84509,-3.99845"
       id="path4661"
       inkscape:connector-curvature="0"
       sodipodi:nodetypes="cc" />
    <path
       style="fill:none;stroke:#000000;stroke-width:3;stroke-linecap:round;stroke-linejoin:miter;stroke-miterlimit:4;stroke-dasharray:none;stroke-opacity:1"
       d="m 920.33806,303.41468 c -18.30359,-19.39185 -35.66941,9.75861 -29.94884,17.8347"
       id="path4703"
       inkscape:connector-curvature="0"
       sodipodi:nodetypes="cc" />
    <path
       style="fill:#ffffff;stroke:#000000;stroke-width:3;stroke-linecap:round;stroke-linejoin:miter;stroke-miterlimit:4;stroke-dasharray:none;stroke-opacity:1;fill-opacity:1"
       d="m 944.39809,300.8909 c 16.15218,-28.60283 30.7901,0.33651 23.21877,8.24434"
       id="path4705"
       inkscape:connector-curvature="0"
       sodipodi:nodetypes="cc" />
    <path
       style="fill:#000000;stroke:#000000;stroke-width:1px;stroke-linecap:butt;stroke-linejoin:miter;stroke-opacity:1"
       d="m 912.59847,317.88434 c 2.69204,-7.90784 -3.19678,-18.1712 -11.60938,-10.26336 -8.41259,7.90784 4.2063,9.4221 7.57134,5.38406 3.36504,-4.03805 4.03804,4.8793 4.03804,4.8793 z"
       id="path4707"
       inkscape:connector-curvature="0" />
    <path
       inkscape:connector-curvature="0"
       id="path4709"
       d="m 950.63584,310.48125 c -2.69204,-7.90784 3.19678,-18.1712 11.60938,-10.26336 8.41259,7.90784 -4.2063,9.4221 -7.57134,5.38406 -3.36504,-4.03805 -4.03804,4.8793 -4.03804,4.8793 z"
       style="fill:#000000;stroke:#000000;stroke-width:1px;stroke-linecap:butt;stroke-linejoin:miter;stroke-opacity:1" />
    <path
       style="fill:none;stroke:#000000;stroke-width:1px;stroke-linecap:butt;stroke-linejoin:miter;stroke-opacity:1"
       d="m 890.55747,320.74463 c 18.91986,8.81715 69.76026,7.62379 77.73239,-9.75861"
       id="path4711"
       inkscape:connector-curvature="0"
       sodipodi:nodetypes="cc" />
    <path
       style="fill:#ffffff;fill-opacity:1;stroke:#000000;stroke-width:3;stroke-linecap:round;stroke-linejoin:miter;stroke-miterlimit:4;stroke-dasharray:none;stroke-opacity:1"
       d="m 871.35358,265.94767 c 17.7156,-17.04021 31.43412,-6.46179 31.88452,-5.94861"
       id="path4717"
       inkscape:connector-curvature="0"
       sodipodi:nodetypes="cc" />
    <path
       style="fill:#ffffff;fill-opacity:1;stroke:#000000;stroke-width:3;stroke-linecap:round;stroke-linejoin:miter;stroke-miterlimit:4;stroke-dasharray:none;stroke-opacity:1"
       d="m 911.06839,257.02826 c 16.53712,-13.56282 27.60152,-2.97431 27.60152,-2.97431"
       id="path4719"
       inkscape:connector-curvature="0" />
    <path
       style="fill:none;stroke:#000000;stroke-width:3;stroke-linecap:butt;stroke-linejoin:miter;stroke-miterlimit:4;stroke-dasharray:none;stroke-opacity:1"
       d="m 827.01685,243.85349 c -5.88882,-14.30141 -8.0761,-29.27583 -8.0761,-29.27583"
       id="path4721"
       inkscape:connector-curvature="0" />
    <path
       style="fill:#ffffff;stroke:#000000;stroke-width:3;stroke-linecap:butt;stroke-linejoin:miter;stroke-miterlimit:0;stroke-dasharray:none;stroke-opacity:1"
       d="m 477.93126,293.33806 c -30.45685,20.93908 -25.69797,205.58375 -25.69797,205.58375 51.39594,-11.89007 102.79188,-13.40991 154.18782,-11.42132 -1.26904,-63.45178 -30.50047,-156.86326 -3.80711,-190.35533 0,0 -80.90101,18.08376 -124.68274,-3.8071 z"
       id="path4767"
       inkscape:connector-curvature="0"
       sodipodi:nodetypes="ccccc" />
    <path
       style="fill:none;stroke:#000000;stroke-width:1px;stroke-linecap:butt;stroke-linejoin:miter;stroke-opacity:1"
       d="m 463.02931,323.26841 c 65.28175,21.87275 128.88098,3.70154 128.88098,3.70154"
       id="path4773"
       inkscape:connector-curvature="0" />
    <path
       style="fill:none;stroke:#000000;stroke-width:1px;stroke-linecap:butt;stroke-linejoin:miter;stroke-opacity:1"
       d="M 592.2468,359.94733 C 537.39667,377.44553 457.98175,357.2553 457.98175,357.2553"
       id="path4775"
       inkscape:connector-curvature="0"
       sodipodi:nodetypes="cc" />
    <path
       style="fill:none;stroke:#000000;stroke-width:1px;stroke-linecap:butt;stroke-linejoin:miter;stroke-opacity:1"
       d="m 454.44846,390.56918 c 28.60284,10.93637 139.95675,2.00211 139.95675,2.00211"
       id="path4777"
       inkscape:connector-curvature="0"
       sodipodi:nodetypes="cc" />
    <path
       inkscape:connector-curvature="0"
       id="path4781"
       d="m 452.9342,431.62265 c 69.23954,5.90783 148.99497,-7.11305 148.39819,-5.72057"
       style="fill:none;stroke:#000000;stroke-width:1px;stroke-linecap:butt;stroke-linejoin:miter;stroke-opacity:1"
       sodipodi:nodetypes="cc" />
    <path
       sodipodi:nodetypes="cc"
       style="fill:none;stroke:#000000;stroke-width:1.01940906px;stroke-linecap:butt;stroke-linejoin:miter;stroke-opacity:1"
       d="m 450.5761,468.64558 c 52.48449,-6.02163 154.44111,-12.85423 152.76366,-8.08443"
       id="path4783"
       inkscape:connector-curvature="0" />
    <path
       style="fill:none;stroke:#000000;stroke-width:1px;stroke-linecap:butt;stroke-linejoin:bevel;stroke-opacity:1"
       d="m 463.99112,323.76108 10.70749,36.6434 19.03553,-29.98096 8.56599,34.26396 15.70431,-30.93274 8.32805,32.83629 14.75254,-33.07424 7.61421,33.07424 9.04188,-33.31218 8.32804,31.88452 9.51777,-34.50191 8.56599,31.64658 6.42449,-34.50191"
       id="path4785"
       inkscape:connector-curvature="0"
       sodipodi:nodetypes="ccccccccccccc" />
    <path
       style="fill:none;stroke:#000000;stroke-width:1px;stroke-linecap:butt;stroke-linejoin:bevel;stroke-opacity:1"
       d="m 453.2707,431.4544 17.66646,-37.18368 8.58084,38.52969 19.34898,-37.35193 14.14063,37.05308 11.18338,-36.64339 12.3731,35.69162 10.70748,-36.16751 9.04188,35.21573 8.80394,-36.40545 13.08693,34.02601 7.85215,-35.21573 13.32488,32.83629"
       id="path4789"
       inkscape:connector-curvature="0"
       sodipodi:nodetypes="ccccccccccccc" />
    <path
       style="fill:none;stroke:#000000;stroke-width:1px;stroke-linecap:butt;stroke-linejoin:bevel;stroke-opacity:1"
       d="m 452.33185,468.43113 12.84899,27.36358 13.08693,-30.21891 16.89403,25.69797 15.70432,-28.31535 14.75254,25.69797 10.23159,-27.36358 10.94544,25.46003 9.51776,-27.12564 11.65927,27.12564 9.99365,-28.07742 11.89721,28.79125 13.80076,-27.12564"
       id="path4791"
       inkscape:connector-curvature="0" />
    <circle
       r="1.8531957"
       cy="240.5793"
       cx="881.57288"
       id="circle4793"
       style="opacity:1;fill:#ffffff;fill-opacity:1;stroke:none;stroke-width:0.98636496;stroke-linecap:round;stroke-miterlimit:4;stroke-dasharray:none;stroke-dashoffset:0;stroke-opacity:1" />
    <circle
       style="opacity:1;fill:#ffffff;fill-opacity:1;stroke:none;stroke-width:0.98636496;stroke-linecap:round;stroke-miterlimit:4;stroke-dasharray:none;stroke-dashoffset:0;stroke-opacity:1"
       id="circle4795"
       cx="920.00085"
       cy="223.20938"
       r="1.8531957" />
    <path
       style="fill:none;stroke:#000000;stroke-width:1px;stroke-linecap:butt;stroke-linejoin:miter;stroke-opacity:1"
       d="m 898.83408,426.19605 2.49841,9.99365"
       id="path4797"
       inkscape:connector-curvature="0" />
    <path
       style="fill:none;stroke:#000000;stroke-width:1px;stroke-linecap:butt;stroke-linejoin:miter;stroke-opacity:1"
       d="m 696.8995,588.93821 -19.01247,-0.50476"
       id="path4801"
       inkscape:connector-curvature="0" />
    <path
       style="fill:none;stroke:#000000;stroke-width:1px;stroke-linecap:butt;stroke-linejoin:miter;stroke-opacity:1"
       d="m 505.0923,613.83949 -7.57134,18.67597"
       id="path4805"
       inkscape:connector-curvature="0" />
    <path
       style="fill:none;stroke:#000000;stroke-width:1px;stroke-linecap:butt;stroke-linejoin:miter;stroke-opacity:1"
       d="m 301.17096,647.48988 -21.19975,-9.59036"
       id="path4809"
       inkscape:connector-curvature="0" />
    <path
       style="fill:none;stroke:#000000;stroke-width:3;stroke-linecap:butt;stroke-linejoin:miter;stroke-miterlimit:4;stroke-dasharray:none;stroke-opacity:1"
       d="M 392.39412,452.87342 C 389.40291,440.1968 382.33953,430.38715 382.33953,430.38715"
       id="path4813"
       inkscape:connector-curvature="0"
       sodipodi:nodetypes="cc" />
    <path
       style="fill:none;stroke:#000000;stroke-width:3;stroke-linecap:butt;stroke-linejoin:miter;stroke-opacity:1;stroke-miterlimit:4;stroke-dasharray:none"
       d="m 720.6139,402.5206 c -9.87468,16.29918 -19.98731,22.96161 -19.98731,22.96161"
       id="path4815"
       inkscape:connector-curvature="0" />
    <path
       style="fill:none;stroke:#000000;stroke-width:3;stroke-linecap:butt;stroke-linejoin:miter;stroke-opacity:1;stroke-miterlimit:4;stroke-dasharray:none"
       d="m 623.20515,471.66661 1.68252,12.11414 -18.50771,2.01902"
       id="path4817"
       inkscape:connector-curvature="0" />
    <path
       style="fill:none;stroke:#000000;stroke-width:3;stroke-linecap:butt;stroke-linejoin:miter;stroke-opacity:1;stroke-miterlimit:4;stroke-dasharray:none"
       d="m 95.891498,436.54662 c -24.032361,-17.84582 -48.778554,20.70114 0,0 z"
       id="path4821"
       inkscape:connector-curvature="0" />
    <path
       style="fill:#ffffff;stroke:#000000;stroke-width:1;stroke-linecap:butt;stroke-linejoin:miter;stroke-miterlimit:4;stroke-dasharray:none;stroke-opacity:1"
       d="m 923.40356,343.74489 -1.53467,5.2791 c 4.23298,3.33616 7.29241,2.23893 10.11262,0.23794 l 1.29674,-5.51704 0.11897,-0.23795 1.67757,6.23088 c 3.62304,1.72849 6.44793,0.7632 8.80393,-1.78458 l 0.28547,-6.1119 0.17846,-0.11898 2.03449,6.23088 c 4.50296,2.44237 6.55149,0.3265 8.9229,-1.18972 l -3.70009,-6.82574 c -2.71639,-2.74774 -5.1177,-2.34472 -7.19957,1.25271 -3.98659,-2.84577 -7.65284,-2.48813 -11.00491,1.01127 -4.11987,-2.20409 -7.29618,-1.15813 -9.99191,1.54313 z"
       id="path4677"
       inkscape:connector-curvature="0"
       sodipodi:nodetypes="ccccccccccccccc" />
  </g>
</svg>
