<?xml version="1.0" encoding="UTF-8" standalone="no"?>
<!-- Created with Inkscape (http://www.inkscape.org/) -->

<svg
   xmlns:dc="http://purl.org/dc/elements/1.1/"
   xmlns:cc="http://creativecommons.org/ns#"
   xmlns:rdf="http://www.w3.org/1999/02/22-rdf-syntax-ns#"
   xmlns:svg="http://www.w3.org/2000/svg"
   xmlns="http://www.w3.org/2000/svg"
   xmlns:sodipodi="http://sodipodi.sourceforge.net/DTD/sodipodi-0.dtd"
   xmlns:inkscape="http://www.inkscape.org/namespaces/inkscape"
   width="744.09448819"
   height="1052.3622047"
   id="svg2"
   version="1.1"
   inkscape:version="0.48.4 r9939"
   sodipodi:docname="cube_filter.svg">
  <defs
     id="defs4">
    <filter
       id="filter2987"
       inkscape:label="filter1">
      <feTurbulence
         id="feTurbulence2989"
         baseFrequency="0.26026200873362443" />
      <feMorphology
         id="feMorphology2991"
         operator="dilate"
         radius="8" />
      <feSpecularLighting
         id="feSpecularLighting2993"
         surfaceScale="70"
         result="result1"
         specularConstant="2"
         specularExponent="2">
        <feDistantLight
           id="feDistantLight2995" />
      </feSpecularLighting>
      <feComposite
         id="feComposite2997"
         in2="result1"
         in="SourceGraphic"
         operator="in" />
    </filter>
  </defs>
  <sodipodi:namedview
     id="base"
     pagecolor="#ffffff"
     bordercolor="#666666"
     borderopacity="1.0"
     inkscape:pageopacity="0.0"
     inkscape:pageshadow="2"
     inkscape:zoom="1.4256098"
     inkscape:cx="373.9452"
     inkscape:cy="652.05305"
     inkscape:document-units="px"
     inkscape:current-layer="layer1"
     showgrid="false"
     inkscape:window-width="1366"
     inkscape:window-height="721"
     inkscape:window-x="-4"
     inkscape:window-y="24"
     inkscape:window-maximized="1" />
  <metadata
     id="metadata7">
    <rdf:RDF>
      <cc:Work
         rdf:about="">
        <dc:format>image/svg+xml</dc:format>
        <dc:type
           rdf:resource="http://purl.org/dc/dcmitype/StillImage" />
        <dc:title></dc:title>
      </cc:Work>
    </rdf:RDF>
  </metadata>
  <g
     inkscape:label="Layer 1"
     inkscape:groupmode="layer"
     id="layer1">
    <rect
       style="fill:#800080;fill-opacity:1;fill-rule:nonzero;stroke:none;filter:url(#filter2987)"
       id="rect2985"
       width="337.14285"
       height="351.42856"
       x="57.142857"
       y="112.36218" />
    <path
       style="font-size:79.11248779000000300px;font-style:normal;font-variant:normal;font-weight:bold;font-stretch:normal;line-height:125%;letter-spacing:0px;word-spacing:0px;fill:#000000;fill-opacity:1;stroke:none;filter:url(#filter2987);font-family:Arial;-inkscape-font-specification:Arial Bold"
       d="m 94.878288,482.51264 c 0,22.54598 0,45.09195 0,67.63793 4.174499,-1.69019 14.013052,4.1591 12.865792,-4.61496 -0.72022,-4.61137 0.14149,-20.64459 3.96991,-11.08072 2.76158,4.72954 3.97882,12.99516 7.62283,15.69568 3.30326,-1.49195 14.79536,3.27689 11.85355,-2.98973 -4.19793,-9.66119 -8.38942,-19.32736 -12.58487,-28.99046 4.65726,-6.64788 9.34102,-13.26296 13.97631,-19.93805 -5.51548,0.55617 -11.79607,-1.1129 -16.84741,0.7932 -2.90883,2.96833 -9.2906,18.18141 -7.99032,6.3095 0,-8.37662 0,-16.75324 0,-25.12986 -3.6027,1.32707 -12.225404,-2.78635 -12.865792,2.30747 z m 80.011632,0 c 0,22.54598 0,45.09195 0,67.63793 3.89613,-1.32605 12.53184,3.15152 12.35115,-3.28095 7.76135,8.85424 20.74213,3.28403 23.99807,-9.33807 3.77145,-13.12045 2.42345,-32.30153 -8.31536,-38.65024 -4.86109,-2.74733 -10.89675,-2.34917 -15.16808,1.98299 -0.56845,-6.5143 1.14375,-16.06438 -0.86675,-20.65913 -3.29462,1.28078 -11.69259,-2.71674 -11.99903,2.30747 z m 42.30811,0 c 0.47261,6.31738 -2.37952,17.06034 5.20048,13.91697 7.31435,2.47729 8.88098,-2.69631 7.69239,-11.53738 1.31914,-8.65432 -8.00113,-3.14639 -12.02612,-4.68706 -1.58904,-0.96145 -0.57784,1.53831 -0.86675,2.30747 z m 31.77171,14.71017 c -7.93686,-0.56495 -16.34988,8.25062 -14.57219,19.5775 0.6975,7.17953 5.80837,11.58461 10.75309,13.08772 -3.47195,2.14345 -12.45064,-0.37808 -12.24437,4.80001 2.05804,12.85519 12.86818,18.12473 21.80567,16.39994 8.45174,0.0374 16.92238,-10.38537 14.54511,-22.1013 -1.23016,-7.50098 -7.14042,-10.67421 -12.16155,-12.29453 3.17835,-2.25208 12.22281,0.11097 11.21354,-5.44421 -2.14283,-11.73861 -11.26446,-14.99912 -19.3393,-14.02513 z m 45.36881,-0.036 c -3.09151,0.16298 -6.10333,1.73068 -8.50496,4.32651 0.7438,-5.54945 -11.76831,-4.44876 -12.13446,-0.97346 0,16.53691 0,33.07384 0,49.61076 4.1745,-1.69019 14.01304,4.1591 12.86578,-4.61496 0.70801,-10.40116 -1.49405,-21.70685 1.38138,-31.58359 1.90041,-4.14386 7.9754,-3.38561 7.12358,2.5238 0.2648,11.21721 0.0287,22.45142 0.10835,33.67475 4.18031,-1.69447 14.03644,4.16622 12.89286,-4.61496 0.65213,-10.28863 -1.39092,-21.3432 1.27304,-31.18699 1.66926,-4.60341 7.91916,-3.85154 7.09649,2.1272 0.34011,11.21012 0.029,22.45301 0.13543,33.67475 4.18032,-1.69447 14.03645,4.16622 12.89287,-4.61496 -0.69612,-12.84157 1.42756,-26.30014 -1.16469,-38.79446 -3.63356,-11.67902 -16.95906,-12.5432 -22.86046,-3.42516 -2.55406,-4.50954 -6.93859,-6.52569 -11.10521,-6.12923 z m -161.16085,3.35305 c 0.7394,13.51708 -1.53273,27.64361 1.24595,40.8135 3.46687,11.399 15.81754,12.65402 22.34583,5.22788 -0.38855,7.12716 8.36115,2.0903 12.21572,3.56938 0,-17.30608 0,-34.61216 0,-51.91824 -4.1745,1.69019 -14.01304,-4.1591 -12.86578,4.61496 -0.62776,10.15123 1.20473,21.05463 -1.05635,30.8625 -1.9996,4.98802 -9.38666,4.5313 -8.8029,-2.19931 -0.47765,-11.07662 -0.0925,-22.18825 -0.21669,-33.27815 -3.60269,1.32708 -12.2254,-2.78635 -12.86578,2.30748 z m 84.02033,0 c 0,16.53691 0,33.07384 0,49.61076 4.18031,-1.69447 14.03645,4.16622 12.89287,-4.61496 0,-15.76776 0,-31.53551 0,-47.30328 -3.60948,1.32874 -12.24723,-2.78889 -12.89287,2.30748 z m 33.09892,10.23943 c 2.82689,-0.65279 6.12496,1.3094 6.1214,5.66053 -3.09956,-1.50723 -7.69206,-1.32691 -9.96759,-4.21836 0.72781,-1.42743 2.70925,-1.21168 3.84619,-1.44217 z m -56.77196,0.57687 c 6.85851,-0.12547 7.10255,11.95988 6.04015,18.42376 -0.25961,6.91261 -7.67163,9.53589 -10.1572,3.49727 -2.40566,-5.89422 -2.87633,-15.26224 1.00218,-20.40675 0.90843,-0.93448 1.9929,-1.49432 3.11487,-1.51428 z m 52.16736,18.7843 c 3.47167,1.80063 7.83147,1.767 10.94269,4.18231 -0.91965,5.54587 -9.92305,4.41245 -10.69892,-1.58639 0.14421,-0.43364 -0.99298,-3.11632 -0.24377,-2.59592 z"
       id="text2999"
       inkscape:connector-curvature="0" />
  </g>
</svg>
