<?xml version="1.0" encoding="UTF-8" standalone="no"?>
<svg
   xmlns:dc="http://purl.org/dc/elements/1.1/"
   xmlns:cc="http://creativecommons.org/ns#"
   xmlns:rdf="http://www.w3.org/1999/02/22-rdf-syntax-ns#"
   xmlns:svg="http://www.w3.org/2000/svg"
   xmlns="http://www.w3.org/2000/svg"
   xmlns:sodipodi="http://sodipodi.sourceforge.net/DTD/sodipodi-0.dtd"
   xmlns:inkscape="http://www.inkscape.org/namespaces/inkscape"
   width="297mm"
   height="210mm"
   viewBox="0 0 297 210"
   version="1.1"
   id="svg8"
   inkscape:version="1.0.2 (e86c870879, 2021-01-15, custom)"
   sodipodi:docname="doubledecker_outline.svg">
  <defs
     id="defs2" />
  <sodipodi:namedview
     id="base"
     pagecolor="#ffffff"
     bordercolor="#666666"
     borderopacity="1.0"
     inkscape:pageopacity="0.0"
     inkscape:pageshadow="2"
     inkscape:zoom="0.7"
     inkscape:cx="430.78131"
     inkscape:cy="453.27061"
     inkscape:document-units="mm"
     inkscape:current-layer="layer1"
     inkscape:document-rotation="0"
     showgrid="false"
     inkscape:window-width="1644"
     inkscape:window-height="1020"
     inkscape:window-x="38"
     inkscape:window-y="0"
     inkscape:window-maximized="0" />
  <metadata
     id="metadata5">
    <rdf:RDF>
      <cc:Work
         rdf:about="">
        <dc:format>image/svg+xml</dc:format>
        <dc:type
           rdf:resource="http://purl.org/dc/dcmitype/StillImage" />
        <dc:title></dc:title>
      </cc:Work>
    </rdf:RDF>
  </metadata>
  <g
     inkscape:label="Lager 1"
     inkscape:groupmode="layer"
     id="layer1">
    <path
       id="rect10"
       style="fill:none;stroke-width:1.51181104;stroke:#cccccc;stroke-miterlimit:4;stroke-dasharray:none"
       d="M 265.71484 84.285156 C 233.26629 84.285156 207.14258 110.40887 207.14258 142.85742 L 207.14258 317.14258 C 221.1243 319.61697 238.57227 326.30272 238.57227 344.28516 C 238.57227 371.48387 235.044 450.34489 168.38086 468.0293 C 158.66381 470.73679 156.64173 474.26493 157.14258 479.31836 L 157.14258 590 C 157.14258 622.44857 183.26627 648.57227 215.71484 648.57227 L 265.71484 648.57227 L 305.99023 648.57227 A 95.714283 95.714283 0 0 1 302.85742 624.28516 A 95.714283 95.714283 0 0 1 398.57227 528.57227 A 95.714283 95.714283 0 0 1 494.28516 624.28516 A 95.714283 95.714283 0 0 1 491.15234 648.57227 L 660.27539 648.57227 A 95.714282 95.714282 0 0 1 657.14258 624.28516 A 95.714282 95.714282 0 0 1 752.85742 528.57227 A 95.714282 95.714282 0 0 1 848.57227 624.28516 A 95.714282 95.714282 0 0 1 845.4375 648.57227 L 927.14258 648.57227 C 943.36686 648.57227 958.00892 642.03991 968.5957 631.45312 C 969.25773 630.79122 969.9035 630.11489 970.5332 629.42188 C 979.97393 619.03051 985.71484 605.21027 985.71484 590 L 985.71484 402.85742 L 985.71484 142.85742 C 985.71484 110.40887 959.59113 84.285156 927.14258 84.285156 L 265.71484 84.285156 z M 411.42773 155.71484 L 491.42773 155.71484 C 510.42201 155.71484 525.71484 171.00573 525.71484 190 L 525.71484 258.57227 C 525.71484 277.56654 510.42201 292.85742 491.42773 292.85742 L 411.42773 292.85742 C 392.43346 292.85742 377.14258 277.56654 377.14258 258.57227 L 377.14258 190 C 377.14258 171.00573 392.43346 155.71484 411.42773 155.71484 z M 605.71484 155.71484 L 685.71484 155.71484 C 704.70911 155.71484 720 171.00573 720 190 L 720 258.57227 C 720 277.56654 704.70911 292.85742 685.71484 292.85742 L 605.71484 292.85742 C 586.72057 292.85742 571.42773 277.56654 571.42773 258.57227 L 571.42773 190 C 571.42773 171.00573 586.72057 155.71484 605.71484 155.71484 z M 802.85742 155.71484 L 882.85742 155.71484 C 901.85169 155.71484 917.14258 171.00573 917.14258 190 L 917.14258 258.57227 C 917.14258 277.56654 901.85169 292.85742 882.85742 292.85742 L 802.85742 292.85742 C 783.86315 292.85742 768.57227 277.56654 768.57227 258.57227 L 768.57227 190 C 768.57227 171.00573 783.86315 155.71484 802.85742 155.71484 z M 411.42773 328.57227 L 491.42773 328.57227 C 510.42201 328.57227 525.71484 343.86315 525.71484 362.85742 L 525.71484 431.42773 C 525.71484 450.42201 510.42201 465.71484 491.42773 465.71484 L 411.42773 465.71484 C 392.43346 465.71484 377.14258 450.42201 377.14258 431.42773 L 377.14258 362.85742 C 377.14258 343.86315 392.43346 328.57227 411.42773 328.57227 z M 605.71484 328.57227 L 685.71484 328.57227 C 704.70911 328.57227 720 343.86315 720 362.85742 L 720 431.42773 C 720 450.42201 704.70911 465.71484 685.71484 465.71484 L 605.71484 465.71484 C 586.72057 465.71484 571.42773 450.42201 571.42773 431.42773 L 571.42773 362.85742 C 571.42773 343.86315 586.72057 328.57227 605.71484 328.57227 z M 802.85742 328.57227 L 882.85742 328.57227 C 901.85169 328.57227 917.14258 343.86315 917.14258 362.85742 L 917.14258 431.42773 C 917.14258 450.42201 901.85169 465.71484 882.85742 465.71484 L 802.85742 465.71484 C 783.86315 465.71484 768.57227 450.42201 768.57227 431.42773 L 768.57227 362.85742 C 768.57227 343.86315 783.86315 328.57227 802.85742 328.57227 z "
       transform="scale(0.26458333)" />
    <circle
       style="fill:none;stroke-width:0.4;stroke:#cccccc;stroke-miterlimit:4;stroke-dasharray:none"
       id="circle29"
       cx="105.45534"
       cy="165.1756"
       r="21.544643" />
    <circle
       style="fill:none;stroke-width:0.4;stroke:#cccccc;stroke-miterlimit:4;stroke-dasharray:none"
       id="circle31"
       cx="199.19344"
       cy="165.1756"
       r="21.166668" />
  </g>
</svg>
