<?xml version="1.0" encoding="UTF-8" standalone="no"?>
<!-- Created with Inkscape (http://www.inkscape.org/) -->

<svg
   xmlns:dc="http://purl.org/dc/elements/1.1/"
   xmlns:cc="http://creativecommons.org/ns#"
   xmlns:rdf="http://www.w3.org/1999/02/22-rdf-syntax-ns#"
   xmlns:svg="http://www.w3.org/2000/svg"
   xmlns="http://www.w3.org/2000/svg"
   xmlns:sodipodi="http://sodipodi.sourceforge.net/DTD/sodipodi-0.dtd"
   xmlns:inkscape="http://www.inkscape.org/namespaces/inkscape"
   width="297mm"
   height="210mm"
   viewBox="0 0 297 210"
   version="1.1"
   id="svg8"
   inkscape:version="0.92.2 (5c3e80d, 2017-08-06)"
   sodipodi:docname="easter_coloring_page_no_bg.svg">
  <defs
     id="defs2" />
  <sodipodi:namedview
     id="base"
     pagecolor="#ffffff"
     bordercolor="#666666"
     borderopacity="1.0"
     inkscape:pageopacity="0.0"
     inkscape:pageshadow="2"
     inkscape:zoom="0.7"
     inkscape:cx="626.37184"
     inkscape:cy="405.27001"
     inkscape:document-units="mm"
     inkscape:current-layer="layer2"
     showgrid="false"
     inkscape:window-width="1680"
     inkscape:window-height="987"
     inkscape:window-x="-4"
     inkscape:window-y="-4"
     inkscape:window-maximized="1"
     inkscape:snap-global="false"
     showguides="false" />
  <metadata
     id="metadata5">
    <rdf:RDF>
      <cc:Work
         rdf:about="">
        <dc:format>image/svg+xml</dc:format>
        <dc:type
           rdf:resource="http://purl.org/dc/dcmitype/StillImage" />
        <dc:title></dc:title>
      </cc:Work>
    </rdf:RDF>
  </metadata>
  <g
     inkscape:label="Layer 1"
     inkscape:groupmode="layer"
     id="layer1"
     transform="translate(0,-87)" />
  <g
     inkscape:groupmode="layer"
     id="layer2"
     inkscape:label="Layer 2">
    <path
       style="fill:none;stroke:#000000;stroke-width:0.26458332px;stroke-linecap:butt;stroke-linejoin:miter;stroke-opacity:1"
       d="M 4.6447236e-8,80.732146 C 13.607143,73.172622 12.85119,73.172623 30.994048,73.928575 c 18.142857,0.755952 28.348212,3.023809 50.270833,3.023809 h 68.413689 c 9.4494,0 18.52083,1.13393 28.34821,-0.377976 9.82738,-1.511903 22.67857,-6.047618 41.57738,-6.047618 18.89881,0 26.08036,-0.755952 36.66369,0.755952 10.58333,1.511906 26.08037,4.157739 29.86013,4.91369 3.77976,0.755952 11.33927,0.755952 11.33927,0.755952"
       id="path1346"
       inkscape:connector-curvature="0"
       sodipodi:nodetypes="csssssssc" />
    <g
       id="g1289"
       transform="matrix(1.072635,0,0,1.072635,-6.6721825,-31.171072)">
      <path
         style="fill:#ffffff;stroke:#000000;stroke-width:0.30000001;stroke-linecap:butt;stroke-linejoin:miter;stroke-miterlimit:4;stroke-dasharray:none;stroke-opacity:1"
         d="m 104.73911,130.32911 c 6.91703,-32.069372 13.32948,-35.186442 13.32948,-35.186442 0,0 -4.28968,11.968672 -8.57039,37.185142"
         id="path902"
         inkscape:connector-curvature="0"
         sodipodi:nodetypes="ccc" />
      <path
         sodipodi:nodetypes="ccc"
         inkscape:connector-curvature="0"
         id="path856"
         d="M 45.508874,125.92595 C 52.257431,98.664458 63.48275,98.864908 63.48275,98.864908 c 0,0 -11.693042,-11.62622 -22.71791,26.793772"
         style="fill:#ffffff;stroke:#000000;stroke-width:0.30000001;stroke-linecap:butt;stroke-linejoin:miter;stroke-miterlimit:4;stroke-dasharray:none;stroke-opacity:1" />
      <path
         style="fill:#ffffff;stroke:#000000;stroke-width:0.30000001;stroke-linecap:butt;stroke-linejoin:miter;stroke-miterlimit:4;stroke-dasharray:none;stroke-opacity:1"
         d="m 140.27911,129.48143 c -1.24738,-21.58053 -16.4193,-34.930962 -16.4193,-34.930962 0,0 10.6745,15.116962 11.66021,36.551692"
         id="path906"
         inkscape:connector-curvature="0"
         sodipodi:nodetypes="ccc" />
      <path
         style="fill:#ffffff;stroke:#000000;stroke-width:0.30000001;stroke-linecap:butt;stroke-linejoin:miter;stroke-miterlimit:4;stroke-dasharray:none;stroke-opacity:1"
         d="m 115.92144,133.32907 c 1.26142,-32.44632 13.60468,-38.980512 13.60468,-38.980512 0,0 -8.87215,14.959662 -10.02236,39.303422"
         id="path910"
         inkscape:connector-curvature="0"
         sodipodi:nodetypes="ccc" />
      <g
         transform="rotate(-21.501851,-2.3382644,2.3501418)"
         id="g1014">
        <path
           style="fill:#ffffff;stroke:#000000;stroke-width:0.30000001;stroke-linecap:butt;stroke-linejoin:miter;stroke-miterlimit:4;stroke-dasharray:none;stroke-opacity:1"
           d="m 75.044593,145.16829 c 9.349682,2.62705 7.541857,28.55693 -7.015586,24.69641 -14.557447,-3.86051 -2.334094,-27.32348 7.015586,-24.69641 z"
           id="path994"
           inkscape:connector-curvature="0"
           sodipodi:nodetypes="zzz" />
        <path
           sodipodi:nodetypes="csc"
           inkscape:connector-curvature="0"
           id="path996"
           d="m 64.679226,151.00025 c 1.124193,-1.22339 5.82978,-0.74441 9.5466,0.86728 3.794193,1.64524 6.588943,4.45117 6.556389,5.88128"
           style="fill:none;stroke:#000000;stroke-width:0.26458332px;stroke-linecap:butt;stroke-linejoin:miter;stroke-opacity:1" />
        <path
           sodipodi:nodetypes="ccccc"
           inkscape:connector-curvature="0"
           id="path998"
           d="m 68.270659,147.22507 c 1.038059,1.49782 0.932171,2.16717 1.252824,3.10701 1.295489,-1.37689 2.770641,-2.24815 4.242904,-2.73951 1.053049,0.99134 2.126106,3.34961 2.321412,4.93974 1.073692,-0.96022 2.302752,-1.82518 3.641547,-2.16682"
           style="fill:none;stroke:#000000;stroke-width:0.26458332px;stroke-linecap:butt;stroke-linejoin:miter;stroke-opacity:1" />
        <path
           sodipodi:nodetypes="csc"
           style="fill:none;stroke:#000000;stroke-width:0.27764669px;stroke-linecap:butt;stroke-linejoin:miter;stroke-opacity:1"
           d="m 61.684816,157.971 c 0.888397,-1.81447 6.706686,-0.88943 10.812188,1.04287 4.320613,2.03354 6.902326,5.14673 6.369341,5.87353"
           id="path1004"
           inkscape:connector-curvature="0" />
        <ellipse
           transform="matrix(1,0,-0.23134501,0.97287177,0,0)"
           ry="2.3007989"
           rx="1.0523738"
           cy="163.96764"
           cx="116.66067"
           id="ellipse1006"
           style="opacity:1;fill:#ffffff;fill-opacity:1;stroke:#000000;stroke-width:0.30415395;stroke-linecap:round;stroke-miterlimit:4;stroke-dasharray:none;stroke-dashoffset:0;stroke-opacity:1" />
        <path
           sodipodi:nodetypes="ccccc"
           inkscape:connector-curvature="0"
           id="path1060"
           d="m 62.911067,157.12031 c 1.843545,-2.66536 4.007374,-4.77233 6.418366,-6.44841 0.743657,2.21605 1.129314,5.76585 0.858849,7.15208 0.830567,-1.16031 3.587692,-4.04339 5.779927,-4.98072 1.251622,3.34175 0.841186,6.25725 1.026576,9.17896"
           style="fill:none;stroke:#000000;stroke-width:0.26458335px;stroke-linecap:butt;stroke-linejoin:miter;stroke-opacity:1" />
        <path
           sodipodi:nodetypes="ccccc"
           inkscape:connector-curvature="0"
           id="path1062"
           d="m 76.716757,161.76588 c -0.229212,0.0372 -2.24717,-0.45259 -5.783964,2.95187 0.147902,-2.46033 -0.26608,-5.87843 -0.753916,-6.59386 -0.661686,0.26164 -3.594873,2.59084 -5.344703,4.99766 -0.474749,-2.74228 -2.427169,-5.70692 -2.511969,-5.80763"
           style="fill:none;stroke:#000000;stroke-width:0.26458335px;stroke-linecap:butt;stroke-linejoin:miter;stroke-opacity:1" />
      </g>
      <path
         sodipodi:nodetypes="ccc"
         inkscape:connector-curvature="0"
         id="path916"
         d="m 113.36095,116.55334 c 0,0 0.93544,-6.41447 -5.01131,-12.16076 1.93771,5.27857 2.57485,14.88766 2.57485,14.88766"
         style="fill:#ffffff;stroke:#000000;stroke-width:0.30000001;stroke-linecap:butt;stroke-linejoin:miter;stroke-miterlimit:4;stroke-dasharray:none;stroke-opacity:1" />
      <path
         style="fill:#ffffff;stroke:#000000;stroke-width:0.30000001;stroke-linecap:butt;stroke-linejoin:miter;stroke-miterlimit:4;stroke-dasharray:none;stroke-opacity:1"
         d="m 95.856395,105.73438 c 0,0 12.529305,-14.644612 21.224895,-1.68394 -10.96501,-4.792652 -17.901255,8.46667 -17.901255,8.46667"
         id="path914"
         inkscape:connector-curvature="0"
         sodipodi:nodetypes="ccc" />
      <path
         sodipodi:nodetypes="ccc"
         inkscape:connector-curvature="0"
         id="path900"
         d="m 102.14807,103.12724 c 0,0 4.06324,-16.441972 19.56027,-8.409972 -12.94568,-2.26786 -16.72545,11.717262 -16.72545,11.717262"
         style="fill:#ffffff;stroke:#000000;stroke-width:0.30000001;stroke-linecap:butt;stroke-linejoin:miter;stroke-miterlimit:4;stroke-dasharray:none;stroke-opacity:1" />
      <path
         sodipodi:nodetypes="ccc"
         inkscape:connector-curvature="0"
         id="path898"
         d="m 107.43973,115.22247 c 0,0 -8.315475,-32.789432 -17.197917,-23.056542 11.339297,0.0945 12.378727,22.584082 12.378727,22.584082"
         style="fill:#ffffff;stroke:#000000;stroke-width:0.30000001;stroke-linecap:butt;stroke-linejoin:miter;stroke-miterlimit:4;stroke-dasharray:none;stroke-opacity:1" />
      <path
         sodipodi:nodetypes="ccc"
         inkscape:connector-curvature="0"
         id="path894"
         d="M 113.39082,130.625 C 104.61156,89.921808 92.035165,85.362348 92.035165,85.362348 c 0,0 9.307905,12.78485 14.741075,44.790182"
         style="fill:#ffffff;stroke:#000000;stroke-width:0.30000001;stroke-linecap:butt;stroke-linejoin:miter;stroke-miterlimit:4;stroke-dasharray:none;stroke-opacity:1" />
      <path
         style="fill:#ffffff;stroke:#000000;stroke-width:0.30000001;stroke-linecap:butt;stroke-linejoin:miter;stroke-miterlimit:4;stroke-dasharray:none;stroke-opacity:1"
         d="m 80.79241,130.625 c 3.676587,-29.74188 20.12724,-34.868302 20.12724,-34.868302 0,0 -12.804189,14.485742 -16.914441,35.057292"
         id="path892"
         inkscape:connector-curvature="0"
         sodipodi:nodetypes="ccc" />
      <path
         sodipodi:nodetypes="ccc"
         inkscape:connector-curvature="0"
         id="path870"
         d="m 76.410931,109.60433 c 0,0 1.937704,-13.296652 13.296656,-16.570712 -6.481284,8.886722 -7.884448,17.238892 -7.884448,17.238892"
         style="fill:#ffffff;fill-opacity:1;stroke:#000000;stroke-width:0.30000001;stroke-linecap:butt;stroke-linejoin:miter;stroke-miterlimit:4;stroke-dasharray:none;stroke-opacity:1" />
      <path
         inkscape:connector-curvature="0"
         id="path872"
         d="m 70.798269,108.20117 c 0,0 5.011304,-12.294402 11.759859,-15.702092 -5.144936,9.287622 -6.882188,17.105262 -6.882188,17.105262"
         style="fill:#ffffff;fill-opacity:1;stroke:#000000;stroke-width:0.30000001;stroke-linecap:butt;stroke-linejoin:miter;stroke-miterlimit:4;stroke-dasharray:none;stroke-opacity:1" />
      <path
         inkscape:connector-curvature="0"
         id="path866"
         d="m 67.090771,112.57664 c 0,0 4.346729,-16.252982 -4.535712,-29.954612 12.851191,8.31548 10.299852,22.489582 10.299852,22.489582"
         style="fill:#ffffff;stroke:#000000;stroke-width:0.30000001;stroke-linecap:butt;stroke-linejoin:miter;stroke-miterlimit:4;stroke-dasharray:none;stroke-opacity:1" />
      <path
         inkscape:connector-curvature="0"
         id="path868"
         d="m 70.681546,104.26116 c 0,0 2.078871,-14.741062 9.921874,-20.788692 -2.740325,7.65402 -4.630206,14.93007 -4.630206,14.93007"
         style="fill:#ffffff;stroke:#000000;stroke-width:0.30000001;stroke-linecap:butt;stroke-linejoin:miter;stroke-miterlimit:4;stroke-dasharray:none;stroke-opacity:1" />
      <path
         inkscape:connector-curvature="0"
         id="path864"
         d="m 73.421875,113.89956 c 0,0 -2.456847,-15.969502 -16.630954,-28.442712 7.559525,11.62277 11.433781,26.930812 11.433781,26.930812"
         style="fill:#ffffff;stroke:#000000;stroke-width:0.30000001;stroke-linecap:butt;stroke-linejoin:miter;stroke-miterlimit:4;stroke-dasharray:none;stroke-opacity:1" />
      <g
         transform="rotate(-29.602336,0.60829126,125.22156)"
         id="g970">
        <path
           style="fill:#ffffff;stroke:#000000;stroke-width:0.30000001;stroke-linecap:butt;stroke-linejoin:miter;stroke-miterlimit:4;stroke-dasharray:none;stroke-opacity:1"
           d="m 75.044593,145.16829 c 9.349682,2.62705 7.541857,28.55693 -7.015586,24.69641 -14.557447,-3.86051 -2.334094,-27.32348 7.015586,-24.69641 z"
           id="path950"
           inkscape:connector-curvature="0"
           sodipodi:nodetypes="zzz" />
        <path
           sodipodi:nodetypes="csc"
           inkscape:connector-curvature="0"
           id="path952"
           d="m 64.679226,151.00025 c 1.124193,-1.22339 5.82978,-0.74441 9.5466,0.86728 3.794193,1.64524 6.588943,4.45117 6.556389,5.88128"
           style="fill:none;stroke:#000000;stroke-width:0.26458332px;stroke-linecap:butt;stroke-linejoin:miter;stroke-opacity:1" />
        <path
           sodipodi:nodetypes="ccccc"
           inkscape:connector-curvature="0"
           id="path954"
           d="m 68.270659,147.22507 c 1.038059,1.49782 0.932171,2.16717 1.252824,3.10701 1.295489,-1.37689 2.770641,-2.24815 4.242904,-2.73951 1.353433,1.38897 1.721817,3.21573 2.321412,4.93974 1.073692,-0.96022 2.302752,-1.82518 3.641547,-2.16682"
           style="fill:none;stroke:#000000;stroke-width:0.26458332px;stroke-linecap:butt;stroke-linejoin:miter;stroke-opacity:1" />
        <path
           sodipodi:nodetypes="cc"
           inkscape:connector-curvature="0"
           id="path956"
           d="m 75.436824,168.84049 c -0.811488,-3.8599 -12.20445,-6.99436 -13.931426,-4.77744"
           style="fill:none;stroke:#000000;stroke-width:0.26458332px;stroke-linecap:butt;stroke-linejoin:miter;stroke-opacity:1" />
        <path
           sodipodi:nodetypes="csc"
           style="fill:none;stroke:#000000;stroke-width:0.27764669px;stroke-linecap:butt;stroke-linejoin:miter;stroke-opacity:1"
           d="m 61.684816,157.971 c 0.888397,-1.81447 6.706686,-0.88943 10.812188,1.04287 4.320613,2.03354 6.902326,5.14673 6.369341,5.87353"
           id="path960"
           inkscape:connector-curvature="0" />
        <path
           sodipodi:nodetypes="cc"
           inkscape:connector-curvature="0"
           id="path1016"
           d="m 77.953877,162.9602 1.955687,-7.07322"
           style="fill:none;stroke:#000000;stroke-width:0.26458332px;stroke-linecap:butt;stroke-linejoin:miter;stroke-opacity:1" />
        <path
           inkscape:connector-curvature="0"
           id="path1018"
           d="m 77.989862,154.1047 -2.229139,6.76417"
           style="fill:none;stroke:#000000;stroke-width:0.26458332px;stroke-linecap:butt;stroke-linejoin:miter;stroke-opacity:1" />
        <path
           style="fill:none;stroke:#000000;stroke-width:0.26458332px;stroke-linecap:butt;stroke-linejoin:miter;stroke-opacity:1"
           d="m 75.851794,152.68935 -2.701045,6.58995"
           id="path1020"
           inkscape:connector-curvature="0" />
        <path
           inkscape:connector-curvature="0"
           id="path1022"
           d="M 73.101489,151.51105 70.400444,158.101"
           style="fill:none;stroke:#000000;stroke-width:0.26458332px;stroke-linecap:butt;stroke-linejoin:miter;stroke-opacity:1" />
        <path
           sodipodi:nodetypes="cc"
           style="fill:none;stroke:#000000;stroke-width:0.26458332px;stroke-linecap:butt;stroke-linejoin:miter;stroke-opacity:1"
           d="m 70.322806,150.5856 -2.95265,6.74587"
           id="path1024"
           inkscape:connector-curvature="0" />
        <path
           sodipodi:nodetypes="cc"
           inkscape:connector-curvature="0"
           id="path1026"
           d="m 68.106413,150.41562 -3.2229,6.58813"
           style="fill:none;stroke:#000000;stroke-width:0.26458332px;stroke-linecap:butt;stroke-linejoin:miter;stroke-opacity:1" />
        <path
           sodipodi:nodetypes="ccc"
           inkscape:connector-curvature="0"
           id="path1028"
           d="m 72.292063,148.27397 c -0.01382,1.10645 0.798212,1.87518 0.798212,1.87518 0,0 1.12261,-0.1499 1.675465,-1.12301"
           style="fill:none;stroke:#000000;stroke-width:0.26458332px;stroke-linecap:butt;stroke-linejoin:miter;stroke-opacity:1" />
        <path
           sodipodi:nodetypes="ccc"
           inkscape:connector-curvature="0"
           id="path1030"
           d="m 78.828809,150.70051 c 0.28427,1.83295 0.58367,2.25281 0.58367,2.25281 0,0 0.643655,-0.28756 0.893183,-0.76055"
           style="fill:none;stroke:#000000;stroke-width:0.26458332px;stroke-linecap:butt;stroke-linejoin:miter;stroke-opacity:1" />
        <path
           sodipodi:nodetypes="cccccc"
           inkscape:connector-curvature="0"
           id="path1032"
           d="m 62.346632,157.35925 1.6678,5.78895 5.094326,-5.21321 1.548014,6.77756 5.432735,-3.27265 -0.695562,6.90539"
           style="fill:none;stroke:#000000;stroke-width:0.26458332px;stroke-linecap:butt;stroke-linejoin:miter;stroke-opacity:1" />
      </g>
      <path
         inkscape:connector-curvature="0"
         id="path862"
         d="m 64.161458,127.88468 c 0,0 -2.078871,-20.41072 13.985118,-33.261912 -10.677826,21.733642 -7.654017,32.316972 -7.654017,32.316972"
         style="fill:#ffffff;stroke:#000000;stroke-width:0.30000001;stroke-linecap:butt;stroke-linejoin:miter;stroke-miterlimit:4;stroke-dasharray:none;stroke-opacity:1" />
      <path
         sodipodi:nodetypes="cc"
         inkscape:connector-curvature="0"
         id="path842"
         d="m 34.868303,119.5692 c 0,0 5.575149,-13.22916 -7.654018,-30.238092 6.331102,14.174102 6.142114,28.253722 6.142114,28.253722"
         style="fill:#ffffff;stroke:#000000;stroke-width:0.30000001;stroke-linecap:butt;stroke-linejoin:miter;stroke-miterlimit:4;stroke-dasharray:none;stroke-opacity:1" />
      <g
         transform="matrix(0.91133036,-0.29538211,0.29538211,0.91133036,-78.146907,-6.3754799)"
         id="g1058">
        <path
           style="fill:#ffffff;stroke:#000000;stroke-width:0.30000001;stroke-linecap:butt;stroke-linejoin:miter;stroke-miterlimit:4;stroke-dasharray:none;stroke-opacity:1"
           d="m 75.044593,145.16829 c 9.349682,2.62705 7.541857,28.55693 -7.015586,24.69641 -14.557447,-3.86051 -2.334094,-27.32348 7.015586,-24.69641 z"
           id="path1038"
           inkscape:connector-curvature="0"
           sodipodi:nodetypes="zzz" />
        <path
           sodipodi:nodetypes="csc"
           inkscape:connector-curvature="0"
           id="path1040"
           d="m 64.679226,151.00025 c 1.124193,-1.22339 5.82978,-0.74441 9.5466,0.86728 3.794193,1.64524 6.588943,4.45117 6.556389,5.88128"
           style="fill:none;stroke:#000000;stroke-width:0.26458332px;stroke-linecap:butt;stroke-linejoin:miter;stroke-opacity:1" />
        <path
           sodipodi:nodetypes="ccccc"
           inkscape:connector-curvature="0"
           id="path1042"
           d="m 68.270659,147.22507 c 1.038059,1.49782 0.932171,2.16717 1.252824,3.10701 1.295489,-1.37689 2.770641,-2.24815 4.242904,-2.73951 1.353433,1.38897 1.721817,3.21573 2.321412,4.93974 1.073692,-0.96022 2.302752,-1.82518 3.641547,-2.16682"
           style="fill:none;stroke:#000000;stroke-width:0.26458332px;stroke-linecap:butt;stroke-linejoin:miter;stroke-opacity:1" />
        <path
           sodipodi:nodetypes="cc"
           inkscape:connector-curvature="0"
           id="path1044"
           d="m 75.436824,168.84049 c -0.811488,-3.8599 -12.20445,-6.99436 -13.931426,-4.77744"
           style="fill:none;stroke:#000000;stroke-width:0.26458332px;stroke-linecap:butt;stroke-linejoin:miter;stroke-opacity:1" />
        <ellipse
           transform="matrix(1,0,-0.23134501,0.97287177,0,0)"
           ry="2.3007989"
           rx="1.0523738"
           cy="158.06113"
           cx="101.89733"
           id="ellipse1046"
           style="opacity:1;fill:#ffffff;fill-opacity:1;stroke:#000000;stroke-width:0.30415395;stroke-linecap:round;stroke-miterlimit:4;stroke-dasharray:none;stroke-dashoffset:0;stroke-opacity:1" />
        <path
           sodipodi:nodetypes="csc"
           style="fill:none;stroke:#000000;stroke-width:0.27764669px;stroke-linecap:butt;stroke-linejoin:miter;stroke-opacity:1"
           d="m 61.684816,157.971 c 0.888397,-1.81447 6.706686,-0.88943 10.812188,1.04287 4.320613,2.03354 6.902326,5.14673 6.369341,5.87353"
           id="path1048"
           inkscape:connector-curvature="0" />
      </g>
      <path
         sodipodi:nodetypes="ccc"
         inkscape:connector-curvature="0"
         id="path838"
         d="m 21.032751,131.86877 c 5.879931,-36.348662 -9.607419,-44.950592 -9.607419,-44.950592 0,0 21.768182,9.93828 18.02641,42.678802"
         style="fill:#ffffff;stroke:#000000;stroke-width:0.30000001;stroke-linecap:butt;stroke-linejoin:miter;stroke-miterlimit:4;stroke-dasharray:none;stroke-opacity:1" />
      <path
         sodipodi:nodetypes="ccc"
         inkscape:connector-curvature="0"
         id="path844"
         d="m 36.829749,133.37876 c 3.676587,-29.74188 20.260867,-41.149142 20.260867,-41.149142 0,0 -15.111179,17.364792 -17.048068,41.338132"
         style="fill:#ffffff;stroke:#000000;stroke-width:0.30000001;stroke-linecap:butt;stroke-linejoin:miter;stroke-miterlimit:4;stroke-dasharray:none;stroke-opacity:1" />
      <g
         transform="translate(-9.8503091,-42.130914)"
         id="g948">
        <path
           sodipodi:nodetypes="zzz"
           inkscape:connector-curvature="0"
           id="path858"
           d="m 75.044593,145.16829 c 9.349682,2.62705 7.541857,28.55693 -7.015586,24.69641 -14.557447,-3.86051 -2.334094,-27.32348 7.015586,-24.69641 z"
           style="fill:#ffffff;stroke:#000000;stroke-width:0.30000001;stroke-linecap:butt;stroke-linejoin:miter;stroke-miterlimit:4;stroke-dasharray:none;stroke-opacity:1" />
        <path
           style="fill:none;stroke:#000000;stroke-width:0.26458332px;stroke-linecap:butt;stroke-linejoin:miter;stroke-opacity:1"
           d="m 64.679226,151.00025 c 1.124193,-1.22339 5.82978,-0.74441 9.5466,0.86728 3.794193,1.64524 6.588943,4.45117 6.556389,5.88128"
           id="path918"
           inkscape:connector-curvature="0"
           sodipodi:nodetypes="csc" />
        <path
           style="fill:none;stroke:#000000;stroke-width:0.26458332px;stroke-linecap:butt;stroke-linejoin:miter;stroke-opacity:1"
           d="m 68.270659,147.22507 c 1.038059,1.49782 0.932171,2.16717 1.252824,3.10701 1.295489,-1.37689 2.770641,-2.24815 4.242904,-2.73951 1.353433,1.38897 1.721817,3.21573 2.321412,4.93974 1.073692,-0.96022 2.302752,-1.82518 3.641547,-2.16682"
           id="path932"
           inkscape:connector-curvature="0"
           sodipodi:nodetypes="ccccc" />
        <path
           style="fill:none;stroke:#000000;stroke-width:0.26458332px;stroke-linecap:butt;stroke-linejoin:miter;stroke-opacity:1"
           d="m 75.436824,168.84049 c -0.811488,-3.8599 -12.20445,-6.99436 -13.931426,-4.77744"
           id="path934"
           inkscape:connector-curvature="0"
           sodipodi:nodetypes="cc" />
        <ellipse
           style="opacity:1;fill:#ffffff;fill-opacity:1;stroke:#000000;stroke-width:0.30415395;stroke-linecap:round;stroke-miterlimit:4;stroke-dasharray:none;stroke-dashoffset:0;stroke-opacity:1"
           id="ellipse930"
           cx="101.89733"
           cy="158.06113"
           rx="1.0523738"
           ry="2.3007989"
           transform="matrix(1,0,-0.23134501,0.97287177,0,0)" />
        <path
           inkscape:connector-curvature="0"
           id="path920"
           d="m 61.684816,157.971 c 0.888397,-1.81447 6.706686,-0.88943 10.812188,1.04287 4.320613,2.03354 6.902326,5.14673 6.369341,5.87353"
           style="fill:none;stroke:#000000;stroke-width:0.27764669px;stroke-linecap:butt;stroke-linejoin:miter;stroke-opacity:1"
           sodipodi:nodetypes="csc" />
        <ellipse
           style="opacity:1;fill:#ffffff;fill-opacity:1;stroke:#000000;stroke-width:0.30415395;stroke-linecap:round;stroke-miterlimit:4;stroke-dasharray:none;stroke-dashoffset:0;stroke-opacity:1"
           id="path922"
           cx="116.66067"
           cy="163.96764"
           rx="1.0523738"
           ry="2.3007989"
           transform="matrix(1,0,-0.23134501,0.97287177,0,0)" />
        <ellipse
           transform="matrix(1,0,-0.23134501,0.97287177,0,0)"
           ry="2.3007989"
           rx="1.0523738"
           cy="161.39212"
           cx="113.29191"
           id="ellipse924"
           style="opacity:1;fill:#ffffff;fill-opacity:1;stroke:#000000;stroke-width:0.30415395;stroke-linecap:round;stroke-miterlimit:4;stroke-dasharray:none;stroke-dashoffset:0;stroke-opacity:1" />
        <ellipse
           style="opacity:1;fill:#ffffff;fill-opacity:1;stroke:#000000;stroke-width:0.30415395;stroke-linecap:round;stroke-miterlimit:4;stroke-dasharray:none;stroke-dashoffset:0;stroke-opacity:1"
           id="ellipse926"
           cx="109.47274"
           cy="159.46907"
           rx="1.0523738"
           ry="2.3007989"
           transform="matrix(1,0,-0.23134501,0.97287177,0,0)" />
        <ellipse
           transform="matrix(1,0,-0.23134501,0.97287177,0,0)"
           ry="2.3007989"
           rx="1.0523738"
           cy="158.40453"
           cx="105.38446"
           id="ellipse928"
           style="opacity:1;fill:#ffffff;fill-opacity:1;stroke:#000000;stroke-width:0.30415395;stroke-linecap:round;stroke-miterlimit:4;stroke-dasharray:none;stroke-dashoffset:0;stroke-opacity:1" />
      </g>
      <path
         sodipodi:nodetypes="ccc"
         inkscape:connector-curvature="0"
         id="path846"
         d="M 48.241671,128.42669 C 50.713916,110.05192 32.562515,91.369908 32.562515,91.369908 c 0,0 22.294077,17.145202 21.291817,36.522242"
         style="fill:#ffffff;stroke:#000000;stroke-width:0.30000001;stroke-linecap:butt;stroke-linejoin:miter;stroke-miterlimit:4;stroke-dasharray:none;stroke-opacity:1" />
      <path
         sodipodi:nodetypes="ccc"
         inkscape:connector-curvature="0"
         id="path854"
         d="m 56.381927,130.07894 c 0.26727,-26.45968 -21.865496,-42.791612 -21.865496,-42.791612 0,0 24.069878,7.240951 25.941358,43.459792"
         style="fill:#ffffff;stroke:#000000;stroke-width:0.30000001;stroke-linecap:butt;stroke-linejoin:miter;stroke-miterlimit:4;stroke-dasharray:none;stroke-opacity:1" />
      <path
         sodipodi:nodetypes="ccc"
         inkscape:connector-curvature="0"
         id="path896"
         d="m 102.62054,131.09747 c 0,0 -3.779765,-29.19866 0.37798,-39.120532 2.92931,26.269342 5.76413,35.529762 5.95312,38.270092"
         style="fill:#ffffff;stroke:#000000;stroke-width:0.30000001;stroke-linecap:butt;stroke-linejoin:miter;stroke-miterlimit:4;stroke-dasharray:none;stroke-opacity:1" />
      <g
         id="g992"
         transform="rotate(-6.9399657,-239.94536,-71.456645)">
        <path
           sodipodi:nodetypes="zzz"
           inkscape:connector-curvature="0"
           id="path972"
           d="m 75.044593,145.16829 c 9.349682,2.62705 7.541857,28.55693 -7.015586,24.69641 -14.557447,-3.86051 -2.334094,-27.32348 7.015586,-24.69641 z"
           style="fill:#ffffff;stroke:#000000;stroke-width:0.30000001;stroke-linecap:butt;stroke-linejoin:miter;stroke-miterlimit:4;stroke-dasharray:none;stroke-opacity:1" />
        <path
           style="fill:none;stroke:#000000;stroke-width:0.26458332px;stroke-linecap:butt;stroke-linejoin:miter;stroke-opacity:1"
           d="m 64.679226,151.00025 c 1.124193,-1.22339 5.82978,-0.74441 9.5466,0.86728 3.794193,1.64524 6.588943,4.45117 6.556389,5.88128"
           id="path974"
           inkscape:connector-curvature="0"
           sodipodi:nodetypes="csc" />
        <path
           style="fill:none;stroke:#000000;stroke-width:0.26458332px;stroke-linecap:butt;stroke-linejoin:miter;stroke-opacity:1"
           d="m 75.436824,168.84049 c -0.811488,-3.8599 -12.20445,-6.99436 -13.931426,-4.77744"
           id="path978"
           inkscape:connector-curvature="0"
           sodipodi:nodetypes="cc" />
        <path
           inkscape:connector-curvature="0"
           id="path982"
           d="m 61.684816,157.971 c 0.888397,-1.81447 6.706686,-0.88943 10.812188,1.04287 4.320613,2.03354 6.902326,5.14673 6.369341,5.87353"
           style="fill:none;stroke:#000000;stroke-width:0.27764669px;stroke-linecap:butt;stroke-linejoin:miter;stroke-opacity:1"
           sodipodi:nodetypes="csc" />
        <ellipse
           style="opacity:1;fill:#ffffff;fill-opacity:1;stroke:#000000;stroke-width:0.30415395;stroke-linecap:round;stroke-miterlimit:4;stroke-dasharray:none;stroke-dashoffset:0;stroke-opacity:1"
           id="ellipse988"
           cx="109.47274"
           cy="159.46907"
           rx="1.0523738"
           ry="2.3007989"
           transform="matrix(1,0,-0.23134501,0.97287177,0,0)" />
        <path
           sodipodi:nodetypes="cc"
           inkscape:connector-curvature="0"
           id="path1034"
           d="m 80.303465,151.87375 c -2.170443,-4.8413 -9.242744,-7.01471 -12.726627,-4.1069"
           style="fill:none;stroke:#000000;stroke-width:0.26458332px;stroke-linecap:butt;stroke-linejoin:miter;stroke-opacity:1" />
      </g>
      <path
         sodipodi:nodetypes="ccc"
         inkscape:connector-curvature="0"
         id="path874"
         d="m 102.60335,132.78997 c 0,0 0.53454,-27.19467 -17.305708,-36.549112 11.960313,15.969352 11.826673,36.682742 11.826673,36.682742"
         style="fill:#ffffff;stroke:#000000;stroke-width:0.30000001;stroke-linecap:butt;stroke-linejoin:miter;stroke-miterlimit:4;stroke-dasharray:none;stroke-opacity:1" />
      <path
         sodipodi:nodetypes="ccc"
         inkscape:connector-curvature="0"
         id="path904"
         d="m 126.76933,134.58412 c -2.81586,-27.15568 19.66059,-38.118532 19.66059,-38.118532 0,0 -15.25099,13.766842 -14.99599,37.943872"
         style="fill:#ffffff;stroke:#000000;stroke-width:0.30000001;stroke-linecap:butt;stroke-linejoin:miter;stroke-miterlimit:4;stroke-dasharray:none;stroke-opacity:1" />
      <path
         sodipodi:nodetypes="ccc"
         inkscape:connector-curvature="0"
         id="path908"
         d="m 109.27482,130.42638 c 0.9639,-24.79333 12.29005,-28.29115 12.29005,-28.29115 0,0 -6.27406,9.98707 -7.15298,28.58896"
         style="fill:#ffffff;stroke:#000000;stroke-width:0.30000001;stroke-linecap:butt;stroke-linejoin:miter;stroke-miterlimit:4;stroke-dasharray:none;stroke-opacity:1" />
      <path
         inkscape:connector-curvature="0"
         id="path890"
         d="m 123.00344,138.38858 c 0,0 -0.66146,-2.45685 0.66146,-6.61458 1.32291,-4.15774 1.41741,-11.52828 1.41741,-11.52828 0,0 0.75595,-1.70089 -3.87426,6.89807 -3.40178,6.70908 -4.8192,10.20536 -4.8192,10.20536"
         style="fill:#ffffff;stroke:#000000;stroke-width:0.30000001;stroke-linecap:butt;stroke-linejoin:miter;stroke-miterlimit:4;stroke-dasharray:none;stroke-opacity:1" />
      <path
         inkscape:connector-curvature="0"
         id="path850"
         d="m 65.252428,133.35791 c 2.138156,-6.61492 6.381059,-8.92012 6.381059,-8.92012 0,0 -4.142679,8.58603 -2.806329,11.32554"
         style="fill:#ffffff;stroke:#000000;stroke-width:0.30000001;stroke-linecap:butt;stroke-linejoin:miter;stroke-miterlimit:4;stroke-dasharray:none;stroke-opacity:1" />
      <path
         inkscape:connector-curvature="0"
         id="path852"
         d="m 77.012646,135.21075 c -2.50409,-8.07925 -6.000371,-9.44941 -6.000371,-9.44941 0,0 4.346726,6.85082 3.685267,9.78013"
         style="fill:#ffffff;stroke:#000000;stroke-width:0.30000001;stroke-linecap:butt;stroke-linejoin:miter;stroke-miterlimit:4;stroke-dasharray:none;stroke-opacity:1" />
      <path
         inkscape:connector-curvature="0"
         id="path848"
         d="m 60.775662,135.86356 c -5.211754,-15.43481 -7.750815,-17.03843 -7.750815,-17.03843 0,0 12.828937,10.69078 13.831197,17.90706"
         style="fill:#ffffff;stroke:#000000;stroke-width:0.30000001;stroke-linecap:butt;stroke-linejoin:miter;stroke-miterlimit:4;stroke-dasharray:none;stroke-opacity:1" />
      <path
         inkscape:connector-curvature="0"
         id="path876"
         d="m 82.02359,135.93038 c -0.133636,-9.35443 3.875408,-10.08942 3.875408,-10.08942 0,0 -3.608139,6.08038 -1.80407,10.22306"
         style="fill:#ffffff;stroke:#000000;stroke-width:0.30000001;stroke-linecap:butt;stroke-linejoin:miter;stroke-miterlimit:4;stroke-dasharray:none;stroke-opacity:1" />
      <path
         inkscape:connector-curvature="0"
         id="path878"
         d="m 87.034894,138.93716 c -0.868627,-6.949 1.135896,-13.36347 0.400905,-15.03391 -1.804069,2.87315 -2.739513,10.69078 -2.739513,10.69078"
         style="fill:#ffffff;stroke:#000000;stroke-width:0.30000001;stroke-linecap:butt;stroke-linejoin:miter;stroke-miterlimit:4;stroke-dasharray:none;stroke-opacity:1" />
      <path
         inkscape:connector-curvature="0"
         id="path880"
         d="m 76.210477,133.52496 c 1.670434,-5.54584 5.345391,-7.14946 5.345391,-7.14946 0,0 -3.340868,5.81311 -3.073599,8.35217"
         style="fill:#ffffff;stroke:#000000;stroke-width:0.30000001;stroke-linecap:butt;stroke-linejoin:miter;stroke-miterlimit:4;stroke-dasharray:none;stroke-opacity:1" />
      <path
         inkscape:connector-curvature="0"
         id="path884"
         d="m 96.155795,136.6189 c 0,0 2.17336,-2.74033 -6.331097,-11.81175 3.307287,7.843 2.078867,12.5677 2.078867,12.5677"
         style="fill:#ffffff;stroke:#000000;stroke-width:0.30000001;stroke-linecap:butt;stroke-linejoin:miter;stroke-miterlimit:4;stroke-dasharray:none;stroke-opacity:1" />
      <path
         inkscape:connector-curvature="0"
         id="path886"
         d="m 101.03822,135.58896 c 0,0 1.79539,-6.80358 6.61458,-10.67783 -4.06324,7.46503 -2.26785,9.26042 -4.63021,12.09524"
         style="fill:#ffffff;stroke:#000000;stroke-width:0.30000001;stroke-linecap:butt;stroke-linejoin:miter;stroke-miterlimit:4;stroke-dasharray:none;stroke-opacity:1" />
      <path
         inkscape:connector-curvature="0"
         id="path888"
         d="m 108.29805,136.60547 c -0.37798,-3.2128 1.79539,-6.4256 5.19717,-13.13467 1.03944,4.25223 -3.2128,10.58333 -2.17336,15.68601"
         style="fill:#ffffff;stroke:#000000;stroke-width:0.30000001;stroke-linecap:butt;stroke-linejoin:miter;stroke-miterlimit:4;stroke-dasharray:none;stroke-opacity:1" />
    </g>
    <g
       id="g1344"
       transform="matrix(1.4443592,0,0,1.4443592,-103.13375,48.360465)">
      <path
         style="fill:#ffffff;stroke:#000000;stroke-width:0.26458332px;stroke-linecap:butt;stroke-linejoin:miter;stroke-opacity:1"
         d="m 144.4381,78.584726 c -1.08668,-3.118305 -0.8032,-3.96875 -0.8032,-3.96875 -0.5283,0.838278 -1.03489,1.687412 -1.03943,2.787573 -0.40871,-1.151597 -0.68201,-2.333285 -1.46466,-3.401785 -0.24324,1.196925 0.0663,2.393849 0.18899,3.590774 -0.71044,-1.50726 -1.39395,-3.045942 -2.36236,-4.252232 0.0501,1.804069 -0.89769,4.535715 -0.89769,4.535715 0,0 -0.51063,-2.826634 -0.94494,-4.346729 -0.15034,2.021226 -1.74814,4.15774 -1.74814,4.15774"
         id="path1350"
         inkscape:connector-curvature="0"
         sodipodi:nodetypes="ccccccccc" />
      <path
         inkscape:connector-curvature="0"
         id="path1168"
         d="m 197.96503,63.250748 c -0.18899,0.47247 0.28348,1.41741 0.28348,2.362351 0,0.944941 -0.37798,2.83482 -0.37798,3.685268 0,0.850447 -0.28348,1.228423 -0.47247,2.456844 -0.18899,1.228423 -0.37797,1.228423 -0.28348,2.362353 0.0945,1.133928 0.56697,1.133928 0.37798,1.795386 -0.18899,0.661458 -0.0945,-0.188989 -0.18899,0.944941 -0.0945,1.133927 -0.0945,2.456844 -0.0945,3.307291 0,0.850445 0,0.188987 0,1.41741 0,1.228424 -0.66145,3.401785 -0.37797,4.252233 0.28348,0.850447 0.47247,1.039434 0.47247,2.267857 0,1.228424 0.18899,1.511904 0.18899,2.83482 0,1.322917 0.28348,1.795389 0.18899,3.307292 -0.0945,1.511906 -0.94494,0.755954 -0.18899,2.456847 0.75595,1.700892 1.41741,2.36235 1.22842,2.929315 -0.18899,0.566964 -0.18899,1.889884 -0.18899,2.929314 0,1.03944 -0.66146,1.88988 -0.66146,1.88988"
         style="fill:none;stroke:#000000;stroke-width:0.26458332px;stroke-linecap:butt;stroke-linejoin:miter;stroke-opacity:1" />
      <g
         transform="matrix(-0.86697283,0,0,0.86697283,419.75075,17.654233)"
         id="g1202">
        <path
           inkscape:connector-curvature="0"
           id="path1170"
           d="m 204.28385,45.318415 c -0.37798,2.267857 -0.0472,4.157739 0.0472,5.197173 0.0945,1.039434 0.33072,1.228424 0.33072,2.173364 0,0.944941 2.40961,3.638021 3.40179,3.590775 0.99219,-0.04725 1.41741,0.188986 1.74814,0.614209 0.33073,0.425225 1.08668,1.322916 0.42522,1.27567 -0.66145,-0.04725 -2.59858,-0.803199 -3.49627,-1.181174 -0.8977,-0.377976 -1.98438,-1.653646 -2.26786,-1.46466 -0.28348,0.18899 -0.33073,1.086684 0,1.984375 0.33073,0.897694 0.61421,1.228424 0.42522,1.653646 -0.18899,0.425225 -0.66146,0.614212 -0.94494,0.755954 -0.28348,0.14174 -0.99219,-1.27567 -0.85044,-2.173364 0.14173,-0.897694 0.14173,-2.220611 -0.66146,-2.126115 -0.8032,0.09449 -1.79539,2.456844 -2.69309,2.645834 -0.89769,0.188986 -1.55915,-0.283483 -1.46465,-0.803201 0.0945,-0.519716 0.75595,-1.181174 1.70089,-1.653646 0.94494,-0.472469 1.37016,-1.039434 1.84264,-1.795386 0.47246,-0.755954 0.89769,-1.937128 0.89769,-3.354538 0,-1.417413 0.0472,-5.386163 0.0472,-5.386163"
           style="fill:#ffffff;stroke:#000000;stroke-width:0.26458332px;stroke-linecap:butt;stroke-linejoin:miter;stroke-opacity:1" />
        <path
           inkscape:connector-curvature="0"
           id="path1172"
           d="m 199.68876,40.125465 c -0.21361,3.631375 -0.21361,6.248101 1.49528,6.194698 1.70888,-0.0534 1.65547,-6.301503 1.65547,-6.301503"
           style="fill:#ffffff;stroke:#000000;stroke-width:0.26499999;stroke-linecap:butt;stroke-linejoin:miter;stroke-miterlimit:4;stroke-dasharray:none;stroke-opacity:1" />
        <path
           sodipodi:nodetypes="ccscccsc"
           inkscape:connector-curvature="0"
           id="path1174"
           d="m 217.85165,20.451278 c 0.85322,-3.594153 5.6331,-3.853163 5.08304,-9.738113 -0.55007,-5.8849489 -7.66698,-10.10522342 -14.01974,-7.8462697 -9.46432,3.3653817 1.38698,12.1128207 -0.80053,13.9312947 -2.18749,1.818472 -13.72773,5.700312 -17.73305,11.385173 -4.00531,5.684861 -17.93914,8.548069 -17.93914,8.548069 1.06908,7.617182 33.21589,17.448368 39.45373,7.078854 6.23785,-10.369516 6.09415,-21.613798 5.95569,-23.359008 z"
           style="fill:#ffffff;stroke:#000000;stroke-width:0.26458332px;stroke-linecap:butt;stroke-linejoin:miter;stroke-opacity:1" />
        <path
           sodipodi:nodetypes="cscc"
           inkscape:connector-curvature="0"
           id="path1176"
           d="m 215.78163,11.936011 c 0.132,0.175753 0.53197,0.235881 0.65738,0.392534 1.96824,2.458587 3.22385,2.508193 6.85358,-1.629592 -4.00984,2.569115 -6.76939,1.589287 -6.76939,1.589287"
           style="fill:#ffffff;stroke:#000000;stroke-width:0.26458332px;stroke-linecap:butt;stroke-linejoin:miter;stroke-opacity:1" />
        <circle
           r="0.25056517"
           cy="9.3975153"
           cx="214.85129"
           id="circle1180"
           style="opacity:1;fill:#000000;fill-opacity:1;stroke:none;stroke-width:0.50000006;stroke-linecap:round;stroke-miterlimit:4;stroke-dasharray:none;stroke-dashoffset:0;stroke-opacity:1" />
        <circle
           style="opacity:1;fill:#000000;fill-opacity:1;stroke:none;stroke-width:0.50000006;stroke-linecap:round;stroke-miterlimit:4;stroke-dasharray:none;stroke-dashoffset:0;stroke-opacity:1"
           id="circle1182"
           cx="219.51851"
           cy="8.5781031"
           r="0.25056517" />
        <path
           inkscape:connector-curvature="0"
           id="path1184"
           d="m 214.30005,7.0087976 c -2.05463,-0.734991 -2.20497,1.1525997 -2.20497,1.1525997"
           style="fill:none;stroke:#000000;stroke-width:0.26458332px;stroke-linecap:butt;stroke-linejoin:miter;stroke-opacity:1" />
        <path
           inkscape:connector-curvature="0"
           id="path1186"
           d="m 218.17218,6.5803015 c 1.26953,-0.567948 1.65373,0.6514687 1.65373,0.6514687"
           style="fill:none;stroke:#000000;stroke-width:0.26458332px;stroke-linecap:butt;stroke-linejoin:miter;stroke-opacity:1" />
        <path
           sodipodi:nodetypes="ccccccc"
           inkscape:connector-curvature="0"
           id="path1188"
           d="m 209.52431,3.7538545 c 1.35286,-2.6517812 3.69537,-3.02919533 3.69537,-3.02919533 l -1.75546,2.50699943 c 1.09385,-1.1377683 2.25496,-2.0788407 3.57221,-2.56337473 -0.67928,0.79097943 -1.40329,1.52756313 -1.75381,2.71828523 0.5489,-0.9810789 1.24377,-1.635439 2.0765,-1.9812388 -0.53415,0.6854863 -0.77451,1.6297436 -0.93029,2.6484998"
           style="fill:#ffffff;stroke:#000000;stroke-width:0.26458332px;stroke-linecap:butt;stroke-linejoin:miter;stroke-opacity:1" />
        <path
           sodipodi:nodetypes="ccccccccsc"
           inkscape:connector-curvature="0"
           id="path1192"
           d="m 201.25701,30.623281 c -5.75215,0.323498 -16.43827,10.726988 -16.43827,10.726988 0.75326,-3.496776 5.1385,-7.206165 7.85156,-10.702941 -3.82721,3.298411 -8.76639,7.297827 -10.91636,11.55466 l 3.61902,-7.258777 c -1.86544,2.468257 -6.5218,4.44718 -7.31633,7.419391 -0.18301,-2.44997 4.55441,-5.25626 5.1256,-7.70623 -1.85818,1.770626 -6.14278,5.276033 -7.54307,7.847971 0,0 4.76345,-14.378092 15.8656,-19.837927 10.00361,-4.91959 13.76496,-3.915363 13.76496,-3.915363"
           style="fill:#ffffff;stroke:#000000;stroke-width:0.26458332px;stroke-linecap:butt;stroke-linejoin:miter;stroke-opacity:1" />
        <path
           sodipodi:nodetypes="ccscccccccccccsccsc"
           style="fill:#ffffff;stroke:#000000;stroke-width:0.26458332px;stroke-linecap:butt;stroke-linejoin:miter;stroke-opacity:1"
           d="m 196.85429,48.57846 c -0.37798,2.267857 -0.0472,4.157739 0.0472,5.197173 0.0945,1.039434 0.33072,1.228424 0.33072,2.173364 0,0.944941 2.40961,3.638021 3.40179,3.590775 0.99219,-0.04725 2.08558,0.389438 2.41631,0.814661 0.33073,0.425225 1.28714,1.389734 0.62568,1.342488 -0.66145,-0.04725 -3.46721,-1.070469 -4.3649,-1.448444 -0.8977,-0.377976 -1.98438,-1.653646 -2.26786,-1.46466 -0.28348,0.18899 -0.33073,1.086684 0,1.984375 0.33073,0.897694 0.61421,1.228424 0.42522,1.653646 -0.18899,0.425225 -0.66146,0.614212 -0.94494,0.755954 -0.28348,0.14174 -0.99219,-1.27567 -0.85044,-2.173364 0.14173,-0.897694 0.14173,-2.220611 -0.66146,-2.126115 -0.8032,0.09449 -0.82654,2.82434 -1.72424,3.01333 -0.89769,0.188986 -1.25847,-0.04962 -1.16397,-0.569341 0.0945,-0.519716 0.188,-1.715713 1.13294,-2.188185 0.57745,-0.672921 0.66858,-1.106251 1.14106,-1.862203 0.47246,-0.755954 0.89769,-1.937128 0.89769,-3.354538 0,-1.417413 0.0472,-5.386163 0.0472,-5.386163"
           id="path1194"
           inkscape:connector-curvature="0" />
        <path
           style="fill:#ffffff;stroke:#000000;stroke-width:0.26499999;stroke-linecap:butt;stroke-linejoin:miter;stroke-miterlimit:4;stroke-dasharray:none;stroke-opacity:1"
           d="m 197.36979,43.534316 c 0.21361,3.631375 0.21361,6.248101 -1.49528,6.194699 -1.70887,-0.05341 -1.65547,-6.301504 -1.65547,-6.301504"
           id="path1196"
           inkscape:connector-curvature="0" />
        <path
           sodipodi:nodetypes="ccccccccccccc"
           inkscape:connector-curvature="0"
           id="path1198"
           d="m 208.64313,16.191728 c -1.60362,3.875408 -3.51909,5.267805 -3.51909,5.267805 1.22499,-1.021903 2.34885,-2.397796 3.68642,-3.025657 0.0255,0.904273 -0.1961,1.561375 -0.34555,2.290665 0.57988,-0.522423 1.16786,-1.015139 1.93295,-0.858433 0.22297,0.508869 0.009,1.017738 -0.39615,1.526607 0.88217,-2.75e-4 1.70921,-0.138379 2.34127,-0.763939 0.11407,1.094378 -0.29108,1.583005 -0.52238,2.274453 l 2.75097,-1.999772 c -0.004,0.479379 -0.25291,1.019785 -0.76127,1.625154 0.78707,-0.303143 1.56329,-0.736426 2.288,-1.787857 0.2896,0.907767 -0.16961,1.815533 -0.68439,2.7233 1.17006,-0.721463 1.74579,-1.962961 2.43785,-3.102666"
           style="fill:none;stroke:#000000;stroke-width:0.1;stroke-linecap:butt;stroke-linejoin:miter;stroke-miterlimit:4;stroke-dasharray:none;stroke-opacity:1" />
        <path
           sodipodi:nodetypes="ccccccc"
           inkscape:connector-curvature="0"
           id="path1200"
           d="m 197.67746,42.729717 c -0.17717,0.826821 -0.55085,1.509879 -0.55085,1.509879 l -0.59059,-1.452848 -0.56696,1.441035 -0.81501,-1.405599 -0.41342,1.500095 c 0,0 -0.8032,-0.744142 -0.75595,-1.641835"
           style="fill:#ffffff;stroke:#000000;stroke-width:0.1;stroke-linecap:butt;stroke-linejoin:miter;stroke-miterlimit:4;stroke-dasharray:none;stroke-opacity:1" />
        <path
           sodipodi:nodetypes="ccccc"
           inkscape:connector-curvature="0"
           id="path1204"
           d="m 223.23328,10.796119 c -3.64154,1.26953 -3.45513,0.728275 -3.45513,0.728275 l 3.25468,-1.6303097 c -2.51352,0.4619467 -4.03473,2.9455807 -6.57206,2.2461407 4.07378,-2.1458188 6.50803,-2.2786138 6.50803,-2.2786138"
           style="fill:none;stroke:#000000;stroke-width:0.26458332px;stroke-linecap:butt;stroke-linejoin:miter;stroke-opacity:1" />
      </g>
      <g
         id="g1142">
        <path
           sodipodi:nodetypes="cscscsccscscsssscsscsscsssscscccccccscsccsssssscsccccccsccc"
           style="fill:none;stroke:#000000;stroke-width:0.26458332px;stroke-linecap:butt;stroke-linejoin:miter;stroke-opacity:1"
           d="m 213.7488,58.25773 c 1.06908,1.469983 1.33635,1.469983 1.33635,3.073599 0,1.603618 0.20045,3.34087 0.66817,4.142679 0.46773,0.801806 2.47225,2.873147 3.40769,3.875407 0.93544,1.002261 1.73725,1.80407 2.53906,2.739512 0.80181,0.935445 0.93544,1.202714 1.73725,1.202714 0.80181,0 3.0736,0.801809 3.74177,1.202711 0.66818,0.400905 0.46773,0.53454 1.80407,0.935445 1.33635,0.400905 4.54359,1.737251 6.54811,1.737251 2.00452,0 0.93544,-0.200451 2.80633,0.400905 1.87088,0.601356 1.26953,0.801809 2.87315,0.801809 1.60361,0 4.14267,0.46772 5.54584,1.00226 1.40316,0.534538 3.67496,1.937703 4.6104,1.937703 0.93544,0 2.27179,0.467722 1.13589,0.467722 -1.13589,0 -7.21627,-0.06682 -10.0226,-0.06682 -2.80633,0 -2.60588,0 -4.34313,0.06682 -1.73725,0.06682 -2.60588,0.267269 -3.60814,-0.06682 -1.00226,-0.334087 -1.40317,-0.601356 -3.0736,-1.135894 -1.67044,-0.53454 -2.60588,-0.868627 -3.87541,-0.868627 -1.26953,0 -1.80407,0.133636 -3.14042,0.334087 -1.33634,0.200451 -4.81085,0.200451 -5.41221,0.200451 -0.60135,0 -5.4122,-1.069078 -7.01582,-0.668174 -1.60362,0.400905 -2.47224,0.935445 -3.0736,1.80407 -0.60136,0.868627 -2.33861,2.672696 -2.60588,3.474505 -0.26727,0.801807 -1.00226,1.737252 -1.5368,2.405425 -0.53454,0.668174 -2.07133,3.608139 -2.07133,5.011304 v 3.875407 c 0,0.935443 0.0668,4.009049 0.33408,4.677219 0.26727,0.66817 1.5368,3.27405 1.80407,3.87541 0.26727,0.60136 -2.43883,0.73499 -2.43883,0.73499 0,0 -4.84426,0.66817 -5.17835,-0.4009 -0.33409,-1.06908 -0.93544,-2.87315 -1.06908,-4.34313 -0.13363,-1.469987 -0.66817,-5.545849 -0.60135,-7.015831 0.0668,-1.469983 0.4009,-3.407688 0.0668,-4.677217 -0.33409,-1.269529 -3.0736,-6.347651 -3.80859,-6.614922 -0.73499,-0.267269 -4.34313,-2.071338 -5.21175,-2.338607 -0.86863,-0.267269 -2.6727,-0.400905 -3.8086,-0.400905 -1.13589,0 -2.73951,-0.06682 -4.67721,0.267269 -1.9377,0.334087 -7.01583,1.536801 -10.62397,2.672697 -3.60813,1.135896 -4.81085,1.269529 -6.61492,1.5368 -1.80407,0.267269 -10.82441,0.935442 -13.49711,0.400905 -2.67269,-0.534541 -6.41447,-1.33635 -8.21853,-1.80407 -1.80407,-0.467722 -5.34539,-1.870887 -7.34992,-1.870887 -2.00452,0 -9.68852,-2.071338 -10.49032,-2.071338 -0.80181,0 8.41898,-1.135896 11.22531,-1.135896 2.80633,0 3.94223,0.534538 7.14946,0.534538 3.20724,0 8.95353,1.202713 11.02487,1.202713 2.07134,0 5.67948,-0.06682 6.94901,-0.601355 1.26953,-0.53454 2.07134,-2.405428 3.00678,-2.672697 0.93544,-0.267268 1.5368,-0.334086 1.9377,-0.801809 0.40091,-0.46772 0,-1.670433 1.93771,-1.804069 1.9377,-0.133633 2.40542,-0.334087 2.6727,-0.601356 0.26726,-0.267269 1.80407,-2.405425 3.34086,-2.939965 1.5368,-0.534538 1.33635,-0.200451 1.93771,-0.801809 0.60135,-0.601356 2.73951,-2.138156 3.34087,-2.472243 0.60135,-0.334087 1.26953,-1.069078 1.46998,-1.403165 0.20045,-0.334087 1.67043,-3.140416 2.13815,-4.276312 0.46773,-1.135896 0.53454,-2.271792 0.66818,-2.539061 0.13363,-0.267269 0.86862,-2.672694 0.86862,-2.672694"
           id="path1118"
           inkscape:connector-curvature="0" />
        <path
           style="fill:none;stroke:#000000;stroke-width:0.26458332px;stroke-linecap:butt;stroke-linejoin:miter;stroke-opacity:1"
           d="m 213.1947,60.514004 c 0.53453,1.135896 0.0195,1.886403 0.42047,3.890926 0.4009,2.00452 0.73499,3.073598 1.5368,4.476763 0.80181,1.403165 0.80181,1.269532 1.13589,2.004523 0.33409,0.734989 2.33861,3.80859 3.87541,4.209494 1.5368,0.400905 2.00452,0.868625 3.20723,1.135896 1.20272,0.267269 2.07134,0.46772 4.14268,0.46772 2.07134,0 3.60814,0.53454 4.74404,0.868627 1.13589,0.334087 0.26727,0.935442 3.0736,0.935442 2.80633,0 3.4745,-0.267268 5.34539,0.400905 1.87088,0.668173 4.54358,1.00226 5.07812,1.202714 0.53454,0.200451 2.92326,1.085783 3.99234,1.219416"
           id="path1120"
           inkscape:connector-curvature="0"
           sodipodi:nodetypes="ccscscscsccc" />
        <path
           style="fill:none;stroke:#000000;stroke-width:0.26458332px;stroke-linecap:butt;stroke-linejoin:miter;stroke-opacity:1"
           d="m 211.67746,61.531782 c -0.0668,1.603616 -0.53454,3.674954 0.13364,4.744032 0.66817,1.069078 1.40316,3.073601 1.67043,4.142679 0.26727,1.069078 0.60136,3.006781 2.33861,4.009044 1.73725,1.00226 2.53906,2.53906 6.21402,2.873147 3.67495,0.334087 5.27857,1.403165 5.67948,1.80407 0.4009,0.400902 2.87314,1.202711 2.87314,1.202711"
           id="path1122"
           inkscape:connector-curvature="0" />
        <path
           style="fill:none;stroke:#000000;stroke-width:0.26458332px;stroke-linecap:butt;stroke-linejoin:miter;stroke-opacity:1"
           d="m 209.47249,62.266774 c 1.06908,2.338607 1.00226,4.209494 1.1359,6.080381 0.13363,1.870885 -0.86863,4.343128 -0.26728,5.612659 0.60136,1.269529 0.86863,2.071339 0.735,2.873148 -0.13364,0.801809 0.4009,2.873147 0.4009,2.873147"
           id="path1124"
           inkscape:connector-curvature="0" />
        <path
           style="fill:none;stroke:#000000;stroke-width:0.26458332px;stroke-linecap:butt;stroke-linejoin:miter;stroke-opacity:1"
           d="m 206.18601,63.345242 c -0.85045,1.228423 -1.41741,1.41741 -0.66146,1.795386 0.75595,0.377978 0.85045,-0.188987 0.85045,0.94494 0,1.13393 -0.18899,1.511906 -0.18899,2.267858 0,0.755951 0,2.645833 0,3.779763 0,1.133928 -0.47247,1.606397 0.28348,3.118303 0.75595,1.511905 1.13393,2.267857 1.13393,3.307291 0,1.039434 0,2.267858 0.0945,2.929316 0.0945,0.661458 0,1.511903 0,1.511903"
           id="path1126"
           inkscape:connector-curvature="0" />
        <path
           style="fill:none;stroke:#000000;stroke-width:0.26458332px;stroke-linecap:butt;stroke-linejoin:miter;stroke-opacity:1"
           d="m 180.94147,55.852303 c 0.20045,-1.202711 0.66817,-3.006781 1.67043,-3.407685 1.00226,-0.400905 2.80633,-1.536801 3.80859,-1.603619 1.00226,-0.06681 1.33635,-0.133633 2.27179,-0.133633 0.93545,0 2.87315,-0.06682 4.34313,0.200451 1.46999,0.267269 2.47225,0.400905 3.20724,0.467723 0.73499,0.06682 0.80181,-0.267269 2.53906,0.400904 1.73725,0.668174 3.60814,0.801809 5.14494,1.202711 1.5368,0.400905 1.46998,0.801809 3.00678,1.135896 1.5368,0.334087 2.67269,0.734992 3.27405,1.269532 0.60136,0.534538 3.54132,2.539061 3.60814,3.00678 0.62195,0.361417 -0.14343,1.992885 -0.61115,2.193336 1e-5,0.751697 -1.52701,0.947083 -1.52701,0.947083 0,0 -1.10248,1.119189 -2.20497,0.734992 -0.41761,0.952147 -2.96057,1.427483 -3.34087,1.069078 -0.51024,0.286881 -2.39668,0.623748 -2.74526,0.324195 -0.61639,0.310733 -1.45398,0.142796 -1.99507,0.12025 -1.15103,-0.04796 -2.5699,0.04329 -3.38655,-0.596919 -0.50356,0.196428 -1.34187,-0.114798 -2.09618,-0.114798 -1.12897,0 -2.13673,0.365723 -2.56674,-0.11285 -0.71335,0.229818 -1.47225,-0.210868 -2.24411,-0.288054 -0.97133,-0.09713 -2.82516,-0.617869 -4.09899,-1.100365 -0.78581,0.243902 -1.40703,-0.321807 -1.64429,-0.467816 -0.86863,-0.53454 -2.58261,-2.091604 -2.62916,-2.697015 -0.82613,0.209603 -1.91744,-1.547914 -1.7838,-2.550177 z"
           id="path1128"
           inkscape:connector-curvature="0"
           sodipodi:nodetypes="cscsccscscccccccccscccccc" />
        <path
           sodipodi:nodetypes="cscscccsccc"
           style="fill:none;stroke:#000000;stroke-width:0.26458332px;stroke-linecap:butt;stroke-linejoin:miter;stroke-opacity:1"
           d="m 203.35119,63.723218 c -0.8032,1.370163 0,0.94494 -0.0472,2.22061 -0.0472,1.27567 -0.0472,1.086681 -0.14174,2.645834 -0.0945,1.559152 0.14174,1.511903 -0.18899,3.827007 -0.33073,2.315104 -0.14174,3.165552 -0.0945,5.480656 0.0473,2.315104 -1.0886,3.282973 -1.37214,4.936619 -0.28348,1.653646 -0.0945,0.972617 -0.28348,3.571204 -0.18899,2.598586 0.3327,7.745153 0.3327,9.162562 0,1.417413 0,1.889882 0.37798,3.401788 0.37797,1.511902 0.47247,2.929312 0.56696,4.630212 0.0945,1.70089 0.17081,1.25117 0.35979,1.91263"
           id="path1130"
           inkscape:connector-curvature="0" />
        <path
           style="fill:none;stroke:#000000;stroke-width:0.26458332px;stroke-linecap:butt;stroke-linejoin:miter;stroke-opacity:1"
           d="m 182.60974,58.384304 c 0.33073,1.133928 -0.33072,2.220611 -0.7087,3.354539 -0.37798,1.13393 -0.61421,1.606399 -1.03943,3.071055 -0.42523,1.46466 -1.13393,2.362354 -1.13393,2.362354 0,0 -1.03944,0.755951 -1.98438,1.700892 -0.94494,0.944941 -1.27567,1.842633 -1.70089,2.220608 -0.42522,0.377979 0.0945,0.708708 -1.41741,1.039437 -1.51191,0.330729 -1.65365,0.330729 -2.88207,0.897692 -1.22842,0.566965 -1.55915,0.850447 -2.07887,1.181176 -0.51972,0.33073 -1.84263,0.661459 -2.36235,1.27567 -0.51972,0.614212 -1.74814,2.220609 -2.50409,2.882067 -0.75596,0.661458 -1.7009,0.614212 -2.59859,0.755954 -0.89769,0.14174 -0.75595,0.425223 -1.65364,0.755952 -0.8977,0.330729 -1.37017,0.614212 -2.31511,1.039434 -0.94494,0.425222 -0.66146,0.614212 -2.69308,0.803201 -2.03162,0.188987 -1.46466,-0.188989 -2.97656,-0.04725 -1.51191,0.141742 -0.28348,-0.09449 -2.55134,0.0945 -2.26786,0.188986 -4.8192,0.519715 -6.3311,0.14174 -1.51191,-0.377976 -1.32292,-0.850445 -3.54353,-0.850445 -2.22061,0 -8.03199,-1.322917 -10.53608,-1.322917 -2.5041,0 -4.77195,-0.330729 -4.77195,-0.330729"
           id="path1132"
           inkscape:connector-curvature="0" />
        <path
           sodipodi:nodetypes="cccccccsccc"
           inkscape:connector-curvature="0"
           id="path1144"
           d="m 193.93745,106.09897 c 1.26953,-2.33861 1.46998,-5.61266 1.46998,-5.61266 0,0 1.23612,3.47451 1.20271,3.94223 -0.0334,0.46772 0.53454,-3.37428 0.96886,-2.57247 0.43431,0.80181 1.33634,3.4411 1.33634,3.4411 0,0 1.70385,-2.13816 1.83748,-4.47677 0.30068,0.50113 0.73499,4.17609 0.73499,4.17609 0,0 1.16931,-3.00678 1.16931,-3.17383 0,-0.16704 0.90203,2.27179 1.06908,2.90656 0.16704,0.63476 0,-6.280835 0.4009,-5.278575 0.4009,1.002265 2.23839,6.882185 2.23839,6.882185"
           style="fill:#ffffff;stroke:#000000;stroke-width:0.26458332px;stroke-linecap:butt;stroke-linejoin:miter;stroke-opacity:1" />
        <path
           inkscape:connector-curvature="0"
           id="path1148"
           d="m 244.4848,82.612666 c 1.36975,-0.80181 1.26953,-3.57473 1.26953,-3.57473 l 1.67043,3.708363"
           style="fill:#ffffff;stroke:#000000;stroke-width:0.26458332px;stroke-linecap:butt;stroke-linejoin:miter;stroke-opacity:1" />
        <path
           inkscape:connector-curvature="0"
           id="path1150"
           d="m 246.98066,81.93708 c 0.3675,-0.801807 1.1693,-2.472243 1.1693,-2.472243 0,0 -0.70158,1.5368 0.50114,2.53906"
           style="fill:#ffffff;stroke:#000000;stroke-width:0.26458332px;stroke-linecap:butt;stroke-linejoin:miter;stroke-opacity:1" />
        <path
           sodipodi:nodetypes="ccccccccc"
           inkscape:connector-curvature="0"
           id="path1152"
           d="m 248.86134,82.311988 c 1.23612,-1.403165 1.13589,-2.605879 1.13589,-2.605879 0,0 0.66818,1.937703 0.30068,2.605879 0.43432,-0.367496 0.66818,-2.572469 0.66818,-2.572469 0,0 0.63476,2.138156 0.53454,2.639286 0.46772,-1.035669 1.87088,-2.472243 1.87088,-2.472243 0,0 -1.10248,2.03793 -1.00226,2.539061 0.26727,-0.233861 2.03793,-2.505652 2.60588,-1.937704 -0.80181,0.701582 -2.13816,1.870886 -2.13816,2.071338"
           style="fill:#ffffff;stroke:#000000;stroke-width:0.26458332px;stroke-linecap:butt;stroke-linejoin:miter;stroke-opacity:1" />
        <path
           inkscape:connector-curvature="0"
           id="path1154"
           d="m 195.79166,52.194944 c 1.6064,0 0.99219,0.141742 2.78758,0.472471 1.79539,0.330729 3.87425,0.708705 4.86644,1.086681 0.99219,0.377976 1.6064,0.425223 2.83482,1.133927 1.22843,0.708708 4.58297,1.748142 5.00819,2.362354 0.42522,0.614209 0.75595,1.086681 0.75595,1.748139 0,0.661458 -0.89769,1.842632 -1.74814,2.220611 -0.85045,0.377976 -2.36235,0.04725 -3.96875,0.566962 -1.6064,0.519719 -4.15774,1.13393 -5.95312,0.944941 -1.79539,-0.188986 -3.35454,-0.708705 -4.58297,-0.755952 -1.22842,-0.04725 -2.45684,0.14174 -3.827,-0.09449 -1.37017,-0.236236 -5.85863,-1.511906 -6.18936,-1.889882 -0.33073,-0.377975 -2.97657,-2.456846 -3.2128,-3.165551 -0.23624,-0.708705 -0.99219,-2.551338 -0.18899,-3.118303 0.8032,-0.566965 1.84263,-1.937128 3.44903,-1.984375 1.6064,-0.04725 3.44903,-0.472471 4.58296,-0.236235 1.13393,0.236235 4.77195,0.614211 5.38616,0.708705 z"
           style="fill:none;stroke:#000000;stroke-width:0.26458332px;stroke-linecap:butt;stroke-linejoin:miter;stroke-opacity:1" />
        <path
           sodipodi:nodetypes="ccccccsccccsccscscccsscscccc"
           inkscape:connector-curvature="0"
           id="path1156"
           d="m 195.73382,53.554756 c 6.2888,0.306772 12.79966,2.879392 12.85078,4.566632 0.0511,1.687241 -2.62509,2.4891 -4.56797,2.693616 -1.94288,0.204512 -5.87977,1.380466 -9.04974,0.409027 -3.16996,-0.971442 -5.67526,-1.533856 -6.59557,-2.096268 -0.92031,-0.562414 -4.39705,-1.329341 -3.37449,-3.169967 1.02257,-1.840624 0.0511,-2.65868 2.24966,-2.70981 2.19852,-0.05113 8.64072,1.329341 10.12344,1.431597 1.48273,0.102263 4.29479,0.869186 5.11284,1.175957 0.81807,0.306771 2.60756,0.766927 2.45417,1.63611 -0.15338,0.869186 -0.25563,1.891756 -0.7158,2.147396 -0.46015,0.255644 -2.30077,0.971442 -3.83463,1.022571 -1.53385,0.05113 -3.63012,0.511286 -4.80607,0.102252 -1.17597,-0.409028 -5.11286,-1.073697 -6.0843,-1.891753 -0.97143,-0.818054 -2.40304,-1.942881 -2.40304,-2.556424 0,-0.613542 -1.22708,-1.482725 1.22709,-1.584981 2.45417,-0.102263 5.47075,0.613539 7.05573,0.664668 1.58498,0.05113 4.19254,0.613542 5.06172,0.920313 0.86918,0.306772 1.99401,0.255644 2.1474,0.920315 0.15338,0.664667 1.0737,1.227082 0.46015,1.636109 -0.61354,0.409028 -1.17595,0.971442 -2.35191,0.971442 -1.17595,0 -3.37448,0.204513 -5.01059,-0.153386 -1.63611,-0.3579 -4.09028,-0.869184 -4.60156,-1.329339 -0.51129,-0.460159 -1.63612,-1.073698 -0.61355,-1.431598 1.02257,-0.357899 2.60756,-1.482726 4.70383,-0.869186 2.09627,0.613543 6.39106,1.278213 4.75494,1.942884 -1.63611,0.664672 -4.80608,1.124827 -5.573,0.511284 -0.76693,-0.613543 1.94289,-1.840625 1.89176,-1.124826"
           style="fill:none;stroke:#000000;stroke-width:0.1;stroke-linecap:butt;stroke-linejoin:miter;stroke-miterlimit:4;stroke-dasharray:none;stroke-opacity:1" />
        <path
           inkscape:connector-curvature="0"
           id="path1162"
           d="m 193.3695,63.06858 c -0.80181,0.868627 -1.13589,0.334087 -0.66817,2.004523 0.46772,1.670434 0.60135,2.672694 0.46772,3.608139 -0.13364,0.935442 -0.40091,1.804069 -0.60136,3.00678 -0.20045,1.202714 -0.13363,1.069079 -0.73499,1.870888 -0.60135,0.801809 -1.60362,0.801809 -1.60362,1.670433 0,0.868627 0,0.400905 -0.20045,1.670437 -0.20045,1.269529 -0.73499,1.536797 -0.26727,2.605876 0.46772,1.06908 0.93545,2.338609 0.93545,2.338609"
           style="fill:none;stroke:#000000;stroke-width:0.26458332px;stroke-linecap:butt;stroke-linejoin:miter;stroke-opacity:1" />
        <path
           inkscape:connector-curvature="0"
           id="path1164"
           d="m 187.02185,61.665415 c -0.73499,1.737252 -1.13589,1.403165 -0.46772,2.80633 0.66817,1.403167 1.06908,1.670436 0.66817,2.806332 -0.4009,1.135893 -0.46772,2.204971 -1.60362,3.27405 -1.13589,1.069078 -0.8018,1.002262 -2.07133,2.138156 -1.26953,1.135896 -1.87089,3.474505 -5.67948,4.744034 -3.80859,1.269532 -2.87315,0.601359 -6.21402,1.269532 -3.34087,0.668173 -4.54358,2.071338 -7.14946,2.739512 -2.60588,0.668173 -12.76212,2.806329 -16.1698,2.271792 -3.40769,-0.534541 -5.87993,-0.467723 -5.87993,-0.467723"
           style="fill:none;stroke:#000000;stroke-width:0.26458332px;stroke-linecap:butt;stroke-linejoin:miter;stroke-opacity:1" />
        <path
           sodipodi:nodetypes="ccccccccccccccccccccccccc"
           inkscape:connector-curvature="0"
           id="path1146"
           d="m 144.0475,85.589908 c -0.32505,-1.937048 -0.55704,-3.898914 -2.17672,-5.490729 0.53762,1.800662 0.24111,3.222171 -0.18899,4.582962 -0.92055,-1.631529 -1.81844,-3.271772 -1.6064,-5.338914 -1.01081,1.191323 -1.18515,2.76286 -1.22842,4.393973 -0.64865,-1.638763 -0.61542,-3.533231 -0.56697,-5.433407 -0.75771,1.54238 -1.42754,3.136017 -1.13393,5.291667 -0.14254,-2.375995 -0.0493,-4.856806 -0.94494,-6.898066 -0.15419,1.962697 -0.43452,3.799259 -1.38162,4.969042 -0.4599,-0.494853 -0.77569,-1.277937 -0.52882,-3.186342 -0.90257,0.766205 -1.68641,1.710525 -2.05832,3.272731 0.5774,-2.362351 0.0869,-4.724702 -0.47247,-7.087053 -0.324,2.340746 0.11443,4.494447 -1.88988,6.331101 l -0.28348,-6.142114 -0.63783,5.551526 -2.76395,-5.220797 2.17336,4.960938 c 0,0 -3.23642,-4.039621 -5.00819,-4.110491 0,0 2.55134,2.196988 4.016,4.677456 l -3.9215,-3.685267 1.18118,3.638021 -2.59859,-4.866444 0.75595,4.960938 -2.3151,-5.102679 -0.23624,4.960938"
           style="fill:#ffffff;stroke:#000000;stroke-width:0.26458332px;stroke-linecap:butt;stroke-linejoin:miter;stroke-opacity:1" />
      </g>
      <g
         id="g1116"
         transform="translate(1.8318389,-0.26169127)">
        <path
           style="fill:#ffffff;stroke:#000000;stroke-width:0.26458332px;stroke-linecap:butt;stroke-linejoin:miter;stroke-opacity:1"
           d="m 201.74479,45.627607 c -0.37798,2.267857 -0.0472,4.157739 0.0472,5.197173 0.0945,1.039434 0.33072,1.228424 0.33072,2.173364 0,0.944941 2.40961,3.638021 3.40179,3.590775 0.99219,-0.04725 1.41741,0.188986 1.74814,0.614209 0.33073,0.425225 1.08668,1.322916 0.42522,1.27567 -0.66145,-0.04725 -2.59858,-0.803199 -3.49627,-1.181174 -0.8977,-0.377976 -1.98438,-1.653646 -2.26786,-1.46466 -0.28348,0.18899 -0.33073,1.086684 0,1.984375 0.33073,0.897694 0.61421,1.228424 0.42522,1.653646 -0.18899,0.425225 -0.66146,0.614212 -0.94494,0.755954 -0.28348,0.14174 -0.99219,-1.27567 -0.85044,-2.173364 0.14173,-0.897694 0.14173,-2.220611 -0.66146,-2.126115 -0.8032,0.09449 -1.79539,2.456844 -2.69309,2.645834 -0.89769,0.188986 -1.55915,-0.283483 -1.46465,-0.803201 0.0945,-0.519716 0.75595,-1.181174 1.70089,-1.653646 0.94494,-0.472469 1.37016,-1.039434 1.84264,-1.795386 0.47246,-0.755954 0.89769,-1.937128 0.89769,-3.354538 0,-1.417413 0.0472,-5.386163 0.0472,-5.386163"
           id="path1092"
           inkscape:connector-curvature="0" />
        <path
           style="fill:#ffffff;stroke:#000000;stroke-width:0.26499999;stroke-linecap:butt;stroke-linejoin:miter;stroke-miterlimit:4;stroke-dasharray:none;stroke-opacity:1"
           d="m 199.68876,40.125465 c -0.21361,3.631375 -0.21361,6.248101 1.49528,6.194698 1.70888,-0.0534 1.65547,-6.301503 1.65547,-6.301503"
           id="path1088"
           inkscape:connector-curvature="0" />
        <path
           style="fill:#ffffff;stroke:#000000;stroke-width:0.26458332px;stroke-linecap:butt;stroke-linejoin:miter;stroke-opacity:1"
           d="m 215.92121,22.298704 c 1.32291,-3.449032 6.09486,-3.071056 6.3311,-8.976934 0.23623,-5.9058777 -3.18368,-11.0337959 -9.78014,-9.6383917 -9.82738,2.078869 -3.30729,12.1897307 -5.71689,13.7016357 -2.40959,1.511905 -14.36309,3.827009 -19.0878,8.929687 -4.7247,5.10268 -11.81175,14.457589 -11.81175,14.457589 0,0 22.86756,10.016369 30.42708,0.566965 7.55952,-9.449405 9.5439,-17.292409 9.6384,-19.040551 z"
           id="path1080"
           inkscape:connector-curvature="0"
           sodipodi:nodetypes="ccscccsc" />
        <path
           style="fill:#ffffff;stroke:#000000;stroke-width:0.26458332px;stroke-linecap:butt;stroke-linejoin:miter;stroke-opacity:1"
           d="m 216.789,13.757353 c -1.16931,3.207235 0.16704,3.674956 5.94674,2.739513 -3.60813,-1.77066 -3.94222,-3.541321 -3.94222,-3.541321 -2.13816,0.200452 -2.00452,0.801808 -2.00452,0.801808 z"
           id="path1068"
           inkscape:connector-curvature="0" />
        <path
           style="fill:none;stroke:#000000;stroke-width:0.26458332px;stroke-linecap:butt;stroke-linejoin:miter;stroke-opacity:1"
           d="m 222.66893,16.496866 c -5.91334,-1.403165 -5.84652,-2.672695 -5.84652,-2.672695"
           id="path1070"
           inkscape:connector-curvature="0" />
        <circle
           style="opacity:1;fill:#000000;fill-opacity:1;stroke:none;stroke-width:0.50000006;stroke-linecap:round;stroke-miterlimit:4;stroke-dasharray:none;stroke-dashoffset:0;stroke-opacity:1"
           id="path1072"
           cx="214.58401"
           cy="10.80068"
           r="0.25056517" />
        <circle
           r="0.25056517"
           cy="11.067949"
           cx="220.58087"
           id="circle1074"
           style="opacity:1;fill:#000000;fill-opacity:1;stroke:none;stroke-width:0.50000006;stroke-linecap:round;stroke-miterlimit:4;stroke-dasharray:none;stroke-dashoffset:0;stroke-opacity:1" />
        <path
           style="fill:none;stroke:#000000;stroke-width:0.26458332px;stroke-linecap:butt;stroke-linejoin:miter;stroke-opacity:1"
           d="m 215.23549,8.8796843 c -2.05463,-0.734991 -2.20497,1.1525997 -2.20497,1.1525997"
           id="path1076"
           inkscape:connector-curvature="0" />
        <path
           style="fill:none;stroke:#000000;stroke-width:0.26458332px;stroke-linecap:butt;stroke-linejoin:miter;stroke-opacity:1"
           d="m 220.09646,9.5311543 c 1.26953,-0.567948 1.65373,0.6514687 1.65373,0.6514687"
           id="path1078"
           inkscape:connector-curvature="0" />
        <path
           style="fill:#ffffff;stroke:#000000;stroke-width:0.26458332px;stroke-linecap:butt;stroke-linejoin:miter;stroke-opacity:1"
           d="m 214.73555,4.4299013 c 2.13816,-2.0713386 4.47677,-1.6704342 4.47677,-1.6704342 l -2.47225,1.8040692 c 1.40317,-0.722595 2.80633,-1.237313 4.2095,-1.2695297 -0.89869,0.5286137 -1.8221,0.9912847 -2.53906,2.0045207 0.83683,-0.750678 1.70606,-1.144979 2.60588,-1.202713 -0.72722,0.475763 -1.2602,1.291439 -1.73726,2.204974 0.78532,-0.822685 1.77674,-1.198822 2.93997,-1.202713 -1.02787,0.643235 -1.67472,1.591283 -2.40543,2.472243"
           id="path1082"
           inkscape:connector-curvature="0"
           sodipodi:nodetypes="ccccccccc" />
        <path
           style="fill:#ffffff;stroke:#000000;stroke-width:0.26458332px;stroke-linecap:butt;stroke-linejoin:miter;stroke-opacity:1"
           d="m 207.12634,10.238366 c -2.34327,2.226249 -3.08716,5.97952 -3.08716,5.97952 l 2.95412,-4.447031 -2.13409,4.816826 2.59916,-4.435602 -1.56865,5.971508 c 0,0 1.52456,-4.020524 3.67168,-5.111598"
           id="path1084"
           inkscape:connector-curvature="0" />
        <path
           style="fill:#ffffff;stroke:#000000;stroke-width:0.26458332px;stroke-linecap:butt;stroke-linejoin:miter;stroke-opacity:1"
           d="m 201.02077,30.103564 c -5.75215,0.323498 -12.72938,10.514376 -12.72938,10.514376 0.75326,-3.496776 1.42961,-6.993553 4.14267,-10.490329 -3.82721,3.298411 -5.60084,7.770297 -7.75081,12.02713 l 1.87088,-7.684 c -1.86544,2.468257 -5.24613,5.415744 -6.04066,8.387955 -0.18301,-2.44997 1.86133,-6.272071 2.43252,-8.722041 -1.85818,1.770626 -6.14278,5.276033 -7.54307,7.847971 0,0 4.76345,-14.378092 15.8656,-19.837927 10.00361,-4.91959 13.76496,-3.915363 13.76496,-3.915363"
           id="path1086"
           inkscape:connector-curvature="0"
           sodipodi:nodetypes="ccccccccsc" />
        <path
           inkscape:connector-curvature="0"
           id="path1094"
           d="m 190.855,45.769348 c 0.37798,2.267857 0.0472,4.157739 -0.0472,5.197173 -0.0945,1.039434 -0.33072,1.228424 -0.33072,2.173364 0,0.944941 -2.40961,3.638021 -3.40179,3.590775 -0.99219,-0.04725 -2.08558,0.389438 -2.41631,0.814661 -0.33073,0.425225 -1.28714,1.389734 -0.62568,1.342488 0.66145,-0.04725 3.46721,-1.070469 4.3649,-1.448444 0.8977,-0.377976 1.98438,-1.653646 2.26786,-1.46466 0.28348,0.18899 0.33073,1.086684 0,1.984375 -0.33073,0.897694 -0.61421,1.228424 -0.42522,1.653646 0.18899,0.425225 0.66146,0.614212 0.94494,0.755954 0.28348,0.14174 0.99219,-1.27567 0.85044,-2.173364 -0.14173,-0.897694 -0.14173,-2.220611 0.66146,-2.126115 0.8032,0.09449 0.82654,2.82434 1.72424,3.01333 0.89769,0.188986 1.25847,-0.04962 1.16397,-0.569341 -0.0945,-0.519716 -0.188,-1.715713 -1.13294,-2.188185 -0.57745,-0.672921 -0.66858,-1.106251 -1.14106,-1.862203 -0.47246,-0.755954 -0.89769,-1.937128 -0.89769,-3.354538 0,-1.417413 -0.0472,-5.386163 -0.0472,-5.386163"
           style="fill:#ffffff;stroke:#000000;stroke-width:0.26458332px;stroke-linecap:butt;stroke-linejoin:miter;stroke-opacity:1"
           sodipodi:nodetypes="ccscccccccccccsccsc" />
        <path
           inkscape:connector-curvature="0"
           id="path1090"
           d="m 190.3395,40.725204 c -0.21361,3.631375 -0.21361,6.248101 1.49528,6.194699 1.70887,-0.05341 1.65547,-6.301504 1.65547,-6.301504"
           style="fill:#ffffff;stroke:#000000;stroke-width:0.26499999;stroke-linecap:butt;stroke-linejoin:miter;stroke-miterlimit:4;stroke-dasharray:none;stroke-opacity:1" />
        <path
           style="fill:none;stroke:#000000;stroke-width:0.1;stroke-linecap:butt;stroke-linejoin:miter;stroke-miterlimit:4;stroke-dasharray:none;stroke-opacity:1"
           d="m 207.17847,17.042174 c -1.60362,3.875408 -3.51909,5.267805 -3.51909,5.267805 1.22499,-1.021903 2.34885,-2.397796 3.68642,-3.025657 0.0255,0.904273 -0.1961,1.561375 -0.34555,2.290665 0.57988,-0.522423 1.16786,-1.015139 1.93295,-0.858433 0.22297,0.508869 0.009,1.017738 -0.39615,1.526607 0.88217,-2.75e-4 1.70921,-0.138379 2.34127,-0.763939 0.11407,1.094378 -0.29108,1.583005 -0.52238,2.274453 l 2.75097,-1.999772 c -0.004,0.479379 -0.25291,1.019785 -0.76127,1.625154 0.78707,-0.303143 1.56329,-0.736426 2.288,-1.787857 0.2896,0.907767 -0.16961,1.815533 -0.68439,2.7233 1.17006,-0.721463 1.74579,-1.962961 2.43785,-3.102666"
           id="path1096"
           inkscape:connector-curvature="0"
           sodipodi:nodetypes="ccccccccccccc" />
        <path
           style="fill:#ffffff;stroke:#000000;stroke-width:0.1;stroke-linecap:butt;stroke-linejoin:miter;stroke-miterlimit:4;stroke-dasharray:none;stroke-opacity:1"
           d="m 190.03183,39.920605 c 0.17717,0.826821 0.55085,1.509879 0.55085,1.509879 l 0.59059,-1.452848 0.56696,1.441035 0.81501,-1.405599 0.41342,1.500095 c 0,0 0.8032,-0.744142 0.75595,-1.641835"
           id="path1098"
           inkscape:connector-curvature="0"
           sodipodi:nodetypes="ccccccc" />
      </g>
      <path
         sodipodi:nodetypes="ccccccccc"
         inkscape:connector-curvature="0"
         id="path1166"
         d="m 210.91071,86.40179 c 1.08668,-3.118305 0.8032,-3.96875 0.8032,-3.96875 0.5283,0.838278 1.03489,1.687412 1.03943,2.787573 0.40871,-1.151597 0.68201,-2.333285 1.46466,-3.401785 0.24324,1.196925 -0.0663,2.393849 -0.18899,3.590774 0.71044,-1.50726 1.39395,-3.045942 2.36236,-4.252232 -0.0501,1.804069 0.89769,4.535715 0.89769,4.535715 0,0 0.51063,-2.826634 0.94494,-4.346729 0.15034,2.021226 1.74814,4.15774 1.74814,4.15774"
         style="fill:none;stroke:#000000;stroke-width:0.26458332px;stroke-linecap:butt;stroke-linejoin:miter;stroke-opacity:1" />
      <path
         style="fill:none;stroke:#000000;stroke-width:0.18347237;stroke-linecap:butt;stroke-linejoin:miter;stroke-miterlimit:4;stroke-dasharray:none;stroke-opacity:1"
         d="m 146.10341,66.219456 c 1.88807,-5.417961 1.39553,-6.895583 1.39553,-6.895583 0.91791,1.456483 1.79809,2.931827 1.80598,4.843323 0.71012,-2.000864 1.18497,-4.054011 2.5448,-5.910498 0.42263,2.079621 -0.11519,4.15924 -0.32836,6.238861 1.23437,-2.618818 2.42194,-5.292232 4.10453,-7.388124 -0.0871,3.134515 1.55971,7.880667 1.55971,7.880667 0,0 0.8872,-4.91119 1.6418,-7.552309 0.26121,3.511818 3.03734,7.223947 3.03734,7.223947"
         id="path1348"
         inkscape:connector-curvature="0"
         sodipodi:nodetypes="ccccccccc" />
    </g>
    <g
       id="g1378"
       transform="matrix(0.81778359,0,0,0.81778359,1.9695682,2.8524387)">
      <path
         inkscape:connector-curvature="0"
         id="path1370"
         d="m 49.722286,40.346137 4.399809,10.706206 -8.359639,-6.159737 c 0,0 1.877068,12.126592 1.290428,11.979932 -0.586643,-0.146662 -5.690239,-8.753403 -5.690239,-8.753403 l -2.933208,9.239604 -3.226529,-7.039697 -4.54647,8.066318 -0.293321,-7.479678 -7.039696,6.013075 1.319943,-7.186358 -6.159735,4.693131 -0.293321,-7.626336 -5.426434,4.693131 1.466604,-8.652961 -7.3330181,3.226525 3.3731891,-8.94628 -7.4796792,-1.906585 5.5730942,-5.719753 -5.4264338,-4.839793 6.4530559,-1.319943 -4.8397919,-8.946282 8.0663198,1.173283 0.14666,-8.799621 4.399812,4.253151 2.786546,-8.6529618 4.106491,4.9864521 3.135925,-7.62633861 3.170469,6.30639551 4.693132,-5.7197538 2.786548,6.8930366 9.239601,-6.1597349 -2.493225,9.9729049 11.732829,-2.4932263 -6.453058,8.3596403 9.679586,0.586641 -6.599718,7.479678 7.186358,5.426433 -7.333017,-0.29332 6.893035,7.333016 -7.186355,-2.493224 4.83979,9.679583 z"
         style="fill:none;stroke:#000000;stroke-width:0.29037267px;stroke-linecap:butt;stroke-linejoin:miter;stroke-opacity:1"
         sodipodi:nodetypes="ccccccccccccccccccccccccccccccccccccccccccc" />
      <circle
         r="20.221727"
         cy="28.417173"
         cx="31.093628"
         id="path1360"
         style="opacity:1;fill:none;fill-opacity:1;stroke:#000000;stroke-width:0.26499999;stroke-linecap:round;stroke-miterlimit:4;stroke-dasharray:none;stroke-dashoffset:0;stroke-opacity:1" />
      <path
         sodipodi:nodetypes="cc"
         inkscape:connector-curvature="0"
         id="path1362"
         d="m 13.061477,26.843201 c 0.09449,-10.488839 17.887052,-7.367586 17.887052,-7.367586"
         style="fill:none;stroke:#000000;stroke-width:0.26458332px;stroke-linecap:butt;stroke-linejoin:miter;stroke-opacity:1" />
      <path
         sodipodi:nodetypes="zszsz"
         inkscape:connector-curvature="0"
         id="path1364"
         d="m 35.266427,15.103994 c -4.386825,0.145095 -4.467746,5.054855 -4.467746,7.133724 0,2.078869 1.875298,6.2769 7.524147,6.099376 5.64885,-0.177523 4.787757,-6.31309 4.220792,-8.675441 -0.566965,-2.362351 -2.890368,-4.702754 -7.277193,-4.557659 z"
         style="fill:none;stroke:#000000;stroke-width:0.26458332px;stroke-linecap:butt;stroke-linejoin:miter;stroke-opacity:1" />
      <path
         sodipodi:nodetypes="ccsssc"
         inkscape:connector-curvature="0"
         id="path1366"
         d="m 42.54362,20.417605 c 2.078869,-0.283482 3.473845,0.199961 3.473845,0.199961 0,0 -1.394976,-4.641181 3.235232,-4.357699 4.630208,0.283483 5.190458,6.726274 5.190458,8.616155 0,1.88988 -2.166649,3.479083 -4.812482,3.101107 -2.645834,-0.377976 -3.590774,-7.370535 -3.590774,-7.370535"
         style="fill:#ffffff;stroke:#000000;stroke-width:0.26458332px;stroke-linecap:butt;stroke-linejoin:miter;stroke-opacity:1" />
      <path
         sodipodi:nodetypes="cc"
         inkscape:connector-curvature="0"
         id="path1368"
         d="M 50.103144,33.363289 C 41.485192,43.249959 35.340297,31.366637 35.340297,31.366637"
         style="fill:none;stroke:#000000;stroke-width:0.26458332px;stroke-linecap:butt;stroke-linejoin:miter;stroke-opacity:1" />
    </g>
  </g>
</svg>
