<?xml version="1.0" encoding="UTF-8" standalone="no"?>
<!-- Created with Inkscape (http://www.inkscape.org/) -->

<svg
   xmlns:dc="http://purl.org/dc/elements/1.1/"
   xmlns:cc="http://creativecommons.org/ns#"
   xmlns:rdf="http://www.w3.org/1999/02/22-rdf-syntax-ns#"
   xmlns:svg="http://www.w3.org/2000/svg"
   xmlns="http://www.w3.org/2000/svg"
   xmlns:sodipodi="http://sodipodi.sourceforge.net/DTD/sodipodi-0.dtd"
   xmlns:inkscape="http://www.inkscape.org/namespaces/inkscape"
   width="297mm"
   height="210mm"
   viewBox="0 0 297 210"
   version="1.1"
   id="svg8"
   inkscape:version="0.92.2 (5c3e80d, 2017-08-06)"
   sodipodi:docname="elephant_felt_craft.svg">
  <defs
     id="defs2" />
  <sodipodi:namedview
     id="base"
     pagecolor="#ffffff"
     bordercolor="#666666"
     borderopacity="1.0"
     inkscape:pageopacity="0.0"
     inkscape:pageshadow="2"
     inkscape:zoom="0.7"
     inkscape:cx="531.23392"
     inkscape:cy="369.3113"
     inkscape:document-units="mm"
     inkscape:current-layer="layer2"
     showgrid="false"
     inkscape:window-width="1680"
     inkscape:window-height="987"
     inkscape:window-x="-4"
     inkscape:window-y="-4"
     inkscape:window-maximized="1"
     inkscape:snap-global="false" />
  <metadata
     id="metadata5">
    <rdf:RDF>
      <cc:Work
         rdf:about="">
        <dc:format>image/svg+xml</dc:format>
        <dc:type
           rdf:resource="http://purl.org/dc/dcmitype/StillImage" />
        <dc:title />
      </cc:Work>
    </rdf:RDF>
  </metadata>
  <g
     inkscape:label="Layer 1"
     inkscape:groupmode="layer"
     id="layer1"
     transform="translate(0,-87)" />
  <g
     inkscape:groupmode="layer"
     id="layer2"
     inkscape:label="Layer 2">
    <path
       inkscape:connector-curvature="0"
       id="path829"
       d="m 156.04313,41.085662 c -45.463,-0.01349 -81.784468,-22.985178 -98.355178,64.679228 6.68173,-1.33635 9.6217,-9.354434 9.6217,-9.354434 8.01809,29.399644 14.69982,26.726954 14.69982,31.805074 0,5.07812 -16.83798,43.03039 16.57071,43.03039 33.408688,0 12.294398,-28.59784 17.105248,-34.74504 4.81085,-6.1472 11.22532,3.74178 20.84702,2.6727 9.62171,-1.06908 11.22532,-5.07812 13.09621,-1.60362 1.87089,3.4745 -14.16528,34.47777 17.90706,32.33961 32.07234,-2.13815 10.42351,-34.74504 15.7689,-39.02135 5.34539,-4.27631 21.9161,-12.56167 18.70887,-6.41447 -3.20724,6.1472 -18.97614,40.62497 2.40542,42.22859 11.8771,0.89078 22.37555,-5.32677 28.95178,-10.90841 7.28066,-6.17951 -0.82078,-12.33054 -4.83025,-11.31364 -9.16862,2.32538 -20.80228,8.26592 -19.84521,1.37503 1.33634,-9.62171 50.24667,-18.4416 31.5378,-66.015575 -18.70887,-47.573976 -54.78995,-38.745359 -84.1899,-38.754083 z"
       style="fill:none;stroke:#000000;stroke-width:1;stroke-linecap:butt;stroke-linejoin:miter;stroke-opacity:1;stroke-miterlimit:4;stroke-dasharray:none"
       sodipodi:nodetypes="sccssssssscssscss" />
    <circle
       style="opacity:1;fill:#000000;fill-opacity:1;stroke:#000000;stroke-width:1;stroke-linecap:round;stroke-miterlimit:4;stroke-dasharray:none;stroke-dashoffset:0;stroke-opacity:1"
       id="path831"
       cx="222.63548"
       cy="88.659637"
       r="4.8108511" />
    <path
       style="fill:#ffffff;stroke:#000000;stroke-width:1;stroke-linecap:butt;stroke-linejoin:miter;stroke-opacity:1;stroke-miterlimit:4;stroke-dasharray:none"
       d="M 206.03859,44.022602 C 142.91657,4.7130765 149.57145,135.47385 188.24224,100.77275 172.38885,68.079886 206.03859,44.022602 206.03859,44.022602 Z"
       id="path833"
       inkscape:connector-curvature="0"
       sodipodi:nodetypes="cc" />
    <path
       style="fill:none;stroke:#000000;stroke-width:1;stroke-linecap:butt;stroke-linejoin:miter;stroke-miterlimit:4;stroke-dasharray:none;stroke-opacity:1"
       d="m 201.57808,122.31389 c -13.12586,0.13904 -11.12406,-8.7733 -11.13054,-8.78554"
       id="path835"
       inkscape:connector-curvature="0"
       inkscape:transform-center-x="4.7220055"
       inkscape:transform-center-y="-4.4302369"
       sodipodi:nodetypes="cc" />
    <path
       style="fill:#ffffff;stroke:#000000;stroke-width:1;stroke-linecap:butt;stroke-linejoin:miter;stroke-miterlimit:4;stroke-dasharray:none;stroke-opacity:1"
       d="m 217.91242,121.82478 c 13.98511,16.25297 21.95505,8.8975 21.95505,8.8975 0,0 -8.60731,-9.13072 -12.00911,-17.82418"
       id="path837"
       inkscape:connector-curvature="0"
       sodipodi:nodetypes="ccc" />
    <path
       style="fill:none;stroke:#000000;stroke-width:1;stroke-linecap:butt;stroke-linejoin:miter;stroke-opacity:1;stroke-miterlimit:4;stroke-dasharray:none"
       d="m 117.06405,151.2007 c -14.96711,1.33635 -13.63075,19.51068 -13.63075,19.51068"
       id="path839"
       inkscape:connector-curvature="0" />
    <path
       inkscape:connector-curvature="0"
       id="path841"
       d="m 185.21778,149.86435 c -14.96711,1.33635 -13.63075,19.51068 -13.63075,19.51068"
       style="fill:none;stroke:#000000;stroke-width:1;stroke-linecap:butt;stroke-linejoin:miter;stroke-opacity:1;stroke-miterlimit:4;stroke-dasharray:none" />
    <circle
       r="2.1431503"
       cy="87.390106"
       cx="221.56641"
       id="circle843"
       style="opacity:1;fill:#ffffff;fill-opacity:1;stroke:#000000;stroke-width:1;stroke-linecap:round;stroke-miterlimit:4;stroke-dasharray:none;stroke-dashoffset:0;stroke-opacity:1" />
    <path
       style="fill:none;stroke:#000000;stroke-width:1;stroke-linecap:butt;stroke-linejoin:miter;stroke-opacity:1;stroke-miterlimit:4;stroke-dasharray:none"
       d="m 186.75458,112.31299 c 5.54584,2.73951 8.21854,0.73499 8.21854,0.73499"
       id="path1516"
       inkscape:connector-curvature="0" />
    <path
       style="fill:none;stroke:#000000;stroke-width:1;stroke-linecap:butt;stroke-linejoin:miter;stroke-miterlimit:4;stroke-dasharray:none;stroke-opacity:1"
       d="m 221.0319,76.899774 c -9.67922,1.88776 -9.66136,6.324911 -9.62171,6.681739"
       id="path1518"
       inkscape:connector-curvature="0"
       sodipodi:nodetypes="cc" />
  </g>
</svg>
