<?xml version="1.0" encoding="UTF-8" standalone="no"?>
<svg
   xmlns:dc="http://purl.org/dc/elements/1.1/"
   xmlns:cc="http://creativecommons.org/ns#"
   xmlns:rdf="http://www.w3.org/1999/02/22-rdf-syntax-ns#"
   xmlns:svg="http://www.w3.org/2000/svg"
   xmlns="http://www.w3.org/2000/svg"
   xmlns:sodipodi="http://sodipodi.sourceforge.net/DTD/sodipodi-0.dtd"
   xmlns:inkscape="http://www.inkscape.org/namespaces/inkscape"
   width="210mm"
   height="297mm"
   viewBox="0 0 210 297"
   version="1.1"
   id="svg1495"
   inkscape:version="1.0.2 (e86c870879, 2021-01-15, custom)"
   sodipodi:docname="face_parts.svg">
  <defs
     id="defs1489" />
  <sodipodi:namedview
     id="base"
     pagecolor="#ffffff"
     bordercolor="#666666"
     borderopacity="1.0"
     inkscape:pageopacity="0.0"
     inkscape:pageshadow="2"
     inkscape:zoom="0.7102052"
     inkscape:cx="577.06836"
     inkscape:cy="718.85989"
     inkscape:document-units="mm"
     inkscape:current-layer="layer1"
     inkscape:document-rotation="0"
     showgrid="false"
     inkscape:window-width="1920"
     inkscape:window-height="986"
     inkscape:window-x="-11"
     inkscape:window-y="-11"
     inkscape:window-maximized="1"
     inkscape:snap-global="false" />
  <metadata
     id="metadata1492">
    <rdf:RDF>
      <cc:Work
         rdf:about="">
        <dc:format>image/svg+xml</dc:format>
        <dc:type
           rdf:resource="http://purl.org/dc/dcmitype/StillImage" />
        <dc:title></dc:title>
      </cc:Work>
    </rdf:RDF>
  </metadata>
  <g
     inkscape:label="Lager 1"
     inkscape:groupmode="layer"
     id="layer1">
    <g
       id="g1652"
       transform="translate(-14.948958,5.7660268)">
      <path
         style="fill:none;stroke:#000000;stroke-width:0.264583px;stroke-linecap:butt;stroke-linejoin:miter;stroke-opacity:1"
         d="m 58.904238,155.43207 c 0,0 -6.52818,6.02602 -19.33346,5.77493 -12.805282,-0.25108 -18.956839,-5.90047 -18.956839,-5.90047 17.342319,20.30846 29.165129,10.54284 38.290299,0.12554 z"
         id="path891"
         sodipodi:nodetypes="cscc" />
      <path
         style="fill:none;stroke:#000000;stroke-width:0.264583px;stroke-linecap:butt;stroke-linejoin:miter;stroke-opacity:1"
         d="m 22.057672,156.49918 c 5.492596,-0.18644 9.546956,-1.48857 14.876726,-3.95458 1.5335,0.8637 3.35208,1.26414 6.21433,-0.0314 5.07748,2.83268 9.30793,3.58998 14.62563,3.86041"
         id="path893"
         sodipodi:nodetypes="cccc" />
    </g>
    <g
       id="g1637"
       transform="translate(-19.974152,-11.528274)">
      <path
         style="fill:none;stroke:#000000;stroke-width:0.264583px;stroke-linecap:butt;stroke-linejoin:miter;stroke-opacity:1"
         d="m 36.679768,133.83061 c 0,0 0.53263,3.37332 4.26104,3.46209 3.72841,0.0888 4.17227,-3.46209 4.17227,-3.46209"
         id="path904" />
      <path
         style="fill:none;stroke:#000000;stroke-width:0.264583px;stroke-linecap:butt;stroke-linejoin:miter;stroke-opacity:1"
         d="m 48.663938,128.8594 c 11.00768,6.65786 -3.63964,12.51679 -4.79367,7.45681"
         id="path906" />
      <path
         style="fill:none;stroke:#000000;stroke-width:0.264583px;stroke-linecap:butt;stroke-linejoin:miter;stroke-opacity:1"
         d="m 33.224926,128.8594 c -11.007677,6.65786 3.63964,12.51679 4.79367,7.45681"
         id="path908" />
    </g>
    <g
       id="g1632"
       transform="translate(8.638722,-29.302585)">
      <path
         style="fill:none;stroke:#000000;stroke-width:0.264583px;stroke-linecap:butt;stroke-linejoin:miter;stroke-opacity:1"
         d="m 0.025053,110.73912 c 0,0 14.311786,-12.303113 29.125741,0.12555"
         id="path883" />
      <path
         style="fill:none;stroke:#000000;stroke-width:0.233698px;stroke-linecap:butt;stroke-linejoin:miter;stroke-opacity:1"
         d="m 0.013413,110.88867 c 0,0 14.323226,9.59082 29.149022,-0.0979"
         id="path885" />
      <path
         style="fill:none;stroke:#000000;stroke-width:0.264583px;stroke-linecap:butt;stroke-linejoin:miter;stroke-opacity:1"
         d="m 22.057672,106.65901 c 0,0 2.824694,3.64072 0.125542,7.40698"
         id="path895" />
      <path
         style="fill:none;stroke:#000000;stroke-width:0.264583px;stroke-linecap:butt;stroke-linejoin:miter;stroke-opacity:1"
         d="m 7.684956,106.65901 c 0,0 -2.824694,3.64072 -0.125542,7.40698"
         id="path897" />
      <circle
         style="fill:none;stroke:#000000;stroke-width:0.264999"
         id="path910"
         cx="15.10828"
         cy="110.21737"
         r="3.5508637" />
      <path
         style="fill:none;stroke:#000000;stroke-width:0.264583px;stroke-linecap:butt;stroke-linejoin:miter;stroke-opacity:1"
         d="m 14.975117,106.71088 c -0.488243,3.1514 -3.328934,3.1514 -3.328934,3.1514"
         id="path914" />
      <path
         style="fill:#000000;stroke:#000000;stroke-width:0.0444558"
         d="m 14.662862,113.58475 c -0.388639,-0.0541 -0.924119,-0.24337 -1.283129,-0.45344 -0.370549,-0.21683 -0.958374,-0.79776 -1.169771,-1.15604 -0.316343,-0.53615 -0.514051,-1.2393 -0.486,-1.72844 l 0.01349,-0.23533 0.266314,-0.0327 c 0.627899,-0.0772 1.34339,-0.38912 1.849083,-0.80624 0.550045,-0.4537 0.972513,-1.15539 1.15893,-1.9249 l 0.09899,-0.40863 0.225925,-5.3e-4 c 0.124259,-2.6e-4 0.383918,0.0397 0.577016,0.0889 1.162863,0.29636 2.022062,1.10018 2.421448,2.26538 0.132943,0.38785 0.143751,0.46248 0.144299,0.99627 7.94e-4,0.6717 -0.06397,0.96664 -0.331542,1.51219 -0.634963,1.29462 -2.085355,2.0785 -3.485062,1.88352 z"
         id="path916" />
      <path
         style="fill:none;stroke:#000000;stroke-width:0.264583px;stroke-linecap:butt;stroke-linejoin:miter;stroke-opacity:1"
         d="m 0.025053,109.49836 c 0,0 14.311786,-12.303113 29.125741,0.12555"
         id="path1483" />
    </g>
    <g
       id="g1648"
       transform="translate(-3.8440178,-3.2033482)">
      <path
         style="fill:none;stroke:#000000;stroke-width:0.264583px;stroke-linecap:butt;stroke-linejoin:miter;stroke-opacity:1"
         d="m 51.593749,120.00744 c 0,0 -3.590774,13.13467 3.874257,9.44941"
         id="path1639" />
      <path
         style="fill:none;stroke:#000000;stroke-width:0.264583px;stroke-linecap:butt;stroke-linejoin:miter;stroke-opacity:1"
         d="m 66.720722,120.00744 c 0,0 3.590774,13.13467 -3.874257,9.44941"
         id="path1641" />
      <path
         style="fill:none;stroke:#000000;stroke-width:0.264583px;stroke-linecap:butt;stroke-linejoin:miter;stroke-opacity:1"
         d="m 54.617558,127.09449 c 1.984375,9.30767 8.787948,4.91369 8.882441,0"
         id="path1643" />
    </g>
    <g
       id="g1658"
       transform="matrix(0.6244753,0,0,1.1558424,44.024319,-18.431944)">
      <path
         style="fill:none;stroke:#000000;stroke-width:0.264583px;stroke-linecap:butt;stroke-linejoin:miter;stroke-opacity:1"
         d="m 57.774358,156.37361 c 0,0 -4.979051,2.74387 -17.784331,2.49278 -12.805282,-0.25108 -17.932355,-2.36721 -17.932355,-2.36721 16.840184,11.76276 26.373103,6.57462 35.716686,-0.12557 z"
         id="path1654"
         sodipodi:nodetypes="cscc" />
      <path
         style="fill:none;stroke:#000000;stroke-width:0.264583px;stroke-linecap:butt;stroke-linejoin:miter;stroke-opacity:1"
         d="m 22.057672,156.49918 c 5.492596,-0.18644 9.546956,-1.48857 14.876726,-3.95458 1.5335,0.8637 3.35208,1.26414 6.21433,-0.0314 5.07748,2.83268 9.30793,3.58998 14.62563,3.86041"
         id="path1656"
         sodipodi:nodetypes="cccc" />
    </g>
    <g
       id="g1664"
       transform="matrix(0.6244753,0,0,1.1558424,79.360023,-18.431944)">
      <path
         style="fill:none;stroke:#000000;stroke-width:0.264583px;stroke-linecap:butt;stroke-linejoin:miter;stroke-opacity:1"
         d="m 57.774358,156.37361 c 0,0 -4.979051,2.74387 -17.784331,2.49278 -12.805282,-0.25108 -17.932355,-2.36721 -17.932355,-2.36721 16.626015,8.17573 26.274267,4.91926 35.716686,-0.12557 z"
         id="path1660"
         sodipodi:nodetypes="cscc" />
      <path
         style="fill:none;stroke:#000000;stroke-width:0.264583px;stroke-linecap:butt;stroke-linejoin:miter;stroke-opacity:1"
         d="m 22.057672,156.49918 c 5.492596,-0.18644 5.852756,-1.2925 10.524062,-2.12552 4.671306,-0.83303 11.829838,-0.58409 16.491453,0.22989 4.661615,0.81398 3.383471,1.49963 8.701171,1.77006"
         id="path1662"
         sodipodi:nodetypes="czzc" />
    </g>
    <g
       id="g2239"
       transform="translate(-12.599836)">
      <path
         style="fill:none;stroke:#000000;stroke-width:0.264583px;stroke-linecap:butt;stroke-linejoin:miter;stroke-opacity:1"
         d="m 95.889624,123.52396 c 12.231586,8.00338 21.292026,0.151 21.292026,0.151"
         id="path1666" />
      <path
         id="path1670"
         style="fill:none;stroke:#000000;stroke-width:0.265;stroke-linecap:round;stroke-miterlimit:4;stroke-dasharray:none"
         d="m 97.621954,124.55193 c -1.011919,0.56706 -2.354896,0.91254 -3.828436,0.91254 -3.148816,0 -5.701442,-1.5776 -5.701439,-3.52368 10e-7,-1.15491 0.899003,-2.18004 2.288098,-2.82269"
         sodipodi:nodetypes="cssc" />
      <path
         id="path2234"
         style="fill:none;stroke:#000000;stroke-width:0.265;stroke-linecap:round;stroke-miterlimit:4;stroke-dasharray:none"
         d="m 115.96121,124.55193 c 1.01192,0.56706 2.35489,0.91254 3.82843,0.91254 3.14882,0 5.70145,-1.5776 5.70144,-3.52368 0,-1.15491 -0.899,-2.18004 -2.28809,-2.82269"
         sodipodi:nodetypes="cssc" />
    </g>
    <g
       id="g2247"
       transform="matrix(0.50434745,0,0,1,83.897219,0)">
      <path
         style="fill:none;stroke:#000000;stroke-width:0.264583px;stroke-linecap:butt;stroke-linejoin:miter;stroke-opacity:1"
         d="m 95.889624,123.52396 c 12.231586,8.00338 21.292026,0.151 21.292026,0.151"
         id="path2241" />
      <path
         id="path2243"
         style="fill:none;stroke:#000000;stroke-width:0.265;stroke-linecap:round;stroke-miterlimit:4;stroke-dasharray:none"
         d="m 97.621954,124.55193 c -1.011919,0.56706 -2.354896,0.91254 -3.828436,0.91254 -3.148816,0 -5.701442,-1.5776 -5.701439,-3.52368 10e-7,-1.15491 0.899003,-2.18004 2.288098,-2.82269"
         sodipodi:nodetypes="cssc" />
      <path
         id="path2245"
         style="fill:none;stroke:#000000;stroke-width:0.265;stroke-linecap:round;stroke-miterlimit:4;stroke-dasharray:none"
         d="m 115.96121,124.55193 c 1.01192,0.56706 2.35489,0.91254 3.82843,0.91254 3.14882,0 5.70145,-1.5776 5.70144,-3.52368 0,-1.15491 -0.899,-2.18004 -2.28809,-2.82269"
         sodipodi:nodetypes="cssc" />
    </g>
    <g
       id="g2255"
       transform="matrix(0.50434745,0,0,1,113.64565,0)">
      <path
         style="fill:none;stroke:#000000;stroke-width:0.264583px;stroke-linecap:butt;stroke-linejoin:miter;stroke-opacity:1"
         d="m 95.889624,123.52396 c 8.339236,2.94805 16.276886,2.72391 21.292026,0.151"
         id="path2249"
         sodipodi:nodetypes="cc" />
      <path
         id="path2251"
         style="fill:none;stroke:#000000;stroke-width:0.265;stroke-linecap:round;stroke-miterlimit:4;stroke-dasharray:none"
         d="m 97.621954,124.55193 c -1.011919,0.56706 -2.354896,0.91254 -3.828436,0.91254 -3.148816,0 -5.701442,-1.5776 -5.701439,-3.52368 10e-7,-1.15491 0.899003,-2.18004 2.288098,-2.82269"
         sodipodi:nodetypes="cssc" />
      <path
         id="path2253"
         style="fill:none;stroke:#000000;stroke-width:0.265;stroke-linecap:round;stroke-miterlimit:4;stroke-dasharray:none"
         d="m 115.96121,124.55193 c 1.01192,0.56706 2.35489,0.91254 3.82843,0.91254 3.14882,0 5.70145,-1.5776 5.70144,-3.52368 0,-1.15491 -0.899,-2.18004 -2.28809,-2.82269"
         sodipodi:nodetypes="cssc" />
    </g>
    <ellipse
       style="fill:#000000;stroke:#000000;stroke-width:0.320467;stroke-linecap:round;stroke-miterlimit:4;stroke-dasharray:none"
       id="path2257"
       cx="163.06277"
       cy="123.92027"
       rx="1.6416759"
       ry="0.74231273" />
    <ellipse
       style="fill:#000000;stroke:#000000;stroke-width:0.320467;stroke-linecap:round;stroke-miterlimit:4;stroke-dasharray:none"
       id="ellipse2259"
       cx="171.81859"
       cy="123.92027"
       rx="1.6416759"
       ry="0.74231273" />
    <g
       id="g2277"
       transform="translate(50.068692,-29.302585)">
      <path
         style="fill:none;stroke:#000000;stroke-width:0.264583px;stroke-linecap:butt;stroke-linejoin:miter;stroke-opacity:1"
         d="m 0.025053,110.73912 c 0,0 14.311786,-12.303113 29.125741,0.12555"
         id="path2261" />
      <path
         style="fill:none;stroke:#000000;stroke-width:0.233698px;stroke-linecap:butt;stroke-linejoin:miter;stroke-opacity:1"
         d="m 0.013413,110.88867 c 0.02822713,0.29168 14.673794,13.21336 29.149022,-0.0979"
         id="path2263"
         sodipodi:nodetypes="cc" />
      <path
         style="fill:none;stroke:#000000;stroke-width:0.264583px;stroke-linecap:butt;stroke-linejoin:miter;stroke-opacity:1"
         d="m 22.057672,106.65901 c 0,0 2.824694,4.92206 0.125542,8.68832"
         id="path2265"
         sodipodi:nodetypes="cc" />
      <path
         style="fill:none;stroke:#000000;stroke-width:0.264583px;stroke-linecap:butt;stroke-linejoin:miter;stroke-opacity:1"
         d="m 7.684956,106.65901 c 0,0 -2.824694,4.92206 -0.125542,8.68832"
         id="path2267"
         sodipodi:nodetypes="cc" />
      <circle
         style="fill:none;stroke:#000000;stroke-width:0.264999"
         id="circle2269"
         cx="15.10828"
         cy="111.0182"
         r="3.5508637" />
      <path
         style="fill:none;stroke:#000000;stroke-width:0.264583px;stroke-linecap:butt;stroke-linejoin:miter;stroke-opacity:1"
         d="m 14.975117,107.51172 c -0.488243,3.1514 -3.328934,3.1514 -3.328934,3.1514"
         id="path2271" />
      <path
         style="fill:#000000;stroke:#000000;stroke-width:0.0444558"
         d="m 14.662862,114.38559 c -0.388639,-0.0541 -0.924119,-0.24337 -1.283129,-0.45344 -0.370549,-0.21683 -0.958374,-0.79776 -1.169771,-1.15604 -0.316343,-0.53615 -0.514051,-1.2393 -0.486,-1.72844 l 0.01349,-0.23533 0.266314,-0.0327 c 0.627899,-0.0772 1.34339,-0.38912 1.849083,-0.80624 0.550045,-0.4537 0.972513,-1.15539 1.15893,-1.9249 l 0.09899,-0.40863 0.225925,-5.3e-4 c 0.124259,-2.6e-4 0.383918,0.0397 0.577016,0.0889 1.162863,0.29636 2.022062,1.10018 2.421448,2.26538 0.132943,0.38785 0.143751,0.46248 0.144299,0.99627 7.94e-4,0.6717 -0.06397,0.96664 -0.331542,1.51219 -0.634963,1.29462 -2.085355,2.0785 -3.485062,1.88352 z"
         id="path2273" />
      <path
         style="fill:none;stroke:#000000;stroke-width:0.264583px;stroke-linecap:butt;stroke-linejoin:miter;stroke-opacity:1"
         d="m 0.025053,109.49836 c 0,0 14.311786,-12.303113 29.125741,0.12555"
         id="path2275" />
      <path
         style="fill:#000000;stroke:#000000;stroke-width:0.264583px;stroke-linecap:butt;stroke-linejoin:miter;stroke-opacity:1"
         d="m 29.162435,110.79077 c 0.160441,-1.01642 0.847855,-2.11715 0.211907,-3.00615 l -1.361423,1.53493 -0.880921,-2.49594 -0.987697,0.97435 -0.9877,-2.36247 -1.201255,1.57498 -0.814184,-2.42921 -1.417173,1.25022 -0.731739,-1.85084 -1.468204,1.14787 -0.987699,-1.02774 -0.587279,1.28133 -1.067782,-1.38811 -1.174562,1.28134 -1.067782,-1.38812 -0.867574,1.02774 -0.84088,-1.02774 -0.533889,1.28134 -1.708455,-0.90762 -0.380756,0.81592 -2.6090364,-0.33542 -0.3909062,1.44568 -2.7590404,-0.43128 v 1.33473 l -2.028788,0.26694 -0.7474479,1.44151 -2.29573395,-0.37372 0.54861785,1.07307 -3.5826389,1.11431 3.57100879,0.276 c 0,0 14.52203611,-12.734763 29.14901211,-0.0979 z"
         id="path2279"
         sodipodi:nodetypes="cccccccccccccccccccccccccccccccc" />
    </g>
    <g
       id="g2299"
       transform="translate(87.694686,-29.329279)">
      <path
         style="fill:none;stroke:#000000;stroke-width:0.224781px;stroke-linecap:butt;stroke-linejoin:miter;stroke-opacity:1"
         d="m 0.00860431,110.82458 c 0,0 14.32797169,-8.8699 29.15868069,0.0905"
         id="path2281" />
      <path
         style="fill:none;stroke:#000000;stroke-width:0.198542px;stroke-linecap:butt;stroke-linejoin:miter;stroke-opacity:1"
         d="m -0.00304885,110.93239 c 0.03924163,-0.14115 14.76977985,6.98562 29.18198785,-0.0706"
         id="path2283"
         sodipodi:nodetypes="cc" />
      <path
         style="fill:none;stroke:#000000;stroke-width:0.224781px;stroke-linecap:butt;stroke-linejoin:miter;stroke-opacity:1"
         d="m 22.066141,107.88303 c 0,0 2.752384,2.75576 0.05018,5.47103"
         id="path2285"
         sodipodi:nodetypes="cc" />
      <path
         style="fill:none;stroke:#000000;stroke-width:0.224781px;stroke-linecap:butt;stroke-linejoin:miter;stroke-opacity:1"
         d="m 7.6771702,107.88303 c 0,0 -2.9033922,2.75576 -0.2011876,5.47103"
         id="path2287"
         sodipodi:nodetypes="cc" />
      <circle
         style="fill:none;stroke:#000000;stroke-width:0.264999"
         id="circle2289"
         cx="15.10828"
         cy="110.48904"
         r="3.5508637" />
      <path
         style="fill:#000000;stroke:#000000;stroke-width:0.0451536"
         d="m 14.696036,113.93582 c -0.394739,-0.055 -0.938624,-0.24719 -1.303269,-0.46055 -0.376366,-0.22024 -0.973418,-0.81029 -1.188133,-1.17419 -0.321308,-0.54457 -0.52212,-1.25875 -0.493628,-1.75557 l 0.0137,-0.23902 0.270495,-0.0332 c 0.637754,-0.0784 1.364476,-0.39523 1.878107,-0.81889 0.558679,-0.46082 0.987778,-1.17353 1.177121,-1.95512 l 0.100544,-0.41504 0.229471,-5.4e-4 c 0.12621,-2.6e-4 0.389945,0.0403 0.586074,0.0903 1.181116,0.30101 2.053801,1.11745 2.459456,2.30093 0.13503,0.39394 0.146008,0.46974 0.146564,1.01191 8.07e-4,0.68225 -0.06497,0.98182 -0.336746,1.53593 -0.64493,1.31494 -2.118088,2.11112 -3.539766,1.91308 z"
         id="path2293" />
      <path
         style="fill:none;stroke:#000000;stroke-width:0.226927px;stroke-linecap:butt;stroke-linejoin:miter;stroke-opacity:1"
         d="m 0.01086059,109.84958 c 0,0 14.32573441,-9.04149 29.15412741,0.0923"
         id="path2295" />
    </g>
    <g
       id="g2305"
       transform="matrix(0.6244753,0,0,1.1558424,111.37357,-18.431944)">
      <path
         style="fill:none;stroke:#000000;stroke-width:0.264583px;stroke-linecap:butt;stroke-linejoin:miter;stroke-opacity:1"
         d="m 57.774358,156.37361 c 0,0 -4.374514,1.4374 -17.179794,1.18631 -12.805282,-0.25108 -18.536892,-1.06074 -18.536892,-1.06074 16.093141,5.75737 26.023594,3.78162 35.716686,-0.12557 z"
         id="path2301"
         sodipodi:nodetypes="cscc" />
      <path
         style="fill:none;stroke:#000000;stroke-width:0.264583px;stroke-linecap:butt;stroke-linejoin:miter;stroke-opacity:1"
         d="m 22.057672,156.49918 c 5.492596,-0.18644 4.336213,-3.44329 10.524062,-2.12552 6.187849,1.31777 12.873893,0.89662 16.491453,0.22989 3.61756,-0.66673 3.383471,1.49963 8.701171,1.77006"
         id="path2303"
         sodipodi:nodetypes="czzc" />
    </g>
    <g
       id="g2311"
       transform="matrix(0.6244753,0,0,1.1558424,142.17906,-18.431944)">
      <path
         style="fill:none;stroke:#000000;stroke-width:0.264583px;stroke-linecap:butt;stroke-linejoin:miter;stroke-opacity:1"
         d="m 22.057672,156.49918 c 16.093141,5.75737 26.023594,3.78162 35.716686,-0.12557 0,0 -4.374514,1.4374 -17.179794,1.18631 -12.805282,-0.25108 -18.536892,-1.06074 -18.536892,-1.06074"
         id="path2307"
         sodipodi:nodetypes="ccsc" />
      <path
         style="fill:none;stroke:#000000;stroke-width:0.264583px;stroke-linecap:butt;stroke-linejoin:miter;stroke-opacity:1"
         d="m 24.537009,156.75323 c 3.218074,-0.15403 7.456485,-3.28348 11.081902,-2.19481 3.625418,1.08868 7.542724,0.74074 9.662227,0.18993 2.119503,-0.55082 6.983774,1.88558 10.099377,2.109"
         id="path2309"
         sodipodi:nodetypes="czzc" />
    </g>
    <g
       id="g2317"
       transform="matrix(0.6244753,0,0,1.1558424,-3.1026125,13.048101)">
      <path
         style="fill:none;stroke:#000000;stroke-width:0.264583px;stroke-linecap:butt;stroke-linejoin:miter;stroke-opacity:1"
         d="m 57.774358,156.37361 c 0,0 -4.979051,2.74387 -17.784331,2.49278 -12.805282,-0.25108 -17.932355,-2.36721 -17.932355,-2.36721 16.754703,14.57994 26.319565,8.33907 35.716686,-0.12557 z"
         id="path2313"
         sodipodi:nodetypes="cscc" />
      <path
         style="fill:none;stroke:#000000;stroke-width:0.264583px;stroke-linecap:butt;stroke-linejoin:miter;stroke-opacity:1"
         d="m 22.057672,156.49918 c 5.492596,-0.18644 9.863336,-5.07817 17.93507,-1.30512 8.173047,-3.55546 9.737864,0.73607 17.781616,1.17955"
         id="path2315"
         sodipodi:nodetypes="ccc" />
    </g>
  </g>
</svg>
