<?xml version="1.0" encoding="UTF-8" standalone="no"?>
<!-- Created with Inkscape (http://www.inkscape.org/) -->

<svg
   xmlns:dc="http://purl.org/dc/elements/1.1/"
   xmlns:cc="http://creativecommons.org/ns#"
   xmlns:rdf="http://www.w3.org/1999/02/22-rdf-syntax-ns#"
   xmlns:svg="http://www.w3.org/2000/svg"
   xmlns="http://www.w3.org/2000/svg"
   xmlns:sodipodi="http://sodipodi.sourceforge.net/DTD/sodipodi-0.dtd"
   xmlns:inkscape="http://www.inkscape.org/namespaces/inkscape"
   width="744.09448819"
   height="1052.3622047"
   id="svg3031"
   version="1.1"
   inkscape:version="0.48.2 r9819"
   sodipodi:docname="flowers.svg">
  <defs
     id="defs3033" />
  <sodipodi:namedview
     id="base"
     pagecolor="#ffffff"
     bordercolor="#666666"
     borderopacity="1.0"
     inkscape:pageopacity="0.0"
     inkscape:pageshadow="2"
     inkscape:zoom="0.7"
     inkscape:cx="-153.39646"
     inkscape:cy="689.72582"
     inkscape:document-units="px"
     inkscape:current-layer="layer1"
     showgrid="false"
     showguides="true"
     inkscape:guide-bbox="true"
     inkscape:window-width="1366"
     inkscape:window-height="721"
     inkscape:window-x="-32000"
     inkscape:window-y="-32000"
     inkscape:window-maximized="1" />
  <metadata
     id="metadata3036">
    <rdf:RDF>
      <cc:Work
         rdf:about="">
        <dc:format>image/svg+xml</dc:format>
        <dc:type
           rdf:resource="http://purl.org/dc/dcmitype/StillImage" />
        <dc:title></dc:title>
      </cc:Work>
    </rdf:RDF>
  </metadata>
  <g
     inkscape:label="Layer 1"
     inkscape:groupmode="layer"
     id="layer1">
    <path
       inkscape:transform-center-y="110.66508"
       sodipodi:nodetypes="csc"
       inkscape:connector-curvature="0"
       id="path3045"
       d="m 284.10026,267.42206 c 0,0 254.18863,134.0514 92.30071,206.024 -161.88792,71.9726 -92.30071,-206.024 -92.30071,-206.024 z"
       style="fill:none;stroke:#000000;stroke-width:1px;stroke-linecap:butt;stroke-linejoin:miter;stroke-opacity:1"
       inkscape:transform-center-x="-62.953995" />
    <path
       inkscape:transform-center-y="-108.96752"
       sodipodi:nodetypes="csc"
       inkscape:connector-curvature="0"
       id="path3049"
       d="m 289.41673,263.81858 c 0,0 -263.456091,-114.7716 -107.37054,-198.587198 156.08556,-83.815593 107.37054,198.587198 107.37054,198.587198 z"
       style="fill:none;stroke:#000000;stroke-width:1px;stroke-linecap:butt;stroke-linejoin:miter;stroke-opacity:1"
       inkscape:transform-center-x="72.211332" />
    <path
       inkscape:transform-center-y="14.379887"
       sodipodi:nodetypes="csc"
       inkscape:connector-curvature="0"
       id="path3053"
       d="m 287.05139,268.92491 c 0,0 237.60276,-161.63712 225.24958,15.09757 -12.35319,176.7347 -225.24958,-15.09757 -225.24958,-15.09757 z"
       style="fill:none;stroke:#000000;stroke-width:1px;stroke-linecap:butt;stroke-linejoin:miter;stroke-opacity:1"
       inkscape:transform-center-x="-113.08333" />
    <path
       inkscape:transform-center-x="-83.737858"
       style="fill:none;stroke:#000000;stroke-width:1px;stroke-linecap:butt;stroke-linejoin:miter;stroke-opacity:1"
       d="m 289.7646,267.01897 c 0,0 -31.74596,-285.611313 118.69124,-192.035665 C 558.89304,168.55896 289.7646,267.01897 289.7646,267.01897 z"
       id="path3059"
       inkscape:connector-curvature="0"
       sodipodi:nodetypes="csc"
       inkscape:transform-center-y="-104.13333" />
    <path
       inkscape:transform-center-x="95.113705"
       style="fill:none;stroke:#000000;stroke-width:1px;stroke-linecap:butt;stroke-linejoin:miter;stroke-opacity:1"
       d="m 284.14908,263.94085 c 0,0 -17.06787,286.8629 -149.49044,169.16831 C 2.2360691,315.41457 284.14908,263.94085 284.14908,263.94085 z"
       id="path3061"
       inkscape:connector-curvature="0"
       sodipodi:nodetypes="csc"
       inkscape:transform-center-y="96.978723" />
    <path
       inkscape:transform-center-y="-16.799263"
       sodipodi:nodetypes="csc"
       inkscape:connector-curvature="0"
       id="path3063"
       d="m 286.64644,262.5108 c 0,0 -239.926834,158.16684 -225.006364,-18.36965 C 76.560546,67.604653 286.64644,262.5108 286.64644,262.5108 z"
       style="fill:none;stroke:#000000;stroke-width:1px;stroke-linecap:butt;stroke-linejoin:miter;stroke-opacity:1"
       inkscape:transform-center-x="113.01641" />
    <path
       style="fill:#ff00ff;stroke:none"
       d="m -470.95536,133.96875 c -0.61184,-0.005 -1.25185,0.0175 -1.875,0.0312 -13.60582,0.29946 -29.92681,5.0543 -49.4375,15.53125 -66.44832,35.68175 -56.8327,76.96622 -23.90625,112.625 -46.83248,-16.96991 -90.02886,-10.28425 -96.5,66.28125 -5.49025,64.95972 23.53483,84.62186 62.40625,83.5 -30.37213,26.31544 -39.17914,61.20381 10.625,105.46875 80.62386,71.65691 118.46432,-6.65035 135.75,-78.875 -5.68598,74.60388 6.0019,163.67619 106,119.21875 84.59249,-37.60837 55.55451,-92.16162 8.5625,-135.6875 57.72767,30.06058 120.78726,40.05249 127.34375,-53.75 6.47911,-92.69536 -55.80447,-92.26481 -116.5,-70.9375 53.8772,-36.99799 92.79519,-88.24535 12.65625,-138.09375 -72.72135,-45.23447 -102.88199,-1.85295 -114.625,55.03125 -5.7797,-43.09335 -21.95399,-80.03761 -60.5,-80.34375 z"
       id="path3065"
       inkscape:connector-curvature="0" />
    <rect
       style="fill:#ff00ff;fill-opacity:1;fill-rule:nonzero;stroke:none"
       id="rect3081"
       width="212.85715"
       height="205.71428"
       x="-911.42859"
       y="148.07646" />
  </g>
</svg>
