<?xml version="1.0" encoding="UTF-8" standalone="no"?>
<!-- Created with Inkscape (http://www.inkscape.org/) -->

<svg
   xmlns:dc="http://purl.org/dc/elements/1.1/"
   xmlns:cc="http://creativecommons.org/ns#"
   xmlns:rdf="http://www.w3.org/1999/02/22-rdf-syntax-ns#"
   xmlns:svg="http://www.w3.org/2000/svg"
   xmlns="http://www.w3.org/2000/svg"
   xmlns:sodipodi="http://sodipodi.sourceforge.net/DTD/sodipodi-0.dtd"
   xmlns:inkscape="http://www.inkscape.org/namespaces/inkscape"
   width="744.09448819"
   height="1052.3622047"
   id="svg2"
   version="1.1"
   inkscape:version="0.48.4 r9939"
   sodipodi:docname="furfilter.svg">
  <defs
     id="defs4">
    <filter
       id="filter3015"
       inkscape:menu-tooltip="Draws a black outline around"
       inkscape:menu="ABCs"
       inkscape:label="Black outline"
       color-interpolation-filters="sRGB">
      <feTurbulence
         id="feTurbulence3023"
         baseFrequency=".05"
         type="fractalNoise" />
      <feMorphology
         id="feMorphology3027"
         radius="1"
         operator="dilate" />
      <feConvolveMatrix
         id="feConvolveMatrix3029"
         kernelMatrix="5 0 -10  10 0 -10  10 0 -5" />
      <feColorMatrix
         id="feColorMatrix3039"
         type="saturate"
         result="result1" />
      <feBlend
         id="feBlend3041"
         in2="result1"
         in="result1"
         mode="darken"
         result="result2" />
      <feComposite
         id="feComposite3043"
         in2="result2"
         in="SourceGraphic"
         operator="in"
         result="res" />
      <feTurbulence
         id="feTurbulence4217"
         baseFrequency="2"
         result="result3" />
      <feDisplacementMap
         id="feDisplacementMap4219"
         in2="result3"
         in="SourceGraphic"
         scale="10"
         xChannelSelector="R"
         yChannelSelector="R"
         result="result4" />
      <feComposite
         id="feComposite4221"
         in2="result4"
         in="res"
         operator="in" />
    </filter>
    <filter
       id="filter3049"
       inkscape:menu-tooltip="Draws a black outline around"
       inkscape:menu="ABCs"
       inkscape:label="Black outline"
       color-interpolation-filters="sRGB">
      <feTurbulence
         id="feTurbulence3057"
         baseFrequency=".1"
         type="fractalNoise" />
      <feConvolveMatrix
         id="feConvolveMatrix3061"
         kernelMatrix="-20 0 20" />
      <feColorMatrix
         id="feColorMatrix4179"
         type="hueRotate"
         values="0" />
      <feComponentTransfer>
        <feFuncR
           type="linear"
           slope="50"
           intercept="255" />
        <feFuncG
           type="linear"
           slope="50"
           intercept="255" />
        <feFuncB
           type="linear"
           slope="50"
           intercept="255" />
      </feComponentTransfer>
      <feMorphology
         id="feMorphology4195"
         radius="1"
         operator="dilate"
         result="result1" />
      <feComposite
         id="feComposite4201"
         in2="result1"
         in="SourceGraphic"
         operator="in"
         result="result2" />
    </filter>
  </defs>
  <sodipodi:namedview
     id="base"
     pagecolor="#ffffff"
     bordercolor="#666666"
     borderopacity="1.0"
     inkscape:pageopacity="0.0"
     inkscape:pageshadow="2"
     inkscape:zoom="0.7"
     inkscape:cx="-112.92093"
     inkscape:cy="504.99346"
     inkscape:document-units="px"
     inkscape:current-layer="layer1"
     showgrid="false"
     inkscape:window-width="1920"
     inkscape:window-height="1138"
     inkscape:window-x="-8"
     inkscape:window-y="-8"
     inkscape:window-maximized="1" />
  <metadata
     id="metadata7">
    <rdf:RDF>
      <cc:Work
         rdf:about="">
        <dc:format>image/svg+xml</dc:format>
        <dc:type
           rdf:resource="http://purl.org/dc/dcmitype/StillImage" />
        <dc:title></dc:title>
      </cc:Work>
    </rdf:RDF>
  </metadata>
  <g
     inkscape:label="Layer 1"
     inkscape:groupmode="layer"
     id="layer1">
    <path
       style="color:#000000;fill:#a05a2c;fill-opacity:1;fill-rule:nonzero;stroke:none;stroke-width:7;marker:none;visibility:visible;display:inline;overflow:visible;enable-background:accumulate"
       d="m -40.351914,357.4157 801.535664,67.68022 0,374.20819 -800.525512,39.39595 z"
       id="rect4223"
       inkscape:connector-curvature="0"
       sodipodi:nodetypes="ccccc" />
    <path
       style="color:#000000;fill:#2b1100;fill-opacity:1;fill-rule:nonzero;stroke:none;stroke-width:7;marker:none;visibility:visible;display:inline;overflow:visible;filter:url(#filter3015);enable-background:accumulate"
       d="m -31.260542,378.6289 792.444292,46.46702 0,374.20819 -791.434139,26.26397 z"
       id="rect4191"
       inkscape:connector-curvature="0"
       sodipodi:nodetypes="ccccc" />
    <path
       style="fill:#aa4400;stroke:none;filter:url(#filter3015)"
       d="m 231.9757,318.68307 c -21.37684,-33.86494 -20.96865,-76.18177 -15.78481,-114.49373 13.56416,-55.077 67.7008,-94.20588 123.21532,-97.32028 43.51999,-8.55034 91.10145,-11.537151 132.03015,8.588 35.93739,24.16658 51.06391,67.57742 59.89456,108.03665 10.27644,42.20998 -0.10478,92.34359 -35.51398,120.05602 -25.41328,17.24736 -57.54175,14.47944 -86.44395,20.2164 -17.87112,1.97887 -35.86861,3.02394 -53.85111,2.54166 -16.5403,11.89914 -44.7562,-3.6264 -40.94782,-24.45237 1.81401,-33.54547 18.401,-65.8097 12.36254,-99.8012 -12.54579,-20.14969 -43.76458,-16.03591 -57.444,0.73085 -12.9322,12.57778 -18.55791,33.65044 -10.02635,50.16451 5.59671,14.60147 -12.16077,38.94652 -27.49055,25.73349 z"
       id="path2985"
       inkscape:connector-curvature="0" />
    <path
       sodipodi:type="arc"
       style="color:#000000;fill:#ffccaa;fill-opacity:1;fill-rule:nonzero;stroke:none;stroke-width:7;marker:none;visibility:visible;display:inline;overflow:visible;filter:url(#filter3049);enable-background:accumulate"
       id="path3047"
       sodipodi:cx="374.7666"
       sodipodi:cy="640.21997"
       sodipodi:rx="113.13708"
       sodipodi:ry="112.45"
       d="m 487.90368,640.21997 a 113.13708,112.45 0 1 1 -226.27416,0 113.13708,112.45 0 1 1 226.27416,0 z"
       transform="matrix(1.1052567,0,0,1.0396133,497.0617,-255.87677)" />
    <path
       style="font-size:171.08665465999999000px;font-style:normal;font-variant:normal;font-weight:normal;font-stretch:normal;line-height:125%;letter-spacing:0px;word-spacing:0px;fill:#3f1f09;fill-opacity:1;stroke:none;font-family:Showcard Gothic;-inkscape-font-specification:Showcard Gothic"
       d="m 435.45603,529.07995 c -18.93653,0.21286 -38.57057,17.52381 -46.73221,49.68678 -6.60986,26.90448 -6.86471,59.64047 -0.13195,86.59907 8.43655,32.27902 28.78188,47.02741 47.51264,48.08459 10.28852,0.47987 20.82755,0.43025 30.77689,-4.78222 0.60313,-26.22111 1.64911,-52.40856 3.2701,-78.48826 -9.88759,0 -19.77518,0 -29.66278,0 1.101,14.88528 2.74595,31.57243 2.3888,45.56025 -9.614,-0.0442 -19.25525,-14.65436 -18.22904,-33.22277 0.33854,-23.78155 14.15859,-39.09012 26.34629,-37.39141 3.98415,0.18335 7.95719,0.96888 11.5497,4.25286 -1.24197,-25.86838 -2.46493,-51.74011 -3.73394,-77.60401 -7.70615,-1.93634 -15.54055,-3.09177 -23.3545,-2.69488 z m -269.70165,5.17922 c 3.32329,46.98984 5.01555,94.2872 6.05315,141.60731 -6.17846,0.70956 -12.2455,-2.92829 -17.92754,-6.94773 1.20162,13.37316 2.50555,26.72658 3.17733,40.1705 15.27911,6.0926 32.41897,7.08049 46.10602,-8.54781 2.57273,-3.64156 7.23347,-5.66722 5.86761,-13.17963 -0.61633,-52.08791 1.00051,-104.14422 2.55114,-156.13438 -15.33775,0 -30.6755,0 -46.01325,0 0.0618,1.01058 0.1237,2.02116 0.18554,3.03174 z m 47.49755,-0.25265 c 0.91553,40.92522 2.04796,82.14047 6.14592,122.40632 2.50754,22.12049 10.11456,43.77711 22.35724,51.20265 18.33599,11.37984 38.88451,7.08163 56.84399,-4.63182 -0.23608,-57.28239 0.89882,-114.52757 2.11049,-171.75624 -11.2482,0 -22.4964,0 -33.7446,0 1.97334,48.26135 3.06508,96.62163 3.13094,145.01802 -5.27048,3.99524 -12.47943,-0.6972 -13.14995,-11.95852 -2.43979,-26.18549 -1.20017,-53.17827 -1.50487,-79.70897 0.21111,-17.7862 0.46621,-35.57095 0.8091,-53.35053 -14.34821,0 -28.69643,0 -43.04465,0 0.0155,0.92637 0.0309,1.85273 0.0464,2.77909 z m 89.52174,0.12632 c 2.57936,58.37383 4.05693,116.88354 5.51973,175.37748 7.61477,0 15.22952,0 22.84428,0 0.18563,-19.07491 0.38776,-38.1493 0.57981,-57.22401 15.85348,19.6202 31.17291,40.69052 46.17559,62.2348 0.616,-61.14585 1.88448,-122.27056 4.12821,-183.29368 -8.73572,0 -17.47144,0 -26.20715,0 0.59535,11.98727 1.11985,23.99964 1.11323,36.04397 -7.2414,-11.74311 -14.0372,-25.51798 -21.54552,-36.04397 -10.90805,0 -21.81609,0 -32.72414,0 0.0387,0.96847 0.0773,1.93694 0.11596,2.90541 z m 167.37783,-0.0421 c 2.45773,58.38054 3.80068,116.88803 4.49928,175.41958 19.6283,0 39.25659,0 58.8849,0 0.64011,-13.66465 2.63354,-27.05622 4.47608,-40.38103 -8.27091,3.90637 -16.81063,4.66735 -25.32584,5.47397 1.18272,-47.79196 2.3661,-95.58385 3.5484,-143.37583 -15.39959,0 -30.79919,0 -46.19878,0 0.0386,0.95443 0.0773,1.90888 0.11596,2.86331 z m 67.21088,0 c 2.25755,58.39886 2.9769,116.93629 4.26736,175.41958 19.38092,0 38.76184,0 58.14275,0 1.53489,-13.58186 3.30486,-27.0346 5.21824,-40.50735 -8.18315,4.79027 -16.8121,4.31369 -25.34904,5.1371 1.24361,-6.02818 -1.9886,-20.55623 2.89902,-19.66417 5.48508,-0.0634 10.96611,0.69062 16.30409,2.8212 0.89094,-12.76427 2.51789,-25.13035 4.47609,-37.47562 -7.54213,0.47938 -15.08814,0.84022 -22.63555,0.75793 1.31327,-4.7191 -1.74523,-18.36422 3.06053,-15.97883 6.42448,0.38818 12.65304,1.916 18.97202,3.72557 0.96505,-25.6987 1.94415,-51.39607 2.87583,-77.09872 -22.7747,0 -45.5494,0 -68.32411,0 0.0309,0.95443 0.0619,1.90888 0.0928,2.86331 z"
       id="text4209"
       inkscape:connector-curvature="0" />
    <g
       transform="matrix(0.74214917,0,0,1.347438,-2,2)"
       style="font-size:171.08665466px;font-style:normal;font-variant:normal;font-weight:normal;font-stretch:normal;line-height:125%;letter-spacing:0px;word-spacing:0px;fill:#deaa87;fill-opacity:1;stroke:none;font-family:Showcard Gothic;-inkscape-font-specification:Showcard Gothic"
       id="text4205">
      <path
         d="m 280.28725,393.29243 c -0.66838,10.52596 -1.5873,29.40562 -2.75677,56.63904 -0.77976,22.88957 -0.94684,43.078 -0.50123,60.56534 -12.19667,9.24492 -25.67418,13.86738 -40.43259,13.86738 -8.01971,0 -16.62415,-0.91893 -25.81337,-2.75677 -0.22277,-2.28338 -0.724,-6.32106 -1.50369,-12.11307 -0.50123,-3.11875 -1.19738,-7.40705 -2.08846,-12.86491 1.72646,0.77971 6.12615,1.9771 13.19907,3.59215 3.73137,0.61264 7.21213,0.66833 10.4423,0.16708 -0.0557,-5.5692 -0.91894,-22.38825 -2.58969,-50.4572 -1.05817,-15.59375 -2.92386,-34.47341 -5.59707,-56.63904 z"
         style=""
         id="path4245" />
      <path
         d="m 400.41548,393.29243 -1.92139,54.04935 c -0.55703,15.42682 -0.83549,38.76186 -0.83538,70.00518 -14.25732,5.12369 -28.79299,7.68553 -43.60705,7.68554 -18.26711,-10e-6 -32.16232,-3.64785 -41.68566,-10.94353 -8.0754,-6.18183 -13.78385,-15.81659 -17.12537,-28.90429 -1.94924,-7.51842 -3.78709,-21.27439 -5.51354,-41.26798 -1.67077,-18.48973 -2.70108,-35.36447 -3.09092,-50.62427 l 53.88227,0 c -0.27852,7.3515 -0.61267,19.32533 -1.00246,35.92152 -0.16713,9.245 -0.11144,22.36051 0.16708,39.34658 0.0556,12.92065 1.16948,21.63648 3.34153,26.14753 2.28332,4.78955 6.85009,7.18432 13.7003,7.1843 1.94916,2e-5 4.12115,-0.5569 6.516,-1.67077 -8e-5,-11.47257 -0.33424,-29.71178 -1.00246,-54.71766 -0.557,-12.53067 -1.58731,-29.93448 -3.09092,-52.2115 z"
         style=""
         id="path4247" />
      <path
         d="m 509.93434,393.29243 c -0.7798,11.24996 -1.8658,30.88146 -3.258,58.89458 -0.83549,20.60619 -1.53164,44.30322 -2.08846,71.09118 -7.29578,-5.7363 -18.40638,-14.28505 -33.33183,-25.64629 -6.46036,-4.51105 -16.09511,-11.27765 -28.90428,-20.29983 l -0.83539,44.27535 -26.89936,0 c -0.44555,-11.30552 -1.47586,-32.63564 -3.09093,-63.99042 -1.39231,-25.39558 -2.81246,-46.83709 -4.26045,-64.32457 l 41.93628,0 31.07628,29.40552 c -7e-5,-6.73866 -0.11146,-12.02942 -0.33415,-15.8723 -0.16715,-3.39711 -0.50131,-7.90818 -1.00246,-13.53322 z"
         style=""
         id="path4249" />
      <path
         d="m 628.55887,466.72269 c -0.55704,4.73389 -1.39242,13.67249 -2.50615,26.81583 -0.55704,7.85263 -1.08611,17.15323 -1.58723,27.90183 -7.46287,2.17199 -18.3507,3.25799 -32.66352,3.25799 -21.2745,0 -38.56694,-4.78953 -51.87735,-14.3686 -15.70523,-11.4169 -23.55783,-28.40302 -23.55783,-50.95843 0,-21.60852 6.87799,-38.48326 20.63399,-50.62427 12.92057,-11.4168 29.93454,-17.12525 51.04196,-17.12538 7.96392,1.3e-4 16.51267,0.61275 25.64629,1.83785 l 4.59462,52.71273 c -3.67579,-1.39223 -8.91086,-2.08838 -15.70522,-2.08846 -8.63239,8e-5 -16.4293,2.64546 -23.39076,7.93615 -7.79697,5.95914 -11.69543,13.53328 -11.69537,22.72245 -6e-5,8.68803 3.31363,15.39894 9.94107,20.13275 5.56915,4.00987 12.0016,5.9034 19.29737,5.68061 l -1.33662,-16.79122 c -0.33423,-3.45288 -1.08608,-9.13348 -2.25553,-17.04183 z"
         style=""
         id="path4251" />
      <path
         d="m 719.53218,496.29528 c -0.55701,2.22772 -1.58732,6.43248 -3.09092,12.6143 -0.77978,3.62001 -1.44808,7.85262 -2.00492,12.69784 l -75.60226,0 c -0.27847,-13.08767 -0.97462,-34.64056 -2.08846,-64.65872 -0.72401,-15.37099 -2.03277,-36.58972 -3.9263,-63.65627 l 57.97565,0 -4.76169,106.42793 c 5.40209,2e-5 13.50531,-0.58475 24.30968,-1.75431 2.2276,-0.22274 5.29068,-0.77966 9.18922,-1.67077 z"
         style=""
         id="path4253" />
      <path
         d="m 811.17381,393.29243 -3.59215,52.87981 c -2.0607,-0.33408 -6.51607,-0.91884 -13.36614,-1.7543 -4.67822,-0.44547 -9.80191,-0.72393 -15.37107,-0.83539 l -1.25308,15.95584 c 6.12609,0.16714 16.12284,0.0279 29.99029,-0.4177 -0.6127,2.06068 -1.58731,5.90344 -2.92384,11.5283 -0.77978,3.39728 -1.47593,7.32358 -2.08846,11.77892 -1.61516,-0.38981 -5.65284,-0.89104 -12.11307,-1.50369 -3.00745,-0.16704 -7.46283,-0.22273 -13.36615,-0.16708 l -0.83538,18.62907 c 4.17686,-0.0557 11.86239,-0.41767 23.0566,-1.086 2.11622,-0.16706 5.59699,-0.83536 10.4423,-2.00493 -0.44563,1.72649 -1.47593,5.87556 -3.09092,12.44723 -0.77978,3.39724 -1.72655,7.68554 -2.84031,12.86491 l -74.76687,0 -2.42261,-65.49411 c -0.44555,-14.98114 -1.53155,-35.92141 -3.258,-62.82088 z"
         style=""
         id="path4255" />
    </g>
    <text
       transform="scale(0.74214917,1.347438)"
       sodipodi:linespacing="125%"
       id="text4240"
       y="814.65033"
       x="159.38792"
       style="font-size:171.08665466px;font-style:normal;font-variant:normal;font-weight:normal;font-stretch:normal;line-height:125%;letter-spacing:0px;word-spacing:0px;fill:#deaa87;fill-opacity:1;stroke:none;font-family:Showcard Gothic;-inkscape-font-specification:Showcard Gothic"
       xml:space="preserve"><tspan
         y="814.65033"
         x="159.38792"
         id="tspan4242"
         sodipodi:role="line">Jungle</tspan></text>
  </g>
</svg>
