<?xml version="1.0" encoding="UTF-8" standalone="no"?>
<!-- Created with Inkscape (http://www.inkscape.org/) -->

<svg
   xmlns:dc="http://purl.org/dc/elements/1.1/"
   xmlns:cc="http://creativecommons.org/ns#"
   xmlns:rdf="http://www.w3.org/1999/02/22-rdf-syntax-ns#"
   xmlns:svg="http://www.w3.org/2000/svg"
   xmlns="http://www.w3.org/2000/svg"
   xmlns:xlink="http://www.w3.org/1999/xlink"
   xmlns:sodipodi="http://sodipodi.sourceforge.net/DTD/sodipodi-0.dtd"
   xmlns:inkscape="http://www.inkscape.org/namespaces/inkscape"
   width="744.09448819"
   height="1052.3622047"
   id="svg3814"
   version="1.1"
   inkscape:version="0.48.2 r9819"
   sodipodi:docname="gardinfilter.svg">
  <defs
     id="defs3816">
    <inkscape:path-effect
       bendpath-nodetypes="cc"
       vertical="false"
       scale_y_rel="false"
       prop_scale="1"
       bendpath="m 387.42264,614.03476 c 75.68976,-1.67432 160.87687,-3.34863 241.3153,-5.02295"
       is_visible="true"
       id="path-effect3798"
       effect="bend_path" />
    <linearGradient
       id="linearGradient3786">
      <stop
         style="stop-color:#000000;stop-opacity:1;"
         offset="0"
         id="stop3788" />
      <stop
         style="stop-color:#a60000;stop-opacity:1;"
         offset="1"
         id="stop3790" />
    </linearGradient>
    <inkscape:path-effect
       effect="bend_path"
       id="path-effect3784"
       is_visible="true"
       bendpath="m 387.42264,614.03476 c 75.68976,-1.67432 160.87687,-3.34863 241.3153,-5.02295"
       prop_scale="1"
       scale_y_rel="false"
       vertical="false"
       bendpath-nodetypes="cc" />
    <inkscape:path-effect
       effect="bend_path"
       id="path-effect3782"
       is_visible="true"
       bendpath="M -5.6233634,616.54624 C 68.478002,615.65726 150.35086,611.02907 226.90177,603.98886"
       prop_scale="1"
       scale_y_rel="false"
       vertical="false"
       bendpath-nodetypes="cc" />
    <inkscape:path-effect
       effect="bend_path"
       id="path-effect3780"
       is_visible="true"
       bendpath="m 200.74785,487.90793 c 61.29596,4.1535 122.35823,2.62051 192.47108,0"
       prop_scale="1"
       scale_y_rel="false"
       vertical="false"
       bendpath-nodetypes="cc" />
    <filter
       id="filter4332"
       inkscape:menu-tooltip="Draws a black outline around"
       inkscape:menu="ABCs"
       inkscape:label="Black outline"
       color-interpolation-filters="sRGB">
      <feTurbulence
         id="feTurbulence4340"
         baseFrequency=".08 0.0025" />
      <feConvolveMatrix
         id="feConvolveMatrix4342"
         kernelMatrix="0 0 0  0 1 0  0 0 0"
         bias="0"
         result="test" />
      <feColorMatrix
         id="feColorMatrix4358"
         type="saturate"
         result="color"
         in="test" />
      <feSpecularLighting
         id="feSpecularLighting4344"
         in="color"
         result="result1"
         specularConstant="1.02999997"
         surfaceScale="1.60000002">
        <feDistantLight
           id="feDistantLight4346"
           azimuth="0"
           elevation="15" />
      </feSpecularLighting>
      <feComposite
         id="feComposite4354"
         in2="result1"
         in="SourceGraphic"
         operator="in" />
    </filter>
    <linearGradient
       inkscape:collect="always"
       xlink:href="#linearGradient3786"
       id="linearGradient3792"
       x1="320.06564"
       y1="470.32681"
       x2="320.06564"
       y2="506.81046"
       gradientUnits="userSpaceOnUse" />
    <linearGradient
       inkscape:collect="always"
       xlink:href="#linearGradient3786"
       id="linearGradient3830"
       gradientUnits="userSpaceOnUse"
       x1="320.06564"
       y1="470.32681"
       x2="320.06564"
       y2="504.29898"
       gradientTransform="matrix(0.30291163,0,0,1,203.79087,5.0229522)" />
  </defs>
  <sodipodi:namedview
     id="base"
     pagecolor="#ffffff"
     bordercolor="#666666"
     borderopacity="1.0"
     inkscape:pageopacity="0.0"
     inkscape:pageshadow="2"
     inkscape:zoom="0.79634443"
     inkscape:cx="673.37724"
     inkscape:cy="578.33741"
     inkscape:document-units="px"
     inkscape:current-layer="layer1"
     showgrid="false"
     inkscape:window-width="1280"
     inkscape:window-height="962"
     inkscape:window-x="-8"
     inkscape:window-y="-8"
     inkscape:window-maximized="0" />
  <metadata
     id="metadata3819">
    <rdf:RDF>
      <cc:Work
         rdf:about="">
        <dc:format>image/svg+xml</dc:format>
        <dc:type
           rdf:resource="http://purl.org/dc/dcmitype/StillImage" />
        <dc:title />
      </cc:Work>
    </rdf:RDF>
  </metadata>
  <g
     inkscape:label="Layer 1"
     inkscape:groupmode="layer"
     id="layer1">
    <path
       style="fill:url(#linearGradient3830);fill-opacity:1;fill-rule:nonzero;stroke:none"
       d="m 200.74785,484.76859 192.47108,0 0,6.27869 -192.47108,0 z"
       id="rect3777"
       inkscape:connector-curvature="0" />
    <rect
       style="fill:#800000;fill-opacity:1;fill-rule:nonzero;stroke:none;filter:url(#filter4332)"
       id="rect3822"
       width="298.57144"
       height="200"
       x="32.237854"
       y="99.197052" />
    <path
       style="fill:#800000;stroke:none;filter:url(#filter4332)"
       d="m -4.4058573,718.03206 c 0.7631707,-79.63391 1.369716,-159.26684 1.8210117,-238.89852 8.1283145,0.1845 16.2659866,0.32677 24.4126056,0.42813 0,0 -0.48509,-0.65416 0.906795,-1.35409 1.391885,-0.69993 4.657666,-1.43847 12.169069,-1.65804 15.022807,-0.43914 25.287285,-2.62275 35.755142,-0.40858 5.233928,1.10707 5.306789,2.65435 6.289876,3.49847 0.983087,0.84412 2.88254,0.99328 11.778304,-0.78403 8.895765,-1.77732 13.055564,-3.56936 17.236254,-4.91615 4.18068,-1.34678 8.37928,-2.24869 17.36778,-2.36471 8.9885,-0.116 15.1706,0.13115 20.64916,0.4184 5.47857,0.28726 10.25375,0.6123 16.4362,0.59493 6.18245,-0.0174 9.2429,-0.4813 12.31944,-0.72373 3.07654,-0.24244 6.16841,-0.26345 12.43767,0.55466 12.53852,1.63622 23.70094,-2.04634 23.70094,-2.04634 0,0 0.27476,18.92044 0.87896,41.93364 0.6042,23.0132 1.53054,50.1198 2.97832,66.48319 1.44778,16.36339 5.94944,33.57093 10.23667,47.78325 4.28722,14.21232 8.34917,25.43036 8.75576,29.85141 0.4066,4.42105 -0.41482,22.9995 -1.38822,40.47395 -0.97341,17.47444 -2.09601,33.84446 -2.09601,33.84446 0,0 -4.9941,4.69004 -14.30738,9.26813 -9.31328,4.57809 -22.97105,9.04122 -40.13546,8.50647 -17.1644,-0.53474 -27.30695,-4.8032 -33.12812,-8.88869 -5.82117,-4.08548 -7.34298,-8.00171 -7.34298,-8.00171 0,0 2.44102,1.85733 -2.07852,4.12727 -2.25977,1.13497 -6.26102,2.37475 -13.19,3.50641 -6.92897,1.13166 -16.78622,2.1603 -30.762668,2.78516 -13.976449,0.62486 -23.950097,-0.40726 -31.015244,-2.24898 -7.065146,-1.84173 -11.226647,-4.49699 -13.63498,-7.20231 -4.816668,-5.41065 -2.643112,-11.02711 -2.643112,-11.02711 0,0 -5.806968,4.39148 -14.295259,6.14316 -8.488291,1.75168 -19.6745381,0.85082 -30.1120043,-9.6781 0,0 0,0 0,0 z"
       id="path4356"
       inkscape:connector-curvature="0"
       transform="matrix(-1,0,0,1,201.1866,0)"
       inkscape:path-effect="#path-effect3782"
       inkscape:original-d="m 6.934017,710.50493 4.4397,-238.8561 23.08647,0.88794 c 0,0 -1.77588,-2.66382 12.43117,-2.66382 14.20705,0 23.9744,-1.77589 33.74175,0.88794 9.76735,2.66382 0,6.21558 16.87088,3.55176 16.870883,-2.66382 15.982943,-6.21559 32.853823,-5.32765 16.87087,0.88795 23.08646,2.66383 34.62969,3.55177 11.54323,0.88794 11.54323,-0.88794 23.08646,1.77588 11.54324,2.66382 22.19853,0 22.19853,0 0,0 -5.32765,75.47498 -5.32765,108.32879 0,32.85381 10.65529,70.14733 10.65529,79.02674 0,8.87941 -8.87941,73.6991 -8.87941,73.6991 0,0 -18.64676,16.87088 -47.94881,13.31911 -29.30205,-3.55176 -33.74175,-19.5347 -33.74175,-19.5347 0,0 7.99147,7.99147 -39.957343,7.99147 -47.94881,0 -39.95734,-22.19852 -39.95734,-22.19852 0,0 -20.42264,16.87087 -38.18146,-4.43971 z" />
    <text
       xml:space="preserve"
       style="font-size:56px;font-style:normal;font-variant:normal;font-weight:bold;font-stretch:normal;line-height:125%;letter-spacing:0px;word-spacing:0px;fill:#008080;fill-opacity:1;stroke:#000000;stroke-width:2;stroke-miterlimit:4;stroke-dasharray:none;filter:url(#filter4332);font-family:Shit Happens;-inkscape-font-specification:Helvetica LT Std Bold"
       x="193.38365"
       y="852.69983"
       id="text2999"
       sodipodi:linespacing="125%"
       transform="matrix(2.0801513,0,0,2.0801513,-428.52759,-1327.265)"><tspan
         sodipodi:role="line"
         id="tspan3001"
         x="193.38365"
         y="852.69983"
         style="font-weight:bold;fill:#008080;stroke:#000000;stroke-width:2;stroke-miterlimit:4;stroke-dasharray:none;font-family:Helvetica LT Std;-inkscape-font-specification:Helvetica LT Std Bold">Gardinfilter</tspan></text>
    <path
       inkscape:connector-curvature="0"
       id="path3775"
       d="m 389.6672,715.50306 c -0.0531,-79.637 -0.0974,-159.2741 -0.13316,-238.91129 8.93146,0.0995 17.86061,0.20148 26.78749,0.30561 0,0 -2.11349,-2.62114 14.35158,-2.97126 16.46506,-0.35012 27.74213,-2.36144 39.10894,0.0669 11.36681,2.42835 0.13199,6.21257 19.60768,3.14713 19.47569,-3.06543 18.37594,-6.59479 37.91149,-6.10524 19.53553,0.48957 26.75726,2.11914 40.11949,2.73452 13.36222,0.61538 13.32572,-1.15991 26.7181,1.22942 13.39239,2.38933 25.64338,-0.52919 25.64338,-0.52919 0,0 -4.59194,75.58633 -3.91228,108.43311 0.67965,32.84678 13.77905,69.87649 13.96383,78.75398 0.18479,8.87749 -8.74818,73.89662 -8.74818,73.89662 0,0 -21.25102,17.31468 -55.21995,14.45494 -33.96892,-2.85972 -39.41684,-18.73507 -39.41684,-18.73507 0,0 2.35019,1.95027 -2.22793,4.04207 -4.57811,2.0918 -16.08879,4.32261 -43.78076,4.8962 -27.69196,0.57359 -39.33416,-4.72758 -44.06469,-10.17789 -4.73053,-5.45031 -2.54256,-11.04767 -2.54256,-11.04767 0,0 -23.20252,17.36912 -44.16563,-3.48292 0,0 0,0 0,0 z"
       style="fill:#800000;stroke:none;stroke-width:5;stroke-linecap:butt;stroke-linejoin:miter;stroke-miterlimit:4;stroke-opacity:1;stroke-dasharray:none;filter:url(#filter4332)"
       inkscape:path-effect="#path-effect3784"
       inkscape:original-d="m 420.07183,710.50493 4.4397,-238.8561 23.08647,0.88794 c 0,0 -1.77588,-2.66382 12.43117,-2.66382 14.20705,0 23.9744,-1.77589 33.74175,0.88794 9.76735,2.66382 0,6.21558 16.87088,3.55176 16.87088,-2.66382 15.98294,-6.21559 32.85382,-5.32765 16.87087,0.88795 23.08646,2.66383 34.62969,3.55177 11.54323,0.88794 11.54323,-0.88794 23.08646,1.77588 11.54324,2.66382 22.19853,0 22.19853,0 0,0 -5.32765,75.47498 -5.32765,108.32879 0,32.85381 10.65529,70.14733 10.65529,79.02674 0,8.87941 -8.87941,73.6991 -8.87941,73.6991 0,0 -18.64676,16.87088 -47.94881,13.31911 -29.30205,-3.55176 -33.74175,-19.5347 -33.74175,-19.5347 0,0 7.99147,7.99147 -39.95734,7.99147 -47.94881,0 -39.95734,-22.19852 -39.95734,-22.19852 0,0 -20.42264,16.87087 -38.18146,-4.43971 z" />
  </g>
</svg>
