<?xml version="1.0" encoding="UTF-8" standalone="no"?>
<!-- Created with Inkscape (http://www.inkscape.org/) -->

<svg
   xmlns:dc="http://purl.org/dc/elements/1.1/"
   xmlns:cc="http://creativecommons.org/ns#"
   xmlns:rdf="http://www.w3.org/1999/02/22-rdf-syntax-ns#"
   xmlns:svg="http://www.w3.org/2000/svg"
   xmlns="http://www.w3.org/2000/svg"
   xmlns:sodipodi="http://sodipodi.sourceforge.net/DTD/sodipodi-0.dtd"
   xmlns:inkscape="http://www.inkscape.org/namespaces/inkscape"
   width="744.09448819"
   height="1052.3622047"
   id="svg4905"
   version="1.1"
   inkscape:version="0.48.4 r9939"
   sodipodi:docname="giraff.svg">
  <defs
     id="defs4907" />
  <sodipodi:namedview
     id="base"
     pagecolor="#ffffff"
     bordercolor="#666666"
     borderopacity="1.0"
     inkscape:pageopacity="0.0"
     inkscape:pageshadow="2"
     inkscape:zoom="0.49497475"
     inkscape:cx="131.93724"
     inkscape:cy="761.01502"
     inkscape:document-units="px"
     inkscape:current-layer="layer1"
     showgrid="false"
     inkscape:window-width="1366"
     inkscape:window-height="721"
     inkscape:window-x="-4"
     inkscape:window-y="24"
     inkscape:window-maximized="1" />
  <metadata
     id="metadata4910">
    <rdf:RDF>
      <cc:Work
         rdf:about="">
        <dc:format>image/svg+xml</dc:format>
        <dc:type
           rdf:resource="http://purl.org/dc/dcmitype/StillImage" />
        <dc:title></dc:title>
      </cc:Work>
    </rdf:RDF>
  </metadata>
  <g
     inkscape:label="Layer 1"
     inkscape:groupmode="layer"
     id="layer1">
    <path
       style="fill:#ffff00;stroke:#000000;stroke-width:5;stroke-linecap:square;stroke-linejoin:miter;stroke-miterlimit:4;stroke-opacity:1;stroke-dasharray:none;stroke-dashoffset:18"
       d="m 442.04241,-119.04428 c -61.70099,1.63697 13.34415,54.088569 3.88254,102.980761 -27.30724,141.108269 26.82853,296.573449 -44.33805,415.298059 -63.94841,-15.94218 -170.47711,10.28523 -183.4375,79.16625 -3.9752,24.94691 6.98772,48.98545 3.56227,73.9646 -0.57056,26.66987 -1.14111,53.33974 -1.71167,80.00961 22.85417,0.94792 45.70833,1.89583 68.5625,2.84375 -0.93945,-18.34374 4.04826,-32.21264 1.3861,-47.13492 35.59652,14.00869 78.1676,14.57968 110.36385,1.04107 -1.05208,15.36458 -2.10417,30.72917 -3.15625,46.09375 22.85417,-0.94792 45.70833,-1.89583 68.5625,-2.84375 0.27347,-46.45227 -6.03862,-93.35692 3.14981,-139.21977 13.36973,-142.73207 19.11289,-286.07635 22.56879,-429.37398 43.51658,9.342432 90.21777,-6.874528 133.92384,-21.752769 50.54988,-79.702749 -90.94881,-96.220616 -138.39871,-64.376066 -59.08115,-48.728929 16.78097,-98.333565 -44.92002,-96.696595 z"
       id="path4913"
       inkscape:connector-curvature="0"
       sodipodi:nodetypes="zscccccccccccccz" />
    <path
       id="path4923"
       d="m -665.72768,386.65625 c -8.67876,0 -17.16079,0.76075 -25.34375,2.1875 -1.01279,0.17679 -2.02749,0.36509 -3.03125,0.5625 -7.09551,1.39563 -13.98349,3.28498 -20.5625,5.65625 -0.93079,0.33564 -1.86208,0.70843 -2.78125,1.0625 -1.85601,0.71509 -3.69339,1.46143 -5.5,2.25 -0.89474,0.39068 -1.80535,0.81046 -2.6875,1.21875 -3.56185,1.64893 -7.03176,3.41884 -10.375,5.34375 -0.82814,0.47691 -1.65483,0.9756 -2.46875,1.46875 -0.82132,0.49778 -1.66224,1.01721 -2.46875,1.53125 -0.79924,0.50949 -1.59063,1.03731 -2.375,1.5625 -0.79137,0.53003 -1.5991,1.07926 -2.375,1.625 -3.09705,2.17864 -6.06873,4.48859 -8.90625,6.90625 -0.71072,0.60577 -1.43139,1.22368 -2.125,1.84375 -1.38166,1.23524 -2.71945,2.52218 -4.03125,3.8125 -0.65308,0.64262 -1.30223,1.28163 -1.9375,1.9375 -0.6456,0.66654 -1.27938,1.32006 -1.90625,2 -3.73259,4.04699 -7.12869,8.35739 -10.15625,12.84375 -1.00876,1.49545 -1.98108,2.99146 -2.90625,4.53125 -8.79303,14.62801 -13.75,31.21416 -13.75,48.78125 0,1.32397 0.0379,2.62515 0.0937,3.9375 0.0545,1.28101 0.14319,2.57459 0.25,3.84375 0.004,0.0515 -0.004,0.10473 0,0.15625 0.10127,1.17975 0.22928,2.3624 0.375,3.53125 0.0261,0.20914 0.0662,0.41622 0.0937,0.625 0.13811,1.04905 0.26412,2.08533 0.4375,3.125 0.0312,0.18735 0.0614,0.37547 0.0937,0.5625 0.1846,1.06614 0.40385,2.13182 0.625,3.1875 0.0285,0.13606 0.0646,0.27037 0.0937,0.40625 0.22453,1.04827 0.45872,2.08761 0.71875,3.125 0.0917,0.36566 0.18522,0.72949 0.28125,1.09375 0.28066,1.06455 0.58873,2.13519 0.90625,3.1875 0.13221,0.43778 0.26775,0.87693 0.40625,1.3125 0.1822,0.5735 0.36946,1.14911 0.5625,1.71875 0.0738,0.21774 0.14333,0.43909 0.21875,0.65625 l -2.3125,108.125 68.5625,2.84375 -3.15625,-46.09375 c 0.0601,0.0264 0.12735,0.0362 0.1875,0.0625 0.99646,0.43554 1.98832,0.86793 3,1.28125 0.0216,0.009 0.0409,0.0224 0.0625,0.0312 0.81391,0.33204 1.64526,0.6513 2.46875,0.96875 0.91736,0.35338 1.85225,0.69624 2.78125,1.03125 0.88033,0.31746 1.76575,0.63677 2.65625,0.9375 0.40404,0.13648 0.81267,0.27325 1.21875,0.40625 0.40497,0.13258 0.81177,0.2459 1.21875,0.375 0.6543,0.20768 1.30934,0.42639 1.96875,0.625 0.40919,0.12313 0.80763,0.25538 1.21875,0.375 1.08629,0.31641 2.18178,0.61469 3.28125,0.90625 0.41319,0.10943 0.835,0.20661 1.25,0.3125 0.80863,0.20657 1.6221,0.40077 2.4375,0.59375 0.17633,0.0417 0.35461,0.0839 0.53125,0.125 0.67568,0.15718 1.35108,0.32098 2.03125,0.46875 0.82926,0.18003 1.66425,0.33409 2.5,0.5 0.4387,0.0872 0.87204,0.16677 1.3125,0.25 0.39672,0.0749 0.78939,0.14703 1.1875,0.21875 0.65519,0.11808 1.30984,0.23441 1.96875,0.34375 0.48167,0.0799 0.95389,0.1748 1.4375,0.25 1.18588,0.18455 2.36524,0.34404 3.5625,0.5 0.0526,0.007 0.10366,0.0245 0.15625,0.0312 0.98874,0.12772 2.00383,0.23579 3,0.34375 1.04645,0.11344 2.10198,0.2211 3.15625,0.3125 0.86475,0.075 1.72395,0.15877 2.59375,0.21875 0.48845,0.0336 0.97873,0.065 1.46875,0.0937 0.36761,0.0217 0.72528,0.0435 1.09375,0.0625 0.11374,0.006 0.22993,-0.006 0.34375,0 1.16291,0.0571 2.32881,0.095 3.5,0.125 1.2758,0.0326 2.55865,0.0625 3.84375,0.0625 0.0104,0 0.0208,0 0.0312,0 1.2851,0 2.56795,-0.0299 3.84375,-0.0625 1.17119,-0.03 2.33709,-0.0679 3.5,-0.125 0.11395,-0.006 0.22988,0.006 0.34375,0 0.3631,-0.0187 0.73149,-0.0412 1.09375,-0.0625 0.49387,-0.0291 0.97645,-0.0598 1.46875,-0.0937 0.8737,-0.0601 1.7252,-0.14355 2.59375,-0.21875 1.05427,-0.0914 2.1098,-0.19906 3.15625,-0.3125 2.73316,-0.2962 5.44962,-0.68164 8.125,-1.125 0.66998,-0.11098 1.33386,-0.22375 2,-0.34375 0.39969,-0.072 0.78922,-0.14349 1.1875,-0.21875 0.43937,-0.083 0.87487,-0.16312 1.3125,-0.25 0.83575,-0.16591 1.67074,-0.31997 2.5,-0.5 0.67845,-0.14729 1.35726,-0.31211 2.03125,-0.46875 0.17703,-0.0412 0.35453,-0.0832 0.53125,-0.125 0.81325,-0.19229 1.63098,-0.38796 2.4375,-0.59375 1.93541,-0.49441 3.85508,-1.02301 5.75,-1.59375 0.66282,-0.19946 1.31111,-0.41638 1.96875,-0.625 0.40482,-0.12849 0.81592,-0.24306 1.21875,-0.375 0.40822,-0.13365 0.8126,-0.26909 1.21875,-0.40625 0.8905,-0.30073 1.77592,-0.62004 2.65625,-0.9375 0.929,-0.33501 1.86389,-0.67787 2.78125,-1.03125 0.84511,-0.32578 1.69624,-0.65886 2.53125,-1 1.0111,-0.41286 2.0042,-0.84619 3,-1.28125 0.0602,-0.0263 0.1274,-0.0361 0.1875,-0.0625 l -3.15625,46.09375 68.5625,-2.84375 -2.3125,-108.125 c 0.0756,-0.2179 0.14471,-0.43778 0.21875,-0.65625 0.19307,-0.56926 0.38024,-1.14558 0.5625,-1.71875 0.23336,-0.7345 0.47211,-1.47808 0.6875,-2.21875 0.22087,-0.75908 0.42321,-1.51582 0.625,-2.28125 0.0964,-0.36548 0.18929,-0.72687 0.28125,-1.09375 0.55615,-2.21835 1.04503,-4.45168 1.4375,-6.71875 0.0326,-0.18814 0.0623,-0.37404 0.0937,-0.5625 0.17338,-1.03967 0.29939,-2.07595 0.4375,-3.125 0.0276,-0.20935 0.0676,-0.41529 0.0937,-0.625 0.14648,-1.17293 0.2733,-2.34742 0.375,-3.53125 0.004,-0.0512 -0.004,-0.10498 0,-0.15625 0.10681,-1.26916 0.19549,-2.56274 0.25,-3.84375 0.0558,-1.31235 0.0937,-2.61353 0.0937,-3.9375 0,-17.56709 -4.95697,-34.15324 -13.75,-48.78125 -0.92517,-1.53979 -1.89749,-3.0358 -2.90625,-4.53125 -3.02756,-4.48636 -6.42366,-8.79676 -10.15625,-12.84375 -0.62687,-0.67994 -1.26065,-1.33346 -1.90625,-2 -1.91628,-1.97845 -3.89338,-3.89457 -5.96875,-5.75 -0.006,-0.005 -0.0254,0.005 -0.0312,0 -3.46306,-3.09483 -7.12695,-6.02548 -11,-8.75 -0.007,-0.005 -0.0243,0.005 -0.0312,0 -1.54518,-1.08649 -3.1129,-2.16381 -4.71875,-3.1875 -0.007,-0.005 -0.0239,0.005 -0.0312,0 -1.60599,-1.02331 -3.24221,-2.04171 -4.90625,-3 -0.008,-0.005 -0.0234,0.005 -0.0312,0 -0.82815,-0.47669 -1.65796,-0.94607 -2.5,-1.40625 -0.008,-0.004 -0.0232,0.004 -0.0312,0 -0.84214,-0.46 -1.67555,-0.93178 -2.53125,-1.375 -0.008,-0.004 -0.023,0.004 -0.0312,0 -0.85579,-0.44303 -1.72472,-0.88653 -2.59375,-1.3125 -0.008,-0.004 -0.0228,0.004 -0.0312,0 -1.74662,-0.85569 -3.51437,-1.68361 -5.3125,-2.46875 -0.009,-0.004 -0.0225,0.004 -0.0312,0 -0.89471,-0.39044 -1.78052,-0.78368 -2.6875,-1.15625 -0.009,-0.004 -0.0223,0.004 -0.0312,0 -1.82313,-0.74845 -3.66053,-1.48167 -5.53125,-2.15625 -0.009,-0.003 -0.022,0.003 -0.0312,0 -0.93079,-0.33542 -1.87042,-0.65203 -2.8125,-0.96875 -0.009,-0.003 -0.0219,0.003 -0.0312,0 -0.94221,-0.31654 -1.89057,-0.63993 -2.84375,-0.9375 -0.009,-0.003 -0.0218,0.003 -0.0312,0 -0.95326,-0.29737 -1.91109,-0.59687 -2.875,-0.875 -0.01,-0.003 -0.0216,0.003 -0.0312,0 -0.96399,-0.27793 -1.93193,-0.55409 -2.90625,-0.8125 -0.01,-0.003 -0.0215,0.003 -0.0312,0 -0.97441,-0.25821 -1.95309,-0.51158 -2.9375,-0.75 -0.01,-0.002 -0.0214,0.002 -0.0312,0 -0.9845,-0.23822 -1.97457,-0.46935 -2.96875,-0.6875 -0.01,-0.002 -0.0213,0.002 -0.0312,0 -1.99852,-0.43808 -3.99557,-0.83216 -6.03125,-1.1875 -0.0101,-0.002 -0.0212,0.002 -0.0312,0 -1.01291,-0.17659 -2.04088,-0.34431 -3.0625,-0.5 -0.0102,-0.002 -0.0211,0.002 -0.0312,0 -1.02167,-0.15548 -2.03244,-0.33444 -3.0625,-0.46875 -0.0102,-0.001 -0.0211,10e-4 -0.0312,0 -1.03024,-0.13411 -2.08669,-0.23108 -3.125,-0.34375 -0.0103,-0.001 -0.021,10e-4 -0.0312,0 -1.03836,-0.11245 -2.07889,-0.22177 -3.125,-0.3125 -0.0104,-9e-4 -0.0208,9e-4 -0.0312,0 -1.04615,-0.0905 -2.07143,-0.18148 -3.125,-0.25 -0.0103,-6.7e-4 -0.021,6.7e-4 -0.0312,0 -1.05382,-0.0683 -2.12658,-0.14146 -3.1875,-0.1875 -0.0104,-4.5e-4 -0.0209,4.5e-4 -0.0312,0 -1.06096,-0.0458 -2.11976,-0.0705 -3.1875,-0.0937 -0.0104,-2.2e-4 -0.0209,2.2e-4 -0.0312,0 -1.07826,-0.0233 -2.16516,-0.0312 -3.25,-0.0312 z"
       style="fill:none;stroke:#000000;stroke-width:5;stroke-linecap:square;stroke-linejoin:miter;stroke-miterlimit:4;stroke-opacity:1;stroke-dasharray:none;stroke-dashoffset:18"
       inkscape:connector-curvature="0" />
    <path
       inkscape:connector-curvature="0"
       id="path4925"
       d="m -540,489.50504 c 17.14286,-148.57143 22.85714,-425.714286 22.85714,-425.714286 0,0 148.57143,39.999996 148.57143,-14.285714 0,-54.2857145 -154.28571,-65.714286 -154.28571,-65.714286 0,0 28.57142,-108.571424 -22.85715,-111.428574 -51.42857,-2.85714 -45.71428,108.571431 -45.71428,108.571431 0,0 -25.71429,134.285719 -22.85715,228.571429 2.85715,94.28571 11.42858,211.42857 11.42858,211.42857 z"
       style="fill:none;stroke:#000000;stroke-width:1px;stroke-linecap:butt;stroke-linejoin:miter;stroke-opacity:1" />
    <path
       sodipodi:nodetypes="sczcccscccccccccccccccccccccccccccccccsccccccccccccccscccsscccccccccccccccccccscsccccccccccccccccccsccccsssscccccccccssccccccsscccccccccccccsscccsscccscss"
       inkscape:connector-curvature="0"
       id="path4928"
       d="m 1106.2143,-127.6875 c -48.8823,0.64888 -43.3438,108.625 -43.3438,108.625 0,0 11.7747,74.857499 11.4107,239.99107 -0.3639,165.13357 -26.8493,141.67585 -24.2857,179.38393 -1.3803,-0.66273 -2.7741,-1.32035 -4.1875,-1.9375 -0.01,-0.004 -0.023,0.004 -0.031,0 -0.8947,-0.39044 -1.7805,-0.78368 -2.6875,-1.15625 -0.01,-0.004 -0.022,0.004 -0.031,0 -1.8231,-0.74845 -3.6605,-1.48167 -5.5312,-2.15625 -0.01,-0.003 -0.022,0.003 -0.031,0 -0.9308,-0.33542 -1.8704,-0.65203 -2.8125,-0.96875 -0.01,-0.003 -0.022,0.003 -0.031,0 -0.9422,-0.31654 -1.8906,-0.63993 -2.8438,-0.9375 -0.01,-0.003 -0.022,0.003 -0.031,0 -0.9532,-0.29737 -1.9111,-0.59687 -2.875,-0.875 -0.01,-0.003 -0.022,0.003 -0.031,0 -0.964,-0.27793 -1.9319,-0.55409 -2.9062,-0.8125 -0.01,-0.003 -0.022,0.003 -0.031,0 -0.9744,-0.25821 -1.9531,-0.51158 -2.9375,-0.75 -0.01,-0.002 -0.021,0.002 -0.031,0 -0.9845,-0.23822 -1.9746,-0.46935 -2.9688,-0.6875 -0.01,-0.002 -0.021,0.002 -0.031,0 -1.9985,-0.43808 -3.9955,-0.83216 -6.0312,-1.1875 -0.01,-0.002 -0.021,0.002 -0.031,0 -1.0129,-0.17659 -2.0409,-0.34431 -3.0625,-0.5 -0.01,-0.002 -0.021,0.002 -0.031,0 -1.0217,-0.15548 -2.0325,-0.33444 -3.0625,-0.46875 -0.01,-10e-4 -0.021,10e-4 -0.031,0 -1.0303,-0.13411 -2.0867,-0.23108 -3.125,-0.34375 -0.01,-10e-4 -0.021,10e-4 -0.031,0 -1.0384,-0.11245 -2.0789,-0.22177 -3.125,-0.3125 -0.01,-9e-4 -0.021,9e-4 -0.031,0 -1.0462,-0.0905 -2.07144,-0.18148 -3.12501,-0.25 -0.0103,-6.7e-4 -0.021,6.7e-4 -0.0312,0 -1.05382,-0.0683 -2.12658,-0.14146 -3.1875,-0.1875 -0.0104,-4.5e-4 -0.0209,4.5e-4 -0.0312,0 -1.06096,-0.0458 -2.11976,-0.0705 -3.1875,-0.0937 -0.0104,-2.2e-4 -0.0209,2.2e-4 -0.0312,0 -1.07826,-0.0233 -2.16516,-0.0312 -3.25,-0.0312 -8.67876,0 -17.16079,0.76075 -25.34375,2.1875 -1.01279,0.17679 -2.02749,0.36509 -3.03125,0.5625 -7.09551,1.39563 -13.98349,3.28498 -20.5625,5.65625 -0.93079,0.33564 -1.86208,0.70843 -2.78125,1.0625 -1.85601,0.71509 -3.69339,1.46143 -5.5,2.25 -0.89474,0.39068 -1.80535,0.81046 -2.6875,1.21875 -3.56185,1.64893 -7.03176,3.41884 -10.375,5.34375 -0.82814,0.47691 -1.65483,0.9756 -2.46875,1.46875 -0.82132,0.49778 -1.66224,1.01721 -2.46875,1.53125 -0.79924,0.50949 -1.59063,1.03731 -2.375,1.5625 -0.79137,0.53003 -1.5991,1.07926 -2.375,1.625 -3.09705,2.17864 -6.06873,4.48859 -8.90625,6.90625 -0.71072,0.60577 -1.43139,1.22368 -2.125,1.84375 -1.38166,1.23524 -2.71945,2.52218 -4.03125,3.8125 -0.65308,0.64262 -1.30223,1.28163 -1.9375,1.9375 -0.6456,0.66654 -1.27938,1.32006 -1.90625,2 -3.73259,4.04699 -7.12869,8.35739 -10.15625,12.84375 -1.00876,1.49545 -1.98108,2.99146 -2.90625,4.53125 -8.79303,14.62801 -13.75,31.21416 -13.75,48.78125 0,1.32397 0.0379,2.62515 0.0937,3.9375 0.0545,1.28101 0.14319,2.57459 0.25,3.84375 0.004,0.0515 -0.004,0.10473 0,0.15625 0.10127,1.17975 0.22928,2.3624 0.375,3.53125 0.0261,0.20914 0.0662,0.41622 0.0937,0.625 0.13811,1.04905 0.26412,2.08533 0.4375,3.125 0.0312,0.18735 0.0614,0.37547 0.0937,0.5625 0.1846,1.06614 0.40385,2.13182 0.625,3.1875 0.0285,0.13606 0.0646,0.27037 0.0937,0.40625 0.22453,1.04827 0.45872,2.08761 0.71875,3.125 0.0917,0.36566 0.18522,0.72949 0.28125,1.09375 0.28066,1.06455 0.58873,2.13519 0.90625,3.1875 0.13221,0.43778 0.26775,0.87693 0.40625,1.3125 0.1822,0.5735 0.36946,1.14911 0.5625,1.71875 0.0738,0.21774 0.14333,0.43909 0.21875,0.65625 l -2.31315,108.1249 68.5625,2.84375 -3.15625,-46.09375 c 0.0601,0.0264 0.12735,0.0362 0.1875,0.0625 0.99646,0.43554 1.98832,0.86793 3,1.28125 0.0216,0.009 0.0409,0.0224 0.0625,0.0312 0.81391,0.33204 1.64526,0.6513 2.46875,0.96875 0.91736,0.35338 1.85225,0.69624 2.78125,1.03125 0.88033,0.31746 1.76575,0.63677 2.65625,0.9375 0.40404,0.13648 0.81267,0.27325 1.21875,0.40625 0.40497,0.13258 0.81177,0.2459 1.21875,0.375 0.6543,0.20768 1.30934,0.42639 1.96875,0.625 0.40919,0.12313 0.80763,0.25538 1.21875,0.375 1.08629,0.31641 2.18178,0.61469 3.28125,0.90625 0.41319,0.10943 0.835,0.20661 1.25,0.3125 0.80863,0.20657 1.6221,0.40077 2.4375,0.59375 0.17633,0.0417 0.35461,0.0839 0.53125,0.125 0.67568,0.15718 1.35108,0.32098 2.03125,0.46875 0.82926,0.18003 1.66425,0.33409 2.5,0.5 0.4387,0.0872 0.87204,0.16677 1.3125,0.25 0.39672,0.0749 0.78939,0.14703 1.1875,0.21875 0.65519,0.11808 1.30984,0.23441 1.96875,0.34375 0.48167,0.0799 0.95389,0.1748 1.4375,0.25 1.18588,0.18455 2.36524,0.34404 3.5625,0.5 0.0526,0.007 0.10366,0.0245 0.15625,0.0312 0.98874,0.12772 2.00383,0.23579 3,0.34375 1.04645,0.11344 2.10198,0.2211 3.15625,0.3125 0.86475,0.075 1.72395,0.15877 2.59375,0.21875 0.48845,0.0336 0.97873,0.065 1.46875,0.0937 0.36761,0.0217 0.72528,0.0435 1.09375,0.0625 0.11374,0.006 0.22993,-0.006 0.34375,0 1.16291,0.0571 2.32881,0.095 3.5,0.125 1.2758,0.0326 2.55865,0.0625 3.84375,0.0625 l 0.0312,0 c 1.2851,0 2.56795,-0.0299 3.84375,-0.0625 1.17119,-0.03 2.33709,-0.0679 3.5,-0.125 0.11395,-0.006 0.22988,0.006 0.34375,0 0.3631,-0.0187 0.73149,-0.0412 1.09375,-0.0625 0.49387,-0.0291 0.97645,-0.0598 1.46875,-0.0937 0.8737,-0.0601 1.72516,-0.14355 2.59376,-0.21875 1.0543,-0.0914 2.1098,-0.19906 3.1562,-0.3125 2.7332,-0.2962 5.4497,-0.68164 8.125,-1.125 0.67,-0.11098 1.3339,-0.22375 2,-0.34375 0.3997,-0.072 0.7893,-0.14349 1.1875,-0.21875 0.4394,-0.083 0.8749,-0.16312 1.3125,-0.25 0.8358,-0.16591 1.6708,-0.31997 2.5,-0.5 0.6785,-0.14729 1.3573,-0.31211 2.0313,-0.46875 0.177,-0.0412 0.3545,-0.0832 0.5312,-0.125 0.8133,-0.19229 1.631,-0.38796 2.4375,-0.59375 1.9354,-0.49441 3.8551,-1.02301 5.75,-1.59375 0.6629,-0.19946 1.3111,-0.41638 1.9688,-0.625 0.4048,-0.12849 0.8159,-0.24306 1.2187,-0.375 0.4083,-0.13365 0.8126,-0.26909 1.2188,-0.40625 0.8905,-0.30073 1.7759,-0.62004 2.6562,-0.9375 0.929,-0.33501 1.8639,-0.67787 2.7813,-1.03125 0.8451,-0.32578 1.6962,-0.65886 2.5312,-1 1.0111,-0.41286 2.0042,-0.84619 3,-1.28125 0.06,-0.0263 0.1274,-0.0361 0.1875,-0.0625 l -3.1562,46.09375 68.5625,-2.84375 -2.3125,-108.125 c 0.076,-0.2179 0.1447,-0.43778 0.2187,-0.65625 0.1931,-0.56926 0.3803,-1.14558 0.5625,-1.71875 0.2334,-0.7345 0.4721,-1.47808 0.6875,-2.21875 0.2209,-0.75908 0.4232,-1.51582 0.625,-2.28125 0.096,-0.36548 0.1893,-0.72687 0.2813,-1.09375 0.5561,-2.21835 1.045,-4.45168 1.4375,-6.71875 0.033,-0.18814 0.062,-0.37404 0.094,-0.5625 0.1734,-1.03967 0.2994,-2.07595 0.4375,-3.125 0.028,-0.20935 0.068,-0.41529 0.094,-0.625 0.1465,-1.17293 0.2733,-2.34742 0.375,-3.53125 0,-0.0512 -0,-0.10498 0,-0.15625 0.1068,-1.26916 0.1955,-2.56274 0.25,-3.84375 0.056,-1.31235 0.094,-2.61353 0.094,-3.9375 0,-1.47814 -0.055,-2.94259 -0.125,-4.40625 l 0.125,0.125 c 17.1428,-148.57143 22.875,-425.71875 22.875,-425.71875 0,0 148.5625,40.00446 148.5625,-14.28125 0,-54.2857145 -154.2813,-65.71875 -154.2813,-65.71875 0,0 28.5536,-108.5491 -22.875,-111.40625 -0.8035,-0.0446 -1.5678,-0.0728 -2.3437,-0.0625 z"
       style="fill:none;stroke:#000000;stroke-width:5;stroke-linecap:square;stroke-linejoin:miter;stroke-miterlimit:4;stroke-opacity:1;stroke-dasharray:none;stroke-dashoffset:18" />
    <path
       sodipodi:nodetypes="sscccccccccccccs"
       inkscape:connector-curvature="0"
       id="path4933"
       d="m 1689.0714,-127.6875 c -38.0109,-0.3741 -40.6693,51.981609 -42.988,82.302372 -10.9593,143.307787 55.2415,325.895058 -15.9251,444.619668 -63.9484,-15.94218 -170.4771,10.28523 -183.4375,79.16625 -3.9752,24.94691 6.9877,48.98545 3.5623,73.9646 -0.5706,26.66987 -1.1411,53.33974 -1.7117,80.00961 22.8542,0.94792 45.7084,1.89583 68.5625,2.84375 -1.2373,-24.16021 -12.018,-57.90496 21.5001,-37.97847 29.9257,6.89026 62.0662,4.16058 90.2499,-8.11538 -1.0521,15.36458 -2.1042,30.72917 -3.1563,46.09375 22.8542,-0.94792 45.7084,-1.89583 68.5625,-2.84375 0.2735,-46.45227 -6.0386,-93.35692 3.1498,-139.21977 13.3698,-142.73207 19.1129,-286.07635 22.5688,-429.37398 43.5166,9.342432 90.2178,-6.874528 133.9239,-21.752769 50.5498,-79.702749 -90.9488,-96.220616 -138.3987,-64.376066 5.7877,-32.680782 21.6986,-104.865815 -26.4625,-105.339815 z"
       style="fill:none;stroke:#000000;stroke-width:5;stroke-linecap:square;stroke-linejoin:miter;stroke-miterlimit:4;stroke-opacity:1;stroke-dasharray:none;stroke-dashoffset:18" />
    <path
       style="fill:#000000;stroke:#000000;stroke-width:1px;stroke-linecap:butt;stroke-linejoin:miter;stroke-opacity:1"
       d="m 397.85714,623.07647 67.85715,-13.57143 0.71428,22.85714 -70,5 z"
       id="path4935"
       inkscape:connector-curvature="0" />
    <path
       style="fill:#000000;stroke:#000000;stroke-width:1px;stroke-linecap:butt;stroke-linejoin:miter;stroke-opacity:1"
       d="M 289.28571,629.50504 220,615.93361 l -1.42857,16.42857 67.85714,3.57143 z"
       id="path4937"
       inkscape:connector-curvature="0" />
    <path
       style="fill:#000000;stroke:#000000;stroke-width:1px;stroke-linecap:butt;stroke-linejoin:miter;stroke-opacity:1"
       d="m 400.35714,586.6479 c 8.57143,-1.25 30.75454,-20.24511 30.75454,-20.24511 -14.5949,16.16891 -18.74616,16.45723 -28.96882,23.79115 z"
       id="path4939"
       inkscape:connector-curvature="0"
       sodipodi:nodetypes="cccc" />
    <path
       sodipodi:nodetypes="cccc"
       inkscape:connector-curvature="0"
       id="path4941"
       d="m 294.74109,587.65805 c -8.57143,-1.25 -30.75454,-20.24511 -30.75454,-20.24511 14.5949,16.16891 18.74616,16.45723 28.96882,23.79115 z"
       style="fill:#000000;stroke:#000000;stroke-width:1px;stroke-linecap:butt;stroke-linejoin:miter;stroke-opacity:1" />
    <path
       inkscape:connector-curvature="0"
       style="fill:#aa8800;stroke:none;stroke-width:5;stroke-linecap:square;stroke-linejoin:miter;stroke-miterlimit:4;stroke-opacity:1;stroke-dasharray:none;stroke-dashoffset:18"
       d="m 464.65625,383.65625 c -27.89459,0 -50.5,29.83539 -50.5,66.65625 0,36.82086 22.60541,66.65625 50.5,66.65625 0.24916,0 0.50169,-0.0265 0.75,-0.0312 0.77576,-7.95215 1.88642,-15.88326 3.46875,-23.78125 3.34728,-35.73477 6.21252,-71.51132 8.6875,-107.3125 -4.11865,-1.43227 -8.44682,-2.1875 -12.90625,-2.1875 z"
       id="path4913-5" />
    <path
       sodipodi:type="arc"
       style="fill:#aa8800;fill-opacity:1;fill-rule:nonzero;stroke:none"
       id="path4964"
       sodipodi:cx="286.88333"
       sodipodi:cy="496.77829"
       sodipodi:rx="46.467018"
       sodipodi:ry="40.406101"
       d="m 333.35035,496.77829 a 46.467018,40.406101 0 1 1 -92.93404,0 46.467018,40.406101 0 1 1 92.93404,0 z" />
    <path
       sodipodi:type="arc"
       style="fill:#aa8800;fill-opacity:1;fill-rule:nonzero;stroke:none"
       id="path4966"
       sodipodi:cx="394.96964"
       sodipodi:cy="541.22498"
       sodipodi:rx="31.31473"
       sodipodi:ry="30.304577"
       d="m 426.28436,541.22498 a 31.31473,30.304577 0 1 1 -62.62945,0 31.31473,30.304577 0 1 1 62.62945,0 z" />
    <path
       inkscape:connector-curvature="0"
       style="fill:#aa8800;stroke:none"
       d="m 448.70812,101.70274 c -4.95607,-0.2274 -4.71473,1.67433 -9.1428,5.26121 1.01998,48.91097 3.61784,88.54723 2.43256,131.10989 1.1329,0.28264 2.097,0.62709 3.27078,0.68095 18.94839,0.86941 32.85999,-28.96581 34.59882,-66.86259 1.73883,-37.89678 -12.21097,-69.32005 -31.15936,-70.18946 z"
       id="path4913-2"
       sodipodi:nodetypes="sccsss" />
    <path
       style="fill:#ffffff;stroke:#000000;stroke-width:5;stroke-linecap:butt;stroke-linejoin:miter;stroke-miterlimit:4;stroke-opacity:1;stroke-dasharray:none"
       d="m 508.19732,-3.7476247 c 0,0 -57.901,-98.1100253 1.60836,-98.1100253 59.50936,0 24.12542,96.5016642 24.12542,96.5016642 z"
       id="path4989"
       inkscape:connector-curvature="0" />
    <path
       style="fill:none;stroke:#000000;stroke-width:5;stroke-linecap:butt;stroke-linejoin:miter;stroke-opacity:1;stroke-miterlimit:4;stroke-dasharray:none"
       d="m 627.85714,42.362182 c -80,-18.571429 -66.42857,-29.285715 -66.42857,-29.285715"
       id="path5499"
       inkscape:connector-curvature="0" />
    <path
       style="fill:#000000;stroke:#000000;stroke-width:0.79609817px;stroke-linecap:butt;stroke-linejoin:miter;stroke-opacity:1"
       d="m 511.15719,-5.2670091 c 0,0 -24.30779,-60.8413229 0.31043,-63.1537039 37.94527,-3.564185 17.73729,61.5453428 17.73729,61.5453428 z"
       id="path5501"
       inkscape:connector-curvature="0"
       sodipodi:nodetypes="cscc" />
    <path
       style="fill:none;stroke:#000000;stroke-width:2.38829446;stroke-linecap:butt;stroke-linejoin:miter;stroke-miterlimit:4;stroke-opacity:1;stroke-dasharray:none"
       d="m 529.66416,-97.421429 c 1.13728,-34.118501 25.02022,-34.118501 25.02022,-34.118501"
       id="path5503"
       inkscape:connector-curvature="0"
       sodipodi:nodetypes="cc" />
    <path
       style="fill:none;stroke:#000000;stroke-width:2.38829446;stroke-linecap:butt;stroke-linejoin:miter;stroke-miterlimit:4;stroke-opacity:1;stroke-dasharray:none"
       d="m 517.15404,-99.696001 c -6.8237,-31.275279 12.51012,-37.530339 12.51012,-37.530339"
       id="path5505"
       inkscape:connector-curvature="0" />
    <path
       style="fill:none;stroke:#000000;stroke-width:2.38829446;stroke-linecap:butt;stroke-linejoin:miter;stroke-miterlimit:4;stroke-opacity:1;stroke-dasharray:none"
       d="m 500.66344,-101.40192 c -18.76517,-35.82442 5.11777,-41.51083 5.11777,-41.51083"
       id="path5507"
       inkscape:connector-curvature="0" />
    <path
       style="fill:none;stroke:#000000;stroke-width:5;stroke-linecap:butt;stroke-linejoin:miter;stroke-miterlimit:4;stroke-opacity:1;stroke-dasharray:none"
       d="M 223.19295,457.55565 C 235.153,422.46585 193.6684,376.46512 181.7049,277.03421"
       id="path5532"
       inkscape:connector-curvature="0"
       sodipodi:nodetypes="cc" />
    <path
       style="fill:none;stroke:#000000;stroke-width:15;stroke-linecap:butt;stroke-linejoin:bevel;stroke-miterlimit:4;stroke-opacity:1;stroke-dasharray:none"
       d="m 161.33725,228.01699 21.42857,54.28572 13.57143,-56.42858 -12.85714,56.42858 45.71428,-37.85715"
       id="path5534"
       inkscape:connector-curvature="0" />
    <path
       style="fill:#ffff00;fill-opacity:1;stroke:#000000;stroke-width:3.86775208;stroke-linecap:butt;stroke-linejoin:miter;stroke-miterlimit:4;stroke-opacity:1;stroke-dasharray:none"
       d="M 468.26675,-0.86212354 C 415.91269,-106.35165 304.95334,92.906349 467.48535,31.175437"
       id="path5536"
       inkscape:connector-curvature="0" />
    <path
       style="fill:none;stroke:#000000;stroke-width:4;stroke-linecap:butt;stroke-linejoin:miter;stroke-opacity:1;stroke-miterlimit:4;stroke-dasharray:none"
       d="m 438.4062,2.813688 c -33.89571,-50.817271 -39.45353,47.937444 -9.09137,17.172593"
       id="path5538"
       inkscape:connector-curvature="0"
       sodipodi:nodetypes="cc" />
    <path
       style="fill:#aa8800;stroke:#aa8800;stroke-width:1px;stroke-linecap:butt;stroke-linejoin:miter;stroke-opacity:1;fill-opacity:1"
       d="m 415.67777,-104.76756 c 24.74874,15.657366 52.02286,-5.55584 52.02286,-5.55584 0,0 -7.57615,-9.59645 -25.75889,-7.07107 -18.18275,2.52539 -24.24366,2.52538 -26.26397,12.62691 z"
       id="path5542"
       inkscape:connector-curvature="0"
       sodipodi:nodetypes="ccsc" />
  </g>
</svg>
