<?xml version="1.0" encoding="UTF-8" standalone="no"?>
<!-- Created with Inkscape (http://www.inkscape.org/) -->

<svg
   xmlns:dc="http://purl.org/dc/elements/1.1/"
   xmlns:cc="http://creativecommons.org/ns#"
   xmlns:rdf="http://www.w3.org/1999/02/22-rdf-syntax-ns#"
   xmlns:svg="http://www.w3.org/2000/svg"
   xmlns="http://www.w3.org/2000/svg"
   xmlns:sodipodi="http://sodipodi.sourceforge.net/DTD/sodipodi-0.dtd"
   xmlns:inkscape="http://www.inkscape.org/namespaces/inkscape"
   width="744.09448819"
   height="1052.3622047"
   id="svg2"
   version="1.1"
   inkscape:version="0.48.4 r9939"
   sodipodi:docname="grassfilter_2.svg">
  <defs
     id="defs4">
    <filter
       id="filter2987"
       inkscape:label="filter1">
      <feTurbulence
         id="feTurbulence2989"
         baseFrequency="0.24017467248908297"
         numOctaves="4"
         type="fractalNoise"
         result="result5" />
      <feSpecularLighting
         id="feSpecularLighting2991"
         surfaceScale="1"
         specularConstant="1.1000000000000001"
         specularExponent="5"
         result="result1">
        <feDistantLight
           id="feDistantLight2993"
           elevation="43" />
      </feSpecularLighting>
      <feMorphology
         id="feMorphology3031"
         in="SourceGraphic"
         operator="dilate"
         radius="5"
         result="result4" />
      <feDisplacementMap
         id="feDisplacementMap3033"
         in2="result5"
         in="result4"
         scale="10"
         result="result6" />
      <feComposite
         id="feComposite3043"
         in2="result1"
         operator="in"
         result="result8" />
      <feBlend
         blend="normal"
         id="feBlend3045"
         in2="result8"
         result="result10" />
      <feTurbulence
         id="feTurbulence3941"
         baseFrequency="0.11353711790393013"
         type="fractalNoise"
         numOctaves="3" />
      <feSpecularLighting
         id="feSpecularLighting3943"
         result="result9"
         surfaceScale="2"
         specularExponent="30">
        <feDistantLight
           id="feDistantLight3945"
           elevation="40" />
      </feSpecularLighting>
      <feConvolveMatrix
         order="3 3"
         kernelMatrix="0 0 0 0 1 0 0 0 0 "
         id="feConvolveMatrix3949"
         bias="5"
         result="result11"
         preserveAlpha="true"
         divisor="15" />
      <feComposite
         id="feComposite3955"
         in2="result11"
         in="result10"
         operator="out" />
    </filter>
  </defs>
  <sodipodi:namedview
     id="base"
     pagecolor="#ffffff"
     bordercolor="#666666"
     borderopacity="1.0"
     inkscape:pageopacity="0.0"
     inkscape:pageshadow="2"
     inkscape:zoom="0.7"
     inkscape:cx="386.88169"
     inkscape:cy="301.24371"
     inkscape:document-units="px"
     inkscape:current-layer="layer1"
     showgrid="false"
     inkscape:window-width="694"
     inkscape:window-height="713"
     inkscape:window-x="-37"
     inkscape:window-y="28"
     inkscape:window-maximized="0" />
  <metadata
     id="metadata7">
    <rdf:RDF>
      <cc:Work
         rdf:about="">
        <dc:format>image/svg+xml</dc:format>
        <dc:type
           rdf:resource="http://purl.org/dc/dcmitype/StillImage" />
        <dc:title></dc:title>
      </cc:Work>
    </rdf:RDF>
  </metadata>
  <g
     inkscape:label="Layer 1"
     inkscape:groupmode="layer"
     id="layer1">
    <path
       style="fill:#008000;fill-opacity:1;fill-rule:nonzero;stroke:none;filter:url(#filter2987)"
       d="M 21.59375 2.3125 L 21.59375 616.40625 L 775.75 616.40625 L 775.75 2.3125 L 21.59375 2.3125 z M 535.15625 239.25 C 540.4339 239.27137 545.6969 239.55143 550.875 240.53125 C 574.08083 242.62721 592.67266 265.71183 589.1875 288.90625 C 578.21179 289.27267 567.17389 290.14455 556.25 290.21875 C 550.5643 289.41752 552.56781 282.84775 550.625 279.21875 C 545.28504 270.04811 532.73595 271.31922 524.0625 274 C 519.96149 274.90953 518.24464 280.17537 522.46875 282.03125 C 540.50421 290.99413 563.18521 289.85367 579 303.65625 C 599.09818 319.95504 596.80139 354.02526 577.09375 369.625 C 559.48756 382.06426 535.77524 383.22292 515.34375 378 C 492.20252 373.10295 478.63225 348.90191 478.65625 326.5 C 488.69771 325.36586 498.7837 324.45267 508.84375 323.5 C 515.55317 321.06391 515.96733 329.22203 516.8125 333.5 C 519.52151 345.25163 533.3634 349.75714 544.03125 346.875 C 550.59894 346.48992 558.31195 339.66451 554.65625 332.78125 C 542.42226 324.46087 526.48552 324.62378 513.0625 318.96875 C 494.03038 313.33202 480.25771 292.9449 484.3125 273 C 487.97473 251.90039 509.71286 239.61614 529.875 239.3125 C 531.63422 239.28546 533.39703 239.24288 535.15625 239.25 z M 160.5 239.28125 C 164.58509 239.28866 168.66078 239.43527 172.71875 239.90625 C 197.3886 241.15342 219.49536 262.0316 220.875 286.90625 C 208.71931 289.19049 196.56014 291.45626 184.40625 293.75 C 183.83448 290.51176 183.26294 287.27171 181.6875 284.34375 C 172.33715 267.13636 144.4203 270.0714 135.28125 286.0625 C 128.70963 301.57119 128.40382 320.86143 137.28125 335.59375 C 146.59354 349.90385 167.76582 349.60991 181.0625 341.28125 C 185.27601 340.5615 184.51083 335.72498 184.03125 332.59375 C 174.41689 332.53285 164.80208 332.5748 155.1875 332.5625 L 155.1875 299.46875 L 221.65625 299.46875 L 221.65625 350.15625 C 223.87233 358.45613 216.06315 363.33865 210.09375 367.09375 C 183.7463 383.00999 147.60866 386.64023 121.0625 369.25 C 95.62532 352.05436 87.688817 317.06622 95.25 288.34375 C 100.97931 260.3281 127.94496 239.08335 156.40625 239.3125 C 157.76681 239.29046 159.1383 239.27878 160.5 239.28125 z M 652.59375 239.28125 C 658.35831 239.3304 664.10174 239.68466 669.71875 240.90625 C 692.21648 243.82134 709.02802 266.55058 706.1875 288.90625 C 695.29124 288.96233 684.29573 290.58275 673.46875 290.1875 C 668.30841 289.56552 668.48458 283.88339 667.8125 280.0625 C 663.38322 270.37739 650.53077 271.37021 642 273.53125 C 638.29792 273.98028 634.36744 278.95456 638.5625 281.59375 C 656.72975 291.18811 679.95662 289.60388 695.875 303.78125 C 715.94607 320.10342 713.52595 354.11989 693.875 369.65625 C 676.00658 382.2326 651.83628 383.2581 631.21875 377.78125 C 608.68131 372.43335 595.31472 348.61217 595.5625 326.5 C 605.60301 325.35588 615.69092 324.49433 625.75 323.53125 C 632.31892 321.04173 632.69864 328.95594 633.5 333.09375 C 635.92979 345.31922 651.10207 350.17429 661.96875 346.5625 C 668.16147 346.08227 674.81285 339.18568 671.5625 332.96875 C 659.18828 324.28143 642.74606 324.58291 629.03125 318.6875 C 610.36471 312.76367 597.18996 292.6577 601.09375 273 C 604.76236 251.82243 626.62183 239.59429 646.8125 239.3125 C 648.73123 239.2831 650.67223 239.26487 652.59375 239.28125 z M 239.03125 241.21875 C 263.33096 242.54509 287.77488 239.67452 312 242.65625 C 329.95841 242.98957 344.75617 258.62311 347.03125 275.90625 C 350.48094 294.16286 339.75908 313.76506 322.34375 320.125 C 334.30614 331.62185 342.2819 346.2148 350.8125 360.375 C 366.10214 321.12117 381.36242 281.83777 396.71875 242.65625 L 396.875 242.3125 L 397.21875 241.40625 L 432.03125 241.40625 C 450.38282 287.11767 468.58232 332.89025 487.03125 378.5625 L 446.5 378.5625 C 442.83591 369.10081 439.19968 359.62832 435.5625 350.15625 L 393.875 350.15625 C 390.42851 359.62172 386.97952 369.08635 383.5625 378.5625 L 362.8125 378.5625 L 343.71875 378.5625 L 318.09375 378.5625 C 308.5454 364.66627 299.57638 350.37563 289.71875 336.6875 C 286.35758 329.25723 278.12957 325.50006 270.25 326.15625 L 270.25 378.5625 L 232.96875 378.5625 L 232.96875 255.5625 C 232.28092 250.45321 232.08426 241.81053 239.03125 241.21875 z M 297.375 274.4375 C 296.97754 274.45173 296.57216 274.48326 296.1875 274.53125 C 287.53546 275.04641 278.91271 274.40406 270.25 274.59375 L 270.25 294.3125 C 279.69917 294.25693 289.19846 294.64634 298.625 293.8125 C 304.22158 294.9268 309.3496 290.12907 309.4375 284.65625 C 310.41903 277.79321 303.33687 274.22404 297.375 274.4375 z M 414.40625 293.9375 L 406.65625 315.15625 C 407.02832 319.32686 418.20365 315.96534 422.96875 317.0625 L 414.40625 293.9375 z "
       id="rect2985" />
    <g
       style="font-size:174.85263062px;font-style:normal;font-variant:normal;font-weight:normal;font-stretch:normal;line-height:125%;letter-spacing:0px;word-spacing:0px;fill:#008000;fill-opacity:1;stroke:none;filter:url(#filter2987);font-family:Comic Sans MS;-inkscape-font-specification:Comic Sans MS"
       id="text3027"
       transform="translate(87.172594,94.00578)">
      <path
         d="m 73.442857,717.67972 0,-21.08819 54.470693,0 0,49.86032 c -5.29351,5.12265 -12.96323,9.63341 -23.00917,13.5323 -10.046152,3.89889 -20.220266,5.84834 -30.522373,5.84834 -13.091239,0 -24.503321,-2.7463 -34.236282,-8.23891 -9.733036,-5.49259 -17.047014,-13.34729 -21.941956,-23.56412 -4.894974,-10.21677 -7.342453,-21.33003 -7.342444,-33.33982 -9e-6,-13.03419 2.732061,-24.61702 8.196217,-34.74854 5.464122,-10.13133 13.461118,-17.90065 23.99101,-23.308 8.025414,-4.1549 18.014544,-6.23241 29.967419,-6.23254 15.538575,1.3e-4 27.676359,3.25869 36.413399,9.7757 8.73683,6.51724 14.35749,15.52453 16.86201,27.0219 l -25.10091,4.69575 c -1.764564,-6.14707 -5.080044,-10.99934 -9.946454,-14.55682 -4.866588,-3.55728 -10.942597,-5.33597 -18.228045,-5.33608 -11.042186,1.1e-4 -19.821805,3.50057 -26.338885,10.5014 -6.517169,7.00103 -9.775731,17.38858 -9.775697,31.1627 -3.4e-5,14.8557 3.301217,25.99742 9.903763,33.4252 6.602457,7.42785 15.254011,11.14175 25.954687,11.14173 5.293315,2e-5 10.600929,-1.03873 15.922859,-3.11627 5.321758,-2.07749 9.889437,-4.59611 13.703052,-7.55588 l 0,-15.88017 z"
         style="font-weight:bold;fill:#008000;font-family:Arial;-inkscape-font-specification:Arial Bold"
         id="path3050"
         inkscape:connector-curvature="0" />
      <path
         d="m 151.22154,763.69806 0,-125.16307 53.19003,0 c 13.37569,1.3e-4 23.09446,1.12426 29.15633,3.37241 6.06169,2.24838 10.91396,6.24688 14.55683,11.9955 3.64265,5.74884 5.46403,12.32288 5.46414,19.72215 -1.1e-4,9.39158 -2.76064,17.14667 -8.28159,23.2653 -5.52117,6.11877 -13.77429,9.97497 -24.75941,11.56862 5.46406,3.18747 9.97482,6.68794 13.5323,10.5014 3.55728,3.81356 8.35264,10.58682 14.38607,20.31979 l 15.28253,24.4179 -30.22355,0 -18.27074,-27.23535 c -6.48874,-9.73297 -10.92835,-15.8659 -13.31885,-18.3988 -2.39063,-2.53281 -4.92348,-4.26881 -7.59858,-5.20801 -2.67521,-0.9391 -6.9156,-1.40867 -12.72121,-1.40872 l -5.12264,0 0,52.25088 z m 25.27166,-72.22916 18.69762,0 c 12.12351,7e-5 19.69362,-0.51219 22.71036,-1.53679 3.01658,-1.02446 5.37868,-2.78892 7.08631,-5.29339 1.70746,-2.50432 2.56123,-5.63482 2.56132,-9.3915 -9e-5,-4.21186 -1.12423,-7.61271 -3.3724,-10.20259 -2.24836,-2.58967 -5.42154,-4.22607 -9.51957,-4.90919 -2.04913,-0.28449 -8.19628,-0.42678 -18.44149,-0.42688 l -19.72215,0 z"
         style="font-weight:bold;fill:#008000;font-family:Arial;-inkscape-font-specification:Arial Bold"
         id="path3052"
         inkscape:connector-curvature="0" />
      <path
         d="m 390.36323,763.69806 -27.49147,0 -10.92829,-28.43063 -50.03108,0 -10.33065,28.43063 -26.80846,0 48.75042,-125.16307 26.72308,0 z m -46.5306,-49.51881 -17.24621,-46.44523 -16.9047,46.44523 z"
         style="font-weight:bold;fill:#008000;font-family:Arial;-inkscape-font-specification:Arial Bold"
         id="path3054"
         inkscape:connector-curvature="0" />
      <path
         d="m 397.44954,722.97311 24.58865,-2.39057 c 1.47984,8.25317 4.48227,14.31495 9.0073,18.18536 4.52495,3.87046 10.62942,5.80567 18.31342,5.80565 8.13924,2e-5 14.27216,-1.72175 18.3988,-5.16532 4.12649,-3.44352 6.18977,-7.47048 6.18985,-12.08088 -8e-5,-2.95971 -0.86808,-5.47834 -2.604,-7.55589 -1.73608,-2.07747 -4.76697,-3.88462 -9.09268,-5.42146 -2.95981,-1.02447 -9.70461,-2.84585 -20.23441,-5.46414 -13.54656,-3.35812 -23.05189,-7.48468 -28.51601,-12.37971 -7.68396,-6.88702 -11.52594,-15.28244 -11.52593,-25.18629 -1e-5,-6.37473 1.80714,-12.33691 5.42146,-17.88653 3.61428,-5.54941 8.82229,-9.77558 15.62404,-12.67853 6.80168,-2.9027 15.01212,-4.35411 24.63134,-4.35424 15.70934,1.3e-4 27.53408,3.44368 35.47425,10.33065 7.93999,6.88721 12.10924,16.07949 12.50777,27.57686 l -25.27167,1.1099 c -1.08152,-6.43166 -3.40094,-11.05625 -6.95825,-13.8738 -3.55745,-2.81735 -8.89353,-4.22607 -16.00823,-4.22618 -7.3425,1.1e-4 -13.09123,1.50844 -17.24621,4.525 -2.67519,1.93531 -4.01277,4.52509 -4.01273,7.76933 -4e-5,2.95983 1.25216,5.49269 3.7566,7.59857 3.18737,2.67524 10.92824,5.46423 23.22261,8.36698 12.29425,2.9029 21.38692,5.90533 27.27804,9.0073 5.89093,3.1021 10.5013,7.3425 13.83111,12.72121 3.32961,5.37882 4.99447,12.02401 4.99457,19.93559 -10e-5,7.17172 -1.99224,13.88806 -5.9764,20.14903 -3.98437,6.26101 -9.61927,10.91407 -16.9047,13.95918 -7.28561,3.04513 -16.36405,4.56769 -27.23535,4.56769 -15.82329,0 -27.97531,-3.65699 -36.45609,-10.97098 -8.48082,-7.31397 -13.54653,-17.97189 -15.19715,-31.97378 z"
         style="font-weight:bold;fill:#008000;font-family:Arial;-inkscape-font-specification:Arial Bold"
         id="path3056"
         inkscape:connector-curvature="0" />
      <path
         d="m 514.24565,722.97311 24.58865,-2.39057 c 1.47984,8.25317 4.48227,14.31495 9.0073,18.18536 4.52495,3.87046 10.62942,5.80567 18.31343,5.80565 8.13923,2e-5 14.27215,-1.72175 18.39879,-5.16532 4.12649,-3.44352 6.18977,-7.47048 6.18986,-12.08088 -9e-5,-2.95971 -0.86809,-5.47834 -2.60401,-7.55589 -1.73608,-2.07747 -4.76697,-3.88462 -9.09268,-5.42146 -2.95981,-1.02447 -9.70461,-2.84585 -20.23441,-5.46414 -13.54656,-3.35812 -23.05189,-7.48468 -28.516,-12.37971 -7.68397,-6.88702 -11.52595,-15.28244 -11.52593,-25.18629 -2e-5,-6.37473 1.80713,-12.33691 5.42145,-17.88653 3.61429,-5.54941 8.82229,-9.77558 15.62404,-12.67853 6.80168,-2.9027 15.01212,-4.35411 24.63134,-4.35424 15.70934,1.3e-4 27.53408,3.44368 35.47425,10.33065 7.93999,6.88721 12.10924,16.07949 12.50777,27.57686 l -25.27167,1.1099 c -1.08152,-6.43166 -3.40094,-11.05625 -6.95825,-13.8738 -3.55745,-2.81735 -8.89352,-4.22607 -16.00823,-4.22618 -7.3425,1.1e-4 -13.09122,1.50844 -17.24621,4.525 -2.67519,1.93531 -4.01276,4.52509 -4.01273,7.76933 -3e-5,2.95983 1.25216,5.49269 3.7566,7.59857 3.18738,2.67524 10.92824,5.46423 23.22261,8.36698 12.29426,2.9029 21.38693,5.90533 27.27804,9.0073 5.89094,3.1021 10.5013,7.3425 13.83112,12.72121 3.3296,5.37882 4.99446,12.02401 4.99457,19.93559 -1.1e-4,7.17172 -1.99225,13.88806 -5.97641,20.14903 -3.98437,6.26101 -9.61927,10.91407 -16.9047,13.95918 -7.2856,3.04513 -16.36404,4.56769 -27.23535,4.56769 -15.82329,0 -27.97531,-3.65699 -36.45609,-10.97098 -8.48082,-7.31397 -13.54653,-17.97189 -15.19715,-31.97378 z"
         style="font-weight:bold;fill:#008000;font-family:Arial;-inkscape-font-specification:Arial Bold"
         id="path3058"
         inkscape:connector-curvature="0" />
    </g>
    <g
       transform="translate(87.764328,-391.13718)"
       id="g3878"
       style="font-size:174.85263062000001000px;font-style:normal;font-variant:normal;font-weight:normal;font-stretch:normal;line-height:125%;letter-spacing:0px;word-spacing:0px;fill:#008000;fill-opacity:1;stroke:none;font-family:Comic Sans MS;-inkscape-font-specification:Comic Sans MS" />
    <g
       transform="translate(87.764328,-391.17779)"
       id="g3929"
       style="font-size:174.85263062000001000px;font-style:normal;font-variant:normal;font-weight:normal;font-stretch:normal;line-height:125%;letter-spacing:0px;word-spacing:0px;fill:#006c00;fill-opacity:1;stroke:none;filter:url(#filter2987);font-family:Comic Sans MS;-inkscape-font-specification:Comic Sans MS">
      <path
         inkscape:connector-curvature="0"
         id="path3931"
         style="font-weight:bold;fill:#006c00;font-family:Arial;-inkscape-font-specification:Arial Bold;fill-opacity:1"
         d="m 73.442857,717.67972 0,-21.08819 54.470693,0 0,49.86032 c -5.29351,5.12265 -12.96323,9.63341 -23.00917,13.5323 -10.046152,3.89889 -20.220266,5.84834 -30.522373,5.84834 -13.091239,0 -24.503321,-2.7463 -34.236282,-8.23891 -9.733036,-5.49259 -17.047014,-13.34729 -21.941956,-23.56412 -4.894974,-10.21677 -7.342453,-21.33003 -7.342444,-33.33982 -9e-6,-13.03419 2.732061,-24.61702 8.196217,-34.74854 5.464122,-10.13133 13.461118,-17.90065 23.99101,-23.308 8.025414,-4.1549 18.014544,-6.23241 29.967419,-6.23254 15.538575,1.3e-4 27.676359,3.25869 36.413399,9.7757 8.73683,6.51724 14.35749,15.52453 16.86201,27.0219 l -25.10091,4.69575 c -1.764564,-6.14707 -5.080044,-10.99934 -9.946454,-14.55682 -4.866588,-3.55728 -10.942597,-5.33597 -18.228045,-5.33608 -11.042186,1.1e-4 -19.821805,3.50057 -26.338885,10.5014 -6.517169,7.00103 -9.775731,17.38858 -9.775697,31.1627 -3.4e-5,14.8557 3.301217,25.99742 9.903763,33.4252 6.602457,7.42785 15.254011,11.14175 25.954687,11.14173 5.293315,2e-5 10.600929,-1.03873 15.922859,-3.11627 5.321758,-2.07749 9.889437,-4.59611 13.703052,-7.55588 l 0,-15.88017 z" />
      <path
         inkscape:connector-curvature="0"
         id="path3933"
         style="font-weight:bold;fill:#006c00;font-family:Arial;-inkscape-font-specification:Arial Bold;fill-opacity:1"
         d="m 151.22154,763.69806 0,-125.16307 53.19003,0 c 13.37569,1.3e-4 23.09446,1.12426 29.15633,3.37241 6.06169,2.24838 10.91396,6.24688 14.55683,11.9955 3.64265,5.74884 5.46403,12.32288 5.46414,19.72215 -1.1e-4,9.39158 -2.76064,17.14667 -8.28159,23.2653 -5.52117,6.11877 -13.77429,9.97497 -24.75941,11.56862 5.46406,3.18747 9.97482,6.68794 13.5323,10.5014 3.55728,3.81356 8.35264,10.58682 14.38607,20.31979 l 15.28253,24.4179 -30.22355,0 -18.27074,-27.23535 c -6.48874,-9.73297 -10.92835,-15.8659 -13.31885,-18.3988 -2.39063,-2.53281 -4.92348,-4.26881 -7.59858,-5.20801 -2.67521,-0.9391 -6.9156,-1.40867 -12.72121,-1.40872 l -5.12264,0 0,52.25088 z m 25.27166,-72.22916 18.69762,0 c 12.12351,7e-5 19.69362,-0.51219 22.71036,-1.53679 3.01658,-1.02446 5.37868,-2.78892 7.08631,-5.29339 1.70746,-2.50432 2.56123,-5.63482 2.56132,-9.3915 -9e-5,-4.21186 -1.12423,-7.61271 -3.3724,-10.20259 -2.24836,-2.58967 -5.42154,-4.22607 -9.51957,-4.90919 -2.04913,-0.28449 -8.19628,-0.42678 -18.44149,-0.42688 l -19.72215,0 z" />
      <path
         inkscape:connector-curvature="0"
         id="path3935"
         style="font-weight:bold;fill:#006c00;font-family:Arial;-inkscape-font-specification:Arial Bold;fill-opacity:1"
         d="m 390.36323,763.69806 -27.49147,0 -10.92829,-28.43063 -50.03108,0 -10.33065,28.43063 -26.80846,0 48.75042,-125.16307 26.72308,0 z m -46.5306,-49.51881 -17.24621,-46.44523 -16.9047,46.44523 z" />
      <path
         inkscape:connector-curvature="0"
         id="path3937"
         style="font-weight:bold;fill:#006c00;font-family:Arial;-inkscape-font-specification:Arial Bold;fill-opacity:1"
         d="m 397.44954,722.97311 24.58865,-2.39057 c 1.47984,8.25317 4.48227,14.31495 9.0073,18.18536 4.52495,3.87046 10.62942,5.80567 18.31342,5.80565 8.13924,2e-5 14.27216,-1.72175 18.3988,-5.16532 4.12649,-3.44352 6.18977,-7.47048 6.18985,-12.08088 -8e-5,-2.95971 -0.86808,-5.47834 -2.604,-7.55589 -1.73608,-2.07747 -4.76697,-3.88462 -9.09268,-5.42146 -2.95981,-1.02447 -9.70461,-2.84585 -20.23441,-5.46414 -13.54656,-3.35812 -23.05189,-7.48468 -28.51601,-12.37971 -7.68396,-6.88702 -11.52594,-15.28244 -11.52593,-25.18629 -1e-5,-6.37473 1.80714,-12.33691 5.42146,-17.88653 3.61428,-5.54941 8.82229,-9.77558 15.62404,-12.67853 6.80168,-2.9027 15.01212,-4.35411 24.63134,-4.35424 15.70934,1.3e-4 27.53408,3.44368 35.47425,10.33065 7.93999,6.88721 12.10924,16.07949 12.50777,27.57686 l -25.27167,1.1099 c -1.08152,-6.43166 -3.40094,-11.05625 -6.95825,-13.8738 -3.55745,-2.81735 -8.89353,-4.22607 -16.00823,-4.22618 -7.3425,1.1e-4 -13.09123,1.50844 -17.24621,4.525 -2.67519,1.93531 -4.01277,4.52509 -4.01273,7.76933 -4e-5,2.95983 1.25216,5.49269 3.7566,7.59857 3.18737,2.67524 10.92824,5.46423 23.22261,8.36698 12.29425,2.9029 21.38692,5.90533 27.27804,9.0073 5.89093,3.1021 10.5013,7.3425 13.83111,12.72121 3.32961,5.37882 4.99447,12.02401 4.99457,19.93559 -10e-5,7.17172 -1.99224,13.88806 -5.9764,20.14903 -3.98437,6.26101 -9.61927,10.91407 -16.9047,13.95918 -7.28561,3.04513 -16.36405,4.56769 -27.23535,4.56769 -15.82329,0 -27.97531,-3.65699 -36.45609,-10.97098 -8.48082,-7.31397 -13.54653,-17.97189 -15.19715,-31.97378 z" />
      <path
         inkscape:connector-curvature="0"
         id="path3939"
         style="font-weight:bold;fill:#006c00;font-family:Arial;-inkscape-font-specification:Arial Bold;fill-opacity:1"
         d="m 514.24565,722.97311 24.58865,-2.39057 c 1.47984,8.25317 4.48227,14.31495 9.0073,18.18536 4.52495,3.87046 10.62942,5.80567 18.31343,5.80565 8.13923,2e-5 14.27215,-1.72175 18.39879,-5.16532 4.12649,-3.44352 6.18977,-7.47048 6.18986,-12.08088 -9e-5,-2.95971 -0.86809,-5.47834 -2.60401,-7.55589 -1.73608,-2.07747 -4.76697,-3.88462 -9.09268,-5.42146 -2.95981,-1.02447 -9.70461,-2.84585 -20.23441,-5.46414 -13.54656,-3.35812 -23.05189,-7.48468 -28.516,-12.37971 -7.68397,-6.88702 -11.52595,-15.28244 -11.52593,-25.18629 -2e-5,-6.37473 1.80713,-12.33691 5.42145,-17.88653 3.61429,-5.54941 8.82229,-9.77558 15.62404,-12.67853 6.80168,-2.9027 15.01212,-4.35411 24.63134,-4.35424 15.70934,1.3e-4 27.53408,3.44368 35.47425,10.33065 7.93999,6.88721 12.10924,16.07949 12.50777,27.57686 l -25.27167,1.1099 c -1.08152,-6.43166 -3.40094,-11.05625 -6.95825,-13.8738 -3.55745,-2.81735 -8.89352,-4.22607 -16.00823,-4.22618 -7.3425,1.1e-4 -13.09122,1.50844 -17.24621,4.525 -2.67519,1.93531 -4.01276,4.52509 -4.01273,7.76933 -3e-5,2.95983 1.25216,5.49269 3.7566,7.59857 3.18738,2.67524 10.92824,5.46423 23.22261,8.36698 12.29426,2.9029 21.38693,5.90533 27.27804,9.0073 5.89094,3.1021 10.5013,7.3425 13.83112,12.72121 3.3296,5.37882 4.99446,12.02401 4.99457,19.93559 -1.1e-4,7.17172 -1.99225,13.88806 -5.97641,20.14903 -3.98437,6.26101 -9.61927,10.91407 -16.9047,13.95918 -7.2856,3.04513 -16.36404,4.56769 -27.23535,4.56769 -15.82329,0 -27.97531,-3.65699 -36.45609,-10.97098 -8.48082,-7.31397 -13.54653,-17.97189 -15.19715,-31.97378 z" />
    </g>
  </g>
</svg>
