<?xml version="1.0" encoding="UTF-8" standalone="no"?>
<!-- Created with Inkscape (http://www.inkscape.org/) -->

<svg
   xmlns:dc="http://purl.org/dc/elements/1.1/"
   xmlns:cc="http://creativecommons.org/ns#"
   xmlns:rdf="http://www.w3.org/1999/02/22-rdf-syntax-ns#"
   xmlns:svg="http://www.w3.org/2000/svg"
   xmlns="http://www.w3.org/2000/svg"
   xmlns:sodipodi="http://sodipodi.sourceforge.net/DTD/sodipodi-0.dtd"
   xmlns:inkscape="http://www.inkscape.org/namespaces/inkscape"
   width="744.09448819"
   height="1052.3622047"
   id="svg2"
   version="1.1"
   inkscape:version="0.48.4 r9939"
   sodipodi:docname="heartclip1.svg">
  <defs
     id="defs4">
    <symbol
       id="*PAPER_SPACE" />
    <symbol
       id="*MODEL_SPACE" />
    <pattern
       id="Hatch"
       x="0"
       y="0"
       patternUnits="userSpaceOnUse"
       width="8"
       height="8">
      <path
         id="path2995"
         d="M8 4 l-4,4"
         stroke-width="0.25"
         stroke="#000000"
         linecap="square" />
      <path
         id="path2997"
         d="M6 2 l-4,4"
         stroke-width="0.25"
         stroke="#000000"
         linecap="square" />
      <path
         id="path2999"
         d="M4 0 l-4,4"
         stroke-width="0.25"
         stroke="#000000"
         linecap="square" />
    </pattern>
    <marker
       orient="auto"
       id="DistanceX"
       style="overflow:visible"
       refX="0.0"
       refY="0.0">
      <path
         id="path2992"
         d="M 3,-3 L -3,3 M 0,-5 L  0,5"
         style="stroke:#000000; stroke-width:0.5" />
    </marker>
  </defs>
  <sodipodi:namedview
     id="base"
     pagecolor="#ffffff"
     bordercolor="#666666"
     borderopacity="1.0"
     inkscape:pageopacity="0.0"
     inkscape:pageshadow="2"
     inkscape:zoom="0.55985473"
     inkscape:cx="516.07813"
     inkscape:cy="473.81531"
     inkscape:document-units="px"
     inkscape:current-layer="layer1"
     showgrid="false"
     inkscape:window-width="1366"
     inkscape:window-height="721"
     inkscape:window-x="-4"
     inkscape:window-y="24"
     inkscape:window-maximized="1" />
  <metadata
     id="metadata7">
    <rdf:RDF>
      <cc:Work
         rdf:about="">
        <dc:format>image/svg+xml</dc:format>
        <dc:type
           rdf:resource="http://purl.org/dc/dcmitype/StillImage" />
        <dc:title></dc:title>
      </cc:Work>
    </rdf:RDF>
  </metadata>
  <g
     inkscape:label="Layer 1"
     inkscape:groupmode="layer"
     id="layer1">
    <g
       id="g3023"
       transform="translate(6.0949099,-346.91394)">
      <g
         id="g3003"
         inkscape:label="0" />
      <g
         id="g3005"
         inkscape:label="Layer_1">
        <path
           id="path3007"
           d="m 180.17388,804.14344 -4.55897,0.51079 -4.43691,0.95876 -4.30328,1.37262 -4.15807,1.75235 -4.00132,2.09796 -3.83298,2.40944 -3.65309,2.6868 -3.46163,2.93003 -3.26346,3.14369 -3.05909,3.33429 -2.84393,3.5006 -2.618,3.64257 -2.38126,3.76025 -2.13374,3.8536 -1.87543,3.92264 -1.60634,3.96736 -0.26694,0.75093 -0.24928,0.75236 -0.23413,0.75349 -0.22148,0.75435 -0.21132,0.7549 -0.20368,0.75518 -0.19853,0.75517 -0.19589,0.75487 -3.96399,-5.95302 -4.40315,-5.83777 -4.80813,-5.65907 -5.1789,-5.41691 -5.5155,-5.1113 -5.81789,-4.74223 -6.086094,-4.30972 -6.320102,-3.81373 -4.712715,-2.41294 -4.815152,-2.07884 -4.900157,-1.70939 -4.96773,-1.30457 -5.017869,-0.86441 -5.050577,-0.38887 -5.065852,0.12201 -5.063697,0.66826 -5.02071,1.2529 -4.933559,1.86161 -4.823962,2.48419 -4.69193,3.12064 -4.53746,3.77095 -4.360542,4.43515 -4.161189,5.11319 -3.939396,5.80512 -3.415301,6.34095 -2.441073,6.38216 -1.5174,6.40427 -0.644276,6.40732 0.178292,6.39125 0.950308,6.35611 1.671771,6.30188 2.342679,6.22856 2.940789,6.16536 3.468355,6.13443 3.948747,6.11768 4.381958,6.11508 4.767991,6.12663 5.106848,6.15234 5.398529,6.19222 5.643029,6.24625 11.841144,12.7021 12.289638,13.02685 12.384797,13.40031 12.126615,13.82247 11.515093,14.29339 10.55022,14.8129 9.23202,15.3812 7.56048,15.9983 0.29687,0.7266 0.29688,0.7265 0.29687,0.7266 0.29688,0.7266 0.29687,0.7265 0.29688,0.7266 0.29687,0.7265 0.29688,0.7266 0.64062,-0.4492 0.64063,-0.4493 0.64062,-0.4492 0.64063,-0.4492 0.64062,-0.4492 0.64063,-0.4492 0.64062,-0.4493 0.64063,-0.4492 12.80652,-9.8535 12.59612,-11.4464 12.2178,-12.8242 11.67151,-13.9866 10.95729,-14.93365 10.0751,-15.66548 9.02499,-16.18197 7.80692,-16.48317 3.39334,-8.28744 3.02125,-8.28411 2.62389,-8.25643 2.20124,-8.20445 1.7533,-8.12813 1.28009,-8.02747 0.78158,-7.90251 0.25781,-7.7532 -0.29964,-7.58573 -0.8914,-7.3892 -1.50944,-7.15202 -2.15373,-6.87418 -2.82431,-6.55567 -3.52113,-6.19652 -4.24424,-5.7967 -4.99361,-5.35623 -4.60391,-4.02033 -4.68101,-3.38935 -4.73485,-2.77632 -4.76543,-2.18122 -4.77275,-1.60407 -4.75681,-1.04486 -4.7176,-0.50359 -4.65514,0.0197"
           style="fill:none;stroke:#000000"
           inkscape:connector-curvature="0" />
        <path
           id="path3009"
           d="m 180.79888,814.14344 3.58832,-0.0285 3.64404,0.36285 3.69779,0.78975 3.74956,1.25213 3.79937,1.75004 3.84719,2.28343 3.89305,2.85234 3.93693,3.45675 4.20992,4.50507 3.58857,4.87996 2.98619,5.23967 2.40278,5.58422 1.83833,5.91356 1.29284,6.22774 0.76634,6.52673 0.25878,6.81055 -0.2384,7.06741 -0.72517,7.28644 -1.19286,7.47393 -1.64148,7.62989 -2.07104,7.75433 -2.48154,7.84722 -2.87295,7.90859 -3.24531,7.93843 -7.11306,15.03972 -8.22153,14.82165 -9.16755,14.41008 -9.95109,13.80497 -10.57217,13.00631 -11.03079,12.0142 -11.32694,10.8286 -11.46062,9.4494 -8.20791,-15.9928 -9.61099,-15.2573 L 106.47783,991.00333 95.033976,977.04986 83.160344,963.66473 71.181365,950.79221 59.42148,938.3766 48.205123,926.36218 l -5.535641,-6.13747 -5.249764,-6.04293 -4.920374,-5.94812 -4.547463,-5.85304 -4.131046,-5.75769 -3.671107,-5.66206 -3.16766,-5.56617 -2.620694,-5.47001 -2.054441,-5.35574 -1.47077,-5.2457 -0.846383,-5.16888 -0.181272,-5.12527 0.524555,-5.11488 1.271098,-5.13772 2.058367,-5.19377 2.886346,-5.28304 3.461272,-5.12756 3.553891,-4.41499 3.638102,-3.74193 3.713903,-3.10838 3.781282,-2.51436 3.840261,-1.95984 3.890821,-1.44484 3.932968,-0.96935 3.988832,-0.52259 4.05439,-0.0903 4.105506,0.3238 4.142179,0.71975 4.164406,1.09757 4.172198,1.45723 4.165544,1.79873 4.144443,2.12209 10.222183,6.24397 8.543452,6.0096 7.138193,5.9271 6.00641,5.99644 5.14811,6.21765 4.56329,6.5907 4.25194,7.11563 4.21407,7.79239 1.07193,-3.51459 1.05902,-3.22323 1.04184,-2.9748 1.0204,-2.76928 0.99467,-2.60668 0.96467,-2.48701 0.93041,-2.41024 0.89187,-2.3764 1.37371,-3.38144 1.62231,-3.37449 1.85616,-3.33772 2.07528,-3.27114 2.27967,-3.17477 2.4693,-3.04858 2.6442,-2.89258 2.80437,-2.70678 2.94591,-2.49141 3.06997,-2.25291 3.18103,-1.99426 3.27907,-1.71547 3.36411,-1.41652 3.43613,-1.09743 3.49514,-0.75819 3.54114,-0.39881 1e-5,0 0,0 10e-6,0 0,0 1e-5,0 1e-5,0 0,0 1e-5,-3e-5"
           style="fill:none;stroke:#000000"
           inkscape:connector-curvature="0" />
      </g>
    </g>
    <rect
       style="opacity:0.39166667;fill:#000000;fill-opacity:1;fill-rule:nonzero;stroke:none"
       id="rect3029"
       width="16.885124"
       height="196.03648"
       x="156.52235"
       y="671.88696"
       ry="7.0739732" />
    <rect
       ry="7.0739732"
       y="671.88696"
       x="120.06419"
       height="196.03648"
       width="16.885124"
       id="rect3033"
       style="opacity:0.39166667;fill:#000000;fill-opacity:1;fill-rule:nonzero;stroke:none" />
    <path
       style="font-size:medium;font-style:normal;font-variant:normal;font-weight:normal;font-stretch:normal;text-indent:0;text-align:start;text-decoration:none;line-height:normal;letter-spacing:normal;word-spacing:normal;text-transform:none;direction:ltr;block-progression:tb;writing-mode:lr-tb;text-anchor:start;baseline-shift:baseline;opacity:0.39166667;color:#000000;fill:#000000;fill-opacity:1;stroke:none;stroke-width:10;marker:none;visibility:visible;display:inline;overflow:visible;enable-background:accumulate;font-family:Sans;-inkscape-font-specification:Sans"
       d="M 96.59375 637.09375 L 96.59375 871.125 C 96.59375 878.43516 102.65859 884.46875 109.96875 884.46875 L 180.9375 884.46875 C 188.24766 884.46875 194.28125 878.43516 194.28125 871.125 L 194.28125 641.40625 L 184.28125 653.6875 L 184.28125 871.125 C 184.28125 873.06813 182.88063 874.46875 180.9375 874.46875 L 109.96875 874.46875 C 108.02562 874.46875 106.59375 873.06813 106.59375 871.125 L 106.59375 646.6875 L 96.59375 637.09375 z "
       id="rect3035" />
    <g
       transform="translate(397.02471,-346.91394)"
       id="g3818">
      <g
         inkscape:label="0"
         id="g3820" />
      <g
         inkscape:label="Layer_1"
         id="g3822">
        <path
           inkscape:connector-curvature="0"
           style="fill:none;stroke:#000000"
           d="m 180.17388,804.14344 -4.55897,0.51079 -4.43691,0.95876 -4.30328,1.37262 -4.15807,1.75235 -4.00132,2.09796 -3.83298,2.40944 -3.65309,2.6868 -3.46163,2.93003 -3.26346,3.14369 -3.05909,3.33429 -2.84393,3.5006 -2.618,3.64257 -2.38126,3.76025 -2.13374,3.8536 -1.87543,3.92264 -1.60634,3.96736 -0.26694,0.75093 -0.24928,0.75236 -0.23413,0.75349 -0.22148,0.75435 -0.21132,0.7549 -0.20368,0.75518 -0.19853,0.75517 -0.19589,0.75487 -3.96399,-5.95302 -4.40315,-5.83777 -4.80813,-5.65907 -5.1789,-5.41691 -5.5155,-5.1113 -5.81789,-4.74223 -6.086094,-4.30972 -6.320102,-3.81373 -4.712715,-2.41294 -4.815152,-2.07884 -4.900157,-1.70939 -4.96773,-1.30457 -5.017869,-0.86441 -5.050577,-0.38887 -5.065852,0.12201 -5.063697,0.66826 -5.02071,1.2529 -4.933559,1.86161 -4.823962,2.48419 -4.69193,3.12064 -4.53746,3.77095 -4.360542,4.43515 -4.161189,5.11319 -3.939396,5.80512 -3.415301,6.34095 -2.441073,6.38216 -1.5174,6.40427 -0.644276,6.40732 0.178292,6.39125 0.950308,6.35611 1.671771,6.30188 2.342679,6.22856 2.940789,6.16536 3.468355,6.13443 3.948747,6.11768 4.381958,6.11508 4.767991,6.12663 5.106848,6.15234 5.398529,6.19222 5.643029,6.24625 11.841144,12.7021 12.289638,13.02685 12.384797,13.40031 12.126615,13.82247 11.515093,14.29339 10.55022,14.8129 9.23202,15.3812 7.56048,15.9983 0.29687,0.7266 0.29688,0.7265 0.29687,0.7266 0.29688,0.7266 0.29687,0.7265 0.29688,0.7266 0.29687,0.7265 0.29688,0.7266 0.64062,-0.4492 0.64063,-0.4493 0.64062,-0.4492 0.64063,-0.4492 0.64062,-0.4492 0.64063,-0.4492 0.64062,-0.4493 0.64063,-0.4492 12.80652,-9.8535 12.59612,-11.4464 12.2178,-12.8242 11.67151,-13.9866 10.95729,-14.93365 10.0751,-15.66548 9.02499,-16.18197 7.80692,-16.48317 3.39334,-8.28744 3.02125,-8.28411 2.62389,-8.25643 2.20124,-8.20445 1.7533,-8.12813 1.28009,-8.02747 0.78158,-7.90251 0.25781,-7.7532 -0.29964,-7.58573 -0.8914,-7.3892 -1.50944,-7.15202 -2.15373,-6.87418 -2.82431,-6.55567 -3.52113,-6.19652 -4.24424,-5.7967 -4.99361,-5.35623 -4.60391,-4.02033 -4.68101,-3.38935 -4.73485,-2.77632 -4.76543,-2.18122 -4.77275,-1.60407 -4.75681,-1.04486 -4.7176,-0.50359 -4.65514,0.0197"
           id="path3824" />
        <path
           inkscape:connector-curvature="0"
           style="fill:none;stroke:#000000"
           d="m 180.79888,814.14344 3.58832,-0.0285 3.64404,0.36285 3.69779,0.78975 3.74956,1.25213 3.79937,1.75004 3.84719,2.28343 3.89305,2.85234 3.93693,3.45675 4.20992,4.50507 3.58857,4.87996 2.98619,5.23967 2.40278,5.58422 1.83833,5.91356 1.29284,6.22774 0.76634,6.52673 0.25878,6.81055 -0.2384,7.06741 -0.72517,7.28644 -1.19286,7.47393 -1.64148,7.62989 -2.07104,7.75433 -2.48154,7.84722 -2.87295,7.90859 -3.24531,7.93843 -7.11306,15.03972 -8.22153,14.82165 -9.16755,14.41008 -9.95109,13.80497 -10.57217,13.00631 -11.03079,12.0142 -11.32694,10.8286 -11.46062,9.4494 -8.20791,-15.9928 -9.61099,-15.2573 L 106.47783,991.00333 95.033976,977.04986 83.160344,963.66473 71.181365,950.79221 59.42148,938.3766 48.205123,926.36218 l -5.535641,-6.13747 -5.249764,-6.04293 -4.920374,-5.94812 -4.547463,-5.85304 -4.131046,-5.75769 -3.671107,-5.66206 -3.16766,-5.56617 -2.620694,-5.47001 -2.054441,-5.35574 -1.47077,-5.2457 -0.846383,-5.16888 -0.181272,-5.12527 0.524555,-5.11488 1.271098,-5.13772 2.058367,-5.19377 2.886346,-5.28304 3.461272,-5.12756 3.553891,-4.41499 3.638102,-3.74193 3.713903,-3.10838 3.781282,-2.51436 3.840261,-1.95984 3.890821,-1.44484 3.932968,-0.96935 3.988832,-0.52259 4.05439,-0.0903 4.105506,0.3238 4.142179,0.71975 4.164406,1.09757 4.172198,1.45723 4.165544,1.79873 4.144443,2.12209 10.222183,6.24397 8.543452,6.0096 7.138193,5.9271 6.00641,5.99644 5.14811,6.21765 4.56329,6.5907 4.25194,7.11563 4.21407,7.79239 1.07193,-3.51459 1.05902,-3.22323 1.04184,-2.9748 1.0204,-2.76928 0.99467,-2.60668 0.96467,-2.48701 0.93041,-2.41024 0.89187,-2.3764 1.37371,-3.38144 1.62231,-3.37449 1.85616,-3.33772 2.07528,-3.27114 2.27967,-3.17477 2.4693,-3.04858 2.6442,-2.89258 2.80437,-2.70678 2.94591,-2.49141 3.06997,-2.25291 3.18103,-1.99426 3.27907,-1.71547 3.36411,-1.41652 3.43613,-1.09743 3.49514,-0.75819 3.54114,-0.39881 1e-5,0 0,0 10e-6,0 0,0 1e-5,0 1e-5,0 0,0 1e-5,-3e-5"
           id="path3826" />
      </g>
    </g>
  </g>
</svg>
