<?xml version="1.0" encoding="UTF-8" standalone="no"?>
<!-- Created with Inkscape (http://www.inkscape.org/) -->

<svg
   xmlns:dc="http://purl.org/dc/elements/1.1/"
   xmlns:cc="http://creativecommons.org/ns#"
   xmlns:rdf="http://www.w3.org/1999/02/22-rdf-syntax-ns#"
   xmlns:svg="http://www.w3.org/2000/svg"
   xmlns="http://www.w3.org/2000/svg"
   xmlns:sodipodi="http://sodipodi.sourceforge.net/DTD/sodipodi-0.dtd"
   xmlns:inkscape="http://www.inkscape.org/namespaces/inkscape"
   width="744.09448819"
   height="1052.3622047"
   id="svg4598"
   version="1.1"
   inkscape:version="0.48.2 r9819"
   sodipodi:docname="henning3d_bara.svg">
  <defs
     id="defs4600" />
  <sodipodi:namedview
     id="base"
     pagecolor="#ffffff"
     bordercolor="#666666"
     borderopacity="1.0"
     inkscape:pageopacity="0.0"
     inkscape:pageshadow="2"
     inkscape:zoom="2.8"
     inkscape:cx="207.01105"
     inkscape:cy="943.55403"
     inkscape:document-units="px"
     inkscape:current-layer="layer1"
     showgrid="false"
     inkscape:window-width="1366"
     inkscape:window-height="721"
     inkscape:window-x="-4"
     inkscape:window-y="24"
     inkscape:window-maximized="1" />
  <metadata
     id="metadata4603">
    <rdf:RDF>
      <cc:Work
         rdf:about="">
        <dc:format>image/svg+xml</dc:format>
        <dc:type
           rdf:resource="http://purl.org/dc/dcmitype/StillImage" />
        <dc:title />
      </cc:Work>
    </rdf:RDF>
  </metadata>
  <g
     inkscape:label="Layer 1"
     inkscape:groupmode="layer"
     id="layer1">
    <path
       style="fill:#000000;fill-opacity:1;fill-rule:nonzero;stroke:none"
       d="m 67.497531,21.992434 0,43.203509 -1.47958,0 0,-3.63552 -4.10053,0 0,3.63552 -2.28277,0 0,-3.63552 -4.1428,0 0,3.63552 -2.28277,0 0,-3.63552 -4.10053,0 0,3.63552 -1.395016,0 0,-13.78115 -20.03764,0 0,33.43833 20.03764,0 0,-11.24475 1.395016,0 0,3.67779 4.10053,0 0,-3.67779 2.28277,0 0,3.67779 4.1428,0 0,-3.67779 2.28277,0 0,3.67779 4.10053,0 0,-3.67779 1.47958,0 0,45.951287 8.96198,0 3.59325,8.53925 0.465,0.0423 6.25648,16.69804 -2.83232,0.8032 -2.0714,-6.17194 -46.078116,6.12966 -1.22593,43.20353 1.47957,0 0.46501,2.79005 c -4.81048,0.5718 -9.4431,2.89185 -12.85115,6.8483 -7.22682,8.38975 -6.27608,21.05415 2.11368,28.28097 l 15.00709,-24.13817 4.69236,27.85824 c 3.322506,-1.16085 6.284576,-3.16717 8.581516,-5.83374 7.22682,-8.38975 6.27608,-21.05415 -2.11367,-28.28098 -2.4831,-2.1389 -5.309296,-3.58347 -8.285606,-4.31189 l 0.97229,-3.21278 0.88774,0 2.02913,-34.157 39.441176,0 -0.93002,-2.79005 3.33961,0.0845 1.31048,3.5087 42.442589,0 -0.16908,3.97371 -7.48242,0 0,80.70011 3.12825,0 0,3.38188 -3.33961,0 0.33819,19.91082 -4.10053,7.10195 15.38755,0 0,-27.01277 -2.57868,0 0.38046,-3.38188 41.13211,0 -0.42272,3.38188 -3.17053,0 0,27.01277 15.38756,0 -4.1428,-7.10195 0.38047,-19.91082 -1.77549,0 -0.59184,-3.38188 2.66324,0 0,-17.88169 -35.63656,0 0,-13.52752 35.63656,0 0,-17.88169 -35.63656,0 0,-13.52752 35.63656,0 0,-17.88169 -11.41384,0 0.25364,-3.97371 42.2735,0 1.64866,-3.42415 3.80461,-0.0845 -0.8032,1.7332 111.6866,0 0,-1.52185 3.55097,-0.33818 c 0.0916,0.48181 0.16939,0.96416 0.29592,1.43729 1.49249,5.58137 5.41059,10.47347 11.07565,13.06252 10.07123,4.60275 21.98728,0.17922 26.59004,-9.892 l -27.39323,-7.69378 25.44865,-12.25932 c -2.04071,-2.86742 -4.78869,-5.17402 -7.9897,-6.63693 -10.07121,-4.60274 -21.945,-0.13695 -26.54776,9.93427 -1.18291,2.58834 -1.76804,5.27534 -1.81776,7.94743 l -3.21278,0.0845 0,-3.55098 -105.89512,-3.25506 -1.9023,4.1428 -3.17053,-0.88774 8.53925,-17.79715 0.21138,-0.0423 3.08596,-6.84831 7.4824,0 0,-45.951287 0.93002,0 0,3.67779 4.1428,0 0,-3.67779 2.28278,0 0,3.67779 4.10052,0 0,-3.67779 2.28278,0 0,3.67779 4.10052,0 0,-3.67779 1.18367,0 0,11.24475 20.07991,0 0,-33.43833 -20.07991,0 0,13.78115 -1.18367,0 0,-3.63552 -4.10052,0 0,3.63552 -2.28278,0 0,-3.63552 -4.10052,0 0,3.63552 -2.28278,0 0,-3.63552 -4.1428,0 0,3.63552 -0.93002,0 0,-43.203509 -172.475879,0 z M 202.89956,52.682993 c 13.20775,0 23.9268,10.67678 23.9268,23.88452 0,13.20775 -10.71905,23.926797 -23.9268,23.926797 -13.20775,0 -23.88454,-10.719047 -23.88454,-23.926797 0,-13.20774 10.67679,-23.88452 23.88454,-23.88452 z m -92.15624,14.58435 c 8.47163,0 15.34529,6.87366 15.34529,15.34528 0,8.47163 -6.87366,15.34528 -15.34529,15.34528 -8.47163,0 -15.345279,-6.87365 -15.345279,-15.34528 0,-8.47162 6.873649,-15.34528 15.345279,-15.34528 z m -11.921129,52.292317 109.995659,0 0.59182,6.5524 -11.20247,0 0,7.69377 -20.54493,0 0,-7.69377 -47.34631,0 -0.25364,8.20106 -21.26358,0 0,-7.9897 -10.145639,0 0.16909,-6.76376 z M 338.51295,147.587 c 0.89881,-0.0708 1.7689,0.49813 2.02913,1.39502 0.2974,1.02502 -0.28546,2.11217 -1.31048,2.40959 -1.02502,0.2974 -2.11219,-0.32773 -2.40959,-1.35275 -0.29742,-1.02502 0.28546,-2.11219 1.31048,-2.40959 0.12813,-0.0372 0.25206,-0.0322 0.38046,-0.0423 z M 42.006605,193.62284 c 1.0673,0 1.94458,0.87729 1.94458,1.94458 0,1.06729 -0.87728,1.94458 -1.94458,1.94458 -1.06729,0 -1.94458,-0.87729 -1.94458,-1.94458 0,-1.06729 0.87729,-1.94458 1.94458,-1.94458 z"
       id="path4462-1"
       inkscape:connector-curvature="0" />
  </g>
</svg>
