<?xml version="1.0" encoding="UTF-8" standalone="no"?>
<!-- Created with Inkscape (http://www.inkscape.org/) -->

<svg
   xmlns:dc="http://purl.org/dc/elements/1.1/"
   xmlns:cc="http://creativecommons.org/ns#"
   xmlns:rdf="http://www.w3.org/1999/02/22-rdf-syntax-ns#"
   xmlns:svg="http://www.w3.org/2000/svg"
   xmlns="http://www.w3.org/2000/svg"
   xmlns:sodipodi="http://sodipodi.sourceforge.net/DTD/sodipodi-0.dtd"
   xmlns:inkscape="http://www.inkscape.org/namespaces/inkscape"
   width="744.09448819"
   height="1052.3622047"
   id="svg3367"
   version="1.1"
   inkscape:version="0.48.2 r9819"
   sodipodi:docname="henning3d.svg">
  <defs
     id="defs3369" />
  <sodipodi:namedview
     id="base"
     pagecolor="#ffffff"
     bordercolor="#666666"
     borderopacity="1.0"
     inkscape:pageopacity="0.0"
     inkscape:pageshadow="2"
     inkscape:zoom="0.98994949"
     inkscape:cx="504.88195"
     inkscape:cy="650.38761"
     inkscape:document-units="px"
     inkscape:current-layer="layer1"
     showgrid="false"
     inkscape:window-width="1366"
     inkscape:window-height="721"
     inkscape:window-x="-4"
     inkscape:window-y="24"
     inkscape:window-maximized="1" />
  <metadata
     id="metadata3372">
    <rdf:RDF>
      <cc:Work
         rdf:about="">
        <dc:format>image/svg+xml</dc:format>
        <dc:type
           rdf:resource="http://purl.org/dc/dcmitype/StillImage" />
        <dc:title></dc:title>
      </cc:Work>
    </rdf:RDF>
  </metadata>
  <g
     inkscape:label="Layer 1"
     inkscape:groupmode="layer"
     id="layer1">
    <path
       style="fill:#000000;fill-opacity:1;fill-rule:nonzero;stroke:none"
       d="m 58.517181,29.124305 0,43.21875 -0.28125,0 -2.21875,0 0,-3.625 -4.09375,0 0,3.625 -2.28125,0 0,-3.625 -4.15625,0 0,3.625 -2.28125,0 0,-3.625 -4.09375,0 0,3.59375 -1.25,0 0,-13.75 -20.0625,0 0,33.4375 20.0625,0 0,-11.125 1.25,0 0,3.5625 4.09375,0 0,-3.65625 2.28125,0 0,3.65625 4.15625,0 0,-3.65625 2.28125,0 0,3.65625 4.09375,0 0,-3.65625 2,0 0.5,0 0,45.937495 20.9375,0 0.5,6.75 -9.09375,0 5.8125,15.53125 -2.8125,0.78125 -0.9375,-3.15625 -46.125,6.125 -1.15625,43.21875 1.4375,0 0.4375,2.8125 c -4.80591,0.57475 -9.37619,2.8595 -12.78125,6.8125 -7.2276798,8.39075 -6.2970098,21.05356 2.09375,28.28125 l 15,-24.125 4.71875,27.84375 c 3.32291,-1.16099 6.26528,-3.14561 8.5625,-5.8125 7.22768,-8.39076 6.29701,-21.05357 -2.09375,-28.28125 -2.49335,-2.14774 -5.3854,-3.55545 -8.375,-4.28125 l 0.96875,-3.25 0.9375,0 2.0625,-34.15625 39.40625,0 -0.9375,-2.8125 3.34375,0.0937 1.3125,3.5 42.437499,0 -0.15625,4 -7.5,0 0,80.6875 2.4375,0 0,3.4375 -2.625,0 0.3125,19.875 -4.09375,7.09375 15.40625,0 0,-26.96875 -1.96875,0 0.375,-3.4375 39.625,0 -0.375,3.4375 -2.3125,0 0,26.96875 15.375,0 -4.09375,-7.09375 0.34375,-19.875 -1.75,0 0.1875,-3.4375 1.84375,0 0,-17.875 -35.59375,0 0,-13.53125 35.59375,0 0,-17.875 -35.59375,0 0,-13.53125 35.59375,0 0,-17.875 -11.40625,0 0.25,-4 42.3125,0 1.65625,-3.40625 3.75,-0.0937 -0.78125,1.75 111.6875,0 0,-1.53125 3.5625,-0.34375 c 0.0917,0.48228 0.21712,0.96392 0.34375,1.4375 1.49267,5.58203 5.36551,10.47315 11.03125,13.0625 10.07243,4.60331 21.99044,0.16618 26.59375,-9.90625 l -27.375,-7.6875 25.40625,-12.25 c -2.04095,-2.86777 -4.76737,-5.16191 -7.96875,-6.625 -10.07242,-4.60329 -21.9592,-0.16618 -26.5625,9.90625 -1.18323,2.58903 -1.76293,3.51473 -1.8125,6.1875 l -3.21875,0.0625 0,-1.75 -105.90625,-3.25 -1.28125,2 -3.125,-0.90625 8.03125,-16 -11.1875,0 1.0625,-6.53125 20.75,0 0,-45.937495 1.46875,0 0,3.65625 4.125,0 0,-3.65625 2.28125,0 0,3.65625 4.09375,0 0,-3.65625 2.3125,0 0,3.65625 4.125,0 0,-3.65625 0.875,0 0.15625,-8.4375 -1.03125,0 0,-3.625 -4.125,0 0,3.625 -2.3125,0 0,-3.625 -4.09375,0 0,3.625 -2.28125,0 0,-3.625 -4.125,0 0,3.625 -1.46875,0 0,-43.21875 z m 192.156249,29.4375 0,33.4375 20.03125,0 0,-33.4375 z m -56.71875,1.25 c 13.20932,0 23.90625,10.69693 23.90625,23.90625 0,13.20932 -10.69693,23.937495 -23.90625,23.937495 -13.20932,0 -23.90625,-10.728175 -23.90625,-23.937495 0,-13.20932 10.69693,-23.90625 23.90625,-23.90625 z m -92.1875,14.59375 c 8.47263,0 15.34375,6.87112 15.34375,15.34375 0,8.47264 -6.87112,15.343745 -15.34375,15.343745 -8.472629,0 -15.343749,-6.871105 -15.343749,-15.343745 0,-8.47263 6.87112,-15.34375 15.343749,-15.34375 z m 40.71875,58.843745 -21.125,0 -0.28125,8.21875 -21.218749,0 0,-8 -10.1875,0 0.1875,-6.75 52.031249,0 z m 9.78125,-6.53125 47.59375,0 0.59375,6.53125 -11.21875,0 0,7.75 -20.53125,0 0,-7.75 -17.5,0 z m 177.3125,28.03125 c 0.89891,-0.0708 1.77099,0.478 2.03125,1.375 0.29744,1.02514 -0.28735,2.1088 -1.3125,2.40625 -1.02514,0.29743 -2.10882,-0.3186 -2.40625,-1.34375 -0.29746,-1.02514 0.28736,-2.10882 1.3125,-2.40625 0.12815,-0.0372 0.24658,-0.0212 0.375,-0.0312 z M 33.079681,200.78055 c 1.06742,0 1.9375,0.87008 1.9375,1.9375 0,1.06742 -0.87008,1.96875 -1.9375,1.96875 -1.06742,0 -1.96875,-0.90133 -1.96875,-1.96875 0,-1.06742 0.90133,-1.9375 1.96875,-1.9375 z"
       id="path4318"
       inkscape:connector-curvature="0"
       sodipodi:nodetypes="ccccccccccccccccccccccccccccccccccccccccccccccscccssccccccccccccccccccccccccccccccccccccccccccccccccccscccsscccccccccccccccccccccccccccccccccccccccccccccsssssssssscccccccccccccccccccscccccsssss" />
    <path
       style="fill:#000000;fill-opacity:1;fill-rule:nonzero;stroke:none"
       d="m 374.57257,269.9116 0,43.20351 -1.47958,0 0,-3.63552 -4.10053,0 0,3.63552 -2.28277,0 0,-3.63552 -4.1428,0 0,3.63552 -2.28277,0 0,-3.63552 -4.10053,0 0,3.63552 -1.39502,0 0,-13.78115 -20.03764,0 0,33.43833 20.03764,0 0,-11.24475 1.39502,0 0,3.67779 4.10053,0 0,-3.67779 2.28277,0 0,3.67779 4.1428,0 0,-3.67779 2.28277,0 0,3.67779 4.10053,0 0,-3.67779 1.47958,0 0,45.95129 8.96198,0 3.59325,8.53925 0.465,0.0423 6.25648,16.69804 -2.83232,0.8032 -2.0714,-6.17194 -46.07812,6.12966 -1.22593,43.20353 1.47957,0 0.46501,2.79005 c -4.81048,0.5718 -9.4431,2.89185 -12.85115,6.8483 -7.22682,8.38975 -6.27608,21.05415 2.11368,28.28097 l 15.00709,-24.13817 4.69236,27.85824 c 3.32251,-1.16085 6.28458,-3.16717 8.58152,-5.83374 7.22682,-8.38975 6.27608,-21.05415 -2.11367,-28.28098 -2.4831,-2.1389 -5.3093,-3.58347 -8.28561,-4.31189 l 0.97229,-3.21278 0.88774,0 2.02913,-34.157 39.44118,0 -0.93002,-2.79005 3.33961,0.0845 1.31048,3.5087 42.44258,0 -0.16908,3.97371 -7.48242,0 0,80.70011 3.12825,0 0,3.38188 -3.33961,0 0.33819,19.91082 -4.10053,7.10195 15.38755,0 0,-27.01277 -2.57868,0 0.38046,-3.38188 41.13211,0 -0.42272,3.38188 -3.17053,0 0,27.01277 15.38756,0 -4.1428,-7.10195 0.38047,-19.91082 -1.77549,0 -0.59184,-3.38188 2.66324,0 0,-17.88169 -35.63656,0 0,-13.52752 35.63656,0 0,-17.88169 -35.63656,0 0,-13.52752 35.63656,0 0,-17.88169 -11.41384,0 0.25364,-3.97371 42.2735,0 1.64866,-3.42415 3.80461,-0.0845 -0.8032,1.7332 111.6866,0 0,-1.52185 3.55097,-0.33818 c 0.0916,0.48181 0.16939,0.96416 0.29592,1.43729 1.49249,5.58137 5.41059,10.47347 11.07565,13.06252 10.07123,4.60275 21.98728,0.17922 26.59004,-9.892 l -27.39323,-7.69378 25.44865,-12.25932 c -2.04071,-2.86742 -4.78869,-5.17402 -7.9897,-6.63693 -10.07121,-4.60274 -21.945,-0.13695 -26.54776,9.93427 -1.18291,2.58834 -1.76804,5.27534 -1.81776,7.94743 l -3.21278,0.0845 0,-3.55098 -105.89512,-3.25506 -1.9023,4.1428 -3.17053,-0.88774 8.53925,-17.79715 0.21138,-0.0423 3.08596,-6.84831 7.4824,0 0,-45.95129 0.93002,0 0,3.67779 4.1428,0 0,-3.67779 2.28278,0 0,3.67779 4.10052,0 0,-3.67779 2.28278,0 0,3.67779 4.10052,0 0,-3.67779 1.18367,0 0,11.24475 20.07991,0 0,-33.43833 -20.07991,0 0,13.78115 -1.18367,0 0,-3.63552 -4.10052,0 0,3.63552 -2.28278,0 0,-3.63552 -4.10052,0 0,3.63552 -2.28278,0 0,-3.63552 -4.1428,0 0,3.63552 -0.93002,0 0,-43.20351 -172.47587,0 z m 135.40202,30.69056 c 13.20775,0 23.9268,10.67678 23.9268,23.88452 0,13.20775 -10.71905,23.9268 -23.9268,23.9268 -13.20775,0 -23.88454,-10.71905 -23.88454,-23.9268 0,-13.20774 10.67679,-23.88452 23.88454,-23.88452 z m -92.15623,14.58435 c 8.47162,0 15.34528,6.87366 15.34528,15.34528 0,8.47163 -6.87366,15.34528 -15.34528,15.34528 -8.47163,0 -15.34528,-6.87365 -15.34528,-15.34528 0,-8.47162 6.87365,-15.34528 15.34528,-15.34528 z m -11.92113,52.29232 109.99565,0 0.59182,6.5524 -11.20247,0 0,7.69377 -20.54493,0 0,-7.69377 -47.34631,0 -0.25364,8.20106 -21.26357,0 0,-7.9897 -10.14564,0 0.16909,-6.76376 z m 239.69075,28.02734 c 0.89881,-0.0708 1.7689,0.49813 2.02913,1.39502 0.2974,1.02502 -0.28546,2.11217 -1.31048,2.40959 -1.02502,0.2974 -2.11219,-0.32773 -2.40959,-1.35275 -0.29742,-1.02502 0.28546,-2.11219 1.31048,-2.40959 0.12813,-0.0372 0.25206,-0.0322 0.38046,-0.0423 z m -296.50634,46.03584 c 1.0673,0 1.94458,0.87729 1.94458,1.94458 0,1.06729 -0.87728,1.94458 -1.94458,1.94458 -1.06729,0 -1.94458,-0.87729 -1.94458,-1.94458 0,-1.06729 0.87729,-1.94458 1.94458,-1.94458 z"
       id="path4462"
       inkscape:connector-curvature="0" />
    <path
       inkscape:connector-curvature="0"
       style="fill:#000000;fill-opacity:1;fill-rule:nonzero;stroke:none"
       d="m 19.010627,637.57195 0,72.125 127.500003,0 0,-72.125 -127.500003,0 z m 100.093753,22.6875 c 9.76361,0 17.6875,7.89264 17.6875,17.65625 0,9.76361 -7.92389,17.6875 -17.6875,17.6875 -9.76361,0 -17.65625,-7.92389 -17.65625,-17.6875 0,-9.76361 7.89264,-17.65625 17.65625,-17.65625 z M 50.979377,671.0407 c 6.26251,0 11.34375,5.08124 11.34375,11.34375 0,6.26251 -5.08124,11.34375 -11.34375,11.34375 -6.26251,0 -11.34375,-5.08124 -11.34375,-11.34375 0,-6.26251 5.08124,-11.34375 11.34375,-11.34375 z"
       id="path4519" />
    <rect
       style="fill:#000000;fill-opacity:1;fill-rule:nonzero;stroke:none"
       id="rect4521"
       width="14.821428"
       height="24.72884"
       x="160.58969"
       y="659.31079" />
    <rect
       style="fill:#000000;fill-opacity:1;fill-rule:nonzero;stroke:none"
       id="rect4523"
       width="3.0357144"
       height="11.637101"
       x="147.21661"
       y="666.82635" />
    <rect
       y="666.82635"
       x="151.94876"
       height="11.637101"
       width="3.0357144"
       id="rect4525"
       style="fill:#000000;fill-opacity:1;fill-rule:nonzero;stroke:none" />
    <rect
       style="fill:#000000;fill-opacity:1;fill-rule:nonzero;stroke:none"
       id="rect4527"
       width="3.0357144"
       height="11.637101"
       x="156.68091"
       y="666.82635" />
    <path
       style="fill:#000000;fill-opacity:1;stroke:none"
       d="m 28.131167,714.71092 21.42857,0 0,5.89285 15.71428,0 0.17857,-6.07142 35.000003,0 0,5.71428 15.17858,0 0,-5.71428 23.03571,0 -10.39171,21.7105 -92.108293,0 z"
       id="path4529"
       inkscape:connector-curvature="0"
       sodipodi:nodetypes="ccccccccccccc" />
    <path
       style="fill:#000000;fill-opacity:1;stroke:none"
       d="m 135.97595,725.54272 -4.28166,9.38439 82.56848,0 0,-6.98527 z"
       id="path4531"
       inkscape:connector-curvature="0"
       sodipodi:nodetypes="ccccc" />
    <path
       style="fill:#000000;fill-opacity:1;stroke:none"
       d="m 29.657387,724.4063 3.76617,11.22811 -29.14625,0 -1.51523,25.26365 -8.08122,0 0.88388,-31.94607 z"
       id="path4533"
       inkscape:connector-curvature="0"
       sodipodi:nodetypes="ccccccc" />
    <path
       style="fill:#000000;fill-opacity:1;fill-rule:nonzero;stroke:none"
       d="m -1.818683,762.85066 c -4.26995,-0.0901 -8.55745,1.66763 -11.5625,5.15625 -5.34231,6.20199 -4.63949,15.56394 1.5625,20.90625 L -0.72493304,771.06941 2.743817,791.66316 c 2.45611,-0.85814 4.64577,-2.34128 6.34375,-4.3125 5.34231,-6.20199 4.63949,-15.56394 -1.5625,-20.90625 -2.71337,-2.33726 -6.02267,-3.52365 -9.34375,-3.59375 z m 1.99999996,1.59375 c 0.78898,0 1.43750004,0.64852 1.43750004,1.4375 0,0.78898 -0.64852004,1.4375 -1.43750004,1.4375 -0.78898,0 -1.43749996,-0.64852 -1.43749996,-1.4375 0,-0.78898 0.64851996,-1.4375 1.43749996,-1.4375 z"
       id="path4535"
       inkscape:connector-curvature="0" />
    <path
       id="path4537"
       d="m 217.12371,734.60312 c 1.1033,4.12593 3.98613,7.75382 8.17394,9.66773 7.44499,3.40251 16.24029,0.1188 19.6428,-7.32619 l -20.2283,-5.68214 18.8115,-9.06987 c -1.50856,-2.1197 -3.54311,-3.80935 -5.9094,-4.89079 -7.44498,-3.4025 -16.24029,-0.1188 -19.6428,7.32619 -1.48859,3.25718 -1.70585,6.76601 -0.84774,9.97507 z m 0.97332,-2.36488 c -0.21986,-0.75773 0.22227,-1.56128 0.98,-1.78113 0.75773,-0.21985 1.56127,0.22227 1.78112,0.98 0.21985,0.75773 -0.22227,1.56127 -0.98,1.78113 -0.75773,0.21985 -1.56127,-0.22227 -1.78112,-0.98 z"
       style="fill:#000000;fill-opacity:1;fill-rule:nonzero;stroke:none"
       inkscape:connector-curvature="0" />
    <path
       style="fill:#000000;fill-opacity:1;fill-rule:nonzero;stroke:none"
       d="m 61.885627,739.17463 0,59.65625 43.375003,0 0,-13.21875 -26.329313,0 0,-10 26.329313,0 0,-13.21875 -26.329313,0 0,-10 26.329313,0 0,-13.21875 z"
       id="path4539"
       inkscape:connector-curvature="0"
       sodipodi:nodetypes="ccccccccccccc" />
    <path
       style="fill:#000000;stroke:none"
       d="m 61.729727,801.34038 8.5863,0 0,19.95051 -11.36421,0 3.03709,-5.2604 z"
       id="path4541"
       inkscape:connector-curvature="0" />
    <path
       inkscape:connector-curvature="0"
       id="path4543"
       d="m 105.04003,801.34038 -8.586303,0 0,19.95051 11.364213,0 -3.03709,-5.2604 z"
       style="fill:#000000;stroke:none" />
    <path
       style="fill:#000000;stroke:none"
       d="m 29.642857,729.41356 7.67857,-2.14286 0.71429,6.42857 -8.75,-0.17857 z"
       id="path4545"
       inkscape:connector-curvature="0" />
    <path
       style="fill:#000000;stroke:none"
       d="m -3.587353,764.86482 -1.01015,-6.06091 7.07107,0.75761 -1.26269,4.29315 z"
       id="path4547"
       inkscape:connector-curvature="0" />
    <path
       style="fill:#000000;stroke:none"
       d="m 213.97322,730.57427 3.39286,-0.0893 0.0446,2.99107 -4.15178,0.40178 z"
       id="path4549"
       inkscape:connector-curvature="0" />
    <path
       inkscape:connector-curvature="0"
       id="path4551"
       d="m 137.43114,729.41356 -7.67857,-2.14286 -0.71429,6.42857 8.75,-0.17857 z"
       style="fill:#000000;stroke:none" />
    <path
       style="fill:#000000;stroke:none"
       d="m 67.701887,732.09213 29.41813,2.32143 -0.48812,7.5 -29.28762,-0.71429 z"
       id="path4553"
       inkscape:connector-curvature="0"
       sodipodi:nodetypes="ccccc" />
    <path
       style="fill:#000000;stroke:none"
       d="m 64.219137,802.61927 0,-5.17703 4.67196,-0.12627 -0.50508,4.41942 z"
       id="path4555"
       inkscape:connector-curvature="0" />
    <path
       style="fill:#000000;stroke:none"
       d="m 99.321937,796.93716 -0.75761,6.43973 5.429573,-0.50508 -1.13642,-6.69226 z"
       id="path4557"
       inkscape:connector-curvature="0" />
    <path
       style="fill:#000000;stroke:none"
       d="m 160.89286,669.52412 -14.91071,0 0,6.22219 14.77679,0 z"
       id="path4559"
       inkscape:connector-curvature="0" />
    <rect
       y="659.31079"
       x="-4.3987164"
       height="24.72884"
       width="14.821428"
       id="rect4561"
       style="fill:#000000;fill-opacity:1;fill-rule:nonzero;stroke:none"
       transform="scale(-1,1)" />
    <rect
       y="666.82635"
       x="-17.924229"
       height="11.637101"
       width="3.0357144"
       id="rect4563"
       style="fill:#000000;fill-opacity:1;fill-rule:nonzero;stroke:none"
       transform="scale(-1,1)" />
    <rect
       style="fill:#000000;fill-opacity:1;fill-rule:nonzero;stroke:none"
       id="rect4565"
       width="3.0357144"
       height="11.637101"
       x="-13.192081"
       y="666.82635"
       transform="scale(-1,1)" />
    <rect
       y="666.82635"
       x="-8.4599342"
       height="11.637101"
       width="3.0357144"
       id="rect4567"
       style="fill:#000000;fill-opacity:1;fill-rule:nonzero;stroke:none"
       transform="scale(-1,1)" />
    <path
       inkscape:connector-curvature="0"
       id="path4569"
       d="m 4.269667,669.52412 14.91071,0 0,6.22219 -14.77679,0 z"
       style="fill:#000000;stroke:none" />
    <path
       style="fill:#000000;stroke:none"
       d="m 28.294637,716.0207 -3.91322,-9.28571 17.84431,1.07143 -0.25071,8.92857 z"
       id="path4571"
       inkscape:connector-curvature="0"
       sodipodi:nodetypes="ccccc" />
    <path
       style="fill:#000000;stroke:none"
       d="m 124.10863,716.73499 -0.98018,-11.07143 18.38596,2.85714 -2.80513,6.25 z"
       id="path4573"
       inkscape:connector-curvature="0"
       sodipodi:nodetypes="ccccc" />
  </g>
</svg>
