<?xml version="1.0" encoding="UTF-8" standalone="no"?>
<!-- Created with Inkscape (http://www.inkscape.org/) -->

<svg
   xmlns:dc="http://purl.org/dc/elements/1.1/"
   xmlns:cc="http://creativecommons.org/ns#"
   xmlns:rdf="http://www.w3.org/1999/02/22-rdf-syntax-ns#"
   xmlns:svg="http://www.w3.org/2000/svg"
   xmlns="http://www.w3.org/2000/svg"
   xmlns:sodipodi="http://sodipodi.sourceforge.net/DTD/sodipodi-0.dtd"
   xmlns:inkscape="http://www.inkscape.org/namespaces/inkscape"
   width="744.09448819"
   height="1052.3622047"
   id="svg4905"
   version="1.1"
   inkscape:version="0.48.4 r9939"
   sodipodi:docname="New document 4">
  <defs
     id="defs4907" />
  <sodipodi:namedview
     id="base"
     pagecolor="#ffffff"
     bordercolor="#666666"
     borderopacity="1.0"
     inkscape:pageopacity="0.0"
     inkscape:pageshadow="2"
     inkscape:zoom="1.2552457"
     inkscape:cx="126.7969"
     inkscape:cy="99.781243"
     inkscape:document-units="px"
     inkscape:current-layer="layer1"
     showgrid="false"
     inkscape:window-width="1366"
     inkscape:window-height="721"
     inkscape:window-x="-4"
     inkscape:window-y="24"
     inkscape:window-maximized="1" />
  <metadata
     id="metadata4910">
    <rdf:RDF>
      <cc:Work
         rdf:about="">
        <dc:format>image/svg+xml</dc:format>
        <dc:type
           rdf:resource="http://purl.org/dc/dcmitype/StillImage" />
        <dc:title></dc:title>
      </cc:Work>
    </rdf:RDF>
  </metadata>
  <g
     inkscape:label="Layer 1"
     inkscape:groupmode="layer"
     id="layer1">
    <path
       style="fill:none;stroke:#333333"
       d="m 117.28125,853.29968 -5.23463,0.5275 -4.87508,1.51292 -4.41123,2.39402 -3.843073,3.17075 -3.17062,3.84316 -2.393864,4.41121 -1.512806,4.87491 -0.527447,5.23428 0.527447,5.23393 1.512806,4.87475 2.393864,4.41119 3.17062,3.84323 3.843073,3.17089 4.41123,2.39416 4.87508,1.51305 5.23463,0.52755 6.86328,0.51953 6.86328,0.51953 6.86328,0.51953 6.86328,0.51953 6.86329,0.51954 6.86328,0.51953 6.86328,0.51953 6.86328,0.51953 4.99919,0.50296 4.6569,1.44272 4.21468,2.28329 3.67249,3.02463 3.03037,3.66675 2.2883,4.20967 1.44627,4.65337 0.5043,4.99786 -0.5043,4.99885 -1.44627,4.65674 -2.2883,4.21465 -3.03037,3.67258 -3.67249,3.0305 -4.21468,2.28844 -4.6569,1.44639 -4.99919,0.50435 -46,0 -55.9375,-11.75 -6.90625,-3.21875 -51.875,-1.90625 -2.2117706,0.22268 -2.059503,0.63872 -1.8632725,1.0108 -1.623079,1.33892 -1.3389229,1.62308 -1.0108036,1.86327 -0.63872166,2.0595 L 0.5,953.08093 l 0,3.39844 0,3.39843 0,3.39844 0,3.39844 0,3.39844 0,3.39843 0,3.39844 0,3.39844 0.0920186,1.42161 0.26894239,1.38013 0.43800876,1.32371 0.5992178,1.25235 0.7525693,1.16607 0.8980635,1.06485 1.0357002,0.94868 1.1654795,0.8176 1.2636357,0.66029 1.3235221,0.4863 1.3654682,0.31167 1.389474,0.13641 1.39554,-0.0395 1.383665,-0.21601 1.35385,-0.39319 1.306095,-0.57098 4.446239,-1.9068 4.600689,-1.22816 4.683363,-0.55671 4.694259,0.1075 4.633378,0.76451 4.500719,1.4143 4.296283,2.05687 4.02007,2.69224 5.453125,4.24609 5.453125,4.24613 5.453125,4.246 5.453125,4.2461 5.453125,4.2461 5.453125,4.2461 5.453125,4.2461 5.453125,4.2461 1.222886,0.8739 1.283655,0.7652 1.337443,0.6541 1.384256,0.5405 1.42408,0.4246 1.45693,0.3063 1.48281,0.1855 1.50169,0.062 6.84375,0 0,20.7188 21.9375,0 0,-20.7188 52.4375,0 0,-34.03122 -4.25,0 0,-8.15625 4.25,0 0,-9.75 10.3125,0 0,9.75 4.25,0 0,8.15625 -4.25,0 0,34.03122 8.03125,0 0,20.7188 21.96875,0 0,-34.9375 9.1875,-4.125 -0.0117,0 -0.0117,0 -0.0117,0 -0.0117,0 -0.0117,0 -0.0117,0 -0.0117,0 -0.0117,0 3.33766,-1.8006 2.99535,-2.2291 2.62137,-2.6092 2.21576,-2.9408 1.77847,-3.2237 1.30953,-3.45823 0.80893,-3.64422 0.27668,-3.78167 0,-93.78125 0,-16.0625 -0.52851,-5.23323 -1.51369,-4.87442 -2.39452,-4.41114 -3.17097,-3.84339 -3.84306,-3.17117 -4.41078,-2.39446 -4.87414,-1.51329 -5.23313,-0.52765 -13.73047,0 -13.73047,0 -13.73047,0 -13.73047,0 -13.73046,0 -13.73047,0 -13.73047,0 z m 0,19.84375 1.23055,0.1248 1.145,0.35776 1.03527,0.56579 0.90131,0.74889 0.74315,0.90705 0.56079,1.04026 0.35423,1.14855 0.12345,1.2319 -0.12345,1.23055 -0.35423,1.14501 -0.56079,1.03526 -0.74315,0.90131 -0.90131,0.74315 -1.03527,0.56079 -1.145,0.35423 -1.23055,0.12345 -1.23189,-0.12345 -1.14855,-0.35423 -1.04026,-0.56079 -0.90705,-0.74315 -0.74889,-0.90131 -0.5658,-1.03526 -0.35776,-1.14501 -0.1248,-1.23055 0.1248,-1.2319 0.35776,-1.14855 0.5658,-1.04026 0.74889,-0.90705 0.90705,-0.74889 1.04026,-0.56579 1.14855,-0.35776 z m 109.84375,0 1.23058,0.1248 1.14502,0.35776 1.03526,0.56579 0.9013,0.74889 0.74314,0.90705 0.56078,1.04026 0.35422,1.14855 0.12345,1.2319 -0.12345,1.23055 -0.35422,1.14501 -0.56078,1.03526 -0.74314,0.90131 -0.9013,0.74315 -1.03526,0.56079 -1.14502,0.35423 -1.23058,0.12345 -1.23189,-0.12345 -1.14855,-0.35423 -1.04026,-0.56079 -0.90705,-0.74315 -0.74889,-0.90131 -0.5658,-1.03526 -0.35776,-1.14501 -0.1248,-1.23055 0.1248,-1.2319 0.35776,-1.14855 0.5658,-1.04026 0.74889,-0.90705 0.90705,-0.74889 1.04026,-0.56579 1.14855,-0.35776 z m -109.84375,109.84375 1.23055,0.1248 1.145,0.35776 1.03527,0.56579 0.90131,0.74889 0.74315,0.90704 0.56079,1.04027 0.35423,1.14855 0.12345,1.2319 -0.12345,1.23055 -0.35423,1.14501 -0.56079,1.03526 -0.74315,0.90131 -0.90131,0.74315 -1.03527,0.56079 -1.145,0.35423 -1.23055,0.12345 -1.23189,-0.12345 -1.14855,-0.35423 -1.04026,-0.56079 -0.90705,-0.74315 -0.74889,-0.90131 -0.5658,-1.03526 -0.35776,-1.14501 -0.1248,-1.23055 0.1248,-1.2319 0.35776,-1.14855 0.5658,-1.04027 0.74889,-0.90704 0.90705,-0.74889 1.04026,-0.56579 1.14855,-0.35776 z m 109.84375,0 1.23058,0.1248 1.14502,0.35776 1.03526,0.56579 0.9013,0.74889 0.74314,0.90704 0.56078,1.04027 0.35422,1.14855 0.12345,1.2319 -0.12345,1.23055 -0.35422,1.14501 -0.56078,1.03526 -0.74314,0.90131 -0.9013,0.74315 -1.03526,0.56079 -1.14502,0.35423 -1.23058,0.12345 -1.23189,-0.12345 -1.14855,-0.35423 -1.04026,-0.56079 -0.90705,-0.74315 -0.74889,-0.90131 -0.5658,-1.03526 -0.35776,-1.14501 -0.1248,-1.23055 0.1248,-1.2319 0.35776,-1.14855 0.5658,-1.04027 0.74889,-0.90704 0.90705,-0.74889 1.04026,-0.56579 1.14855,-0.35776 z m -101.90625,31.34372 0.80954,0.064 0.77358,0.2357 0.71528,0.385 0.63464,0.5129 0.53169,0.6189 0.40641,0.7034 0.25878,0.7662 0.0888,0.8072 -0.0954,0.7817 -0.25415,0.7423 -0.39276,0.6829 -0.51115,0.6034 -0.60936,0.5041 -0.68737,0.3848 -0.74518,0.2456 -0.78279,0.086 -0.7828,-0.086 -0.74518,-0.2456 -0.68737,-0.3848 -0.60936,-0.5041 -0.51115,-0.6034 -0.39276,-0.6829 -0.25415,-0.7423 -0.0954,-0.7817 0.0807,-0.7743 0.23631,-0.7388 0.37289,-0.6835 0.49046,-0.6086 0.58901,-0.5137 0.66854,-0.3993 0.72904,-0.2648 z m 49.40625,0 0.80524,0.07 0.7686,0.239 0.71003,0.3867 0.62951,0.5129 0.52705,0.6178 0.40266,0.701 0.25634,0.763 0.0881,0.8035 -0.0954,0.7817 -0.25415,0.7423 -0.39276,0.6829 -0.51115,0.6034 -0.60936,0.5041 -0.68737,0.3848 -0.74518,0.2456 -0.7828,0.086 -0.78279,-0.086 -0.74518,-0.2456 -0.68737,-0.3848 -0.60936,-0.5041 -0.51115,-0.6034 -0.39276,-0.6829 -0.25415,-0.7423 -0.0954,-0.7817 0.0817,-0.7778 0.23885,-0.7417 0.37661,-0.6857 0.49499,-0.6097 0.59401,-0.5136 0.67367,-0.3977 0.73397,-0.2618 z"
       id="path4868"
       inkscape:connector-curvature="0"
       sodipodi:nodetypes="cccccccccccccccccccccccccccccccccccccccccccccccccccccccccccccccccccccccccccccccccccccccccccccccccccccccccccccccccccccccccccccccccccccccccccccccccccccccccccccccccccccccccccccccccccccccccccccccccccccccccccccccccccccccccccccccccccccccccccccccccccccccccccccccccccccccccccccccccccccccccccccccccccccccccccccccccccccccccccccccccccccccccccccccccccccccccccccccccc" />
  </g>
</svg>
