<?xml version="1.0" encoding="UTF-8" standalone="no"?>
<!-- Created with Inkscape (http://www.inkscape.org/) -->

<svg
   xmlns:dc="http://purl.org/dc/elements/1.1/"
   xmlns:cc="http://creativecommons.org/ns#"
   xmlns:rdf="http://www.w3.org/1999/02/22-rdf-syntax-ns#"
   xmlns:svg="http://www.w3.org/2000/svg"
   xmlns="http://www.w3.org/2000/svg"
   xmlns:sodipodi="http://sodipodi.sourceforge.net/DTD/sodipodi-0.dtd"
   xmlns:inkscape="http://www.inkscape.org/namespaces/inkscape"
   width="744.09448819"
   height="1052.3622047"
   id="svg10538"
   version="1.1"
   inkscape:version="0.48.4 r9939"
   sodipodi:docname="New document 17">
  <defs
     id="defs10540" />
  <sodipodi:namedview
     id="base"
     pagecolor="#ffffff"
     bordercolor="#666666"
     borderopacity="1.0"
     inkscape:pageopacity="0.0"
     inkscape:pageshadow="2"
     inkscape:zoom="1.3807451"
     inkscape:cx="78.38575"
     inkscape:cy="86.386702"
     inkscape:document-units="px"
     inkscape:current-layer="layer1"
     showgrid="false"
     inkscape:window-width="1366"
     inkscape:window-height="721"
     inkscape:window-x="-4"
     inkscape:window-y="24"
     inkscape:window-maximized="1" />
  <metadata
     id="metadata10543">
    <rdf:RDF>
      <cc:Work
         rdf:about="">
        <dc:format>image/svg+xml</dc:format>
        <dc:type
           rdf:resource="http://purl.org/dc/dcmitype/StillImage" />
        <dc:title></dc:title>
      </cc:Work>
    </rdf:RDF>
  </metadata>
  <g
     inkscape:label="Layer 1"
     inkscape:groupmode="layer"
     id="layer1">
    <g
       id="g10616"
       transform="translate(-84.471392,551.71401)">
      <path
         style="fill:none;stroke:#000000;stroke-width:1.6162014;stroke-linecap:square;stroke-linejoin:bevel;stroke-miterlimit:10;stroke-opacity:1;stroke-dasharray:none"
         d="m 7.28125,796.59375 -2.4375,0.8125 -1.625,1.21875 -1.59375,1.625 -0.8125,2 0,242.8438 0.40625,2.4062 1.21875,1.625 2,1.625 2.03125,0.4062 1.21875,0.4063 102.625,0 1.21875,-0.4063 2,-0.4062 2.03125,-1.625 1.21875,-1.625 0.40625,-2.4062 0.40625,-0.8126 0,-114.3437 0.78125,-2.03125 1.625,-1.59375 1.625,-1.21875 2.40625,-0.40625 0.40625,-0.40625 26.6875,0 2,-0.8125 1.625,-1.625 0.8125,-2 0.40625,-2.03125 0,-114.34375 -0.40625,-2.03125 -1.21875,-2 -1.625,-1.625 -2,-0.8125 -2.03125,-0.40625 z m 82,9.6875 3.65625,0 1.625,0.40625 1.59375,0.40625 1.625,0.8125 1.21875,0.8125 1.59375,0.8125 1.21875,1.21875 0.8125,1.1875 0.8125,1.625 0.8125,1.625 0.40625,1.21875 0.40625,2 0,1.625 0,2.03125 -0.40625,1.59375 -0.40625,1.625 -0.8125,1.625 -0.8125,1.21875 -1.21875,1.59375 -1.1875,0.8125 L 99,831.75 l -1.625,0.8125 -1.625,0.40625 -1.59375,0.40625 -0.8125,0.40625 -4.4375,0 -1.625,-0.40625 -1.625,-0.8125 -1.21875,-0.8125 -1.59375,-0.8125 -1.21875,-1.21875 -0.8125,-1.1875 -1.21875,-1.21875 -0.8125,-1.625 -0.40625,-1.625 -0.40625,-1.59375 0,-0.8125 -0.40625,-0.8125 0,-2.03125 0.40625,-0.8125 0,-0.78125 0.40625,-1.625 0.8125,-1.625 L 80,812.75 l 0.8125,-1.59375 1.21875,-1.21875 1.1875,-0.8125 1.21875,-1.21875 1.625,-0.40625 1.625,-0.8125 z m 39.625,12.9375 2.40625,0 0.8125,0.40625 0.40625,0 0.8125,0.40625 0.40625,0.40625 0.40625,0.40625 0.40625,0.40625 0.375,0.8125 0,0.40625 0.40625,0.40625 0,1.59375 0,1.21875 -0.40625,0.8125 -0.375,0.40625 0,0.40625 -0.40625,0.40625 -0.40625,0.40625 -0.8125,0.40625 -0.40625,0.40625 -0.40625,0.375 -3.21875,0 -0.8125,-0.375 -0.40625,-0.40625 -0.40625,0 -0.40625,-0.40625 -0.40625,-0.8125 -0.40625,-0.40625 -0.40625,-0.40625 -0.40625,-0.8125 0,-1.625 0,-1.1875 0.40625,-0.8125 0.40625,-0.40625 0.40625,-0.40625 0.40625,-0.8125 0.40625,-0.40625 0.40625,0 0.8125,-0.40625 z m -97,76.78125 21.03125,0 0,21 -21.03125,0 z m 92.53125,0 21.03125,0 0,21 -21.4375,0 z m -36.75,4.03125 1.59375,0 0.8125,0.40625 0.8125,0 0.8125,0.40625 0.40625,0.40625 0.8125,0.40625 0.40625,0.40625 0.40625,0.8125 0.40625,0.40625 0.40625,0.78125 0.375,0.8125 0,1.625 0,1.625 -0.375,0.8125 -0.40625,0.78125 -0.40625,0.40625 -0.40625,0.8125 -0.8125,0.40625 -0.40625,0.40625 -0.8125,0.40625 -0.8125,0.40625 -0.8125,0 -0.40625,0.40625 -1.1875,0 -0.40625,-0.40625 -0.8125,0 -0.8125,-0.40625 -0.8125,-0.40625 -0.40625,-0.40625 -0.8125,-0.40625 -0.40625,-0.40625 -0.40625,-0.8125 -0.375,-0.78125 -0.40625,-0.40625 0,-4.0625 0.40625,-0.8125 0.375,-0.78125 0.40625,-0.40625 0.8125,-0.40625 0.40625,-0.8125 0.8125,-0.40625 0.40625,-0.40625 0.8125,0 z m 2.40625,37.59375 2.4375,0 0.8125,0.40625 0.40625,0 0.40625,0.375 0.78125,0.40625 0.40625,0.40625 0.40625,0.40625 0.40625,0.8125 0,0.40625 0.40625,0.40625 0,1.625 0,0.40625 0,0.78125 -0.40625,0.40625 -0.40625,0.8125 0,0.40625 -0.40625,0.40625 -0.78125,0.40625 -0.40625,0.40625 -0.40625,0.40625 -0.8125,0.40625 -2.84375,0 -0.8125,-0.40625 -0.375,-0.40625 -0.40625,0 -0.8125,-0.40625 -0.40625,-0.8125 0,-0.40625 -0.40625,-0.40625 -0.40625,-0.8125 0,-1.59375 0,-1.625 0.40625,-0.40625 0.40625,-0.40625 0.40625,-0.8125 0.40625,-0.40625 0.40625,-0.40625 0.40625,0 0.375,-0.375 z m -69.90625,31.90625 1.625,0 0.8125,0.40625 0.8125,0 0.8125,0.40625 0.40625,0.40625 0.8125,0.40625 0.375,0.40625 0.40625,0.8125 0.40625,0.375 0.40625,0.8125 0.40625,0.8125 0,1.625 0,1.625 -0.40625,0.78125 -0.40625,0.8125 -0.40625,0.40625 -0.40625,0.8125 -0.375,0.40625 -0.8125,0.40625 -0.8125,0.40625 -0.40625,0.40625 -1.21875,0 -0.40625,0.40625 -1.21875,0 -0.40625,-0.40625 -0.78125,0 -0.8125,-0.40625 -0.40625,-0.40625 -0.8125,-0.40625 -0.40625,-0.40625 -0.8125,-0.40625 -0.40625,-0.8125 -0.40625,-0.8125 0,-0.375 -0.40625,-0.8125 0,-2.4375 0.40625,-0.8125 0,-0.8125 0.40625,-0.78125 0.8125,-0.40625 0.40625,-0.40625 0.40625,-0.8125 0.8125,-0.40625 0.8125,-0.40625 0.40625,0 z M 90.5,979.625 l 1.625,0 0.40625,0.40625 0.8125,0 0.40625,0.40625 0.40625,0 0.78125,0.40625 0.40625,0.40625 0.40625,0.8125 0.40625,0.40625 0,0.40625 0.40625,0.8125 0,1.1875 0,1.21875 -0.40625,0.8125 -0.40625,0.40625 0,0.8125 -0.40625,0.40625 -0.78125,0.40625 -0.40625,0.40625 -0.40625,0 -0.8125,0.40625 -0.8125,0 -0.40625,0.375 -0.8125,0 -0.40625,-0.375 -0.40625,0 -0.8125,-0.40625 -0.375,0 -0.40625,-0.40625 -0.8125,-0.40625 -0.40625,-0.40625 0,-0.8125 -0.40625,-0.40625 -0.40625,-0.40625 0,-1.21875 0,-2 0.40625,-0.8125 0.40625,-0.40625 0.40625,-0.40625 0.40625,-0.40625 0.40625,-0.40625 0.40625,-0.40625 0.375,-0.40625 0.8125,0 z m -80,23.0312 21.40625,0 0,21.4376 -21.40625,0 z m 79.59375,10.9063 2.84375,0 1.625,0.4063 1.59375,0.4062 1.625,0.8125 L 99,1016 l 1.59375,0.8125 1.21875,1.2187 0.8125,1.1876 0.8125,1.625 0.8125,1.625 0.40625,1.625 0.40625,1.5937 0,1.625 0,0.4063 0,1.625 -0.40625,2 -0.40625,1.2187 -0.8125,1.625 -0.8125,1.5937 -1.21875,1.2188 -1.1875,0.8125 -1.21875,1.2187 -1.625,0.8126 -1.625,0.4062 -1.59375,0.8125 -5.25,0 -1.625,-0.4063 -1.625,-0.8124 -1.21875,-0.8126 -1.59375,-0.8124 L 81.625,1037 l -0.8125,-1.2188 -1.21875,-1.1874 -0.8125,-1.625 -0.40625,-1.625 -0.40625,-1.5938 0,-0.8125 -0.40625,-0.8125 0,-1.625 0.40625,-1.2188 0,-0.8124 0.40625,-1.5938 0.8125,-1.625 0.8125,-1.2188 0.8125,-1.2187 1.21875,-1.1875 1.1875,-1.2188 1.21875,-0.8124 1.625,-0.8126 1.625,-0.8124 1.59375,0 z"
         transform="translate(84.471392,-551.71401)"
         id="path9538"
         inkscape:connector-curvature="0"
         sodipodi:nodetypes="ccccccccccccccccccccccccccccccccccccccccccccccccccccccccccccccccccccccccccccccccccccccccccccccccccccccccccccccccccccccccccccccccccccccccccccccccccccccccccccccccccccccccccccccccccccccccccccccccccccccccccccccccccccccccccccccccccccccccccccccccccccccccccccccccccccccccccccccccccccccccccccccccccccccccccccccccccccccccccccccccccccccccccccccccccccccccccccccccccccccccccccccccccccccc" />
      <path
         sodipodi:nodetypes="ccccc"
         id="path9554"
         style="fill:none;stroke:#000000;stroke-width:1.6162014;stroke-linecap:square;stroke-linejoin:bevel;stroke-miterlimit:10;stroke-opacity:1;stroke-dasharray:none"
         d="m 94.976694,376.20067 0,21.41466 21.414596,0 0,-21.41466 -21.414596,0"
         inkscape:connector-curvature="0" />
    </g>
  </g>
</svg>
