<?xml version="1.0" encoding="UTF-8" standalone="no"?>
<!-- Created with Inkscape (http://www.inkscape.org/) -->

<svg
   xmlns:dc="http://purl.org/dc/elements/1.1/"
   xmlns:cc="http://creativecommons.org/ns#"
   xmlns:rdf="http://www.w3.org/1999/02/22-rdf-syntax-ns#"
   xmlns:svg="http://www.w3.org/2000/svg"
   xmlns="http://www.w3.org/2000/svg"
   xmlns:sodipodi="http://sodipodi.sourceforge.net/DTD/sodipodi-0.dtd"
   xmlns:inkscape="http://www.inkscape.org/namespaces/inkscape"
   width="744.09448819"
   height="1052.3622047"
   id="svg2"
   version="1.1"
   inkscape:version="0.48.4 r9939"
   sodipodi:docname="krita2filter.svg">
  <defs
     id="defs4">
    <filter
       id="filter2987"
       inkscape:menu-tooltip="Draws a black outline around"
       inkscape:menu="ABCs"
       inkscape:label="Black outline"
       color-interpolation-filters="sRGB">
      <feTurbulence
         id="feTurbulence2995"
         result="result1"
         baseFrequency=".12" />
      <feComposite
         id="feComposite2997"
         in2="result1"
         in="SourceGraphic"
         operator="out" />
      <feConvolveMatrix
         id="feConvolveMatrix3003"
         kernelMatrix="-20 0 20" />
      <feMorphology
         id="feMorphology3007"
         radius="1.2"
         operator="dilate"
         result="krita_fin" />
      <feTurbulence
         id="feTurbulence3009"
         baseFrequency=".5"
         type="fractalNoise"
         result="result2" />
      <feDisplacementMap
         id="feDisplacementMap3011"
         in2="result2"
         in="krita_fin"
         scale="10"
         xChannelSelector="A"
         yChannelSelector="A" />
    </filter>
  </defs>
  <sodipodi:namedview
     id="base"
     pagecolor="#ffffff"
     bordercolor="#666666"
     borderopacity="1.0"
     inkscape:pageopacity="0.0"
     inkscape:pageshadow="2"
     inkscape:zoom="1.3465345"
     inkscape:cx="156.23809"
     inkscape:cy="821.52858"
     inkscape:document-units="px"
     inkscape:current-layer="layer1"
     showgrid="false"
     inkscape:window-width="675"
     inkscape:window-height="713"
     inkscape:window-x="683"
     inkscape:window-y="28"
     inkscape:window-maximized="0" />
  <metadata
     id="metadata7">
    <rdf:RDF>
      <cc:Work
         rdf:about="">
        <dc:format>image/svg+xml</dc:format>
        <dc:type
           rdf:resource="http://purl.org/dc/dcmitype/StillImage" />
        <dc:title></dc:title>
      </cc:Work>
    </rdf:RDF>
  </metadata>
  <g
     inkscape:label="Layer 1"
     inkscape:groupmode="layer"
     id="layer1">
    <rect
       style="fill:#1a1a1a;fill-opacity:1;fill-rule:nonzero;stroke:none"
       id="rect2999"
       width="531.43237"
       height="329.78217"
       x="-56.71413"
       y="42.010468" />
    <rect
       style="fill:#ffffff;fill-opacity:1;fill-rule:nonzero;stroke:none;filter:url(#filter2987)"
       id="rect2985"
       width="491.42856"
       height="340"
       x="297.7612"
       y="303.15332" />
    <g
       style="font-size:120px;font-style:normal;font-weight:normal;line-height:125%;letter-spacing:0px;word-spacing:0px;fill:#ffffff;fill-opacity:1;stroke:none;filter:url(#filter2987);font-family:Sans"
       id="text3013">
      <path
         style="fill:#ffffff"
         d="m 139.49495,165.64149 c 0,-28.63281 0,-57.26562 0,-85.898433 11.20396,-3.98523 12.59045,6.616005 11.36719,14.576128 0,9.340505 0,18.681015 0,28.021525 14.21875,-14.19922 28.4375,-28.398435 42.65625,-42.597653 5.13672,0 10.27343,0 15.41015,0 -12.01172,11.601561 -24.02343,23.203123 -36.03515,34.804683 12.53906,17.03125 25.07812,34.0625 37.61718,51.09375 -5,0 -10,0 -15,0 -10.19531,-14.49219 -20.39062,-28.98437 -30.58593,-43.47656 -4.6875,4.57031 -9.375,9.14063 -14.0625,13.71094 0,9.92187 0,19.84375 0,29.76562 -3.78906,0 -7.57813,0 -11.36719,0 z"
         id="path3018"
         inkscape:connector-curvature="0" />
      <path
         style="fill:#ffffff"
         d="m 218.65511,165.64149 c 0,-20.74219 0,-41.48437 0,-62.22656 6.7885,-5.320462 10.8337,7.73683 11.01284,5.99934 3.52351,-12.532561 30.9872,-7.00989 18.17109,4.23286 -11.44795,-2.31979 -19.41871,3.68412 -18.25996,15.6566 -1.25873,11.68536 0.17716,23.43351 -0.35926,35.14338 -2.7933,2.80602 -7.1554,0.40673 -10.56471,1.19438 z"
         id="path3020"
         inkscape:connector-curvature="0" />
      <path
         style="fill:#ffffff"
         d="m 258.90901,91.871964 c 0,-4.042969 0,-8.085938 0,-12.128907 13.82352,-5.261911 15.90892,17.863591 0,12.128907 z m 0,73.769526 c 0,-20.74219 0,-41.48437 0,-62.22656 11.15951,-4.204449 11.3933,7.77851 10.54688,15.23759 0,15.66299 0,31.32598 0,46.98897 -3.51563,0 -7.03125,0 -10.54688,0 z"
         id="path3022"
         inkscape:connector-curvature="0" />
      <path
         style="fill:#ffffff"
         d="m 308.59651,156.2079 c 7.03861,16.85536 -24.35008,11.97889 -20.96542,-2.69697 -0.45929,-13.94705 0.0477,-27.92562 -0.12833,-41.89287 -10.50425,4.13413 -8.72712,-11.914977 -0.31738,-9.58106 -1.40377,-8.462821 1.44042,-19.942228 10.89094,-18.893751 -0.21015,6.741102 -0.036,13.505504 -0.0853,20.271681 11.43153,-5.217353 14.67793,11.5595 2.33618,8.60075 -6.11409,10.57016 -0.23379,24.65032 -2.32796,36.67873 -0.57633,6.3166 4.65486,10.18767 10.59725,7.51349 z"
         id="path3024"
         inkscape:connector-curvature="0" />
      <path
         style="fill:#ffffff"
         d="m 359.45589,157.96571 c -10.96897,10.80713 -32.88126,13.79068 -42.29003,-0.46857 -7.65937,-14.02293 8.6448,-30.62166 23.02582,-27.40694 11.35692,3.6436 26.64079,-11.5759 11.42225,-18.11514 -11.29448,-6.27503 -20.90192,4.66657 -27.98824,10.114 -13.65242,-3.59407 4.56426,-21.89205 13.95823,-19.51001 11.02464,-1.80639 26.77144,-0.80464 30.51758,11.98346 3.63569,15.56978 -2.07422,31.9958 3.31731,47.31805 0.48121,8.52324 -15.91131,3.00891 -11.96292,-3.91485 z m -0.87891,-23.55468 c -9.76228,5.45911 -25.86873,0.3299 -31.25072,12.37875 -1.88959,18.87121 31.44788,13.74795 30.86409,-3.0159 0.50251,-3.09312 0.517,-6.24023 0.38663,-9.36285 z"
         id="path3026"
         inkscape:connector-curvature="0" />
      <path
         style="fill:#ffffff"
         d="m 391.27229,144.31337 c -1.28968,-21.50773 -3.84269,-42.99067 -3.22265,-64.570313 4.35547,0 8.71093,0 13.0664,0 0.58861,21.573733 -1.82839,43.060873 -3.04687,64.570313 -2.26563,0 -4.53125,0 -6.79688,0 z m -2.7539,21.32812 c 0,-4.0039 0,-8.00781 0,-12.01171 4.04297,0 8.08593,0 12.1289,0 0,4.0039 0,8.00781 0,12.01171 -4.04297,0 -8.08593,0 -12.1289,0 z"
         id="path3028"
         inkscape:connector-curvature="0" />
    </g>
    <path
       style="fill:#ffffff;fill-opacity:1;fill-rule:nonzero;stroke:none;filter:url(#filter2987)"
       d="m -15.1875,183.75 -9.71875,4.9375 c 0.719938,5.96176 0.61917,12.00446 0.59375,18 -0.01461,5.56123 -0.181191,11.12957 -0.34375,16.6875 -0.0199,4.60626 0.15152,9.20682 0.1875,13.8125 -0.03723,4.45254 -0.16215,8.89124 -0.1875,13.34375 -0.01413,1.75696 -0.01708,3.52429 -0.03125,5.28125 l 9.28125,-4.75 c -0.01417,-1.74208 -0.01712,-3.47668 -0.03125,-5.21875 -0.02517,-4.39391 -0.15013,-8.76232 -0.1875,-13.15625 0.0092,-1.18717 0.04238,-2.37545 0.0625,-3.5625 0.376809,0.22845 0.754097,0.4746 1.125,0.71875 3.096351,2.0093 6.1629457,4.09872 9.09375,6.34375 2.3678521,1.73647 4.1082068,4.09615 6.125,6.1875 1.2024692,1.22509 2.1446623,2.65765 3.0625,4.09375 0.6683115,1.18969 1.3029257,2.37709 2.03125,3.53125 0.7440959,1.182 1.5161105,2.36617 2.0625,3.65625 l 0.34375,0.65625 9.40625,-5.40625 -0.3125,-0.5625 c -0.588265,-1.33407 -1.33254,-2.59034 -2.125,-3.8125 -0.764258,-1.13574 -1.351155,-2.37588 -2.03125,-3.5625 -1.035647,-1.44611 -2.080969,-2.88463 -3.375,-4.125 -2.0970654,-2.10641 -4.0332844,-4.37461 -6.4375,-6.15625 -2.87325316,-2.31864 -6.0451888,-4.24492 -8.96875,-6.5 -1.6745359,-1.2315 -3.2855522,-2.19342 -5.125,-2.96875 0.06161,-0.0994 0.04586,-0.0588 0.125,-0.1875 0.7156083,-1.00387 1.4286694,-1.97974 2.28125,-2.84375 4.0427892,-1.80923 8.10421209,-3.65857 11.28125,-6.75 2.6333435,-2.54834 5.1949891,-5.18723 7.875,-7.6875 4.376553,-4.02669 8.826815,-7.94474 13.34375,-11.8125 l -10.1875,4.21875 c -3.812413,4.02693 -8.0667748,7.60736 -12.1875,11.3125 -2.38776688,2.24146 -4.8209047,4.42598 -7.21875,6.65625 -2.7175671,1.35028 -2.8908181,1.53162 -10.0625,5.875 0.0011,-0.43737 0.0018,-0.8751 0,-1.3125 -0.163907,-5.43702 -0.36222,-10.87202 -0.375,-16.3125 -0.02643,-6.20529 -0.06597,-12.44983 0.625,-18.625 z m 99.5,20.15625 -9.6875,4.9375 c 0.911792,7.08082 0.794386,14.25086 0.625,21.375 l -3.3125,2.46875 c 1.101579,-0.26826 2.174632,-0.61336 3.25,-0.96875 -0.201135,4.95028 0.0082,9.89391 0.15625,14.84375 0.04103,2.61967 0.928281,5.18084 3.0625,6.84375 0.44301,0.34518 0.960512,0.60979 1.4375,0.90625 3.806729,1.55043 7.960005,1.89877 12.03125,1.71875 2.253499,-0.39061 1.181133,-0.14058 3.1875,-0.78125 l 8.25,-6.46875 c -1.96692,0.89228 -0.90326,0.52105 -3.125,1.125 -3.892295,0.37626 -7.880796,0.14127 -11.5625,-1.28125 -3.002308,-1.73247 -3.735046,-3.38772 -4.15625,-6.78125 -0.348822,-4.34201 -0.603427,-8.67826 -0.71875,-13.03125 0.271963,-0.0888 0.52256,-0.18283 1.5,-0.5 l 8.1875,-6.34375 c -2.468022,0.82681 -1.226445,0.40331 -3.78125,1.28125 -1.992097,0.64308 -3.976346,1.32826 -5.96875,1.96875 -0.165312,-7.10998 -0.214857,-14.24177 0.625,-21.3125 z m -20.71875,1.84375 -9.84375,5 c 0.216917,1.8649 0.17366,3.75094 0.15625,5.625 -0.01356,1.24018 -0.0183,0.60616 -0.03125,1.8125 l 9.59375,-4.875 c -0.01296,-1.19309 -0.01772,-0.58605 -0.03125,-1.8125 -0.01802,-1.92127 -0.05357,-3.83691 0.15625,-5.75 z M 45.125,224.21875 c -5.281236,1.84668 -9.487035,3.21932 -14.40625,7.1875 -3.26821,2.20654 -4.841135,4.18536 -5.25,8.25 -0.144691,4.22839 -0.239227,8.47633 -0.65625,12.6875 l 9.78125,-4.96875 c -0.613975,-4.08495 -0.307549,-8.22026 0.03125,-12.3125 0.272366,-1.7472 0.85872,-3.05763 1.71875,-4.15625 0.108592,-0.039 0.240464,-0.0885 0.34375,-0.125 l 8.4375,-6.5625 z m 79.375,1.3125 c -5.81958,0.9418 -11.52547,4.70432 -15.03125,9.46875 -1.71897,2.94945 -2.4114,6.37072 -3.0625,9.6875 -0.51898,2.36976 -0.34122,4.66209 0.84375,6.78125 1.92143,1.91747 4.60279,1.88309 7.125,1.59375 4.51153,-0.96955 7.90645,-3.40926 11.90625,-5.875 1.03593,1.10758 2.49582,1.74917 4.0625,2.3125 1.55389,0.43911 0.80994,0.22954 2.21875,0.65625 l 8.8125,-6.03125 c -1.47491,-0.4042 -0.72069,-0.22006 -2.28125,-0.5625 -2.11704,-0.64466 -4.12883,-1.40302 -4.65625,-3.78125 -0.55219,-2.02725 -1.03873,-4.08268 -1.53125,-6.125 -0.0915,-0.50635 -0.16553,-1.21562 -0.25,-1.96875 0.006,-0.0619 -0.007,-0.12566 0,-0.1875 0.0118,-0.0526 0.0794,-0.18075 0.0312,-0.15625 -0.031,0.0158 -0.0629,0.0156 -0.0937,0.0312 -0.48561,-4.19182 -1.54134,-9.62906 -8.84375,3.53125 -0.90853,0.42865 -1.11696,0.92922 -0.8125,2.21875 0.14139,1.44952 -0.002,2.9258 0,4.375 -0.14195,1.90807 -0.37207,3.82518 -1.375,5.4375 -1.71444,0.21387 -3.49853,0.13605 -4.96875,-0.875 -1.17754,-1.82064 -1.11772,-3.85208 -0.75,-5.9375 0.56293,-3.24216 1.32748,-6.55315 3.3125,-9.25 0.8367,-0.96459 0.96643,-1.21123 1.96875,-2.03125 0.27616,-0.22593 1.03964,-0.70958 1.21875,-0.84375 -0.0142,0.006 -0.0311,-0.017 -0.0625,0 -2.24602,1.21496 -3.10032,1.65517 -4.5625,2.4375 L 124.5,225.53125 z m -60.9375,2.59375 -9.78125,4.96875 c 0.233505,2.79517 0.28992,5.60158 0.3125,8.40625 -0.0754,3.13889 -0.108161,6.25069 0.21875,9.375 l 9.40625,-4.90625 c -0.290059,-3.04208 -0.604729,-6.05991 -0.46875,-9.125 0.02324,-2.91016 0.08628,-5.81714 0.3125,-8.71875 z"
       id="path3030"
       inkscape:connector-curvature="0" />
    <path
       style="fill:#ffffff;fill-opacity:1;fill-rule:nonzero;stroke:none;filter:url(#filter2987)"
       id="path3049"
       d="m -14.251715,284.79785 c 0.3011,0.67042 0.5223,1.38279 0.9033,2.01125 4.2717569,7.04625 11.7637376,13.13378 18.1326677,18.20631 8.4397003,6.17919 18.0091713,10.44166 27.7397783,14.12571 5.403801,1.98009 10.693254,4.19791 16.205471,5.86502 6.278265,1.62341 12.734251,2.39672 19.189506,2.87545 5.401294,0.81921 10.826644,1.32679 16.283612,1.54247 2.515145,-0.0242 5.011314,0.14724 7.514748,0.35853 0,0 -19.273909,13.72457 -19.273909,13.72457 l 0,0 c -2.335627,-0.25092 -4.67813,-0.41552 -7.013828,-0.66566 -5.331192,-0.63691 -10.642742,-1.45872 -16.002423,-1.83573 -6.345872,-0.9581 -12.632174,-2.27421 -18.947311,-3.41052 -2.767778,-0.56819 -3.466662,-0.57422 -5.961441,-1.55114 -3.428931,-1.34273 -6.529249,-3.46007 -9.815402,-5.09073 -8.9707038,-4.94117 -18.2740708,-9.40566 -26.558627,-15.47843 -1.527899,-1.21137 -3.087449,-2.38387 -4.583696,-3.63413 -1.472674,-1.23057 -2.862228,-2.55775 -4.320076,-3.80584 -4.594403,-3.93337 -9.363287,-7.72669 -14.600611,-10.77673 0,0 21.108241,-12.4604 21.108241,-12.4604 z"
       inkscape:connector-curvature="0" />
  </g>
</svg>
