<?xml version="1.0" encoding="UTF-8" standalone="no"?>
<!-- Created with Inkscape (http://www.inkscape.org/) -->

<svg
   xmlns:dc="http://purl.org/dc/elements/1.1/"
   xmlns:cc="http://creativecommons.org/ns#"
   xmlns:rdf="http://www.w3.org/1999/02/22-rdf-syntax-ns#"
   xmlns:svg="http://www.w3.org/2000/svg"
   xmlns="http://www.w3.org/2000/svg"
   xmlns:sodipodi="http://sodipodi.sourceforge.net/DTD/sodipodi-0.dtd"
   xmlns:inkscape="http://www.inkscape.org/namespaces/inkscape"
   width="744.09448819"
   height="1052.3622047"
   id="svg2"
   version="1.1"
   inkscape:version="0.48.2 r9819"
   sodipodi:docname="kugg_endast.svg">
  <sodipodi:namedview
     id="base"
     pagecolor="#ffffff"
     bordercolor="#666666"
     borderopacity="1.0"
     inkscape:pageopacity="0.0"
     inkscape:pageshadow="2"
     inkscape:zoom="1.8393159"
     inkscape:cx="118.43413"
     inkscape:cy="963.45869"
     inkscape:document-units="px"
     inkscape:current-layer="layer1"
     showgrid="false"
     inkscape:window-width="1366"
     inkscape:window-height="721"
     inkscape:window-x="-4"
     inkscape:window-y="24"
     inkscape:window-maximized="1" />
  <defs
     id="defs4" />
  <metadata
     id="metadata7">
    <rdf:RDF>
      <cc:Work
         rdf:about="">
        <dc:format>image/svg+xml</dc:format>
        <dc:type
           rdf:resource="http://purl.org/dc/dcmitype/StillImage" />
        <dc:title />
      </cc:Work>
    </rdf:RDF>
  </metadata>
  <g
     inkscape:label="Layer 1"
     inkscape:groupmode="layer"
     id="layer1">
    <g
       id="g3277"
       transform="matrix(0.98332601,0,0,0.9832687,155.7141,86.544762)"
       inkscape:label="Gear16"
       style="stroke:#000000;stroke-width:0.20339726999999999;stroke-miterlimit:4;stroke-opacity:1;stroke-dasharray:none;fill:#000000">
      <path
         style="fill:#000000;stroke:#000000;stroke-width:0.20000000000000001;stroke-miterlimit:4;stroke-opacity:1;stroke-dasharray:none"
         d="M 153.125 16.1875 L 149.5625 24.25 L 149.03125 28.21875 L 149.46875 32.125 L 140.625 33.90625 L 139.53125 30.125 L 137.53125 26.65625 L 131.125 20.5625 L 126.40625 22.53125 L 126.1875 31.34375 L 127.21875 35.21875 L 129.125 38.65625 L 121.625 43.6875 L 119.15625 40.59375 L 116 38.15625 L 107.75 34.96875 L 104.125 38.59375 L 107.3125 46.84375 L 109.75 50.03125 L 112.8125 52.46875 L 107.8125 60 L 104.375 58.0625 L 100.5 57.0625 L 91.65625 57.25 L 89.6875 62 L 95.8125 68.375 L 99.25 70.40625 L 103.03125 71.46875 L 101.28125 80.34375 L 97.375 79.875 L 93.40625 80.40625 L 85.3125 84 L 85.3125 89.125 L 93.40625 92.6875 L 97.375 93.21875 L 101.28125 92.78125 L 103.03125 101.625 L 99.25 102.71875 L 95.8125 104.71875 L 89.6875 111.125 L 91.65625 115.84375 L 100.5 116.0625 L 104.375 115.03125 L 107.8125 113.125 L 112.8125 120.625 L 109.75 123.09375 L 107.3125 126.28125 L 104.125 134.5 L 107.75 138.125 L 116 134.9375 L 119.15625 132.5 L 121.625 129.4375 L 129.125 134.4375 L 127.21875 137.90625 L 126.1875 141.75 L 126.40625 150.59375 L 131.125 152.5625 L 137.53125 146.46875 L 139.53125 143 L 140.625 139.21875 L 149.46875 140.96875 L 149.03125 144.875 L 149.5625 148.84375 L 153.125 156.9375 L 158.28125 156.9375 L 161.84375 148.84375 L 162.375 144.875 L 161.9375 140.96875 L 170.78125 139.21875 L 171.875 143 L 173.875 146.46875 L 180.28125 152.5625 L 185 150.59375 L 185.21875 141.75 L 184.1875 137.90625 L 182.28125 134.4375 L 189.78125 129.4375 L 192.25 132.5 L 195.40625 134.9375 L 203.65625 138.125 L 207.28125 134.5 L 204.09375 126.28125 L 201.65625 123.09375 L 198.59375 120.625 L 203.59375 113.125 L 207.03125 115.03125 L 210.90625 116.0625 L 219.75 115.84375 L 221.71875 111.125 L 215.59375 104.71875 L 212.15625 102.71875 L 208.375 101.625 L 210.125 92.78125 L 214.03125 93.21875 L 218 92.6875 L 226.09375 89.125 L 226.09375 84 L 218 80.40625 L 214.03125 79.875 L 210.125 80.34375 L 208.375 71.46875 L 212.15625 70.40625 L 215.59375 68.375 L 221.71875 62 L 219.75 57.25 L 210.90625 57.0625 L 207.03125 58.0625 L 203.59375 60 L 198.59375 52.46875 L 201.65625 50.03125 L 204.09375 46.84375 L 207.28125 38.59375 L 203.65625 34.96875 L 195.40625 38.15625 L 192.25 40.59375 L 189.78125 43.6875 L 182.28125 38.65625 L 184.1875 35.21875 L 185.21875 31.34375 L 185 22.53125 L 180.28125 20.5625 L 173.875 26.65625 L 171.875 30.125 L 170.78125 33.90625 L 161.9375 32.125 L 162.375 28.21875 L 161.84375 24.25 L 158.28125 16.1875 L 153.125 16.1875 z M 155.71875 68.84375 C 165.50332 68.84375 173.4375 76.777927 173.4375 86.5625 C 173.4375 96.347073 165.50332 104.28125 155.71875 104.28125 C 145.93418 104.28125 138 96.347073 138 86.5625 C 138 76.777927 145.93418 68.84375 155.71875 68.84375 z "
         transform="matrix(1.0169567,0,0,1.017016,-158.3545,-88.017408)"
         id="path3279" />
    </g>
    <g
       id="g3173"
       transform="matrix(0.93518323,0.38884134,-0.38884153,0.93518369,57.229205,86.552022)"
       inkscape:label="Gear8"
       style="stroke:#000000;stroke-width:0.19747217000000000;stroke-miterlimit:4;stroke-opacity:1;stroke-dasharray:none;fill:#000000">
      <path
         style="fill:#000000;stroke:#000000;stroke-width:0.20000000000000001;stroke-miterlimit:4;stroke-opacity:1;stroke-dasharray:none"
         d="M 43.84375 48.53125 L 39.875 50.1875 L 39.34375 59.71875 L 40.0625 61.65625 L 43.5 66.65625 L 37.34375 72.78125 L 32.375 69.34375 L 30.4375 68.625 L 20.875 69.125 L 19.25 73.09375 L 25.59375 80.21875 L 27.46875 81.09375 L 33.4375 82.1875 L 33.4375 90.875 L 27.46875 91.96875 L 25.59375 92.8125 L 19.1875 99.9375 L 20.84375 103.90625 L 30.375 104.4375 L 32.3125 103.71875 L 37.3125 100.28125 L 43.4375 106.4375 L 40 111.40625 L 39.28125 113.34375 L 39.78125 122.90625 L 43.75 124.53125 L 50.875 118.1875 L 51.75 116.3125 L 52.84375 110.34375 L 61.53125 110.34375 L 62.625 116.3125 L 63.46875 118.1875 L 70.59375 124.59375 L 74.53125 122.9375 L 75.09375 113.40625 L 74.375 111.46875 L 70.9375 106.46875 L 77.09375 100.34375 L 82.0625 103.78125 L 84 104.5 L 93.5625 104 L 95.1875 100.03125 L 88.84375 92.90625 L 86.96875 92.03125 L 81 90.9375 L 81 82.25 L 86.96875 81.15625 L 88.84375 80.3125 L 95.21875 73.1875 L 93.59375 69.21875 L 84.0625 68.6875 L 82.125 69.40625 L 77.125 72.84375 L 71 66.6875 L 74.4375 61.71875 L 75.15625 59.78125 L 74.65625 50.21875 L 70.6875 48.59375 L 63.5625 54.9375 L 62.6875 56.8125 L 61.59375 62.78125 L 52.90625 62.78125 L 51.8125 56.8125 L 50.96875 54.9375 L 43.84375 48.53125 z M 57.21875 77.78125 C 62.060151 77.78125 65.96875 81.721099 65.96875 86.5625 C 65.96875 91.403901 62.060151 95.3125 57.21875 95.3125 C 52.377349 95.3125 48.4375 91.403901 48.4375 86.5625 C 48.4375 81.721099 52.377349 77.78125 57.21875 77.78125 z "
         transform="matrix(0.91169322,-0.3790742,0.37907439,0.91169277,-84.985133,-57.214737)"
         id="path3175" />
    </g>
    <path
       sodipodi:type="arc"
       style="fill:none;fill-opacity:1;fill-rule:nonzero;stroke:none"
       id="path3288"
       sodipodi:cx="372.85715"
       sodipodi:cy="229.14789"
       sodipodi:rx="18.571428"
       sodipodi:ry="18.571428"
       d="m 354.28572,229.14789 a 18.571428,18.571428 0 1 1 0,0 18.571428,18.571428 0 1 1 0,0 z"
       sodipodi:open="true"
       sodipodi:start="3.1415927"
       sodipodi:end="3.1415927" />
  </g>
</svg>
