<?xml version="1.0" encoding="UTF-8" standalone="no"?>
<!-- Created with Inkscape (http://www.inkscape.org/) -->

<svg
   xmlns:dc="http://purl.org/dc/elements/1.1/"
   xmlns:cc="http://creativecommons.org/ns#"
   xmlns:rdf="http://www.w3.org/1999/02/22-rdf-syntax-ns#"
   xmlns:svg="http://www.w3.org/2000/svg"
   xmlns="http://www.w3.org/2000/svg"
   xmlns:sodipodi="http://sodipodi.sourceforge.net/DTD/sodipodi-0.dtd"
   xmlns:inkscape="http://www.inkscape.org/namespaces/inkscape"
   width="744.09448819"
   height="1052.3622047"
   id="svg2"
   version="1.1"
   inkscape:version="0.48.2 r9819"
   sodipodi:docname="kugg.svg">
  <sodipodi:namedview
     id="base"
     pagecolor="#ffffff"
     bordercolor="#666666"
     borderopacity="1.0"
     inkscape:pageopacity="0.0"
     inkscape:pageshadow="2"
     inkscape:zoom="1.8913462"
     inkscape:cx="391.72249"
     inkscape:cy="803.53742"
     inkscape:document-units="px"
     inkscape:current-layer="layer1"
     showgrid="false"
     inkscape:window-width="694"
     inkscape:window-height="713"
     inkscape:window-x="664"
     inkscape:window-y="28"
     inkscape:window-maximized="0" />
  <defs
     id="defs4" />
  <metadata
     id="metadata7">
    <rdf:RDF>
      <cc:Work
         rdf:about="">
        <dc:format>image/svg+xml</dc:format>
        <dc:type
           rdf:resource="http://purl.org/dc/dcmitype/StillImage" />
        <dc:title></dc:title>
      </cc:Work>
    </rdf:RDF>
  </metadata>
  <g
     inkscape:label="Layer 1"
     inkscape:groupmode="layer"
     id="layer1">
    <g
       id="g3277"
       transform="matrix(0.98332601,0,0,0.9832687,365.0781,227.11773)"
       inkscape:label="Gear16"
       style="stroke:#000000;stroke-opacity:1;stroke-width:0.20339727;stroke-miterlimit:4;stroke-dasharray:none">
      <path
         style="fill:none;stroke:#000000;stroke-width:0.2;stroke-opacity:1;stroke-miterlimit:4;stroke-dasharray:none"
         d="M 362.5 156.75 L 358.9375 164.8125 L 358.40625 168.78125 L 358.84375 172.6875 L 350 174.46875 L 348.90625 170.6875 L 346.90625 167.21875 L 340.5 161.125 L 335.78125 163.09375 L 335.5625 171.90625 L 336.59375 175.78125 L 338.5 179.21875 L 331 184.25 L 328.53125 181.15625 L 325.375 178.71875 L 317.125 175.53125 L 313.5 179.15625 L 316.6875 187.40625 L 319.125 190.59375 L 322.1875 193.03125 L 317.1875 200.5625 L 313.75 198.625 L 309.875 197.625 L 301.03125 197.8125 L 299.0625 202.5625 L 305.1875 208.9375 L 308.625 210.96875 L 312.40625 212.03125 L 310.65625 220.90625 L 306.75 220.4375 L 302.78125 220.96875 L 294.6875 224.5625 L 294.6875 229.6875 L 302.78125 233.25 L 306.75 233.78125 L 310.65625 233.34375 L 312.40625 242.1875 L 308.625 243.28125 L 305.1875 245.28125 L 299.0625 251.6875 L 301.03125 256.40625 L 309.875 256.625 L 313.75 255.59375 L 317.1875 253.6875 L 322.1875 261.1875 L 319.125 263.65625 L 316.6875 266.84375 L 313.5 275.0625 L 317.125 278.6875 L 325.375 275.5 L 328.53125 273.0625 L 331 270 L 338.5 275 L 336.59375 278.46875 L 335.5625 282.3125 L 335.78125 291.15625 L 340.5 293.125 L 346.90625 287.03125 L 348.90625 283.5625 L 350 279.78125 L 358.84375 281.53125 L 358.40625 285.4375 L 358.9375 289.40625 L 362.5 297.5 L 367.65625 297.5 L 371.21875 289.40625 L 371.75 285.4375 L 371.3125 281.53125 L 380.15625 279.78125 L 381.25 283.5625 L 383.25 287.03125 L 389.65625 293.125 L 394.375 291.15625 L 394.59375 282.3125 L 393.5625 278.46875 L 391.65625 275 L 399.15625 270 L 401.625 273.0625 L 404.78125 275.5 L 413.03125 278.6875 L 416.65625 275.0625 L 413.46875 266.84375 L 411.03125 263.65625 L 407.96875 261.1875 L 412.96875 253.6875 L 416.40625 255.59375 L 420.28125 256.625 L 429.125 256.40625 L 431.09375 251.6875 L 424.96875 245.28125 L 421.53125 243.28125 L 417.75 242.1875 L 419.5 233.34375 L 423.40625 233.78125 L 427.375 233.25 L 435.46875 229.6875 L 435.46875 224.5625 L 427.375 220.96875 L 423.40625 220.4375 L 419.5 220.90625 L 417.75 212.03125 L 421.53125 210.96875 L 424.96875 208.9375 L 431.09375 202.5625 L 429.125 197.8125 L 420.28125 197.625 L 416.40625 198.625 L 412.96875 200.5625 L 407.96875 193.03125 L 411.03125 190.59375 L 413.46875 187.40625 L 416.65625 179.15625 L 413.03125 175.53125 L 404.78125 178.71875 L 401.625 181.15625 L 399.15625 184.25 L 391.65625 179.21875 L 393.5625 175.78125 L 394.59375 171.90625 L 394.375 163.09375 L 389.65625 161.125 L 383.25 167.21875 L 381.25 170.6875 L 380.15625 174.46875 L 371.3125 172.6875 L 371.75 168.78125 L 371.21875 164.8125 L 367.65625 156.75 L 362.5 156.75 z M 359.8125 210.25 C 359.82194 210.24706 359.8343 210.25292 359.84375 210.25 L 359.84375 219.96875 L 370.3125 219.96875 L 370.3125 210.25 C 377.51469 212.47696 382.75 219.1906 382.75 227.125 C 382.75 236.8776 374.81414 244.78125 365.0625 244.78125 C 355.31086 244.78125 347.40625 236.8776 347.40625 227.125 C 347.40625 219.20101 352.62493 212.48579 359.8125 210.25 z "
         transform="matrix(1.0169567,0,0,1.017016,-371.26863,-230.98237)"
         id="path3279" />
    </g>
    <g
       id="g3173"
       transform="matrix(0.93518323,0.38884134,-0.38884153,0.93518369,266.5932,227.12499)"
       inkscape:label="Gear8"
       style="stroke:#000000;stroke-opacity:1;stroke-width:0.19747217;stroke-miterlimit:4;stroke-dasharray:none">
      <path
         style="fill:none;stroke:#000000;stroke-width:0.2;stroke-opacity:1;stroke-miterlimit:4;stroke-dasharray:none"
         d="M 253.21875 189.09375 L 249.25 190.75 L 248.71875 200.28125 L 249.4375 202.21875 L 252.875 207.21875 L 246.71875 213.34375 L 241.75 209.90625 L 239.8125 209.1875 L 230.25 209.6875 L 228.625 213.65625 L 234.96875 220.78125 L 236.84375 221.65625 L 242.8125 222.75 L 242.8125 231.4375 L 236.84375 232.53125 L 234.96875 233.375 L 228.5625 240.5 L 230.21875 244.46875 L 239.75 245 L 241.6875 244.28125 L 246.6875 240.84375 L 252.8125 247 L 249.375 251.96875 L 248.65625 253.90625 L 249.15625 263.46875 L 253.125 265.09375 L 260.25 258.75 L 261.125 256.875 L 262.21875 250.90625 L 270.90625 250.90625 L 272 256.875 L 272.84375 258.75 L 279.96875 265.15625 L 283.90625 263.5 L 284.46875 253.96875 L 283.75 252.03125 L 280.3125 247.03125 L 286.46875 240.90625 L 291.4375 244.34375 L 293.375 245.0625 L 302.9375 244.5625 L 304.5625 240.59375 L 298.21875 233.46875 L 296.34375 232.59375 L 290.375 231.5 L 290.375 222.8125 L 296.34375 221.71875 L 298.21875 220.875 L 304.59375 213.75 L 302.96875 209.78125 L 293.4375 209.25 L 291.5 209.96875 L 286.5 213.40625 L 280.375 207.25 L 283.8125 202.28125 L 284.53125 200.34375 L 284.03125 190.78125 L 280.0625 189.15625 L 272.9375 195.5 L 272.0625 197.375 L 270.96875 203.34375 L 262.28125 203.34375 L 261.1875 197.375 L 260.34375 195.5 L 253.21875 189.09375 z M 263.96875 218.71875 C 263.97825 218.71575 263.99 218.72175 264 218.71875 L 264 223.5 L 269.1875 223.5 L 269.1875 218.71875 C 272.79178 219.82532 275.40625 223.1608 275.40625 227.125 C 275.40625 231.99103 271.46368 235.9375 266.59375 235.9375 C 261.72382 235.9375 257.78125 231.99103 257.78125 227.125 C 257.78125 223.17135 260.3793 219.83429 263.96875 218.71875 z "
         transform="matrix(0.91169322,-0.3790742,0.37907439,0.91169277,-329.14848,-106.00961)"
         id="path3175" />
    </g>
    <path
       sodipodi:type="arc"
       style="fill:none;fill-opacity:1;fill-rule:nonzero;stroke:none"
       id="path3288"
       sodipodi:cx="372.85715"
       sodipodi:cy="229.14789"
       sodipodi:rx="18.571428"
       sodipodi:ry="18.571428"
       d="m 354.28572,229.14789 a 18.571428,18.571428 0 1 1 0,0 18.571428,18.571428 0 1 1 0,0 z"
       sodipodi:open="true"
       sodipodi:start="3.1415927"
       sodipodi:end="3.1415927" />
    <text
       xml:space="preserve"
       style="font-size:12px;font-style:normal;font-weight:normal;line-height:125%;letter-spacing:0px;word-spacing:0px;fill:#000000;fill-opacity:1;stroke:none;font-family:Sans"
       x="453.5585"
       y="187.6716"
       id="text4072"
       sodipodi:linespacing="125%"><tspan
         sodipodi:role="line"
         id="tspan4074"
         x="453.5585"
         y="187.6716">10 mm hål, 3x3 mm fyrkant som alignats mot toppen</tspan></text>
    <text
       xml:space="preserve"
       style="font-size:12px;font-style:normal;font-weight:normal;line-height:125%;letter-spacing:0px;word-spacing:0px;fill:#000000;fill-opacity:1;stroke:none;font-family:Sans"
       x="211.42857"
       y="359.50504"
       id="text4081"
       sodipodi:linespacing="125%"><tspan
         sodipodi:role="line"
         id="tspan4083"
         x="211.42857"
         y="359.50504">5 mm hål, 1.5x1.5 mm fyrkant som alignats mot toppen</tspan></text>
    <text
       xml:space="preserve"
       style="font-size:12px;font-style:normal;font-weight:normal;line-height:125%;letter-spacing:0px;word-spacing:0px;fill:#000000;fill-opacity:1;stroke:none;font-family:Sans"
       x="238.396"
       y="429.09805"
       id="text4098"
       sodipodi:linespacing="125%"><tspan
         sodipodi:role="line"
         id="tspan4100"
         x="238.396"
         y="429.09805">28 mm emellan dom</tspan></text>
  </g>
</svg>
