<?xml version="1.0" encoding="UTF-8" standalone="no"?>
<!-- Created with Inkscape (http://www.inkscape.org/) -->

<svg
   xmlns:dc="http://purl.org/dc/elements/1.1/"
   xmlns:cc="http://creativecommons.org/ns#"
   xmlns:rdf="http://www.w3.org/1999/02/22-rdf-syntax-ns#"
   xmlns:svg="http://www.w3.org/2000/svg"
   xmlns="http://www.w3.org/2000/svg"
   xmlns:sodipodi="http://sodipodi.sourceforge.net/DTD/sodipodi-0.dtd"
   xmlns:inkscape="http://www.inkscape.org/namespaces/inkscape"
   width="744.09448819"
   height="1052.3622047"
   id="svg2"
   version="1.1"
   inkscape:version="0.48.4 r9939"
   sodipodi:docname="leaves.svg">
  <defs
     id="defs4" />
  <sodipodi:namedview
     id="base"
     pagecolor="#ffffff"
     bordercolor="#666666"
     borderopacity="1.0"
     inkscape:pageopacity="0.0"
     inkscape:pageshadow="2"
     inkscape:zoom="0.7"
     inkscape:cx="621.60652"
     inkscape:cy="887.6454"
     inkscape:document-units="px"
     inkscape:current-layer="layer1"
     showgrid="false"
     inkscape:window-width="1366"
     inkscape:window-height="721"
     inkscape:window-x="-4"
     inkscape:window-y="24"
     inkscape:window-maximized="1" />
  <metadata
     id="metadata7">
    <rdf:RDF>
      <cc:Work
         rdf:about="">
        <dc:format>image/svg+xml</dc:format>
        <dc:type
           rdf:resource="http://purl.org/dc/dcmitype/StillImage" />
        <dc:title></dc:title>
      </cc:Work>
    </rdf:RDF>
  </metadata>
  <g
     inkscape:label="Layer 1"
     inkscape:groupmode="layer"
     id="layer1">
    <path
       sodipodi:type="arc"
       style="fill:none;stroke:#000000"
       id="path4099"
       sodipodi:cx="377.14285"
       sodipodi:cy="383.79074"
       sodipodi:rx="137.14285"
       sodipodi:ry="137.14285"
       d="m 514.28571,383.79074 a 137.14285,137.14285 0 1 1 -274.28571,0 137.14285,137.14285 0 1 1 274.28571,0 z"
       transform="translate(-400,14.285714)" />
    <path
       d="m 514.28571,383.79074 a 137.14285,137.14285 0 1 1 -274.28571,0 137.14285,137.14285 0 1 1 274.28571,0 z"
       sodipodi:ry="137.14285"
       sodipodi:rx="137.14285"
       sodipodi:cy="383.79074"
       sodipodi:cx="377.14285"
       id="path4101"
       style="fill:none;stroke:#000000"
       sodipodi:type="arc"
       transform="translate(-457.14286,-357.14286)" />
    <path
       transform="translate(-651.42857,682.85714)"
       sodipodi:type="arc"
       style="fill:none;stroke:#000000"
       id="path4103"
       sodipodi:cx="377.14285"
       sodipodi:cy="383.79074"
       sodipodi:rx="137.14285"
       sodipodi:ry="137.14285"
       d="m 514.28571,383.79074 a 137.14285,137.14285 0 1 1 -274.28571,0 137.14285,137.14285 0 1 1 274.28571,0 z" />
    <path
       d="m 514.28571,383.79074 a 137.14285,137.14285 0 1 1 -274.28571,0 137.14285,137.14285 0 1 1 274.28571,0 z"
       sodipodi:ry="137.14285"
       sodipodi:rx="137.14285"
       sodipodi:cy="383.79074"
       sodipodi:cx="377.14285"
       id="path4105"
       style="fill:none;stroke:#000000"
       sodipodi:type="arc"
       transform="translate(-542.85715,-94.285716)" />
    <path
       transform="translate(-560.00001,297.14286)"
       sodipodi:type="arc"
       style="fill:none;stroke:#000000"
       id="path4107"
       sodipodi:cx="377.14285"
       sodipodi:cy="383.79074"
       sodipodi:rx="137.14285"
       sodipodi:ry="137.14285"
       d="m 514.28571,383.79074 a 137.14285,137.14285 0 1 1 -274.28571,0 137.14285,137.14285 0 1 1 274.28571,0 z" />
    <path
       d="m 514.28571,383.79074 a 137.14285,137.14285 0 1 1 -274.28571,0 137.14285,137.14285 0 1 1 274.28571,0 z"
       sodipodi:ry="137.14285"
       sodipodi:rx="137.14285"
       sodipodi:cy="383.79074"
       sodipodi:cx="377.14285"
       id="path4111"
       style="fill:none;stroke:#000000"
       sodipodi:type="arc"
       transform="matrix(1.0897769,0,0,1.0897769,287.06986,176.04445)" />
    <path
       transform="matrix(0.54488844,0,0,0.54488844,567.57065,385.1676)"
       sodipodi:type="arc"
       style="fill:none;stroke:#000000"
       id="path4113"
       sodipodi:cx="377.14285"
       sodipodi:cy="383.79074"
       sodipodi:rx="137.14285"
       sodipodi:ry="137.14285"
       d="m 514.28571,383.79074 a 137.14285,137.14285 0 1 1 -274.28571,0 137.14285,137.14285 0 1 1 274.28571,0 z" />
    <path
       d="m 514.28571,383.79074 a 137.14285,137.14285 0 1 1 -274.28571,0 137.14285,137.14285 0 1 1 274.28571,0 z"
       sodipodi:ry="137.14285"
       sodipodi:rx="137.14285"
       sodipodi:cy="383.79074"
       sodipodi:cx="377.14285"
       id="path4115"
       style="fill:none;stroke:#000000"
       sodipodi:type="arc"
       transform="matrix(0.27244422,0,0,0.27244422,707.82104,489.72917)" />
    <path
       transform="matrix(1.0897769,0,0,1.0897769,512.06986,176.04445)"
       sodipodi:type="arc"
       style="fill:none;stroke:#000000"
       id="path4117"
       sodipodi:cx="377.14285"
       sodipodi:cy="383.79074"
       sodipodi:rx="137.14285"
       sodipodi:ry="137.14285"
       d="m 514.28571,383.79074 a 137.14285,137.14285 0 1 1 -274.28571,0 137.14285,137.14285 0 1 1 274.28571,0 z" />
    <path
       transform="matrix(0.27244422,0,0,0.27244422,595.32104,377.22916)"
       sodipodi:type="arc"
       style="fill:none;stroke:#000000"
       id="path4119"
       sodipodi:cx="377.14285"
       sodipodi:cy="383.79074"
       sodipodi:rx="137.14285"
       sodipodi:ry="137.14285"
       d="m 514.28571,383.79074 a 137.14285,137.14285 0 1 1 -274.28571,0 137.14285,137.14285 0 1 1 274.28571,0 z" />
    <path
       d="m 514.28571,383.79074 a 137.14285,137.14285 0 1 1 -274.28571,0 137.14285,137.14285 0 1 1 274.28571,0 z"
       sodipodi:ry="137.14285"
       sodipodi:rx="137.14285"
       sodipodi:cy="383.79074"
       sodipodi:cx="377.14285"
       id="path4121"
       style="fill:none;stroke:#000000"
       sodipodi:type="arc"
       transform="matrix(0.27244422,0,0,0.27244422,595.32104,602.22917)" />
    <path
       transform="matrix(0.27244422,0,0,0.27244422,482.82104,489.72917)"
       sodipodi:type="arc"
       style="fill:none;stroke:#000000"
       id="path4123"
       sodipodi:cx="377.14285"
       sodipodi:cy="383.79074"
       sodipodi:rx="137.14285"
       sodipodi:ry="137.14285"
       d="m 514.28571,383.79074 a 137.14285,137.14285 0 1 1 -274.28571,0 137.14285,137.14285 0 1 1 274.28571,0 z" />
    <path
       d="m 514.28571,383.79074 a 137.14285,137.14285 0 1 1 -274.28571,0 137.14285,137.14285 0 1 1 274.28571,0 z"
       sodipodi:ry="137.14285"
       sodipodi:rx="137.14285"
       sodipodi:cy="383.79074"
       sodipodi:cx="377.14285"
       id="path4125"
       style="fill:none;stroke:#000000;fill-opacity:1"
       sodipodi:type="arc"
       transform="matrix(1.0897769,0,0,1.0897769,62.06986,176.04445)" />
    <path
       transform="matrix(1.0897769,0,0,1.0897769,287.06986,401.04446)"
       sodipodi:type="arc"
       style="fill:none;stroke:#000000"
       id="path4127"
       sodipodi:cx="377.14285"
       sodipodi:cy="383.79074"
       sodipodi:rx="137.14285"
       sodipodi:ry="137.14285"
       d="m 514.28571,383.79074 a 137.14285,137.14285 0 1 1 -274.28571,0 137.14285,137.14285 0 1 1 274.28571,0 z" />
    <path
       transform="matrix(1.0897769,0,0,1.0897769,268.49843,-386.81269)"
       sodipodi:type="arc"
       style="fill:none;stroke:#000000"
       id="path6126"
       sodipodi:cx="377.14285"
       sodipodi:cy="383.79074"
       sodipodi:rx="137.14285"
       sodipodi:ry="137.14285"
       d="m 514.28571,383.79074 a 137.14285,137.14285 0 1 1 -274.28571,0 137.14285,137.14285 0 1 1 274.28571,0 z" />
    <path
       d="m 514.28571,383.79074 a 137.14285,137.14285 0 1 1 -274.28571,0 137.14285,137.14285 0 1 1 274.28571,0 z"
       sodipodi:ry="137.14285"
       sodipodi:rx="137.14285"
       sodipodi:cy="383.79074"
       sodipodi:cx="377.14285"
       id="path6128"
       style="fill:none;stroke:#000000"
       sodipodi:type="arc"
       transform="matrix(0.54488844,0,0,0.54488844,548.99922,-177.68954)" />
    <path
       transform="matrix(0.27244422,0,0,0.27244422,689.24961,-73.127973)"
       sodipodi:type="arc"
       style="fill:none;stroke:#000000"
       id="path6130"
       sodipodi:cx="377.14285"
       sodipodi:cy="383.79074"
       sodipodi:rx="137.14285"
       sodipodi:ry="137.14285"
       d="m 514.28571,383.79074 a 137.14285,137.14285 0 1 1 -274.28571,0 137.14285,137.14285 0 1 1 274.28571,0 z" />
    <path
       d="m 514.28571,383.79074 a 137.14285,137.14285 0 1 1 -274.28571,0 137.14285,137.14285 0 1 1 274.28571,0 z"
       sodipodi:ry="137.14285"
       sodipodi:rx="137.14285"
       sodipodi:cy="383.79074"
       sodipodi:cx="377.14285"
       id="path6132"
       style="fill:none;stroke:#000000"
       sodipodi:type="arc"
       transform="matrix(1.0897769,0,0,1.0897769,479.49843,-386.81269)" />
    <path
       d="m 514.28571,383.79074 a 137.14285,137.14285 0 1 1 -274.28571,0 137.14285,137.14285 0 1 1 274.28571,0 z"
       sodipodi:ry="137.14285"
       sodipodi:rx="137.14285"
       sodipodi:cy="383.79074"
       sodipodi:cx="377.14285"
       id="path6134"
       style="fill:none;stroke:#000000"
       sodipodi:type="arc"
       transform="matrix(0.27244422,0,0,0.27244422,576.74961,-185.62798)" />
    <path
       transform="matrix(0.27244422,0,0,0.27244422,576.74961,39.372029)"
       sodipodi:type="arc"
       style="fill:none;stroke:#000000"
       id="path6136"
       sodipodi:cx="377.14285"
       sodipodi:cy="383.79074"
       sodipodi:rx="137.14285"
       sodipodi:ry="137.14285"
       d="m 514.28571,383.79074 a 137.14285,137.14285 0 1 1 -274.28571,0 137.14285,137.14285 0 1 1 274.28571,0 z" />
    <path
       d="m 514.28571,383.79074 a 137.14285,137.14285 0 1 1 -274.28571,0 137.14285,137.14285 0 1 1 274.28571,0 z"
       sodipodi:ry="137.14285"
       sodipodi:rx="137.14285"
       sodipodi:cy="383.79074"
       sodipodi:cx="377.14285"
       id="path6138"
       style="fill:none;stroke:#000000"
       sodipodi:type="arc"
       transform="matrix(0.27244422,0,0,0.27244422,464.24961,-73.127973)" />
    <path
       transform="matrix(1.0897769,0,0,1.0897769,57.498431,-386.81269)"
       sodipodi:type="arc"
       style="fill:none;stroke:#000000"
       id="path6140"
       sodipodi:cx="377.14285"
       sodipodi:cy="383.79074"
       sodipodi:rx="137.14285"
       sodipodi:ry="137.14285"
       d="m 514.28571,383.79074 a 137.14285,137.14285 0 1 1 -274.28571,0 137.14285,137.14285 0 1 1 274.28571,0 z" />
    <path
       d="m 514.28571,383.79074 a 137.14285,137.14285 0 1 1 -274.28571,0 137.14285,137.14285 0 1 1 274.28571,0 z"
       sodipodi:ry="137.14285"
       sodipodi:rx="137.14285"
       sodipodi:cy="383.79074"
       sodipodi:cx="377.14285"
       id="path6142"
       style="fill:none;stroke:#000000"
       sodipodi:type="arc"
       transform="matrix(1.0897769,0,0,1.0897769,268.49843,-175.81268)" />
    <path
       style="fill:none;stroke:#000000;stroke-width:1px;stroke-linecap:butt;stroke-linejoin:miter;stroke-opacity:1"
       d="M 895.71429,30.933611 462.85714,32.362182"
       id="path6144"
       inkscape:connector-curvature="0" />
    <path
       transform="matrix(1.0897769,0,0,1.0897769,567.35843,-386.81269)"
       sodipodi:type="arc"
       style="fill:none;stroke:#000000"
       id="path6156"
       sodipodi:cx="377.14285"
       sodipodi:cy="383.79074"
       sodipodi:rx="137.14285"
       sodipodi:ry="137.14285"
       d="m 514.28571,383.79074 a 137.14285,137.14285 0 1 1 -274.28571,0 137.14285,137.14285 0 1 1 274.28571,0 z" />
  </g>
</svg>
