<?xml version="1.0" encoding="UTF-8" standalone="no"?>
<!-- Created with Inkscape (http://www.inkscape.org/) -->

<svg
   xmlns:dc="http://purl.org/dc/elements/1.1/"
   xmlns:cc="http://creativecommons.org/ns#"
   xmlns:rdf="http://www.w3.org/1999/02/22-rdf-syntax-ns#"
   xmlns:svg="http://www.w3.org/2000/svg"
   xmlns="http://www.w3.org/2000/svg"
   xmlns:sodipodi="http://sodipodi.sourceforge.net/DTD/sodipodi-0.dtd"
   xmlns:inkscape="http://www.inkscape.org/namespaces/inkscape"
   width="744.09448819"
   height="1052.3622047"
   id="svg12352"
   version="1.1"
   inkscape:version="0.48.2 r9819"
   sodipodi:docname="New document 27">
  <defs
     id="defs12354">
    <filter
       inkscape:collect="always"
       id="filter13098">
      <feGaussianBlur
         inkscape:collect="always"
         stdDeviation="23.422922"
         id="feGaussianBlur13100" />
    </filter>
  </defs>
  <sodipodi:namedview
     id="base"
     pagecolor="#ffffff"
     bordercolor="#666666"
     borderopacity="1.0"
     inkscape:pageopacity="0.0"
     inkscape:pageshadow="2"
     inkscape:zoom="0.35"
     inkscape:cx="-90.714286"
     inkscape:cy="1309.0056"
     inkscape:document-units="px"
     inkscape:current-layer="layer1"
     showgrid="false"
     inkscape:window-width="1366"
     inkscape:window-height="721"
     inkscape:window-x="-4"
     inkscape:window-y="24"
     inkscape:window-maximized="1" />
  <metadata
     id="metadata12357">
    <rdf:RDF>
      <cc:Work
         rdf:about="">
        <dc:format>image/svg+xml</dc:format>
        <dc:type
           rdf:resource="http://purl.org/dc/dcmitype/StillImage" />
        <dc:title></dc:title>
      </cc:Work>
    </rdf:RDF>
  </metadata>
  <g
     inkscape:label="Layer 1"
     inkscape:groupmode="layer"
     id="layer1">
    <path
       sodipodi:type="star"
       style="fill:#ff0000;fill-opacity:1;fill-rule:nonzero;stroke:#050000;stroke-width:20;stroke-linecap:square;stroke-linejoin:miter;stroke-miterlimit:4;stroke-opacity:1;stroke-dasharray:none;stroke-dashoffset:0"
       id="path12360"
       sodipodi:sides="5"
       sodipodi:cx="220"
       sodipodi:cy="352.36218"
       sodipodi:r1="244.0231"
       sodipodi:r2="378.32739"
       sodipodi:arg1="0.60475973"
       sodipodi:arg2="0.75009853"
       inkscape:flatsided="false"
       inkscape:rounded="0.766"
       inkscape:randomized="0"
       d="M 420.74285,491.10504 C 407.71003,598.60422 599.02508,574.57285 496.79253,610.27207 245.45272,698.03899 411.33469,534.95757 150.08065,586.15388 43.815494,606.978 125.79029,781.50332 60.246716,695.30606 -100.89286,483.38917 105.46714,590.75736 -23.955386,358.11054 -76.59804,263.48138 -217.24988,395.37533 -155.52549,306.40327 -3.7754148,87.6645 -42.11989,317.10312 139.14662,122.12316 212.87684,42.815004 43.974422,-50.195373 147.66577,-18.985868 402.59205,57.743034 172.53386,92.175704 413.98525,204.31828 c 98.21043,45.61403 134.47484,-143.763496 136.83523,-35.5029 5.80303,266.15984 -98.03628,58.00178 -130.07763,322.28966 z" />
    <path
       transform="translate(-914.28571,0)"
       style="fill:#ff0000;fill-opacity:1;fill-rule:nonzero;stroke:#050000;stroke-width:20;stroke-linecap:square;stroke-linejoin:miter;stroke-miterlimit:4;stroke-dashoffset:0;stroke-opacity:1"
       d="M 420.74285,491.10504 C 407.71003,598.60422 599.02508,574.57285 496.79253,610.27207 245.45272,698.03899 411.33469,534.95757 150.08065,586.15388 43.815494,606.978 125.79029,781.50332 60.246716,695.30606 -100.89286,483.38917 105.46714,590.75736 -23.955386,358.11054 -76.59804,263.48138 -217.24988,395.37533 -155.52549,306.40327 -3.7754148,87.6645 -42.11989,317.10312 139.14662,122.12316 212.87684,42.815004 43.974422,-50.195373 147.66577,-18.985868 402.59205,57.743034 172.53386,92.175704 413.98525,204.31828 c 98.21043,45.61403 134.47484,-143.763496 136.83523,-35.5029 5.80303,266.15984 -98.03628,58.00178 -130.07763,322.28966 z"
       id="path12510" />
    <path
       sodipodi:type="star"
       style="fill:#ff0000;fill-opacity:1;fill-rule:nonzero;stroke:#050000;stroke-width:20;stroke-linecap:square;stroke-linejoin:miter;stroke-miterlimit:4;stroke-opacity:1;stroke-dasharray:none;stroke-dashoffset:0"
       id="path12513"
       sodipodi:sides="4"
       sodipodi:cx="977.14288"
       sodipodi:cy="138.07648"
       sodipodi:r1="285.77142"
       sodipodi:r2="202.07091"
       sodipodi:arg1="0"
       sodipodi:arg2="0.78539816"
       inkscape:flatsided="true"
       inkscape:rounded="0.706"
       inkscape:randomized="0"
       d="m 1262.9143,138.07648 c 0,285.32412 -0.4473,285.77142 -285.77142,285.77142 -285.32412,0 -285.77142,-0.4473 -285.77142,-285.77142 0,-285.32413 0.4473,-285.77143 285.77142,-285.77143 285.32412,0 285.77142,0.4473 285.77142,285.77143 z" />
    <path
       style="fill:none;stroke:#f600f6;stroke-width:15;stroke-linecap:butt;stroke-linejoin:miter;stroke-miterlimit:4;stroke-opacity:1;stroke-dasharray:15,15;stroke-dashoffset:18"
       d="m -813.18056,-335.20813 c -70.1856,9.6024 -133.8771,-44.28522 -142.2925,-113.36607 -9.4684,-77.72389 50.3945,-147.8579 127.0882,-156.41207 84.70139,-9.44732 160.8441,55.96112 169.55611,139.69367 9.49258,91.23476 -61.11351,173.03127 -151.43081,181.91357 -97.4045,9.5792 -184.558,-65.9364 -193.61864,-162.46714 -9.6931,-103.26887 70.48874,-195.52689 172.92164,-204.77088 108.87206,-9.82507 206.01622,74.8139 215.44664,182.88307 9.96962,114.24815 -78.94465,216.08725 -192.41914,225.70575 -119.4246,10.1229 -225.78944,-82.9065 -235.59674,-201.58346 -10.2822,-124.4233 86.71974,-235.16276 210.41904,-245.15879 129.2627,-10.4456 244.24065,90.40098 254.42489,218.96093 10.61188,133.95812 -93.96381,253.05112 -227.23859,263.42272 -138.5224,10.78 -261.61794,-97.4197 -272.17574,-235.27653 -10.9491,-142.96686 100.77834,-269.96154 243.09594,-280.70422 147.3009,-11.11883 278.0996,104.04787 289.02572,250.7147 11.28864,151.53295 -107.23565,286.04755 -258.14862,297.15565 -155.6705,11.4582 -293.81914,-110.3479 -305.10744,-265.41145 -11.6274,-159.71982 113.38994,-301.42607 272.51514,-312.89316 163.68681,-11.79582 308.8793,116.36675 320.52347,279.47046 11.9635,167.57665 -119.28262,316.18835 -286.28697,328.00795 -2.358,0.1669 -4.718,0.307 -7.0792,0.4201 z"
       id="path12515"
       inkscape:connector-curvature="0" />
    <path
       style="fill:none;stroke:#000000;stroke-width:1px;stroke-linecap:butt;stroke-linejoin:miter;stroke-opacity:1"
       d="m -268.57143,-719.06639 c 0,0 174.285716,-162.85714 377.14286,-145.71428 202.85714,17.14285 245.71428,177.14285 245.71428,177.14285"
       id="path13102"
       inkscape:connector-curvature="0" />
  </g>
</svg>
