<?xml version="1.0" encoding="UTF-8" standalone="no"?>
<!-- Created with Inkscape (http://www.inkscape.org/) -->

<svg
   xmlns:dc="http://purl.org/dc/elements/1.1/"
   xmlns:cc="http://creativecommons.org/ns#"
   xmlns:rdf="http://www.w3.org/1999/02/22-rdf-syntax-ns#"
   xmlns:svg="http://www.w3.org/2000/svg"
   xmlns="http://www.w3.org/2000/svg"
   xmlns:sodipodi="http://sodipodi.sourceforge.net/DTD/sodipodi-0.dtd"
   xmlns:inkscape="http://www.inkscape.org/namespaces/inkscape"
   width="744.09448819"
   height="1052.3622047"
   id="svg2"
   version="1.1"
   inkscape:version="0.48.4 r9939"
   sodipodi:docname="New document 1">
  <defs
     id="defs4" />
  <sodipodi:namedview
     id="base"
     pagecolor="#ffffff"
     bordercolor="#666666"
     borderopacity="1.0"
     inkscape:pageopacity="0.0"
     inkscape:pageshadow="2"
     inkscape:zoom="0.38578649"
     inkscape:cx="227.40095"
     inkscape:cy="460.47372"
     inkscape:document-units="px"
     inkscape:current-layer="layer1"
     showgrid="false"
     inkscape:window-width="1366"
     inkscape:window-height="721"
     inkscape:window-x="-4"
     inkscape:window-y="24"
     inkscape:window-maximized="1" />
  <metadata
     id="metadata7">
    <rdf:RDF>
      <cc:Work
         rdf:about="">
        <dc:format>image/svg+xml</dc:format>
        <dc:type
           rdf:resource="http://purl.org/dc/dcmitype/StillImage" />
        <dc:title></dc:title>
      </cc:Work>
    </rdf:RDF>
  </metadata>
  <g
     inkscape:label="Layer 1"
     inkscape:groupmode="layer"
     id="layer1">
    <path
       style="font-size:180px;font-style:normal;font-variant:normal;font-weight:normal;font-stretch:normal;line-height:125%;letter-spacing:0px;word-spacing:0px;fill:#000000;fill-opacity:1;stroke:none;font-family:Arial;-inkscape-font-specification:Arial"
       d="m 46.981366,923.2782 c -15.36228,1.10116 -30.932728,0.15162 -46.37499964,0.46875 0.05324,4.74952 -1.91859096,13.11317 4.68749984,14.4375 6.5907118,0.74386 4.359517,9.62237 4.59375,14.1875 -0.222931,27.49078 1.0693168,55.15745 -0.65625,82.56255 -2.070911,4.0771 -9.75833484,1.6165 -8.96874984,7.3437 -1.41035896,5.4232 3.05070204,11.1746 8.81249984,9.9063 27.6019968,-1.0334 55.4126338,-0.1368 83.0937498,-0.4375 0.75303,-14.6167 1.58571,-29.2291 2.375,-43.8438 -6.57298,1.586 -13.846168,-1.7707 -19.875,1.9063 -2.392724,8.0375 -2.696783,19.4369 -11.78125,22.9687 -5.836546,1.0263 -11.772042,0.3389 -17.65625,0.4375 0.433584,-30.7591 -0.93454,-61.68279 0.71875,-92.34375 1.968987,-4.35289 9.847696,-1.98549 9.125,-7.6875 1.035755,-5.29301 -2.22148,-10.6014 -8.09375,-9.90625 z m 141.999994,0.34375 c -16.511,0.57659 -33.01601,-0.0464 -49.53125,0.125 0.0446,4.74824 -1.91221,13.1451 4.71875,14.4375 7.58398,1.33677 3.6848,11.57759 4.67443,16.93742 -0.51097,26.64813 1.10859,53.52283 -0.83068,80.03133 -2.27421,3.8434 -9.69529,1.4401 -8.90625,7.125 -1.41036,5.4232 3.0507,11.1746 8.8125,9.9063 15.13201,-1.0431 30.476,-0.1301 45.6875,-0.4375 -0.1261,-4.7453 1.91336,-13.0983 -4.6875,-14.5 -6.45154,-0.4268 -4.55254,-9.0383 -4.6875,-13.3438 -0.0597,-7.4769 -0.51142,-15.7719 0.21875,-22.7187 5.66713,-0.7105 10.66464,3.0698 12.15625,8.4375 7.173,14.1471 12.39143,29.3444 21.875,42.125 13.35417,0 26.70833,0 40.0625,0 -0.87418,-4.6442 2.18595,-12.513 -4.15625,-14.1875 -8.45985,-2.231 -11.36024,-12.3195 -14.65625,-19.4375 -3.96491,-9.1377 -9.08602,-18.76878 -17.09375,-24.5938 13.11571,-6.25518 22.02121,-20.42602 20.8125,-35.09375 0.08,-15.15238 -11.14102,-29.26795 -26.125,-32.03125 -9.19622,-2.51665 -18.83927,-2.92645 -28.34375,-2.78125 z m 0.28125,18.25 c 9.06212,-0.8031 18.94719,5.3976 18.65625,15.21875 1.89974,9.33633 -0.3147,22.88624 -11.375,25.1875 -4.07375,0.9416 -8.28245,0.85988 -12.4375,0.8125 0.20867,-13.56216 -0.41711,-27.95877 0.3125,-41 1.6291,0.0958 3.223,-0.17028 4.84375,-0.21875 z"
       id="text2985"
       inkscape:connector-curvature="0" />
  </g>
</svg>
