<?xml version="1.0" encoding="UTF-8" standalone="no"?>
<!-- Created with Inkscape (http://www.inkscape.org/) -->

<svg
   xmlns:dc="http://purl.org/dc/elements/1.1/"
   xmlns:cc="http://creativecommons.org/ns#"
   xmlns:rdf="http://www.w3.org/1999/02/22-rdf-syntax-ns#"
   xmlns:svg="http://www.w3.org/2000/svg"
   xmlns="http://www.w3.org/2000/svg"
   xmlns:sodipodi="http://sodipodi.sourceforge.net/DTD/sodipodi-0.dtd"
   xmlns:inkscape="http://www.inkscape.org/namespaces/inkscape"
   width="744.09448819"
   height="1052.3622047"
   id="svg3187"
   version="1.1"
   inkscape:version="0.48.4 r9939"
   sodipodi:docname="metaltest.svg">
  <defs
     id="defs3189">
    <linearGradient
       id="linearGradient3799">
      <stop
         style="stop-color:#808080;stop-opacity:1;"
         offset="0"
         id="stop3801" />
      <stop
         style="stop-color:#ffffff;stop-opacity:1;"
         offset="1"
         id="stop3803" />
    </linearGradient>
    <linearGradient
       id="linearGradient3783">
      <stop
         style="stop-color:#1b1b1b;stop-opacity:1;"
         offset="0"
         id="stop3785" />
      <stop
         style="stop-color:#adadad;stop-opacity:1;"
         offset="1"
         id="stop3787" />
    </linearGradient>
    <linearGradient
       id="linearGradient4050">
      <stop
         style="stop-color:#373737;stop-opacity:1;"
         offset="0"
         id="stop4052" />
      <stop
         style="stop-color:#c8c8c8;stop-opacity:1;"
         offset="1"
         id="stop4054" />
    </linearGradient>
    <filter
       id="filter3199"
       color-interpolation-filters="sRGB"
       height="1.6">
      <feOffset
         id="feOffset3207"
         in="SourceGraphic"
         result="offset1"
         dx="0"
         dy="8" />
      <feComposite
         id="feComposite3209"
         in2="offset1"
         in="SourceGraphic"
         result="result1" />
      <feColorMatrix
         id="feColorMatrix3276"
         in="offset1"
         values=".5 0 0 0 0  0 .5 0 0 0  0 0 .5 0 0  0 0 0 1 0"
         type="matrix"
         result="resultat2" />
      <feMorphology
         id="feMorphology3012"
         operator="dilate"
         radius="1 7"
         in="resultat2"
         result="resultat3" />
      <feComposite
         id="feComposite3225"
         in2="resultat3"
         in="SourceGraphic"
         result="result3"
         operator="over" />
      <feTurbulence
         id="feTurbulence3005"
         baseFrequency="0.035 0.001"
         numOctaves="2"
         result="turbulens"
         seed="20" />
      <feColorMatrix
         id="feColorMatrix3007"
         in="turbulens"
         result="saturation"
         type="saturate"
         values="1 0 0 0 0  0 1 0 0 0  0 0 1 0 0  0 0 0 1 0" />
      <feComposite
         id="feComposite3009"
         in="resultat3"
         operator="arithmetic"
         result="result4"
         in2="saturation"
         k1="5"
         k2="1"
         k3="0"
         k4="0" />
      <feConvolveMatrix
         id="feConvolveMatrix3791"
         in="result4"
         kernelMatrix="1"
         result="fardig" />
      <feComposite
         id="feComposite3011"
         in2="fardig"
         in="SourceGraphic"
         operator="over"
         result="japp" />
      <feOffset
         id="feOffset3837"
         in="SourceAlpha"
         result="result5"
         dx="1"
         dy="17" />
      <feGaussianBlur
         id="feGaussianBlur3841"
         in="result5"
         stdDeviation="2"
         result="result6" />
      <feComposite
         id="feComposite3839"
         in2="result6"
         in="japp" />
    </filter>
    <filter
       id="filter3823"
       inkscape:menu-tooltip="Draws a black outline around"
       inkscape:menu="ABCs"
       inkscape:label="Black outline"
       color-interpolation-filters="sRGB">
      <feTurbulence
         id="feTurbulence3831"
         baseFrequency="0.05"
         result="test" />
      <feComposite
         id="feComposite3835"
         in2="test"
         in="SourceGraphic"
         operator="arithmetic"
         k1="20"
         k2="1"
         k3="0"
         k4="0"
         result="teeest" />
    </filter>
  </defs>
  <feFlood
     id="feFlood3847"
     in="teeest" />
  <sodipodi:namedview
     id="base"
     pagecolor="#ffffff"
     bordercolor="#666666"
     borderopacity="1.0"
     inkscape:pageopacity="0.0"
     inkscape:pageshadow="2"
     inkscape:zoom="0.98994949"
     inkscape:cx="570.79805"
     inkscape:cy="821.54541"
     inkscape:document-units="px"
     inkscape:current-layer="layer1"
     showgrid="false"
     inkscape:window-width="1366"
     inkscape:window-height="721"
     inkscape:window-x="-4"
     inkscape:window-y="24"
     inkscape:window-maximized="1" />
  <metadata
     id="metadata3192">
    <rdf:RDF>
      <cc:Work
         rdf:about="">
        <dc:format>image/svg+xml</dc:format>
        <dc:type
           rdf:resource="http://purl.org/dc/dcmitype/StillImage" />
        <dc:title />
      </cc:Work>
    </rdf:RDF>
  </metadata>
  <g
     inkscape:label="Layer 1"
     inkscape:groupmode="layer"
     id="layer1">
    <path
       sodipodi:type="inkscape:offset"
       inkscape:radius="0"
       inkscape:original="M 108.71875 189.6875 L 108.71875 275.59375 L 174.0625 275.59375 L 174.0625 261.125 L 126.0625 261.125 L 126.0625 237.75 L 169.1875 237.75 L 169.1875 223.28125 L 126.0625 223.28125 L 126.0625 204.21875 L 172.4375 204.21875 L 172.4375 189.6875 L 108.71875 189.6875 z M 294.71875 189.6875 L 294.71875 275.59375 L 310 275.59375 L 310 266.46875 C 312.49997 269.94532 315.48044 272.56641 318.9375 274.34375 C 322.3945 276.12109 325.88277 277 329.4375 277 C 336.66401 277 342.81635 274.11719 347.875 268.375 C 352.93353 262.63283 355.46868 254.46877 355.46875 243.84375 C 355.46868 233.57035 352.99212 225.67583 348.03125 220.1875 C 343.07026 214.69928 336.79683 211.96881 329.21875 211.96875 C 322.26559 211.96881 316.2656 214.84381 311.1875 220.625 L 311.1875 189.6875 L 294.71875 189.6875 z M 683.125 189.6875 L 683.125 220.625 C 678.04683 214.84381 672.01559 211.96881 665.0625 211.96875 C 657.48435 211.96881 651.24217 214.69928 646.28125 220.1875 C 641.32031 225.67583 638.8125 233.70317 638.8125 244.25 C 638.8125 254.56252 641.37109 262.61329 646.46875 268.375 C 651.56639 274.13672 657.69529 277 664.84375 277 C 668.35934 277 671.85543 276.14453 675.3125 274.40625 C 678.76949 272.66797 681.77339 270.02344 684.3125 266.46875 L 684.3125 275.59375 L 699.59375 275.59375 L 699.59375 189.6875 L 683.125 189.6875 z M 222.125 211.96875 C 214.62497 211.96881 208.14841 215.2735 202.71875 221.875 L 202.71875 213.375 L 187.53125 213.375 L 187.53125 275.59375 L 204 275.59375 L 204 245.375 C 203.99998 239.39847 204.43357 235.10942 205.3125 232.53125 C 206.19138 229.95317 207.65622 227.99224 209.6875 226.625 C 211.71872 225.25786 213.99215 224.56255 216.53125 224.5625 C 218.64059 224.56255 220.33199 224.98443 221.5625 225.84375 C 222.79293 226.70317 223.69527 228.02349 224.28125 229.78125 C 224.86714 231.53911 225.1562 235.44535 225.15625 241.5 L 225.15625 275.59375 L 241.625 275.59375 L 241.625 245.71875 C 241.62494 239.85941 242.07025 235.55863 242.96875 232.84375 C 243.86712 230.12895 245.34368 228.06255 247.375 226.65625 C 249.40618 225.25005 251.57024 224.56255 253.875 224.5625 C 257.03899 224.56255 259.38273 225.7188 260.90625 228.0625 C 262.03898 229.85942 262.59367 233.85942 262.59375 240.03125 L 262.59375 275.59375 L 279.0625 275.59375 L 279.0625 235.8125 C 279.0624 229.87505 278.50771 225.56255 277.375 222.90625 C 275.8124 219.31256 273.44522 216.60553 270.28125 214.75 C 267.1171 212.89459 263.25773 211.96881 258.6875 211.96875 C 255.09368 211.96881 251.69524 212.79694 248.53125 214.4375 C 245.36712 216.07818 242.42181 218.55474 239.6875 221.875 C 237.81244 218.55474 235.39838 216.07818 232.46875 214.4375 C 229.53901 212.79694 226.10933 211.96881 222.125 211.96875 z M 397 211.96875 C 390.90622 211.96881 385.41013 213.30475 380.46875 216 C 375.52733 218.69537 371.6953 222.60162 369 227.71875 C 366.30468 232.83598 364.96875 238.12504 364.96875 243.59375 C 364.96875 250.74221 366.30468 256.83205 369 261.8125 C 371.6953 266.79298 375.6367 270.54688 380.8125 273.125 C 385.98826 275.70312 391.42184 277 397.125 277 C 406.3437 277 413.98823 273.91016 420.0625 267.71875 C 426.13665 261.52736 429.18743 253.72658 429.1875 244.3125 C 429.18743 234.9766 426.17181 227.23833 420.15625 221.125 C 414.14057 215.01178 406.41402 211.96881 397 211.96875 z M 464.8125 211.96875 C 455.86717 211.96881 449.2578 213.79694 445 217.46875 C 440.74218 221.14068 438.62499 225.67192 438.625 231.0625 C 438.62499 237.0391 441.07812 241.70316 446 245.0625 C 449.55467 247.4844 457.96873 250.16409 471.25 253.09375 C 474.10152 253.75783 475.92965 254.46877 476.75 255.25 C 477.53121 256.07033 477.93746 257.12502 477.9375 258.375 C 477.93746 260.21095 477.19527 261.65626 475.75 262.75 C 473.60152 264.31251 470.41403 265.09376 466.15625 265.09375 C 462.28903 265.09376 459.27341 264.28517 457.125 262.625 C 454.97654 260.96486 453.54685 258.51564 452.84375 255.3125 L 436.3125 257.84375 C 437.83593 263.7422 441.08984 268.40626 446.03125 271.84375 C 450.97264 275.28125 457.67966 277 466.15625 277 C 475.49215 277 482.54683 274.94531 487.3125 270.84375 C 492.07807 266.7422 494.43744 261.85939 494.4375 256.15625 C 494.43744 250.9219 492.74994 246.83597 489.3125 243.90625 C 485.83589 241.01566 479.70699 238.55472 470.9375 236.5625 C 462.16794 234.57035 457.04685 233.03129 455.5625 231.9375 C 454.46873 231.11723 453.90623 230.14067 453.90625 228.96875 C 453.90623 227.60161 454.53123 226.48442 455.78125 225.625 C 457.65623 224.41411 460.75779 223.81255 465.09375 223.8125 C 468.53121 223.81255 471.17574 224.42974 473.03125 225.71875 C 474.88668 227.00786 476.14839 228.89067 476.8125 231.3125 L 492.34375 228.4375 C 490.78119 223.00787 487.92182 218.89849 483.78125 216.125 C 479.64058 213.35162 473.32809 211.96881 464.8125 211.96875 z M 531.59375 211.96875 C 522.64842 211.96881 516.0703 213.79694 511.8125 217.46875 C 507.55468 221.14068 505.40624 225.67192 505.40625 231.0625 C 505.40624 237.0391 507.85937 241.70316 512.78125 245.0625 C 516.33592 247.4844 524.78123 250.16409 538.0625 253.09375 C 540.91402 253.75783 542.74215 254.46877 543.5625 255.25 C 544.34371 256.07033 544.71871 257.12502 544.71875 258.375 C 544.71871 260.21095 544.00777 261.65626 542.5625 262.75 C 540.41402 264.31251 537.19528 265.09376 532.9375 265.09375 C 529.07028 265.09376 526.08591 264.28517 523.9375 262.625 C 521.78904 260.96486 520.35935 258.51564 519.65625 255.3125 L 503.125 257.84375 C 504.64843 263.7422 507.87109 268.40626 512.8125 271.84375 C 517.75389 275.28125 524.46091 277 532.9375 277 C 542.2734 277 549.32808 274.94531 554.09375 270.84375 C 558.85932 266.7422 561.24994 261.85939 561.25 256.15625 C 561.24994 250.9219 559.53119 246.83597 556.09375 243.90625 C 552.61714 241.01566 546.48824 238.55472 537.71875 236.5625 C 528.94919 234.57035 523.8281 233.03129 522.34375 231.9375 C 521.24998 231.11723 520.68748 230.14067 520.6875 228.96875 C 520.68748 227.60161 521.31248 226.48442 522.5625 225.625 C 524.43748 224.41411 527.57029 223.81255 531.90625 223.8125 C 535.34371 223.81255 537.98824 224.42974 539.84375 225.71875 C 541.69918 227.00786 542.96089 228.89067 543.625 231.3125 L 559.125 228.4375 C 557.56244 223.00787 554.73432 218.89849 550.59375 216.125 C 546.45308 213.35162 540.10934 211.96881 531.59375 211.96875 z M 599.4375 211.96875 C 591.19529 211.96881 584.39061 214.87897 579 220.71875 C 573.60937 226.55864 570.90625 234.62504 570.90625 244.9375 C 570.90625 253.57033 572.96093 260.7422 577.0625 266.40625 C 582.2578 273.47656 590.27341 277 601.09375 277 C 607.92965 277 613.63667 275.42578 618.1875 272.28125 C 622.73823 269.13673 626.04682 264.54689 628.15625 258.53125 L 611.75 255.78125 C 610.85152 258.90627 609.53902 261.18751 607.78125 262.59375 C 606.0234 264.00001 603.85934 264.68751 601.28125 264.6875 C 597.49216 264.68751 594.32029 263.33986 591.78125 260.625 C 589.24217 257.91017 587.89842 254.10158 587.78125 249.21875 L 629.03125 249.21875 C 629.26556 236.6016 626.7265 227.23833 621.375 221.125 C 616.02339 215.01178 608.69527 211.96881 599.4375 211.96875 z M 324.8125 224.5625 C 328.8359 224.56255 332.14058 226.13677 334.71875 229.28125 C 337.29682 232.42582 338.5937 237.54691 338.59375 244.65625 C 338.5937 251.33596 337.30854 256.2383 334.75 259.34375 C 332.19136 262.44923 329.10152 264.00001 325.46875 264 C 320.74215 264.00001 316.94528 261.81251 314.09375 257.4375 C 312.06247 254.35158 311.06248 249.57034 311.0625 243.125 C 311.06248 236.87504 312.35154 232.2227 314.96875 229.15625 C 317.58591 226.08989 320.86715 224.56255 324.8125 224.5625 z M 600.4375 224.5625 C 603.79684 224.56255 606.65621 225.80083 609 228.28125 C 611.34371 230.76176 612.57027 234.39067 612.6875 239.15625 L 588.09375 239.15625 C 588.05467 234.6641 589.18748 231.11723 591.53125 228.5 C 593.87497 225.88286 596.84372 224.56255 600.4375 224.5625 z M 669.40625 224.5625 C 673.42965 224.56255 676.73433 226.13677 679.3125 229.28125 C 681.89058 232.42582 683.18745 237.57035 683.1875 244.71875 C 683.18745 251.12502 681.8437 255.93361 679.1875 259.15625 C 676.53121 262.37892 673.32027 264.00001 669.53125 264 C 664.76559 264.00001 661.06247 261.85939 658.40625 257.5625 C 656.57029 254.59377 655.65623 249.76565 655.65625 243.125 C 655.65623 236.95316 656.95701 232.32426 659.59375 229.21875 C 662.23044 226.11333 665.49997 224.56255 669.40625 224.5625 z M 397.0625 225.375 C 401.35933 225.37505 404.9648 227.0313 407.875 230.3125 C 410.78511 233.59379 412.24995 238.28129 412.25 244.375 C 412.24995 250.62502 410.78511 255.37502 407.875 258.65625 C 404.9648 261.93751 401.35933 263.59376 397.0625 263.59375 C 392.76559 263.59376 389.14841 261.93751 386.21875 258.65625 C 383.28904 255.37502 381.84373 250.64065 381.84375 244.46875 C 381.84373 238.29691 383.28904 233.59379 386.21875 230.3125 C 389.14841 227.0313 392.76559 225.37505 397.0625 225.375 z "
       style="font-size:120px;font-style:normal;font-weight:normal;line-height:125%;letter-spacing:0px;word-spacing:0px;fill:#999999;fill-opacity:1;stroke:#e6e6e6;filter:url(#filter3199);font-family:Sans"
       id="path3843"
       d="m 108.71875,189.6875 0,85.90625 65.34375,0 0,-14.46875 -48,0 0,-23.375 43.125,0 0,-14.46875 -43.125,0 0,-19.0625 46.375,0 0,-14.53125 -63.71875,0 z m 186,0 0,85.90625 15.28125,0 0,-9.125 c 2.49997,3.47657 5.48044,6.09766 8.9375,7.875 3.457,1.77734 6.94527,2.65625 10.5,2.65625 7.22651,0 13.37885,-2.88281 18.4375,-8.625 5.05853,-5.74217 7.59368,-13.90623 7.59375,-24.53125 -7e-5,-10.2734 -2.47663,-18.16792 -7.4375,-23.65625 -4.96099,-5.48822 -11.23442,-8.21869 -18.8125,-8.21875 -6.95316,6e-5 -12.95315,2.87506 -18.03125,8.65625 l 0,-30.9375 -16.46875,0 z m 388.40625,0 0,30.9375 c -5.07817,-5.78119 -11.10941,-8.65619 -18.0625,-8.65625 -7.57815,6e-5 -13.82033,2.73053 -18.78125,8.21875 -4.96094,5.48833 -7.46875,13.51567 -7.46875,24.0625 0,10.31252 2.55859,18.36329 7.65625,24.125 5.09764,5.76172 11.22654,8.625 18.375,8.625 3.51559,0 7.01168,-0.85547 10.46875,-2.59375 3.45699,-1.73828 6.46089,-4.38281 9,-7.9375 l 0,9.125 15.28125,0 0,-85.90625 -16.46875,0 z m -461,22.28125 c -7.50003,6e-5 -13.97659,3.30475 -19.40625,9.90625 l 0,-8.5 -15.1875,0 0,62.21875 16.46875,0 0,-30.21875 c -2e-5,-5.97653 0.43357,-10.26558 1.3125,-12.84375 0.87888,-2.57808 2.34372,-4.53901 4.375,-5.90625 2.03122,-1.36714 4.30465,-2.06245 6.84375,-2.0625 2.10934,5e-5 3.80074,0.42193 5.03125,1.28125 1.23043,0.85942 2.13277,2.17974 2.71875,3.9375 0.58589,1.75786 0.87495,5.6641 0.875,11.71875 l 0,34.09375 16.46875,0 0,-29.875 c -6e-5,-5.85934 0.44525,-10.16012 1.34375,-12.875 0.89837,-2.7148 2.37493,-4.7812 4.40625,-6.1875 2.03118,-1.4062 4.19524,-2.0937 6.5,-2.09375 3.16399,5e-5 5.50773,1.1563 7.03125,3.5 1.13273,1.79692 1.68742,5.79692 1.6875,11.96875 l 0,35.5625 16.46875,0 0,-39.78125 c -10e-5,-5.93745 -0.55479,-10.24995 -1.6875,-12.90625 -1.5626,-3.59369 -3.92978,-6.30072 -7.09375,-8.15625 -3.16415,-1.85541 -7.02352,-2.78119 -11.59375,-2.78125 -3.59382,6e-5 -6.99226,0.82819 -10.15625,2.46875 -3.16413,1.64068 -6.10944,4.11724 -8.84375,7.4375 -1.87506,-3.32026 -4.28912,-5.79682 -7.21875,-7.4375 -2.92974,-1.64056 -6.35942,-2.46869 -10.34375,-2.46875 z m 174.875,0 c -6.09378,6e-5 -11.58987,1.336 -16.53125,4.03125 -4.94142,2.69537 -8.77345,6.60162 -11.46875,11.71875 -2.69532,5.11723 -4.03125,10.40629 -4.03125,15.875 0,7.14846 1.33593,13.2383 4.03125,18.21875 2.6953,4.98048 6.6367,8.73438 11.8125,11.3125 5.17576,2.57812 10.60934,3.875 16.3125,3.875 9.2187,0 16.86323,-3.08984 22.9375,-9.28125 6.07415,-6.19139 9.12493,-13.99217 9.125,-23.40625 -7e-5,-9.3359 -3.01569,-17.07417 -9.03125,-23.1875 -6.01568,-6.11322 -13.74223,-9.15619 -23.15625,-9.15625 z m 67.8125,0 c -8.94533,6e-5 -15.5547,1.82819 -19.8125,5.5 -4.25782,3.67193 -6.37501,8.20317 -6.375,13.59375 -10e-6,5.9766 2.45312,10.64066 7.375,14 3.55467,2.4219 11.96873,5.10159 25.25,8.03125 2.85152,0.66408 4.67965,1.37502 5.5,2.15625 0.78121,0.82033 1.18746,1.87502 1.1875,3.125 -4e-5,1.83595 -0.74223,3.28126 -2.1875,4.375 -2.14848,1.56251 -5.33597,2.34376 -9.59375,2.34375 -3.86722,10e-6 -6.88284,-0.80858 -9.03125,-2.46875 -2.14846,-1.66014 -3.57815,-4.10936 -4.28125,-7.3125 l -16.53125,2.53125 c 1.52343,5.89845 4.77734,10.56251 9.71875,14 4.94139,3.4375 11.64841,5.15625 20.125,5.15625 9.3359,0 16.39058,-2.05469 21.15625,-6.15625 4.76557,-4.10155 7.12494,-8.98436 7.125,-14.6875 -6e-5,-5.23435 -1.68756,-9.32028 -5.125,-12.25 -3.47661,-2.89059 -9.60551,-5.35153 -18.375,-7.34375 -8.76956,-1.99215 -13.89065,-3.53121 -15.375,-4.625 -1.09377,-0.82027 -1.65627,-1.79683 -1.65625,-2.96875 -2e-5,-1.36714 0.62498,-2.48433 1.875,-3.34375 1.87498,-1.21089 4.97654,-1.81245 9.3125,-1.8125 3.43746,5e-5 6.08199,0.61724 7.9375,1.90625 1.85543,1.28911 3.11714,3.17192 3.78125,5.59375 l 15.53125,-2.875 c -1.56256,-5.42963 -4.42193,-9.53901 -8.5625,-12.3125 -4.14067,-2.77338 -10.45316,-4.15619 -18.96875,-4.15625 z m 66.78125,0 c -8.94533,6e-5 -15.52345,1.82819 -19.78125,5.5 -4.25782,3.67193 -6.40626,8.20317 -6.40625,13.59375 -10e-6,5.9766 2.45312,10.64066 7.375,14 3.55467,2.4219 11.99998,5.10159 25.28125,8.03125 2.85152,0.66408 4.67965,1.37502 5.5,2.15625 0.78121,0.82033 1.15621,1.87502 1.15625,3.125 -4e-5,1.83595 -0.71098,3.28126 -2.15625,4.375 -2.14848,1.56251 -5.36722,2.34376 -9.625,2.34375 -3.86722,10e-6 -6.85159,-0.80858 -9,-2.46875 -2.14846,-1.66014 -3.57815,-4.10936 -4.28125,-7.3125 l -16.53125,2.53125 c 1.52343,5.89845 4.74609,10.56251 9.6875,14 4.94139,3.4375 11.64841,5.15625 20.125,5.15625 9.3359,0 16.39058,-2.05469 21.15625,-6.15625 4.76557,-4.10155 7.15619,-8.98436 7.15625,-14.6875 -6e-5,-5.23435 -1.71881,-9.32028 -5.15625,-12.25 -3.47661,-2.89059 -9.60551,-5.35153 -18.375,-7.34375 -8.76956,-1.99215 -13.89065,-3.53121 -15.375,-4.625 -1.09377,-0.82027 -1.65627,-1.79683 -1.65625,-2.96875 -2e-5,-1.36714 0.62498,-2.48433 1.875,-3.34375 1.87498,-1.21089 5.00779,-1.81245 9.34375,-1.8125 3.43746,5e-5 6.08199,0.61724 7.9375,1.90625 1.85543,1.28911 3.11714,3.17192 3.78125,5.59375 l 15.5,-2.875 c -1.56256,-5.42963 -4.39068,-9.53901 -8.53125,-12.3125 -4.14067,-2.77338 -10.48441,-4.15619 -19,-4.15625 z m 67.84375,0 c -8.24221,6e-5 -15.04689,2.91022 -20.4375,8.75 -5.39063,5.83989 -8.09375,13.90629 -8.09375,24.21875 0,8.63283 2.05468,15.8047 6.15625,21.46875 5.1953,7.07031 13.21091,10.59375 24.03125,10.59375 6.8359,0 12.54292,-1.57422 17.09375,-4.71875 4.55073,-3.14452 7.85932,-7.73436 9.96875,-13.75 l -16.40625,-2.75 c -0.89848,3.12502 -2.21098,5.40626 -3.96875,6.8125 -1.75785,1.40626 -3.92191,2.09376 -6.5,2.09375 -3.78909,10e-6 -6.96096,-1.34764 -9.5,-4.0625 -2.53908,-2.71483 -3.88283,-6.52342 -4,-11.40625 l 41.25,0 c 0.23431,-12.61715 -2.30475,-21.98042 -7.65625,-28.09375 -5.35161,-6.11322 -12.67973,-9.15619 -21.9375,-9.15625 z m -274.625,12.59375 c 4.0234,5e-5 7.32808,1.57427 9.90625,4.71875 2.57807,3.14457 3.87495,8.26566 3.875,15.375 -5e-5,6.67971 -1.28521,11.58205 -3.84375,14.6875 -2.55864,3.10548 -5.64848,4.65626 -9.28125,4.65625 -4.7266,10e-6 -8.52347,-2.18749 -11.375,-6.5625 -2.03128,-3.08592 -3.03127,-7.86716 -3.03125,-14.3125 -2e-5,-6.24996 1.28904,-10.9023 3.90625,-13.96875 2.61716,-3.06636 5.8984,-4.5937 9.84375,-4.59375 z m 275.625,0 c 3.35934,5e-5 6.21871,1.23833 8.5625,3.71875 2.34371,2.48051 3.57027,6.10942 3.6875,10.875 l -24.59375,0 c -0.0391,-4.49215 1.09373,-8.03902 3.4375,-10.65625 2.34372,-2.61714 5.31247,-3.93745 8.90625,-3.9375 z m 68.96875,0 c 4.0234,5e-5 7.32808,1.57427 9.90625,4.71875 2.57808,3.14457 3.87495,8.2891 3.875,15.4375 -5e-5,6.40627 -1.3438,11.21486 -4,14.4375 -2.65629,3.22267 -5.86723,4.84376 -9.65625,4.84375 -4.76566,10e-6 -8.46878,-2.14061 -11.125,-6.4375 -1.83596,-2.96873 -2.75002,-7.79685 -2.75,-14.4375 -2e-5,-6.17184 1.30076,-10.80074 3.9375,-13.90625 2.63669,-3.10542 5.90622,-4.6562 9.8125,-4.65625 z M 397.0625,225.375 c 4.29683,5e-5 7.9023,1.6563 10.8125,4.9375 2.91011,3.28129 4.37495,7.96879 4.375,14.0625 -5e-5,6.25002 -1.46489,11.00002 -4.375,14.28125 -2.9102,3.28126 -6.51567,4.93751 -10.8125,4.9375 -4.29691,10e-6 -7.91409,-1.65624 -10.84375,-4.9375 -2.92971,-3.28123 -4.37502,-8.0156 -4.375,-14.1875 -2e-5,-6.17184 1.44529,-10.87496 4.375,-14.15625 2.92966,-3.2812 6.54684,-4.93745 10.84375,-4.9375 z" />
    <text
       xml:space="preserve"
       style="font-size:120px;font-style:normal;font-weight:normal;line-height:125%;letter-spacing:0px;word-spacing:0px;fill:#000000;fill-opacity:1;stroke:none;font-family:Sans"
       x="54.285713"
       y="789.50507"
       id="text3211"
       sodipodi:linespacing="125%"><tspan
         sodipodi:role="line"
         id="tspan3213"
         x="54.285713"
         y="789.50507">HEHE</tspan></text>
    <rect
       style="fill:#ff00ff;fill-opacity:1;fill-rule:nonzero;stroke:none;filter:url(#filter3823)"
       id="rect3821"
       width="176.7767"
       height="109.09647"
       x="304.05591"
       y="46.250248" />
  </g>
</svg>
