<?xml version="1.0" encoding="UTF-8" standalone="no"?>
<svg
   xmlns:dc="http://purl.org/dc/elements/1.1/"
   xmlns:cc="http://creativecommons.org/ns#"
   xmlns:rdf="http://www.w3.org/1999/02/22-rdf-syntax-ns#"
   xmlns:svg="http://www.w3.org/2000/svg"
   xmlns="http://www.w3.org/2000/svg"
   xmlns:sodipodi="http://sodipodi.sourceforge.net/DTD/sodipodi-0.dtd"
   xmlns:inkscape="http://www.inkscape.org/namespaces/inkscape"
   width="210mm"
   height="297mm"
   viewBox="0 0 210 297"
   version="1.1"
   id="svg8"
   sodipodi:docname="paella.svg"
   inkscape:version="1.0.2 (e86c870879, 2021-01-15, custom)">
  <defs
     id="defs2" />
  <sodipodi:namedview
     id="base"
     pagecolor="#ffffff"
     bordercolor="#666666"
     borderopacity="1.0"
     inkscape:pageopacity="0.0"
     inkscape:pageshadow="2"
     inkscape:zoom="1.7843992"
     inkscape:cx="372.066"
     inkscape:cy="314.78601"
     inkscape:document-units="mm"
     inkscape:current-layer="layer1"
     inkscape:document-rotation="0"
     showgrid="false"
     inkscape:window-width="1920"
     inkscape:window-height="986"
     inkscape:window-x="-11"
     inkscape:window-y="-11"
     inkscape:window-maximized="1" />
  <metadata
     id="metadata5">
    <rdf:RDF>
      <cc:Work
         rdf:about="">
        <dc:format>image/svg+xml</dc:format>
        <dc:type
           rdf:resource="http://purl.org/dc/dcmitype/StillImage" />
      </cc:Work>
    </rdf:RDF>
  </metadata>
  <g
     inkscape:label="Lager 1"
     inkscape:groupmode="layer"
     id="layer1">
    <path
       id="path833"
       style="fill:#b3b3b3;stroke:#000000;stroke-width:3;stroke-miterlimit:4;stroke-dasharray:none"
       d="m 173.15373,95.415215 c 0,26.421995 -30.51346,41.685465 -68.15373,41.685465 -37.640264,0 -68.153728,-15.26347 -68.153727,-41.685465 0,-26.42199 30.513463,-18.976136 68.153727,-18.976135 37.64026,-2e-6 68.15373,-7.445856 68.15373,18.976135 z"
       sodipodi:nodetypes="sssss" />
    <ellipse
       style="fill:#b3b3b3;stroke:#000000;stroke-width:3;stroke-miterlimit:4;stroke-dasharray:none"
       id="path836"
       cx="105"
       cy="91.406174"
       rx="67.886459"
       ry="31.537804" />
    <path
       id="ellipse842"
       style="fill:#ff9955;stroke:#000000;stroke-width:1.97152;stroke-miterlimit:4;stroke-dasharray:none"
       d="m 169.60823,93.873963 c 0,14.376457 -28.92609,28.518477 -64.60823,28.518477 -35.68214,0 -64.608231,-14.14202 -64.608235,-28.518477 0,-14.376461 28.926092,-26.030886 64.608235,-26.030886 35.68215,0 64.60823,11.654425 64.60823,26.030886 z"
       sodipodi:nodetypes="sssss" />
    <path
       style="fill:none;stroke:#000000;stroke-width:6;stroke-linecap:butt;stroke-linejoin:miter;stroke-miterlimit:4;stroke-dasharray:none;stroke-opacity:1"
       d="M 38.045624,86.952507 C 30.535058,85.538753 12.828937,62.006529 11.759859,88.733481 10.690781,115.46043 39.55589,99.424264 39.55589,99.424264"
       id="path838"
       sodipodi:nodetypes="csc" />
    <path
       style="fill:none;stroke:#000000;stroke-width:6;stroke-linecap:butt;stroke-linejoin:miter;stroke-miterlimit:4;stroke-dasharray:none;stroke-opacity:1"
       d="m 172.86826,85.958997 c 5.40721,-1.862987 23.85658,-23.952468 24.92567,2.774484 1.06908,26.726949 -25.54404,10.644899 -25.54404,10.644899"
       id="path840"
       sodipodi:nodetypes="csc" />
    <path
       style="fill:none;stroke:#000000;stroke-width:0.264583px;stroke-linecap:butt;stroke-linejoin:miter;stroke-opacity:1"
       d="M 80.973653,28.240811 73.975931,38.987315 89.22097,41.486501 54.732192,56.231704 49.233981,37.237884 Z"
       id="path845"
       sodipodi:nodetypes="cccccc" />
    <path
       style="fill:none;stroke:#000000;stroke-width:1;stroke-linecap:round;stroke-linejoin:miter;stroke-opacity:1;stroke-miterlimit:4;stroke-dasharray:none"
       d="M 49.233981,37.237884 63.229426,83.472839"
       id="path847" />
    <path
       style="fill:none;stroke:#000000;stroke-width:0.264583px;stroke-linecap:butt;stroke-linejoin:miter;stroke-opacity:1"
       d="M 50.969828,41.554312 78.178451,32.58362"
       id="path849"
       sodipodi:nodetypes="cc" />
    <path
       style="fill:none;stroke:#000000;stroke-width:0.264583px;stroke-linecap:butt;stroke-linejoin:miter;stroke-opacity:1"
       d="M 53.75,52.415519 83.219829,40.516381"
       id="path851" />
    <path
       style="fill:none;stroke:#000000;stroke-width:1;stroke-linecap:butt;stroke-linejoin:miter;stroke-miterlimit:4;stroke-dasharray:none;stroke-opacity:1"
       d="m 59.226007,84.857329 c 3.474252,-2.971991 8.155173,-0.296553 8.155173,-0.296553"
       id="path853" />
  </g>
</svg>
