<?xml version="1.0" encoding="UTF-8" standalone="no"?>
<!-- Created with Inkscape (http://www.inkscape.org/) -->

<svg
   xmlns:dc="http://purl.org/dc/elements/1.1/"
   xmlns:cc="http://creativecommons.org/ns#"
   xmlns:rdf="http://www.w3.org/1999/02/22-rdf-syntax-ns#"
   xmlns:svg="http://www.w3.org/2000/svg"
   xmlns="http://www.w3.org/2000/svg"
   xmlns:sodipodi="http://sodipodi.sourceforge.net/DTD/sodipodi-0.dtd"
   xmlns:inkscape="http://www.inkscape.org/namespaces/inkscape"
   width="210mm"
   height="297mm"
   viewBox="0 0 210 297"
   version="1.1"
   id="svg8"
   inkscape:version="0.92.2 (5c3e80d, 2017-08-06)"
   sodipodi:docname="pikachu_streckad_easy.svg">
  <defs
     id="defs2" />
  <sodipodi:namedview
     id="base"
     pagecolor="#ffffff"
     bordercolor="#666666"
     borderopacity="1.0"
     inkscape:pageopacity="0.0"
     inkscape:pageshadow="2"
     inkscape:zoom="0.7"
     inkscape:cx="189.77762"
     inkscape:cy="573.44388"
     inkscape:document-units="mm"
     inkscape:current-layer="layer1"
     showgrid="false"
     showguides="false"
     inkscape:snap-global="false"
     inkscape:window-width="1680"
     inkscape:window-height="987"
     inkscape:window-x="-4"
     inkscape:window-y="-4"
     inkscape:window-maximized="1" />
  <metadata
     id="metadata5">
    <rdf:RDF>
      <cc:Work
         rdf:about="">
        <dc:format>image/svg+xml</dc:format>
        <dc:type
           rdf:resource="http://purl.org/dc/dcmitype/StillImage" />
        <dc:title></dc:title>
      </cc:Work>
    </rdf:RDF>
  </metadata>
  <g
     inkscape:label="Layer 1"
     inkscape:groupmode="layer"
     id="layer1" />
  <g
     inkscape:groupmode="layer"
     id="layer2"
     inkscape:label="Layer 2">
    <path
       sodipodi:nodetypes="sssss"
       inkscape:connector-curvature="0"
       id="path905"
       d="m 112.45366,108.84225 c 0,4.59924 -2.93169,6.81537 -6.54811,6.81537 -3.61641,0 -6.581511,-2.4834 -6.548101,-6.81537 0.029,-3.76392 2.163281,-6.74856 6.548101,-6.81538 3.616,-0.0551 6.54811,3.05135 6.54811,6.81538 z"
       style="opacity:1;fill:#000000;fill-opacity:1;stroke:#000000;stroke-width:0.1;stroke-linecap:round;stroke-miterlimit:4;stroke-dasharray:none;stroke-dashoffset:0;stroke-opacity:1" />
    <path
       inkscape:connector-curvature="0"
       id="path849"
       d="m 72.720929,143.25818 c 0,0 -4.53572,17.29241 -1.79539,27.59226 2.74033,10.29985 1.13393,11.62277 2.17336,12.94569 1.03944,1.32291 2.36236,0.47247 2.36236,0.47247 0,0 0.0945,1.70089 1.22842,1.70089 1.13393,0 1.41741,-1.79539 1.41741,-1.79539 0,0 0.94494,1.13393 2.45685,1.13393 1.5119,0 1.79538,-1.79538 1.79538,-1.79538 0,0 0.18899,1.32291 1.32292,1.22842 1.13393,-0.0945 1.5119,-2.64583 1.5119,-2.64583 0,0 0.85045,0.28348 1.41741,-0.66146 0.56697,-0.94494 -1.03943,-3.77976 -0.94494,-4.8192 0.0945,-1.03943 2.74033,-11.52827 0.37798,-18.33184"
       style="fill:none;stroke:#000000;stroke-width:0.5;stroke-linecap:butt;stroke-linejoin:miter;stroke-miterlimit:4;stroke-dasharray:0.50000001, 2.00000006;stroke-dashoffset:0;stroke-opacity:1" />
    <path
       inkscape:connector-curvature="0"
       id="path851"
       d="m 70.075099,159.88914 c -2.17337,5.57514 -6.14212,23.24553 -3.77977,30.61606 2.36236,7.37054 7.65402,17.29242 34.584821,11.62277 20.12724,-0.47246 20.50521,5.10268 30.80506,0.85045 10.29985,-4.25223 11.11886,-17.29618 11.11886,-17.29618 0,0 0.53454,-7.48355 -0.8018,-14.16528 -1.33635,-6.68174 -11.8935,-30.46873 -11.49259,-34.2105 0.4009,-3.74178 3.20723,-20.84703 1.73725,-27.6624 -1.46998,-6.81537 -4.00904,-13.49711 -4.00904,-13.49711"
       style="fill:none;stroke:#000000;stroke-width:0.5;stroke-linecap:butt;stroke-linejoin:miter;stroke-miterlimit:4;stroke-dasharray:0.50000001, 2.00000006;stroke-dashoffset:0;stroke-opacity:1" />
    <path
       inkscape:connector-curvature="0"
       id="path853"
       d="m 125.43156,98.418739 c 0,0 37.41773,-40.892238 34.34413,-55.725695 -3.0736,-14.833459 -43.16403,40.491333 -44.36674,45.302183"
       style="fill:none;stroke:#000000;stroke-width:0.5;stroke-linecap:butt;stroke-linejoin:miter;stroke-miterlimit:4;stroke-dasharray:0.50000001, 2.00000006;stroke-dashoffset:0;stroke-opacity:1" />
    <path
       inkscape:connector-curvature="0"
       id="path855"
       d="M 117.41661,85.900296 C 95.682979,77.58482 77.456679,87.193421 77.456679,87.193421 v 0 c 0,0 -39.02135,-14.165287 -53.72118,-7.216278 -14.6998198,6.949006 33.94323,17.639789 45.16855,16.30344 0,0 -4.02613,3.037869 -5.25455,8.896497 -1.22842,5.85863 -2.07887,11.81176 -4.06324,14.64658 -1.98438,2.83482 -0.37798,11.24479 2.83482,13.98512 3.03322,2.58716 7.74851,8.40997 14.55208,12.7567"
       style="fill:none;stroke:#000000;stroke-width:0.5;stroke-linecap:butt;stroke-linejoin:miter;stroke-miterlimit:4;stroke-dasharray:0.50000001, 2.00000006;stroke-dashoffset:0;stroke-opacity:1"
       sodipodi:nodetypes="cccscsssc" />
    <path
       sodipodi:nodetypes="cssscccccccscc"
       style="fill:none;stroke:#000000;stroke-width:0.5;stroke-linecap:butt;stroke-linejoin:miter;stroke-miterlimit:4;stroke-dasharray:0.50000001, 2.00000006;stroke-dashoffset:0;stroke-opacity:1"
       d="m 123.76651,158.37691 c 0,0 -0.50323,7.1971 -4.77479,16.96184 -1.34598,3.07688 -3.20743,5.42728 -3.7914,6.87339 -1.26931,3.14323 0.33189,3.31033 -0.50926,4.09787 -1.22815,1.14986 -2.97464,-0.19216 -2.97464,-0.19216 0,0 -0.35151,1.66686 -1.4723,1.49479 -1.1208,-0.17207 -1.12855,-1.98969 -1.12855,-1.98969 0,0 -1.10607,0.97741 -2.60047,0.74798 -1.49439,-0.22942 -1.50215,-2.04703 -1.50215,-2.04703 0,0 -0.38755,1.27891 -1.494,1.01345 -1.10646,-0.26548 -1.09291,-2.84462 -1.09291,-2.84462 0,0 -0.88361,0.15114 -1.30062,-0.86889 -0.417,-1.02003 1.60097,-3.57826 1.6653,-4.62 0.0643,-1.04173 -0.20327,-14.26745 3.16415,-20.63375"
       id="path857"
       inkscape:connector-curvature="0" />
    <path
       inkscape:connector-curvature="0"
       id="path859"
       d="m 120.7239,204.8683 c 0,0 11.33929,17.76488 16.53646,15.68601 5.19717,-2.07887 -1.5119,-19.74925 -1.5119,-19.74925"
       style="fill:none;stroke:#000000;stroke-width:0.5;stroke-linecap:butt;stroke-linejoin:miter;stroke-miterlimit:4;stroke-dasharray:0.50000001, 1.50000004;stroke-dashoffset:0;stroke-opacity:1" />
    <path
       sodipodi:nodetypes="czc"
       style="fill:none;stroke:#000000;stroke-width:0.5;stroke-linecap:butt;stroke-linejoin:miter;stroke-miterlimit:4;stroke-dasharray:0.50000001, 1.50000004;stroke-dashoffset:0;stroke-opacity:1"
       d="m 88.408789,204.88747 c 0,0 -19.83374,13.48738 -23.77467,9.51229 -3.94094,-3.97509 9.05592,-14.39884 9.05592,-14.39884"
       id="path861"
       inkscape:connector-curvature="0" />
    <path
       style="fill:none;stroke:#000000;stroke-width:0.26458332px;stroke-linecap:butt;stroke-linejoin:miter;stroke-opacity:1"
       d="m 154.36379,85.805803 1.41739,-1.417413 1.65365,1.228423"
       id="path863"
       inkscape:connector-curvature="0"
       sodipodi:nodetypes="ccc" />
    <path
       style="fill:none;stroke:#000000;stroke-width:0.26458332px;stroke-linecap:butt;stroke-linejoin:miter;stroke-opacity:1"
       d="m 185.54681,106.31101 1.27569,0.94494 -1.55917,1.22842"
       id="path865"
       inkscape:connector-curvature="0" />
    <path
       style="fill:none;stroke:#000000;stroke-width:0.26458332px;stroke-linecap:butt;stroke-linejoin:miter;stroke-opacity:1"
       d="m 162.52697,126.34276 -2.58286,2.07698 2.46067,1.35969"
       id="path867"
       inkscape:connector-curvature="0"
       sodipodi:nodetypes="ccc" />
    <path
       style="fill:none;stroke:#000000;stroke-width:0.26458332px;stroke-linecap:butt;stroke-linejoin:miter;stroke-opacity:1"
       d="m 180.71782,139.844 1.92331,1.06364 -2.06115,1.2048"
       id="path869"
       inkscape:connector-curvature="0"
       sodipodi:nodetypes="ccc" />
    <path
       style="fill:none;stroke:#000000;stroke-width:0.26458332px;stroke-linecap:butt;stroke-linejoin:miter;stroke-opacity:1"
       d="m 160.89323,153.76765 -0.95748,0.55218 0.98876,0.61327"
       id="path871"
       inkscape:connector-curvature="0"
       sodipodi:nodetypes="ccc" />
    <path
       style="fill:none;stroke:#000000;stroke-width:0.26458332px;stroke-linecap:butt;stroke-linejoin:miter;stroke-opacity:1"
       d="m 174.79688,163.40019 0.82512,0.56105 -0.91792,0.63183"
       id="path873"
       inkscape:connector-curvature="0"
       sodipodi:nodetypes="ccc" />
    <path
       style="fill:none;stroke:#000000;stroke-width:0.26458332px;stroke-linecap:butt;stroke-linejoin:miter;stroke-opacity:1"
       d="m 143.12283,185.51519 3.14042,-2.03792"
       id="path875"
       inkscape:connector-curvature="0" />
    <path
       style="fill:none;stroke:#000000;stroke-width:0.26458332px;stroke-linecap:butt;stroke-linejoin:miter;stroke-opacity:1"
       d="m 142.32101,176.36121 3.34087,-3.14041"
       id="path877"
       inkscape:connector-curvature="0" />
    <path
       style="fill:none;stroke:#000000;stroke-width:0.26458332px;stroke-linecap:butt;stroke-linejoin:miter;stroke-opacity:1"
       d="m 133.20045,136.77192 -2.6393,-0.80181"
       id="path879"
       inkscape:connector-curvature="0" />
    <path
       style="fill:none;stroke:#000000;stroke-width:0.26458332px;stroke-linecap:butt;stroke-linejoin:miter;stroke-opacity:1"
       d="m 148.46821,141.26538 1.28624,0.38421 -1.08577,1.23612"
       id="path881"
       inkscape:connector-curvature="0" />
    <path
       style="fill:none;stroke:#000000;stroke-width:0.26458332px;stroke-linecap:butt;stroke-linejoin:miter;stroke-opacity:1"
       d="m 139.34766,154.14444 -0.75172,0.91873 1.23614,0.60136"
       id="path883"
       inkscape:connector-curvature="0"
       sodipodi:nodetypes="ccc" />
    <path
       style="fill:none;stroke:#000000;stroke-width:0.26458332px;stroke-linecap:butt;stroke-linejoin:miter;stroke-opacity:1"
       d="m 155.49771,162.60584 0.77957,0.4016 -0.75594,0.77957"
       id="path885"
       inkscape:connector-curvature="0" />
    <path
       style="opacity:1;fill:#ffffff;fill-opacity:1;stroke:#000000;stroke-width:0.04632378;stroke-linecap:round;stroke-miterlimit:4;stroke-dasharray:none;stroke-dashoffset:0;stroke-opacity:1"
       d="m 106.95443,107.63725 c 0,2.13055 -1.35806,3.15714 -3.03333,3.15714 -1.67526,0 -3.0488,-1.1504 -3.03332,-3.15714 0.0135,-1.74359 1.00211,-3.12618 3.03332,-3.15714 1.67507,-0.0255 3.03333,1.4135 3.03333,3.15714 z"
       id="path907"
       inkscape:connector-curvature="0"
       sodipodi:nodetypes="sssss" />
    <path
       sodipodi:nodetypes="szzss"
       inkscape:connector-curvature="0"
       id="path909"
       d="m 76.453629,108.9096 c 0,3.44438 -1.55314,6.35472 -4.89006,6.3311 -3.33693,-0.0236 -4.37035,-2.50874 -4.37035,-5.95313 0,-3.44438 3.02961,-6.3311 5.33891,-6.3311 2.3093,0 3.9215,2.50874 3.9215,5.95313 z"
       style="opacity:1;fill:#000000;fill-opacity:1;stroke:#000000;stroke-width:0.1;stroke-linecap:round;stroke-miterlimit:4;stroke-dasharray:none;stroke-dashoffset:0;stroke-opacity:1" />
    <path
       style="opacity:1;fill:#ffffff;fill-opacity:1;stroke:#000000;stroke-width:0.04129618;stroke-linecap:round;stroke-miterlimit:4;stroke-dasharray:none;stroke-dashoffset:0;stroke-opacity:1"
       d="m 74.562349,107.86304 c 0,1.4224 -0.64139,2.62425 -2.01941,2.6145 -1.37803,-0.0102 -1.80479,-1.03602 -1.80479,-2.45841 0,-1.4224 1.25111,-2.61451 2.20477,-2.61451 0.95365,0 1.61943,1.03601 1.61943,2.45842 z"
       id="path911"
       inkscape:connector-curvature="0"
       sodipodi:nodetypes="szzss" />
    <path
       sodipodi:nodetypes="ccszc"
       inkscape:connector-curvature="0"
       id="path913"
       d="m 76.238639,123.37503 c 0,0 0.76839,2.00452 2.80633,1.9043 2.03792,-0.10023 1.90429,-0.86863 3.8754,-0.86863 1.97111,0 3.67496,1.50339 5.44562,1.20272 1.77066,-0.30068 3.64155,-2.2718 3.64155,-2.2718"
       style="fill:none;stroke:#000000;stroke-width:1.5;stroke-linecap:butt;stroke-linejoin:miter;stroke-miterlimit:4;stroke-dasharray:none;stroke-opacity:1" />
    <path
       inkscape:connector-curvature="0"
       id="path915"
       d="m 80.434189,117.04789 c 0.62603,0.79139 1.11031,1.39379 1.66546,1.41742 0.55516,0.0236 1.71271,-1.03944 1.77176,-1.44104 0.0591,-0.4016 -1.47647,-0.4016 -1.77176,-0.4016 -0.29529,0 -1.88988,0.0473 -1.66546,0.42522 z"
       style="fill:#000000;stroke:#000000;stroke-width:0.26458332px;stroke-linecap:butt;stroke-linejoin:miter;stroke-opacity:1" />
    <circle
       r="6.0948658"
       cy="123.46168"
       cx="114.93634"
       id="circle917"
       style="opacity:1;fill:none;fill-opacity:1;stroke:#000000;stroke-width:0.5;stroke-linecap:round;stroke-miterlimit:4;stroke-dasharray:0.5, 1.5;stroke-dashoffset:0.15000001;stroke-opacity:1" />
    <path
       inkscape:connector-curvature="0"
       id="path919"
       d="m 60.202459,119.09872 c 0,0 4.24291,0.83522 4.14268,5.84652 -0.10023,5.0113 -3.4411,6.98242 -3.4411,6.98242"
       style="fill:none;stroke:#000000;stroke-width:0.5;stroke-linecap:round;stroke-linejoin:miter;stroke-miterlimit:4;stroke-dasharray:0.5, 1.5;stroke-dashoffset:0.15000001;stroke-opacity:1" />
    <path
       style="fill:none;stroke:#000000;stroke-width:0.26458332px;stroke-linecap:butt;stroke-linejoin:miter;stroke-opacity:1"
       d="m 171.70345,119.13858 2.27967,-1.81901"
       id="path921"
       inkscape:connector-curvature="0"
       sodipodi:nodetypes="cc" />
    <path
       style="fill:none;stroke:#000000;stroke-width:0.26458332px;stroke-linecap:butt;stroke-linejoin:miter;stroke-opacity:1"
       d="m 169.22297,133.50167 1.18118,0.66146"
       id="path923"
       inkscape:connector-curvature="0" />
    <path
       style="fill:none;stroke:#000000;stroke-width:0.26458332px;stroke-linecap:butt;stroke-linejoin:miter;stroke-opacity:1"
       d="m 168.53198,149.22607 1.39084,-0.81796"
       id="path925"
       inkscape:connector-curvature="0"
       sodipodi:nodetypes="cc" />
    <path
       style="fill:none;stroke:#000000;stroke-width:0.26458332px;stroke-linecap:butt;stroke-linejoin:miter;stroke-opacity:1"
       d="m 165.77394,157.90476 2.5041,1.53553"
       id="path927"
       inkscape:connector-curvature="0" />
    <path
       style="fill:none;stroke:#000000;stroke-width:0.26458332px;stroke-linecap:butt;stroke-linejoin:miter;stroke-opacity:1"
       d="m 154.88269,177.69756 4.76072,-3.14041"
       id="path929"
       inkscape:connector-curvature="0" />
    <path
       style="fill:none;stroke:#000000;stroke-width:0.26458332px;stroke-linecap:butt;stroke-linejoin:miter;stroke-opacity:1"
       d="m 148.73549,159.60676 -2.67269,-1.20272"
       id="path931"
       inkscape:connector-curvature="0" />
    <path
       style="fill:none;stroke:#000000;stroke-width:0.26458332px;stroke-linecap:butt;stroke-linejoin:miter;stroke-opacity:1"
       d="m 134.92162,105.62593 -2.66943,2.69308"
       id="path933"
       inkscape:connector-curvature="0" />
    <path
       inkscape:connector-curvature="0"
       id="path4624"
       d="m 143.09538,185.49702 32.50595,-21.54464 -15.68601,-9.63839 22.67857,-13.41816 -22.67857,-12.47321 26.83631,-21.16667 -30.99405,-22.867557 -23.75371,24.558917 m -1.26037,27.21907 18.96647,5.4854 -11.1503,13.41816 17.76488,7.9375 -13.98512,13.41815"
       style="fill:none;stroke:#000000;stroke-width:0.5;stroke-linecap:butt;stroke-linejoin:miter;stroke-miterlimit:4;stroke-dasharray:0.5, 2;stroke-dashoffset:0;stroke-opacity:1"
       sodipodi:nodetypes="ccccccccccccc" />
  </g>
</svg>
