<?xml version="1.0" encoding="UTF-8" standalone="no"?>
<!-- Created with Inkscape (http://www.inkscape.org/) -->

<svg
   xmlns:dc="http://purl.org/dc/elements/1.1/"
   xmlns:cc="http://creativecommons.org/ns#"
   xmlns:rdf="http://www.w3.org/1999/02/22-rdf-syntax-ns#"
   xmlns:svg="http://www.w3.org/2000/svg"
   xmlns="http://www.w3.org/2000/svg"
   xmlns:sodipodi="http://sodipodi.sourceforge.net/DTD/sodipodi-0.dtd"
   xmlns:inkscape="http://www.inkscape.org/namespaces/inkscape"
   width="210mm"
   height="297mm"
   viewBox="0 0 210 297"
   version="1.1"
   id="svg8"
   inkscape:version="0.92.2 (5c3e80d, 2017-08-06)"
   sodipodi:docname="pikachu_streckad_very_hard.svg">
  <defs
     id="defs2" />
  <sodipodi:namedview
     id="base"
     pagecolor="#ffffff"
     bordercolor="#666666"
     borderopacity="1.0"
     inkscape:pageopacity="0.0"
     inkscape:pageshadow="2"
     inkscape:zoom="1.979899"
     inkscape:cx="442.03585"
     inkscape:cy="831.19965"
     inkscape:document-units="mm"
     inkscape:current-layer="layer2"
     showgrid="false"
     showguides="false"
     inkscape:snap-global="false"
     inkscape:window-width="1680"
     inkscape:window-height="987"
     inkscape:window-x="-4"
     inkscape:window-y="-4"
     inkscape:window-maximized="1" />
  <metadata
     id="metadata5">
    <rdf:RDF>
      <cc:Work
         rdf:about="">
        <dc:format>image/svg+xml</dc:format>
        <dc:type
           rdf:resource="http://purl.org/dc/dcmitype/StillImage" />
        <dc:title></dc:title>
      </cc:Work>
    </rdf:RDF>
  </metadata>
  <g
     inkscape:label="Layer 1"
     inkscape:groupmode="layer"
     id="layer1" />
  <g
     inkscape:groupmode="layer"
     id="layer2"
     inkscape:label="Layer 2">
    <path
       sodipodi:nodetypes="sssss"
       inkscape:connector-curvature="0"
       id="path905"
       d="m 111.25832,108.40361 c 0,5.17535 -3.29892,7.66908 -7.36834,7.66908 -4.069407,0 -7.405922,-2.79448 -7.368327,-7.66908 0.03263,-4.2354 2.43426,-7.59391 7.368327,-7.6691 4.06895,-0.062 7.36834,3.43358 7.36834,7.6691 z"
       style="opacity:1;fill:none;fill-opacity:1;stroke:#000000;stroke-width:0.30000001;stroke-linecap:round;stroke-miterlimit:4;stroke-dasharray:0.3, 2.4;stroke-dashoffset:0;stroke-opacity:1" />
    <path
       inkscape:connector-curvature="0"
       id="path849"
       d="m 66.548578,147.13056 c 0,0 -5.103875,19.4585 -2.020284,31.04853 3.08359,11.59004 1.275968,13.07867 2.4456,14.5673 1.169643,1.48862 2.658275,0.53165 2.658275,0.53165 0,0 0.106337,1.91395 1.382295,1.91395 1.275968,0 1.594958,-2.02028 1.594958,-2.02028 0,0 1.063305,1.27596 2.764601,1.27596 1.701284,0 2.020273,-2.02027 2.020273,-2.02027 0,0 0.212664,1.48862 1.488632,1.3823 1.275969,-0.10634 1.701285,-2.97726 1.701285,-2.97726 0,0 0.956979,0.31899 1.594958,-0.74431 0.63799,-1.06331 -1.169632,-4.25323 -1.063306,-5.42287 0.106338,-1.16963 3.083591,-12.97233 0.425327,-20.62813"
       style="fill:none;stroke:#000000;stroke-width:0.56263119;stroke-linecap:butt;stroke-linejoin:miter;stroke-miterlimit:4;stroke-dasharray:0.56263121, 3.37578727;stroke-dashoffset:0;stroke-opacity:1" />
    <path
       inkscape:connector-curvature="0"
       id="path851"
       d="m 63.571325,165.84475 c -2.445611,6.2735 -6.911496,26.15732 -4.253233,34.4511 2.658275,8.2938 8.612781,19.45851 38.917001,13.07867 22.648417,-0.53164 23.073737,5.74185 34.663767,0.95698 11.59004,-4.78488 12.51164,-19.46274 12.51164,-19.46274 0,0 0.6015,-8.42096 -0.90224,-15.93966 -1.50374,-7.51871 -13.38331,-34.28531 -12.93218,-38.49579 0.45112,-4.21048 3.60898,-23.45838 1.95487,-31.12746 -1.65412,-7.66908 -4.51123,-15.187789 -4.51123,-15.187789"
       style="fill:none;stroke:#000000;stroke-width:0.56263119;stroke-linecap:butt;stroke-linejoin:miter;stroke-miterlimit:4;stroke-dasharray:0.56263121, 13.5031491;stroke-dashoffset:0;stroke-opacity:1" />
    <path
       inkscape:connector-curvature="0"
       id="path853"
       d="m 125.86187,96.67442 c 0,0 42.10476,-46.014498 38.64615,-62.706029 -3.4586,-16.691534 -48.57086,45.563374 -49.92422,50.976842"
       style="fill:none;stroke:#000000;stroke-width:0.56263119;stroke-linecap:butt;stroke-linejoin:miter;stroke-miterlimit:4;stroke-dasharray:0.56263119,13.50314865;stroke-dashoffset:5.62631194;stroke-opacity:1" />
    <path
       inkscape:connector-curvature="0"
       id="path855"
       d="M 116.00431,82.274303 C 91.919854,73.477018 71.87754,84.042991 71.87754,84.042991 v 0 c 0,0 -43.909258,-15.939664 -60.450424,-8.120206 -16.5411543,7.819455 38.19504,19.849391 50.826471,18.345648 0,0 -4.530453,3.4184 -5.912748,10.010897 -1.382294,6.5925 -2.339274,13.29133 -4.572211,16.48125 -2.232948,3.18991 -0.425326,12.65333 3.189917,15.73692 3.413168,2.91124 8.719106,9.46343 16.374908,14.35464"
       style="fill:none;stroke:#000000;stroke-width:0.56263119;stroke-linecap:butt;stroke-linejoin:miter;stroke-miterlimit:4;stroke-dasharray:0.56263119,13.50314865;stroke-dashoffset:2.25052478;stroke-opacity:1"
       sodipodi:nodetypes="cccscsssc" />
    <path
       sodipodi:nodetypes="cssscccccccscc"
       style="fill:none;stroke:#000000;stroke-width:0.56263119;stroke-linecap:butt;stroke-linejoin:miter;stroke-miterlimit:4;stroke-dasharray:0.56263121, 3.37578727;stroke-dashoffset:0;stroke-opacity:1"
       d="m 123.98825,164.1431 c 0,0 -0.56627,8.09862 -5.37289,19.08652 -1.51458,3.4623 -3.6092,6.10711 -4.26632,7.73437 -1.42831,3.53695 0.37346,3.72499 -0.57305,4.61117 -1.382,1.2939 -3.34726,-0.21623 -3.34726,-0.21623 0,0 -0.39554,1.87566 -1.65672,1.68204 -1.26119,-0.19363 -1.26991,-2.23893 -1.26991,-2.23893 0,0 -1.24462,1.09984 -2.92621,0.84168 -1.68159,-0.25816 -1.69032,-2.30345 -1.69032,-2.30345 0,0 -0.43609,1.43911 -1.68114,1.1404 -1.245057,-0.29874 -1.229807,-3.20095 -1.229807,-3.20095 0,0 -0.99429,0.17008 -1.46354,-0.97773 -0.46923,-1.1478 1.801507,-4.02648 1.873897,-5.19871 0.0724,-1.17222 -0.22873,-16.05462 3.5605,-23.21838"
       id="path857"
       inkscape:connector-curvature="0" />
    <path
       inkscape:connector-curvature="0"
       id="path859"
       d="m 120.56451,216.45811 c 0,0 12.75968,19.99015 18.60786,17.65088 5.84818,-2.33928 -1.70128,-22.22309 -1.70128,-22.22309"
       style="fill:none;stroke:#000000;stroke-width:0.56263119;stroke-linecap:butt;stroke-linejoin:miter;stroke-miterlimit:4;stroke-dasharray:0.56263121, 3.37578727;stroke-dashoffset:0;stroke-opacity:1" />
    <path
       sodipodi:nodetypes="czc"
       style="fill:none;stroke:#000000;stroke-width:0.56263119;stroke-linecap:butt;stroke-linejoin:miter;stroke-miterlimit:4;stroke-dasharray:0.56263121, 3.37578727;stroke-dashoffset:0;stroke-opacity:1"
       d="m 84.201537,216.47968 c 0,0 -22.318161,15.17684 -26.752742,10.70382 -4.434591,-4.47302 10.190286,-16.20247 10.190286,-16.20247"
       id="path861"
       inkscape:connector-curvature="0" />
    <path
       style="fill:none;stroke:#000000;stroke-width:0.29772565px;stroke-linecap:butt;stroke-linejoin:miter;stroke-opacity:1"
       d="m 158.41822,82.481557 1.59493,-1.594962 1.86079,1.382299"
       id="path863"
       inkscape:connector-curvature="0"
       sodipodi:nodetypes="ccc" />
    <path
       style="fill:none;stroke:#000000;stroke-width:0.29772565px;stroke-linecap:butt;stroke-linejoin:miter;stroke-opacity:1"
       d="m 193.5073,105.5553 1.43548,1.0633 -1.75447,1.3823"
       id="path865"
       inkscape:connector-curvature="0" />
    <path
       style="fill:none;stroke:#000000;stroke-width:0.29772565px;stroke-linecap:butt;stroke-linejoin:miter;stroke-opacity:1"
       d="m 167.60394,128.09627 -2.9064,2.33715 2.7689,1.53001"
       id="path867"
       inkscape:connector-curvature="0"
       sodipodi:nodetypes="ccc" />
    <path
       style="fill:none;stroke:#000000;stroke-width:0.29772565px;stroke-linecap:butt;stroke-linejoin:miter;stroke-opacity:1"
       d="m 188.07342,143.28871 2.16422,1.19688 -2.31933,1.35571"
       id="path869"
       inkscape:connector-curvature="0"
       sodipodi:nodetypes="ccc" />
    <path
       style="fill:none;stroke:#000000;stroke-width:0.29772565px;stroke-linecap:butt;stroke-linejoin:miter;stroke-opacity:1"
       d="m 165.76555,158.95647 -1.07742,0.62135 1.11262,0.69009"
       id="path871"
       inkscape:connector-curvature="0"
       sodipodi:nodetypes="ccc" />
    <path
       style="fill:none;stroke:#000000;stroke-width:0.29772565px;stroke-linecap:butt;stroke-linejoin:miter;stroke-opacity:1"
       d="m 181.4108,169.79561 0.92848,0.63132 -1.0329,0.71098"
       id="path873"
       inkscape:connector-curvature="0"
       sodipodi:nodetypes="ccc" />
    <path
       style="fill:none;stroke:#000000;stroke-width:0.29772565px;stroke-linecap:butt;stroke-linejoin:miter;stroke-opacity:1"
       d="m 145.76919,194.68078 3.53379,-2.29319"
       id="path875"
       inkscape:connector-curvature="0" />
    <path
       style="fill:none;stroke:#000000;stroke-width:0.29772565px;stroke-linecap:butt;stroke-linejoin:miter;stroke-opacity:1"
       d="m 144.86693,184.38015 3.75935,-3.53378"
       id="path877"
       inkscape:connector-curvature="0" />
    <path
       style="fill:none;stroke:#000000;stroke-width:0.29772565px;stroke-linecap:butt;stroke-linejoin:miter;stroke-opacity:1"
       d="M 134.60391,139.83181 131.634,138.92957"
       id="path879"
       inkscape:connector-curvature="0" />
    <path
       style="fill:none;stroke:#000000;stroke-width:0.29772565px;stroke-linecap:butt;stroke-linejoin:miter;stroke-opacity:1"
       d="m 151.78414,144.88814 1.44736,0.43233 -1.22178,1.39096"
       id="path881"
       inkscape:connector-curvature="0" />
    <path
       style="fill:none;stroke:#000000;stroke-width:0.29772565px;stroke-linecap:butt;stroke-linejoin:miter;stroke-opacity:1"
       d="m 141.52113,159.38046 -0.84588,1.03381 1.39098,0.67669"
       id="path883"
       inkscape:connector-curvature="0"
       sodipodi:nodetypes="ccc" />
    <path
       style="fill:none;stroke:#000000;stroke-width:0.29772565px;stroke-linecap:butt;stroke-linejoin:miter;stroke-opacity:1"
       d="m 159.69417,168.90175 0.87722,0.45191 -0.85063,0.87722"
       id="path885"
       inkscape:connector-curvature="0" />
    <path
       style="opacity:1;fill:#ffffff;fill-opacity:1;stroke:#000000;stroke-width:0.05212641;stroke-linecap:round;stroke-miterlimit:4;stroke-dasharray:none;stroke-dashoffset:0;stroke-opacity:1"
       d="m 105.07025,107.04767 c 0,2.39742 -1.52818,3.55261 -3.4133,3.55261 -1.885097,0 -3.430697,-1.2945 -3.413277,-3.55261 0.0152,-1.962 1.12764,-3.51778 3.413277,-3.55261 1.8849,-0.0287 3.4133,1.59055 3.4133,3.55261 z"
       id="path907"
       inkscape:connector-curvature="0"
       sodipodi:nodetypes="sssss" />
    <path
       sodipodi:nodetypes="szzss"
       inkscape:connector-curvature="0"
       id="path909"
       d="m 70.748845,108.47939 c 0,3.87584 -1.74769,7.15073 -5.5026,7.12415 -3.754922,-0.0266 -4.917791,-2.82299 -4.917791,-6.69883 0,-3.87583 3.409106,-7.12415 6.007675,-7.12415 2.598568,0 4.412716,2.82299 4.412716,6.69883 z"
       style="opacity:1;fill:none;fill-opacity:1;stroke:#000000;stroke-width:0.30000001;stroke-linecap:round;stroke-miterlimit:4;stroke-dasharray:0.30000001, 1.80000009;stroke-dashoffset:0;stroke-opacity:1" />
    <path
       style="opacity:1;fill:#ffffff;fill-opacity:1;stroke:#000000;stroke-width:0.04646904;stroke-linecap:round;stroke-miterlimit:4;stroke-dasharray:none;stroke-dashoffset:0;stroke-opacity:1"
       d="m 68.620659,107.30174 c 0,1.60057 -0.721732,2.95297 -2.272366,2.942 -1.550645,-0.0115 -2.030862,-1.1658 -2.030862,-2.76636 0,-1.60057 1.407827,-2.94201 2.480944,-2.94201 1.073107,0 1.822284,1.16578 1.822284,2.76637 z"
       id="path911"
       inkscape:connector-curvature="0"
       sodipodi:nodetypes="szzss" />
    <path
       sodipodi:nodetypes="ccszc"
       inkscape:connector-curvature="0"
       id="path913"
       d="m 70.506925,124.7568 c 0,0 0.864641,2.25561 3.157858,2.14284 2.293195,-0.11279 2.142826,-0.97744 4.360842,-0.97744 2.218016,0 4.135294,1.69171 6.127751,1.35337 1.992457,-0.33834 4.097699,-2.55637 4.097699,-2.55637"
       style="fill:none;stroke:#000000;stroke-width:1.68789363;stroke-linecap:butt;stroke-linejoin:miter;stroke-miterlimit:4;stroke-dasharray:none;stroke-opacity:1" />
    <path
       inkscape:connector-curvature="0"
       id="path915"
       d="m 75.22802,117.63711 c 0.704448,0.89052 1.24939,1.56838 1.874079,1.59497 0.624701,0.0266 1.927248,-1.16965 1.993695,-1.62155 0.0665,-0.45191 -1.661416,-0.45191 -1.993695,-0.45191 -0.332278,0 -2.126611,0.0532 -1.874079,0.47849 z"
       style="fill:#000000;stroke:#000000;stroke-width:0.29772565px;stroke-linecap:butt;stroke-linejoin:miter;stroke-opacity:1" />
    <circle
       r="6.8583231"
       cy="124.8543"
       cx="114.05199"
       id="circle917"
       style="opacity:1;fill:none;fill-opacity:1;stroke:#000000;stroke-width:0.56263119;stroke-linecap:round;stroke-miterlimit:4;stroke-dasharray:0.56263121, 4.5010497;stroke-dashoffset:0.15000001;stroke-opacity:1" />
    <path
       inkscape:connector-curvature="0"
       id="path919"
       d="m 52.462015,119.94483 c 0,0 4.774387,0.93984 4.661602,6.57887 -0.112785,5.63902 -3.872141,7.85705 -3.872141,7.85705"
       style="fill:none;stroke:#000000;stroke-width:0.56263119;stroke-linecap:round;stroke-linejoin:miter;stroke-miterlimit:4;stroke-dasharray:0.56263121, 4.5010497;stroke-dashoffset:0.15000001;stroke-opacity:1" />
    <path
       style="fill:none;stroke:#000000;stroke-width:0.29772565px;stroke-linecap:butt;stroke-linejoin:miter;stroke-opacity:1"
       d="m 171.25763,163.6118 2.81777,1.72788"
       id="path927"
       inkscape:connector-curvature="0" />
    <path
       style="fill:none;stroke:#000000;stroke-width:0.29772565px;stroke-linecap:butt;stroke-linejoin:miter;stroke-opacity:1"
       d="m 152.0849,165.527 -3.00748,-1.35337"
       id="path931"
       inkscape:connector-curvature="0" />
    <path
       style="fill:none;stroke:#000000;stroke-width:0.29772565px;stroke-linecap:butt;stroke-linejoin:miter;stroke-opacity:1"
       d="m 136.54067,104.7844 -3.00381,3.03043"
       id="path933"
       inkscape:connector-curvature="0" />
    <path
       style="fill:none;stroke:#000000;stroke-width:0.26458332px;stroke-linecap:butt;stroke-linejoin:miter;stroke-opacity:1"
       d="m 61.314824,94.357514 0.909505,-0.106307 -0.708704,0.637836"
       id="path5235"
       inkscape:connector-curvature="0" />
    <path
       style="fill:none;stroke:#000000;stroke-width:0.26458332px;stroke-linecap:butt;stroke-linejoin:miter;stroke-opacity:1"
       d="m 71.34426,83.835845 0.501129,0.233862 0.601355,-0.334086"
       id="path5237"
       inkscape:connector-curvature="0" />
  </g>
</svg>
