<?xml version="1.0" encoding="UTF-8" standalone="no"?>
<svg
   xmlns:dc="http://purl.org/dc/elements/1.1/"
   xmlns:cc="http://creativecommons.org/ns#"
   xmlns:rdf="http://www.w3.org/1999/02/22-rdf-syntax-ns#"
   xmlns:svg="http://www.w3.org/2000/svg"
   xmlns="http://www.w3.org/2000/svg"
   xmlns:sodipodi="http://sodipodi.sourceforge.net/DTD/sodipodi-0.dtd"
   xmlns:inkscape="http://www.inkscape.org/namespaces/inkscape"
   width="538.99738mm"
   height="155.91795mm"
   viewBox="0 0 538.99738 155.91795"
   version="1.1"
   id="svg8"
   inkscape:version="1.0.1 (3bc2e813f5, 2020-09-07)"
   sodipodi:docname="real_dog_balloons_text_clean.svg">
  <defs
     id="defs2">
    <rect
       x="-1810.2278"
       y="-1366.2991"
       width="55.31002"
       height="278.39624"
       id="rect973" />
  </defs>
  <sodipodi:namedview
     id="base"
     pagecolor="#ffffff"
     bordercolor="#666666"
     borderopacity="1.0"
     inkscape:pageopacity="0.0"
     inkscape:pageshadow="2"
     inkscape:zoom="0.55977436"
     inkscape:cx="1111.6832"
     inkscape:cy="153.08963"
     inkscape:document-units="mm"
     inkscape:current-layer="layer1"
     inkscape:document-rotation="0"
     showgrid="false"
     inkscape:window-width="1920"
     inkscape:window-height="1001"
     inkscape:window-x="-9"
     inkscape:window-y="-9"
     inkscape:window-maximized="1"
     inkscape:snap-global="false"
     fit-margin-top="0"
     fit-margin-left="0"
     fit-margin-right="0"
     fit-margin-bottom="0" />
  <metadata
     id="metadata5">
    <rdf:RDF>
      <cc:Work
         rdf:about="">
        <dc:format>image/svg+xml</dc:format>
        <dc:type
           rdf:resource="http://purl.org/dc/dcmitype/StillImage" />
        <dc:title />
      </cc:Work>
    </rdf:RDF>
  </metadata>
  <g
     inkscape:label="Layer 1"
     inkscape:groupmode="layer"
     id="layer1"
     transform="translate(428.66231,1538.2619)">
    <g
       id="g1030"
       transform="matrix(0.20222215,0,0,0.20222215,-183.60574,-1233.3186)">
      <path
         id="path937"
         style="fill:#000000;fill-opacity:1;stroke-width:0.277137;stroke-linecap:round"
         d="M 913.42578 0.875 C 909.3653 0.9973651 905.30248 1.166131 901.25977 1.5800781 C 896.98507 2.036597 892.72142 2.650047 888.52344 3.5859375 C 885.65293 4.2323096 882.8204 5.0392805 880.02344 5.9511719 C 879.06938 6.3160507 878.17043 6.809756 877.2168 7.1757812 C 873.21823 8.8349328 869.14119 10.292275 865.07812 11.783203 C 861.44815 13.105908 857.812 14.422468 854.28125 15.996094 C 851.85189 17.063292 849.44642 18.185601 847.05078 19.326172 C 843.8819 20.844997 840.7754 22.518208 837.89648 24.541016 C 836.2999 25.649027 834.75163 26.830693 833.30273 28.126953 C 831.73766 29.590519 830.66638 31.591309 830.375 33.71875 C 830.11724 35.648847 830.51081 37.644939 831.41211 39.365234 C 832.5076 41.465695 834.38634 43.159972 836.61719 43.972656 C 838.48376 44.640658 840.55916 44.660855 842.45703 44.107422 C 843.6926 43.753702 844.84172 43.141095 845.88086 42.390625 C 846.53372 41.919349 847.18416 41.444804 847.83789 40.974609 C 849.9115 44.437219 851.88825 47.958421 853.93359 51.4375 C 859.26117 60.659594 864.62266 69.861795 869.90234 79.111328 C 874.43785 87.342273 878.20934 95.975261 881.54688 104.75391 C 884.01814 111.29711 886.014 118.01219 887.62695 124.81641 C 890.12727 135.2182 891.92422 145.77967 893.27734 156.38867 C 893.56421 158.59641 893.82305 160.8071 894.08789 163.01758 C 892.8771 164.15552 892.03263 165.66989 891.63867 167.28125 C 891.01744 169.78007 891.53206 172.53062 893 174.64453 C 893.69969 175.66712 894.60789 176.54524 895.64844 177.21875 C 896.29826 183.86051 896.84972 190.5108 897.29102 197.16992 C 897.86934 205.85983 898.38146 214.55764 898.63867 223.26367 C 898.82896 229.22211 898.66174 235.18596 898.29883 241.13477 C 897.82009 249.05502 897.35345 256.97658 896.65234 264.88086 C 895.83084 274.0065 894.38721 283.0725 892.48438 292.0332 C 890.09972 302.96321 886.91747 313.7072 883.3125 324.29297 C 880.14081 333.41486 876.87828 342.50408 873.57227 351.57812 C 873.00894 353.19532 872.35061 354.77604 871.61133 356.32031 C 871.04959 357.39584 870.96879 358.61865 870.95312 359.80859 C 870.82027 362.19834 871.10105 364.58684 871.40625 366.95312 C 871.97777 370.73796 874.58941 374.18029 878.16992 375.5957 C 880.24446 376.44622 882.54055 376.84531 884.77539 376.58789 C 886.74021 376.32688 888.46528 375.24211 890.04297 374.10742 C 891.37416 373.07263 892.56639 371.84535 893.57227 370.49414 C 894.20985 369.35051 894.31422 368.00952 894.77734 366.79688 C 896.2374 362.46243 897.80418 358.16541 899.31836 353.84961 C 902.09402 345.97773 904.94245 338.13016 907.62695 330.22656 C 910.66134 321.0916 913.37157 311.84568 915.60938 302.48242 C 917.64078 293.84578 919.21024 285.09722 920.30664 276.29297 C 921.32125 268.09787 921.70121 259.84201 922.01953 251.5957 C 922.50969 238.59772 922.42086 225.57919 921.73828 212.58984 C 921.0444 199.40988 920.02852 186.24447 918.60156 173.12305 C 918.43118 171.5844 918.2502 170.04754 918.07031 168.50977 C 919.14364 167.75916 920.21166 166.99964 921.29102 166.25781 C 922.6324 165.42442 924.14868 164.95172 925.62305 164.41602 C 929.2656 163.12977 932.95194 161.9494 936.50781 160.43164 C 939.47298 159.19889 942.41291 157.90027 945.44531 156.83789 C 949.25833 155.51106 953.233 154.71532 957.2207 154.13086 C 960.26507 153.68733 963.33221 153.40461 966.40625 153.28125 C 969.23781 153.16775 972.07414 153.18528 974.9043 153.32812 C 977.99502 153.48511 981.0776 153.79601 984.14062 154.23633 C 987.33668 154.69728 990.51478 155.28136 993.68164 155.91016 C 998.46038 156.8689 1003.2152 157.9399 1007.9434 159.12305 C 1009.2261 159.44795 1010.5115 159.76689 1011.7695 160.17969 C 1015.7452 161.45202 1019.5327 163.25757 1023.1562 165.31836 C 1026.164 167.03048 1029.0703 168.91643 1031.8848 170.92969 C 1034.2468 172.62606 1036.5466 174.41209 1038.75 176.31055 C 1039.893 177.30445 1040.9939 178.34674 1042.0566 179.42578 C 1043.9141 181.29328 1045.6854 183.24355 1047.4512 185.19727 C 1050.1871 188.26671 1052.7523 191.50372 1054.9062 195.01172 C 1056.3184 197.3083 1057.548 199.71466 1058.6289 202.18359 C 1059.8039 204.79835 1060.8787 207.46086 1061.7949 210.17773 C 1062.8615 213.46195 1063.7076 216.81277 1064.4844 220.17578 C 1065.1281 223.02717 1065.6604 225.90605 1065.9668 228.81445 C 1066.2949 231.77904 1066.4923 234.7556 1066.7266 237.72852 C 1066.7507 238.04425 1066.7746 238.36192 1066.7988 238.67773 C 1066.9272 238.84076 1066.7504 239.12736 1066.5449 239.06836 C 1066.3698 238.94859 1066.2828 238.7293 1066.2949 238.52148 C 1066.1072 238.41081 1065.8551 238.63879 1065.9336 238.83789 C 1065.8828 240.22518 1065.6655 241.5991 1065.5254 242.97852 C 1065.0965 246.66177 1064.6321 250.35135 1063.7441 253.95703 C 1063.0064 257.07753 1062.1227 260.16344 1061.1387 263.21484 C 1059.744 267.51749 1058.1008 271.73926 1056.2129 275.84961 C 1055.5753 277.24722 1054.9021 278.62847 1054.1836 279.98633 C 1053.318 281.61995 1052.3853 283.21742 1051.4121 284.78906 C 1049.5386 287.85606 1047.5454 290.84768 1045.5352 293.82617 C 1042.3973 298.43034 1039.0665 302.90248 1035.5996 307.26367 C 1032.7553 310.84207 1029.8206 314.34799 1026.8184 317.79492 C 1024.7419 320.18039 1022.6291 322.53243 1020.4746 324.84766 C 1018.3881 327.08669 1016.2595 329.28857 1014.0762 331.43359 C 1010.2625 335.16936 1006.256 338.70733 1002.0801 342.0332 C 996.35142 346.61421 990.32812 350.82406 984.08398 354.67188 C 981.51932 356.24328 978.90923 357.75024 976.19531 359.05078 C 974.25042 359.99042 972.25922 360.82964 970.25391 361.63086 C 968.08128 362.48787 965.88712 363.28904 963.66797 364.01758 C 959.44269 365.39608 955.11015 366.46114 950.70898 367.09375 C 948.4087 367.43593 946.08862 367.63011 943.76758 367.76172 C 940.55332 367.94913 937.33387 368.04854 934.11719 368.18359 C 931.74446 368.28165 929.37132 368.36472 927.00391 368.55664 C 925.49022 368.68971 924.01167 369.08247 922.57812 369.57422 C 921.29702 370.00811 920.02959 370.4861 918.78906 371.02539 C 917.50862 371.59571 916.29533 372.30954 915.16016 373.13086 C 913.70782 374.14249 912.28327 375.19897 910.95898 376.375 C 909.62156 377.6319 908.71377 379.3057 908.25586 381.07422 C 907.95979 382.23436 907.85266 383.46131 908.07031 384.64453 C 908.1795 385.19728 908.41375 385.71829 908.72266 386.1875 C 909.11452 386.82562 909.55793 387.43599 909.85156 388.12891 C 910.41728 389.32911 910.94493 390.55548 911.66602 391.67383 C 912.79315 393.45259 914.31061 394.98025 916.08203 396.11914 C 917.04712 396.75082 918.08912 397.25203 919.14258 397.7168 C 920.8525 398.48613 922.59764 399.18141 924.36523 399.80664 C 926.0663 400.39902 927.8344 400.79897 929.62695 400.98047 C 932.53305 401.33011 935.45358 401.55492 938.375 401.72852 C 941.14482 401.88795 943.91881 401.97726 946.69336 401.94336 C 949.19241 401.90491 951.68983 401.72601 954.16797 401.40039 C 959.27138 400.76012 964.30662 399.63677 969.23633 398.17773 C 971.43926 397.52072 973.62386 396.79874 975.78516 396.01562 C 980.09787 394.44581 984.32683 392.64544 988.43555 390.59961 C 992.454 388.6074 996.34658 386.36549 1000.1133 383.93164 C 1002.9003 382.14363 1005.6393 380.28339 1008.3574 378.39258 C 1013.4035 374.86218 1018.3291 371.15407 1023.0781 367.23242 C 1027.4659 363.61069 1031.7129 359.81758 1035.7773 355.83594 C 1038.7814 352.89566 1041.6805 349.84799 1044.4805 346.71289 C 1046.7057 344.22676 1048.8779 341.69518 1051.0332 339.14844 C 1053.5347 336.18523 1056.0011 333.19054 1058.416 330.15625 C 1062.2387 325.35825 1065.9292 320.45329 1069.4395 315.42188 C 1072.1737 311.50161 1074.8011 307.50861 1077.3086 303.43945 C 1080.5256 298.19075 1083.4974 292.78078 1085.9863 287.14648 C 1087.4836 283.76123 1088.8126 280.3016 1089.9629 276.7832 C 1091.1405 273.19411 1092.1622 269.55445 1093.0488 265.88281 C 1094.3382 260.5229 1095.3282 255.09041 1096.0039 249.61914 C 1096.3695 246.658 1096.5981 243.67475 1096.5547 240.68945 C 1096.5345 237.53853 1096.4885 234.38729 1096.373 231.23828 C 1096.2354 227.83904 1095.9729 224.4403 1095.4414 221.07812 C 1094.8783 217.50279 1094.0943 213.96585 1093.1875 210.46289 C 1091.8792 205.4914 1090.2277 200.61254 1088.3203 195.83984 C 1087.3224 193.36182 1086.2559 190.90954 1085.0293 188.53516 C 1083.8318 186.1957 1082.4921 183.93074 1081.0898 181.70898 C 1079.6495 179.41324 1078.1393 177.16288 1076.5703 174.95312 C 1074.6439 172.23197 1072.5974 169.5942 1070.4395 167.05273 C 1067.6398 163.75522 1064.6556 160.61528 1061.5059 157.65039 C 1058.3192 154.66066 1054.9555 151.85633 1051.3887 149.33008 C 1048.7643 147.46235 1046.0243 145.76443 1043.2637 144.10742 C 1039.1663 141.66769 1034.9364 139.44128 1030.5664 137.5293 C 1027.0685 135.99641 1023.4796 134.66694 1019.8145 133.5918 C 1017.151 132.80082 1014.4459 132.16347 1011.7266 131.59766 C 1007.4498 130.68729 1003.1519 129.8748 998.83984 129.15039 C 997.56384 128.93498 996.28479 128.7408 995.00391 128.55664 C 995.26359 128.30277 995.53097 128.05625 995.78906 127.80078 C 998.44414 125.16103 1001.0531 122.47074 1003.4727 119.61133 C 1004.6143 118.25178 1005.7149 116.85941 1006.8008 115.45508 C 1009.0399 112.53788 1011.1352 109.50587 1013.0176 106.3457 C 1015.4344 102.30337 1017.5009 98.040974 1019.0176 93.578125 C 1019.9138 90.933785 1020.6373 88.227752 1021.1191 85.476562 C 1021.7421 81.914446 1021.9515 78.280724 1021.7637 74.669922 C 1021.6061 71.581751 1021.2166 68.502459 1020.5391 65.484375 C 1020.1845 63.896686 1019.7058 62.339198 1019.1973 60.794922 C 1018.4621 58.598847 1017.6586 56.423526 1016.7266 54.302734 C 1015.0542 50.484424 1013.0207 46.823904 1010.6387 43.402344 C 1008.1986 39.892047 1005.3909 36.633848 1002.2441 33.738281 C 1000.4284 32.051309 998.5362 30.450137 996.61523 28.884766 C 992.47987 25.534362 988.15105 22.416918 983.62109 19.621094 C 981.07698 18.044793 978.47422 16.565108 975.82031 15.181641 C 973.1653 13.798174 970.45693 12.512148 967.68359 11.382812 C 965.02226 10.30201 962.3116 9.3463874 959.60352 8.390625 C 957.42093 7.6179899 955.22227 6.8907944 953.00781 6.2148438 C 948.49914 4.8423827 943.92692 3.6720208 939.29688 2.7871094 C 936.33455 2.2226707 933.34873 1.7769 930.34766 1.4785156 C 928.17757 1.2625233 925.99951 1.1285451 923.82031 1.0488281 C 920.37036 0.90964833 916.91724 0.87943296 913.46484 0.875 L 913.42773 0.875 L 913.42578 0.875 z M 916.50195 22.941406 C 918.00055 22.914866 919.4995 22.916131 920.99805 22.943359 C 925.56335 23.028121 930.13158 23.39224 934.625 24.222656 C 937.28614 24.710512 939.92483 25.320753 942.53516 26.03125 C 946.29042 27.059851 949.98117 28.312675 953.60156 29.744141 C 956.64099 30.939665 959.64003 32.239867 962.58594 33.650391 C 965.56832 35.085677 968.48694 36.661443 971.27148 38.453125 C 974.19094 40.320244 977.00141 42.356423 979.71289 44.513672 C 982.22393 46.523792 984.63819 48.653517 986.97852 50.859375 C 988.0738 51.888969 989.15524 52.935321 990.14258 54.070312 C 991.63896 55.801844 992.97505 57.669002 994.18359 59.611328 C 995.2614 61.3664 996.1977 63.208151 996.9668 65.119141 C 998.06241 67.844497 998.83324 70.707116 999.1875 73.625 C 999.47258 75.946345 999.48249 78.292344 999.35352 80.625 C 999.40629 80.901525 998.95277 80.768735 999.06445 80.556641 C 999.17779 80.319248 999.13701 80.046871 999.17383 79.792969 C 999.18689 79.575753 999.19209 79.356736 999.23438 79.142578 C 999.23705 78.918026 998.83787 78.876321 998.83008 79.119141 C 998.71605 79.596678 998.74098 80.09038 998.69531 80.576172 C 998.64654 81.502585 998.58212 82.441761 998.28711 83.328125 C 997.93616 84.533127 997.50907 85.716451 997.00781 86.867188 C 996.34867 88.39228 995.58786 89.870037 994.77148 91.316406 C 992.97408 94.469849 990.86192 97.434047 988.60547 100.27344 C 987.24711 101.97531 985.88733 103.68326 984.35742 105.23633 C 982.91101 106.72557 981.40446 108.15547 979.90039 109.58594 C 978.5241 110.88602 977.11077 112.15516 975.55859 113.24414 C 974.51477 113.98559 973.40209 114.62389 972.26953 115.21875 C 970.08547 116.38936 967.83565 117.43241 965.66016 118.61914 C 964.60822 119.21599 963.56728 119.83853 962.46289 120.33594 C 960.12179 121.45213 957.70485 122.40632 955.4043 123.60742 C 954.49565 124.0829 953.61945 124.62005 952.76953 125.19336 C 951.72498 125.87122 950.63193 126.47419 949.49219 126.97656 C 948.79768 127.31171 948.07117 127.6851 947.62305 128.33789 C 947.59866 128.37511 947.58976 128.41847 947.56836 128.45703 C 947.34482 128.5325 947.1266 128.62429 946.92383 128.74805 C 946.28645 129.10918 945.79947 129.66863 945.25 130.14258 C 944.54761 130.78314 943.79944 131.39471 942.92383 131.7832 C 941.13061 132.65596 939.22237 133.25228 937.35742 133.94727 C 935.22578 134.71103 933.11576 135.54235 931.06055 136.49414 C 928.34919 137.71741 925.67711 139.03288 923.09961 140.51953 C 921.74064 141.31082 920.48387 142.26489 919.29297 143.28906 C 917.86194 144.48879 916.45945 145.72227 915.04492 146.94141 C 913.64063 138.86082 911.74982 130.87294 909.59766 122.96094 C 907.08745 113.50527 904.19656 104.12964 900.40039 95.103516 C 898.32093 90.159079 896.04357 85.299491 893.68164 80.484375 C 890.78897 74.554827 887.5183 68.81455 883.95117 63.265625 C 878.99805 55.55242 873.81078 47.990516 868.38281 40.603516 C 866.59458 38.15092 864.81331 35.692059 863.04297 33.226562 C 865.34267 32.274454 867.65905 31.361902 869.98438 30.474609 C 872.11748 29.673389 874.26649 28.904164 876.4707 28.320312 C 878.99122 27.665762 881.57148 27.28558 884.15234 26.962891 C 887.06398 26.584025 889.97957 26.200276 892.85547 25.599609 C 896.23612 24.931455 899.63223 24.335109 903.05273 23.910156 C 907.51334 23.343176 912.00617 23.021028 916.50195 22.941406 z "
         transform="matrix(1.3083796,0,0,1.3083796,-1211.8186,-1507.9619)" />
      <path
         id="path943"
         style="fill:#000000;fill-opacity:1;stroke-width:0.229291;stroke-linecap:round"
         d="M 1163.0117 171.91406 C 1162.824 171.92171 1162.6369 171.92434 1162.4492 171.92969 C 1158.7417 172.05702 1155.0198 172.46822 1151.4453 173.49414 C 1147.5153 174.62997 1143.5616 175.7707 1139.8535 177.52539 C 1136.8387 178.98643 1134.1743 181.04001 1131.3711 182.85156 C 1129.7507 183.90829 1128.077 184.88929 1126.3203 185.70312 C 1124.968 186.35676 1123.6316 187.11563 1122.5918 188.21875 C 1120.9102 189.94661 1119.885 192.32704 1119.8984 194.74805 C 1119.8742 198.0357 1121.5187 201.31308 1124.2344 203.18555 C 1126.5161 204.76689 1129.4944 205.2105 1132.1699 204.53516 C 1133.872 204.10409 1135.4307 203.26704 1137.082 202.68945 C 1138.6322 202.12142 1140.2575 201.81272 1141.8672 201.4668 C 1144.2409 200.9872 1146.6265 200.56441 1149.002 200.09375 C 1153.3096 199.26945 1157.6352 198.40703 1162.0293 198.23438 C 1165.375 198.09382 1168.7408 198.33751 1172.0176 199.03906 C 1174.0178 199.45744 1175.9998 199.968 1177.9531 200.56836 C 1179.6833 201.10941 1181.3892 201.76406 1182.9473 202.70117 C 1185.141 203.98734 1187.1169 205.60304 1189.0625 207.23047 C 1192.0924 209.80579 1194.878 212.66358 1197.4102 215.72852 C 1199.4714 218.20601 1201.4066 220.78779 1203.2012 223.46484 C 1205.3801 226.76014 1207.2315 230.26736 1208.7715 233.9043 C 1209.9856 236.70326 1211.1182 239.55102 1211.9023 242.50391 C 1212.8887 246.31587 1213.1978 250.27169 1213.166 254.19922 C 1213.1645 254.71696 1213.1617 255.23421 1213.1602 255.75195 C 1213.4018 255.90909 1212.8609 256.123 1212.9668 255.81445 C 1212.9653 254.84226 1213.0959 253.87312 1213.0488 252.90039 C 1213.1662 252.72193 1212.8747 252.42203 1212.7363 252.63672 C 1212.6226 252.85149 1212.7581 253.09324 1212.7266 253.32031 C 1212.7791 255.18451 1212.6097 257.03801 1212.377 258.88477 C 1210.8227 258.23418 1209.2661 257.58703 1207.709 256.94336 C 1206.0375 256.26221 1204.3587 255.59425 1202.6348 255.05664 C 1198.6064 253.87938 1194.4147 253.39695 1190.2383 253.12891 C 1183.6883 252.67736 1177.1193 252.63693 1170.5566 252.64648 C 1170.0679 252.66559 1169.5786 252.68478 1169.0898 252.70312 C 1165.485 252.85163 1161.8783 253.03296 1158.2871 253.38477 C 1153.5051 254.34924 1148.7998 255.69301 1144.2363 257.41797 C 1140.4234 258.86373 1136.7046 260.56905 1133.1484 262.56641 C 1130.4451 264.10442 1127.8705 265.87476 1125.5117 267.9043 C 1123.1306 269.90907 1120.8589 272.0416 1118.6758 274.25977 C 1115.0321 277.98667 1111.6704 281.98902 1108.6016 286.20117 C 1106.5555 289.04798 1104.7615 292.08096 1103.334 295.28516 C 1101.5519 299.19771 1100.1669 303.28492 1099.0703 307.43945 C 1098.2183 310.69042 1097.5445 313.9938 1097.2051 317.33984 C 1096.8168 321.47022 1097.0096 325.64433 1097.6445 329.74023 C 1098.4769 335.07951 1100.0127 340.29226 1101.9766 345.32031 C 1103.0412 348.07846 1104.2571 350.78029 1105.6875 353.36914 C 1106.8559 355.49819 1108.1723 357.54617 1109.6172 359.49805 C 1112.7476 363.78908 1116.376 367.69305 1120.209 371.36133 C 1124.7787 375.72948 1129.7422 379.69544 1135.0703 383.10156 C 1139.5465 385.98536 1144.2129 388.56742 1149.002 390.89258 C 1154.1453 393.35613 1159.5244 395.33064 1165.0469 396.75586 C 1168.8381 397.75446 1172.7096 398.51206 1176.6309 398.72461 C 1179.4121 398.9024 1182.1998 398.97159 1184.9863 398.99023 C 1188.9673 398.96654 1192.9469 398.59783 1196.8633 397.88281 C 1197.982 397.67587 1199.0801 397.35575 1200.125 396.9043 C 1202.2802 395.98241 1204.212 394.58879 1205.8945 392.9668 C 1206.7973 392.08635 1207.6563 391.15398 1208.3828 390.12109 C 1209.4969 388.51223 1210.2383 386.66157 1210.6445 384.75195 C 1211.0549 382.75613 1211.0209 380.64327 1210.3711 378.70117 C 1209.7196 376.72636 1208.5619 374.91475 1207.0254 373.51172 C 1206.437 372.99688 1205.7075 372.67383 1205.1387 372.13477 C 1204.5535 371.61382 1203.986 371.06297 1203.3125 370.6543 C 1201.8474 369.66491 1200.1534 369.05933 1198.4258 368.72266 C 1196.4022 368.28815 1194.3226 368.08305 1192.2539 368.20312 C 1190.7018 368.30936 1189.1662 368.57393 1187.623 368.76172 C 1185.1114 369.09862 1182.5776 369.28127 1180.043 369.27148 C 1178.9466 369.27156 1177.8554 369.12976 1176.7812 368.91797 C 1175.3293 368.62983 1173.8965 368.25265 1172.4648 367.87891 C 1167.0201 366.40456 1161.7758 364.24637 1156.7695 361.6582 C 1151.5607 358.96579 1146.5838 355.79183 1142.1016 352.00195 C 1138.1495 348.65636 1134.5519 344.87359 1131.5273 340.66602 C 1130.0946 338.69931 1128.9053 336.56282 1127.9199 334.33984 C 1127.061 332.39553 1126.3551 330.3855 1125.7227 328.35742 C 1125.2804 326.88774 1124.8656 325.39816 1124.7344 323.86328 C 1124.6784 323.29854 1124.6536 322.73133 1124.6445 322.16406 C 1124.5908 321.94769 1124.196 322.00088 1124.2324 322.23438 C 1124.2087 323.24073 1124.2504 324.24605 1124.2773 325.25195 C 1124.409 325.41223 1124.2296 325.7054 1124.0254 325.63867 C 1123.7947 325.28365 1123.9516 324.84686 1123.9023 324.45508 C 1123.8728 321.90307 1124.1832 319.35214 1124.7852 316.87305 C 1125.6922 312.69062 1126.9112 308.54911 1128.7832 304.68945 C 1130.0202 302.2209 1131.716 300.02706 1133.3652 297.82617 C 1136.4202 293.84858 1139.9098 290.18475 1143.8809 287.11133 C 1147.7741 284.11128 1152.1652 281.78528 1156.7695 280.08203 C 1159.5789 279.04013 1162.467 278.23245 1165.3633 277.47266 C 1167.507 276.92626 1169.6606 276.40448 1171.8477 276.06055 C 1176.4409 275.30985 1181.1214 275.18003 1185.7617 275.4668 C 1188.485 275.62638 1191.1904 275.97207 1193.9023 276.25586 C 1196.8575 276.5787 1199.815 276.89344 1202.7578 277.31641 C 1204.2984 277.54837 1205.8154 277.9161 1207.3203 278.31445 C 1207.9738 278.49181 1208.6258 278.67578 1209.2754 278.86719 C 1208.2489 285.14794 1207.2461 291.4347 1206.4395 297.74805 C 1205.8397 302.40541 1205.3375 307.07364 1204.8906 311.74805 C 1204.2131 318.65361 1203.6085 325.57943 1203.5938 332.52344 C 1203.5754 338.87343 1204.0255 345.22515 1204.9785 351.50391 C 1205.6834 356.15928 1206.5504 360.7996 1207.832 365.33398 C 1208.6757 368.36934 1209.8174 371.33609 1211.3926 374.07031 C 1213.5234 377.7486 1216.4258 380.95274 1219.7598 383.57812 C 1221.2703 384.76035 1222.8589 385.84892 1224.5352 386.7832 C 1226.4276 387.82992 1228.4526 388.62605 1230.5371 389.19727 C 1235.0366 390.47492 1239.7645 390.84225 1244.4219 390.5293 C 1248.8276 390.24512 1253.2131 389.4241 1257.3691 387.91797 C 1260.5618 386.77809 1263.72 385.48738 1266.6406 383.75195 C 1267.8803 383.0131 1269.0913 382.22244 1270.2383 381.3457 C 1271.205 380.6057 1272.0909 379.76126 1272.873 378.82812 C 1273.8834 377.64552 1274.7943 376.36782 1275.4883 374.97266 C 1276.1949 373.5308 1276.6282 371.95458 1276.752 370.35352 C 1276.8952 369.38866 1277.3048 368.47531 1277.3398 367.49219 C 1277.4921 365.6616 1277.0127 363.82436 1276.1855 362.19922 C 1275.4087 360.65043 1274.3808 359.22868 1273.168 357.99219 C 1272.6805 357.51702 1272.1415 357.06255 1271.498 356.81836 C 1271.0761 356.68759 1270.6172 356.65193 1270.2383 356.4043 C 1268.703 355.60285 1266.9209 355.38918 1265.2129 355.55664 C 1263.4678 355.75589 1261.7215 355.96346 1259.9883 356.25 C 1258.6481 356.48747 1257.3248 356.85884 1256.0957 357.45117 C 1253.5142 358.59618 1251.1119 360.14505 1248.4121 361.01758 C 1246.0542 361.76996 1243.5754 362.25052 1241.0918 362.11523 C 1240.1424 362.04874 1239.1849 361.91217 1238.2949 361.5625 C 1237.5174 361.18455 1237.0205 360.44091 1236.5312 359.75977 C 1235.5136 358.27809 1234.9106 356.54653 1234.6094 354.7832 C 1234.2828 353.07613 1234.0299 351.35634 1233.7539 349.64062 C 1233.0235 344.97868 1232.4627 340.28346 1232.2676 335.56641 C 1232.2722 334.57946 1232.2938 333.59226 1232.3125 332.60547 C 1232.0124 332.21957 1232.1323 331.70508 1232.1582 331.25781 C 1232.5544 325.0402 1233.0581 318.82853 1233.6953 312.63086 C 1234.5003 304.88907 1235.4123 297.15557 1236.707 289.47852 C 1237.9309 282.05995 1239.2614 274.65664 1240.3398 267.21484 C 1241.1417 261.6021 1241.7055 255.93759 1241.6172 250.26172 C 1241.5513 245.42421 1240.8478 240.61047 1239.7227 235.91016 C 1238.6272 231.2401 1237.1261 226.66363 1235.1953 222.27148 C 1233.8187 219.14861 1232.2385 216.11737 1230.5332 213.16211 C 1229.1043 210.70472 1227.598 208.29041 1225.9766 205.95508 C 1223.4607 202.34168 1220.6603 198.92813 1217.6133 195.75 C 1213.6304 191.55473 1209.3169 187.65899 1204.6113 184.28711 C 1201.6646 182.17572 1198.602 180.22021 1195.4121 178.49609 C 1192.0257 176.70281 1188.4058 175.33633 1184.6562 174.5332 C 1181.0736 173.71265 1177.4577 173.03151 1173.8145 172.54297 C 1170.2335 172.09157 1166.6209 171.87982 1163.0117 171.91406 z M 1232.0371 333.97461 L 1232.0488 333.97461 C 1232.1396 334.73899 1232.1887 335.52199 1232.0312 336.28125 C 1231.9022 335.5171 1232.0161 334.74251 1232.0371 333.97461 z "
         transform="matrix(1.3083796,0,0,1.3083796,-1211.8186,-1507.9619)" />
      <path
         style="fill:#000000;fill-opacity:1;stroke-width:0.350928;stroke-linecap:round"
         id="path947"
         d="m 477.48828,-1507.0512 c -6.15469,0.3349 -11.87714,5.3385 -14.36692,12.1871 -2.09974,5.8145 -2.05433,12.61 -0.26534,18.5327 0.3294,1.1423 0.77585,2.2278 1.18304,3.3269 0.29383,1.4561 -0.52332,2.8201 -0.36278,4.2799 0.36405,6.0758 1.29675,12.0759 1.69677,18.1479 0.8541,10.6052 1.67664,21.2149 2.34985,31.8399 1.38277,21.1472 2.34238,42.3351 2.91381,63.5382 1.21089,42.4394 1.36668,84.916 2.8642,127.3443 0.37654,10.5945 0.84256,21.1838 1.27531,31.775 0.93606,22.2993 1.75005,44.607 2.30451,66.9258 0.50229,20.8089 1.12463,41.6149 2.02571,62.4041 0.43607,10.132 0.95721,20.2582 1.54394,30.3787 0.44394,8.7132 1.20939,17.3966 1.64509,26.1106 0.20861,3.5631 0.40806,7.1432 0.99076,10.64975 0.0812,0.63987 0.28505,1.23904 0.60668,1.75448 0.54392,0.90985 1.18519,1.72506 1.7592,2.60575 2.13437,2.99545 4.68077,5.49782 7.30701,7.81443 1.75305,1.82456 3.92457,3.02878 6.20246,3.43486 3.80604,0.77397 7.75128,-0.15801 11.23209,-2.10929 3.2769,-1.87815 6.23129,-4.88893 7.86334,-8.89868 1.68862,-4.02806 2.55655,-8.5026 2.95393,-12.9827 0.31895,-4.2348 -0.0312,-8.5343 -0.98727,-12.6208 -0.87713,-4.3009 -1.61406,-8.6709 -1.77068,-13.1112 -0.29687,-5.4194 -0.44754,-10.8493 -0.7564,-16.268 -1.00704,-21.0378 -2.08045,-42.0763 -2.55032,-63.1452 -0.85838,-30.5032 -1.67125,-61.0117 -3.06283,-91.4873 -1.09798,-25.6487 -2.1209,-51.3069 -2.56055,-76.9871 -0.84358,-39.9764 -1.80723,-79.9796 -4.62728,-119.834 -1.84378,-25.9343 -4.37145,-51.8287 -8.46887,-77.3865 -1.11489,-6.4112 -2.74451,-12.7984 -5.64455,-18.3617 -2.04835,-4.0056 -5.06553,-7.417 -8.75806,-8.972 -1.45564,-0.6101 -2.99575,-0.9309 -4.53585,-0.8859 z" />
      <path
         style="fill:#000000;fill-opacity:1;stroke-width:0.331842;stroke-linecap:round"
         id="path949"
         d="m 565.78711,-1507.9568 c -3.72516,0.4058 -7.34038,2.4173 -9.9668,5.69 -2.08496,2.9815 -3.66149,6.5014 -4.54687,10.2758 -0.46504,5.2741 -0.41886,10.5859 -0.55859,15.8811 -0.19207,11.2319 -0.36431,22.4655 -0.32653,33.7004 0.0215,11.0808 0.073,22.1615 0.12784,33.2422 0.12701,22.9937 0.27494,45.9871 0.41375,68.9805 0.1842,28.6144 0.35683,57.2289 0.55466,85.8432 0.0625,9.7065 0.14715,19.4128 0.26195,29.1186 0.24124,20.5965 0.5378,41.192 0.79137,61.7882 0.1204,9.538 0.24394,19.0759 0.32474,28.6146 0.11296,15.2298 0.1674,30.4603 0.22044,45.6907 0.0177,6.9478 -0.12888,13.8939 -0.215,20.8403 -0.24868,17.8751 -0.50563,35.7499 -0.73178,53.6252 -0.005,2.9014 -0.0331,5.8216 0.33316,8.6965 0.32811,2.3323 1.1083,4.595 2.37809,6.39606 1.18155,1.7985 2.52611,3.43902 4.00286,4.87406 2.41482,2.27531 5.29628,3.70126 8.24169,4.57472 2.15136,0.63827 4.38906,0.94261 6.59637,0.62841 1.9171,-0.25187 3.78307,-0.97084 5.49956,-2.03878 2.04944,-1.25114 3.90309,-2.9154 5.74363,-4.56875 0.90564,-0.85518 1.68136,-1.89113 2.5402,-2.81232 0.95576,-1.06656 1.86264,-2.2157 2.57113,-3.5466 0.83712,-1.449 1.53522,-3.0079 2.21093,-4.5753 -0.22845,-0.3206 0.46063,-0.5758 0.326,-0.1138 -0.0781,0.5001 -0.25774,0.9637 -0.43343,1.4214 -0.0825,0.3785 0.4757,0.3554 0.41429,-0.012 0.30018,-1.2653 0.60433,-2.5375 0.73342,-3.8503 0.24094,-2.1093 0.31938,-4.2393 0.43407,-6.3627 0.17436,-3.4812 0.17654,-6.9802 -0.0971,-10.4541 -0.18935,-2.4494 -0.4205,-4.8941 -0.5774,-7.3473 -0.14127,-2.0594 -0.227,-4.1236 -0.2877,-6.1886 -0.13684,-3.2299 -0.42624,-6.4513 -0.43677,-9.6884 -0.0397,-4.9795 0.002,-9.9591 0.0143,-14.9386 0.0567,-14.2975 0.12515,-28.5951 0.089,-42.8929 -0.0144,-10.0359 -0.0646,-20.0717 -0.12908,-30.1073 -0.0888,-12.393 -0.26079,-24.785 -0.40384,-37.1772 -0.41354,-33.5828 -0.8521,-67.1649 -1.28385,-100.7473 -0.2435,-18.7452 -0.4837,-37.4907 -0.73507,-56.236 -0.25748,-18.3051 -0.53715,-36.6103 -0.95433,-54.9113 -0.38943,-16.6933 -1.04304,-33.3762 -1.84929,-50.0466 -0.57381,-11.7886 -1.26991,-23.5694 -2.19853,-35.3245 -0.50239,-6.5037 -1.03948,-13.0036 -1.61688,-19.4979 -0.45872,-4.0416 -2.13179,-7.8078 -4.49942,-10.6545 -1.91555,-2.3107 -4.31926,-4.0032 -6.91112,-4.8818 -1.96686,-0.689 -4.02198,-0.9513 -6.06406,-0.9074 z" />
      <path
         id="path955"
         style="fill:#000000;fill-opacity:1;stroke-width:0.256032;stroke-linecap:round"
         d="M 1746.4707 167.29883 C 1742.0466 167.50099 1737.7689 169.70607 1735.002 173.1582 C 1733.9396 174.48213 1733.1018 175.99304 1732.5996 177.61719 C 1731.8262 180.0421 1731.7289 182.65116 1732.1504 185.15234 C 1733.2826 191.66055 1734.1393 198.21258 1735.248 204.72461 C 1735.7413 207.63248 1736.2971 210.52926 1736.9297 213.41016 C 1738.3641 220.1955 1740.0029 226.93714 1741.7109 233.6582 C 1744.6003 245.02715 1747.6633 256.35381 1750.2188 267.80469 C 1751.7211 274.51841 1753.0304 281.27569 1754.0996 288.07227 C 1755.4515 296.69369 1756.5767 305.35769 1757.2246 314.0625 C 1757.4868 317.60918 1757.6779 321.16118 1757.7578 324.7168 C 1757.7769 325.84552 1757.7776 326.97464 1757.7715 328.10352 C 1757.5699 327.74865 1757.6382 327.32707 1757.6211 326.9375 C 1757.0725 334.38778 1756.4299 341.84895 1755.0645 349.20117 C 1754.1205 354.17687 1753.1634 359.1512 1752.084 364.09961 C 1750.761 370.20671 1749.2913 376.28267 1747.6367 382.30859 C 1747.1781 384.0655 1747.021 385.93459 1747.4336 387.7168 C 1748.0192 390.96387 1749.2816 394.03733 1750.666 397.01562 C 1751.7834 399.27739 1753.1941 401.44923 1755.1328 403.09375 C 1757.1994 404.83342 1759.8329 405.79648 1762.4961 406.10938 C 1764.252 406.29288 1766.024 406.27843 1767.7852 406.1875 C 1770.5722 406.02068 1773.3686 405.52578 1775.9551 404.44727 C 1776.5314 404.19507 1777.0915 403.90248 1777.6113 403.54688 C 1777.7967 403.30477 1777.773 402.96101 1777.9844 402.73438 C 1778.1766 402.95279 1778.5577 402.836 1778.668 402.58984 C 1779.8229 401.4319 1780.7652 400.08822 1781.6992 398.75195 C 1782.4542 396.12345 1782.9784 393.43581 1783.4922 390.75195 C 1784.039 387.80415 1784.4575 384.83377 1784.7812 381.85352 C 1785.2842 377.49782 1785.9047 373.1547 1786.7188 368.8457 C 1788.4244 359.56759 1789.8478 350.22727 1790.668 340.82617 C 1791.1201 335.68424 1791.3688 330.52352 1791.3711 325.36133 C 1791.3864 315.36369 1790.5912 305.37496 1789.1934 295.47852 C 1788.695 291.95561 1788.1132 288.44473 1787.5391 284.93359 C 1786.0158 275.76248 1784.2885 266.62133 1782.1328 257.57617 C 1781.2621 253.89635 1780.2956 250.23914 1779.3496 246.57812 C 1778.751 244.28774 1778.1417 242.00028 1777.5391 239.71094 C 1785.5559 235.10779 1792.9511 229.44727 1800.7383 224.44727 C 1805.2915 221.59412 1810.5257 219.47109 1815.9746 219.54492 C 1820.2326 219.63878 1824.2321 221.36832 1827.9512 223.30469 C 1831.3567 225.11349 1834.4375 227.53823 1836.9043 230.50977 C 1841.8261 236.30052 1845.164 243.2651 1847.6191 250.41211 C 1849.6766 256.44193 1851.0021 262.73975 1851.2891 269.11328 C 1851.5145 273.24702 1851.5219 277.39219 1851.5996 281.5293 C 1851.4992 282.75868 1851.111 283.95064 1851.1367 285.19531 C 1850.5008 295.709 1849.1614 306.16158 1848.0781 316.63477 C 1846.8578 328.06807 1845.565 339.49074 1844.8145 350.96875 C 1844.2062 360.98931 1844.0422 371.10054 1844.8984 381.10742 C 1845.4568 387.13771 1846.4051 393.18018 1848.6953 398.82227 C 1850.4666 403.02034 1852.8729 406.87823 1855.8086 410.35156 C 1858.7468 413.72767 1862.4328 416.37393 1866.3398 418.51562 C 1867.8413 419.31667 1869.3668 419.70865 1871.0527 419.90625 C 1873.2748 420.21566 1875.5192 420.21709 1877.6211 419.35938 C 1879.6793 418.58248 1881.6424 417.51971 1883.4395 416.32617 C 1886.0912 414.49875 1888.243 411.90758 1889.3281 408.85742 C 1890.3275 406.23302 1890.7188 403.4135 1890.584 400.63281 C 1890.0451 400.4941 1889.8431 399.82714 1889.709 399.33203 C 1889.4798 396.40173 1888.9117 393.3157 1887.0117 390.96875 C 1885.469 389.01781 1883.4301 387.54736 1881.7305 385.74414 C 1880.4327 384.58156 1878.8523 383.45812 1878.4512 381.65039 C 1877.8201 379.28242 1877.7708 376.82751 1877.457 374.41797 C 1877.1944 371.57713 1877.14 368.71281 1877.3926 365.86914 C 1876.9605 365.2687 1876.8023 364.53078 1876.918 363.80469 C 1877.3365 352.0331 1878.3273 340.28632 1879.6523 328.58398 C 1880.8345 317.47284 1882.1381 306.38084 1883.1504 295.25586 C 1884.2709 281.46063 1884.3222 267.49978 1882.0215 253.83203 C 1881.0028 247.8123 1879.4335 241.89571 1877.2148 236.20898 C 1874.8525 230.07636 1872.047 224.10297 1868.6367 218.46875 C 1865.8215 213.84096 1862.4291 209.56613 1858.5332 205.80078 C 1853.7461 201.1464 1848.3529 196.97435 1842.3086 194.04492 C 1837.3646 191.61742 1832.1535 189.80817 1826.7988 188.56641 C 1822.9185 187.69548 1818.9901 187.22611 1815.0098 187.35742 C 1808.9689 187.6276 1802.7708 188.48686 1797.2129 191.05859 C 1793.2831 192.85501 1789.5013 195.11743 1785.9414 197.60547 C 1783.1472 199.5523 1780.5866 201.80195 1778.0918 204.11328 C 1775.4371 206.51929 1772.7754 208.93556 1770.0117 211.22266 C 1767.3901 201.33536 1764.7614 191.45045 1762.084 181.57812 C 1761.6506 180.01604 1761.2255 178.44999 1760.7305 176.90625 C 1759.9903 174.89674 1758.7506 173.08939 1757.2383 171.58203 C 1754.9054 169.28522 1751.8142 167.72971 1748.5449 167.39258 C 1747.857 167.31317 1747.1631 167.27674 1746.4707 167.29883 z "
         transform="matrix(1.3083796,0,0,1.3083796,-1211.8186,-1507.9619)" />
      <path
         style="fill:#000000;fill-opacity:1;stroke-width:0.3;stroke-linecap:round"
         id="path959"
         d="m 1355.8008,-1259.2832 c -27.8535,0.5122 -53.5707,19.1687 -65.1535,44.1096 -8.4855,15.2792 -12.9099,33.5221 -9.1246,50.8493 2.5139,12.2502 10.3842,22.8287 20.0795,30.4593 8.6247,6.8519 18.8392,11.4286 29.3956,14.3977 18.7557,5.5028 38.7455,6.9339 56.5985,15.3501 5.1145,2.3461 10.0099,5.3642 13.7489,9.6325 9.142,10.0005 13.1099,25.1575 8.1426,38.0256 -3.2072,8.3555 -8.8813,15.7141 -16.1599,20.9243 -10.0407,7.3169 -22.813,10.7964 -35.1744,9.4323 -23.8342,-0.8203 -46.3656,-9.551 -69.7256,-13.3762 -6.146,-1.236 -12.5607,1.218 -17.263,5.1485 -5.7003,4.6963 -9.1759,12.4706 -7.485,19.8422 2.3005,12.5686 12.4877,22.50027 24.1571,26.90654 5.105,2.00434 10.6031,2.53944 15.926,3.70507 20.0965,3.81531 40.5873,6.6078 61.082,5.38353 26.7104,-2.44446 52.9645,-15.08879 69.632,-36.41924 12.4573,-15.633 19.601,-35.6006 19.0468,-55.6458 -0.2045,-9.9731 -2.6314,-19.8125 -6.637,-28.9248 -11.4305,-26.3554 -36.5226,-46.1406 -64.7091,-51.4751 -16.3813,-3.8134 -33.7551,-4.1334 -49.1986,-11.3878 -5.5995,-2.4906 -11.0117,-6.4745 -13.2808,-12.3725 -1.2626,-3.0504 -0.8051,-6.4289 0.2166,-9.4711 2.2783,-7.7462 6.0762,-15.0029 10.6764,-21.6115 8.1182,-10.5689 21.1485,-17.354 34.543,-17.3036 19.501,-1.5659 38.4985,4.2681 57.7884,5.9027 6.821,1.2199 13.9433,-4.1265 14.7218,-10.9996 1.4241,-7.7604 -3.7204,-15.9766 -11.2246,-18.2773 -17.6125,-9.3416 -37.871,-11.2088 -57.4326,-12.4532 -4.3872,-0.3482 -8.7879,-0.3745 -13.1865,-0.3515 z" />
      <path
         id="path961"
         style="fill:#000000;fill-opacity:1;stroke-width:0.388512;stroke-linecap:round"
         d="m 716.42773,-1288.2148 c -22.38766,0.3301 -44.25973,9.1029 -61.5111,23.2127 -10.04223,8.1821 -18.58441,18.2067 -24.99763,29.4654 -13.82977,23.0695 -20.47342,50.0728 -20.52252,76.8762 -0.057,18.2152 2.89703,36.4189 8.57991,53.7203 11.09731,34.2952 30.90294,65.2692 54.85637,91.9997 4.42069,4.8425 9.22497,9.318 14.04404,13.75846 9.06447,8.3032 18.40171,16.35335 26.68362,25.46152 3.64693,3.43745 7.50548,6.99324 12.3897,8.52356 0.54869,0.32466 0.86821,-0.45131 1.10121,-0.83644 0.62186,-1.59751 -0.40892,-3.18902 -1.06979,-4.59531 -5.3934,-12.03858 -10.10074,-24.40971 -16.31877,-36.06649 -2.55992,-4.8356 -5.44818,-9.4921 -8.60403,-13.9607 -13.14666,-19.2969 -28.86595,-36.9208 -39.70723,-57.7274 -2.62408,-5.1212 -5.03848,-10.3524 -7.22358,-15.6761 -9.70494,-23.7761 -14.34546,-50.0087 -10.82787,-75.5948 2.10692,-16.1709 8.44016,-31.8979 18.80925,-44.5489 4.15302,-5.0604 8.94819,-9.5841 14.14092,-13.5635 13.52149,-10.2597 30.48912,-16.3921 47.56227,-15.6182 13.06416,0.6473 25.89853,4.9487 36.7796,12.1944 11.80327,7.8111 21.41021,19.195 26.24414,32.5711 4.97673,13.3454 6.57447,27.733 6.17298,41.9065 -0.37446,13.5342 -2.42491,26.9598 -4.99166,40.2333 -5.61742,28.0675 -15.98142,54.9028 -27.34804,81.0811 -2.02934,4.7891 -3.87426,9.6563 -5.65777,14.5421 -3.52755,9.7944 -6.44709,19.8752 -7.67191,30.23911 0.3168,1.40462 1.96393,2.0282 3.24761,1.60121 1.13391,-0.27685 2.07704,-1.1795 2.38697,-2.29434 8.01582,-9.42918 12.61669,-21.06508 17.68346,-32.20278 1.81036,-4.0968 3.91335,-8.0535 5.77288,-12.1269 14.14974,-30.01 29.65503,-59.3669 43.43391,-89.5534 14.1441,-34.9933 11.80972,-76.3427 -6.68126,-109.3091 -10.36738,-18.7909 -26.3895,-34.7697 -46.08556,-43.5967 -9.52804,-4.2895 -19.66042,-7.2005 -29.99499,-8.722 -6.8391,-1.0226 -13.76172,-1.4623 -20.67513,-1.3936 z" />
      <path
         style="fill:#000000;fill-opacity:1;stroke-width:0.388512;stroke-linecap:round"
         id="path963"
         d="m 933.66211,-1279.7207 c -33.98897,1.7856 -65.38393,25.4171 -77.44137,57.0959 -9.6216,24.437 -11.32356,51.3723 -8.17646,77.2638 2.46535,21.1682 8.89559,41.725 17.64366,61.1062 4.32426,9.64 9.27134,18.9867 14.51371,28.1553 12.69783,22.9441 25.78848,45.6718 39.31489,68.13713 1.43108,2.60007 2.48254,5.45576 4.45221,7.72214 2.00486,-0.22196 3.0453,-2.16934 4.10461,-3.64017 2.27181,-2.95426 3.62815,-6.5371 4.39148,-10.16257 1.23527,-6.04573 0.58177,-12.34263 -1.18682,-18.21433 -2.59682,-9.2599 -6.59799,-18.0317 -10.11433,-26.96 -8.18153,-19.6484 -17.66305,-39.0001 -22.04838,-59.9644 -2.69719,-13.3745 -4.6702,-26.89 -6.1413,-40.4517 -1.56265,-15.6749 -2.22031,-31.5623 -0.0684,-47.2149 2.24618,-12.7782 7.6532,-25.2652 16.73602,-34.6763 4.22706,-4.3801 9.24866,-8.0947 14.98248,-10.2377 8.22386,-3.1763 17.56582,-3.47 25.91223,-0.5679 12.28258,3.8555 22.59645,12.2828 30.82606,21.9768 14.27375,16.6572 22.0443,38.1204 24.4229,59.7493 2.1684,18.4264 1.0038,37.1819 -2.916,55.2974 -2.5481,11.8908 -6.30347,23.5053 -10.96017,34.7336 -8.76126,22.7066 -17.24007,45.6424 -28.98141,67.02597 -7.47226,14.22255 -14.64863,28.655 -23.56252,42.05299 12.22808,-9.54372 22.53548,-21.42867 35.57905,-29.94559 6.90807,-4.94704 13.52657,-10.35021 19.42867,-16.47661 5.07145,-5.25066 9.51618,-11.12536 12.98548,-17.55616 14.3156,-24.4598 23.7596,-51.4133 31.1642,-78.6693 3.1069,-11.786 5.213,-23.8418 6.2429,-35.9879 1.7755,-21.0852 0.043,-42.6209 -6.4864,-62.8137 -8.5601,-26.7622 -25.0306,-51.3421 -47.95202,-67.8495 -16.36604,-11.8407 -36.33255,-19.1767 -56.665,-18.9278 z" />
      <path
         style="fill:#000000;fill-opacity:1;stroke-width:0.3;stroke-linecap:round"
         id="path1082"
         d="m 751.15021,-973.86155 c -1.36678,2.05235 -0.63844,4.80187 0.24424,6.90208 1.0414,2.40562 2.49018,4.58454 4.13179,6.61559 2.09542,2.43504 4.55755,4.50755 7.06109,6.50502 1.64415,1.28339 3.30859,2.5404 4.97327,3.7969 0.85042,0.64149 1.70137,1.28223 2.55233,1.923 1.71958,1.31902 -0.48284,-0.22429 -0.63532,-0.82706 -0.28459,-1.12496 -0.014,-2.32074 -0.0212,-3.48113 0.1083,-0.14988 0.2086,-0.30588 0.32483,-0.44968 0.0236,-0.0291 -0.0204,0.0745 -0.0447,0.10308 -0.11321,0.13406 -0.23574,0.26048 -0.3637,0.38055 -0.8936,0.83857 -1.8837,1.58065 -2.84051,2.34331 -3.18704,2.52764 -6.34373,5.09317 -9.50613,7.65146 -3.22467,2.61686 -6.47481,5.20202 -9.72961,7.78123 -2.30563,1.82155 -4.60502,3.65101 -6.90284,5.48241 -1.33557,1.06487 -2.67055,2.1304 -4.00556,3.19598 -0.21455,0.26821 -0.57517,0.38195 -0.80126,0.6377 -0.0506,0.0572 0.1311,-0.0802 0.20233,-0.1079 0.22299,-0.0867 0.43923,-0.24275 0.67831,-0.23442 2.49362,0.087 2.08743,0.007 3.54888,0.91001 0.0381,-0.0755 0.10922,-0.14206 0.11427,-0.22646 0.0151,-0.25045 -0.17729,-1.88828 -0.18126,-1.92619 -0.15867,-1.51487 -0.28554,-3.03091 -0.40439,-4.54933 -0.22606,-3.1922 -0.419,-6.38656 -0.63807,-9.57924 -0.17338,-2.53698 -0.38248,-5.07142 -0.62063,-7.60312 -0.13237,-1.38898 -0.26882,-2.77757 -0.40508,-4.16618 -0.0687,-0.69987 -0.13745,-1.39975 -0.20619,-2.09963 0.06,-1.09426 0.0217,-0.18851 -0.82373,2.59192 2.29156,-4.49956 -4.07178,-7.74031 -6.36333,-3.24078 v 0 c -0.93914,3.10713 -1.05447,1.973 -0.86929,3.30766 0.0685,0.69887 0.13708,1.39774 0.20518,2.09667 0.13346,1.37181 0.26641,2.7437 0.38891,4.11657 0.21485,2.48068 0.41013,4.96303 0.57214,7.44778 0.21582,3.23329 0.40666,6.46853 0.67487,9.69804 0.28387,3.1043 0.41024,6.3555 1.76281,9.21348 0.47816,0.5266 0.80063,1.25701 1.43447,1.5798 2.62628,1.33741 4.34242,0.9144 6.32775,-0.73583 1.33382,-1.06469 2.66763,-2.1294 4.00182,-3.1936 2.29166,-1.8274 4.58407,-3.6539 6.8843,-5.47048 3.2747,-2.59355 6.54743,-5.18969 9.79167,-7.82134 3.14474,-2.54445 6.28317,-5.09688 9.44931,-7.61471 2.12045,-1.67585 4.44436,-3.24472 5.86774,-5.59787 0.0527,-1.36202 0.42026,-2.74849 0.15804,-4.08607 -0.24649,-1.25727 -1.67262,-2.02594 -2.60036,-2.76526 -0.84791,-0.63863 -1.69579,-1.27728 -2.54275,-1.91712 -1.60395,-1.21293 -3.20857,-2.42552 -4.783,-3.67676 -2.05566,-1.67449 -4.09432,-3.40098 -5.76763,-5.47134 -1.11844,-1.51061 -2.13233,-3.11365 -2.76968,-4.89289 -0.3224,-1.17324 0.0217,-1.43071 -0.35775,1.08421 -0.0246,0.16288 -0.0781,-0.763 -0.3234,-0.37367 2.30262,-4.83875 -4.54043,-8.09514 -6.84302,-3.25639 z" />
      <path
         style="fill:#000000;fill-opacity:1;stroke-width:0.3;stroke-linecap:round"
         id="path1084"
         d="m 909.33257,-965.54027 c -1.06047,0.75253 -1.959,1.70119 -2.84062,2.6516 -1.39787,1.50898 -2.834,2.98159 -4.31553,4.40841 -1.66074,1.57306 -3.40813,3.04999 -5.2187,4.44677 -1.69569,1.28006 -3.47874,2.43727 -5.25915,3.5944 -1.10426,0.7394 -2.25163,1.40898 -3.41106,2.057 -0.69636,0.38629 -1.39605,0.7665 -2.09584,1.14649 -1.16348,0.63175 -2.42158,1.28799 -2.80591,2.77675 -0.31946,1.2374 -0.0738,2.56815 0.11435,3.83222 0.0675,0.45342 0.42492,0.81246 0.63738,1.21868 1.35343,2.35442 3.12518,4.4255 4.89268,6.47321 2.91864,3.20905 5.83097,6.42366 8.72329,9.6565 2.22747,2.48462 4.44304,4.97991 6.66485,7.46961 1.19242,1.33575 2.38543,2.671 3.57844,4.00624 1.70336,1.96228 3.11951,2.25409 6.04239,1.37438 1.17049,-0.35227 1.82999,-1.86529 2.35919,-2.79294 1.04055,-2.70404 1.69222,-5.54022 2.41069,-8.34239 0.67035,-2.74889 1.44378,-5.47 2.24785,-8.18222 0.5425,-1.84814 1.13646,-3.68035 1.7394,-5.50947 0.31911,-0.9852 0.66273,-1.96247 0.97631,-2.94944 0.24604,-0.90964 0.7865,-1.7031 1.29032,-2.48685 0.32562,-0.50768 0.67622,-0.99872 1.01044,-1.50061 0.0941,-0.14126 0.36822,-0.28413 0.27692,-0.42719 -0.63566,-0.996 -1.52078,-1.8088 -2.28116,-2.7132 0.77007,-0.69911 -0.2186,-1.78813 -0.98867,-1.08905 v 0 c -0.97528,-0.65111 -1.86656,-1.45037 -2.92584,-1.95337 -0.15619,-0.0742 -0.20609,0.27771 -0.30615,0.41871 -0.37293,0.52559 -0.72689,1.06468 -1.09516,1.59348 -0.84966,1.25521 -1.71532,2.51391 -2.32363,3.90892 -0.38528,1.01219 -0.69281,2.05222 -1.0477,3.07523 -0.63063,1.89415 -1.26542,3.78732 -1.84163,5.69894 -0.84132,2.80011 -1.68656,5.60059 -2.37839,8.4424 -0.62995,2.48426 -1.2763,4.96425 -1.91185,7.44702 0.41074,0.55877 -0.21006,-0.15126 1.04947,-0.25305 6.00612,-0.48535 1.78088,-0.33581 3.84603,0.4948 0.27218,0.10946 -1.33831,-1.11652 -0.58433,-0.65802 -1.19176,-1.33398 -2.38352,-2.66798 -3.57439,-4.00275 -2.22401,-2.49383 -4.44418,-4.9911 -6.67525,-7.47863 -2.85694,-3.18717 -5.74601,-6.34542 -8.59314,-9.54127 -1.32432,-1.57303 -2.71343,-3.15757 -3.61521,-5.02174 1.62295,1.39761 -0.37759,4.55639 -1.84722,4.98297 -0.15192,0.0441 0.65173,-0.31908 0.4149,-0.23039 0.72003,-0.3904 1.4401,-0.78079 2.15818,-1.17481 1.30685,-0.72051 2.61064,-1.4497 3.85429,-2.2765 1.93378,-1.25095 3.87239,-2.49809 5.72833,-3.86355 2.03719,-1.53059 4.00011,-3.15539 5.86788,-4.89003 1.61009,-1.50873 3.16124,-3.07769 4.66857,-4.68921 0.86963,-0.93358 1.74101,-1.88325 2.37966,-2.99387 4.35166,-3.53221 -0.64362,-9.68637 -4.99528,-6.15418 z" />
    </g>
    <g
       id="g1015"
       transform="matrix(0.20222215,0,0,0.20222215,-32.334378,-1233.1681)">
      <path
         id="path977"
         style="fill:#000000;fill-opacity:1;stroke-width:0.229291;stroke-linecap:round"
         d="M 83.076172 46.896484 C 82.501415 46.897325 81.926319 46.899626 81.351562 46.900391 C 78.66809 46.975522 75.992507 47.228802 73.318359 47.453125 C 69.660552 47.776579 66.007152 48.149313 62.369141 48.650391 C 56.779631 49.444121 51.253386 50.657628 45.810547 52.150391 C 40.225776 53.693903 34.749925 55.61863 29.408203 57.861328 C 23.072962 60.533412 16.755121 63.248365 10.417969 65.916016 C 8.8146114 66.572629 7.2061323 67.266974 5.8125 68.314453 C 3.4297053 70.017476 1.6838374 72.555847 0.88085938 75.367188 C -0.47226476 79.975942 0.53005894 85.267939 3.6582031 88.945312 C 5.9258172 91.5882 9.2391888 93.26659 12.6875 93.666016 C 15.908125 94.031047 19.157138 93.573029 22.308594 92.90625 C 27.418961 91.779054 32.420998 90.225743 37.441406 88.761719 C 42.860476 87.165546 48.288526 85.586205 53.792969 84.308594 C 57.548683 83.501489 61.336504 82.848334 65.146484 82.357422 C 71.428188 81.552279 77.769101 81.211745 84.101562 81.316406 C 85.9201 85.214454 87.739873 89.111949 89.554688 93.011719 C 91.238297 96.66922 92.921936 100.32687 94.605469 103.98438 C 96.503924 108.54093 98.406301 113.09466 100.2832 117.66016 C 101.26946 120.04761 102.25424 122.43592 103.23828 124.82422 C 104.55594 128.61394 105.87382 132.40371 107.19141 136.19336 C 107.77847 138.03602 108.3255 139.89111 108.83789 141.75586 C 109.18511 142.96216 109.4795 144.18277 109.79883 145.39648 C 110.35295 147.73075 110.83881 150.08021 111.3418 152.42578 C 112.30169 157.92419 113.26081 163.42347 114.2207 168.92188 C 114.5369 171.57241 114.86285 174.22072 115.14648 176.875 C 115.49248 179.98793 115.82189 183.10398 116.15039 186.21875 C 116.37464 188.71581 116.61224 191.21217 116.73438 193.7168 C 116.84015 195.73525 116.96805 197.75365 116.98242 199.77539 C 117.02201 202.38327 116.99634 204.99165 116.96875 207.59961 C 116.87092 210.68319 116.72259 213.76506 116.59961 216.84766 C 116.36581 220.60589 116.06223 224.35879 115.77539 228.11328 C 115.30137 232.86144 114.76675 237.60205 114.25 242.3457 C 113.84798 245.71865 113.40914 249.08728 112.95117 252.45312 C 112.62176 254.92038 112.27219 257.38549 111.91992 259.84961 C 111.62956 261.74692 111.35035 263.64688 111.05273 265.54297 C 110.62939 267.95007 110.20655 270.35657 109.7832 272.76367 C 106.02535 289.42749 102.2633 306.08955 98.507812 322.75391 C 98.259184 323.84136 98.046842 324.937 97.851562 326.03516 C 97.597814 327.50904 97.343593 328.98322 97.089844 330.45703 C 97.065845 331.57574 97.065437 332.69402 97.095703 333.8125 C 97.216692 335.67679 97.35187 337.54024 97.478516 339.4043 C 97.581009 340.38933 97.743897 341.36944 98.025391 342.32031 C 98.366958 343.28532 98.761428 344.27479 99.488281 345.01953 C 100.18785 345.78162 100.94069 346.50067 101.77148 347.11914 C 102.55887 347.70506 103.40437 348.23039 104.32031 348.58984 C 105.24887 348.97039 106.23807 349.19846 107.23633 349.29102 C 108.30169 349.40222 109.37812 349.31345 110.42773 349.11328 C 111.41651 348.91112 112.37267 348.57104 113.27539 348.12109 C 114.12232 347.67428 114.94062 347.16016 115.65234 346.51562 C 116.42758 345.83494 117.11566 345.05141 117.69141 344.19531 C 118.32838 343.28464 118.80663 342.27473 119.21484 341.24414 C 119.59356 340.18374 119.95071 339.11727 120.27539 338.03906 C 120.8344 336.08221 121.39528 334.12397 121.94336 332.16406 C 122.65806 329.52171 123.38319 326.88318 124.06641 324.23242 C 124.91677 320.98849 125.76861 317.74465 126.59375 314.49414 C 127.61861 310.50172 128.63089 306.50612 129.63281 302.50781 C 130.45689 299.20449 131.28132 295.90106 132.10547 292.59766 C 132.93741 288.79654 133.76962 284.99643 134.60156 281.19531 C 135.29777 277.31922 135.9143 273.42938 136.54883 269.54297 C 137.00474 266.68233 137.47074 263.82249 137.91992 260.96094 C 138.44867 257.11993 138.98563 253.2803 139.48633 249.43555 C 140.00284 245.5807 140.49195 241.72222 140.99219 237.86523 C 141.32711 233.72477 141.66118 229.58382 141.99609 225.44336 C 142.13634 222.50828 142.28853 219.5731 142.39844 216.63672 C 142.49527 214.45096 142.56495 212.2648 142.63672 210.07812 L 142.69336 197.3418 C 142.60287 194.98636 142.43965 192.63458 142.2793 190.2832 C 142.09357 187.67998 141.89263 185.07745 141.70117 182.47461 C 141.26819 178.64162 140.83525 174.80955 140.40234 170.97656 C 140.03815 168.46835 139.6847 165.95833 139.28711 163.45508 C 138.81936 160.39534 138.32165 157.34043 137.81445 154.28711 C 137.59632 153.11918 137.37773 151.95129 137.07812 150.80078 C 136.19749 147.24073 135.30588 143.6828 134.4082 140.12695 C 134.04394 138.85515 133.67094 137.58682 133.26953 136.32617 C 132.71595 134.59999 132.16649 132.87099 131.5957 131.15039 C 131.00436 129.39662 130.43461 127.63641 129.81445 125.89258 C 129.08248 123.9303 128.32016 121.97812 127.50977 120.04688 C 126.00164 116.50624 124.5114 112.9581 122.97461 109.42969 C 122.41407 108.14443 121.87103 106.85113 121.30078 105.57031 C 119.30442 101.34394 117.29045 97.126032 115.25977 92.916016 C 114.61936 91.613183 113.99946 90.300964 113.31641 89.019531 C 112.54302 87.525062 111.75036 86.040036 110.9707 84.548828 C 112.81751 84.969359 114.65583 85.428253 116.48242 85.929688 C 120.5275 87.045419 124.53769 88.299041 128.44336 89.837891 C 132.58803 91.447133 136.60728 93.365681 140.51562 95.482422 C 144.33791 97.552922 148.0965 99.739284 151.83594 101.95508 C 156.09388 104.51374 160.30269 107.16192 164.36328 110.02539 C 167.55402 112.30753 170.6112 114.77194 173.57227 117.34375 C 178.22932 121.38272 182.63606 125.70196 186.87695 130.17383 C 190.41492 133.918 193.80799 137.80383 196.98047 141.86328 C 199.86304 145.59339 202.55326 149.46978 205.06445 153.45898 C 209.2105 160.01228 212.91344 166.83896 216.28906 173.81836 C 218.82854 179.03909 221.08715 184.39753 223.02344 189.87109 C 224.45895 193.94866 225.72816 198.0824 226.875 202.25 C 227.96031 206.22033 228.93334 210.221 229.80273 214.24414 C 230.83806 219.06491 231.7756 223.90765 232.57422 228.77344 C 232.93375 230.96179 233.28392 233.15239 233.58398 235.34961 C 234.29463 240.60848 234.77107 245.89789 235.04492 251.19727 C 235.24884 255.42677 235.35499 259.66419 235.27344 263.89844 C 235.20442 266.65605 234.99343 269.40881 234.62305 272.14258 C 234.08299 276.56003 233.37536 280.95674 232.57422 285.33398 C 231.49922 291.14025 230.11148 296.88544 228.41992 302.54297 C 226.83032 308.03847 224.95488 313.45439 222.77539 318.74414 C 220.96651 323.12169 218.97197 327.42906 216.61523 331.54102 C 214.42474 335.40946 211.95745 339.12077 209.24219 342.64062 C 204.104 349.28778 198.15536 355.27886 191.7832 360.74219 C 187.74301 364.2067 183.49039 367.42176 179.08594 370.4082 C 175.5359 372.81095 171.81515 374.95961 167.95312 376.82031 C 164.42449 378.55972 160.79619 380.09044 157.11133 381.4668 C 151.29085 383.64736 145.33381 385.46198 139.29688 386.93945 C 130.23238 389.14671 120.94176 390.48588 111.60938 390.69922 C 105.73295 390.83478 99.839462 390.58966 94.011719 389.80273 C 89.522731 389.19624 85.088096 388.19499 80.777344 386.80273 C 76.431663 385.40589 72.181112 383.69493 68.119141 381.60938 C 66.659472 380.86968 65.267826 380.00921 63.873047 379.15625 C 63.055089 378.68108 62.167132 378.33233 61.234375 378.16602 C 58.890942 377.61717 56.454041 377.72112 54.078125 377.97266 C 52.821685 378.14256 51.627912 378.66129 50.621094 379.42773 C 48.693213 380.80532 47.368941 382.84134 46.25 384.89258 C 45.097124 387.04356 44.253086 389.34351 43.490234 391.65625 C 42.225082 396.02889 41.99949 400.75932 43.199219 405.17188 C 43.811732 407.31689 45.102477 409.21797 46.701172 410.75391 C 48.139134 412.22948 49.829917 413.42309 51.535156 414.56641 C 53.265465 415.53491 55.254866 415.81931 57.144531 416.33203 C 62.098904 417.53611 66.989829 418.97891 71.908203 420.31836 C 76.200918 421.47621 80.525013 422.53588 84.898438 423.34375 C 88.239058 423.95204 91.608154 424.38505 94.992188 424.66211 C 99.5012 425.05959 104.02787 425.26864 108.55469 425.25781 C 115.75191 425.25126 122.95174 424.78538 130.08789 423.84766 C 134.84125 423.21168 139.5591 422.33305 144.24023 421.29492 C 153.16433 419.28581 161.93136 416.59485 170.4707 413.31836 C 179.30124 409.91773 187.86505 405.78531 195.89062 400.76172 C 204.60751 395.31147 212.68591 388.86708 220.07031 381.7207 C 224.19801 377.73944 228.11873 373.54522 231.82812 369.17188 C 233.6435 367.03962 235.42468 364.87633 237.13672 362.66016 C 238.77867 360.52752 240.33983 358.33361 241.82617 356.08984 C 245.91451 349.92909 249.35851 343.35683 252.31836 336.58594 C 255.11854 330.19727 257.50582 323.63247 259.59375 316.97852 C 261.67571 310.33855 263.45328 303.60479 264.94727 296.80859 C 266.06101 291.67897 267.10114 286.52177 267.63867 281.29492 C 268.30163 275.33365 268.45 269.33138 268.60156 263.33984 C 268.69152 258.00943 268.63797 252.67498 268.38086 247.34961 C 268.23602 244.28888 268.01048 241.23148 267.73633 238.17969 C 267.394 234.58914 266.97995 231.00584 266.4668 227.43555 C 265.6775 221.876 264.68329 216.34603 263.53516 210.84961 C 262.15696 204.25221 260.56593 197.69972 258.75781 191.20703 C 257.73823 187.55335 256.632 183.92318 255.42188 180.32812 C 253.78611 175.47968 252.02627 170.66912 250.0293 165.95703 C 246.76939 158.30826 242.87931 150.94556 238.77148 143.72266 C 235.52273 138.02798 232.07113 132.44671 228.33398 127.05859 C 224.61129 121.6584 220.58963 116.46465 216.25977 111.53711 C 213.80085 108.7383 211.25026 106.01989 208.63672 103.36523 C 203.37464 98.05653 197.84333 93.016075 192.10547 88.226562 C 188.94049 85.598732 185.67784 83.089087 182.32812 80.701172 C 178.02418 77.604058 173.52483 74.791098 168.96094 72.095703 C 165.74375 70.200458 162.49463 68.356364 159.21875 66.564453 C 154.22876 63.864472 149.19592 61.22759 143.97656 58.994141 C 136.97974 55.984311 129.71641 53.6118 122.32031 51.800781 C 115.91323 50.204303 109.41656 48.961202 102.87305 48.078125 C 96.313177 47.206054 89.691683 46.855823 83.076172 46.896484 z "
         transform="matrix(1.3083796,0,0,1.3083796,-1959.8641,-1508.7061)" />
      <path
         id="path981"
         style="fill:#000000;fill-opacity:1;stroke-width:0.229291;stroke-linecap:round"
         d="m 366.39062,193.57227 c -10.61503,0.27667 -21.01671,3.41768 -30.41406,8.26757 -11.15494,5.73488 -21.0364,13.73685 -29.57422,22.88282 -7.35184,7.7988 -14.48743,15.90921 -20.08007,25.09179 -2.46466,4.06969 -4.72793,8.26491 -6.7168,12.58789 -2.92881,6.41626 -5.11601,13.21246 -6.02149,20.22266 -1.11168,8.13373 -0.95034,16.40512 0.0312,24.54297 1.83304,14.13741 7.25526,27.80161 15.67774,39.30859 4.68671,6.43651 10.30572,12.17266 16.54687,17.10938 10.1012,8.06753 21.64551,14.17191 33.63477,18.91992 9.68457,3.80784 19.91938,6.44242 30.34961,6.87695 10.76515,0.50032 21.55351,-0.75996 32.06445,-3.04883 5.41831,-1.19445 10.74214,-2.86375 15.79297,-5.17187 7.76709,-3.50334 14.8832,-8.29991 21.52148,-13.60938 4.78838,-3.86776 9.31246,-8.07217 13.46485,-12.61718 6.0419,-6.83235 10.5684,-14.95316 13.43164,-23.60157 2.89251,-8.65505 4.12452,-17.93222 3.07422,-27.02148 -0.55084,-4.15468 -2.02602,-8.1125 -3.68945,-11.93555 -3.59309,-8.51671 -8.59748,-16.479 -15.02344,-23.14648 -4.4896,-4.69703 -9.60161,-8.8581 -15.34375,-11.92969 -2.99248,-1.50981 -6.27987,-2.62296 -9.66407,-2.60156 -2.55476,0.24725 -4.72667,1.77025 -6.74023,3.24023 -2.52405,2.40414 -4.8286,7.15271 -2.96289,8.79688 1.38079,1.5481 3.03651,2.82339 4.37305,4.41406 4.50825,4.82712 8.65635,9.97476 12.98828,14.95703 4.19817,4.98166 8.10681,10.33 10.56055,16.4082 0.97754,2.36798 1.76416,4.81208 2.39257,7.29493 0.25375,0.42159 0.87045,0.0678 1.15821,0.43945 -0.0229,1.80743 -0.63153,3.53494 -0.92578,5.30469 -0.84396,4.25755 -2.12512,8.45011 -4.10352,12.32422 -1.59847,3.17576 -3.65957,6.09346 -5.86719,8.87109 -4.94757,6.10969 -11.05242,11.18896 -17.54297,15.58203 -5.67302,3.78641 -11.92342,6.77305 -18.53906,8.47461 0.4151,-3.45037 0.14788,-6.94929 -0.60547,-10.34375 -0.74053,-2.99439 -1.67283,-5.95105 -3.20312,-8.64844 -1.73612,-2.87454 -3.82951,-5.4577 -6.76367,-7.19336 -2.72666,-1.48007 -5.60634,-2.52773 -8.71094,-2.87304 -2.74064,-0.34837 -5.50064,-0.55269 -8.26367,-0.34961 -2.29253,0.11113 -4.58343,0.25019 -6.87696,0.33984 -2.38875,0.10616 -4.77826,0.23751 -7.16992,0.25195 -1.94179,-0.0336 -3.89435,-0.0943 -5.78906,-0.56835 -1.78144,-0.52088 -3.45396,-1.287 -4.92578,-2.4375 -1.78144,-1.38439 -3.49175,-2.91087 -4.76172,-4.79297 -1.12101,-1.79161 -1.88387,-3.75251 -2.43164,-5.79297 -0.55458,-2.27702 -0.88297,-4.58983 -0.88281,-6.93946 -0.0275,-3.13158 0.008,0.0695 -0.0274,0.40235 -0.0451,0.43366 -0.0226,-0.87248 -0.0195,-1.3086 0.008,-1.47571 0.10333,-2.9507 0.17969,-4.42382 0.22784,-3.50052 0.50463,-6.99664 0.84375,-10.48829 0.36847,-3.92791 0.73444,-7.85752 1.03711,-11.79101 0.30633,-4.84951 0.30423,-9.71774 -0.95313,-14.44336 -1.08141,-3.96819 -2.65091,-7.7844 -5.3418,-10.95703 -2.54788,-2.71672 -5.38061,-5.06444 -8.84765,-6.5332 -2.86222,-1.23419 -5.79956,-2.27048 -8.9082,-2.57032 2.19591,-2.52339 4.48579,-4.96455 6.8457,-7.32617 6.20416,-6.38882 12.72263,-12.60337 20.33594,-17.30078 7.16382,-4.38795 15.32948,-7.32814 23.75586,-7.80078 5.78203,-0.17449 11.49973,0.86716 17.20312,1.66211 6.48657,1.04373 12.97935,2.85915 18.57031,6.4082 2.29016,1.43559 4.54572,3.15431 7.27344,3.62695 3.09788,0.44536 6.27273,-1.07984 8.13281,-3.54296 1.82356,-2.32548 2.54937,-5.58955 1.48828,-8.39844 -0.85044,-2.44287 -2.70726,-4.37522 -4.74023,-5.90039 -5.28738,-4.30854 -11.54526,-7.18474 -17.82227,-9.73438 -7.088,-2.94158 -14.37137,-5.62439 -22.00195,-6.72461 -3.46459,-0.52156 -6.96923,-0.7658 -10.47266,-0.74218 z"
         transform="matrix(1.3083796,0,0,1.3083796,-1959.8641,-1508.7061)"
         sodipodi:nodetypes="ccccccccccccccccccccccccccccccccccccccccccccccccccccccccccccccccccc" />
      <path
         id="path983"
         style="fill:#000000;fill-opacity:1;stroke-width:0.229291;stroke-linecap:round"
         d="M 627.85547 171.77734 C 624.5442 171.85683 621.45299 173.73402 619.50195 176.35352 C 617.01407 179.72708 616.0769 184.28089 617.30078 188.32031 C 617.56477 189.24925 618.01255 190.10717 618.45508 190.95898 C 618.47323 191.00313 618.48318 191.04924 618.5 191.09375 C 617.49191 190.64449 616.48532 190.19118 615.46875 189.76172 C 610.15898 187.54203 604.69714 185.66509 599.0957 184.33008 C 593.61862 183.03046 587.99004 182.33047 582.35742 182.38672 C 577.26555 182.74609 572.20011 183.51043 567.24023 184.7207 C 563.61843 185.60653 560.05651 186.73302 556.55859 188.02148 C 551.8783 189.74896 547.3195 191.79298 542.87109 194.04883 C 538.92744 196.03732 535.05506 198.16561 531.2168 200.34961 C 526.92485 202.79867 522.69479 205.37616 518.74219 208.34961 C 514.73593 211.34622 510.9568 214.63883 507.35938 218.11328 C 504.30597 221.07641 501.4132 224.20544 498.68555 227.4707 C 496.06727 230.60687 493.60143 233.869 491.29102 237.23828 C 487.58315 242.64955 484.27798 248.33576 481.39258 254.22656 C 479.34226 258.41671 477.49686 262.71011 475.93164 267.10547 C 474.30811 271.65338 473.16117 276.36239 472.37891 281.125 C 471.75424 284.92153 471.3654 288.75734 471.20703 292.60156 C 471.01787 297.28721 471.18113 301.98733 471.69727 306.64844 C 472.44728 313.44058 473.91043 320.15229 476.05469 326.64062 C 478.94055 335.36624 483.07509 343.67853 488.28711 351.24805 C 491.53792 355.96854 495.2096 360.39919 499.25781 364.45703 C 504.92498 370.14323 511.32068 375.10573 518.25781 379.14844 C 524.32111 382.68862 530.79176 385.52629 537.49219 387.62109 C 547.04561 390.6124 557.06937 392.09698 567.08008 391.98633 C 575.87814 391.88933 584.66815 390.56318 593.08398 387.98828 C 599.21065 386.11123 605.14135 383.56618 610.66406 380.31055 C 615.32861 377.56448 619.70326 374.31878 623.63477 370.5957 C 625.90337 368.44579 628.0339 366.14542 629.96094 363.68359 C 631.3911 361.84735 632.66189 359.88719 633.74414 357.82617 C 634.48903 356.43865 635.22201 355.04263 635.9082 353.625 C 636.38628 352.63423 636.81744 351.61644 637.08594 350.54688 C 637.44692 349.21063 637.69998 347.84687 637.94922 346.48633 C 638.16957 345.20979 638.25933 343.86166 637.83789 342.61523 C 637.48585 341.59344 636.87015 340.69496 636.32031 339.77344 C 635.82665 338.99125 635.29794 338.19701 634.53906 337.64648 C 633.68151 337.06286 632.65823 336.81462 631.69727 336.45898 C 630.12647 335.9054 628.58599 335.27049 627.00977 334.73242 C 626.25547 334.48685 625.4202 334.45385 624.66797 334.72656 C 623.8546 335.01417 623.14969 335.52388 622.40625 335.94922 C 620.53921 337.06709 618.66521 338.21641 617.08203 339.72461 C 616.09233 340.64728 615.24685 341.70746 614.39648 342.75586 C 613.57027 343.77659 612.72457 344.78751 611.75391 345.67578 C 609.49287 347.86337 607.15717 349.9819 604.6582 351.89648 C 600.89897 354.78899 596.82591 357.28354 592.49414 359.22266 C 587.91099 361.27481 583.03315 362.62898 578.08008 363.42188 C 572.75005 364.26712 567.31878 364.47515 561.93945 364.04492 C 556.89214 363.64114 551.89063 362.67969 547.05273 361.18555 C 539.48031 358.86351 532.28755 355.2965 525.87695 350.64258 C 519.98119 346.3614 514.73123 341.16117 510.53711 335.19531 C 508.48533 332.28981 506.71463 329.19347 505.17578 325.98828 C 502.93224 321.31701 501.18649 316.41271 499.86523 311.4043 C 498.75562 307.1702 497.96812 302.84975 497.56641 298.49023 C 497.20436 294.43873 497.22276 290.34003 497.8125 286.31055 C 498.44519 282.03304 499.68082 277.8643 501.21875 273.83008 C 502.56316 270.30381 504.16179 266.87768 505.9375 263.54883 C 508.04308 259.61113 510.39169 255.80618 512.90625 252.11719 C 514.52466 249.747 516.2133 247.42482 517.96875 245.1543 C 520.57251 241.81322 523.36824 238.62104 526.36523 235.62695 C 529.34419 232.63967 532.51259 229.83811 535.85352 227.26172 C 539.13207 224.7389 542.58354 222.4474 546.15039 220.35352 C 549.1927 218.56604 552.31369 216.91271 555.46484 215.32617 C 556.88943 214.61245 558.32549 213.92354 559.77344 213.25781 C 559.59726 213.89559 559.40787 214.52999 559.24805 215.17188 C 558.0114 221.83195 558.72404 226.53805 561.85547 232.32422 C 564.16267 236.05013 567.32003 239.09499 570.64062 241.90625 C 573.6844 244.3936 576.94898 246.59023 580.02148 249.03906 C 582.78169 251.08602 585.29327 253.37371 587.57617 255.93359 C 589.50604 258.40138 590.82735 261.21073 591.99023 264.09766 C 593.17055 267.17306 593.65212 270.44108 594.10352 273.68555 C 594.5342 277.39938 594.83354 281.11901 595.50781 284.79883 C 596.31698 289.57863 598.40973 293.81163 601.08594 297.79297 C 603.8907 301.38206 607.23822 304.60831 611.27344 306.78711 C 612.09506 307.23079 612.96216 307.58384 613.80664 307.98242 C 618.7004 309.84113 623.85766 310.08879 628.66406 307.7793 C 629.59017 307.33432 630.43145 306.72836 631.31445 306.20312 C 636.40976 302.39368 638.84711 297.30668 640.60938 291.37109 C 640.74588 290.84573 640.85514 290.31704 640.96875 289.78906 C 643.54661 302.04122 645.85565 314.3468 647.67188 326.74023 C 648.87948 335.40003 649.96923 344.07932 650.76953 352.78711 C 651.22039 357.71878 651.55096 362.66102 651.88672 367.60156 C 652.67456 379.81415 653.06779 392.05717 652.82031 404.29492 C 652.32886 430.02268 649.16187 455.82318 641.81836 480.53516 C 638.76359 490.92772 634.11814 500.82769 628.32227 509.96875 C 618.13379 526.00908 604.15444 539.72492 587.58203 549.08984 C 579.99066 553.37679 571.87433 556.77075 563.42969 558.96094 C 553.64629 561.46313 543.31106 562.20855 533.35156 560.31836 C 524.57651 558.66886 516.24554 554.91932 509.02539 549.69141 C 502.61693 545.01985 497.11348 538.98485 493.52148 531.88281 C 490.65817 526.15029 489.33333 519.74497 489.11719 513.36719 C 488.64164 503.10942 490.47816 492.92479 492.70312 482.95508 C 494.91739 473.19332 497.69494 463.54117 499.1582 453.62305 C 499.23968 453.23947 499.22599 452.80482 499.53125 452.51953 C 499.999 451.8747 500.26761 450.90099 499.72656 450.21875 C 499.05795 449.72188 498.17918 450.05379 497.52539 450.4043 C 492.81506 452.85259 488.46735 455.97379 484.53516 459.5332 C 474.09797 469.15323 467.11004 482.21273 464.05664 496.01562 C 460.62201 511.53669 462.07098 528.18215 468.57031 542.72461 C 473.78478 554.3573 482.25469 564.47538 492.67773 571.79688 C 514.04592 587.52238 542.52242 593.14384 568.25195 586.64062 C 573.53276 585.26703 578.68958 583.45785 583.78711 581.52148 C 609.26244 571.56797 631.37683 553.66271 647.18555 531.41992 C 656.21832 518.73396 663.21527 504.59225 667.73438 489.68555 C 672.91085 473.1703 676.04824 456.06189 677.73438 438.85156 C 679.53102 420.84577 679.91693 402.72866 679.69727 384.64453 C 678.69779 342.45502 671.47091 300.61056 660.72266 259.86719 C 659.035 253.4533 657.24618 247.06621 655.39648 240.69727 C 651.41813 226.66212 648.17805 212.42873 644.18945 198.39648 C 642.28702 191.72602 640.26583 185.08094 637.79102 178.59766 C 637.21076 177.04092 636.14113 175.71659 634.9375 174.59375 C 633.01841 172.84961 630.47818 171.7071 627.85547 171.77734 z M 500.40625 449.86133 C 500.41408 449.84234 500.41415 449.82835 500.38281 449.87695 C 500.38281 449.90432 500.39842 449.88032 500.40625 449.86133 z M 499.42773 456.81055 L 499.45117 456.83008 L 499.42773 456.81055 z "
         transform="matrix(1.3083796,0,0,1.3083796,-1959.8641,-1508.7061)" />
    </g>
  </g>
</svg>
