<?xml version="1.0" encoding="UTF-8" standalone="no"?>
<!-- Created with Inkscape (http://www.inkscape.org/) -->

<svg
   xmlns:dc="http://purl.org/dc/elements/1.1/"
   xmlns:cc="http://creativecommons.org/ns#"
   xmlns:rdf="http://www.w3.org/1999/02/22-rdf-syntax-ns#"
   xmlns:svg="http://www.w3.org/2000/svg"
   xmlns="http://www.w3.org/2000/svg"
   xmlns:sodipodi="http://sodipodi.sourceforge.net/DTD/sodipodi-0.dtd"
   xmlns:inkscape="http://www.inkscape.org/namespaces/inkscape"
   inkscape:version="0.48.4 r9939"
   version="1.1"
   id="svg8474"
   height="1052.3622047"
   width="744.09448819"
   sodipodi:docname="rep.svg">
  <sodipodi:namedview
     id="base"
     pagecolor="#ffffff"
     bordercolor="#666666"
     borderopacity="1.0"
     inkscape:pageopacity="0.0"
     inkscape:pageshadow="2"
     inkscape:zoom="0.35"
     inkscape:cx="452.93731"
     inkscape:cy="586.76647"
     inkscape:document-units="px"
     inkscape:current-layer="layer1"
     showgrid="false"
     inkscape:window-width="1366"
     inkscape:window-height="721"
     inkscape:window-x="-4"
     inkscape:window-y="24"
     inkscape:window-maximized="1" />
  <defs
     id="defs8476" />
  <metadata
     id="metadata8479">
    <rdf:RDF>
      <cc:Work
         rdf:about="">
        <dc:format>image/svg+xml</dc:format>
        <dc:type
           rdf:resource="http://purl.org/dc/dcmitype/StillImage" />
      </cc:Work>
    </rdf:RDF>
  </metadata>
  <g
     id="layer1"
     inkscape:groupmode="layer"
     inkscape:label="Layer 1">
    <path
       id="path8484"
       d="m -71.522039,310.7319 c 0,0 65.0174314,-47.67082 402.716429,-42.82881 337.699,4.842 419.6494,70.42527 530.13526,70.26684 191.61495,-0.27477 393.04955,-47.76729 393.04955,-47.76729"
       style="fill:none;stroke:#000000;stroke-width:15;stroke-linecap:butt;stroke-linejoin:miter;stroke-opacity:1;stroke-miterlimit:4;stroke-dasharray:none" />
    <path
       inkscape:connector-curvature="0"
       id="path8482"
       d="M -411.42857,569.50504 -420,446.6479 -540,355.21933 -408.57143,269.50504 -285.71429,398.07647 -380,435.21933 l 0,125.71428 z"
       style="fill:#000000;stroke:#000000;stroke-width:1px;stroke-linecap:butt;stroke-linejoin:miter;stroke-opacity:1" />
    <path
       sodipodi:nodetypes="ccc"
       inkscape:connector-curvature="0"
       id="path9180"
       d="M 2.8571433,720.93361 C -195.77725,690.04174 -94.68168,845.60783 -241.42857,858.07646 3.4168648,865.08836 -77.941154,786.76154 2.8571433,720.93361 z"
       style="fill:none;stroke:#000000;stroke-width:1px;stroke-linecap:butt;stroke-linejoin:miter;stroke-opacity:1" />
    <path
       style="fill:#aa4400;stroke:#000000;stroke-width:15;stroke-linecap:butt;stroke-linejoin:miter;stroke-opacity:1;stroke-miterlimit:4;stroke-dasharray:none"
       d="M 594.28572,586.6479 C 395.65132,555.75603 496.74689,711.32212 350,723.79075 594.84544,730.80265 513.48742,652.47583 594.28572,586.6479 z"
       id="path9188"
       inkscape:connector-curvature="0"
       sodipodi:nodetypes="ccc" />
    <path
       style="fill:#d45500;stroke:#000000;stroke-width:15;stroke-linecap:butt;stroke-linejoin:miter;stroke-miterlimit:4;stroke-opacity:1;stroke-dasharray:none"
       d="M 164.35613,203.42432 C -35.622287,182.97673 82.863962,278.52293 -32.875858,369.52208 168.36625,339.49865 87.116305,273.39265 164.35613,203.42432 l 0,0 m 97.12594,-2.5184 C 62.571048,171.85412 172.91665,317.76213 30.208248,354.14779 272.88104,320.87683 181.29689,267.47865 261.48207,200.90592 l 0,0 m 96.25213,0.75696 C 159.76933,166.7437 263.00959,320.06633 117.65412,343.76465 362.31355,331.95766 275.61622,265.83598 357.7342,201.66288 l 0,0 m 97.59119,4.35868 C 259.40267,161.0369 354.80993,322.1592 208.50261,339.01374 453.44705,338.69522 370.03704,265.91662 455.32539,206.02156 l 0,0 m 97.51005,9.13241 C 359.6757,159.48894 446.84156,326.94977 299.97981,337.97659 544.74373,347.39269 464.3898,270.27996 552.83544,215.15397 l 0,0 m 97.49202,15.16983 C 461.25117,162.06241 538.90784,334.12455 391.74836,339.94771 636.02499,358.01888 558.4442,279.50734 650.32746,230.3238 l 0,0 m 94.92933,20.97678 c -185.88277,-76.53357 -114.93359,94.44336 -262.2081,94.42293 243.36701,27.74934 168.24484,-49.33912 262.2081,-94.42293 l 0,0 m 84.42359,17.92946 c -193.64139,-53.94445 -110.88674,97.02089 -257.81076,86.86615 240.88065,44.43032 169.86107,-30.9578 257.81076,-86.86615 l 0,0 m 83.02914,0.97693 C 712.79225,249.1709 806.49012,391.30045 660.43769,372.36276 898.22519,431.14285 835.26414,339.94763 912.70952,270.20697 l 0,0 m 90.20348,-6.69175 C 802.12124,253.9472 897.28076,414.32184 751.45202,393.74419 988.56124,455.19221 929.58344,337.57043 1002.913,263.51522 l 0,0 m 90.5212,-11.30939 c -201.02043,-0.38417 -86.8311,145.00646 -233.66868,156.32996 244.77988,8.92129 163.79878,-79.00131 233.66868,-156.32996 l 0,0 m 90.6922,-15.38541 C 983.21051,243.33073 1105.0707,381.82483 959.61234,404.8852 1204.3217,394.15177 1116.9495,316.50009 1184.1264,236.82042 l 0,0 m 89.8497,-19.29768 c -200.5549,13.66621 -72.8636,147.47799 -216.9556,177.92729 243.842,-23.20076 152.6613,-95.90482 216.9556,-177.92729 l 0,0"
       id="path6141"
       inkscape:connector-curvature="0"
       sodipodi:nodetypes="cccccccccccccccccccccccccccccccccccccccccccccccccccc" />
  </g>
</svg>
