<?xml version="1.0" encoding="UTF-8" standalone="no"?>
<svg
   xmlns:dc="http://purl.org/dc/elements/1.1/"
   xmlns:cc="http://creativecommons.org/ns#"
   xmlns:rdf="http://www.w3.org/1999/02/22-rdf-syntax-ns#"
   xmlns:svg="http://www.w3.org/2000/svg"
   xmlns="http://www.w3.org/2000/svg"
   xmlns:sodipodi="http://sodipodi.sourceforge.net/DTD/sodipodi-0.dtd"
   xmlns:inkscape="http://www.inkscape.org/namespaces/inkscape"
   width="297mm"
   height="210mm"
   viewBox="0 0 297 210"
   version="1.1"
   id="svg8"
   inkscape:version="1.0.2 (e86c870879, 2021-01-15, custom)"
   sodipodi:docname="selenas_malarbild.svg">
  <defs
     id="defs2" />
  <sodipodi:namedview
     id="base"
     pagecolor="#ffffff"
     bordercolor="#666666"
     borderopacity="1.0"
     inkscape:pageopacity="0.0"
     inkscape:pageshadow="2"
     inkscape:zoom="0.46106169"
     inkscape:cx="698.2156"
     inkscape:cy="439.58454"
     inkscape:document-units="mm"
     inkscape:current-layer="layer1"
     inkscape:document-rotation="0"
     showgrid="false"
     inkscape:window-width="1920"
     inkscape:window-height="986"
     inkscape:window-x="-11"
     inkscape:window-y="-11"
     inkscape:window-maximized="1" />
  <metadata
     id="metadata5">
    <rdf:RDF>
      <cc:Work
         rdf:about="">
        <dc:format>image/svg+xml</dc:format>
        <dc:type
           rdf:resource="http://purl.org/dc/dcmitype/StillImage" />
        <dc:title></dc:title>
      </cc:Work>
    </rdf:RDF>
  </metadata>
  <g
     inkscape:label="Lager 1"
     inkscape:groupmode="layer"
     id="layer1">
    <path
       id="path869"
       style="fill:#000000;stroke-width:0.12251"
       d="m 49.498226,150.50802 c 2.3899,-2.36382 5.72578,-5.41681 6.08112,-8.85551 1.30623,-3.89419 3.56248,-7.67013 5.59048,-11.45469 0.24023,-2.2482 3.2203,-2.88456 4.04388,-4.31161 2.61598,-3.84273 5.48359,-8.00756 7.96302,-11.43093 4.72035,-7.27841 7.31523,-15.851895 11.8878,-23.307555 1.94849,-2.3115 -0.43395,-6.38728 1.84604,-7.09665 1.19067,1.08074 2.18829,-7.28099 2.35644,-9.50414 1.12558,-5.11107 -2.28353,-7.57301 -6.65705,-7.02682 -4.14058,-0.67792 -5.22424,0.62331 -7.30075,0.25879 -1.64453,0.29389 -4.22449,2.02552 -6.68525,0.20467 -2.38037,-3.36396 -0.44737,-7.13985 2.37409,-8.72334 3.71526,-3.13674 6.25448,-7.37544 9.06436,-11.03733 0.19745,-4.25453 -1.81681,-9.10809 3.45882,-8.3763 5.88852,0.22084 -1.78993,-2.37836 1.29309,-5.91301 3.34551,-2.98308 5.40699,1.63316 5.8537,3.47142 -0.0308,1.92324 0.33791,0.50479 2.016,2.26298 -2.12248,-0.65345 0.68648,1.748 0.45776,0.83343 4.07207,2.66435 3.04059,-4.10762 4.78993,-5.57149 3.910074,-2.60035 7.964494,5.29111 2.429374,5.46424 0.73239,1.13933 2.66071,7.33655 0.62464,2.6378 -2.088764,-3.65066 0.28056,3.47838 1.34257,4.29055 2.67038,2.95255 -1.83483,-3.01469 0.34971,-1.492 1.12631,3.8289 5.98563,4.94366 5.19893,9.667 -0.50477,-3.35335 -2.40999,3.11586 -2.11288,2.6644 1.95661,-1.94106 -0.89476,2.1788 -1.71479,3.59513 -0.81765,5.3544 -0.98217,7.9556 -0.89237,12.64864 -0.91288,5.90182 -1.1371,12.2379 -2.89309,17.36338 -0.684484,3.56209 -2.809194,7.15623 -3.108224,10.549655 -1.3483,2.74472 -1.15992,6.46052 -0.14122,9.63289 -1.3092,2.0494 0.21798,4.19103 1.28981,6.7915 1.822934,6.35271 7.341854,10.4504 9.971464,16.21563 1.50974,2.93153 2.737,5.67343 3.85987,7.77295 2.00397,2.74362 2.22683,11.45183 5.0745,10.22641 3.23128,-3.41788 5.52118,-8.34149 5.27681,-13.32704 3.04359,2.83619 -0.22882,8.63989 -2.5116,11.849 -2.61969,2.83907 -4.0181,7.03536 -6.63978,9.32161 -0.65282,1.87159 -4.14434,3.98787 -4.99852,6.84431 -1.02803,1.75753 -3.03091,2.87555 -4.21396,4.55149 -2.67884,1.36542 -4.984184,5.27075 -7.918044,7.06089 -3.73759,3.27714 -7.9822,6.19697 -13.24578,6.80256 -3.06498,1.33775 -7.72977,-0.43338 -7.90945,-3.85742 -2.68077,-2.51789 4.5547,-9.4545 2.56714,-8.69838 -4.7456,2.17409 -12.80217,2.38993 -13.90734,-3.64159 -4.79035,2.26093 -5.78998,-3.08359 -8.48545,-4.19524 -7.47466,1.50064 -2.20358,-5.72929 -4.52027,-10.81309 -2.39123,-2.4482 2.14666,-1.47009 1.82978,-5.36217 0.45672,-1.37638 -3.5683,2.92095 -3.03531,1.01498 z m 0.76925,3.02797 c 0.87461,-0.39233 -0.89101,-0.34956 0,0 z m 1.91934,6.00299 c -0.23065,6.33986 4.66429,-0.863 1.29952,-3.05553 -1.93229,-3.02252 -1.41625,1.93726 -1.29952,3.05553 z m 0.17644,-5.26793 c 2.31624,-0.036 3.73334,4.42676 2.66579,6.6768 -1.21218,7.56 3.23958,-6.19344 3.38981,-5.29856 -0.003,-2.35816 3.17512,-5.42544 1.80369,-6.40116 1.71197,-2.57569 5.64363,4.68424 1.71663,4.90208 -2.16836,0.50929 -1.10762,5.65238 -2.96407,8.05336 -2.36993,2.46165 0.94974,8.81121 3.98479,4.80853 0.94076,-2.29356 -5.39291,-5.30305 -0.68645,-9.34682 3.55875,-0.84674 5.69155,-2.51654 6.54604,-6.45765 2.89561,-1.25479 0.12029,6.6305 -0.27173,8.54508 -3.88826,8.34443 5.45851,-1.31579 4.21825,6.05826 -4.46008,3.15437 5.03621,2.23484 -2.18156,2.90484 -2.19073,-0.6322 -4.70011,-4.86077 -3.90066,-0.34172 0.97262,3.80758 4.14094,7.04741 8.60633,4.29204 3.76519,-1.57833 7.24922,-2.83366 6.21739,-1.75883 3.43844,-0.34008 4.28622,-5.95783 7.67824,-4.64765 1.84694,1.9165 -0.1232,9.01245 -5.12426,6.95152 -2.76531,0.16714 -5.5413,3.40195 -6.87246,5.23165 3.05152,0.046 8.7725,-0.073 9.61786,4.63031 2.93935,-0.77704 8.45253,-2.60157 4.15229,-5.38028 -1.27522,-4.87515 5.39158,-7.22073 8.42837,-4.01245 4.360064,-2.99519 6.798404,-7.5255 9.510344,-11.77629 3.67866,-4.86948 4.30597,-4.98678 4.3573,-11.43146 0.50175,-4.11944 -6.34854,-1.86223 -6.00785,-7.25286 2.05392,-2.57523 1.88299,-5.53113 -0.31227,-8.24148 -2.54466,-4.43388 -4.98432,-8.01866 -8.714074,-11.41085 -3.4134,-0.80095 -6.60471,-6.18996 -3.23538,-9.05029 0.51421,-4.08218 -3.23543,-6.86965 -1.89915,-10.96305 1.58889,-2.87495 4.53045,-4.404745 3.94251,-8.800705 -0.28582,-4.59578 5.221774,-11.59431 -1.79257,-11.88999 -5.70101,-0.84881 0.30314,-9.59997 4.49174,-5.5776 2.449154,-2.17931 1.786884,-10.82556 2.563534,-14.38089 -4.950434,0.77289 -9.547404,-4.71282 -1.97886,-1.26352 3.74905,-0.16194 5.89465,-4.57803 1.15848,-5.31444 -4.578264,0.49153 -10.835574,-4.09932 -1.472854,-2.02904 3.643974,2.77578 6.863404,2.61403 6.028304,-2.44587 -4.25628,-2.09455 -6.308074,-6.04908 -7.329114,-10.50022 -3.2357,1.08921 -6.90811,2.39235 -9.2456,-2.18131 -2.63263,-0.75202 -2.90262,3.34887 -6.28225,2.79337 -3.72075,1.19121 -0.31117,6.57714 -3.03649,9.0737 -1.67705,2.19718 -4.59308,3.83149 -4.86803,6.39049 -2.55909,0.76641 -2.22713,6.02591 -4.56914,3.7576 -3.37144,1.31508 -1.30722,6.96952 0.71781,5.80397 3.79695,0.12547 9.67907,-2.44929 14.42681,-1.04838 3.44897,1.14589 5.69769,2.8565 4.8386,6.73806 1.26719,-0.0787 0.67935,-5.39023 1.3642,-1.40502 -1.32516,3.1989 -1.01161,5.14438 -1.41059,8.2567 -1.35847,2.64308 -1.61377,6.82095 -2.92392,8.83098 -0.0999,2.52476 -5.89802,7.99503 -0.44329,6.7857 2.9897,1.06744 4.29748,4.858575 1.43972,6.681715 -0.13237,1.97293 -5.14157,-0.93378 -1.36258,1.72249 0.20094,2.95618 -3.10315,-1.34646 -3.61089,-2.73383 -0.57404,-3.200745 -1.80612,-0.0716 -2.73588,1.75375 -1.53557,3.07718 -2.68049,5.19214 -4.45652,8.49997 -1.51263,2.33106 -1.52767,2.87939 -3.30912,5.45355 3.85039,0.5046 2.8682,5.39098 -0.4338,5.91264 -3.68035,-2.22539 -4.59108,1.31557 -6.48021,3.83937 -3.62644,4.01553 -1.50364,2.61595 2.32462,4.02376 2.26664,1.6786 -1.44276,4.35813 -0.59241,4.2784 -5.02615,1.63943 -4.48965,-6.20429 -7.55457,-0.64516 -1.82351,2.56419 -1.90813,4.73984 -3.24337,7.08647 2.55185,1.87245 2.81209,7.54696 -0.4049,7.47244 -3.44093,-0.0292 -4.07084,3.10481 -4.50251,5.02 0.48914,0.39047 -0.57505,0.51876 0.0199,0.75778 z m 8.36224,-14.33368 c 0.27426,-3.38861 4.30069,-4.58675 5.75152,-1.25556 2.17659,4.67649 -7.08122,7.03708 -5.75152,1.25556 z m 1.07625,1.48404 c 5.7319,3.84932 3.4502,-7.58992 0.34925,-2.23472 -0.42496,0.52934 -0.63614,1.27599 -0.34925,2.23472 z m 1.39054,0.10859 c 0.66132,0.59442 -0.68759,0.31678 0,0 z m -1.77639,23.0319 c 0.43949,0.31301 -0.4395,0.313 0,0 z m 6.86056,5.94174 c 0.43642,0.30214 -0.44791,0.14816 0,0 z m 1.66112,1.16384 c 0.88247,0.31995 -1.01368,0.0478 0,0 z m 0.18872,-41.408 c 2.31977,-6.2146 7.83742,0.26487 5.11895,2.69481 -1.27269,1.33623 -5.13082,-1.23037 -5.11895,-2.69481 z m 1.6417,0.36712 c 4.57445,4.31355 1.78773,-5.76257 0,1e-5 z m -0.88522,41.53092 c 0.65419,-0.11394 -0.0316,0.5132 0,0 z m 0.83959,-29.94413 c 1.81308,-4.1414 9.06155,0.4721 6.65277,3.71339 -0.69637,4.66091 -8.69709,0.55454 -6.65277,-3.71338 z m 0.73119,1.92102 c 1.32337,2.60568 5.65702,4.12508 4.7171,-0.70876 -1.08368,-2.48926 -6.26188,-2.46934 -4.7171,0.70876 z m 4.57515,-0.88927 c 0.43154,-0.59696 -0.3008,-0.18916 0,0 z m -5.07798,29.1574 c 0.89152,0.47597 0.0273,0.66941 0,0 z m 0.21668,-19.96914 c 3.466,-3.25884 6.99903,3.46114 2.31701,4.29307 -2.10029,1.1125 -2.31368,-3.01957 -2.31701,-4.29307 z m 0.39691,2.20518 c 0.38012,-1.34676 -0.41084,-0.24646 0,0 z m 0.8137,0.38567 c 4.51958,2.78254 -0.67983,-6.50319 1e-5,1e-5 z m -0.86773,-14.22931 c 0.43106,0.14165 -0.40146,0.32717 0,0 z m 0.79632,32.09764 c 0.23345,0.35287 -0.4208,0.28589 0,0 z m 1.61843,-10.29484 c -0.24847,-2.78375 8.37447,-5.17866 6.92886,0.249 -1.72855,2.28679 -5.07465,2.53304 -6.94878,0.36753 l -0.16616,-0.19964 0.18609,-0.41691 z m 2.04964,-0.24103 c 7.81956,4.08319 1.39267,-6.13948 0,0 z m 1.19447,-48.14833 c -0.0305,-3.95386 6.9507,-3.09289 4.16534,0.92055 -1.18318,0.63638 -4.72698,3.68301 -4.16534,-0.92055 z m 0.52067,0.70144 c -0.5029,1.01351 5.95368,-2.75133 0.7662,-2.01655 0.20473,0.48873 -1.20287,2.02315 -0.7662,2.01655 z m 3.98158,-0.77778 c 0.67492,-0.0769 -0.66439,-0.42687 0,0 z m -2.60063,14.939 c 7.57813,-3.86881 5.74911,9.46761 -0.0508,2.01497 z m 0.8807,2.29838 c 4.54931,2.9253 4.19642,-4.21455 -0.0184,-1.2138 -0.41409,0.4572 0.0522,0.78545 0.0184,1.2138 z m 1.45151,-1.84728 c 0.90281,-0.31992 -1.52728,-0.10291 0,0 z m 2.32046,3.14576 c -0.12244,-0.21442 -0.67463,0.19885 0,0 z m -3.26991,-67.584195 c 0.44429,0.38053 -0.61689,0.23248 0,0 z m 0.5356,105.057635 c 0.66974,0.33841 -0.52094,0.29628 0,0 z m 0.31637,-33.0217 c 2.95559,-4.68873 11.52098,-1.37066 6.79241,3.36592 -0.904,3.21746 -6.19446,1.51147 -5.6469,-0.16693 -0.61171,-0.45525 -1.4702,-2.11168 -1.14551,-3.19899 z m 1.28895,1.74163 c 2.36703,6.26399 9.87828,-4.15959 2.20523,-2.70246 -1.19358,0.27531 -3.69638,0.77248 -2.20523,2.70246 z m 4.03861,-2.45735 c 0.55221,0.10721 -0.5522,0.10721 0,0 z m -5.02292,25.03397 c 0.22601,0.90695 -0.37775,-0.35141 0,0 z m 0.36754,-97.089245 c 0.4395,0.31301 -0.43951,0.31301 0,0 z m 0.3369,97.344795 c 2.61332,1.59005 -1.67431,0.18185 0,0 z m 0.27479,-11.11173 c 2.07109,-1.99791 4.90235,-2.57711 7.25528,-0.47135 2.28081,3.43977 -0.46573,7.04542 -4.12086,5.21526 -1.66189,-0.93082 -4.56785,-2.23058 -3.13442,-4.74391 z m 0.85843,1.78067 c 5.11155,6.89684 8.55688,-5.41107 1.04247,-1.83855 -0.60443,0.0908 -1.78465,1.40725 -1.04247,1.83855 z m -0.50395,-28.47383 c 0.5364,-5.44938 11.31599,-2.87313 7.23311,1.82238 -2.18771,2.69328 -7.27704,2.29045 -7.23311,-1.82238 z m 1.16756,0.56712 c 3.64788,5.34852 9.34526,-4.5015 1.39146,-2.29906 -0.5336,0.52999 -1.86918,1.31184 -1.39146,2.29906 z m -0.80211,37.55027 c 1.18093,-1.02857 2.65314,-5.30342 5.8718,-3.07947 2.58887,4.93163 -4.78165,6.95585 -5.8718,3.07947 z m 1.59651,0.0751 c 2.64097,2.08655 6.55915,-2.90109 0.86967,-2.29815 -0.45759,0.69691 -1.33911,1.27295 -0.86967,2.29815 z M 85.032436,53.247095 c 3.1624,-1.26234 3.52716,4.24275 0.0279,1.48165 l -0.12251,-0.18094 z m 0.73328,56.828415 c 0.97073,-2.75504 8.79521,1.61595 5.09177,4.29072 -2.79913,0.47244 -5.43505,-0.78212 -5.09177,-4.29072 z m 1.1629,0.46128 c -0.61341,3.67451 6.05964,3.45637 2.78708,0.53497 0.36182,-0.23388 -3.09569,-1.78176 -2.78708,-0.53497 z m 1.02092,37.86341 c 0.32629,0.17685 -0.52823,0.0546 0,0 z m 2.60715,-59.917105 c 0.20464,-4.16594 5.75021,-4.65348 7.09157,-1.05414 0.27814,3.61928 -8.09742,6.03929 -7.09157,1.05414 z m 0.50665,-0.85757 c 0.4395,-0.31301 -0.4395,-0.31301 0,0 z m 0.24502,1.93304 c 2.45973,1.16952 7.22505,-0.80625 3.15934,-3.7096 -1.77559,-0.44104 -3.22727,2.32742 -3.15934,3.7096 z m -0.49727,-20.0645 c 0.54985,-1.01196 0.18541,0.88989 0,0 z m 0.25225,6.24802 c 0.43923,0.47095 -0.45377,0.31402 0,0 z m 0,50.290385 c 0.44792,0.14817 -0.43642,0.30214 0,0 z m 0.99195,18.98041 c 1.17919,-4.43101 8.454934,-1.94922 5.99111,2.48008 -1.50478,2.52207 -6.57297,0.71764 -5.99111,-2.48008 z m 1.17124,0.92144 c 4.00333,5.86637 5.47485,-5.94223 -0.19804,-1.41832 l 0.19804,1.41831 z m -0.40137,16.97369 c 1.25039,-3.51456 9.395384,-1.15354 5.22607,2.07688 0.26384,2.66943 -3.48361,3.0229 -5.11662,-0.1654 l -0.23864,-0.99265 0.12921,-0.91883 z m 0.90278,1.58368 c 7.254064,4.0933 3.17459,-7.71692 0,0 z m 4.07346,-1.58368 c 0.44791,0.14817 -0.43642,0.30214 0,0 z m -4.43022,-34.24157 c 0.89526,-3.6809 8.275604,-0.87698 4.98143,2.37199 -2.29243,2.72885 -5.32442,0.53419 -4.98143,-2.37199 z m 1.12244,1.29244 c 3.5108,3.90837 5.02824,-3.96768 0.1179,-1.83933 -0.49537,0.49488 -0.49922,1.30459 -0.1179,1.83933 z m -1.2251,1.15776 c 0.43642,0.30214 -0.44791,0.14817 0,0 z m 2.41345,5.54891 c 2.46159,-6.3254 12.993684,-0.074 6.386274,4.29058 -3.057884,0.93941 -6.749064,-0.67472 -6.386274,-4.29058 z m 1.13935,1.26034 c 2.64305,6.22897 10.189334,-1.955 3.439134,-2.84183 -1.450334,-0.54118 -4.469474,1.156 -3.439134,2.84183 z m 6.179534,2.37901 c 0.42078,-0.28589 -0.23346,-0.35286 0,0 z m -7.104184,12.20448 c 2.09928,-3.31836 10.389744,-4.91249 9.465274,1.08192 -0.46933,2.62365 -6.131844,3.57116 -7.070504,2.29236 -1.34078,-0.59688 -2.30532,-1.90271 -2.39477,-3.37428 z m 1.37287,0.80027 c 1.49719,3.60443 10.217484,0.91861 5.691264,-2.54059 -1.55482,-0.30934 -5.929054,0.41926 -5.691264,2.54059 z m 6.412344,-94.290195 c 0.43641,0.30215 -0.44791,0.14816 0,0 z m 0.98855,102.357175 c -1.29959,-3.89112 6.27695,-6.651 6.0368,-3.1253 -4.42046,-2.71483 -6.51607,3.75856 -4.41125,6.40236 1.248,3.9519 -3.27422,-2.14784 -1.62555,-3.27706 z m 5.15993,-3.4691 c -0.0531,-0.23586 -0.53702,0.17553 0,0 z M 54.430366,147.84078 c 6.95812,2.13234 2.39357,-9.39002 0.92128,-2.18974 -0.30876,0.61777 -1.12822,1.51386 -0.92128,2.18974 z m 2.6563,12.95393 c 0.19885,-0.67464 -0.21442,-0.12244 0,0 z m 3.55685,-6.86554 c 4.12918,-0.7759 1.37422,-6.24817 0,0 z m 0.30531,14.51423 c -0.0531,-0.23586 -0.53702,0.17553 0,0 z m 0.22205,-35.48911 c 0.4395,-0.313 -0.4395,-0.313 0,0 z m 0.52067,29.93457 c 2.79667,3.45202 4.39186,-3.17334 4.0541,-5.17405 -3.19926,-0.79354 -4.67534,2.62338 -4.0541,5.17405 z m 1.06349,4.6693 c 0.47294,0.13766 -0.077,-0.47499 0,0 z m 0.376,1.16908 c 0.43922,-0.47095 -0.45376,-0.31403 0,0 z m 0.36753,-40.18331 c 0.32589,-0.85223 -0.40125,-0.056 0,0 z m 0,1.47012 c 0.4395,-0.31301 -0.4395,-0.31301 0,0 z m 0.12251,38.50366 c 0.8635,-0.63829 -0.84912,-0.1747 0,0 z m 0.68282,-36.05409 c 2.30943,5.20138 7.47284,-3.36289 0.60513,-2.15014 l -0.67729,0.31617 z m 1.03232,32.95585 c 1.65563,0.84818 3.58077,-8.28487 1.98052,-5.51297 -0.93566,1.72385 -1.64302,3.57868 -1.98052,5.51297 z m -0.0153,4.28785 c 1.07223,3.65978 0.65171,-3.03129 0,0 z m 0.72786,1.68101 c 2.10775,1.26764 -0.83,-1.40564 0,0 z m 0.73903,0.58357 c -0.43734,-0.9298 -0.41257,0.17163 0,0 z m 0.75361,-6.91996 c 0.4395,-0.31302 -0.4395,-0.313 0,0 z m 0.70301,1.19399 c 6.7103,4.87118 2.8057,-8.97215 0,0 z m 2.26786,1.45986 c -0.12244,-0.21443 -0.67465,0.19884 0,0 z m 0.3369,-47.0025 c 5.52557,3.76081 4.14386,-6.30865 0.85757,-2.0347 -0.32563,0.35846 -1.61133,1.69628 -0.85757,2.0347 z m 1.40887,-61.867595 c 0.66152,-0.29129 -0.64838,-0.42943 0,0 z m 0.78303,-0.58438 c 0.78201,-1.03201 -1.79182,0.49423 0,0 z m 3.58574,123.394965 c 1.08194,2.08341 4.19542,4.00424 6.04458,2.51723 -3.25981,-0.38444 7.98211,0.2072 0.96939,-3.43028 -1.57247,-1.34159 -7.0241,-2.09704 -5.68603,0.55129 5.61829,5.27125 -1.61846,-1.73855 -1.32794,0.36176 z m 4.20847,1.85979 c 0.73384,0.31775 -0.36074,0.38574 0,0 z m -3.66961,0.90246 c 0.4443,-0.38053 -0.61688,-0.23248 0,0 z m 0.42156,-75.46621 c 0.43922,-0.47095 -0.45376,-0.31403 0,0 z m 0.39816,66.88863 c 0.39698,-0.47385 -0.82436,-0.11192 0,0 z m 0.45218,-0.61068 c 0.84955,-0.62979 -0.50252,-0.19262 0,0 z m 0.15271,4.24903 c -0.0531,-0.23585 -0.53702,0.17554 0,0 z m 0.24502,-7.71813 c -0.0531,-0.23586 -0.53702,0.17553 0,0 z m 0.0995,3.08956 c 3.00462,-2.268 0.26529,-2.02118 0,0 z m 0.36753,4.54489 c 0.4395,-0.313 -0.4395,-0.31302 0,0 z m 1.53003,-6.12439 c 0.22312,-0.90299 -0.50813,0.0311 0,0 z m 1.6782,5.71803 c -0.0531,-0.23585 -0.53702,0.17554 0,0 z m -0.023,-112.670455 c 0.4395,-0.31302 -0.4395,-0.313 0,0 z m 1.49462,32.19565 c -0.54456,5.736215 9.44677,1.0151 3.41402,-2.05819 0.34846,10.623875 -0.20238,-6.44406 -3.41402,2.05819 z m 3.03825,1.923415 c 0.45142,0.64231 -0.45142,0.64229 0,0 z m -1.38551,71.79262 c 6.60814,-2.34525 0.24767,-5.17806 -1.34089,-0.0187 l 1.34088,0.0187 z m -0.99323,-0.54334 c 0.32629,0.17685 -0.52822,0.0546 0,0 z m -0.31648,-70.14669 c 0.44791,-0.14816 -0.43641,-0.30215 0,0 z m 1.04978,-64.860055 c 1.22358,1.45956 5.93813,-2.16142 1.0921,-2.34712 -0.74074,0.15602 -2.31335,1.75945 -1.0921,2.34712 z m -0.002,0.4645 c 0.39644,-0.35174 -0.91554,-0.22412 0,0 z m 1.73698,29.49294 c -0.28893,-0.53452 -0.35305,0.35261 0,0 z m -0.15059,100.551065 c 0.64281,-0.29078 -0.64712,-0.10602 0,0 z m 0.45163,-99.071275 c -0.0531,-0.23586 -0.53702,0.17554 0,0 z m 3.19185,6.87932 c 1.29314,-0.45833 -1.13816,-0.68722 0,0 z m 0.14991,-0.59248 c 0.46132,-0.0427 -0.0831,-1.00654 0,0 z m 0.37907,-0.73507 c 0.43106,-0.14165 -0.40146,-0.32716 0,0 z m -0.0685,103.888565 c 0.44792,-0.14817 -0.43641,-0.30214 0,0 z m 0.1225,-103.030985 c 0.44792,-0.14817 -0.43641,-0.30214 0,0 z m 0.67706,102.597415 c 1.12184,4.14621 7.60648,-1.58728 5.69347,-3.21489 -2.41593,-1.30328 -6.6242,-0.15384 -5.69347,3.21489 z m 1.65062,-70.74479 c 1.54895,6.48732 4.15086,-8.570695 0.73511,-3.73656 -0.30062,1.22574 -0.6644,2.47425 -0.73511,3.73656 z m 0.30628,-25.952275 c 1.55439,4.58804 9.464984,1.01846 5.14319,-2.32405 -2.11731,-1.18029 -5.61629,0.0622 -5.14319,2.32405 z m 0.36322,0.10264 c 0.62158,0.63328 -0.28335,0.66228 0,0 z m 0.23912,37.120555 c 3.09909,8.77446 1.66936,-2.08054 0.13908,-1.2251 l -0.21055,0.12251 z m 0.023,2.90707 c 0.25746,-0.48514 -0.27605,-0.11445 0,0 z m 1.02857,-7.99123 c 0.47248,-0.32498 -0.44472,-0.61114 0,0 z m 0.94483,-70.982205 c 0.56872,-0.49565 -1.07917,0.42272 0,0 z m -0.14851,70.204265 c 0.56902,-0.33211 -0.56903,-0.33211 0,0 z m -0.0144,4.58856 c 0.61235,2.46455 1.1084,3.98227 2.45316,5.9484 0.7069,-0.52718 -1.97515,-5.43025 -2.45249,-5.9484 z m 0.74217,-14.16273 c 0.42079,-0.2859 -0.23345,-0.35285 0,0 z m 0.46869,-65.895225 c -0.0923,-0.27887 -0.45453,0.41007 0,0 z m 0.3563,1.86228 c 2.433064,4.02436 6.671754,-3.10969 1.31693,-2.37828 -1.03038,0.73476 -2.41158,0.35391 -1.31693,2.37828 z m -0.084,55.70337 c 0.57257,-0.63064 -0.61586,0.0799 0,0 z m 0.001,82.002435 c 0.64711,-0.10601 -0.6428,-0.29078 0,0 z m 0.0759,-79.675855 c 1.83124,-4.42076 3.110074,-9.2419 3.446104,-13.87427 -2.248444,2.00733 -1.737914,5.01651 -2.695844,8.26384 -0.42888,2.09261 -1.04475,3.3276 -0.75026,5.61043 z m 0.59795,-3.43029 c 0.4395,0.31301 -0.4395,0.31301 0,0 z m 0.88054,29.864395 c 0.64269,-0.44515 -0.54513,-0.41191 0,0 z m 0.22205,0.33435 c 0.45376,-0.31402 -0.43923,-0.47095 0,0 z m 0.26797,-66.990585 c -0.0531,-0.23586 -0.53702,0.17554 0,0 z m 0.446444,25.64343 c 1.60611,-2.97473 0.0783,-1.88888 0,0 z m 1.0508,-3.1976 c 0.70606,0.58765 1.75328,-8.10708 0.43999,-5.02557 -0.1363,1.63371 -0.80642,3.44679 -0.43999,5.02557 z m 0.80748,-7.7058 c 0.43641,-0.30213 -0.44791,-0.14817 0,0 z m 0.12251,1.11261 c 0.90791,0.0448 -0.13444,-1.53943 0,0 z m 0.31904,-7.39379 c 0.25747,-0.48513 -0.27605,-0.11447 0,0 z m 1.64112,-15.28059 c 0.43642,-0.30214 -0.44791,-0.14816 0,0 z m 0.61255,8.51445 c 0.4485,-0.66959 -0.46004,-0.45579 0,0 z m 0.42879,111.712245 c 0.70838,-0.73682 -0.63306,0.19544 0,0 z m 2.70798,-3.26274 c 0.25747,-0.48513 -0.27605,-0.11446 0,0 z m 0.7409,-21.6835 c 2.30612,4.58519 4.68143,0.84274 1.55832,-1.95841 -0.37431,-2.50113 -2.7342,-0.26635 -1.55832,1.95841 z m 3.04807,16.61405 c 0.63319,-0.36894 -0.8238,-0.0196 0,0 z m 0.13136,-2.15864 c 0.25746,-0.48514 -0.27605,-0.11447 0,0 z m 1.75052,-1.43695 c 0.68474,-0.52599 -0.47513,-0.77544 0,0 z m 0.69456,-2.36147 c 1.3733,-2.70398 -0.88789,-2.33631 0,0 z m -0.19141,1.99394 c 1.96954,-1.79078 -0.10684,-2.185 0,0 z m 1.96016,-2.51146 c 0.4395,-0.31299 -0.4395,-0.31301 0,0 z m 7.15961,-11.08716 c 0.42079,-0.2859 -0.23345,-0.35285 0,0 z m -72.763774,6.08121 c 0.64711,0.106 -0.6428,0.29078 0,0 z m 1.65004,0.41183 c 0.21748,0.49102 -0.39945,0.47829 0,0 z m 2.64802,-5.74831 c 0.3263,0.17684 -0.52822,0.0546 0,0 z m 0.90651,42.58779 c 0.74689,0.48411 -0.77515,0.35775 0,0 z m 8.45531,-60.36142 c 0.43641,0.30215 -0.44791,0.14816 0,0 z m 0.43899,0.13218 c 0.32629,0.17684 -0.52822,0.0546 0,0 z m 10.77866,-58.572535 c 2.10012,-0.38446 -1.09843,1.23125 0,0 z m 3.61112,-23.64141 c 1.38497,0.12771 -0.29642,0.73925 0,0 z m 7.22893,35.21979 c 1.69914,0.74053 -0.69786,0.1362 0,0 z m 0.1094,0.55316 c 0.61689,0.23247 -0.4443,0.38054 0,0 z m 0.25225,-3.24652 c 0.43641,0.30214 -0.44791,0.14818 0,0 z m 0.98008,-6.18676 c 0.8516,0.29574 -0.85161,0.29573 0,0 z m 14.405144,54.771675 c 0.32629,0.17684 -0.52822,0.0546 0,0 z m 2.37874,-63.837415 c 0.43641,0.30215 -0.44791,0.14815 0,0 z m 2.03162,-4.64572 c 0.32629,0.17685 -0.52822,0.0546 0,0 z m 0.72227,-0.22406 c 0.88797,-2.84157 0.61325,0.81893 0,0 z m 2.35271,79.822975 c 0.17549,0.53705 -0.23589,0.0531 0,0 z m 3.83049,7.92108 c 1.74692,-1.28996 0.6017,0.91742 0,0 z m 12.71778,-0.0949 c 1.00569,-0.6505 0.72707,1.68722 0,0 z m 16.53838,-10.00843 c 0.10334,-2.02257 4.57854,-6.21098 3.88897,-4.4782 -3.93912,0.4274 -1.83465,10.15573 -3.72115,5.80507 l -0.18189,-0.2297 z m 1.54817,3.18527 c 0.91719,0.56633 -0.66548,0.63342 0,0 z m 1.15064,1.72291 c 2.07849,4.3624 18.2727,1.00985 9.28798,0.38317 -5.04641,-1.55975 -7.52249,-8.21935 -5.69419,-13.01303 1.30266,-3.9663 2.3792,-9.78497 1.27557,-14.50668 1.56,-7.09576 6.5104,-12.250635 12.46346,-16.162705 5.75807,-2.36724 12.88544,-3.04772 16.14897,-2.89483 2.63376,1.48838 5.24679,4.28586 6.79124,7.360285 0.84409,3.26028 2.98761,6.43062 2.29471,9.86232 7.56165,-5.3371 16.89828,-5.57236 25.5565,-7.60338 9.24032,-0.13962 19.66554,-0.49854 27.03201,5.77268 1.84565,1.75537 5.44235,4.65103 6.85068,6.60611 1.33228,1.87941 2.6309,5.4479 3.50133,8.07326 2.19589,1.60339 0.64673,7.45633 0.60596,10.1783 0.45113,3.59212 -1.97226,6.10272 -2.6821,9.9798 -2.00746,4.34937 -5.80713,7.46515 -4.67699,12.79859 0.24814,5.46184 -7.85681,10.68278 -11.74659,6.37423 -2.70365,-0.93085 -4.25667,-6.87812 -5.39363,-2.50949 -0.2326,4.52104 -5.24996,7.05904 -8.83965,5.48036 -2.80641,-1.98735 -5.0167,-5.04205 -7.35912,-7.19531 -4.23226,-4.76405 -3.1445,3.36554 -4.85669,6.00087 -1.6732,4.61653 -7.60699,1.46469 -9.41947,-0.24502 -0.59926,4.00399 -6.03109,6.66488 -8.4709,2.63397 -3.10158,-3.76701 -5.51817,-8.63268 -5.39962,-13.53736 -0.45041,-2.16226 0.29494,-4.83354 -0.78237,-6.50299 -1.67366,-5.46093 -6.72188,-10.37183 -11.78319,-12.03716 -4.37348,-1.01235 -5.61853,4.41811 -9.11873,5.23955 -2.01892,1.22032 -5.15062,2.93218 -6.50985,3.02016 -1.91807,0.41737 -7.57948,-0.98421 -7.22798,-1.66016 0.18605,-0.9805 -2.90333,-1.22316 -1.84734,-1.89554 z m 4.26684,-8.79461 c -0.32294,6.63453 8.0589,11.05753 12.98946,6.58166 2.08842,-4.28693 7.47624,-4.76489 11.40865,-3.00054 1.18181,1.68608 6.1151,5.32029 7.79253,8.80124 3.24484,2.91567 3.8677,8.91531 2.49642,11.98266 0.69012,4.45174 1.91921,8.34267 5.54728,11.91776 7.15485,2.03248 5.53634,-8.39089 4.26937,-12.54977 -0.34508,-11.01039 3.89759,2.91372 3.17757,7.1886 0.54496,3.73041 7.30808,5.15941 7.80198,0.77431 2.0231,-4.00575 0.40469,-8.12251 2.22071,-11.40731 1.43532,1.22881 1.07226,2.23672 3.41367,5.23214 3.29154,3.14297 7.33072,7.32373 12.20616,6.66624 4.22843,-2.29754 4.45709,-8.46581 4.54417,-12.81693 0.96721,4.66131 2.49412,15.07883 10.80103,12.2578 4.65145,-0.34968 6.70832,-10.33284 3.50962,-11.08008 -2.82346,0.0758 4.23326,-4.25682 4.9203,-6.51364 4.65823,-7.67946 5.12553,-18.34056 1.17078,-25.92119 -4.97706,-8.38515 -14.91036,-15.18539 -25.28579,-14.50019 -8.41346,-0.78255 -16.69612,1.22458 -24.85155,2.88399 -3.09572,1.62326 -7.08244,2.24336 -9.4575,4.76876 -2.21603,-2.23885 -1.41589,-7.14914 -3.35874,-10.14194 -2.00554,-4.291375 -1.75069,5.10859 -5.08919,5.63206 -2.76412,2.34938 -6.90236,3.21655 -10.56004,1.93353 2.76044,-0.99915 11.12046,-1.12423 11.19196,-4.98421 -2.94383,0.22512 -5.45552,5.306 -9.58391,3.69931 -3.0026,-2.29631 6.78417,-0.26911 7.43758,-4.43806 -1.85096,-1.63867 -4.64594,-0.28748 -6.13944,-1.04366 -4.95665,2.04557 -3.35945,-2.37278 1.60905,-1.42831 6.73401,3.32445 9.39067,-4.783655 3.14039,-5.826885 -5.14986,-1.20938 -9.57359,0.2316 -14.00329,2.04368 -4.07851,2.51652 -8.1289,6.241065 -9.40703,10.840295 -0.35441,2.21988 -2.58933,8.20324 -1.8902,12.3077 0.0726,3.52632 -2.51528,6.64115 -2.022,10.14098 z m 0.99983,-0.562 c 3.18484,-0.97023 -0.20767,4.48055 0,0 z m 11.02031,-12.1011 c 4.97625,2.28488 -2.94436,7.47818 0,0 z m 39.84049,38.66784 c 0.47294,-0.13766 -0.077,0.475 0,0 z m 15.56725,-40.73984 c 0.43641,0.30215 -0.44791,0.14816 0,0 z m -65.7339,-2.57271 c 0.4208,-0.28591 -0.23346,-0.35285 0,0 z m 0.24502,0.36753 c 0.4208,-0.28591 -0.23346,-0.35285 0,0 z m 0.81169,-4.22156 c 0.7245,0.0709 -0.56342,-0.68309 0,0 z m 21.33158,-15.051355 c -0.0531,-0.23586 -0.53701,0.17555 0,0 z m 0.46708,13.147415 c 0.44791,-0.14817 -0.43642,-0.30214 0,0 z m 4.17257,-12.986075 c 1.1674,0.44346 -0.97732,-0.53909 0,0 z m 2.62061,8.710115 c 2.21575,0.0591 -1.37716,-0.5918 0,0 z m 0.1275,-1.67644 c 3.24889,0.022 0.29538,-5.821655 0.005,-0.22565 l -0.29488,0.24556 0.28985,-0.0199 z m 1.53251,50.30105 c 0.4395,-0.313 -0.4395,-0.31302 0,0 z m 0.18377,-0.73506 c 0.73045,-1.12616 -0.6956,0.32927 0,0 z m 3.56002,-46.0638 c 0.43106,-0.14166 -0.40146,-0.32716 0,0 z m 1.46289,6.003 c 0.64711,-0.10602 -0.64281,-0.29078 0,0 z m 6.67295,43.00104 c 0.21748,-0.49102 -0.39945,-0.47829 0,0 z m 22.84475,9.43327 c 0.4208,-0.28589 -0.23346,-0.35285 0,0 z m 0.9773,0.65905 c 5.39157,1.21323 5.46545,-0.16782 -0.37539,-0.90358 l -0.13682,0.29181 0.51223,0.61225 z m 5.11715,-0.57536 c -0.0531,-0.23585 -0.53701,0.17554 0,0 z m -75.82856,-35.37092 c 0.98829,-1.08047 -0.92027,2.23545 0,0 z m 17.19598,71.06018 c 1.13876,0.51386 -0.92188,0.62082 0,0 z M 182.70089,96.446285 c 0.43923,0.47095 -0.45377,0.31401 0,0 z m 16.97785,-29.39275 c 0.3263,0.17684 -0.52821,0.0546 0,0 z m 51.49547,55.576985 c 0.55675,0.0246 -0.51428,0.28751 0,0 z"
       sodipodi:nodetypes="cccccccccccccccccccccccccccccccccccccccccccccccccccccsccccccccccccccccccccccccccccccccccccccccccccccccccccccccccccccsscccccccccccccccccsssccscssccccccccccccsssccccsccccscccccccccccccccccccccccccccccccccccccccccccccccccccccccccccccccccccccccccccccccccccccccsccssccccscccccccccccccccccccccccccccccccccccccccccccccccccccccccccccccccccccccccccccccccccccccccccccccccccccccccccccccccccccccccsccsccccccccccccccccccccccccccccccccccccccccccccccccccccccccccccccccccccccccccccccccccccccccccccccccccccccccccccccccccccccccccccccccccccccccccccccccccccccccccccccccccccccccccccccccccccccccccccccccccccccccccccccccccccccccccccccccccccccccccccccccscccsccccccccccccccccccccccccccccc" />
  </g>
</svg>
