<?xml version="1.0" encoding="UTF-8" standalone="no"?>
<!-- Created with Inkscape (http://www.inkscape.org/) -->

<svg
   xmlns:dc="http://purl.org/dc/elements/1.1/"
   xmlns:cc="http://creativecommons.org/ns#"
   xmlns:rdf="http://www.w3.org/1999/02/22-rdf-syntax-ns#"
   xmlns:svg="http://www.w3.org/2000/svg"
   xmlns="http://www.w3.org/2000/svg"
   xmlns:sodipodi="http://sodipodi.sourceforge.net/DTD/sodipodi-0.dtd"
   xmlns:inkscape="http://www.inkscape.org/namespaces/inkscape"
   width="744.09448819"
   height="1052.3622047"
   id="svg4216"
   version="1.1"
   inkscape:version="0.48.2 r9819"
   sodipodi:docname="New document 2">
  <defs
     id="defs4218">
    <inkscape:path-effect
       effect="skeletal"
       id="path-effect4618"
       is_visible="true"
       pattern="m 10,148.08601 c 12.7187,-13.4365 27.7488,-24.069 43.6911,-33.3509 C 84.8416,96.59851 119.5972,75.5174 153.622,59.92009 162.018,56.07126 170.6081,52.6608 179.1012,49.03115 233.8846,28.54905 292.0746,19.67848 349.5154,10 c 0,0 -48.1898,36.25706 -48.1898,36.25706 l 0,0 c -57.405,9.6858 -115.48,19.26481 -169.9462,40.52695 -8.4502,3.7292 -16.9969,7.2471 -25.3507,11.1876 -22.8874,10.7962 -47.2456,25.4605 5.2025,-5.5485 6.5185,-3.8539 -13.1553,7.5353 -19.4131,11.7996 -4.7544,3.2399 -9.1803,6.9473 -13.5644,10.6728 -2.8408,2.414 -5.3911,5.1504 -8.0866,7.7256 0,0 -60.1671,25.4649 -60.1671,25.4649 z"
       copytype="single_stretched"
       prop_scale="1"
       scale_y_rel="false"
       spacing="0"
       normal_offset="0"
       tang_offset="0"
       prop_units="false"
       vertical_pattern="false"
       fuse_tolerance="0" />
    <inkscape:path-effect
       effect="spiro"
       id="path-effect4616"
       is_visible="true" />
    <inkscape:path-effect
       effect="skeletal"
       id="path-effect4540"
       is_visible="true"
       pattern="m 236.2742,165.5635 c 0,85.91534 -50.6532,155.56349 -113.1371,155.56349 C 60.6532,321.12699 10,251.47884 10,165.5635 10,79.648148 60.6532,10 123.1371,10 185.621,10 236.2742,79.648148 236.2742,165.5635 z"
       copytype="single_stretched"
       prop_scale="1"
       scale_y_rel="false"
       spacing="0"
       normal_offset="0"
       tang_offset="0"
       prop_units="false"
       vertical_pattern="false"
       fuse_tolerance="0" />
    <inkscape:path-effect
       effect="spiro"
       id="path-effect4538"
       is_visible="true" />
    <inkscape:path-effect
       effect="skeletal"
       id="path-effect4470"
       is_visible="true"
       pattern="m 103.75685,10 93.75684,68.11833 -35.81193,110.21778 -115.88983,0 L 10,78.11833 z"
       copytype="single_stretched"
       prop_scale="1"
       scale_y_rel="false"
       spacing="0"
       normal_offset="0"
       tang_offset="0"
       prop_units="false"
       vertical_pattern="false"
       fuse_tolerance="0" />
    <inkscape:path-effect
       effect="spiro"
       id="path-effect4468"
       is_visible="true" />
    <inkscape:path-effect
       effect="skeletal"
       id="path-effect4431"
       is_visible="true"
       pattern="m 10,10 127.14286,0 0,127.14286 -127.14286,0 z"
       copytype="single_stretched"
       prop_scale="1"
       scale_y_rel="false"
       spacing="0"
       normal_offset="0"
       tang_offset="0"
       prop_units="false"
       vertical_pattern="false"
       fuse_tolerance="0" />
    <inkscape:path-effect
       effect="spiro"
       id="path-effect4429"
       is_visible="true" />
    <inkscape:path-effect
       effect="skeletal"
       id="path-effect4419"
       is_visible="true"
       pattern="m 10,10 127.14286,0 0,127.14286 -127.14286,0 z"
       copytype="single_stretched"
       prop_scale="1"
       scale_y_rel="false"
       spacing="0"
       normal_offset="0"
       tang_offset="0"
       prop_units="false"
       vertical_pattern="false"
       fuse_tolerance="0" />
    <inkscape:path-effect
       effect="spiro"
       id="path-effect4417"
       is_visible="true" />
    <inkscape:path-effect
       effect="skeletal"
       id="path-effect4382"
       is_visible="true"
       pattern="M 107.42101,124.86718 70.18828,105.15792 32.84445,124.65587 40.08353,83.15494 10,53.66405 51.70673,47.72433 70.45791,10 l 18.5371,37.82998 41.6724,6.17598 -30.25017,29.31993 z"
       copytype="single_stretched"
       prop_scale="1"
       scale_y_rel="false"
       spacing="0"
       normal_offset="0"
       tang_offset="0"
       prop_units="false"
       vertical_pattern="false"
       fuse_tolerance="0" />
    <inkscape:path-effect
       effect="spiro"
       id="path-effect4380"
       is_visible="true" />
    <inkscape:path-effect
       effect="skeletal"
       id="path-effect4370"
       is_visible="true"
       pattern="M 107.42101,124.86718 70.18828,105.15792 32.84445,124.65587 40.08353,83.15494 10,53.66405 51.70673,47.72433 70.45791,10 l 18.5371,37.82998 41.6724,6.17598 -30.25017,29.31993 z"
       copytype="single_stretched"
       prop_scale="1"
       scale_y_rel="false"
       spacing="0"
       normal_offset="0"
       tang_offset="0"
       prop_units="false"
       vertical_pattern="false"
       fuse_tolerance="0" />
    <inkscape:path-effect
       effect="spiro"
       id="path-effect4368"
       is_visible="true" />
    <inkscape:path-effect
       effect="skeletal"
       id="path-effect4335"
       is_visible="true"
       pattern="m -314.00756,96.295751 -37.23273,-19.70926 -37.34383,19.49795 7.23908,-41.50093 -30.08353,-29.49089 41.70673,-5.93972 18.75118,-37.72433 18.5371,37.82998 41.6724,6.17598 -30.25017,29.31993 z"
       copytype="single_stretched"
       prop_scale="1"
       scale_y_rel="false"
       spacing="0"
       normal_offset="0"
       tang_offset="0"
       prop_units="false"
       vertical_pattern="false"
       fuse_tolerance="0" />
    <inkscape:path-effect
       effect="spiro"
       id="path-effect4333"
       is_visible="true" />
    <inkscape:path-effect
       effect="skeletal"
       id="path-effect4323"
       is_visible="true"
       pattern="M 107.42101,124.86718 70.18828,105.15792 32.84445,124.65587 40.08353,83.15494 10,53.66405 51.70673,47.72433 70.45791,10 l 18.5371,37.82998 41.6724,6.17598 -30.25017,29.31993 z"
       copytype="single_stretched"
       prop_scale="1"
       scale_y_rel="false"
       spacing="0"
       normal_offset="0"
       tang_offset="0"
       prop_units="false"
       vertical_pattern="false"
       fuse_tolerance="0" />
    <inkscape:path-effect
       effect="spiro"
       id="path-effect4321"
       is_visible="true" />
    <inkscape:path-effect
       effect="skeletal"
       id="path-effect4311"
       is_visible="true"
       pattern="M 107.42101,124.86718 70.18828,105.15792 32.84445,124.65587 40.08353,83.15494 10,53.66405 51.70673,47.72433 70.45791,10 l 18.5371,37.82998 41.6724,6.17598 -30.25017,29.31993 z"
       copytype="single_stretched"
       prop_scale="1"
       scale_y_rel="false"
       spacing="0"
       normal_offset="0"
       tang_offset="0"
       prop_units="false"
       vertical_pattern="false"
       fuse_tolerance="0" />
    <inkscape:path-effect
       effect="spiro"
       id="path-effect4309"
       is_visible="true" />
    <inkscape:path-effect
       effect="skeletal"
       id="path-effect4299"
       is_visible="true"
       pattern="M 107.42101,124.86718 70.18828,105.15792 32.84445,124.65587 40.08353,83.15494 10,53.66405 51.70673,47.72433 70.45791,10 l 18.5371,37.82998 41.6724,6.17598 -30.25017,29.31993 z"
       copytype="single_stretched"
       prop_scale="1"
       scale_y_rel="false"
       spacing="0"
       normal_offset="0"
       tang_offset="0"
       prop_units="false"
       vertical_pattern="false"
       fuse_tolerance="0" />
    <inkscape:path-effect
       effect="spiro"
       id="path-effect4297"
       is_visible="true" />
    <inkscape:path-effect
       effect="skeletal"
       id="path-effect4271"
       is_visible="true"
       pattern="M 0,5 C 0,2.24 2.24,0 5,0 7.76,0 10,2.24 10,5 10,7.76 7.76,10 5,10 2.24,10 0,7.76 0,5 z"
       copytype="single_stretched"
       prop_scale="1"
       scale_y_rel="false"
       spacing="0"
       normal_offset="0"
       tang_offset="0"
       prop_units="false"
       vertical_pattern="false"
       fuse_tolerance="0" />
    <inkscape:path-effect
       effect="spiro"
       id="path-effect4269"
       is_visible="true" />
    <inkscape:path-effect
       effect="skeletal"
       id="path-effect4240"
       is_visible="true"
       pattern="M 0,5 C 0,2.24 2.24,0 5,0 7.76,0 10,2.24 10,5 10,7.76 7.76,10 5,10 2.24,10 0,7.76 0,5 z"
       copytype="single_stretched"
       prop_scale="1"
       scale_y_rel="false"
       spacing="0"
       normal_offset="0"
       tang_offset="0"
       prop_units="false"
       vertical_pattern="false"
       fuse_tolerance="0" />
    <inkscape:path-effect
       effect="spiro"
       id="path-effect4238"
       is_visible="true" />
    <inkscape:path-effect
       effect="skeletal"
       id="path-effect4234"
       is_visible="true"
       pattern="M 0,5 C 0,2.24 2.24,0 5,0 7.76,0 10,2.24 10,5 10,7.76 7.76,10 5,10 2.24,10 0,7.76 0,5 z"
       copytype="single_stretched"
       prop_scale="1"
       scale_y_rel="false"
       spacing="0"
       normal_offset="0"
       tang_offset="0"
       prop_units="false"
       vertical_pattern="false"
       fuse_tolerance="0" />
    <inkscape:path-effect
       effect="spiro"
       id="path-effect4232"
       is_visible="true" />
    <inkscape:path-effect
       effect="skeletal"
       id="path-effect4228"
       is_visible="true"
       pattern="m 0,105.71429 0,10 10,-5 z"
       copytype="single_stretched"
       prop_scale="1"
       scale_y_rel="false"
       spacing="0"
       normal_offset="0"
       tang_offset="0"
       prop_units="false"
       vertical_pattern="false"
       fuse_tolerance="0" />
    <inkscape:path-effect
       effect="spiro"
       id="path-effect4226"
       is_visible="true" />
  </defs>
  <sodipodi:namedview
     id="base"
     pagecolor="#ffffff"
     bordercolor="#666666"
     borderopacity="1.0"
     inkscape:pageopacity="0.0"
     inkscape:pageshadow="2"
     inkscape:zoom="0.22627417"
     inkscape:cx="375"
     inkscape:cy="519.7019"
     inkscape:document-units="px"
     inkscape:current-layer="layer1"
     showgrid="false"
     inkscape:window-width="1366"
     inkscape:window-height="721"
     inkscape:window-x="-4"
     inkscape:window-y="24"
     inkscape:window-maximized="1" />
  <metadata
     id="metadata4221">
    <rdf:RDF>
      <cc:Work
         rdf:about="">
        <dc:format>image/svg+xml</dc:format>
        <dc:type
           rdf:resource="http://purl.org/dc/dcmitype/StillImage" />
        <dc:title></dc:title>
      </cc:Work>
    </rdf:RDF>
  </metadata>
  <g
     inkscape:label="Layer 1"
     inkscape:groupmode="layer"
     id="layer1">
    <path
       style="fill:#000000;fill-rule:evenodd;stroke:none"
       d="m 235.56319,243.07875 0.30218,9.99544 c 7.63436,-0.30009 15.42597,1.538 22.14931,5.24307 6.72673,3.69904 12.47841,9.31775 16.34507,15.99162 3.87242,6.67059 5.90997,14.48509 5.77902,22.2335 0,1e-5 0,2e-5 0,3e-5 -0.1246,7.74859 -2.42039,15.52782 -6.54901,22.12902 -5.12172,8.33699 -13.30659,14.8237 -22.17968,20.18147 -8.91225,5.33175 -18.76221,9.5294 -28.47169,14.51849 -9.7351,4.9559 -19.40811,10.90584 -27.18691,19.2101 -10e-6,1e-5 -2e-5,2e-5 -3e-5,3e-5 -7.83632,8.32648 -13.28703,19.43053 -13.26153,31.21933 0.0861,6.63721 1.93239,13.09097 4.96669,18.81313 3.02835,5.71512 7.13267,10.72095 11.77736,15.00314 1e-5,10e-6 2e-5,2e-5 3e-5,3e-5 9.2967,8.54084 20.39051,14.31438 31.14708,19.84526 10.72613,5.57401 21.41305,11.10595 29.90024,19.10081 4.24666,3.98756 7.9511,8.54515 10.57367,13.64859 1e-5,10e-6 1e-5,2e-5 2e-5,3e-5 2.61801,5.09767 4.19941,10.75722 4.17606,16.41472 0,1e-5 0,2e-5 0,3e-5 0.001,5.50323 -1.51614,11.02857 -4.02941,16.04839 -2.5172,5.02445 -6.06637,9.55673 -10.14174,13.56965 -8.14656,8.0393 -18.40074,13.85856 -28.57393,19.78388 -10.19173,5.90079 -20.56877,12.12749 -28.79305,20.87443 -4.10998,4.37903 -7.61773,9.39094 -9.99758,14.94712 -2.38182,5.55896 -3.57708,11.67629 -3.09389,17.73034 0.46123,5.63844 2.36401,11.07651 5.19946,15.90281 0,10e-6 1e-5,2e-5 2e-5,3e-5 2.83389,4.82478 6.56148,9.05589 10.73278,12.71107 8.3443,7.30495 18.29679,12.31552 28.07852,17.25334 9.7764,4.94557 19.62801,9.9797 27.72768,17.28922 4.05013,3.6537 7.636,7.86326 10.29953,12.629 2.66315,4.76523 4.39155,10.10155 4.68151,15.56874 0.0505,0.95074 0.0578,1.90409 0.0219,2.85615 0.0505,-0.9514 0.0578,-1.90541 0.0219,-2.85813 -0.20664,-5.47868 -1.85628,-10.86935 -4.46599,-15.7091 -2.60956,-4.83966 -6.15838,-9.14345 -10.18885,-12.89062 -8.06166,-7.49235 -17.90894,-12.73228 -27.61613,-17.82032 -9.70189,-5.09582 -19.50343,-10.21003 -27.52539,-17.4801 -4.01175,-3.63225 -7.56231,-7.78396 -10.20134,-12.45214 -1e-5,-10e-6 -1e-5,-2e-5 -2e-5,-3e-5 -2.63724,-4.66628 -4.37084,-9.86128 -4.71136,-15.15064 -0.37749,-5.67683 0.85433,-11.4256 3.17553,-16.64792 2.32342,-5.22569 5.7485,-9.94257 9.74606,-14.08631 7.99092,-8.29871 18.22448,-14.1783 28.46592,-19.93825 10.26009,-5.73548 20.8122,-11.54916 29.57696,-19.86529 10e-6,0 2e-5,-1e-5 3e-5,-2e-5 4.38022,-4.16473 8.24879,-8.97035 11.09921,-14.41298 2.85409,-5.44674 4.6149,-11.55095 4.73527,-17.80965 0,-1e-5 0,-1e-5 0,-2e-5 0.0989,-6.4354 -1.54244,-12.79493 -4.38229,-18.48915 -1e-5,0 -1e-5,-1e-5 -1e-5,-1e-5 -2.83561,-5.68902 -6.78042,-10.73207 -11.29649,-15.08019 -9.03843,-8.67662 -20.0323,-14.66195 -30.70824,-20.35903 -10.6455,-5.74024 -21.26177,-11.40558 -29.60065,-19.41989 -4.17302,-3.99531 -7.79507,-8.52376 -10.33177,-13.54638 -2.53047,-5.01504 -4.04478,-10.53764 -3.99654,-15.99392 -0.0417,-9.67988 4.97429,-19.14171 11.86449,-26.43696 1e-5,0 1e-5,-10e-6 1e-5,-10e-6 6.95424,-7.32436 16.03753,-12.62057 25.48224,-17.33169 9.47078,-4.67817 19.51118,-8.79252 29.13267,-14.31612 9.65924,-5.49676 18.86496,-12.7202 25.27788,-22.50007 1e-5,0 1e-5,-1e-5 1e-5,-1e-5 5.07137,-7.84874 7.95532,-17.05712 8.25826,-26.43331 0,-10e-6 0,-2e-5 0,-3e-5 0.29659,-9.37634 -1.99144,-18.78674 -6.58646,-27.00716 -4.60079,-8.21716 -11.44014,-15.12342 -19.64878,-19.81337 -8.21203,-4.68392 -17.66787,-7.08073 -27.15579,-6.86319 z"
       id="path4224"
       inkscape:path-effect="#path-effect4226;#path-effect4228"
       inkscape:original-d="m 235.71428,248.07647 c 0,0 44.42344,30.08227 41.42858,72.85715 -2.99486,42.77488 -89.08291,39.41946 -91.42857,82.85714 -2.34566,43.43768 90.70675,57.61153 91.42857,102.85714 0.72182,45.24561 -86.9759,59.67322 -85.71429,102.85714 1.26161,43.18392 77.8581,71.562 85.71429,91.42858 7.85619,19.86658 0,2.85714 0,2.85714"
       inkscape:connector-curvature="0"
       sodipodi:nodetypes="czzzzzc" />
    <path
       style="fill:#000000;fill-rule:evenodd;stroke:none"
       d="m 475.71429,250.93361 c 0.0445,-0.23413 0.81075,-0.33946 2.25719,-0.24673 1.44644,0.0927 3.5749,0.38696 6.29165,1.0638 2.71675,0.67685 6.0246,1.7406 9.74201,3.42557 3.71742,1.68497 7.84736,3.99563 12.07679,7.15341 3.77345,2.81258 7.63317,6.30564 11.24924,10.58498 3.61607,4.27934 6.98938,9.34698 9.66608,15.22423 2.14095,4.7227 3.8057,9.92602 4.82601,15.49117 1.02032,5.56515 1.39587,11.49248 0.96786,17.58283 -0.36913,5.34895 -1.35842,10.83377 -3.06197,16.26862 -1.70355,5.43485 -4.1215,10.81964 -7.33566,15.91923 -4.18411,6.52087 -9.36949,12.35778 -15.0039,17.84485 -5.63442,5.48706 -11.71628,10.62505 -17.5007,15.91585 -5.39683,4.99803 -10.61205,10.2013 -14.83728,16.07861 -3.96846,5.54396 -7.19363,11.67882 -8.61468,18.17468 -0.0394,0.18026 -0.0774,0.36069 -0.11402,0.54127 -1.66461,7.70134 -0.75574,15.92354 1.45374,23.62879 2.31455,8.0122 6.20963,15.54436 10.46964,22.76911 4.50475,7.60223 9.49481,14.8935 14.02727,22.35397 4.81631,7.8923 9.06924,16.05301 11.86768,24.52857 3.50096,10.7081 4.44116,21.50082 3.60282,31.39802 -0.83834,9.89719 -3.4512,18.90221 -7.0386,26.56802 -3.90156,8.31844 -8.88205,15.00523 -13.84162,20.20815 -4.95957,5.20293 -9.90344,8.93668 -14.13745,11.58459 -4.23402,2.64791 -7.76493,4.22616 -10.21159,5.11902 -2.44666,0.89287 -3.8137,1.11425 -3.94337,0.81939 -0.12967,-0.29486 0.98082,-1.09327 3.09465,-2.50147 2.11383,-1.40819 5.23413,-3.44124 8.95165,-6.41795 3.71752,-2.97671 8.03878,-6.91327 12.30525,-12.1023 4.26647,-5.18902 8.48426,-11.64419 11.64781,-19.40497 2.92092,-7.14622 4.92625,-15.42618 5.35742,-24.39832 0.43116,-8.97214 -0.71364,-18.63974 -4.06946,-28.04922 -2.6462,-7.49889 -6.76412,-14.91175 -11.50402,-22.44613 -4.49403,-7.11108 -9.59767,-14.34116 -14.42308,-22.26177 -4.60279,-7.52054 -8.8976,-15.76028 -11.67209,-24.95139 -2.69557,-8.87608 -3.71102,-18.71528 -1.72533,-28.48885 0.0488,-0.2279 0.0991,-0.45532 0.15089,-0.68226 1.8678,-8.1776 5.66832,-15.52771 10.31967,-21.83946 4.90708,-6.68329 10.59797,-12.33249 16.28487,-17.45523 6.01984,-5.48791 12.09675,-10.48754 17.53728,-15.56708 5.44054,-5.07955 10.24358,-10.24036 13.92245,-15.90074 2.86952,-4.32519 5.08098,-8.96348 6.69268,-13.68899 1.61169,-4.72551 2.62365,-9.53817 3.10405,-14.26012 0.53939,-5.37766 0.39174,-10.65354 -0.32351,-15.63676 -0.71524,-4.98321 -1.99792,-9.67412 -3.71752,-13.95937 -2.13127,-5.34133 -4.93617,-10.06641 -8.00183,-14.14857 -3.06567,-4.08216 -6.39322,-7.52311 -9.68197,-10.38483 -3.69116,-3.20622 -7.34237,-5.69516 -10.65918,-7.63681 -3.31681,-1.94166 -6.30217,-3.34041 -8.76911,-4.39444 -2.46694,-1.05403 -4.41803,-1.76785 -5.73176,-2.30055 -1.31373,-0.53271 -1.99145,-0.88829 -1.94695,-1.12242 z"
       id="path4230"
       inkscape:path-effect="#path-effect4232;#path-effect4234"
       inkscape:original-d="m 475.71429,250.93361 c 0,0 47.4845,67.13099 42.85714,100 -4.62736,32.86901 -52.29752,38.10663 -57.14286,70 -4.84534,31.89337 39.1027,61.35508 38.57143,95.71429 -0.53127,34.35921 -41.42857,94.28571 -41.42857,94.28571"
       inkscape:connector-curvature="0"
       sodipodi:nodetypes="czzzc" />
    <path
       style="fill:#000000;fill-rule:evenodd;stroke:none"
       d="m 241.42857,748.07647 c -0.46219,-0.0645 -0.74099,-1.60873 -0.61137,-4.46548 0.12962,-2.85674 0.68578,-7.03437 2.17572,-12.17661 1.48994,-5.14224 3.93135,-11.2565 7.84029,-17.67118 3.90894,-6.41467 9.29864,-13.13021 16.45917,-19.09682 5.30991,-4.41746 11.55038,-8.39144 18.5675,-11.50337 7.01711,-3.11193 14.80977,-5.35918 23.05044,-6.33561 4.78129,-0.56399 9.69288,-0.69801 14.64145,-0.37151 10.81711,0.7137 21.12409,3.59634 30.12156,8.00572 7.65986,3.75871 14.32953,8.58529 19.87051,13.87103 5.54098,5.28574 9.95467,11.02748 13.31488,16.70404 3.53183,5.97212 5.89423,11.83837 7.43926,17.12828 1.54502,5.28992 2.27871,10.0064 2.57472,13.87426 0.296,3.86787 0.16101,6.89201 -0.1059,8.93235 -0.26691,2.04034 -0.65925,3.10131 -1.05251,3.1049 -0.39326,0.004 -0.76735,-1.04781 -1.23081,-2.99227 -0.46346,-1.94447 -1.02378,-4.78586 -1.93966,-8.33795 -0.91589,-3.55208 -2.19364,-7.81969 -4.13792,-12.52421 -1.94429,-4.70451 -4.55961,-9.84921 -8.11526,-15.00033 -3.37824,-4.89893 -7.62266,-9.81047 -12.77072,-14.30629 -5.14806,-4.49582 -11.1998,-8.57445 -18.01333,-11.7235 -7.99918,-3.70265 -17.0988,-6.12731 -26.6143,-6.75739 -4.35313,-0.28825 -8.66698,-0.19399 -12.86337,0.2598 -7.23351,0.77785 -14.14155,2.62574 -20.43467,5.20399 -6.29313,2.57824 -11.9698,5.88564 -16.88663,9.58824 -6.62343,4.97789 -11.87012,10.69952 -15.9223,16.24018 -4.05218,5.54067 -6.91886,10.90325 -8.99581,15.46984 -2.07695,4.5666 -3.38,8.34533 -4.33056,10.93805 -0.95056,2.59273 -1.56819,4.0063 -2.03038,3.94184 z"
       id="path4236"
       inkscape:path-effect="#path-effect4238;#path-effect4240"
       inkscape:original-d="m 241.42857,748.07647 c 0,0 -9.67974,-49.44859 28.57143,-50 38.25117,-0.55141 125.71429,60 125.71429,60"
       inkscape:connector-curvature="0"
       sodipodi:nodetypes="czc" />
    <path
       style="fill:none;stroke:#000000;stroke-width:20;stroke-linecap:butt;stroke-linejoin:miter;stroke-miterlimit:4.4000001;stroke-dashoffset:0;stroke-opacity:1"
       inkscape:transform-center-x="-0.055546789"
       inkscape:transform-center-y="-6.0050203"
       d="m -200,383.79075 -37.23273,-19.70926 -37.34383,19.49795 7.23908,-41.50093 -30.08353,-29.49089 41.70673,-5.93972 18.75118,-37.72433 18.5371,37.82998 41.6724,6.17598 -30.25017,29.31993 z"
       id="path4242" />
    <path
       style="fill:#000000;fill-rule:evenodd;stroke:none"
       d="m -67.142857,776.6479 c -1.077639,0.31695 -6.571561,-14.77018 -14.865087,-40.81973 -8.293526,-26.04954 -19.385566,-63.06514 -31.827546,-106.0443 -1e-5,-10e-6 -1e-5,-10e-6 -1e-5,-2e-5 15.225935,-13.01537 31.46141,-26.82377 48.351054,-41.1144 8.76211,-7.41378 17.381646,-14.68774 25.806506,-21.77924 -2e-6,-10e-6 -3e-6,-10e-6 -5e-6,-2e-5 -7.316262,-24.29015 -14.107096,-47.15415 -20.12897,-67.83676 -6.021873,-20.6826 -11.274696,-39.18412 -15.528125,-54.70523 -4.253429,-15.52112 -7.50749,-28.06175 -9.545532,-36.77684 -2.038042,-8.7151 -2.860206,-13.60417 -2.262285,-13.78061 0.597921,-0.17644 2.563216,4.38088 5.616641,12.9202 3.053426,8.53933 7.19484,21.06114 12.157441,36.77213 4.962601,15.71098 10.746365,34.61123 17.09818,55.86169 6.351816,21.25046 13.271775,44.85081 20.519958,69.91794 2e-6,10e-6 3e-6,2e-5 5e-6,2e-5 -8.36023,7.11127 -16.946132,14.39576 -25.708094,21.81004 -16.88936,14.2916 -33.248986,28.06367 -48.705774,41.0106 0,1e-5 0,1e-5 0,2e-5 12.369928,41.38133 22.706459,77.22287 29.638525,102.94034 6.932065,25.71747 10.460757,41.30722 9.383118,41.62417 z"
       id="path4267"
       inkscape:path-effect="#path-effect4269;#path-effect4271"
       inkscape:original-d="M -67.142857,776.6479 -110,630.93361 -35.714286,568.07647 -87.142857,393.79075"
       inkscape:connector-curvature="0" />
    <path
       style="fill:#000000;fill-rule:evenodd;stroke:none"
       d="M 47.003124,403.15076 C 37.663949,396.576 27.203341,391.06264 16.106871,386.86348 c -16.7306103,-6.25363 -34.967934,-9.55104 -53.041269,-9.05211 -4e-6,0 -7e-6,0 -10e-6,0 -34.009978,0.73974 -70.153172,15.19432 -96.750002,40.13163 -3.7718,3.29724 -7.42479,6.71419 -10.95083,10.2385 -25.24158,33.29549 -42.76217,73.49064 -51.17924,112.06736 -47.1463,-12.99398 -94.3555,-25.53447 -141.62759,-37.62147 12.55485,-3.35467 25.02492,-6.09806 37.41021,-8.23018 -17.65937,-6.93438 -35.30421,-13.97342 -52.93455,-21.11712 -15.28411,48.80003 -35.39099,100.14682 -60.32063,154.04038 16.68158,-56.13645 34.06379,-112.64289 52.14666,-169.51932 43.533,15.32884 87.0517,30.76083 130.5561,46.29596 3.77234,0.93355 7.54284,1.88035 11.3115,2.84039 -7.98352,-49.17253 -6.92887,-100.38825 6.70856,-142.7731 3.08526,-2.78368 6.34691,-5.45147 9.77438,-7.99746 44.2833,-32.21525 95.43982,-46.00069 142.498358,-43.69741 4.996905,-0.89908 10.027952,-1.61661 15.082322,-2.14775 26.957844,-2.78927 54.1586646,-0.20371 79.860603,7.19038 6e-6,0 1.1e-5,1e-5 1.6e-5,1e-5 25.708183,7.37076 49.958972,19.56322 71.018661,35.98657 21.0388,16.45116 38.58676,36.90398 51.78207,59.74229 13.21257,22.82789 22.09378,48.08041 25.80468,74.12939 -7.37047,-25.45972 -19.66308,-48.65598 -35.32569,-68.38416 -1e-5,0 -1e-5,0 -1e-5,-1e-5 -15.65823,-19.73081 -34.72264,-36.02823 -55.624288,-47.70963 -20.894161,-11.69134 -43.636441,-18.80048 -66.273225,-21.53636 -4e-6,0 -7e-6,0 -1.1e-5,-10e-6 -0.9014,-0.10811 -1.802723,-0.20929 -2.703845,-0.30356 0.678855,0.97808 1.344751,1.95969 1.997645,2.94455 10.885231,16.44202 18.168577,33.82674 21.675678,50.76952 z"
       id="path4295"
       inkscape:path-effect="#path-effect4297;#path-effect4299"
       inkscape:original-d="m -400,630.93361 44.28571,-162.85714 144.28572,50 c 0,0 20,-191.42857 168.571427,-188.57143 148.571433,2.85714 212.857143,160 212.857143,160"
       inkscape:connector-curvature="0" />
    <path
       style="fill:#000000;fill-rule:evenodd;stroke:none"
       d="m 732.01765,407.17207 -21.46236,54.46903 17.71953,55.88742 -41.13689,-12.04021 -30.90043,43.57633 c -1.32054,-20.63676 -2.64108,-41.27353 -3.96163,-61.91029 -12.27235,-9.65192 -24.5447,-19.30384 -36.81705,-28.95577 l 38.68846,-26.22245 8.14625,-61.47198 27.87241,45.70391 z"
       id="path4307"
       inkscape:path-effect="#path-effect4309;#path-effect4311"
       inkscape:original-d="m 670,549.50504 5.71429,-178.57143"
       inkscape:connector-curvature="0" />
    <path
       style="fill:#000000;fill-rule:evenodd;stroke:none"
       d="m 1053.7017,446.76669 c 17.1591,5.28099 34.4396,10.4234 51.8415,15.42722 -20.8849,-76.46675 -42.1037,-157.84538 -63.6565,-244.13589 -2.4662,-7.78646 -4.9292,-15.52771 -7.3892,-23.22374 0,0 0,0 0,0 -90.42217,24.9704 -175.5183,47.86507 -255.28843,68.684 0,0 -10e-6,0 -10e-6,0 2.28817,2.81344 4.57991,5.61873 6.87522,8.41586 -3.56403,-3.25463 -7.08891,-6.59881 -10.57466,-10.03255 8.90488,-6.48519 19.72476,-13.71673 32.45961,-21.6946 -18.08632,3.7853 -36.50009,7.69823 -55.24132,11.73877 32.2841,62.35164 62.09084,130.37215 89.42023,204.06155 -35.27857,-69.43091 -70.19723,-139.68538 -104.75599,-210.76342 55.83235,-15.24847 112.07632,-30.65736 168.7319,-46.22667 49.06269,-17.91883 102.61455,-37.58725 160.65565,-59.00527 3.4557,10.22294 6.9254,20.65276 10.4093,31.28946 10.571,73.0214 20.6858,139.33269 30.3444,198.93385 9.5444,39.79585 19.0742,79.37597 28.5892,118.74036 -95.2661,-7.81292 -189.74407,-16.52567 -283.43399,-26.13827 94.98974,-1.23801 184.82539,3.40892 269.50689,13.9408 -0.8279,-2.74948 -1.6554,-5.49125 -2.4823,-8.22532 -0.06,2.00889 -0.1232,3.97064 -0.1896,5.88524 -23.3006,-7.67093 -45.2413,-16.89472 -65.8219,-27.67138 z"
       id="path4319"
       inkscape:path-effect="#path-effect4321;#path-effect4323"
       inkscape:original-d="m 854.28571,449.50504 -107.14285,-200 301.42854,-78.57143 80,311.42857 z"
       inkscape:connector-curvature="0" />
    <path
       style="fill:#000000;fill-rule:evenodd;stroke:none"
       d="m 154.8698,193.24648 c -3.59463,-15.61645 -9.39866,-31.35579 -17.41206,-47.21805 -0.8201,0.45247 -1.65485,0.90413 -2.50427,1.35497 -11.0413,16.0961 -19.72797,32.32318 -26.06002,48.68125 -3.13321,-13.36079 -5.29489,-26.66754 -6.48505,-39.92024 -13.673016,0.78205 -30.215043,1.40449 -49.626077,1.86733 18.038521,-13.48307 36.878143,-26.92157 56.518867,-40.31551 6.91626,-15.37215 16.12004,-30.617045 27.61134,-45.734685 1.56331,0.693739 3.08004,1.384885 4.55018,2.07344 8.49921,13.938284 15.17333,27.775035 20.02235,41.510265 18.3197,15.55733 35.72669,31.0639 52.22095,46.51969 -19.36688,-2.71676 -35.58838,-5.25853 -48.6645,-7.62533 -2.35877,12.99302 -5.74934,25.92864 -10.17171,38.80687 z"
       id="path4331" />
    <path
       style="fill:#000000;fill-rule:evenodd;stroke:none"
       d="m 683.16851,791.27169 -21.9023,65.46267 17.27657,66.96614 -41.04937,-14.23803 -31.25531,52.44098 -3.46761,-74.26226 -36.59342,-34.55582 38.90628,-31.65858 8.63933,-73.79766 27.51301,54.69618 z"
       id="path4366"
       inkscape:path-effect="#path-effect4368;#path-effect4370"
       inkscape:original-d="m 620,962.36218 c 0,0 -110,-88.57143 7.14286,-214.28571"
       inkscape:connector-curvature="0" />
    <path
       style="fill:#000000;fill-rule:evenodd;stroke:none"
       d="m 342.21582,853.73965 c -19.47673,11.47764 -38.60791,25.30726 -57.39354,41.48885 1.2805,1.10056 2.56368,2.21935 3.84954,3.35638 24.8289,11.60942 49.2874,20.69775 73.37551,27.26498 -13.18294,5.38133 -26.51871,9.72245 -40.0073,13.02336 9.73051,16.84746 19.91233,36.76675 30.54547,59.75788 -24.76535,-19.91001 -49.65671,-40.67776 -74.67409,-62.30325 -19.49552,-5.82824 -39.35088,-14.10573 -59.56608,-24.83245 -0.24779,-2.19039 -0.48694,-4.32197 -0.71744,-6.39472 13.65462,-13.73403 27.59027,-25.55525 41.80696,-35.46367 17.73244,-28.24965 35.60955,-55.51462 53.63133,-81.7949 -3.6673,25.26751 -7.83315,47.14165 -12.49756,65.6224 13.71886,-1.02143 27.60126,-0.92972 41.6472,0.27514 z"
       id="path4378"
       inkscape:path-effect="#path-effect4380;#path-effect4382"
       inkscape:original-d="M 361.42857,988.07647 255.71429,899.50504 324.28571,795.21933"
       inkscape:connector-curvature="0" />
    <path
       style="fill:none;stroke:#000000;stroke-width:20;stroke-linecap:butt;stroke-linejoin:miter;stroke-miterlimit:4.4000001;stroke-dashoffset:0;stroke-opacity:1"
       d="m -337.14285,828.07648 127.14286,0 0,127.14286 -127.14286,0 z"
       id="rect4390" />
    <path
       style="fill:#000000;fill-rule:evenodd;stroke:none"
       d="M -47.88144,1126.6742 -115.297,917.14506 -9.8554224,721.90171 98.42685,788.53695 -1.8458551,927.5793 70.738582,1080.9074 c -39.540007,15.2556 -79.0800148,30.5112 -118.620022,45.7668 z"
       id="path4415"
       inkscape:path-effect="#path-effect4417;#path-effect4419"
       inkscape:original-d="m 11.428571,1103.7908 -70,-181.42862 102.857143,-167.14285"
       inkscape:connector-curvature="0" />
    <path
       style="fill:#000000;fill-rule:evenodd;stroke:none"
       d="m 341.87725,1115.3948 c 43.09151,-53.4431 97.51945,-96.5222 158.28949,-126.6896 60.70919,-30.28966 127.89468,-47.73443 196.5125,-49.88626 10e-6,0 10e-6,0 2e-5,0 75.20548,-2.08427 149.65064,14.35919 216.63436,46.25488 67.06646,31.72138 126.88068,78.99418 172.82278,138.57218 l -100.84417,77.4324 c -32.63078,-42.7515 -77.00092,-77.5471 -126.49041,-101.1404 0,0 -10e-6,0 -10e-6,0 -49.57223,-23.419 -104.58534,-35.7883 -158.33821,-34.0325 -49.23669,1.3576 -98.80091,14.3821 -143.64873,36.6254 -44.78698,22.3656 -85.06342,54.0525 -115.83498,92.5129 -33.03421,-26.5497 -66.06843,-53.0993 -99.10264,-79.649 z"
       id="path4427"
       inkscape:path-effect="#path-effect4429;#path-effect4431"
       inkscape:original-d="m 391.42857,1155.2193 c 0,0 88.57143,-169.99997 307.14286,-152.8571 218.57143,17.1428 337.14287,160 337.14287,160"
       inkscape:connector-curvature="0" />
    <path
       style="fill:none;stroke:#000000;stroke-width:20;stroke-linecap:butt;stroke-linejoin:miter;stroke-miterlimit:4.4000001;stroke-dashoffset:0;stroke-opacity:1"
       inkscape:transform-center-y="-9.4137223"
       d="m 827.14289,629.4947 93.75684,68.11833 -35.81193,110.21778 -115.88983,0 -35.81193,-110.21778 z"
       id="path4441" />
    <path
       style="fill:#000000;fill-rule:evenodd;stroke:none"
       d="m -498.23671,924.51374 c 49.7069,-69.90341 98.83159,-134.26881 147.37406,-193.09618 23.3851,39.91781 47.13003,76.41293 71.23479,109.48537 l -62.52852,137.53684 19.28219,81.64093 c -30.19941,24.8994 -60.90028,54.5686 -92.10261,89.0077 -29.39194,-57.077 -58.21741,-119.5422 -86.4764,-187.3957 1.05642,-12.24323 2.12858,-24.63622 3.21649,-37.17896 z"
       id="path4466"
       inkscape:path-effect="#path-effect4468;#path-effect4470"
       inkscape:original-d="m -394.28571,1145.2193 -32.85715,-175.71426 95.71429,-230"
       inkscape:connector-curvature="0" />
    <path
       style="fill:none;stroke:#000000;stroke-width:20;stroke-linecap:butt;stroke-linejoin:miter;stroke-miterlimit:4.4000001;stroke-dashoffset:0;stroke-opacity:1"
       d="m -1288.9546,185.65131 c 0,85.91534 -50.6532,155.56349 -113.1371,155.56349 -62.4839,0 -113.1371,-69.64815 -113.1371,-155.56349 0,-85.915348 50.6532,-155.563496 113.1371,-155.563496 62.4839,0 113.1371,69.648148 113.1371,155.563496 z"
       id="path4502" />
    <path
       style="fill:#000000;fill-rule:evenodd;stroke:none"
       d="m 1987.9802,1032.1591 c -4.894,0.5335 -10.0284,-1.6936 -15.4126,-6.4845 -5.3841,-4.7909 -11.019,-12.1457 -16.9847,-21.8671 -5.9656,-9.72135 -12.263,-21.80956 -19.027,-36.0653 -6.7641,-14.25573 -13.9957,-30.6793 -21.8696,-49.06527 -15.7479,-36.77195 -34.055,-81.41229 -56.5789,-132.11725 -22.5238,-50.70495 -49.2872,-107.48692 -81.972,-168.16479 -30.0467,-55.74054 -65.1134,-114.78648 -106.3124,-175.06335 -41.1989,-60.27686 -88.5357,-121.78585 -142.8113,-182.02237 -44.5882,-49.54719 -93.9883,-98.36702 -148.1684,-145.21343 -54.1801,-46.846408 -113.1393,-91.718167 -176.5288,-133.299243 -57.1139,-37.427255 -117.8392,-72.19614 -181.719,-103.319627 -63.8798,-31.12348 -130.91168,-58.59991 -200.4775,-81.43462 -1.75858,-0.57868 -3.51894,-1.15445 -5.28107,-1.7273 -69.14072,-22.47697 -138.9723,-39.79195 -208.43248,-52.36816 -69.46018,-12.57621 -138.54609,-20.41352 -206.32517,-24.02183 -76.17539,-4.01973 -150.72591,-2.69892 -222.57337,3.10079 -71.84746,5.79971 -140.990306,16.07788 -206.652544,29.83882 -79.852706,16.68189 -154.826476,38.5654 -224.074936,63.12359 -69.24847,24.5582 -132.77696,51.78862 -190.25402,79.3303 -3e-5,2e-5 -5e-5,3e-5 -8e-5,4e-5 -62.52037,29.981827 -117.91168,60.333192 -166.24886,88.269507 -48.33719,27.936314 -89.64636,53.454185 -124.21177,74.091662 -34.56542,20.637477 -62.41827,36.387422 -83.61806,45.186231 -10.5999,4.39941 -19.53004,7.06782 -26.73897,7.79628 -7.20893,0.72846 -12.69753,-0.48365 -16.35664,-3.80278 -3.6591,-3.31912 -5.40823,-8.674209 -5.24178,-15.99282 0.16645,-7.318612 2.24924,-16.600526 6.30343,-27.712216 4.0542,-11.111691 10.08071,-24.052992 18.17177,-38.632175 8.09105,-14.5791827 18.24762,-30.7961013 30.58502,-48.40315 12.33739,-17.607049 26.85663,-36.604072 43.68114,-56.689835 16.82452,-20.085764 35.95531,-41.260074 57.50888,-63.170654 21.55356,-21.91058 45.53085,-44.55719 72.02685,-67.5397 26.496,-22.98252 55.51156,-46.30063 87.10666,-69.51051 2e-5,-2e-5 5e-5,-4e-5 8e-5,-6e-5 29.0362,-21.3422 60.2549,-42.59566 93.66844,-63.38785 33.41355,-20.79218 69.02236,-41.12278 106.7983,-60.59599 37.77593,-19.4732 77.71932,-38.08866 119.75608,-55.43213 42.03676,-17.34347 86.16712,-33.41456 132.266974,-47.78614 75.838561,-23.59792 156.776262,-42.5096 241.723916,-55.22449 84.94766,-12.71489 173.90318,-19.22806 265.37165,-18.24262 81.38857,0.84523 164.7796,7.6253 248.88282,21.06261 84.10323,13.43731 168.91534,33.53389 252.9642,60.79989 2.14208,0.69491 4.28206,1.39394 6.41992,2.09709 84.52622,27.85769 165.36512,62.0395 241.61512,101.2298 76.25,39.1903 147.9095,83.38532 214.3583,131.20529 73.7926,53.06238 141.1742,110.60402 201.7224,170.719657 60.5483,60.115635 114.2643,122.800192 161.1703,186.216987 57.0163,77.170816 103.7318,155.087456 141.4834,230.610136 18.8758,37.76134 35.519,74.93397 50.1381,111.18657 14.619,36.2526 27.2144,71.58515 38.0131,105.70829 11.7632,37.13681 21.3989,72.84547 29.2136,106.80696 7.8147,33.9615 13.8093,66.17609 18.2925,96.3799 4.4832,30.20381 7.4559,58.39718 9.216,84.36677 1.7601,25.96958 2.3084,49.71579 1.9185,71.06992 -0.3898,21.35412 -1.717,40.31662 -3.7458,56.75674 -2.0288,16.44012 -4.7583,30.35831 -8.0037,41.65495 -3.2455,11.29668 -7.006,19.97208 -11.1603,25.95168 -4.1544,5.9795 -8.7017,9.2633 -13.5957,9.7968 z"
       id="path4536"
       inkscape:path-effect="#path-effect4538;#path-effect4540"
       inkscape:original-d="m -860.64997,106.8594 c 0,0 602.05092,-686.90373 1729.38116,-456.58895 C 1996.0614,-119.41477 1987.9802,1032.1591 1987.9802,1032.1591"
       inkscape:connector-curvature="0" />
    <path
       style="fill:none;stroke:#000000;stroke-width:20;stroke-linecap:butt;stroke-linejoin:miter;stroke-miterlimit:4.4000001;stroke-opacity:1;stroke-dasharray:none;stroke-dashoffset:0"
       id="path4590"
       d="m -2112.8767,1070.233 c 12.7187,-13.4365 27.7488,-24.069 43.6911,-33.3509 31.1505,-18.1366 65.9061,-39.21771 99.9309,-54.81502 8.396,-3.84883 16.9861,-7.25929 25.4792,-10.88894 54.7834,-20.4821 112.9734,-29.35267 170.4142,-39.03115 0,0 -48.1898,36.25706 -48.1898,36.25706 l 0,0 c -57.405,9.6858 -115.48,19.26481 -169.9462,40.52695 -8.4502,3.7292 -16.9969,7.2471 -25.3507,11.1876 -22.8874,10.7962 -47.2456,25.4605 5.2025,-5.5485 6.5185,-3.8539 -13.1553,7.5353 -19.4131,11.7996 -4.7544,3.2399 -9.1803,6.9473 -13.5644,10.6728 -2.8408,2.414 -5.3911,5.1504 -8.0866,7.7256 0,0 -60.1671,25.4649 -60.1671,25.4649 z"
       inkscape:connector-curvature="0" />
  </g>
</svg>
