<?xml version="1.0" encoding="UTF-8" standalone="no"?>
<!-- Created with Inkscape (http://www.inkscape.org/) -->

<svg
   xmlns:dc="http://purl.org/dc/elements/1.1/"
   xmlns:cc="http://creativecommons.org/ns#"
   xmlns:rdf="http://www.w3.org/1999/02/22-rdf-syntax-ns#"
   xmlns:svg="http://www.w3.org/2000/svg"
   xmlns="http://www.w3.org/2000/svg"
   xmlns:sodipodi="http://sodipodi.sourceforge.net/DTD/sodipodi-0.dtd"
   xmlns:inkscape="http://www.inkscape.org/namespaces/inkscape"
   width="744.09448819"
   height="1052.3622047"
   id="svg3791"
   version="1.1"
   inkscape:version="0.48.4 r9939"
   sodipodi:docname="snoflinga.svg">
  <defs
     id="defs3793" />
  <sodipodi:namedview
     id="base"
     pagecolor="#ffffff"
     bordercolor="#666666"
     borderopacity="1.0"
     inkscape:pageopacity="0.0"
     inkscape:pageshadow="2"
     inkscape:zoom="0.0875"
     inkscape:cx="903.52566"
     inkscape:cy="121.98538"
     inkscape:document-units="px"
     inkscape:current-layer="layer1"
     showgrid="false"
     inkscape:window-width="1366"
     inkscape:window-height="721"
     inkscape:window-x="-4"
     inkscape:window-y="24"
     inkscape:window-maximized="1"
     showguides="true"
     inkscape:guide-bbox="true" />
  <metadata
     id="metadata3796">
    <rdf:RDF>
      <cc:Work
         rdf:about="">
        <dc:format>image/svg+xml</dc:format>
        <dc:type
           rdf:resource="http://purl.org/dc/dcmitype/StillImage" />
        <dc:title></dc:title>
      </cc:Work>
    </rdf:RDF>
  </metadata>
  <g
     inkscape:label="Layer 1"
     inkscape:groupmode="layer"
     id="layer1">
    <g
       id="g3940"
       transform="translate(0,-45.714287)">
      <path
         sodipodi:nodetypes="cccccc"
         inkscape:connector-curvature="0"
         id="rect3925"
         d="m 214.15234,108.87971 35.86042,-59.285718 35.86042,59.285718 0,207.08127 -71.72084,0 z"
         style="fill:#000000;fill-opacity:1;fill-rule:nonzero;stroke:none" />
      <path
         inkscape:transform-center-x="-133.18349"
         style="fill:#000000;fill-opacity:1;fill-rule:nonzero;stroke:none"
         d="m 421.73869,237.67415 59.28571,35.86042 -59.28571,35.86042 -207.08127,0 0,-71.72084 z"
         id="path3934"
         inkscape:connector-curvature="0"
         sodipodi:nodetypes="cccccc" />
      <path
         sodipodi:nodetypes="cccccc"
         inkscape:connector-curvature="0"
         id="path3936"
         d="m 75.256371,237.67415 -59.28571,35.86042 59.28571,35.86042 207.081269,0 0,-71.72084 z"
         style="fill:#000000;fill-opacity:1;fill-rule:nonzero;stroke:none"
         inkscape:transform-center-x="133.18349" />
      <path
         style="fill:#000000;fill-opacity:1;fill-rule:nonzero;stroke:none"
         d="m 214.15234,308.88991 35.86042,-59.28571 35.86042,59.28571 0,207.08127 -71.72084,0 z"
         id="path3938"
         inkscape:connector-curvature="0"
         sodipodi:nodetypes="cccccc" />
    </g>
    <g
       id="g3946"
       transform="matrix(0,1,-1,0,799.9807,340.96533)">
      <path
         style="fill:#000000;fill-opacity:1;fill-rule:nonzero;stroke:none"
         d="m 214.15234,108.87971 35.86042,-59.285718 35.86042,59.285718 0,207.08127 -71.72084,0 z"
         id="path3948"
         inkscape:connector-curvature="0"
         sodipodi:nodetypes="cccccc" />
      <path
         sodipodi:nodetypes="cccccc"
         inkscape:connector-curvature="0"
         id="path3950"
         d="m 421.73869,237.67415 59.28571,35.86042 -59.28571,35.86042 -207.08127,0 0,-71.72084 z"
         style="fill:#000000;fill-opacity:1;fill-rule:nonzero;stroke:none"
         inkscape:transform-center-x="-133.18349" />
      <path
         inkscape:transform-center-x="133.18349"
         style="fill:#000000;fill-opacity:1;fill-rule:nonzero;stroke:none"
         d="m 75.256371,237.67415 -59.28571,35.86042 59.28571,35.86042 207.081269,0 0,-71.72084 z"
         id="path3952"
         inkscape:connector-curvature="0"
         sodipodi:nodetypes="cccccc" />
      <path
         sodipodi:nodetypes="cccccc"
         inkscape:connector-curvature="0"
         id="path3954"
         d="m 214.15234,308.88991 35.86042,-59.28571 35.86042,59.28571 0,207.08127 -71.72084,0 z"
         style="fill:#000000;fill-opacity:1;fill-rule:nonzero;stroke:none" />
    </g>
    <g
       transform="matrix(0,1,1,0,-300.96532,340.96533)"
       id="g3956">
      <path
         sodipodi:nodetypes="cccccc"
         inkscape:connector-curvature="0"
         id="path3958"
         d="m 214.15234,108.87971 35.86042,-59.285718 35.86042,59.285718 0,207.08127 -71.72084,0 z"
         style="fill:#000000;fill-opacity:1;fill-rule:nonzero;stroke:none" />
      <path
         inkscape:transform-center-x="-133.18349"
         style="fill:#000000;fill-opacity:1;fill-rule:nonzero;stroke:none"
         d="m 421.73869,237.67415 59.28571,35.86042 -59.28571,35.86042 -207.08127,0 0,-71.72084 z"
         id="path3960"
         inkscape:connector-curvature="0"
         sodipodi:nodetypes="cccccc" />
      <path
         sodipodi:nodetypes="cccccc"
         inkscape:connector-curvature="0"
         id="path3962"
         d="m 75.256371,237.67415 -59.28571,35.86042 59.28571,35.86042 207.081269,0 0,-71.72084 z"
         style="fill:#000000;fill-opacity:1;fill-rule:nonzero;stroke:none"
         inkscape:transform-center-x="133.18349" />
      <path
         style="fill:#000000;fill-opacity:1;fill-rule:nonzero;stroke:none"
         d="m 214.15234,308.88991 35.86042,-59.28571 35.86042,59.28571 0,207.08127 -71.72084,0 z"
         id="path3964"
         inkscape:connector-curvature="0"
         sodipodi:nodetypes="cccccc" />
    </g>
    <path
       style="fill:#000000;fill-opacity:1;fill-rule:nonzero;stroke:none"
       d="m 250.00504,364.76967 -35.8437,59.28125 0,207.0625 0.0624,0 -0.0624,0.21875 0,401.84373 71.7187,0 0,-401.84373 -0.0625,-0.21875 0.0625,0 0,-207.0625 -35.875,-59.28125 z"
       id="path3968"
       inkscape:connector-curvature="0" />
    <g
       transform="matrix(0,1,-1,0,1231.1221,713.05233)"
       id="g3981">
      <path
         sodipodi:nodetypes="cccccc"
         inkscape:connector-curvature="0"
         id="path3983"
         d="m 214.15234,108.87971 35.86042,-59.285718 35.86042,59.285718 0,207.08127 -71.72084,0 z"
         style="fill:#000000;fill-opacity:1;fill-rule:nonzero;stroke:none" />
      <path
         inkscape:transform-center-x="-133.18349"
         style="fill:#000000;fill-opacity:1;fill-rule:nonzero;stroke:none"
         d="m 421.73869,237.67415 59.28571,35.86042 -59.28571,35.86042 -207.08127,0 0,-71.72084 z"
         id="path3985"
         inkscape:connector-curvature="0"
         sodipodi:nodetypes="cccccc" />
      <path
         sodipodi:nodetypes="cccccc"
         inkscape:connector-curvature="0"
         id="path3987"
         d="m 75.256371,237.67415 -59.28571,35.86042 59.28571,35.86042 207.081269,0 0,-71.72084 z"
         style="fill:#000000;fill-opacity:1;fill-rule:nonzero;stroke:none"
         inkscape:transform-center-x="133.18349" />
      <path
         style="fill:#000000;fill-opacity:1;fill-rule:nonzero;stroke:none"
         d="m 214.15234,308.88991 35.86042,-59.28571 35.86042,59.28571 0,207.08127 -71.72084,0 z"
         id="path3989"
         inkscape:connector-curvature="0"
         sodipodi:nodetypes="cccccc" />
    </g>
    <g
       id="g3991"
       transform="matrix(0,1,1,0,-678.31123,713.05233)">
      <path
         style="fill:#000000;fill-opacity:1;fill-rule:nonzero;stroke:none"
         d="m 214.15234,108.87971 35.86042,-59.285718 35.86042,59.285718 0,207.08127 -71.72084,0 z"
         id="path3993"
         inkscape:connector-curvature="0"
         sodipodi:nodetypes="cccccc" />
      <path
         sodipodi:nodetypes="cccccc"
         inkscape:connector-curvature="0"
         id="path3995"
         d="m 421.73869,237.67415 59.28571,35.86042 -59.28571,35.86042 -207.08127,0 0,-71.72084 z"
         style="fill:#000000;fill-opacity:1;fill-rule:nonzero;stroke:none"
         inkscape:transform-center-x="-133.18349" />
      <path
         inkscape:transform-center-x="133.18349"
         style="fill:#000000;fill-opacity:1;fill-rule:nonzero;stroke:none"
         d="m 75.256371,237.67415 -59.28571,35.86042 59.28571,35.86042 207.081269,0 0,-71.72084 z"
         id="path3997"
         inkscape:connector-curvature="0"
         sodipodi:nodetypes="cccccc" />
      <path
         sodipodi:nodetypes="cccccc"
         inkscape:connector-curvature="0"
         id="path3999"
         d="m 214.15234,308.88991 35.86042,-59.28571 35.86042,59.28571 0,207.08127 -71.72084,0 z"
         style="fill:#000000;fill-opacity:1;fill-rule:nonzero;stroke:none" />
    </g>
    <path
       inkscape:connector-curvature="0"
       id="path4001"
       d="m 250.00504,870.48395 -35.8437,96.27786 0,336.28729 0.0624,0 -0.0624,0.3551 0,652.6289 71.7187,0 0,-652.6289 -0.0625,-0.3551 0.0625,0 0,-336.28729 -35.875,-96.27786 z"
       style="fill:#000000;fill-opacity:1;fill-rule:nonzero;stroke:none" />
    <path
       style="fill:#000000;fill-opacity:1;fill-rule:nonzero;stroke:none"
       d="m -289.89674,962.50404 93.23711,35.8437 325.66604,0 0,-0.062 0.34397,0.062 632.01631,0 0,-71.7187 -632.01631,0 -0.34397,0.062 0,-0.062 -325.66604,0 -93.23711,35.875 z"
       id="path4003"
       inkscape:connector-curvature="0" />
    <g
       id="g4005"
       transform="matrix(0,1,-1,0,1710.2114,991.85439)">
      <path
         style="fill:#000000;fill-opacity:1;fill-rule:nonzero;stroke:none"
         d="m 214.15234,108.87971 35.86042,-59.285718 35.86042,59.285718 0,207.08127 -71.72084,0 z"
         id="path4007"
         inkscape:connector-curvature="0"
         sodipodi:nodetypes="cccccc" />
      <path
         sodipodi:nodetypes="cccccc"
         inkscape:connector-curvature="0"
         id="path4009"
         d="m 421.73869,237.67415 59.28571,35.86042 -59.28571,35.86042 -207.08127,0 0,-71.72084 z"
         style="fill:#000000;fill-opacity:1;fill-rule:nonzero;stroke:none"
         inkscape:transform-center-x="-133.18349" />
      <path
         inkscape:transform-center-x="133.18349"
         style="fill:#000000;fill-opacity:1;fill-rule:nonzero;stroke:none"
         d="m 75.256371,237.67415 -59.28571,35.86042 59.28571,35.86042 207.081269,0 0,-71.72084 z"
         id="path4011"
         inkscape:connector-curvature="0"
         sodipodi:nodetypes="cccccc" />
      <path
         sodipodi:nodetypes="cccccc"
         inkscape:connector-curvature="0"
         id="path4013"
         d="m 214.15234,308.88991 35.86042,-59.28571 35.86042,59.28571 0,207.08127 -71.72084,0 z"
         style="fill:#000000;fill-opacity:1;fill-rule:nonzero;stroke:none" />
    </g>
    <g
       transform="matrix(0,1,1,0,-1195.0336,991.85439)"
       id="g4015">
      <path
         sodipodi:nodetypes="cccccc"
         inkscape:connector-curvature="0"
         id="path4017"
         d="m 214.15234,108.87971 35.86042,-59.285718 35.86042,59.285718 0,207.08127 -71.72084,0 z"
         style="fill:#000000;fill-opacity:1;fill-rule:nonzero;stroke:none" />
      <path
         inkscape:transform-center-x="-133.18349"
         style="fill:#000000;fill-opacity:1;fill-rule:nonzero;stroke:none"
         d="m 421.73869,237.67415 59.28571,35.86042 -59.28571,35.86042 -207.08127,0 0,-71.72084 z"
         id="path4019"
         inkscape:connector-curvature="0"
         sodipodi:nodetypes="cccccc" />
      <path
         sodipodi:nodetypes="cccccc"
         inkscape:connector-curvature="0"
         id="path4021"
         d="m 75.256371,237.67415 -59.28571,35.86042 59.28571,35.86042 207.081269,0 0,-71.72084 z"
         style="fill:#000000;fill-opacity:1;fill-rule:nonzero;stroke:none"
         inkscape:transform-center-x="133.18349" />
      <path
         style="fill:#000000;fill-opacity:1;fill-rule:nonzero;stroke:none"
         d="m 214.15234,308.88991 35.86042,-59.28571 35.86042,59.28571 0,207.08127 -71.72084,0 z"
         id="path4023"
         inkscape:connector-curvature="0"
         sodipodi:nodetypes="cccccc" />
    </g>
    <path
       inkscape:connector-curvature="0"
       id="path4025"
       d="m -820.82067,1241.3062 183.38397,35.8437 640.5383554,0 0,-0.062 0.676549,0.062 1243.0851956,0 0,-71.7187 -1243.0851956,0 -0.676549,0.062 0,-0.062 -640.5383554,0 -183.38397,35.875 z"
       style="fill:#000000;fill-opacity:1;fill-rule:nonzero;stroke:none" />
    <g
       id="g4087"
       transform="translate(2834.2857,-948.57143)">
      <g
         id="g4089"
         transform="translate(0,131.42857)">
        <path
           sodipodi:nodetypes="cccccc"
           inkscape:connector-curvature="0"
           id="path4091"
           d="m 214.15234,108.87971 35.86042,-59.285718 35.86042,59.285718 0,207.08127 -71.72084,0 z"
           style="fill:#000000;fill-opacity:1;fill-rule:nonzero;stroke:none" />
        <path
           inkscape:transform-center-x="-133.18349"
           style="fill:#000000;fill-opacity:1;fill-rule:nonzero;stroke:none"
           d="m 421.73869,237.67415 59.28571,35.86042 -59.28571,35.86042 -207.08127,0 0,-71.72084 z"
           id="path4093"
           inkscape:connector-curvature="0"
           sodipodi:nodetypes="cccccc" />
        <path
           sodipodi:nodetypes="cccccc"
           inkscape:connector-curvature="0"
           id="path4095"
           d="m 75.256371,237.67415 -59.28571,35.86042 59.28571,35.86042 207.081269,0 0,-71.72084 z"
           style="fill:#000000;fill-opacity:1;fill-rule:nonzero;stroke:none"
           inkscape:transform-center-x="133.18349" />
        <path
           style="fill:#000000;fill-opacity:1;fill-rule:nonzero;stroke:none"
           d="m 214.15234,308.88991 35.86042,-59.28571 35.86042,59.28571 0,207.08127 -71.72084,0 z"
           id="path4097"
           inkscape:connector-curvature="0"
           sodipodi:nodetypes="cccccc" />
      </g>
      <g
         id="g4099"
         transform="matrix(0,1,-1,0,799.9807,432.3939)">
        <path
           style="fill:#000000;fill-opacity:1;fill-rule:nonzero;stroke:none"
           d="m 214.15234,108.87971 35.86042,-59.285718 35.86042,59.285718 0,207.08127 -71.72084,0 z"
           id="path4101"
           inkscape:connector-curvature="0"
           sodipodi:nodetypes="cccccc" />
        <path
           sodipodi:nodetypes="cccccc"
           inkscape:connector-curvature="0"
           id="path4103"
           d="m 421.73869,237.67415 59.28571,35.86042 -59.28571,35.86042 -207.08127,0 0,-71.72084 z"
           style="fill:#000000;fill-opacity:1;fill-rule:nonzero;stroke:none"
           inkscape:transform-center-x="-133.18349" />
        <path
           inkscape:transform-center-x="133.18349"
           style="fill:#000000;fill-opacity:1;fill-rule:nonzero;stroke:none"
           d="m 75.256371,237.67415 -59.28571,35.86042 59.28571,35.86042 207.081269,0 0,-71.72084 z"
           id="path4105"
           inkscape:connector-curvature="0"
           sodipodi:nodetypes="cccccc" />
        <path
           sodipodi:nodetypes="cccccc"
           inkscape:connector-curvature="0"
           id="path4107"
           d="m 214.15234,308.88991 35.86042,-59.28571 35.86042,59.28571 0,207.08127 -71.72084,0 z"
           style="fill:#000000;fill-opacity:1;fill-rule:nonzero;stroke:none" />
      </g>
      <g
         transform="matrix(0,1,1,0,-300.96532,432.3939)"
         id="g4109">
        <path
           sodipodi:nodetypes="cccccc"
           inkscape:connector-curvature="0"
           id="path4111"
           d="m 214.15234,108.87971 35.86042,-59.285718 35.86042,59.285718 0,207.08127 -71.72084,0 z"
           style="fill:#000000;fill-opacity:1;fill-rule:nonzero;stroke:none" />
        <path
           inkscape:transform-center-x="-133.18349"
           style="fill:#000000;fill-opacity:1;fill-rule:nonzero;stroke:none"
           d="m 421.73869,237.67415 59.28571,35.86042 -59.28571,35.86042 -207.08127,0 0,-71.72084 z"
           id="path4113"
           inkscape:connector-curvature="0"
           sodipodi:nodetypes="cccccc" />
        <path
           sodipodi:nodetypes="cccccc"
           inkscape:connector-curvature="0"
           id="path4115"
           d="m 75.256371,237.67415 -59.28571,35.86042 59.28571,35.86042 207.081269,0 0,-71.72084 z"
           style="fill:#000000;fill-opacity:1;fill-rule:nonzero;stroke:none"
           inkscape:transform-center-x="133.18349" />
        <path
           style="fill:#000000;fill-opacity:1;fill-rule:nonzero;stroke:none"
           d="m 214.15234,308.88991 35.86042,-59.28571 35.86042,59.28571 0,207.08127 -71.72084,0 z"
           id="path4117"
           inkscape:connector-curvature="0"
           sodipodi:nodetypes="cccccc" />
      </g>
      <path
         style="fill:#000000;fill-opacity:1;fill-rule:nonzero;stroke:none"
         d="m 250.00504,364.76967 -35.8437,59.28125 0,207.0625 0.0624,0 -0.0624,0.21875 0,401.84373 71.7187,0 0,-401.84373 -0.0625,-0.21875 0.0625,0 0,-207.0625 -35.875,-59.28125 z"
         id="path4119"
         inkscape:connector-curvature="0" />
      <g
         transform="matrix(0,1,-1,0,1042.5507,713.05233)"
         id="g4121">
        <path
           sodipodi:nodetypes="cccccc"
           inkscape:connector-curvature="0"
           id="path4123"
           d="m 214.15234,108.87971 35.86042,-59.285718 35.86042,59.285718 0,207.08127 -71.72084,0 z"
           style="fill:#000000;fill-opacity:1;fill-rule:nonzero;stroke:none" />
        <path
           inkscape:transform-center-x="-133.18349"
           style="fill:#000000;fill-opacity:1;fill-rule:nonzero;stroke:none"
           d="m 421.73869,237.67415 59.28571,35.86042 -59.28571,35.86042 -207.08127,0 0,-71.72084 z"
           id="path4125"
           inkscape:connector-curvature="0"
           sodipodi:nodetypes="cccccc" />
        <path
           sodipodi:nodetypes="cccccc"
           inkscape:connector-curvature="0"
           id="path4127"
           d="m 75.256371,237.67415 -59.28571,35.86042 59.28571,35.86042 207.081269,0 0,-71.72084 z"
           style="fill:#000000;fill-opacity:1;fill-rule:nonzero;stroke:none"
           inkscape:transform-center-x="133.18349" />
        <path
           style="fill:#000000;fill-opacity:1;fill-rule:nonzero;stroke:none"
           d="m 214.15234,308.88991 35.86042,-59.28571 35.86042,59.28571 0,207.08127 -71.72084,0 z"
           id="path4129"
           inkscape:connector-curvature="0"
           sodipodi:nodetypes="cccccc" />
      </g>
      <g
         id="g4131"
         transform="matrix(0,1,1,0,-558.31123,713.05233)">
        <path
           style="fill:#000000;fill-opacity:1;fill-rule:nonzero;stroke:none"
           d="m 214.15234,108.87971 35.86042,-59.285718 35.86042,59.285718 0,207.08127 -71.72084,0 z"
           id="path4133"
           inkscape:connector-curvature="0"
           sodipodi:nodetypes="cccccc" />
        <path
           sodipodi:nodetypes="cccccc"
           inkscape:connector-curvature="0"
           id="path4135"
           d="m 421.73869,237.67415 59.28571,35.86042 -59.28571,35.86042 -207.08127,0 0,-71.72084 z"
           style="fill:#000000;fill-opacity:1;fill-rule:nonzero;stroke:none"
           inkscape:transform-center-x="-133.18349" />
        <path
           inkscape:transform-center-x="133.18349"
           style="fill:#000000;fill-opacity:1;fill-rule:nonzero;stroke:none"
           d="m 75.256371,237.67415 -59.28571,35.86042 59.28571,35.86042 207.081269,0 0,-71.72084 z"
           id="path4137"
           inkscape:connector-curvature="0"
           sodipodi:nodetypes="cccccc" />
        <path
           sodipodi:nodetypes="cccccc"
           inkscape:connector-curvature="0"
           id="path4139"
           d="m 214.15234,308.88991 35.86042,-59.28571 35.86042,59.28571 0,207.08127 -71.72084,0 z"
           style="fill:#000000;fill-opacity:1;fill-rule:nonzero;stroke:none" />
      </g>
      <path
         inkscape:connector-curvature="0"
         id="path4141"
         d="m 250.00504,916.19824 -35.8437,59.28125 0,207.06251 0.0624,0 -0.0624,0.2187 0,401.8438 71.7187,0 0,-401.8438 -0.0625,-0.2187 0.0625,0 0,-207.06251 -35.875,-59.28125 z"
         style="fill:#000000;fill-opacity:1;fill-rule:nonzero;stroke:none" />
      <path
         style="fill:#000000;fill-opacity:1;fill-rule:nonzero;stroke:none"
         d="m -95.611021,962.50404 59.2813,35.8437 207.062501,0 0,-0.062 0.2187,0.062 401.84378,0 0,-71.7187 -401.84378,0 -0.2187,0.062 0,-0.062 -207.062501,0 -59.2813,35.875 z"
         id="path4143"
         inkscape:connector-curvature="0" />
      <g
         id="g4145"
         transform="matrix(0,1,-1,0,1293.0685,991.85439)">
        <path
           style="fill:#000000;fill-opacity:1;fill-rule:nonzero;stroke:none"
           d="m 214.15234,108.87971 35.86042,-59.285718 35.86042,59.285718 0,207.08127 -71.72084,0 z"
           id="path4147"
           inkscape:connector-curvature="0"
           sodipodi:nodetypes="cccccc" />
        <path
           sodipodi:nodetypes="cccccc"
           inkscape:connector-curvature="0"
           id="path4149"
           d="m 421.73869,237.67415 59.28571,35.86042 -59.28571,35.86042 -207.08127,0 0,-71.72084 z"
           style="fill:#000000;fill-opacity:1;fill-rule:nonzero;stroke:none"
           inkscape:transform-center-x="-133.18349" />
        <path
           inkscape:transform-center-x="133.18349"
           style="fill:#000000;fill-opacity:1;fill-rule:nonzero;stroke:none"
           d="m 75.256371,237.67415 -59.28571,35.86042 59.28571,35.86042 207.081269,0 0,-71.72084 z"
           id="path4151"
           inkscape:connector-curvature="0"
           sodipodi:nodetypes="cccccc" />
        <path
           sodipodi:nodetypes="cccccc"
           inkscape:connector-curvature="0"
           id="path4153"
           d="m 214.15234,308.88991 35.86042,-59.28571 35.86042,59.28571 0,207.08127 -71.72084,0 z"
           style="fill:#000000;fill-opacity:1;fill-rule:nonzero;stroke:none" />
      </g>
      <g
         transform="matrix(0,1,1,0,-800.74784,991.85439)"
         id="g4155">
        <path
           sodipodi:nodetypes="cccccc"
           inkscape:connector-curvature="0"
           id="path4157"
           d="m 214.15234,108.87971 35.86042,-59.285718 35.86042,59.285718 0,207.08127 -71.72084,0 z"
           style="fill:#000000;fill-opacity:1;fill-rule:nonzero;stroke:none" />
        <path
           inkscape:transform-center-x="-133.18349"
           style="fill:#000000;fill-opacity:1;fill-rule:nonzero;stroke:none"
           d="m 421.73869,237.67415 59.28571,35.86042 -59.28571,35.86042 -207.08127,0 0,-71.72084 z"
           id="path4159"
           inkscape:connector-curvature="0"
           sodipodi:nodetypes="cccccc" />
        <path
           sodipodi:nodetypes="cccccc"
           inkscape:connector-curvature="0"
           id="path4161"
           d="m 75.256371,237.67415 -59.28571,35.86042 59.28571,35.86042 207.081269,0 0,-71.72084 z"
           style="fill:#000000;fill-opacity:1;fill-rule:nonzero;stroke:none"
           inkscape:transform-center-x="133.18349" />
        <path
           style="fill:#000000;fill-opacity:1;fill-rule:nonzero;stroke:none"
           d="m 214.15234,308.88991 35.86042,-59.28571 35.86042,59.28571 0,207.08127 -71.72084,0 z"
           id="path4163"
           inkscape:connector-curvature="0"
           sodipodi:nodetypes="cccccc" />
      </g>
      <path
         inkscape:connector-curvature="0"
         id="path4165"
         d="m -386.53495,1241.3062 108.37714,35.8437 378.54841,0 0,-0.062 0.39983,0.062 734.64449,0 0,-71.7187 -734.64449,0 -0.39983,0.062 0,-0.062 -378.54841,0 -108.37714,35.875 z"
         style="fill:#000000;fill-opacity:1;fill-rule:nonzero;stroke:none" />
      <path
         style="fill:#000000;fill-opacity:1;fill-rule:nonzero;stroke:none"
         d="m -23.384748,1005.9842 -35.87505,59.2813 0,139.375 0,67.6875 0,139.4062 35.87505,59.2813 35.84375,-59.2813 0,-139.4062 0,-67.6875 0,-139.375 -35.84375,-59.2813 z"
         id="path4167"
         inkscape:connector-curvature="0" />
      <path
         inkscape:connector-curvature="0"
         id="path4169"
         d="m 526.13824,1005.9842 -35.87505,59.2813 0,139.375 0,67.6875 0,139.4062 35.87505,59.2813 35.84375,-59.2813 0,-139.4062 0,-67.6875 0,-139.375 -35.84375,-59.2813 z"
         style="fill:#000000;fill-opacity:1;fill-rule:nonzero;stroke:none" />
    </g>
  </g>
</svg>
