<?xml version="1.0" encoding="UTF-8" standalone="no"?>
<!-- Created with Inkscape (http://www.inkscape.org/) -->

<svg
   xmlns:dc="http://purl.org/dc/elements/1.1/"
   xmlns:cc="http://creativecommons.org/ns#"
   xmlns:rdf="http://www.w3.org/1999/02/22-rdf-syntax-ns#"
   xmlns:svg="http://www.w3.org/2000/svg"
   xmlns="http://www.w3.org/2000/svg"
   xmlns:xlink="http://www.w3.org/1999/xlink"
   xmlns:sodipodi="http://sodipodi.sourceforge.net/DTD/sodipodi-0.dtd"
   xmlns:inkscape="http://www.inkscape.org/namespaces/inkscape"
   width="744.09448819"
   height="1052.3622047"
   id="svg5740"
   version="1.1"
   inkscape:version="0.48.2 r9819"
   sodipodi:docname="solar_regnbagar.svg">
  <defs
     id="defs5742">
    <inkscape:path-effect
       effect="skeletal"
       id="path-effect6633"
       is_visible="true"
       pattern="M 0,0 1,0"
       copytype="single_stretched"
       prop_scale="1"
       scale_y_rel="false"
       spacing="0"
       normal_offset="0"
       tang_offset="0"
       prop_units="false"
       vertical_pattern="false"
       fuse_tolerance="0" />
    <inkscape:path-effect
       effect="spiro"
       id="path-effect6631"
       is_visible="true" />
    <linearGradient
       id="linearGradient6607">
      <stop
         id="stop6625"
         offset="0"
         style="stop-color:#8c006f;stop-opacity:0.98431373;" />
      <stop
         id="stop6623"
         offset="0.70717466"
         style="stop-color:#8000ff;stop-opacity:0.96862745;" />
      <stop
         id="stop6621"
         offset="0.76887619"
         style="stop-color:#0000ff;stop-opacity:0.93725491;" />
      <stop
         id="stop6619"
         offset="0.83988672"
         style="stop-color:#00ff00;stop-opacity:1;" />
      <stop
         id="stop6617"
         offset="0.90105754"
         style="stop-color:#ffff00;stop-opacity:1;" />
      <stop
         id="stop6615"
         offset="0.96382535"
         style="stop-color:#ff8000;stop-opacity:1;" />
      <stop
         style="stop-color:#ff0000;stop-opacity:1;"
         offset="1"
         id="stop6611" />
    </linearGradient>
    <inkscape:path-effect
       effect="skeletal"
       id="path-effect6597"
       is_visible="true"
       pattern="m 2.8571429,10.961767 1,0"
       copytype="single_stretched"
       prop_scale="1"
       scale_y_rel="false"
       spacing="0"
       normal_offset="0"
       tang_offset="0"
       prop_units="false"
       vertical_pattern="false"
       fuse_tolerance="0" />
    <inkscape:path-effect
       effect="spiro"
       id="path-effect6595"
       is_visible="true" />
    <linearGradient
       id="linearGradient6580">
      <stop
         style="stop-color:#ffff00;stop-opacity:1;"
         offset="0"
         id="stop6582" />
      <stop
         style="stop-color:#ff7600;stop-opacity:1;"
         offset="1"
         id="stop6584" />
    </linearGradient>
    <linearGradient
       id="linearGradient6556">
      <stop
         style="stop-color:#ffff00;stop-opacity:1;"
         offset="0"
         id="stop6558" />
      <stop
         style="stop-color:#ff9b00;stop-opacity:1;"
         offset="1"
         id="stop6560" />
    </linearGradient>
    <radialGradient
       inkscape:collect="always"
       xlink:href="#linearGradient6556"
       id="radialGradient6562"
       cx="183.46875"
       cy="226.1875"
       fx="183.46875"
       fy="226.1875"
       r="328.25"
       gradientUnits="userSpaceOnUse"
       gradientTransform="matrix(1.2437471,0,0,1.1350684,663.85144,246.59208)" />
    <radialGradient
       inkscape:collect="always"
       xlink:href="#linearGradient6580"
       id="radialGradient6586"
       cx="102.85938"
       cy="-24.78125"
       fx="102.85938"
       fy="-24.78125"
       r="174.29688"
       gradientTransform="matrix(1.3622116,0,0,1.3623337,604.38373,-612.40321)"
       gradientUnits="userSpaceOnUse" />
    <radialGradient
       inkscape:collect="always"
       xlink:href="#linearGradient6607"
       id="radialGradient6613"
       cx="374.26562"
       cy="91.924904"
       fx="374.26562"
       fy="91.924904"
       r="337.14062"
       gradientTransform="matrix(1,0,0,0.99577889,0,-168.20724)"
       gradientUnits="userSpaceOnUse" />
  </defs>
  <sodipodi:namedview
     id="base"
     pagecolor="#ffffff"
     bordercolor="#666666"
     borderopacity="1.0"
     inkscape:pageopacity="0.0"
     inkscape:pageshadow="2"
     inkscape:zoom="0.15282866"
     inkscape:cx="-1528.4798"
     inkscape:cy="1777.1944"
     inkscape:document-units="px"
     inkscape:current-layer="layer1"
     showgrid="false"
     showguides="true"
     inkscape:guide-bbox="true"
     inkscape:window-width="1366"
     inkscape:window-height="721"
     inkscape:window-x="-4"
     inkscape:window-y="24"
     inkscape:window-maximized="1" />
  <metadata
     id="metadata5745">
    <rdf:RDF>
      <cc:Work
         rdf:about="">
        <dc:format>image/svg+xml</dc:format>
        <dc:type
           rdf:resource="http://purl.org/dc/dcmitype/StillImage" />
        <dc:title></dc:title>
      </cc:Work>
    </rdf:RDF>
  </metadata>
  <g
     inkscape:label="Layer 1"
     inkscape:groupmode="layer"
     id="layer1">
    <path
       style="fill:url(#radialGradient6562);fill-opacity:1;stroke:none"
       d="m 989.04017,180.08035 -43.46875,95.46876 c 9.29011,2.17432 18.3602,4.8801 27.1875,8.125 l 16.28125,-103.59376 z m -257,26.125 36.78125,98.25001 c 8.01339,-4.97527 16.37959,-9.47367 25,-13.46875 l -61.78125,-84.78126 z m 160,124.65625 c -95.24197,0 -172.4375,77.22678 -172.4375,172.46875 0,95.24197 77.19553,172.4375 172.4375,172.4375 95.24197,0 172.46873,-77.19553 172.46873,-172.4375 0,-95.24197 -77.22676,-172.46875 -172.46873,-172.46875 z m 297.15623,12.46875 -98.25,36.78125 c 4.9793,8.02033 9.4714,16.37167 13.4688,25 l 84.7812,-61.78125 z m -620.40623,63.03125 95.46875,43.46875 c 2.1722,-9.28173 4.88412,-18.3677 8.125,-27.1875 L 568.79017,406.3616 z m 551.06253,150.5 c -2.1721,9.28049 -4.9158,18.33758 -8.1563,27.15625 l 103.5938,16.28125 -95.4375,-43.4375 z m -440.18753,44.71875 -84.75,61.75 98.25,-36.78125 c -4.97619,-8.01538 -9.50447,-16.3461 -13.5,-24.96875 z M 1015.2589,702.2366 c -8.0233,4.98113 -16.36821,9.47027 -24.99998,13.46875 l 61.78128,84.78125 -36.7813,-98.25 z m -203.90623,20.75 -16.28125,103.59375 43.4375,-95.46875 c -9.26895,-2.1708 -18.34806,-4.88839 -27.15625,-8.125 z"
       id="path5763"
       inkscape:connector-curvature="0" />
    <path
       style="fill:#ffff00;fill-opacity:1;stroke:#000000;stroke-width:10;stroke-linecap:butt;stroke-linejoin:miter;stroke-miterlimit:4.4000001;stroke-opacity:1;stroke-dasharray:none;stroke-dashoffset:0"
       d="m -842.85714,-96.397325 -9.375,132.000004 c 4.04299,-0.25104 8.11252,-0.375 12.21875,-0.375 2.17226,0 4.34494,0.05425 6.5,0.125 l -9.34375,-131.750004 z m -123.625,24.5625 42.09375,126.281254 c 5.63928,-2.72332 11.44853,-5.16548 17.375,-7.34375 l -59.46875,-118.937504 z m 247.25,0 -58.59375,117.218754 c 5.88779,1.98805 11.66147,4.25943 17.28125,6.78125 l 41.3125,-124.000004 z m -352.06246,70.0312533 87.40621,100.7812507 c 4.23326,-4.66299 8.68032,-9.14221 13.34375,-13.375 L -1071.2946,-1.8035717 z m 456.87496,0 -97.875,84.9062507 c 4.61204,4.02624 9.03744,8.24806 13.25,12.6875 l 84.625,-97.5937507 z M -840.01339,85.352679 c -79.61045,0 -144.125,64.545801 -144.125,144.156251 0,79.61045 64.51455,144.15625 144.125,144.15625 79.61045,0 144.15625,-64.5458 144.15625,-144.15625 0,-79.61045 -64.5458,-144.156251 -144.15625,-144.156251 z m -301.31251,17.656251 118.9375,59.46875 c 2.1784,-5.92677 4.589,-11.73545 7.3125,-17.375 l -126.25,-42.09375 z m 596.93751,0 -121.375,40.46875 c 2.66794,5.39377 5.0825,10.93099 7.25,16.59375 l 114.125,-57.0625 z m -489.50001,114.25 -132.0312,9.375 131.75,9.34375 c -0.071,-2.15201 -0.125,-4.29958 -0.125,-6.46875 0,-4.11746 0.1538,-8.19613 0.4062,-12.25 z m 387.78126,0.40625 c 0.23588,3.92011 0.40625,7.86435 0.40625,11.84375 0,2.03309 -0.063,4.04445 -0.125,6.0625 l 126.03125,-8.9375 -126.3125,-8.96875 z m -377.99996,74 -117.2188,58.625 123.9688,-41.34375 c -2.5251,-5.62737 -4.7602,-11.38518 -6.75,-17.28125 z m 367.37496,2.4375 c -1.98369,5.62867 -4.21348,11.1225 -6.6875,16.5 l 119.03125,39.6875 -112.34375,-56.1875 z m -329.6875,63.125 -84.87496,97.84375 97.56246,-84.625 c -4.43256,-4.207 -8.66697,-8.61344 -12.6875,-13.21875 z m 289.9375,3.21875 c -3.99187,4.37303 -8.15909,8.56969 -12.53125,12.5625 l 94.59375,82.0625 -82.0625,-94.625 z m -229.53125,43.28125 -40.46875,121.375 57.03125,-114.09375 c -5.65391,-2.1651 -11.17681,-4.61723 -16.5625,-7.28125 z m 167.125,2.375 c -5.36709,2.46923 -10.88269,4.67543 -16.5,6.65625 l 56.15625,112.34375 -39.65625,-119 z m -92.9375,17.3125 8.96875,126.28125 8.9375,-126 c -2.01991,0.0621 -4.05877,0.0937 -6.09375,0.0937 -3.96883,0 -7.90263,-0.14037 -11.8125,-0.375 z"
       id="path6540"
       inkscape:connector-curvature="0" />
    <path
       sodipodi:type="star"
       style="fill:#ffff00;fill-opacity:1;stroke:none"
       id="path6566"
       sodipodi:sides="4"
       sodipodi:cx="-120"
       sodipodi:cy="418.07647"
       sodipodi:r1="231.49911"
       sodipodi:r2="62.1033"
       sodipodi:arg1="-1.5707963"
       sodipodi:arg2="-0.78539816"
       inkscape:flatsided="false"
       inkscape:rounded="0"
       inkscape:randomized="0"
       d="m -119.99999,186.57736 43.913653,187.58545 187.585447,43.91367 -187.585447,43.91366 -43.913673,187.58545 -43.91365,-187.58545 -187.58545,-43.91367 187.58545,-43.91366 z" />
    <path
       d="m -119.99999,186.57736 43.913653,187.58545 187.585447,43.91367 -187.585447,43.91366 -43.913673,187.58545 -43.91365,-187.58545 -187.58545,-43.91367 187.58545,-43.91366 z"
       inkscape:randomized="0"
       inkscape:rounded="0"
       inkscape:flatsided="false"
       sodipodi:arg2="-0.78539816"
       sodipodi:arg1="-1.5707963"
       sodipodi:r2="62.103298"
       sodipodi:r1="231.49911"
       sodipodi:cy="418.07648"
       sodipodi:cx="-120"
       sodipodi:sides="4"
       id="path6568"
       style="fill:#ffff00;fill-opacity:1;stroke:none"
       sodipodi:type="star"
       transform="matrix(0.70710678,0.70710678,-0.70710678,0.70710678,260.47753,207.30458)" />
    <path
       style="fill:url(#radialGradient6613);fill-opacity:1;stroke:none"
       d="M 374.28125 -413.8125 C 188.09287 -413.8125 37.141987 -262.87191 37.125 -76.6875 L 151.40625 -76.6875 C 151.42323 -199.75365 251.21112 -299.53125 374.28125 -299.53125 C 497.35137 -299.53125 597.10802 -199.75365 597.125 -76.6875 L 711.40625 -76.6875 C 711.38926 -262.8719 560.46963 -413.8125 374.28125 -413.8125 z "
       id="path6604" />
    <path
       style="fill:none;fill-opacity:1;stroke:none"
       d="M 597.13393 -76.691861 C 597.13393 -76.681385 597.13393 -76.670909 597.13393 -76.660433 C 597.13393 46.420167 497.37078 146.18333 374.29018 146.18333 C 251.20958 146.18333 151.41518 46.420167 151.41518 -76.660433 C 151.41518 -76.670906 151.41518 -76.681378 151.41518 -76.69185 "
       id="path6602" />
    <path
       style="fill:none;fill-opacity:1;stroke:none"
       d="M 37.13393 -76.691863 C 37.133929 -76.681387 37.133929 -76.67091 37.133929 -76.660433 C 37.133929 109.53844 188.09132 260.46458 374.29018 260.46458 C 560.48904 260.46458 711.41518 109.53844 711.41518 -76.660433 C 711.41518 -76.670911 711.41518 -76.681388 711.41518 -76.691865 "
       id="path6588" />
    <path
       style="fill:url(#radialGradient6586);fill-opacity:1;stroke:none"
       d="m 744.48435,-820.47604 -35.25,64.875 c 11.96428,-4.05992 24.78852,-6.28125 38.125,-6.28125 10.82806,0 21.31514,1.46858 31.28125,4.1875 l -34.15625,-62.78125 z m -123.25,51.0625 21.0625,71.15625 c 11.20322,-21.37703 28.71851,-38.91884 50.09375,-50.125 l -71.15625,-21.03125 z m 246.53125,0 -67.53125,19.96875 c 20.03279,10.00115 36.84179,25.50326 48.4375,44.53125 l 19.09375,-64.5 z m -120.40625,30.40625 c -52.86154,0 -95.71875,42.82596 -95.71875,95.6875 0,52.86153 42.85721,95.71874 95.71875,95.71874 52.86154,0 95.71875,-42.85721 95.71875,-95.71874 0,-52.86154 -42.85721,-95.6875 -95.71875,-95.6875 z m -112.3125,57.59375 -64.84375,35.25 62.75,34.125 c -2.71596,-9.96108 -4.15625,-20.45931 -4.15625,-31.28125 0,-13.33636 2.19015,-26.12957 6.25,-38.09375 z m 225.84375,3.78125 c 3.28114,10.86608 5.03125,22.3761 5.03125,34.3125 0,9.52103 -1.13068,18.78446 -3.25,27.65625 l 56.125,-30.5 -57.90625,-31.46875 z m -219.6875,87.18749 -19.96875,67.53125 64.53125,-19.0625 c -19.05249,-11.60158 -34.55565,-28.41186 -44.5625,-48.46875 z m 208.59375,6.84375 c -10.32038,17.67064 -25.07895,32.43026 -42.75,42.75 l 60.71875,17.9375 -17.96875,-60.6875 z m -136.8125,53.8125 31.5,57.9375 30.53125,-56.125 c -8.87387,2.12038 -18.13277,3.25 -27.65625,3.25 -11.95495,0 -23.49407,-1.77153 -34.375,-5.0625 z"
       id="path6572"
       inkscape:connector-curvature="0" />
    <path
       style="font-size:medium;font-style:normal;font-variant:normal;font-weight:normal;font-stretch:normal;text-indent:0;text-align:start;text-decoration:none;line-height:normal;letter-spacing:normal;word-spacing:normal;text-transform:none;direction:ltr;block-progression:tb;writing-mode:lr-tb;text-anchor:start;baseline-shift:baseline;color:#000000;fill:#e7ab00;fill-opacity:1;fill-rule:nonzero;stroke:none;stroke-width:50;marker:none;visibility:visible;display:inline;overflow:visible;enable-background:accumulate;font-family:Sans;-inkscape-font-specification:Sans"
       d="m -1090.8099,-1630.2475 c -190.2421,0 -345,154.7579 -345,345 0,190.2422 154.7579,345.00005 345,345.00005 190.24215,0 345.00003,-154.75785 345.00003,-345.00005 0,-190.2421 -154.75788,-345 -345.00003,-345 z m 0,50 c 163.22015,0 295.00003,131.7799 295.00003,295 0,163.2202 -131.77988,295.00005 -295.00003,295.00005 -163.2201,0 -295,-131.77985 -295,-295.00005 0,-163.2201 131.7799,-295 295,-295 z"
       id="path6627"
       inkscape:connector-curvature="0" />
    <path
       style="font-size:medium;font-style:normal;font-variant:normal;font-weight:normal;font-stretch:normal;text-indent:0;text-align:start;text-decoration:none;line-height:normal;letter-spacing:normal;word-spacing:normal;text-transform:none;direction:ltr;block-progression:tb;writing-mode:lr-tb;text-anchor:start;baseline-shift:baseline;color:#000000;fill:#000000;fill-opacity:1;stroke:none;stroke-width:1px;marker:none;visibility:visible;display:inline;overflow:visible;enable-background:accumulate;font-family:Sans;-inkscape-font-specification:Sans"
       d="m -1593.6693,-1285.7475 0,1 1005.71878,0 0,-1 -1005.71878,0 z"
       id="path6629"
       inkscape:connector-curvature="0" />
    <path
       style="fill:none;stroke:#e7ab00;stroke-width:50;stroke-linecap:butt;stroke-linejoin:miter;stroke-miterlimit:4;stroke-opacity:1;stroke-dasharray:none;stroke-dashoffset:0"
       d="M 600.61811 -1245.2838 C 600.61848 -1245.1161 600.61866 -1244.9484 600.61866 -1244.7806 L 600.61866 -1244.7806 C 600.61866 -1244.6129 600.61848 -1244.4452 600.61811 -1244.2775 "
       id="path6685" />
    <path
       style="font-size:medium;font-style:normal;font-variant:normal;font-weight:normal;font-stretch:normal;text-indent:0;text-align:start;text-decoration:none;line-height:normal;letter-spacing:normal;word-spacing:normal;text-transform:none;direction:ltr;block-progression:tb;writing-mode:lr-tb;text-anchor:start;baseline-shift:baseline;color:#000000;fill-opacity:1;stroke:none;stroke-width:50;marker:none;visibility:visible;display:inline;overflow:visible;enable-background:accumulate;font-family:Sans;-inkscape-font-specification:Sans"
       d="m 1374.9196,-1121.201 c -139.5618,0 -253.2932,113.5021 -253.5938,253.00006 l -0.031,25 50.0001,0.125 0.031,-25 c 0.2424,-112.5122 91.018,-203.12506 203.5937,-203.12506 112.5758,0 203.3201,90.61286 203.5625,203.12506 l 0.062,25 50,-0.125 -0.062,-25 c -0.3005,-139.49796 -114.0006,-253.00006 -253.5625,-253.00006 z"
       id="path6683"
       inkscape:connector-curvature="0"
       inkscape:transform-center-y="-139.0625"
       inkscape:tile-cx="372.06252"
       inkscape:tile-cy="-1220.2188"
       inkscape:tile-w="507.24995"
       inkscape:tile-h="278.125"
       inkscape:tile-x0="118.43755"
       inkscape:tile-y0="-1498.3438" />
    <path
       style="font-size:medium;font-style:normal;font-variant:normal;font-weight:normal;font-stretch:normal;text-indent:0;text-align:start;text-decoration:none;line-height:normal;letter-spacing:normal;word-spacing:normal;text-transform:none;direction:ltr;block-progression:tb;writing-mode:lr-tb;text-anchor:start;baseline-shift:baseline;color:#000000;fill-opacity:1;stroke:none;stroke-width:43.28571320000000400;marker:none;visibility:visible;display:inline;overflow:visible;enable-background:accumulate;font-family:Sans;-inkscape-font-specification:Sans"
       d="m -94,-983.375 c 0.289133,-108.2628 88.5462022,-196.375 196.875,-196.375 108.32881,0 196.64827,88.1122 196.9375,196.375 l -40.03125,0 c -0.2852,-86.6427 -70.19465,-156.4062 -156.90625,-156.4062 -86.711558,0 -156.589747,69.7636 -156.875,156.4062 z"
       id="path7455"
       inkscape:connector-curvature="0"
       sodipodi:nodetypes="csccscc"
       inkscape:tile-cx="102.90625"
       inkscape:tile-cy="-1081.5625"
       inkscape:tile-w="393.8125"
       inkscape:tile-h="196.375"
       inkscape:tile-x0="-94"
       inkscape:tile-y0="-1179.75" />
    <path
       inkscape:connector-curvature="0"
       id="path7457"
       d="m -381.44916,-1106.7366 0,1 1005.71878,0 0,-1 -1005.71878,0 z"
       style="font-size:medium;font-style:normal;font-variant:normal;font-weight:normal;font-stretch:normal;text-indent:0;text-align:start;text-decoration:none;line-height:normal;letter-spacing:normal;word-spacing:normal;text-transform:none;direction:ltr;block-progression:tb;writing-mode:lr-tb;text-anchor:start;baseline-shift:baseline;color:#000000;fill:none;fill-opacity:1;stroke:none;stroke-width:1px;marker:none;visibility:visible;display:inline;overflow:visible;enable-background:accumulate;font-family:Sans;-inkscape-font-specification:Sans" />
    <path
       sodipodi:nodetypes="csccscc"
       inkscape:connector-curvature="0"
       id="path8246"
       d="m -2168.2183,-1124.0554 c 0.2891,-108.2628 88.5462,-196.375 196.875,-196.375 108.3288,0 196.6483,88.1122 196.9375,196.375 l -40.0313,0 c -0.2852,-86.6427 -70.1946,-156.4062 -156.9062,-156.4062 -86.7116,0 -156.5898,69.7636 -156.875,156.4062 z"
       style="font-size:medium;font-style:normal;font-variant:normal;font-weight:normal;font-stretch:normal;text-indent:0;text-align:start;text-decoration:none;line-height:normal;letter-spacing:normal;word-spacing:normal;text-transform:none;direction:ltr;block-progression:tb;writing-mode:lr-tb;text-anchor:start;baseline-shift:baseline;color:#000000;fill-opacity:1;stroke:none;stroke-width:43.2857132;marker:none;visibility:visible;display:inline;overflow:visible;enable-background:accumulate;font-family:Sans;-inkscape-font-specification:Sans" />
    <use
       x="0"
       y="0"
       inkscape:tiled-clone-of="#path7455"
       xlink:href="#path7455"
       fill="#ff0000"
       stroke="#ff0000"
       id="use8262" />
    <use
       x="0"
       y="0"
       inkscape:tiled-clone-of="#path7455"
       xlink:href="#path7455"
       transform="matrix(0.9,0,0,0.9,10.290625,-98.3375)"
       fill="#ffd600"
       stroke="#ffd600"
       id="use8264" />
    <use
       x="0"
       y="0"
       inkscape:tiled-clone-of="#path7455"
       xlink:href="#path7455"
       transform="matrix(0.8,0,0,0.8,20.58125,-196.675)"
       fill="#52ff00"
       stroke="#52ff00"
       id="use8266" />
    <use
       x="0"
       y="0"
       inkscape:tiled-clone-of="#path7455"
       xlink:href="#path7455"
       transform="matrix(0.7,0,0,0.7,30.871875,-295.0125)"
       fill="#00ff85"
       stroke="#00ff85"
       id="use8268" />
    <use
       x="0"
       y="0"
       inkscape:tiled-clone-of="#path7455"
       xlink:href="#path7455"
       transform="matrix(0.6,0,0,0.6,41.1625,-393.35)"
       fill="#00a3ff"
       stroke="#00a3ff"
       id="use8270" />
    <use
       x="0"
       y="0"
       inkscape:tiled-clone-of="#path7455"
       xlink:href="#path7455"
       transform="matrix(0.5,0,0,0.5,51.453125,-491.6875)"
       fill="#3300ff"
       stroke="#3300ff"
       id="use8272" />
    <use
       x="0"
       y="0"
       inkscape:tiled-clone-of="#path7455"
       xlink:href="#path7455"
       transform="matrix(0.4,0,0,0.4,61.74375,-590.025)"
       fill="#ff00f5"
       stroke="#ff00f5"
       id="use8274" />
    <path
       style="font-size:medium;font-style:normal;font-variant:normal;font-weight:normal;font-stretch:normal;text-indent:0;text-align:start;text-decoration:none;line-height:normal;letter-spacing:normal;word-spacing:normal;text-transform:none;direction:ltr;block-progression:tb;writing-mode:lr-tb;text-anchor:start;baseline-shift:baseline;color:#000000;fill-opacity:1;stroke:none;stroke-width:43.2857132;marker:none;visibility:visible;display:inline;overflow:visible;enable-background:accumulate;font-family:Sans;-inkscape-font-specification:Sans"
       d="m -2632.7909,-1124.0554 c 0.2891,-108.2628 88.5462,-196.375 196.875,-196.375 108.3288,0 196.6483,88.1122 196.9375,196.375 l -40.0313,0 c -0.2852,-86.6427 -70.1946,-156.4062 -156.9062,-156.4062 -86.7116,0 -156.5898,69.7636 -156.875,156.4062 z"
       id="path8313"
       inkscape:connector-curvature="0"
       sodipodi:nodetypes="csccscc" />
    <path
       sodipodi:nodetypes="csccscc"
       inkscape:connector-curvature="0"
       id="path8315"
       d="m -3169.3394,-1124.0554 c 0.2891,-108.2628 88.5462,-196.375 196.875,-196.375 108.3288,0 196.6483,88.1122 196.9375,196.375 l -40.0313,0 c -0.2852,-86.6427 -70.1946,-156.4062 -156.9062,-156.4062 -86.7116,0 -156.5898,69.7636 -156.875,156.4062 z"
       style="font-size:medium;font-style:normal;font-variant:normal;font-weight:normal;font-stretch:normal;text-indent:0;text-align:start;text-decoration:none;line-height:normal;letter-spacing:normal;word-spacing:normal;text-transform:none;direction:ltr;block-progression:tb;writing-mode:lr-tb;text-anchor:start;baseline-shift:baseline;color:#000000;fill-opacity:1;stroke:none;stroke-width:43.2857132;marker:none;visibility:visible;display:inline;overflow:visible;enable-background:accumulate;font-family:Sans;-inkscape-font-specification:Sans" />
    <path
       sodipodi:type="arc"
       style="fill-opacity:1;fill-rule:nonzero;stroke:#e7ab00;stroke-width:60.46980286;stroke-linecap:square;stroke-linejoin:miter;stroke-miterlimit:4;stroke-opacity:1;stroke-dasharray:none;stroke-dashoffset:0"
       id="path8317"
       sodipodi:cx="-1684.8934"
       sodipodi:cy="-2111.3115"
       sodipodi:rx="284.63248"
       sodipodi:ry="284.63248"
       d="m -1400.261,-2111.3115 a 284.63248,284.63248 0 1 1 -569.2649,0 284.63248,284.63248 0 1 1 569.2649,0 z"
       transform="matrix(0.99223079,0,0,0.99223079,1024.9415,8.847244)" />
    <path
       style="font-size:medium;font-style:normal;font-variant:normal;font-weight:normal;font-stretch:normal;text-indent:0;text-align:start;text-decoration:none;line-height:normal;letter-spacing:normal;word-spacing:normal;text-transform:none;direction:ltr;block-progression:tb;writing-mode:lr-tb;text-anchor:start;baseline-shift:baseline;color:#000000;fill-opacity:1;stroke:#000000;stroke-width:15;marker:none;visibility:visible;display:inline;overflow:visible;enable-background:accumulate;font-family:Sans;-inkscape-font-specification:Sans;stroke-opacity:1;stroke-miterlimit:4;stroke-dasharray:none"
       d="m -3066.0647,-2228.5364 0,-30 c 0,-158.9564 129.4812,-288.4688 288.4376,-288.4688 158.9563,0 288.4687,129.5124 288.4687,288.4688 l 0,30 -60,0 0,-30 c 0,-126.5301 -101.9387,-228.4688 -228.4687,-228.4688 -126.5299,0 -228.4376,101.9387 -228.4376,228.4688 l 0,30 -60,0 z"
       id="path8319"
       inkscape:connector-curvature="0" />
    <path
       inkscape:connector-curvature="0"
       id="path8382"
       d="m -2320.1313,-2228.5364 0,-30 c 0,-158.9564 129.4812,-288.4688 288.4376,-288.4688 158.9563,0 288.4687,129.5124 288.4687,288.4688 l 0,30 -60,0 0,-30 c 0,-126.5301 -101.9387,-228.4688 -228.4687,-228.4688 -126.5299,0 -228.4376,101.9387 -228.4376,228.4688 l 0,30 -60,0 z"
       style="font-size:medium;font-style:normal;font-variant:normal;font-weight:normal;font-stretch:normal;text-indent:0;text-align:start;text-decoration:none;line-height:normal;letter-spacing:normal;word-spacing:normal;text-transform:none;direction:ltr;block-progression:tb;writing-mode:lr-tb;text-anchor:start;baseline-shift:baseline;color:#000000;fill-opacity:1;stroke:#000000;stroke-width:15;stroke-miterlimit:4;stroke-opacity:1;stroke-dasharray:none;marker:none;visibility:visible;display:inline;overflow:visible;enable-background:accumulate;font-family:Sans;-inkscape-font-specification:Sans" />
    <path
       style="font-size:medium;font-style:normal;font-variant:normal;font-weight:normal;font-stretch:normal;text-indent:0;text-align:start;text-decoration:none;line-height:normal;letter-spacing:normal;word-spacing:normal;text-transform:none;direction:ltr;block-progression:tb;writing-mode:lr-tb;text-anchor:start;baseline-shift:baseline;color:#000000;fill-opacity:1;stroke:#000000;stroke-width:10;stroke-miterlimit:4;stroke-opacity:1;stroke-dasharray:none;marker:none;visibility:visible;display:inline;overflow:visible;enable-background:accumulate;font-family:Sans;-inkscape-font-specification:Sans"
       d="m -1711.6067,-2228.5364 0,-30 c 0,-158.9564 129.4812,-288.4688 288.4376,-288.4688 158.9563,0 288.4687,129.5124 288.4687,288.4688 l 0,30 -60,0 0,-30 c 0,-126.5301 -101.9387,-228.4688 -228.4687,-228.4688 -126.5299,0 -228.4376,101.9387 -228.4376,228.4688 l 0,30 -60,0 z"
       id="path8398"
       inkscape:connector-curvature="0"
       inkscape:tile-cx="-1423.1535"
       inkscape:tile-cy="-2387.7708"
       inkscape:tile-w="576.9063"
       inkscape:tile-h="318.4688"
       inkscape:tile-x0="-1711.6067"
       inkscape:tile-y0="-2547.0052" />
    <path
       inkscape:tile-y0="-2547.0052"
       inkscape:tile-x0="-1711.6067"
       inkscape:connector-curvature="0"
       id="use8400"
       d="m -1711.6067,-2228.5364 0,-30 c 0,-158.9564 129.4812,-288.4688 288.4376,-288.4688 158.9563,0 288.4687,129.5124 288.4687,288.4688 l 0,30 -60,0 0,-30 c 0,-126.5301 -101.9387,-228.4688 -228.4687,-228.4688 -126.5299,0 -228.4376,101.9387 -228.4376,228.4688 l 0,30 -60,0 z"
       style="font-size:medium;font-style:normal;font-variant:normal;font-weight:normal;font-stretch:normal;text-indent:0;text-align:start;text-decoration:none;line-height:normal;letter-spacing:normal;word-spacing:normal;text-transform:none;direction:ltr;block-progression:tb;writing-mode:lr-tb;text-anchor:start;baseline-shift:baseline;color:#000000;fill:#ff0000;fill-opacity:1;stroke:#000000;stroke-width:10;marker:none;visibility:visible;display:inline;overflow:visible;enable-background:accumulate;font-family:Sans;-inkscape-font-specification:Sans;stroke-opacity:1;stroke-miterlimit:4;stroke-dasharray:none" />
    <path
       inkscape:tile-y0="-2547.0052"
       inkscape:tile-x0="-1711.6067"
       inkscape:connector-curvature="0"
       id="use8402"
       d="m -1682.7614,-2228.5364 0,-27 c 0,-143.0608 116.5331,-259.6219 259.5939,-259.6219 143.0606,0 259.6218,116.5611 259.6218,259.6219 l 0,27 -54,0 0,-27 c 0,-113.8771 -91.7448,-205.6219 -205.6218,-205.6219 -113.877,0 -205.5939,91.7448 -205.5939,205.6219 l 0,27 -54,0 z"
       style="font-size:medium;font-style:normal;font-variant:normal;font-weight:normal;font-stretch:normal;text-indent:0;text-align:start;text-decoration:none;line-height:normal;letter-spacing:normal;word-spacing:normal;text-transform:none;direction:ltr;block-progression:tb;writing-mode:lr-tb;text-anchor:start;baseline-shift:baseline;color:#000000;fill:#ffd600;fill-opacity:1;stroke:#000000;stroke-width:10;marker:none;visibility:visible;display:inline;overflow:visible;enable-background:accumulate;font-family:Sans;-inkscape-font-specification:Sans;stroke-opacity:1;stroke-miterlimit:4;stroke-dasharray:none" />
    <path
       inkscape:tile-y0="-2547.0052"
       inkscape:tile-x0="-1711.6067"
       inkscape:connector-curvature="0"
       id="use8404"
       d="m -1653.9161,-2228.5364 0,-24 c 0,-127.1651 103.585,-230.775 230.7501,-230.775 127.165,0 230.775,103.6099 230.775,230.775 l 0,24 -48,0 0,-24 c 0,-101.2241 -81.551,-182.775 -182.775,-182.775 -101.2239,0 -182.7501,81.5509 -182.7501,182.775 l 0,24 -48,0 z"
       style="font-size:medium;font-style:normal;font-variant:normal;font-weight:normal;font-stretch:normal;text-indent:0;text-align:start;text-decoration:none;line-height:normal;letter-spacing:normal;word-spacing:normal;text-transform:none;direction:ltr;block-progression:tb;writing-mode:lr-tb;text-anchor:start;baseline-shift:baseline;color:#000000;fill:#52ff00;fill-opacity:1;stroke:#000000;stroke-width:10;marker:none;visibility:visible;display:inline;overflow:visible;enable-background:accumulate;font-family:Sans;-inkscape-font-specification:Sans;stroke-opacity:1;stroke-miterlimit:4;stroke-dasharray:none" />
    <path
       inkscape:tile-y0="-2547.0052"
       inkscape:tile-x0="-1711.6067"
       inkscape:connector-curvature="0"
       id="use8406"
       d="m -1625.0708,-2228.5364 0,-21 c 0,-111.2695 90.6369,-201.9282 201.9064,-201.9282 111.2694,0 201.928,90.6587 201.928,201.9282 l 0,21 -42,0 0,-21 c 0,-88.5711 -71.357,-159.9282 -159.928,-159.9282 -88.571,0 -159.9064,71.3571 -159.9064,159.9282 l 0,21 -42,0 z"
       style="font-size:medium;font-style:normal;font-variant:normal;font-weight:normal;font-stretch:normal;text-indent:0;text-align:start;text-decoration:none;line-height:normal;letter-spacing:normal;word-spacing:normal;text-transform:none;direction:ltr;block-progression:tb;writing-mode:lr-tb;text-anchor:start;baseline-shift:baseline;color:#000000;fill:#00ff85;fill-opacity:1;stroke:#000000;stroke-width:10;marker:none;visibility:visible;display:inline;overflow:visible;enable-background:accumulate;font-family:Sans;-inkscape-font-specification:Sans;stroke-opacity:1;stroke-miterlimit:4;stroke-dasharray:none" />
    <path
       inkscape:tile-y0="-2547.0052"
       inkscape:tile-x0="-1711.6067"
       inkscape:connector-curvature="0"
       id="use8408"
       d="m -1596.2254,-2228.5364 0,-18 c 0,-95.3738 77.6887,-173.0813 173.0625,-173.0813 95.3738,0 173.0812,77.7075 173.0812,173.0813 l 0,18 -36,0 0,-18 c 0,-75.9181 -61.1632,-137.0813 -137.0812,-137.0813 -75.9179,0 -137.0625,61.1632 -137.0625,137.0813 l 0,18 -36,0 z"
       style="font-size:medium;font-style:normal;font-variant:normal;font-weight:normal;font-stretch:normal;text-indent:0;text-align:start;text-decoration:none;line-height:normal;letter-spacing:normal;word-spacing:normal;text-transform:none;direction:ltr;block-progression:tb;writing-mode:lr-tb;text-anchor:start;baseline-shift:baseline;color:#000000;fill:#00a3ff;fill-opacity:1;stroke:#000000;stroke-width:10;marker:none;visibility:visible;display:inline;overflow:visible;enable-background:accumulate;font-family:Sans;-inkscape-font-specification:Sans;stroke-opacity:1;stroke-miterlimit:4;stroke-dasharray:none" />
    <path
       inkscape:tile-y0="-2547.0052"
       inkscape:tile-x0="-1711.6067"
       inkscape:connector-curvature="0"
       id="use8410"
       d="m -1567.3801,-2228.5364 0,-15 c 0,-79.4782 64.7406,-144.2344 144.2188,-144.2344 79.4781,0 144.2343,64.7562 144.2343,144.2344 l 0,15 -30,0 0,-15 c 0,-63.2651 -50.9693,-114.2344 -114.2343,-114.2344 -63.265,0 -114.2188,50.9693 -114.2188,114.2344 l 0,15 -30,0 z"
       style="font-size:medium;font-style:normal;font-variant:normal;font-weight:normal;font-stretch:normal;text-indent:0;text-align:start;text-decoration:none;line-height:normal;letter-spacing:normal;word-spacing:normal;text-transform:none;direction:ltr;block-progression:tb;writing-mode:lr-tb;text-anchor:start;baseline-shift:baseline;color:#000000;fill:#3300ff;fill-opacity:1;stroke:#000000;stroke-width:10;marker:none;visibility:visible;display:inline;overflow:visible;enable-background:accumulate;font-family:Sans;-inkscape-font-specification:Sans;stroke-opacity:1;stroke-miterlimit:4;stroke-dasharray:none" />
    <path
       inkscape:tile-y0="-2547.0052"
       inkscape:tile-x0="-1711.6067"
       inkscape:connector-curvature="0"
       id="use8412"
       d="m -1538.5348,-2228.5364 0,-12 c 0,-63.5825 51.7925,-115.3875 115.375,-115.3875 63.5825,0 115.3875,51.805 115.3875,115.3875 l 0,12 -24,0 0,-12 c 0,-50.612 -40.7755,-91.3875 -91.3875,-91.3875 -50.6119,0 -91.375,40.7755 -91.375,91.3875 l 0,12 -24,0 z"
       style="font-size:medium;font-style:normal;font-variant:normal;font-weight:normal;font-stretch:normal;text-indent:0;text-align:start;text-decoration:none;line-height:normal;letter-spacing:normal;word-spacing:normal;text-transform:none;direction:ltr;block-progression:tb;writing-mode:lr-tb;text-anchor:start;baseline-shift:baseline;color:#000000;fill:#ff00f5;fill-opacity:1;stroke:#000000;stroke-width:10;marker:none;visibility:visible;display:inline;overflow:visible;enable-background:accumulate;font-family:Sans;-inkscape-font-specification:Sans;stroke-opacity:1;stroke-miterlimit:4;stroke-dasharray:none" />
  </g>
</svg>
