<?xml version="1.0" encoding="UTF-8" standalone="no"?>
<!-- Created with Inkscape (http://www.inkscape.org/) -->

<svg
   xmlns:dc="http://purl.org/dc/elements/1.1/"
   xmlns:cc="http://creativecommons.org/ns#"
   xmlns:rdf="http://www.w3.org/1999/02/22-rdf-syntax-ns#"
   xmlns:svg="http://www.w3.org/2000/svg"
   xmlns="http://www.w3.org/2000/svg"
   xmlns:sodipodi="http://sodipodi.sourceforge.net/DTD/sodipodi-0.dtd"
   xmlns:inkscape="http://www.inkscape.org/namespaces/inkscape"
   width="744.09448819"
   height="1052.3622047"
   id="svg3204"
   version="1.1"
   inkscape:version="0.48.4 r9939"
   sodipodi:docname="stamptestfilter3.svg">
  <defs
     id="defs3206">
    <filter
       id="filter3241"
       inkscape:label="filter1">
      <feMorphology
         id="feMorphology3265"
         in="SourceGraphic"
         radius="12" />
      <feGaussianBlur
         stdDeviation="3"
         id="feGaussianBlur3267"
         result="result5" />
      <feConvolveMatrix
         order="3 3"
         kernelMatrix="0 -1 0 -1 4.05 -1 0 -1 0 "
         id="feConvolveMatrix3271"
         result="result7"
         edgeMode="duplicate"
         preserveAlpha="false" />
      <feTurbulence
         id="feTurbulence3273"
         result="result6"
         baseFrequency="0.035000000000000003" />
      <feDisplacementMap
         id="feDisplacementMap3275"
         in2="result6"
         in="result7"
         scale="7"
         result="result8" />
      <feTurbulence
         id="feTurbulence3295"
         type="fractalNoise"
         baseFrequency="0.060792951541850215"
         numOctaves="9"
         result="result11" />
      <feSpecularLighting
         id="feSpecularLighting3297"
         specularExponent="10"
         surfaceScale="10"
         specularConstant="2"
         result="result9">
        <feDistantLight
           id="feDistantLight3299"
           elevation="20" />
      </feSpecularLighting>
      <feComposite
         id="feComposite3301"
         in2="result9"
         in="result8"
         operator="out"
         result="result10" />
      <feDisplacementMap
         id="feDisplacementMap3305"
         in2="result9"
         in="SourceGraphic"
         scale="1"
         result="result12" />
      <feComposite
         id="feComposite3309"
         in2="result10"
         operator="out" />
    </filter>
  </defs>
  <sodipodi:namedview
     id="base"
     pagecolor="#ffffff"
     bordercolor="#666666"
     borderopacity="1.0"
     inkscape:pageopacity="0.0"
     inkscape:pageshadow="2"
     inkscape:zoom="0.74091159"
     inkscape:cx="337.28812"
     inkscape:cy="808.65836"
     inkscape:document-units="px"
     inkscape:current-layer="layer1"
     showgrid="false"
     inkscape:window-width="675"
     inkscape:window-height="713"
     inkscape:window-x="0"
     inkscape:window-y="28"
     inkscape:window-maximized="0" />
  <metadata
     id="metadata3209">
    <rdf:RDF>
      <cc:Work
         rdf:about="">
        <dc:format>image/svg+xml</dc:format>
        <dc:type
           rdf:resource="http://purl.org/dc/dcmitype/StillImage" />
        <dc:title></dc:title>
      </cc:Work>
    </rdf:RDF>
  </metadata>
  <g
     inkscape:label="Layer 1"
     inkscape:groupmode="layer"
     id="layer1">
    <g
       style="font-size:180px;font-style:normal;font-variant:normal;font-weight:bold;font-stretch:normal;line-height:125%;letter-spacing:0px;word-spacing:0px;fill:#000000;fill-opacity:1;stroke:none;filter:url(#filter3241);font-family:Impact;-inkscape-font-specification:Impact Bold"
       id="text3212"
       transform="translate(-3.8174961,-50.581824)">
      <path
         d="m 161.3256,172.18832 0,31.43738 -21.54419,0 0,111.59363 -40.149536,0 0,-111.59363 -21.456299,0 0,-31.43738 z"
         style="fill:#000000"
         id="path3229"
         inkscape:connector-curvature="0" />
      <path
         d="m 167.70316,172.18832 64.35791,0 0,31.43738 -24.21386,0 0,22.93946 22.66479,0 0,30.0531 -22.66479,0 0,27.16369 26.63086,0 0,31.43738 -66.77491,0 z"
         style="fill:#000000"
         id="path3231"
         inkscape:connector-curvature="0" />
      <path
         d="m 323.67057,217.9299 -37.56226,0 0,-12.10144 c -5e-5,-4.48963 -0.29393,-7.18586 -0.88165,-8.08868 -0.58782,-0.90259 -1.51524,-1.35395 -2.78229,-1.35407 -1.43193,1.2e-4 -2.57359,0.67853 -3.42498,2.03522 -0.85149,1.35693 -1.27721,3.68328 -1.27716,6.97906 -5e-5,4.40563 0.5511,7.6411 1.65344,9.70642 1.06196,2.08751 4.23884,4.69676 9.53064,7.82776 16.42083,9.75961 26.79008,17.80342 31.10779,24.13147 4.43472,6.50031 6.65213,16.73956 6.65222,30.71778 -9e-5,10.18801 -1.23789,17.7878 -3.71338,22.79937 -2.47567,5.01161 -7.21444,9.1919 -14.21631,12.5409 -7.00202,3.349 -15.08429,5.02349 -24.24683,5.0235 -10.09281,-1e-5 -18.74179,-1.92994 -25.94696,-5.7898 -7.20521,-3.85986 -11.92658,-8.78356 -14.16412,-14.77112 -2.23756,-5.98752 -3.35633,-14.31149 -3.35632,-24.97192 l 0,-10.89294 37.55676,0 0,18.73718 c -4e-5,4.9219 0.33687,7.91293 1.01074,8.97308 0.67378,1.06021 1.84749,1.5903 3.52112,1.59027 1.65889,3e-5 2.94337,-0.73239 3.85345,-2.19726 0.90999,-1.46482 1.365,-3.90927 1.36506,-7.33338 -6e-5,-7.78926 -0.95953,-12.7624 -2.87842,-14.91943 -2.24492,-2.46089 -7.78203,-6.58808 -16.61133,-12.38159 -9.16628,-6.06805 -15.27559,-10.50927 -18.32794,-13.32367 -3.05238,-2.81426 -5.58381,-6.71348 -7.5943,-11.6977 -2.01051,-4.98404 -3.01575,-11.29934 -3.01575,-18.94592 0,-10.97522 1.44287,-19.07672 4.32861,-24.3045 2.88574,-5.22753 7.54119,-9.31078 13.96637,-12.24976 6.42515,-2.9387 14.09817,-4.40812 23.01911,-4.40826 9.70819,1.4e-4 18.05963,1.60506 25.05432,4.81476 6.99455,3.20997 11.63993,7.27857 13.93616,12.20581 2.29605,4.92749 3.44412,13.05279 3.44421,24.37591 z"
         style="fill:#000000"
         id="path3233"
         inkscape:connector-curvature="0" />
      <path
         d="m 413.39591,172.18832 0,31.43738 -21.54419,0 0,111.59363 -40.14953,0 0,-111.59363 -21.4563,0 0,-31.43738 z"
         style="fill:#000000"
         id="path3235"
         inkscape:connector-curvature="0" />
      <path
         d="m 486.03751,172.18832 21.01685,143.03101 -40.89111,0 -1.80725,-25.07629 -9.42627,0 -2.15332,25.07629 -41.27564,0 18.6438,-143.03101 z m -22.83508,89.70887 c -1.8311,-14.41766 -3.20073,-32.75016 -4.10889,-54.99756 -2.06913,25.74837 -3.54679,44.08087 -4.43298,54.99756 z"
         style="fill:#000000"
         id="path3237"
         inkscape:connector-curvature="0" />
      <path
         d="m 511.53129,172.18832 27.61413,0 c 17.21553,1.5e-4 29.02857,0.69961 35.43915,2.09839 6.41045,1.39907 11.64909,4.98702 15.71594,10.76386 4.06669,5.7771 6.10007,14.77215 6.10016,26.98517 -9e-5,11.19516 -1.49148,18.85354 -4.47418,22.97515 -2.98287,4.12178 -8.15468,6.26137 -15.51544,6.41877 6.632,0.22712 11.29661,1.97028 13.99383,5.22949 2.69706,3.25934 4.37064,6.23755 5.02076,8.93463 0.64993,2.6972 0.97494,9.7202 0.97503,21.06903 l 0,38.55652 -37.56225,0 0,-48.12012 c -6e-5,-7.11176 -0.45324,-11.35431 -1.35956,-12.72766 -0.90643,-1.37323 -2.84093,-2.05987 -5.80353,-2.05994 l 0,62.90772 -40.14404,0 z m 40.14404,27.38343 0,27.50976 c 2.36934,9e-5 4.15553,-0.4119 5.35858,-1.23596 1.20295,-0.82388 1.80445,-4.0209 1.80451,-9.59106 l 0,-7.66846 c -6e-5,-3.89637 -0.60522,-6.37287 -1.81549,-7.42951 -1.21038,-1.0564 -2.99291,-1.58466 -5.3476,-1.58477 z"
         style="fill:#000000"
         id="path3239"
         inkscape:connector-curvature="0" />
    </g>
    <g
       transform="scale(0.92513825,1.0809195)"
       style="font-size:247.04006958px;font-style:normal;font-variant:normal;font-weight:bold;font-stretch:normal;line-height:125%;letter-spacing:0px;word-spacing:0px;fill:#000000;fill-opacity:1;stroke:none;filter:url(#filter3241);font-family:Arial;-inkscape-font-specification:Arial Bold"
       id="text3311">
      <path
         d="m 97.565545,277.6467 0,27.02001 -23.160007,0 0,51.62751 c -5.3e-5,10.45421 0.221093,16.54577 0.663438,18.2747 0.442238,1.72899 1.447445,3.15638 3.015626,4.28219 1.568067,1.12586 3.477961,1.68877 5.729689,1.68875 3.136185,2e-5 7.679724,-1.0856 13.630629,-3.25688 l 2.895,26.29626 c -7.880906,3.3775 -16.80715,5.06625 -26.778757,5.06625 -6.111715,0 -11.620252,-1.02532 -16.525629,-3.07594 -4.90545,-2.05062 -8.504093,-4.70437 -10.795941,-7.96125 -2.291898,-3.25687 -3.880126,-7.65968 -4.764689,-13.20844 -0.72377,-3.9404 -1.085644,-11.90164 -1.085625,-23.88376 l 0,-55.84939 -15.560629,0 0,-27.02001 15.560629,0 0,-25.45188 34.016259,-19.78251 0,45.23439 z"
         style=""
         id="path3316" />
      <path
         d="m 195.51307,364.97923 33.77501,5.66937 c -4.34262,12.3842 -11.19814,21.81304 -20.56657,28.28657 -9.36864,6.47355 -21.08936,9.71032 -35.16219,9.71032 -22.27547,0 -38.76088,-7.27771 -49.45627,-21.83313 -8.44376,-11.66039 -12.66563,-26.37663 -12.66563,-44.14876 0,-21.22993 5.54874,-37.85606 16.64626,-49.87846 11.09747,-12.02217 25.13016,-18.03331 42.09813,-18.03344 19.05867,1.3e-4 34.09658,6.29273 45.11377,18.87782 11.01696,12.58531 16.28425,31.86519 15.80188,57.8397 l -84.92003,0 c 0.24121,10.05213 2.97537,17.87265 8.20251,23.46157 5.22702,5.58899 11.74077,8.38346 19.54125,8.38344 5.30743,2e-5 9.77055,-1.44747 13.38938,-4.3425 3.61866,-2.89497 6.35283,-7.55913 8.2025,-13.9925 z m 1.93,-34.25751 c -0.24134,-9.81075 -2.77446,-17.26939 -7.59937,-22.37595 -4.82509,-5.10635 -10.6955,-7.65958 -17.61126,-7.65969 -7.3984,1.1e-4 -13.51006,2.69407 -18.335,8.08188 -4.82505,5.38801 -7.19734,12.70592 -7.11688,21.95376 z"
         style=""
         id="path3318" />
      <path
         d="m 246.89934,369.2011 34.01626,-5.18687 c 1.44746,6.5942 4.38267,11.60013 8.80563,15.01781 4.42286,3.41774 10.61494,5.12659 18.57625,5.12657 8.76535,2e-5 15.35951,-1.60831 19.78251,-4.825 2.97533,-2.25164 4.46303,-5.26727 4.46312,-9.04688 -9e-5,-2.5733 -0.80425,-4.70434 -2.4125,-6.39313 -1.68883,-1.60829 -5.46841,-3.096 -11.33875,-4.46312 -27.34172,-6.0312 -44.6715,-11.53974 -51.98939,-16.52563 -10.13252,-6.91577 -15.19876,-16.52555 -15.19875,-28.82939 -1e-5,-11.0974 4.38269,-20.42572 13.14813,-27.98501 8.76538,-7.55904 22.35579,-11.33862 40.77126,-11.33875 17.53075,1.3e-4 30.55824,2.85492 39.08251,8.56438 8.52405,5.7097 14.39447,14.15344 17.61125,25.33126 l -31.96563,5.91062 c -1.36717,-4.98574 -3.96061,-8.80552 -7.78032,-11.45938 -3.81987,-2.65364 -9.26809,-3.98052 -16.34469,-3.98062 -8.92631,1e-4 -15.31943,1.24656 -19.17938,3.73937 -2.57338,1.76927 -3.86004,4.06115 -3.86,6.87563 -4e-5,2.4126 1.12579,4.46322 3.3775,6.15188 3.05579,2.25175 13.61047,5.42821 31.66407,9.52938 18.05345,4.10132 30.65876,9.12736 37.81595,15.07812 7.07655,6.03132 10.61488,14.43485 10.615,25.21064 -1.2e-4,11.74086 -4.90553,21.83315 -14.71625,30.27688 -9.81094,8.44375 -24.32613,12.66563 -43.54564,12.66563 -17.45047,0 -31.26202,-3.53833 -41.4347,-10.615 -10.17272,-7.07666 -16.8272,-16.68644 -19.96344,-28.82939 z"
         style=""
         id="path3320" />
      <path
         d="m 455.09814,277.6467 0,27.02001 -23.16001,0 0,51.62751 c -5e-5,10.45421 0.22109,16.54577 0.66344,18.2747 0.44224,1.72899 1.44744,3.15638 3.01562,4.28219 1.56807,1.12586 3.47797,1.68877 5.72969,1.68875 3.13619,2e-5 7.67973,-1.0856 13.63063,-3.25688 l 2.895,26.29626 c -7.8809,3.3775 -16.80715,5.06625 -26.77875,5.06625 -6.11172,0 -11.62026,-1.02532 -16.52563,-3.07594 -4.90545,-2.05062 -8.5041,-4.70437 -10.79594,-7.96125 -2.2919,-3.25687 -3.88013,-7.65968 -4.76469,-13.20844 -0.72377,-3.9404 -1.08565,-11.90164 -1.08563,-23.88376 l 0,-55.84939 -15.56063,0 0,-27.02001 15.56063,0 0,-25.45188 34.01626,-19.78251 0,45.23439 z"
         style=""
         id="path3322" />
      <path
         d="m 504.19254,316.72921 -30.75938,-5.54875 c 3.4579,-12.38406 9.40873,-21.55155 17.8525,-27.50251 8.44372,-5.9507 20.98871,-8.92612 37.63501,-8.92625 15.11826,1.3e-4 26.37658,1.7894 33.77501,5.36782 7.39823,3.57866 12.6052,8.1222 15.62094,13.63062 3.01551,5.50865 4.52332,15.62104 4.52344,30.3372 l -0.36187,39.56501 c -1.2e-4,11.25837 0.54269,19.56138 1.62844,24.90907 1.0855,5.34772 3.11602,11.07741 6.09156,17.18907 l -33.53376,0 c -0.88468,-2.25167 -1.9703,-5.58896 -3.25687,-10.01188 -0.56301,-2.0104 -0.9651,-3.33728 -1.20626,-3.98063 -5.79008,5.62918 -11.98216,9.85105 -18.57625,12.66563 -6.59423,2.81459 -13.63069,4.22188 -21.10938,4.22188 -13.18838,0 -23.58222,-3.57854 -31.18157,-10.73563 -7.59939,-7.15707 -11.39908,-16.20394 -11.39907,-27.14063 -10e-6,-7.23746 1.72895,-13.69089 5.18688,-19.36032 3.4579,-5.66932 8.303,-10.01181 14.53531,-13.0275 6.23226,-3.01556 15.21882,-5.6492 26.9597,-7.90094 15.84202,-2.97534 26.81888,-5.74972 32.93063,-8.32313 l 0,-3.3775 c -8e-5,-6.51366 -1.60842,-11.15772 -4.825,-13.93219 -3.21675,-2.77427 -9.2882,-4.16146 -18.21438,-4.16157 -6.03131,1.1e-4 -10.73568,1.18625 -14.11313,3.55844 -3.37755,2.37239 -6.11171,6.53395 -8.2025,12.48469 z m 45.35501,27.50251 c -4.34258,1.44756 -11.2182,3.17652 -20.62688,5.18688 -9.40881,2.01047 -15.56068,3.98068 -18.45563,5.91062 -4.42296,3.1363 -6.63442,7.11692 -6.63437,11.94188 -5e-5,4.74462 1.76912,8.84587 5.3075,12.30376 3.53828,3.45794 8.04161,5.18689 13.51,5.18687 6.1116,2e-5 11.94181,-2.01039 17.49063,-6.03125 4.10117,-3.0558 6.79513,-6.79518 8.08188,-11.21813 0.88449,-2.89496 1.32679,-8.40349 1.32687,-16.52563 z"
         style=""
         id="path3324" />
      <path
         d="m 648.82196,405.75049 -33.89563,0 0,-128.10379 31.48313,0 0,18.21438 c 5.38787,-8.60446 10.23297,-14.27384 14.53532,-17.00813 4.30222,-2.73404 9.18753,-4.10112 14.65594,-4.10125 7.71992,1.3e-4 15.15845,2.13117 22.31563,6.39313 l -10.49438,29.55313 c -5.70967,-3.69907 -11.01716,-5.54865 -15.9225,-5.54875 -4.74466,1e-4 -8.76549,1.30687 -12.06251,3.92031 -3.29714,2.61364 -5.89057,7.33812 -7.78031,14.17345 -1.88984,6.83549 -2.83474,21.14965 -2.83469,42.94251 z"
         style=""
         id="path3326" />
    </g>
  </g>
</svg>
