<?xml version="1.0" encoding="UTF-8" standalone="no"?>
<!-- Created with Inkscape (http://www.inkscape.org/) -->

<svg
   xmlns:dc="http://purl.org/dc/elements/1.1/"
   xmlns:cc="http://creativecommons.org/ns#"
   xmlns:rdf="http://www.w3.org/1999/02/22-rdf-syntax-ns#"
   xmlns:svg="http://www.w3.org/2000/svg"
   xmlns="http://www.w3.org/2000/svg"
   xmlns:sodipodi="http://sodipodi.sourceforge.net/DTD/sodipodi-0.dtd"
   xmlns:inkscape="http://www.inkscape.org/namespaces/inkscape"
   width="744.09448819"
   height="1052.3622047"
   id="svg2"
   version="1.1"
   inkscape:version="0.48.4 r9939"
   sodipodi:docname="New document 1">
  <defs
     id="defs4">
    <filter
       id="filter3082"
       inkscape:menu-tooltip="Bright metallic effect for any color"
       inkscape:menu="Bevels"
       inkscape:label="Bright metal"
       color-interpolation-filters="sRGB">
      <feGaussianBlur
         id="feGaussianBlur3084"
         result="result6"
         stdDeviation="8"
         in="SourceGraphic" />
      <feComposite
         id="feComposite3086"
         in2="SourceGraphic"
         in="result6"
         result="result10"
         operator="xor" />
      <feGaussianBlur
         id="feGaussianBlur3088"
         result="result2"
         stdDeviation="8" />
      <feComposite
         id="feComposite3090"
         in2="SourceGraphic"
         operator="atop"
         in="result10"
         result="result91" />
      <feComposite
         id="feComposite3092"
         in2="result91"
         result="result4"
         in="result2"
         operator="xor" />
      <feGaussianBlur
         id="feGaussianBlur3094"
         in="result4"
         result="result3"
         stdDeviation="4" />
      <feSpecularLighting
         id="feSpecularLighting3096"
         result="result5"
         specularExponent="3"
         specularConstant="1.10000002"
         surfaceScale="10">
        <feDistantLight
           id="feDistantLight3098"
           azimuth="235"
           elevation="55" />
      </feSpecularLighting>
      <feComposite
         id="feComposite3100"
         in2="result5"
         in="result3"
         k3="1.1"
         k2="0.5"
         operator="arithmetic"
         result="result7"
         k1="0.5" />
      <feComposite
         id="feComposite3102"
         in2="SourceGraphic"
         in="result7"
         operator="atop"
         result="result8" />
    </filter>
  </defs>
  <sodipodi:namedview
     id="base"
     pagecolor="#ffffff"
     bordercolor="#666666"
     borderopacity="1.0"
     inkscape:pageopacity="0.0"
     inkscape:pageshadow="2"
     inkscape:zoom="0.7"
     inkscape:cx="375"
     inkscape:cy="711.40306"
     inkscape:document-units="px"
     inkscape:current-layer="layer1"
     showgrid="false"
     inkscape:window-width="675"
     inkscape:window-height="713"
     inkscape:window-x="683"
     inkscape:window-y="28"
     inkscape:window-maximized="0" />
  <metadata
     id="metadata7">
    <rdf:RDF>
      <cc:Work
         rdf:about="">
        <dc:format>image/svg+xml</dc:format>
        <dc:type
           rdf:resource="http://purl.org/dc/dcmitype/StillImage" />
        <dc:title></dc:title>
      </cc:Work>
    </rdf:RDF>
  </metadata>
  <g
     inkscape:label="Layer 1"
     inkscape:groupmode="layer"
     id="layer1">
    <path
       style="fill:#008080;stroke:none;filter:url(#filter3082)"
       inkscape:transform-center-x="-1.589173"
       inkscape:transform-center-y="0.025057007"
       d="m 228.57142,226.6479 -42.84104,-24.4409 -0.10056,49.32243 -29.19623,-39.75289 -20.15311,45.01737 -10.50313,-48.19125 -36.720998,32.92841 10.00607,-48.2969 -46.939496,15.14582 28.78512,-40.05158 -49.041725,-5.25562 42.586962,-24.88097 -42.664194,-24.74831 49.025132,-5.40823 -28.909636,-39.961797 46.98641,14.999657 -10.15634,-48.265527 36.823315,32.813963 10.35308,-48.223708 20.29312,44.954437 29.07236,-39.843572 0.25408,49.32188 42.76476,-24.574121 -19.8289,45.161122 49.06275,-5.05558 -36.48329,33.191596 46.87734,15.33712 -46.82938,15.48294 36.58642,33.07788 -49.07825,-4.90285 z"
       id="path2985"
       inkscape:connector-curvature="0"
       transform="matrix(1.2369516,0,0,1.2908541,-1.9372386,1.2628119)" />
    <path
       style="fill:#ffff00;stroke:none;stroke-width:5;stroke-linecap:square;stroke-linejoin:bevel;stroke-miterlimit:4;stroke-dashoffset:18;stroke-opacity:1;filter:url(#filter3082)"
       inkscape:transform-center-x="0.71902336"
       inkscape:transform-center-y="-0.50368787"
       d="m 571.42856,306.6479 c -12.21902,7.77574 -49.81587,-24.12368 -64.27173,-25.01514 -14.45586,-0.89145 -55.68724,26.14685 -66.8583,16.92871 -11.17105,-9.21815 7.54904,-54.83234 3.92976,-68.85615 -3.61929,-14.02382 -42.07544,-44.8819 -36.76051,-58.35477 5.31493,-13.47286 54.48143,-9.76456 66.70045,-17.5403 12.21902,-7.77574 29.6832,-53.885385 44.13906,-52.99393 14.45586,0.89145 26.12234,48.7975 37.29339,58.01564 11.17106,9.21815 60.42066,11.5789 64.03994,25.60272 3.61929,14.02381 -38.33693,39.92308 -43.65186,53.39594 -5.31493,13.47287 7.65882,61.04154 -4.5602,68.81728 z"
       id="path2987" />
  </g>
</svg>
