<?xml version="1.0" encoding="UTF-8" standalone="no"?>
<!-- Created with Inkscape (http://www.inkscape.org/) -->

<svg
   xmlns:dc="http://purl.org/dc/elements/1.1/"
   xmlns:cc="http://creativecommons.org/ns#"
   xmlns:rdf="http://www.w3.org/1999/02/22-rdf-syntax-ns#"
   xmlns:svg="http://www.w3.org/2000/svg"
   xmlns="http://www.w3.org/2000/svg"
   xmlns:sodipodi="http://sodipodi.sourceforge.net/DTD/sodipodi-0.dtd"
   xmlns:inkscape="http://www.inkscape.org/namespaces/inkscape"
   width="744.09448819"
   height="1052.3622047"
   id="svg2"
   version="1.1"
   inkscape:version="0.48.2 r9819"
   sodipodi:docname="thedoor.svg">
  <defs
     id="defs4" />
  <sodipodi:namedview
     id="base"
     pagecolor="#ffffff"
     bordercolor="#666666"
     borderopacity="1.0"
     inkscape:pageopacity="0.0"
     inkscape:pageshadow="2"
     inkscape:zoom="0.7"
     inkscape:cx="278.63772"
     inkscape:cy="429.94724"
     inkscape:document-units="px"
     inkscape:current-layer="layer1"
     showgrid="false"
     showguides="true"
     inkscape:guide-bbox="true"
     inkscape:window-width="1366"
     inkscape:window-height="721"
     inkscape:window-x="-4"
     inkscape:window-y="24"
     inkscape:window-maximized="1" />
  <metadata
     id="metadata7">
    <rdf:RDF>
      <cc:Work
         rdf:about="">
        <dc:format>image/svg+xml</dc:format>
        <dc:type
           rdf:resource="http://purl.org/dc/dcmitype/StillImage" />
      </cc:Work>
    </rdf:RDF>
  </metadata>
  <g
     inkscape:label="Layer 1"
     inkscape:groupmode="layer"
     id="layer1">
    <path
       style="fill:#ececec;fill-opacity:1;stroke:none"
       d="m 858.72266,905.86349 10.6066,18.18275 212.13204,-10.6066 c 0,0 0,38.89087 63.1345,38.89087 63.1346,0 43.9417,-37.88072 43.9417,-37.88072 l -27.7792,-23.23351 -303.55087,9.09137 z"
       id="path3785"
       inkscape:connector-curvature="0" />
    <path
       style="fill:#ececec;fill-opacity:1;fill-rule:nonzero;stroke:none"
       d="m 231.5575,397.74318 0.25254,-10.85914 315.4987,1.76776 1.24232,12.9438 9.53825,0.12101 0,487.21323 -336.3808,0 0,-491.18667 z"
       id="rect3767"
       inkscape:connector-curvature="0"
       sodipodi:nodetypes="ccccccccc" />
    <rect
       style="fill:#ececec;fill-opacity:1;fill-rule:nonzero;stroke:none"
       id="rect3762"
       width="299.00516"
       height="477.80215"
       x="241.91156"
       y="411.12769" />
    <path
       style="fill:#000000;stroke:#000000;stroke-width:0.99641049px;stroke-linecap:butt;stroke-linejoin:miter;stroke-opacity:1"
       d="m 529.80683,421.22743 -285.34104,0 0,467.22451 8.03421,0 25.23878,0 z"
       id="path3770"
       inkscape:connector-curvature="0"
       sodipodi:nodetypes="cccccc" />
    <path
       style="fill:#000000;stroke:#000000;stroke-width:1px;stroke-linecap:butt;stroke-linejoin:miter;stroke-opacity:1"
       d="m -865.31839,585.49328 c 44.44671,-49.49747 53.40682,-97.11821 21.08194,-108.22989 -32.32488,-11.11168 -42.42641,-60.60916 -29.29442,-64.64977 13.13198,-4.04061 7.07106,30.30458 20.20305,38.3858 13.13198,8.08122 30.4061,29.31544 36.46701,37.39666 6.06092,8.08122 -9.06164,26.38653 -9.06164,26.38653 0,0 11.11168,-13.13199 46.46703,-13.13199 35.35534,0 50.50763,10.10153 50.50763,10.10153 l 3.03045,52.52793 c 0,0 0,0 -35.35533,7.07107 -35.35534,7.07107 -61.61932,-24.24366 -61.61932,-24.24366 l -19.1929,34.34518 c 0,0 11.11168,5.05077 13.13199,14.14214 2.0203,9.09137 -38.3858,-2.02031 -36.36549,-10.10153 z"
       id="path3777"
       inkscape:connector-curvature="0"
       sodipodi:nodetypes="csssscsccsccsc" />
    <path
       style="fill:#800000;fill-opacity:1;fill-rule:nonzero;stroke:none"
       d="m 252.59717,417.4655 5.99781,-3.76165 267.65655,7.35602 5.1139,-0.0838 -4.98763,463.98325 -267.83029,15.93096 -5.02685,-4.50239 z"
       id="rect2985"
       inkscape:connector-curvature="0"
       sodipodi:nodetypes="cccccccc" />
    <path
       style="fill:#ac0000;fill-opacity:1;fill-rule:nonzero;stroke:none"
       d="m 258.57143,413.92689 272.85713,7.00672 0,468.57144 -272.85713,11.42857 z"
       id="rect3759"
       inkscape:connector-curvature="0"
       sodipodi:nodetypes="ccccc" />
    <rect
       y="88.076469"
       x="1548.5714"
       height="468.57144"
       width="272.85715"
       id="rect3755"
       style="fill:#ac0000;fill-opacity:1;fill-rule:nonzero;stroke:none" />
    <path
       sodipodi:nodetypes="cccccccc"
       inkscape:connector-curvature="0"
       id="path3775"
       d="m 228.90283,887.18215 0,-472.95269 11.7867,-1.02493 0.51247,-14.86151 298.25508,2.56233 -0.51247,11.04388 9.73685,1.76777 0,474.91462"
       style="fill:none;stroke:#b3b3b3;stroke-width:5.07315207;stroke-linecap:butt;stroke-linejoin:miter;stroke-miterlimit:4;stroke-opacity:1;stroke-dasharray:none" />
    <path
       style="fill:none;stroke:#ffffff;stroke-width:5.07315207;stroke-linecap:butt;stroke-linejoin:miter;stroke-miterlimit:4;stroke-opacity:1;stroke-dasharray:none"
       d="m 226.88252,885.16184 0,-472.95268 11.7867,-1.02494 0.51247,-14.8615 298.25508,2.56233 -0.51247,11.04387 9.73685,1.76777 0,474.91462"
       id="path3772"
       inkscape:connector-curvature="0"
       sodipodi:nodetypes="cccccccc" />
    <path
       style="fill:none;stroke:#000000;stroke-width:1px;stroke-linecap:butt;stroke-linejoin:miter;stroke-opacity:1"
       d="m -862.85715,690.93361 c 5.71429,12.85714 -1.42857,31.42857 0.71429,45 2.14286,13.57143 7.85714,20 7.14286,30 -0.71429,10 -7.85715,28.57143 -6.42858,32.14286 1.42858,3.57142 32.85715,5.71428 37.14286,2.14285 4.28572,-3.57143 -3.57143,-8.57143 -10.71428,-10 -7.14286,-1.42857 -4.28572,0 -4.28572,-4.28571 0,-4.28572 4.28572,-12.85714 3.57143,-22.14286 -0.71429,-9.28571 -1.42857,-20.71428 -1.42857,-24.28571"
       id="path3779"
       inkscape:connector-curvature="0" />
    <path
       style="fill:#000000;stroke:#000000;stroke-width:0.66934073px;stroke-linecap:butt;stroke-linejoin:miter;stroke-opacity:1"
       d="m 253.71336,818.90658 c -44.39125,-17.16649 -16.22915,-24.08164 -21.43751,-53.29221 -4.76803,-22.75831 -34.86158,-30.48811 -36.38343,-19.00305 -1.52186,11.48507 31.82454,4.13216 22.43608,31.63577 -9.38847,27.50362 -5.90918,35.43237 25.92685,50.84262"
       id="path3781"
       inkscape:connector-curvature="0"
       sodipodi:nodetypes="cczzc" />
    <path
       style="fill:#000000;stroke:#000000;stroke-width:1px;stroke-linecap:butt;stroke-linejoin:miter;stroke-opacity:1"
       d="m 1259.4749,328.99097 1.6551,-47.65752 5.1843,7.01023 5.8791,-4.05667 3.6028,7.23367 6.106,-4.73395 2.2483,6.7798 c 0,0 -10.5185,-63.03607 28.3169,-53.03722 38.8354,9.99885 3.3724,10.16971 -5.9176,28.9031 -9.2901,18.73341 -7.0453,27.77198 -7.0453,27.77198 l 7.0067,-2.92554 -0.9112,4.96789 13.5526,0.021 -2.4927,5.19131 -31.0156,45.35321 z"
       id="path3835"
       inkscape:connector-curvature="0" />
    <g
       id="g3837"
       transform="translate(785.71429,105.71429)">
      <path
         sodipodi:nodetypes="ccsccsc"
         inkscape:connector-curvature="0"
         id="path3783"
         d="m 357.53202,430.09489 17.45281,115.38244 c 0,0 20.1063,14.18835 44.34631,14.18835 24.24001,0 39.03932,-9.34034 39.03932,-9.34034 l 20.36161,-118.29125 c 0,0 -15.76891,-7.45281 -59.40093,-8.42241 -43.63202,-0.9696 -61.79912,6.48321 -61.79912,6.48321 z"
         style="fill:#333333;stroke:#000000;stroke-width:0.6787203px;stroke-linecap:butt;stroke-linejoin:miter;stroke-opacity:1" />
      <path
         sodipodi:nodetypes="cscsc"
         inkscape:connector-curvature="0"
         id="path3787"
         d="m 357.14286,430.21932 c 0,0 33.24796,8.95082 63.98985,9.53826 30.96682,0.59173 57.43872,-7.03826 57.43872,-7.03826 0,0 -10.71429,-8.21428 -58.21429,-9.28571 -47.5,-1.07143 -63.21428,6.78571 -63.21428,6.78571 z"
         style="fill:#000000;stroke:#000000;stroke-width:1px;stroke-linecap:butt;stroke-linejoin:miter;stroke-opacity:1" />
    </g>
    <g
       transform="matrix(1.2044948,0,0,1.2044948,159.59904,321.42622)"
       id="g3825"
       style="fill:#000000">
      <path
         style="fill:#000000;fill-opacity:1;stroke:none"
         d="m 106.40818,257.14641 -0.49957,-8.38558 18.41834,0.64404 -0.50394,8.38558 7.03141,-0.3494 -1.64593,31.7953 -7.00317,-1.04819 -0.1765,8.73497 -16.37606,1.23518 0.1412,-6.98798 -6.682815,-0.3494 1.638885,-35.07212 z"
         id="path3827"
         inkscape:connector-curvature="0"
         sodipodi:nodetypes="ccccccccccccc" />
      <path
         sodipodi:nodetypes="ccccccccccccc"
         inkscape:connector-curvature="0"
         id="path3829"
         d="m 108.04537,260.26117 -0.40417,-6.78448 14.90161,0.52107 -0.40772,6.78448 5.68888,-0.28269 -1.33167,25.72445 -5.66602,-0.84805 -0.1428,7.06716 -13.24929,0.99934 0.11424,-5.65373 -5.40683,-0.28269 1.32596,-28.37561 z"
         style="fill:#000000;fill-opacity:1;stroke:none" />
      <path
         style="fill:#000000;stroke:#000000;stroke-width:1.62626183px;stroke-linecap:butt;stroke-linejoin:miter;stroke-opacity:1"
         d="m 113.64412,263.10162 c 10.89015,0.14523 12.48737,16.40783 1.16161,16.40783 -11.32574,0 -10.74494,-16.26262 -1.16161,-16.40783 z"
         id="path3831"
         inkscape:connector-curvature="0" />
      <path
         style="fill:#000000;stroke:none"
         d="m 114.19958,262.45147 c 12.32143,0.53571 11.96429,16.78571 0.80357,16.33928 -11.16071,-0.44643 -13.125,-16.16071 -0.80357,-16.33928 z"
         id="path3833"
         inkscape:connector-curvature="0" />
    </g>
    <g
       id="g3819"
       transform="matrix(1.2044948,0,0,1.2044948,158.70111,321.19027)">
      <path
         sodipodi:nodetypes="ccccccccccccc"
         inkscape:connector-curvature="0"
         id="path3789"
         d="m 106.40818,257.14641 -0.49957,-8.38558 18.41834,0.64404 -0.50394,8.38558 7.03141,-0.3494 -1.64593,31.7953 -7.00317,-1.04819 -0.1765,8.73497 -16.37606,1.23518 0.1412,-6.98798 -6.682815,-0.3494 1.638885,-35.07212 z"
         style="fill:#ffff00;fill-opacity:1;stroke:none" />
      <path
         style="fill:#ffcf00;fill-opacity:1;stroke:none"
         d="m 108.04537,260.26117 -0.40417,-6.78448 14.90161,0.52107 -0.40772,6.78448 5.68888,-0.28269 -1.33167,25.72445 -5.66602,-0.84805 -0.1428,7.06716 -13.24929,0.99934 0.11424,-5.65373 -5.40683,-0.28269 1.32596,-28.37561 z"
         id="path3791"
         inkscape:connector-curvature="0"
         sodipodi:nodetypes="ccccccccccccc" />
      <path
         inkscape:connector-curvature="0"
         id="path3793"
         d="m 113.64412,263.10162 c 10.89015,0.14523 12.48737,16.40783 1.16161,16.40783 -11.32574,0 -10.74494,-16.26262 -1.16161,-16.40783 z"
         style="fill:#000000;stroke:#000000;stroke-width:1.62626183px;stroke-linecap:butt;stroke-linejoin:miter;stroke-opacity:1" />
      <path
         inkscape:connector-curvature="0"
         id="path3807"
         d="m 114.19958,262.45147 c 12.32143,0.53571 11.96429,16.78571 0.80357,16.33928 -11.16071,-0.44643 -13.125,-16.16071 -0.80357,-16.33928 z"
         style="fill:#ffff00;stroke:none" />
    </g>
    <rect
       style="fill:#ffffff;fill-opacity:1;fill-rule:nonzero;stroke:none"
       id="rect3843"
       width="18.182745"
       height="8.3337584"
       x="224.28236"
       y="879.08081" />
    <rect
       style="fill:#b3b3b3;fill-opacity:1;fill-rule:nonzero;stroke:none"
       id="rect3845"
       width="13.068849"
       height="2.0203052"
       x="229.41476"
       y="878.95807" />
  </g>
</svg>
