<?xml version="1.0" encoding="UTF-8" standalone="no"?>
<!-- Created with Inkscape (http://www.inkscape.org/) -->

<svg
   xmlns:dc="http://purl.org/dc/elements/1.1/"
   xmlns:cc="http://creativecommons.org/ns#"
   xmlns:rdf="http://www.w3.org/1999/02/22-rdf-syntax-ns#"
   xmlns:svg="http://www.w3.org/2000/svg"
   xmlns="http://www.w3.org/2000/svg"
   xmlns:sodipodi="http://sodipodi.sourceforge.net/DTD/sodipodi-0.dtd"
   xmlns:inkscape="http://www.inkscape.org/namespaces/inkscape"
   width="744.09448819"
   height="1052.3622047"
   id="svg7017"
   version="1.1"
   inkscape:version="0.48.4 r9939"
   sodipodi:docname="tree.svg">
  <sodipodi:namedview
     id="base"
     pagecolor="#ffffff"
     bordercolor="#666666"
     borderopacity="1.0"
     inkscape:pageopacity="0.0"
     inkscape:pageshadow="2"
     inkscape:zoom="0.98994949"
     inkscape:cx="489.95786"
     inkscape:cy="661.47994"
     inkscape:document-units="px"
     inkscape:current-layer="svg7017"
     showgrid="false"
     inkscape:window-width="1366"
     inkscape:window-height="721"
     inkscape:window-x="-4"
     inkscape:window-y="24"
     inkscape:window-maximized="1" />
  <defs
     id="defs7019" />
  <metadata
     id="metadata7022">
    <rdf:RDF>
      <cc:Work
         rdf:about="">
        <dc:format>image/svg+xml</dc:format>
        <dc:type
           rdf:resource="http://purl.org/dc/dcmitype/StillImage" />
        <dc:title />
      </cc:Work>
    </rdf:RDF>
  </metadata>
  <path
     style="fill:#008000;fill-opacity:1;stroke:#001500;stroke-opacity:1;stroke-width:5;stroke-miterlimit:4;stroke-dasharray:none"
     d="M 547.96875 132.3125 C 546.97442 132.26541 545.95005 133.50156 544.78125 136.78125 C 534.59784 141.0518 533.07042 154.60927 522.6875 157.34375 C 516.57005 166.44049 507.65976 168.68305 497.15625 171.34375 C 488.07715 167.49222 485.43887 156.08397 475.21875 155.65625 C 467.38975 160.24274 459.94135 149.16518 451.28125 154.84375 C 443.68905 145.97926 443.90021 156.02652 442.34375 162.375 C 447.17473 170.41321 443.9317 174.9907 441.78125 183.21875 C 429.46911 188.94222 444.2937 197.08113 439.78125 206.125 C 439.68982 206.35702 439.61703 206.60535 439.53125 206.84375 C 438.62122 207.27901 437.73398 207.73974 436.90625 208.28125 C 436.75692 210.15494 437.40432 211.89192 438.03125 213.5625 C 437.79844 215.88135 437.84589 218.27646 438.21875 220.65625 C 437.74587 221.33224 437.09493 222.00622 436.125 222.6875 C 431.45997 232.10313 419.74984 223.37189 415.21875 231.0625 C 411.80848 234.01274 409.93297 239.18518 405.5625 240.1875 C 402.53627 247.08866 397.52965 253.9893 391.5 258.03125 C 383.95352 260.62525 387.64886 272.07247 386.65625 274.59375 C 379.55782 276.55258 372.60166 287.82978 382.90625 290.8125 C 385.1391 294.67396 388.00401 298.58155 383.9375 303.125 C 382.16346 310.59772 386.54585 318.57708 394.75 317.5625 C 400.46883 321.92296 407.77511 321.4411 413.28125 324.8125 C 416.20816 323.69526 420.37932 330.55588 421.125 331.96875 C 418.83294 337.03545 422.5609 338.24598 426.125 335.75 C 428.85804 339.08576 430.11032 344.47249 436.125 342.28125 C 440.57414 343.75353 438.54699 354.60286 444.78125 348 C 450.51319 346.1632 455.3089 348.73457 456.4375 355.25 C 463.76179 360.98177 453.29272 341.22911 464.0625 344.125 C 471.16947 342.41656 478.41305 335.09424 475.15625 328.6875 C 482.17775 327.36411 479.31764 319.68437 484.4375 316.46875 C 487.46426 318.1881 493.39893 317.94747 497.125 316.09375 C 505.98314 318.76039 513.27369 320.11496 521.03125 326.25 C 527.32603 322.67038 534.50705 330.32781 537.875 324.71875 C 536.65139 318.66912 539.42463 312.91737 543.40625 308.03125 L 543.46875 308.0625 L 543.96875 308.90625 L 544.875 309.25 L 545.78125 309.625 L 546.5625 310.1875 L 547.125 311 L 547.6875 311.78125 L 548.03125 312.6875 L 548.53125 313.5 L 549.28125 314.09375 L 550.21875 314.25 L 551.03125 314.78125 L 551.59375 315.53125 L 552.375 316.0625 L 553.28125 316.34375 L 554 316.9375 L 554.875 317.28125 L 555.59375 317.90625 L 556.21875 318.625 L 557.03125 319.09375 L 557.4375 319.9375 L 557.875 320.78125 L 558.65625 321.34375 L 559.125 322.1875 L 559.59375 323 L 560.21875 323.6875 L 560.6875 324.5 L 561.15625 325.3125 L 561.03125 326.25 L 561.28125 327.1875 L 561.5625 328.09375 L 562 328.9375 L 562.8125 329.40625 L 563.59375 329.90625 L 564.3125 330.5 L 564.96875 331.15625 L 565.5 331.9375 L 566.15625 332.59375 L 566.71875 333.34375 L 567.15625 334.1875 L 568.09375 334.21875 L 568.9375 334.6875 L 569.6875 335.21875 L 570.59375 335.5 L 571.34375 336.0625 L 572.21875 336.46875 L 572.78125 337.21875 L 573.25 338.0625 L 574.0625 338.5625 L 574.71875 339.28125 L 575.65625 339.40625 L 576.5625 339.78125 L 577.34375 340.34375 L 577.96875 341.0625 L 578.375 341.9375 L 578.6875 342.84375 L 579.3125 343.53125 L 580.1875 343.90625 L 580.78125 344.59375 L 581.5 345.1875 L 582.21875 345.75 L 582.875 346.40625 L 583.75 346.6875 L 584.53125 347.21875 L 585.46875 347.21875 L 586.375 347.375 L 587.28125 347.75 L 588.21875 347.75 L 588.96875 348.34375 L 589.84375 348.65625 L 590.59375 349.1875 L 591.46875 349.59375 L 592.25 350.125 L 592.8125 350.875 L 593.5625 351.4375 L 594.09375 352.21875 L 594.9375 352.6875 L 595.5625 353.40625 L 596.375 353.90625 L 597.34375 354.03125 L 597.90625 354.78125 L 598.1875 355.6875 L 598.84375 356.34375 L 599.375 357.125 L 599.75 357.96875 L 600.28125 358.71875 L 600.625 359.59375 L 601.03125 360.40625 L 601.96875 360.1875 L 602.84375 359.84375 L 603.75 359.4375 L 604.71875 359.40625 L 605.40625 358.75 L 606.3125 358.375 L 607.09375 357.875 L 607.90625 357.34375 L 608.84375 357 L 609.75 356.625 L 610.40625 355.875 L 611.0625 355.125 L 611.46875 354.25 L 611.90625 353.40625 L 612.28125 352.5 L 612.84375 351.6875 L 613.625 351.1875 L 614.5625 351.0625 L 615.40625 350.71875 L 616.28125 350.40625 L 617.0625 349.90625 L 618.03125 349.8125 L 618.9375 349.53125 L 619.625 348.90625 L 620.5 348.59375 L 621.375 348.3125 L 622.21875 347.90625 L 623.15625 347.875 L 624.09375 347.84375 L 625 347.59375 L 625.875 347.28125 L 626.625 346.71875 L 627.3125 346.0625 L 627.875 345.28125 L 628.6875 344.75 L 629.28125 343.96875 L 630.28125 344.09375 L 631.21875 343.75 L 631.9375 343.0625 L 632.875 342.71875 L 633.625 342.125 L 634.375 341.59375 L 634.9375 340.8125 L 635.40625 340 L 635.78125 339.125 L 636.1875 338.28125 L 636.65625 337.4375 L 637.4375 336.875 L 637.90625 336.03125 L 638.3125 335.125 L 638.1875 334.15625 L 638.25 333.1875 L 638.8125 332.375 L 639.125 331.46875 L 639.96875 330.96875 L 640.59375 330.1875 L 641.15625 329.40625 L 641.9375 328.875 L 642.4375 328.03125 L 642.71875 327.125 L 643.34375 326.375 L 643.875 325.59375 L 644.84375 325.375 L 645.59375 324.75 L 646.40625 324.1875 L 646.96875 323.375 L 647.375 322.53125 L 647.78125 321.65625 L 648.40625 320.9375 L 649.15625 320.3125 L 650 319.78125 L 650.96875 319.625 L 651.375 318.75 L 651.71875 317.875 L 652.46875 317.25 L 652.875 316.375 L 653.34375 315.53125 L 653.375 314.5625 L 653.75 313.71875 L 653.84375 312.75 L 654 311.84375 L 653.9375 310.90625 L 653.90625 309.9375 L 654.34375 309.09375 L 654.6875 308.21875 L 654.96875 307.3125 L 655.53125 306.5625 L 656.09375 305.8125 L 656.1875 304.875 L 656.375 303.96875 L 656.75 303.09375 L 657.4375 302.4375 L 657.65625 301.53125 L 657.8125 300.59375 L 658.5 299.9375 L 659.03125 299.15625 L 659.4375 298.28125 L 660.21875 297.6875 L 661 297.125 L 661.9375 296.84375 L 662.875 296.625 L 663.65625 296.09375 L 664.5 295.65625 L 665.09375 294.875 L 665.53125 294.03125 L 666.21875 293.375 L 666.6875 292.53125 L 666.8125 291.59375 L 667.46875 290.90625 L 668.125 290.21875 L 668.28125 289.28125 L 668.75 288.4375 L 669.28125 287.65625 L 670 287.0625 L 670.75 286.53125 L 671.625 286.21875 L 672.15625 285.4375 L 672.9375 284.96875 L 673.71875 284.5 L 674.46875 283.96875 L 675.25 283.5 L 675.96875 282.90625 L 676.6875 282.28125 L 677.0625 281.4375 L 677.8125 280.84375 L 678.71875 280.59375 L 679.21875 279.8125 L 679.84375 279.09375 L 678.90625 278.71875 L 677.9375 278.625 L 677 278.375 L 676.09375 278 L 675.46875 277.25 L 674.96875 276.375 L 674.21875 275.71875 L 673.28125 275.3125 L 672.90625 274.4375 L 672.3125 273.6875 L 671.75 272.90625 L 671.46875 271.96875 L 670.53125 271.625 L 669.84375 270.875 L 669.5625 269.90625 L 668.90625 269.15625 L 668.46875 268.3125 L 668.3125 267.34375 L 668.0625 266.4375 L 667.625 265.5625 L 667.25 264.6875 L 666.65625 263.90625 L 666.09375 263.15625 L 665.375 262.5 L 664.71875 261.75 L 663.84375 261.34375 L 662.96875 260.9375 L 662.0625 260.59375 L 661.28125 260.0625 L 660.6875 259.28125 L 660.125 258.5 L 659.5 257.78125 L 658.75 257.15625 L 657.90625 256.71875 L 657.0625 256.28125 L 656.15625 255.96875 L 655.375 255.4375 L 654.65625 254.78125 L 654.0625 254.03125 L 653.28125 253.46875 L 652.34375 253.25 L 651.375 253 L 650.40625 253.09375 L 649.46875 253.40625 L 648.625 252.96875 L 647.75 252.5625 L 646.78125 252.5 L 645.8125 252.3125 L 644.875 252.3125 L 643.96875 252 L 643.03125 251.875 L 642.15625 251.5625 L 641.21875 251.25 L 640.25 251.375 L 639.4375 250.84375 L 638.59375 250.375 L 638.09375 249.59375 L 637.34375 248.96875 L 636.46875 248.5625 L 635.78125 247.875 L 634.90625 247.4375 L 634.28125 246.6875 L 633.3125 246.59375 L 632.40625 246.21875 L 631.8125 245.4375 L 631.40625 244.5625 L 630.59375 244.0625 L 629.78125 243.5625 L 629.25 242.78125 L 629.09375 241.8125 L 628.625 241 L 627.96875 240.3125 L 627.34375 239.625 L 627 238.75 L 626.625 237.875 L 625.90625 237.25 L 625.34375 236.46875 L 624.90625 235.625 L 624.15625 235.03125 L 623.28125 234.59375 L 622.625 233.9375 L 622.03125 233.1875 L 621.5625 232.34375 L 621.3125 231.40625 L 621.21875 230.46875 L 620.90625 229.5625 L 620.9375 228.59375 L 620.625 227.6875 L 620.59375 226.78125 L 620.5 225.84375 L 620.53125 224.875 L 620.15625 224.03125 L 619.6875 223.1875 L 619.1875 222.375 L 619.3125 221.40625 L 619.09375 220.46875 L 618.375 219.84375 L 617.78125 219.09375 L 617.1875 218.34375 L 616.46875 217.71875 L 616.03125 216.875 L 615.375 216.1875 L 614.8125 215.40625 L 614.25 214.65625 L 614.15625 213.6875 L 613.59375 212.875 L 613.25 211.96875 L 613.28125 211 L 613.09375 210.03125 L 613.1875 209.0625 L 612.8125 208.15625 L 612.3125 207.34375 L 611.71875 206.625 L 611.1875 205.84375 L 610.5625 205.125 L 609.84375 204.5625 L 609.25 203.84375 L 608.4375 203.34375 L 607.53125 203 L 606.90625 202.28125 L 606.15625 201.6875 L 605.71875 200.8125 L 605.09375 200.09375 L 604.1875 199.75 L 603.46875 199.15625 L 602.71875 198.625 L 601.96875 198 L 601.03125 197.78125 L 600.1875 198.1875 L 599.34375 198.65625 L 598.8125 199.4375 L 598.03125 200 L 597.09375 200.15625 L 596.78125 200.21875 C 596.95883 197.48666 597.21244 194.84077 597.25 192.5625 C 587.16706 185.47341 589.68445 173.55417 580.8125 166.1875 C 575.0987 155.23463 561.47402 158.34981 557.9375 146.15625 C 553.52524 144.08344 550.95174 132.45376 547.96875 132.3125 z "
     id="path8206" />
  <g
     inkscape:label="Layer 1"
     inkscape:groupmode="layer"
     id="layer1" />
  <path
     id="path7250"
     d="m 369.40761,214.99375 0,-100 40.25854,-65.748262 46.2883,-25.780885 43.99746,3.047421 26.3717,12.512083 11.93304,18.704515 -1.3595,19.011603 -8.17647,10.488283 8.17647,-10.488283 7.95241,13.67073 1.4313,12.492745 -1.4313,-12.492745 -7.95241,-13.67073 1.3595,-19.011603 -11.93304,-18.704515 19.99941,0.228407 15.22065,7.109954 9.48808,9.830312 -9.48808,-9.830312 -15.22065,-7.109954 14.23915,-5.595917 -14.23915,5.595917 -19.99941,-0.228407 -26.3717,-12.512083 29.47374,-19.3249572 25.57732,0.7309629 20.34092,10.0941023 8.19096,10.947949 -8.19096,-10.947949 18.08694,1.84256 14.04721,8.041311 5.84667,12.827648 -5.84667,-12.827648 -14.04721,-8.041311 13.17323,-3.910327 -13.17323,3.910327 -18.08694,-1.84256 -20.34092,-10.0941023 18.78013,-10.1339687 15.25269,-1.4151727 10.25249,-7.3322953 -10.25249,7.3322953 -15.25269,1.4151727 9.52937,-15.236584 11.78704,-8.390372 -11.78704,8.390372 1.28072,-12.238195 -1.28072,12.238195 -9.52937,15.236584 -18.78013,10.1339687 -25.57732,-0.7309629 11.04154,-18.8202288 15.81552,-6.555463 13.89444,0.366193 -13.89444,-0.366193 -15.81552,6.555463 -2.13644,-15.291462 -9.1221,-9.290751 9.1221,9.290751 2.13644,15.291462 -11.04154,18.8202288 -29.47374,19.3249572 -43.99746,-3.047421 14.41094,-23.74474987 21.60319,-12.39531113 12.87332,1.028685 -12.87332,-1.028685 6.51666,-12.549097 -6.51666,12.549097 -21.60319,12.39531113 0.25557,-24.59649113 9.87747,-12.328944 2.86719,-12.100145 -2.86719,12.100145 -9.87747,12.328944 -10.31283,-19.416978 2.66924,-18.783796 11.50557,-11.861535 13.35328,-1.708615 -13.35328,1.708615 3.85943,-14.039201 -3.85943,14.039201 -11.50557,11.861535 -2.66924,18.783796 -11.45777,-6.018549 11.45777,6.018549 10.31283,19.416978 -0.25557,24.59649113 -14.41094,23.74474987 -46.2883,25.780885 1.73156,-67.971766 15.95086,-39.06953 29.15495,-20.216578 28.34373,-4.209466 17.05051,8.531248 8.48024,9.003894 -8.48024,-9.003894 15.05523,-1.92904 -15.05523,1.92904 -17.05051,-8.531248 21.29905,-12.228855 19.33271,-0.09907 12.59704,7.458513 -12.59704,-7.458513 12.3624,-7.798782 -12.3624,7.798782 -19.33271,0.09907 7.50359,-15.501693 9.02677,-8.39425 -9.02677,8.39425 -7.50359,15.501693 -21.29905,12.228855 -28.34373,4.209466 17.52434,-26.139574 20.05037,-7.67723 17.66149,3.19921 9.70055,7.50127 -9.70055,-7.50127 12.14075,-5.28969 -12.14075,5.28969 -17.66149,-3.19921 -20.05037,7.67723 4.12034,-17.39118 8.35908,-10.33672 -8.35908,10.33672 -4.12034,17.39118 -17.52434,26.139574 -29.15495,20.216578 -10.87807,-33.923233 0,0 0,0 10.87807,33.923233 -15.95086,39.06953 -22.77672,-34.951342 -7.60299,-33.277756 0,0 -20.82946,-19.270984 0,0 -20.40535,-2.56414 -12.11834,6.89762 -12.23935,-0.53427 12.23935,0.53427 -5.54001,10.849593 5.54001,-10.849593 12.11834,-6.89762 20.40535,2.56414 20.82946,19.270984 7.60299,33.277756 -24.47697,-13.678294 -5.76647,-14.68356 -0.13763,-12.173134 0.13763,12.173134 5.76647,14.68356 -19.02762,-2.949874 -10.10562,-6.863201 10.10562,6.863201 -15.97549,5.690936 -6.95501,11.641226 6.95501,-11.641226 15.97549,-5.690936 19.02762,2.949874 24.47697,13.678294 22.77672,34.951342 -1.73156,67.971766 -40.25854,65.748262 -26.78063,-56.849607 4.32414,-41.112589 12.08173,-22.8761865 13.58977,-6.6531975 -13.58977,6.6531975 0.84287,-16.8005085 7.62378,-13.018385 -7.62378,13.018385 -0.84287,16.8005085 -12.08173,22.8761865 -11.28732,-21.7758876 -0.13863,-12.5780014 0.13863,12.5780014 -14.95062,-10.4191034 -5.85924,-12.272443 5.85924,12.272443 14.95062,10.4191034 11.28732,21.7758876 -4.32414,41.112589 -31.51209,-27.898178 -7.7099,-22.5212233 4.91891,-14.8323841 -4.91891,14.8323841 -13.09593,-12.4459578 -11.98805,-1.3004295 11.98805,1.3004295 13.09593,12.4459578 7.7099,22.5212233 -35.68652,-7.596168 -23.01447,-22.32941504 -5.78145,-26.42117396 6.50925,-17.966163 10.79993,-9.816975 -10.79993,9.816975 -6.50925,17.966163 -11.65465,-11.278974 -13.31293,-3.85847 13.31293,3.85847 11.65465,11.278974 5.78145,26.42117396 -17.30365,-7.13800886 -14.42121,0.8731606 14.42121,-0.8731606 17.30365,7.13800886 23.01447,22.32941504 -22.39914,4.382272 -18.01182,-5.397693 -7.40856,-10.464652 7.40856,10.464652 -14.662,1.800673 14.662,-1.800673 18.01182,5.397693 -14.287,9.374978 -6.45967,10.476942 6.45967,-10.476942 14.287,-9.374978 22.39914,-4.382272 35.68652,7.596168 31.51209,27.898178 26.78063,56.849607 0,100"
     style="fill:none;stroke:#000000;stroke-width:1px;stroke-linecap:butt;stroke-linejoin:miter;stroke-opacity:1"
     inkscape:connector-curvature="0"
     sodipodi:nodetypes="ccccccccccccccccccccccccccccccccccccccccccccccccccccccccccccccccccccccccccccccccccccccccccccccccccccccccccccccccccccccccccccccccccccccccccccccccccccccccccccccccccccccccccccccccccccccccccccccccccccccccccccccccccccccccccccccccccc" />
  <path
     sodipodi:nodetypes="cccccccccccccccccccccccccccccccccccccccccccccccccccccccccccccccccccccccccccccccccccccccccccccccccccccccccccccccccccccccccccccccccccccccccccccccccccccccccccccccccccccccccccccccccccccccccccccccccccccccccccccc"
     inkscape:connector-curvature="0"
     style="fill:none;stroke:#000000;stroke-width:1px;stroke-linecap:butt;stroke-linejoin:miter;stroke-opacity:1"
     d="m -68.998595,167.51658 0,-100 40.25854,-65.7482616 46.2883,-25.7808854 43.99746,3.047421 26.3717,12.5120834 11.93304,18.7045146 -1.3595,19.011603 -8.17647,10.488283 8.17647,-10.488283 7.952415,13.67073 1.4313,12.492745 -1.4313,-12.492745 -7.952415,-13.67073 1.3595,-19.011603 -11.93304,-18.7045146 19.999415,0.228407 15.22065,7.109954 9.48808,9.830312 -9.48808,-9.830312 -15.22065,-7.109954 14.23915,-5.5959174 -14.23915,5.5959174 -19.999415,-0.228407 -26.3717,-12.5120834 29.47374,-19.324957 25.577325,0.730963 20.34092,10.094102 8.19096,10.947949 -8.19096,-10.947949 18.08694,1.84256 14.04721,8.041311 5.84667,12.8276484 -5.84667,-12.8276484 -14.04721,-8.041311 13.17323,-3.910327 -13.17323,3.910327 -18.08694,-1.84256 -20.34092,-10.094102 18.78013,-10.133969 15.25269,-1.415172 10.25249,-7.332296 -10.25249,7.332296 -15.25269,1.415172 9.52937,-15.236584 11.78704,-8.390372 -11.78704,8.390372 1.28072,-12.238195 -1.28072,12.238195 -9.52937,15.236584 -18.78013,10.133969 -25.577325,-0.730963 11.041545,-18.820229 15.81552,-6.555463 13.89444,0.366193 -13.89444,-0.366193 -15.81552,6.555463 -2.136445,-15.291462 -9.1221,-9.290751 9.1221,9.290751 2.136445,15.291462 -11.041545,18.820229 -29.47374,19.324957 -43.99746,-3.047421 14.41094,-23.74475 21.60319,-12.395311 12.87332,1.028685 -12.87332,-1.028685 6.51666,-12.549097 -6.51666,12.549097 -21.60319,12.395311 0.25557,-24.596491 9.87747,-12.328944 2.86719,-12.100145 -2.86719,12.100145 -9.87747,12.328944 -10.31283,-19.416978 2.66924,-18.783794 0,0 -2.66924,18.783794 -11.45777,-6.018549 11.45777,6.018549 10.31283,19.416978 -0.25557,24.596491 -14.41094,23.74475 -46.2883,25.7808854 1.73156,-67.9717664 15.95086,-39.069532 29.15495,-20.21658 49.64278,-16.43832 19.33271,-0.0991 12.59704,7.45852 -12.59704,-7.45852 12.3624,-7.79878 -12.3624,7.79878 -19.33271,0.0991 0,0 -49.64278,16.43832 17.52434,-26.13957 20.05037,-7.67723 0,0 -20.05037,7.67723 4.12034,-17.39118 8.35908,-10.33672 -8.35908,10.33672 -4.12034,17.39118 -17.52434,26.13957 -29.15495,20.21658 -10.87807,-33.92323 0,0 0,0 10.87807,33.92323 -15.95086,39.069532 -22.77672,-34.951342 -7.60299,-33.27776 0,0 -20.82946,-19.27098 0,0 -20.40535,-2.56414 -12.118335,6.89762 -12.23935,-0.53427 12.23935,0.53427 -5.54001,10.84959 5.54001,-10.84959 12.118335,-6.89762 20.40535,2.56414 20.82946,19.27098 7.60299,33.27776 -24.47697,-13.67829 -5.76647,-14.68356 -0.13763,-12.17314 0.13763,12.17314 5.76647,14.68356 -19.02762,-2.94988 -10.105615,-6.8632 10.105615,6.8632 -15.975485,5.69094 -6.95501,11.64122 6.95501,-11.64122 15.975485,-5.69094 19.02762,2.94988 24.47697,13.67829 22.77672,34.951342 -1.73156,67.9717664 -40.25854,65.7482616 -26.78063,-56.849607 4.32414,-41.112589 12.08173,-22.876186 13.58977,-6.653198 -13.58977,6.653198 0.84287,-16.800509 7.62378,-13.018385 -7.62378,13.018385 -0.84287,16.800509 -12.08173,22.876186 -11.287315,-21.775887 -0.13863,-12.578002 0.13863,12.578002 -14.95062,-10.419104 -5.85924,-12.272443 5.85924,12.272443 14.95062,10.419104 11.287315,21.775887 -4.32414,41.112589 -31.512085,-27.898178 -7.7099,-22.521223 4.91891,-14.832384 -4.91891,14.832384 -13.09593,-12.445958 -11.98805,-1.300429 11.98805,1.300429 13.09593,12.445958 7.7099,22.521223 -35.68652,-7.596168 -23.01447,-22.329415 -5.78145,-26.421174 6.50925,-17.966163 10.79993,-9.816975 -10.79993,9.816975 -6.50925,17.966163 -11.65465,-11.278974 -13.31293,-3.85847 13.31293,3.85847 11.65465,11.278974 5.78145,26.421174 -17.30365,-7.138009 -14.42121,0.873161 14.42121,-0.873161 17.30365,7.138009 23.01447,22.329415 -22.39914,4.382272 -18.01182,-5.397693 -7.40856,-10.464652 7.40856,10.464652 -14.662,1.800673 14.662,-1.800673 18.01182,5.397693 -14.287,9.374978 -6.45967,10.47694237 6.45967,-10.47694237 14.287,-9.374978 22.39914,-4.382272 35.68652,7.596168 31.512085,27.898178 26.78063,56.849607 0,100"
     id="path7256" />
  <path
     id="path7766"
     d="m 117.87963,536.22226 0,-100 40.25854,-65.74826 46.2883,-25.78089 43.99746,3.04742 26.3717,12.51209 11.93304,18.70451 -1.3595,19.0116 -8.17647,10.48829 8.17647,-10.48829 7.95241,13.67073 1.4313,12.49275 -1.4313,-12.49275 -7.95241,-13.67073 1.3595,-19.0116 -11.93304,-18.70451 19.99941,0.2284 15.22065,7.10996 9.48808,9.83031 -9.48808,-9.83031 -15.22065,-7.10996 14.23915,-5.59591 -14.23915,5.59591 -19.99941,-0.2284 -26.3717,-12.51209 29.47374,-19.32495 25.57732,0.73096 20.34092,10.0941 8.19096,10.94795 -8.19096,-10.94795 18.08694,1.84256 14.04721,8.04131 5.84667,12.82765 -5.84667,-12.82765 -14.04721,-8.04131 13.17323,-3.91033 -13.17323,3.91033 -18.08694,-1.84256 -20.34092,-10.0941 18.78013,-10.13397 15.25269,-1.41517 10.25249,-7.3323 -10.25249,7.3323 -15.25269,1.41517 9.52937,-15.23658 11.78704,-8.39038 -11.78704,8.39038 1.28072,-12.2382 -1.28072,12.2382 -9.52937,15.23658 -18.78013,10.13397 -25.57732,-0.73096 11.04154,-18.82023 15.81552,-6.55547 13.89444,0.3662 -13.89444,-0.3662 -15.81552,6.55547 -2.13644,-15.29146 -9.1221,-9.29076 9.1221,9.29076 2.13644,15.29146 -11.04154,18.82023 -29.47374,19.32495 -43.99746,-3.04742 14.41094,-23.74475 21.60319,-12.39531 12.87332,1.02869 -12.87332,-1.02869 6.51666,-12.5491 -6.51666,12.5491 -21.60319,12.39531 0.25557,-24.59649 9.87747,-12.32894 2.86719,-12.10015 -2.86719,12.10015 -9.87747,12.32894 -10.31283,-19.41698 2.66924,-18.78379 0,0 -2.66924,18.78379 -11.45777,-6.01855 11.45777,6.01855 10.31283,19.41698 -0.25557,24.59649 -14.41094,23.74475 -46.2883,25.78089 1.73156,-67.97177 15.95086,-39.06953 29.15495,-20.21658 49.64278,-16.43832 19.33271,-0.0991 12.59704,7.45852 -12.59704,-7.45852 12.3624,-7.79878 -12.3624,7.79878 -19.33271,0.0991 0,0 -49.64278,16.43832 17.52434,-26.13957 20.05037,-7.67723 0,0 -20.05037,7.67723 4.12034,-17.39118 8.35908,-10.33672 -8.35908,10.33672 -4.12034,17.39118 -17.52434,26.13957 -29.15495,20.21658 -10.87807,-33.92323 0,0 0,0 10.87807,33.92323 -15.95086,39.06953 -22.77672,-34.95134 -7.60299,-33.27776 0,0 -20.82946,-19.27098 0,0 -20.405354,-2.56414 -12.118335,6.89762 -12.23935,-0.53427 12.23935,0.53427 -5.54001,10.84959 5.54001,-10.84959 12.118335,-6.89762 20.405354,2.56414 20.82946,19.27098 7.60299,33.27776 -24.47697,-13.67829 -5.76647,-14.68356 -0.13763,-12.17314 0.13763,12.17314 5.76647,14.68356 -19.027624,-2.94988 -10.105615,-6.8632 10.105615,6.8632 -15.975485,5.69094 -6.95501,11.64122 6.95501,-11.64122 15.975485,-5.69094 19.027624,2.94988 24.47697,13.67829 22.77672,34.95134 -1.73156,67.97177 -40.25854,65.74826 -26.780634,-56.84961 4.32414,-41.11259 12.081734,-22.87618 13.58977,-6.6532 -13.58977,6.6532 0.84287,-16.80051 7.62378,-13.01839 -7.62378,13.01839 -0.84287,16.80051 -12.081734,22.87618 -11.287315,-21.77588 -0.13863,-12.57801 0.13863,12.57801 -14.95062,-10.41911 -5.85924,-12.27244 5.85924,12.27244 14.95062,10.41911 11.287315,21.77588 -4.32414,41.11259 -31.512085,-27.89818 -7.7099,-22.52122 4.91891,-14.83238 -4.91891,14.83238 -13.09593,-12.44596 -11.98805,-1.30043 11.98805,1.30043 13.09593,12.44596 7.7099,22.52122 -35.68652,-7.59616 -23.01447011,-22.32942 -5.78144999,-26.42117 6.50925,-17.96617 10.7999301,-9.81697 -10.7999301,9.81697 -6.50925,17.96617 -11.6546499,-11.27898 -13.31293,-3.85847 13.31293,3.85847 11.6546499,11.27898 5.78144999,26.42117 -17.30364989,-7.13801 -14.42121,0.87316 14.42121,-0.87316 17.30364989,7.13801 23.01447011,22.32942 -22.3991401,4.38227 -18.0118199,-5.39769 -7.40856,-10.46466 7.40856,10.46466 -14.662,1.80067 14.662,-1.80067 18.0118199,5.39769 -14.2869999,9.37498 -6.45967,10.47694 6.45967,-10.47694 14.2869999,-9.37498 22.3991401,-4.38227 35.68652,7.59616 31.512085,27.89818 26.780634,56.84961 0,100"
     style="fill:none;stroke:#000000;stroke-width:1px;stroke-linecap:butt;stroke-linejoin:miter;stroke-opacity:1"
     inkscape:connector-curvature="0"
     sodipodi:nodetypes="cccccccccccccccccccccccccccccccccccccccccccccccccccccccccccccccccccccccccccccccccccccccccccccccccccccccccccccccccccccccccccccccccccccccccccccccccccccccccccccccccccccccccccccccccccccccccccccccccccccccccccccc" />
  <path
     style="fill:#800000;stroke:#290000;stroke-width:3;stroke-linecap:butt;stroke-linejoin:miter;stroke-opacity:1;stroke-miterlimit:4;stroke-dasharray:none"
     d="m 569.90625,196.1875 c -7.36222,1.73427 -5.90721,11.84818 -10,16.78125 -5.0638,4.7538 -6.73145,12.98625 -13.9375,15.34375 -2.26279,1.00667 -5.97397,6.74709 -6.59375,1.65625 -1.45859,-3.99103 -1.27703,-10.00284 -5.59375,-12.15625 -3.18696,-1.76001 -7.41741,1.89941 -5.21875,5.1875 1.86916,7.57865 7.07933,15.93987 2,23.40625 -1.61994,1.99173 -2.38825,8.79094 -4.84345,3.56288 -6.14768,-6.99095 -8.34425,-16.02936 -10.34405,-24.75038 -2.91341,-9.67319 -10.90532,-16.91803 -20.46875,-19.71875 -4.62361,-3.01633 -9.93812,-1.38705 -14.1875,1.125 -3.35417,1.49677 -11.33413,1.61491 -9.65625,6.8125 1.54337,5.61918 9.41851,6.25423 12.53125,1.6875 2.49567,-1.71864 9.75798,-3.4445 8.21875,1.90625 -0.18345,3.70248 2.77223,8.71751 2,11.4375 -3.68893,0.11052 -8.03262,-5.2368 -10.90625,-0.84375 -0.12602,2.46477 -3.21325,3.07604 -4.40625,4.9375 -5.99511,1.43975 -1.80693,11.30755 3.34375,7.15625 2.90051,-3.49778 7.64804,-3.67878 11.4375,-2.25 3.63709,-1.0335 7.46685,-0.47821 9.4375,2.9375 4.62958,3.1877 10.80261,4.42615 13.28125,10.15625 4.06681,6.65716 9.38844,13.07552 8.40625,21.375 -0.0359,8.38052 -0.71052,16.86689 -1.09375,25.15625 -5.67991,9.29636 -18.04203,12.49041 -22.03125,23.125 -1.47466,3.87297 -2.30032,4.25753 -3.28125,0.0937 -2.02812,-5.92187 -7.95132,-11.17079 -5.28125,-17.6875 0.82578,-6.54059 1.08212,-13.24293 2.28125,-19.78125 1.06211,-2.7671 3.6949,-4.9015 4.1875,-7.75 1.90612,-2.69216 9.63787,-6.04323 5.03125,-9.71875 -2.19945,-0.008 -2.85947,-0.58536 -1.65996,-2.83571 1.98627,-3.64677 1.41342,-10.38858 -4.05879,-9.13304 -7.82269,3.92998 -2.45299,15.27163 -8.40625,20.625 -0.2787,2.17836 -1.80792,-3.72775 -1.8125,-4.15625 -0.15699,-4.04799 -3.65943,-7.22413 -7.5625,-6.5 -2.69621,-3.09108 -6.35756,-7.57149 -11.0625,-5.03125 -1.58765,7.98738 6.53017,12.01523 11.08506,16.7276 3.96912,5.47674 6.31058,12.31551 4.13369,18.99115 0.39416,5.06815 -0.41095,7.17411 -4.09375,2.28125 -6.04588,-3.79291 -9.98882,-9.68045 -11.40625,-16.59375 -1.70533,-2.75445 2.12284,-8.5434 -3.125,-8.59375 2.2839,-4.12896 -2.9873,1.32093 -4.34375,-1.59375 -2.93692,-2.7481 -9.94336,-5.49952 -11.40625,0.125 -0.28691,6.1424 7.5715,7.01471 10.40625,10.8125 0.64756,1.61822 3.38123,6.5947 -0.375,4.625 -5.73741,-1.10024 -13.11008,-0.98733 -15.75,-7.3125 -2.59565,-3.10073 -8.81941,-5.42999 -6.34375,-10.375 0.64246,-4.89192 -6.4288,-9.54256 -1.625,-13.90625 2.79792,-3.15804 2.88871,-9.31519 -2.03125,-10.3125 -3.67059,0.76935 -5.15162,4.53173 -6.1875,7.6875 -3.40102,-3.67578 -8.65173,-4.19687 -13.375,-3.75 4.77143,3.91316 6.02896,11.08441 11.6875,13.78125 0.42387,1.56341 1.72529,5.87279 0.34375,5.8125 -2.76111,-1.45385 -8.88423,-4.89549 -8.4375,0.5 -0.45626,5.91327 5.66373,9.83139 10.96875,9.125 3.71318,1.8285 5.99477,5.39867 8.84375,8.125 -5.89916,2.37505 -11.81491,-4.25948 -17.5,-1.40625 -3.41154,2.54437 -1.71893,9.28009 3.125,7.78125 2.64441,-0.64288 -3.83653,5.27124 -3.46875,4.21875 -3.11654,1.45423 -4.76564,8.17705 0.375,6.84375 5.51852,-0.82496 10.16998,-4.35366 13.96875,-7.78125 3.21745,-0.9215 7.92117,0.74701 10.53125,-2.5625 6.60636,0.0529 12.91505,2.89241 19.4375,3.46875 4.85166,2.81325 8.20085,7.75071 12.875,10.65625 3.70368,3.46224 8.09672,6.67291 8.8125,12.15625 1.79366,7.55145 2.7428,15.44773 5.57044,22.59298 0.77142,22.87159 -3.71454,45.56209 -2.85169,68.43827 4.05423,-5.67898 14.38313,-4.14736 16,-11.8125 0.0708,-17.98902 1.95365,-35.91645 2.03125,-53.90625 8.37908,-12.59867 14.94441,-26.63232 24.46875,-38.28125 5.61207,-2.63854 11.17009,-6.13046 16.4375,-9.15625 4.45533,-2.33252 8.94746,-5.46424 14.25,-3.65625 8.87274,2.26304 19.21821,-0.76822 26.5,6.21875 5.18745,0.88144 9.14077,5.1769 9.40625,10.34375 1.56673,5.68947 -1.13039,12.62597 3.5,17.3125 0.24386,3.65646 4.89467,9.57592 8.40625,5.28125 3.85484,-5.58871 -3.29116,-10.53905 -2.78125,-16.375 -0.32724,-4.75757 -0.18847,-10.02534 -2.3125,-14.21875 6.20127,-0.95489 10.60473,9.09788 16.6875,4.6875 3.66809,-3.37582 -1.95636,-7.1491 -3.875,-8.53125 3.95143,-3.59048 -2.63054,-8.46278 -6.125,-5.625 -3.12512,3.05526 -5.69415,-0.98759 -8.5,-2.375 2.77008,4.1924 -0.99759,2.24756 -3.125,3.6875 -3.7986,1.24413 -6.78261,-2.56176 -10.0625,-3.8125 4.63086,-2.12184 7.94215,-7.05669 13.59375,-6.6875 6.49011,0.12929 13.46754,0.40054 18.3125,5.4375 2.88556,1.9533 5.89631,7.69367 7.5,1.8125 2.85915,0.91689 6.98677,-0.97918 9.15625,2.3125 2.10219,3.15402 6.93873,7.45225 10.15625,3.1875 2.17232,-3.86532 -1.85155,-6.88275 -3.84375,-9.53125 -1.10803,-4.16201 -5.37545,-6.40601 -9.25,-4.6875 -2.89867,-0.21953 -6.05891,-1.20789 -8.875,0 -2.62062,-1.04386 -4.61675,-2.54966 -0.90625,-3.78125 3.68431,-1.81451 8.61894,0.30778 11.625,-3.375 2.88037,-3.04684 -1.30704,-7.45971 -4.34375,-6.625 3.177,-1.99296 6.36901,-6.99443 2.125,-9.75 -4.0015,-2.07911 -8.65409,1.02931 -9.3125,5.0625 -3.21822,2.26044 -2.31144,8.07262 -6.9375,8.5 -2.77437,2.2203 -5.52991,5.20513 -9.5625,3.125 -1.49176,-0.53904 -5.11615,0.73558 -3.0625,-1.78125 2.38693,-5.00311 9.23698,-1.5943 12.375,-5.84375 3.41552,-0.95158 4.93989,-6.28815 0.59375,-7.0625 -3.80497,-1.14563 -7.82583,-0.18626 -11.1875,1.1875 -1.59349,-7.13753 -7.59693,-12.07122 -11.125,-18.28125 0.25416,7.58114 -0.14997,15.68434 3.3125,22.5625 -1.10418,6.12235 -5.14816,11.8433 -11.125,13.75 -4.62482,3.69462 -9.57444,7.59242 -15.90597,6.56995 -3.8086,-0.15175 -7.5234,-0.69341 -11.25028,-1.19495 2.52256,-2.78772 2.75113,-7.38268 7.15625,-8.375 5.38076,-2.37785 13.11993,-6.24297 12.875,-13.15625 -0.22361,-5.12116 -7.41845,-4.60559 -8.78125,-0.375 -0.7635,2.84241 -4.10921,3.50651 -5.84375,4.5 -0.83595,-4.09882 1.02243,-7.59085 3.84375,-10.25 2.53516,-3.00489 1.94247,-10.26674 -3.3125,-8.6875 -2.91737,0.23795 -3.74188,5.65756 -5.34375,1.25 -0.73233,-1.02879 -1.88319,-2.79709 0.25,-3.25 1.56474,-5.16512 -6.83957,-10.30631 -9,-4.25 -3.57067,2.51172 -3.18337,8.07874 0.40625,10.34375 0.91939,3.08732 3.26054,5.7803 4.4375,8.4375 -0.84879,3.70103 -1.67977,7.81114 0.21875,11.21875 -1.17087,4.53634 -5.74471,7.61189 -6.65625,12.3125 -3.99684,4.31412 -10.265,5.95845 -14.71875,9.46875 -1.30066,1.32313 -4.42224,1.35569 -6.0625,2.90625 0.26099,-7.9423 -0.009,-16.02776 0.5625,-24.03125 -0.72081,-3.5047 -0.0522,-6.21726 1.15625,-9.40625 1.73515,-7.32652 5.03899,-14.71154 9.375,-20.875 4.65381,-3.99302 10.10822,-7.45978 15.34375,-10.71875 4.52394,-1.70949 9.504,-3.68133 13.21875,-6.375 3.40721,0.63358 6.86926,-0.44267 10.15625,-1.28125 -4.02199,-4.28907 1.25004,-0.24763 4.15625,-1.15625 5.42397,-0.78331 12.4511,2.08049 16.5625,-3.03125 3.35057,-5.16819 -4.37148,-8.0897 -8.5625,-6.625 -6.28063,1.32075 -12.74308,2.22407 -18.9375,4.125 0.22055,-0.90405 -3.90691,1.64482 -5.1875,3 -1.93201,2.51805 -6.29778,1.13079 -3.1875,-1.40625 1.56851,-3.65418 6.43135,-3.95725 9.71875,-5.53125 2.85431,-3.11393 -2.36494,-5.35497 -4.84375,-5.96875 1.43301,-3.00502 4.74742,-10.4444 -1.5625,-10.21875 z M 496.125,215.03125 c 7.69586,2.44237 11.18125,10.85937 12.40625,18.125 -4.46328,-1.83841 -6.07577,-5.95891 -6.8125,-10.28125 -1.47868,-3.228 -4.36278,-5.31599 -6.40625,-8.15625 l 0.8125,0.3125 z m 84.5625,1.65625 c -3.86313,1.89702 0.24155,-2.5787 0,0 z m -13.84375,4.78125 c 0.74333,1.871 2.62583,0.94009 2.1875,1.03125 2.29003,2.43939 -5.25701,0.29587 -2.56287,-0.90202 0.41968,0.18453 -0.17969,-0.59245 0.37537,-0.12923 z m -133.8125,69.25 c 0.0463,-0.0295 0.11784,0.10771 0,0 z m 0,0 -0.0312,0 0.0312,0 z"
     id="path7768"
     inkscape:connector-curvature="0" />
  <path
     inkscape:connector-curvature="0"
     id="path7783"
     d="m 368.70568,551.32652 c 1.19453,-5.09309 -0.32918,-9.8647 -0.71649,-14.70952 2.34081,-4.9761 1.3374,-10.79089 0.18135,-15.84337 -2.25325,-4.45402 -1.94273,-9.93063 -2.99957,-14.67026 -1.64207,-3.61729 -6.00425,-11.13243 -2.42831,-13.04985 6.00764,3.4828 13.02339,1.89219 19.21253,4.2114 4.66257,3.12508 9.94212,5.82262 13.8313,9.56319 2.87149,5.95504 11.14007,2.16945 15.52712,6.52968 5.80781,3.91536 7.18697,-7.42872 11.55146,-9.30158 5.01233,-3.66476 8.97598,-8.94371 15.35074,-10.20722 5.25788,-4.96975 11.31354,1.44104 15.25765,4.79046 2.65101,6.84522 10.3215,7.96858 16.81386,9.62208 5.04694,2.42944 6.84891,8.53658 12.35513,9.99327 5.58164,4.43782 10.67177,9.46259 15.39324,14.82742 2.88682,4.13781 10.4556,4.16568 15.52237,2.96818 6.08768,-0.6989 15.38473,-0.3093 13.36205,8.45566 -0.13787,6.188 -0.47313,13.07339 1.39008,18.9433"
     style="fill:none;stroke:#000000;stroke-width:1px;stroke-linecap:butt;stroke-linejoin:miter;stroke-opacity:1" />
  <path
     sodipodi:nodetypes="ccccccccccccccccccccccccccccccccccccccccc"
     inkscape:connector-curvature="0"
     id="path8279"
     d="m 854.04497,162.61708 c -5.71349,9.94439 -10.42708,22.40421 -23.67509,23.77779 -11.41614,2.07153 -21.88397,16.17004 -32.01307,11.98561 -7.39571,-11.52956 -21.4056,-14.72794 -34.32849,-13.36992 -13.79761,-0.88316 -14.73234,11.02873 -14.32686,21.29323 -3.94026,10.39637 -8.67777,22.30998 -5.29563,31.94635 0.32249,8.54784 -0.41379,18.69434 -11.69611,15.36199 -9.87473,3.67351 -17.29966,11.89725 -22.32924,20.72468 -8.51712,7.37049 -16.39054,16.47719 -16.91986,28.34574 -1.72029,11.58586 -6.11267,23.47982 -0.75082,34.91849 3.31501,13.03279 19.96151,10.27132 28.21227,17.30926 6.66512,8.82568 16.69295,12.29872 24.63291,19.13955 8.42446,2.82974 17.08481,19.11645 19.92197,2.2622 7.31501,-6.5794 27.14343,-20.47063 9.50001,-28.65302 -11.78793,-8.01101 -25.58211,-18.91733 -23.43406,-34.90574 -0.27183,-8.32924 -4.90009,-24.62738 8.97151,-16.94721 10.47012,11.02994 23.50332,-4.81287 33.4037,3.59569 -4.18253,10.539 3.23723,23.03568 -2.55946,32.74601 0.51009,-13.30905 15.82221,-19.81142 19.88894,-31.7028 7.54679,-3.34381 20.67517,-22.09271 4.25028,-14.04888 -7.50326,-3.14983 -18.95412,-2.12127 -23.40615,-12.47215 -11.91641,0.62697 -10.41434,-9.24653 -4.74987,-13.9843 -1.58127,-15.32893 17.5329,-10.30377 23.53431,-19.02428 7.64396,7.03319 8.33613,58.9349 23.0989,62.66516 16.17771,-0.0165 9.64951,19.63983 9.81936,29.42419 -1.18268,6.03537 -4.04809,27.30517 0.61612,11.79883 5.17576,-11.65356 18.12838,-16.55818 24.37673,-27.03512 17.87962,-30.06166 0.22066,-29.46821 45.61764,-9.23806 16.2706,-2.49617 21.2175,14.31787 11.6879,25.48736 -5.9786,12.01488 -3.511,28.36404 -17.2822,35.87927 -2.77088,5.02717 -23.09406,2.58194 -16.21726,8.33703 9.8774,0.75903 15.04586,19.71916 24.39576,6.09591 9.6463,-7.08614 24.7854,-8.19523 28.2271,-21.48528 9.9922,-9.74491 15.5854,-20.84096 20.168,-33.83028 6.3628,-5.92484 15.4688,-13.39958 19.0791,-19.90859 -10.4579,-6.29706 -12.5075,-21.60492 -25.8927,-24.58431 -15.5309,-1.44105 -28.9203,-13.85146 -32.4105,-28.71547 -4.4746,-9.2357 -7.8359,-22.3457 -17.8117,-26.30015 -8.33626,0.63199 -6.69881,-11.15122 -13.70369,-16.01852 -3.69998,-12.03331 -11.48884,-20.31785 -23.05379,-25.42914 -4.21765,-9.82522 -16.51207,-14.29804 -17.53594,-25.37159"
     style="fill:#008000;fill-opacity:1;stroke:#001500;stroke-width:5;stroke-miterlimit:4;stroke-opacity:1;stroke-dasharray:none" />
</svg>
