<?xml version="1.0" encoding="UTF-8" standalone="no"?>
<!-- Created with Inkscape (http://www.inkscape.org/) -->

<svg
   xmlns:dc="http://purl.org/dc/elements/1.1/"
   xmlns:cc="http://creativecommons.org/ns#"
   xmlns:rdf="http://www.w3.org/1999/02/22-rdf-syntax-ns#"
   xmlns:svg="http://www.w3.org/2000/svg"
   xmlns="http://www.w3.org/2000/svg"
   xmlns:sodipodi="http://sodipodi.sourceforge.net/DTD/sodipodi-0.dtd"
   xmlns:inkscape="http://www.inkscape.org/namespaces/inkscape"
   width="210mm"
   height="297mm"
   viewBox="0 0 210 297"
   version="1.1"
   id="svg8"
   inkscape:version="0.92.2 (5c3e80d, 2017-08-06)"
   sodipodi:docname="vampyr.svg">
  <defs
     id="defs2" />
  <sodipodi:namedview
     id="base"
     pagecolor="#ffffff"
     bordercolor="#666666"
     borderopacity="1.0"
     inkscape:pageopacity="0.0"
     inkscape:pageshadow="2"
     inkscape:zoom="0.70710678"
     inkscape:cx="719.03095"
     inkscape:cy="628.75863"
     inkscape:document-units="mm"
     inkscape:current-layer="layer1"
     showgrid="false"
     inkscape:snap-global="false"
     inkscape:window-width="1680"
     inkscape:window-height="987"
     inkscape:window-x="-4"
     inkscape:window-y="-4"
     inkscape:window-maximized="1" />
  <metadata
     id="metadata5">
    <rdf:RDF>
      <cc:Work
         rdf:about="">
        <dc:format>image/svg+xml</dc:format>
        <dc:type
           rdf:resource="http://purl.org/dc/dcmitype/StillImage" />
        <dc:title />
      </cc:Work>
    </rdf:RDF>
  </metadata>
  <g
     inkscape:label="Layer 1"
     inkscape:groupmode="layer"
     id="layer1">
    <path
       inkscape:connector-curvature="0"
       id="path903"
       d="m 86.930008,244.36089 c 8.463872,3.05791 15.581592,0.11012 16.423492,-0.20048"
       style="fill:none;stroke:#000000;stroke-width:1.02803683;stroke-linecap:butt;stroke-linejoin:miter;stroke-miterlimit:4;stroke-dasharray:none;stroke-opacity:1"
       sodipodi:nodetypes="cc" />
    <path
       style="fill:none;stroke:#000000;stroke-width:1;stroke-linecap:butt;stroke-linejoin:miter;stroke-miterlimit:4;stroke-dasharray:none;stroke-opacity:1"
       d="m 107.68719,244.19428 c 7.93201,1.76904 15.39146,-0.15519 15.39146,-0.15519"
       id="path901"
       inkscape:connector-curvature="0" />
    <path
       sodipodi:nodetypes="ccsc"
       inkscape:connector-curvature="0"
       id="path881"
       d="m 99.586892,269.06283 c 0,0 -0.339331,-1.55345 -4.199759,-1.2025 -3.86043,0.35094 -4.56232,4.11234 0.21935,4.11234 4.781657,0 3.980409,-2.90984 3.980409,-2.90984 z"
       style="fill:none;stroke:#000000;stroke-width:1;stroke-linecap:butt;stroke-linejoin:miter;stroke-miterlimit:4;stroke-dasharray:none;stroke-opacity:1" />
    <path
       style="fill:none;stroke:#000000;stroke-width:1;stroke-linecap:butt;stroke-linejoin:miter;stroke-miterlimit:4;stroke-dasharray:none;stroke-opacity:1"
       d="m 110.34986,269.1096 c 0,0 0.29256,-1.60022 4.15299,-1.24927 3.86043,0.35094 4.56232,4.11234 -0.21935,4.11234 -4.78166,0 -3.93364,-2.86307 -3.93364,-2.86307 z"
       id="path873"
       inkscape:connector-curvature="0"
       sodipodi:nodetypes="ccsc" />
    <path
       style="fill:none;stroke:#000000;stroke-width:1;stroke-linecap:butt;stroke-linejoin:miter;stroke-miterlimit:4;stroke-dasharray:none;stroke-opacity:1"
       d="m 91.11218,217.46253 c 0,-0.8419 0.803153,-10.08949 0.803153,-10.08949"
       id="path867"
       inkscape:connector-curvature="0"
       sodipodi:nodetypes="cc" />
    <path
       inkscape:connector-curvature="0"
       id="path878"
       d="m 98.846333,157.43192 c -4.416434,0.52838 -10.494722,0.48354 -16.173213,4.08174 0,0 -3.038417,2.57095 -7.507563,18.46125 -4.469146,15.89029 -0.972033,45.42475 -0.972033,45.42475 0,0 5.618075,-36.9856 15.917859,-53.37163 3.238324,15.25329 1.398547,20.70449 -0.214198,35.35141 15.270855,2.42143 22.963315,1.05364 30.952975,-0.16553 -0.96435,-14.4269 -2.26017,-19.55388 -0.2139,-35.18502 10.41692,16.38517 16.03499,53.37077 16.03499,53.37077 0,0 1.40452,-22.82339 0.11705,-34.05952 -1.28746,-11.23614 -8.48562,-30.19712 -8.48562,-30.19712 -5.7466,-3.22756 -11.49384,-3.01719 -15.91027,-3.54557"
       style="fill:#ffffff;stroke:#000000;stroke-width:1;stroke-linecap:butt;stroke-linejoin:miter;stroke-miterlimit:4;stroke-dasharray:none;stroke-opacity:1"
       sodipodi:nodetypes="ccccccsccscc" />
    <path
       inkscape:connector-curvature="0"
       id="path869"
       d="m 119.82837,217.46253 c 0,-0.8419 -0.80315,-10.08949 -0.80315,-10.08949"
       style="fill:none;stroke:#000000;stroke-width:1;stroke-linecap:butt;stroke-linejoin:miter;stroke-miterlimit:4;stroke-dasharray:none;stroke-opacity:1"
       sodipodi:nodetypes="cc" />
    <path
       style="fill:none;stroke:#000000;stroke-width:1;stroke-linecap:butt;stroke-linejoin:miter;stroke-miterlimit:4;stroke-dasharray:none;stroke-opacity:1"
       d="m 42.334534,275.02593 c 0,0 20.131409,-23.87679 64.139606,-22.47227 44.0082,1.40452 62.26692,22.70635 62.26692,22.70635"
       id="path874"
       inkscape:connector-curvature="0"
       sodipodi:nodetypes="csc" />
    <path
       style="fill:#ffffff;stroke:#000000;stroke-width:1;stroke-linecap:butt;stroke-linejoin:miter;stroke-miterlimit:4;stroke-dasharray:none;stroke-opacity:1"
       d="m 99.015233,157.69025 1.755637,-11.87988 10.53388,0.23409 0.93634,12.17248 c 0,0 -2.10677,3.92094 -7.02258,3.68685 -4.91581,-0.23408 -6.203277,-4.21354 -6.203277,-4.21354 z"
       id="path868"
       inkscape:connector-curvature="0"
       sodipodi:nodetypes="ccccsc" />
    <path
       sodipodi:nodetypes="cczzcc"
       inkscape:connector-curvature="0"
       id="path872"
       d="m 82.657302,161.47032 c -21.373096,34.49204 -34.535695,73.09833 -40.303705,116.32921 0,0 5.462292,-12.08326 13.24191,-4.63467 7.779619,7.44858 6.497489,-3.34139 13.076393,0.16554 6.578909,3.50692 11.421157,3.14494 11.421157,3.14494 C 73.72218,241.45633 79.046682,201.22382 89.14293,162.3625"
       style="fill:#ffffff;stroke:#000000;stroke-width:1;stroke-linecap:butt;stroke-linejoin:miter;stroke-miterlimit:4;stroke-dasharray:none;stroke-opacity:1" />
    <path
       style="fill:#ffffff;stroke:#000000;stroke-width:1;stroke-linecap:butt;stroke-linejoin:miter;stroke-miterlimit:4;stroke-dasharray:none;stroke-opacity:1"
       d="m 128.80726,161.38866 c 20.18142,33.56293 34.51643,74.97586 40.04483,116.41088 0,0 -5.46229,-12.08326 -13.24191,-4.63467 -7.77962,7.44858 -6.49749,-3.34139 -13.0764,0.16554 -6.5789,3.50692 -11.42115,3.14494 -11.42115,3.14494 6.68024,-36.71951 3.6523,-72.78375 -8.25485,-113.8403"
       id="path870"
       inkscape:connector-curvature="0"
       sodipodi:nodetypes="cczzcc" />
    <path
       style="fill:#ffffff;stroke:#000000;stroke-width:1;stroke-linecap:butt;stroke-linejoin:miter;stroke-miterlimit:4;stroke-dasharray:none;stroke-opacity:1"
       d="m 163.39236,129.36326 -34.59897,32.00757 c -1.26228,0.60305 -3.97477,1.45404 -5.76362,1.16773 l 22.77774,-36.16995 c 0,0 25.04722,11.23614 15.68378,-2.92607 0,0 -18.02464,-27.036941 -57.35112,-26.100599 -39.326473,0.936342 -54.819854,25.632429 -54.819854,25.632429 -9.641222,14.63038 15.405999,3.39424 15.405999,3.39424 l 24.187081,35.9306 c -2.627059,0.84789 -4.198326,0.15773 -6.275843,-0.7952 L 47.575955,129.57016"
       id="path858"
       inkscape:connector-curvature="0"
       sodipodi:nodetypes="cccccsccccc" />
    <path
       style="fill:#ffffff;stroke:#000000;stroke-width:1;stroke-linecap:butt;stroke-linejoin:miter;stroke-miterlimit:4;stroke-dasharray:none;stroke-opacity:1"
       d="m 64.737548,88.109136 c 0,0 -4.469142,-9.76591 -6.289906,-9.76591 -1.820763,0 5.627812,45.022494 9.434861,32.111634"
       id="path3720"
       inkscape:connector-curvature="0" />
    <path
       inkscape:connector-curvature="0"
       id="path3722"
       d="m 142.90714,88.109136 c 0,0 4.46915,-9.76591 6.28991,-9.76591 1.82077,0 -3.80705,45.684594 -7.6141,32.773734"
       style="fill:#ffffff;stroke:#000000;stroke-width:1;stroke-linecap:butt;stroke-linejoin:miter;stroke-miterlimit:4;stroke-dasharray:none;stroke-opacity:1"
       sodipodi:nodetypes="csc" />
    <path
       style="fill:#ffffff;stroke:#000000;stroke-width:1;stroke-linecap:butt;stroke-linejoin:miter;stroke-miterlimit:4;stroke-dasharray:none;stroke-opacity:1"
       d="m 65.509062,58.964415 c 0,0 -9.831619,92.229945 41.667338,90.825425 51.49895,-1.40452 31.83571,-92.229944 31.83571,-92.229944 z"
       id="path3713"
       inkscape:connector-curvature="0" />
    <path
       style="fill:#ffffff;stroke:#000000;stroke-width:1;stroke-linecap:butt;stroke-linejoin:miter;stroke-miterlimit:4;stroke-dasharray:none;stroke-opacity:1"
       d="m 100.79325,39.111388 c -66.043944,1.986108 -27.64337,54.559308 3.47984,42.888499 -0.39661,-0.7246 -12.593455,-4.01135 -18.16174,-13.92831 12.67777,7.3097 30.5535,13.227909 31.36511,13.014202 -5.8249,-4.082943 -14.89942,-12.006703 -18.445182,-19.404756 19.436682,16.716704 37.620352,16.303192 41.859742,16.791404 -18.12265,-8.060699 -27.78407,-18.728675 -27.78407,-18.728675 15.01635,9.969308 35.08843,16.351697 35.38635,15.088816 -6.5662,-8.310123 -6.3979,-15.753153 -12.12574,-21.601193 -8.44133,-8.618469 -22.80229,-13.869763 -34.14245,-14.119348 -0.48338,-0.0053 -0.96058,-0.0052 -1.43186,-6.56e-4 z"
       id="path3715"
       inkscape:connector-curvature="0"
       sodipodi:nodetypes="ccccccccsccc" />
    <path
       style="fill:none;stroke:#000000;stroke-width:1;stroke-linecap:butt;stroke-linejoin:miter;stroke-miterlimit:4;stroke-dasharray:none;stroke-opacity:1"
       d="m 88.241943,118.89658 c 20.856007,7.44857 35.091067,-0.82762 35.091067,-0.82762 0,0 6.62096,23.00782 -15.39372,23.5044 -22.014678,0.49656 -19.697347,-22.67678 -19.697347,-22.67678 z"
       id="path3724"
       inkscape:connector-curvature="0" />
    <path
       style="fill:none;stroke:#000000;stroke-width:1;stroke-linecap:butt;stroke-linejoin:miter;stroke-miterlimit:4;stroke-dasharray:none;stroke-opacity:1"
       d="m 94.79247,120.78342 1.570963,10.3501 4.272677,-9.1723"
       id="path3726"
       inkscape:connector-curvature="0"
       sodipodi:nodetypes="ccc" />
    <path
       inkscape:connector-curvature="0"
       id="path3728"
       d="m 110.3659,121.8355 5.04992,9.17011 0.84083,-10.08365"
       style="fill:none;stroke:#000000;stroke-width:1;stroke-linecap:butt;stroke-linejoin:miter;stroke-miterlimit:4;stroke-dasharray:none;stroke-opacity:1"
       sodipodi:nodetypes="ccc" />
    <g
       id="g838"
       transform="matrix(1.2386291,0,0,1.2386291,-14.548402,1.957984)">
      <path
         inkscape:connector-curvature="0"
         id="path14"
         d="m 78.577241,69.954536 11.826676,6.815373"
         style="fill:none;stroke:#000000;stroke-width:1;stroke-linecap:butt;stroke-linejoin:miter;stroke-miterlimit:4;stroke-dasharray:none;stroke-opacity:1" />
      <path
         id="path18"
         transform="scale(0.26458333)"
         d="m 302.80078,268.32227 a 19.697975,19.697975 0 0 0 -9.85742,17.0332 19.697975,19.697975 0 0 0 19.69922,19.69922 19.697975,19.697975 0 0 0 19.69726,-19.69922 19.697975,19.697975 0 0 0 0,-0.01 z"
         style="fill:none;stroke:#000000;stroke-width:3.77952766;stroke-miterlimit:4;stroke-dasharray:none"
         inkscape:connector-curvature="0" />
      <path
         transform="rotate(-90)"
         d="m -74.611802,83.466209 a 1.8708867,1.8708867 0 0 1 -1.45741,1.824625 1.8708867,1.8708867 0 0 1 -2.101602,-1.01812 1.8708867,1.8708867 0 0 1 0.528478,-2.274644 1.8708867,1.8708867 0 0 1 2.335195,0.0127 l -1.175548,1.455439 z"
         sodipodi:end="5.3918028"
         sodipodi:start="0"
         sodipodi:ry="1.8708867"
         sodipodi:rx="1.8708867"
         sodipodi:cy="83.466209"
         sodipodi:cx="-76.482689"
         sodipodi:type="arc"
         id="path833"
         style="fill:none;stroke:#000000;stroke-width:0.40000001;stroke-miterlimit:4;stroke-dasharray:none" />
    </g>
    <g
       id="g846"
       transform="matrix(-1.2386291,0,0,1.2386291,224.82891,1.957984)">
      <path
         style="fill:none;stroke:#000000;stroke-width:1;stroke-linecap:butt;stroke-linejoin:miter;stroke-miterlimit:4;stroke-dasharray:none;stroke-opacity:1"
         d="m 78.577241,69.954536 11.826676,6.815373"
         id="path840"
         inkscape:connector-curvature="0" />
      <path
         style="fill:none;stroke:#000000;stroke-width:3.77952766;stroke-miterlimit:4;stroke-dasharray:none"
         d="m 302.80078,268.32227 a 19.697975,19.697975 0 0 0 -9.85742,17.0332 19.697975,19.697975 0 0 0 19.69922,19.69922 19.697975,19.697975 0 0 0 19.69726,-19.69922 19.697975,19.697975 0 0 0 0,-0.01 z"
         transform="scale(0.26458333)"
         id="path842"
         inkscape:connector-curvature="0" />
      <path
         style="fill:none;stroke:#000000;stroke-width:0.5;stroke-miterlimit:4;stroke-dasharray:none"
         id="path844"
         sodipodi:type="arc"
         sodipodi:cx="-76.482689"
         sodipodi:cy="-83.467377"
         sodipodi:rx="1.8708867"
         sodipodi:ry="1.8708867"
         sodipodi:start="0"
         sodipodi:end="5.3918028"
         d="m -74.611802,-83.467377 a 1.8708867,1.8708867 0 0 1 -1.45741,1.824625 1.8708867,1.8708867 0 0 1 -2.101602,-1.01812 1.8708867,1.8708867 0 0 1 0.528478,-2.274644 1.8708867,1.8708867 0 0 1 2.335195,0.0127 l -1.175548,1.455439 z"
         transform="matrix(0,-1,-1,0,0,0)" />
    </g>
    <path
       style="fill:none;stroke:#000000;stroke-width:1;stroke-linecap:butt;stroke-linejoin:miter;stroke-miterlimit:4;stroke-dasharray:none;stroke-opacity:1"
       d="m 104.83553,102.62148 7.25668,8.62533 -6.67146,2.14263"
       id="path848"
       inkscape:connector-curvature="0"
       sodipodi:nodetypes="ccc" />
    <path
       inkscape:connector-curvature="0"
       id="path850"
       d="m 114.86405,140.18462 -3.32705,-5.35938 -0.189,6.09427"
       style="fill:none;stroke:#000000;stroke-width:1;stroke-linecap:butt;stroke-linejoin:miter;stroke-miterlimit:4;stroke-dasharray:none;stroke-opacity:1"
       sodipodi:nodetypes="ccc" />
    <path
       style="fill:none;stroke:#000000;stroke-width:1;stroke-linecap:butt;stroke-linejoin:miter;stroke-miterlimit:4;stroke-dasharray:none;stroke-opacity:1"
       d="m 101.6646,140.7802 -0.49411,-6.28872 -2.917098,5.12834"
       id="path852"
       inkscape:connector-curvature="0"
       sodipodi:nodetypes="ccc" />
    <path
       style="fill:none;stroke:#000000;stroke-width:1;stroke-linecap:butt;stroke-linejoin:miter;stroke-miterlimit:4;stroke-dasharray:none;stroke-opacity:1"
       d="m 63.168203,89.278572 c 0,0 -1.827697,-5.960378 -2.92843,-5.32311 -0.695201,1.795935 2.518778,14.803598 2.518778,14.803598"
       id="path864"
       inkscape:connector-curvature="0"
       sodipodi:nodetypes="ccc" />
    <path
       style="fill:#ffffff;stroke:#000000;stroke-width:1;stroke-linecap:butt;stroke-linejoin:miter;stroke-miterlimit:4;stroke-dasharray:none;stroke-opacity:1"
       d="m 97.988673,241.96639 c -1.318982,10.24979 -0.866944,20.49957 0.0405,30.74936 h -3.241396 c -1.098605,-10.39822 -1.388753,-20.79644 0,-31.19466 z"
       id="path886"
       inkscape:connector-curvature="0"
       sodipodi:nodetypes="ccccc" />
    <path
       inkscape:connector-curvature="0"
       id="path888"
       d="m 115.6904,241.71809 c 1.65416,10.33255 1.10514,20.66511 0.0405,30.99766 h -3.2414 c 1.15639,-10.50335 1.57395,-20.93953 0,-31.19466 z"
       style="fill:#ffffff;stroke:#000000;stroke-width:1;stroke-linecap:butt;stroke-linejoin:miter;stroke-miterlimit:4;stroke-dasharray:none;stroke-opacity:1"
       sodipodi:nodetypes="ccccc" />
    <path
       style="fill:#ffffff;stroke:#000000;stroke-width:1;stroke-linecap:butt;stroke-linejoin:miter;stroke-miterlimit:4;stroke-dasharray:none;stroke-opacity:1"
       d="m 89.854024,216.73848 c -3.184273,9.88304 -2.958192,18.70035 -2.691992,27.50512 5.860316,-1.07588 11.161031,-1.14448 15.917858,-0.23408 0.0501,-4.56468 0.51933,-9.12936 2.10677,-13.69405 2.17931,4.56469 2.30963,9.12937 2.80904,13.69405 4.91581,-0.82641 9.83162,-2.3416 14.74743,-0.23409 -0.0416,-8.71769 0.10578,-17.22281 -1.63861,-27.85625 -10.67279,2.8327 -21.01649,2.37446 -31.250496,0.8193 z"
       id="path884"
       inkscape:connector-curvature="0"
       sodipodi:nodetypes="cccccccc" />
    <path
       style="fill:none;stroke:#000000;stroke-width:0.32772061px;stroke-linecap:butt;stroke-linejoin:miter;stroke-opacity:1"
       d="m 95.062442,228.09165 c -7.210831,-4.09218 -3.000559,-9.14921 -0.234087,-5.79363 2.999128,-3.62348 6.476345,1.46829 0.234087,5.79363 z"
       id="path890"
       inkscape:connector-curvature="0"
       sodipodi:nodetypes="ccc" />
    <path
       sodipodi:nodetypes="ccc"
       inkscape:connector-curvature="0"
       id="path892"
       d="m 116.77393,240.38117 c -7.21083,-4.09219 -3.00056,-9.14921 -0.23409,-5.79363 2.99913,-3.62348 6.47635,1.46829 0.23409,5.79363 z"
       style="fill:none;stroke:#000000;stroke-width:0.32772061px;stroke-linecap:butt;stroke-linejoin:miter;stroke-opacity:1" />
    <path
       style="fill:none;stroke:#000000;stroke-width:0.32772061px;stroke-linecap:butt;stroke-linejoin:miter;stroke-opacity:1"
       d="m 118.55692,227.51735 c -8.27184,-0.56435 -6.66798,-6.94616 -2.72089,-5.12031 1.1333,-4.56509 6.47313,-1.48234 2.72089,5.12031 z"
       id="path894"
       inkscape:connector-curvature="0"
       sodipodi:nodetypes="ccc" />
    <path
       sodipodi:nodetypes="ccc"
       inkscape:connector-curvature="0"
       id="path896"
       d="m 102.51978,226.78117 c -2.20522,-7.99244 4.34775,-8.59118 3.93118,-4.26224 4.6829,-0.44149 3.54124,5.61771 -3.93118,4.26224 z"
       style="fill:none;stroke:#000000;stroke-width:0.32772061px;stroke-linecap:butt;stroke-linejoin:miter;stroke-opacity:1" />
    <path
       style="fill:none;stroke:#000000;stroke-width:0.32772061px;stroke-linecap:butt;stroke-linejoin:miter;stroke-opacity:1"
       d="m 98.193533,238.95387 c -7.992444,2.20521 -8.591185,-4.34776 -4.262238,-3.9312 -0.441497,-4.68288 5.617708,-3.54123 4.262238,3.9312 z"
       id="path898"
       inkscape:connector-curvature="0"
       sodipodi:nodetypes="ccc" />
    <path
       sodipodi:nodetypes="ccc"
       inkscape:connector-curvature="0"
       id="path908"
       d="m 144.4979,89.278572 c 0,0 1.8277,-5.960378 2.92843,-5.32311 0.69521,1.795935 -2.51877,14.803598 -2.51877,14.803598"
       style="fill:none;stroke:#000000;stroke-width:1;stroke-linecap:butt;stroke-linejoin:miter;stroke-miterlimit:4;stroke-dasharray:none;stroke-opacity:1" />
    <path
       style="fill:none;stroke:#000000;stroke-width:1;stroke-linecap:round;stroke-linejoin:miter;stroke-miterlimit:4;stroke-dasharray:none;stroke-opacity:1"
       d="M 98.187493,87.663373 82.784621,84.058447"
       id="path910"
       inkscape:connector-curvature="0" />
    <path
       inkscape:connector-curvature="0"
       id="path912"
       d="m 112.6072,87.663373 15.40288,-3.604926"
       style="fill:none;stroke:#000000;stroke-width:1;stroke-linecap:round;stroke-linejoin:miter;stroke-miterlimit:4;stroke-dasharray:none;stroke-opacity:1" />
    <circle
       style="opacity:1;fill:#000000;fill-opacity:1;stroke:none;stroke-width:1;stroke-linecap:round;stroke-miterlimit:4;stroke-dasharray:none;stroke-dashoffset:0;stroke-opacity:1"
       id="path865"
       cx="105.37769"
       cy="209.64848"
       r="1.2628485" />
    <path
       style="fill:#ffffff;stroke:#000000;stroke-width:1;stroke-linecap:butt;stroke-linejoin:miter;stroke-miterlimit:4;stroke-dasharray:none;stroke-opacity:1"
       d="m 110.242,270.03445 c 5.13711,3.80368 7.42734,-0.33797 7.43677,-0.18709 l -0.46772,7.39 c 0,0 4.54271,3.30528 7.81519,4.63427 4.22582,1.71615 -0.66983,3.72649 -3.27829,3.8315 -8.69962,-0.0468 -11.41241,-7.10938 -11.41241,-7.10938 z"
       id="path871"
       inkscape:connector-curvature="0"
       sodipodi:nodetypes="cccsccc" />
    <path
       style="fill:none;stroke:#000000;stroke-width:1;stroke-linecap:butt;stroke-linejoin:miter;stroke-miterlimit:4;stroke-dasharray:none;stroke-opacity:1"
       d="m 110.14845,278.78084 -0.0468,2.38538 c 0,0 3.32083,5.61266 8.04481,5.94006 4.72399,0.32742 8.39961,-0.98319 8.5867,-3.50888"
       id="path875"
       inkscape:connector-curvature="0"
       sodipodi:nodetypes="cccc" />
    <path
       style="fill:none;stroke:#000000;stroke-width:0.5;stroke-linecap:butt;stroke-linejoin:miter;stroke-miterlimit:4;stroke-dasharray:none;stroke-opacity:1"
       d="m 63.048882,274.61812 c -1.122534,-13.65748 5.42557,-45.369 5.42557,-45.369"
       id="path877"
       inkscape:connector-curvature="0" />
    <path
       inkscape:connector-curvature="0"
       id="path879"
       d="m 147.81786,273.69322 c 1.12253,-13.65748 -5.42557,-45.369 -5.42557,-45.369"
       style="fill:none;stroke:#000000;stroke-width:0.5;stroke-linecap:butt;stroke-linejoin:miter;stroke-miterlimit:4;stroke-dasharray:none;stroke-opacity:1" />
    <path
       sodipodi:nodetypes="cccsccc"
       inkscape:connector-curvature="0"
       id="path883"
       d="m 99.647981,270.03445 c -5.137108,3.80368 -7.427338,-0.33797 -7.436768,-0.18709 l 0.46772,7.39 c 0,0 -4.54271,3.30528 -7.815189,4.63427 -4.22582,1.71615 0.66983,3.72649 3.278289,3.8315 8.699618,-0.0468 11.412408,-7.10938 11.412408,-7.10938 z"
       style="fill:#ffffff;stroke:#000000;stroke-width:1;stroke-linecap:butt;stroke-linejoin:miter;stroke-miterlimit:4;stroke-dasharray:none;stroke-opacity:1" />
    <path
       sodipodi:nodetypes="cccc"
       inkscape:connector-curvature="0"
       id="path885"
       d="m 99.741531,278.78084 0.0468,2.38538 c 0,0 -3.32083,5.61266 -8.044808,5.94006 -4.723989,0.32742 -8.399609,-0.98319 -8.586699,-3.50888"
       style="fill:none;stroke:#000000;stroke-width:1;stroke-linecap:butt;stroke-linejoin:miter;stroke-miterlimit:4;stroke-dasharray:none;stroke-opacity:1" />
    <ellipse
       style="opacity:1;fill:#ffffff;fill-opacity:1;stroke:#000000;stroke-width:1;stroke-linecap:round;stroke-miterlimit:4;stroke-dasharray:none;stroke-dashoffset:0;stroke-opacity:1"
       id="path893"
       cx="92.511513"
       cy="65.667488"
       rx="49.92382"
       ry="10.622089"
       transform="rotate(-8.8758645)" />
    <path
       style="opacity:1;fill:#ffffff;fill-opacity:1;stroke:#000000;stroke-width:1;stroke-linecap:round;stroke-miterlimit:4;stroke-dasharray:none;stroke-dashoffset:0;stroke-opacity:1"
       d="m 65.323334,15.232065 c 2.590381,10.360203 60.344136,-5.25e-4 58.424826,-8.4734019 0,0 4.57489,25.6401739 5.36864,37.0172569 2.13788,10.316755 -57.094091,17.63938 -58.424822,8.473401 z"
       id="rect889"
       inkscape:connector-curvature="0"
       sodipodi:nodetypes="ccccc" />
    <path
       style="fill:none;stroke:#000000;stroke-width:0.99116349;stroke-linecap:butt;stroke-linejoin:miter;stroke-miterlimit:4;stroke-dasharray:none;stroke-opacity:1"
       d="M 65.415569,15.41143 C 64.119215,5.8108233 122.6592,0.47950242 123.76516,6.9510963"
       id="path895"
       inkscape:connector-curvature="0"
       sodipodi:nodetypes="cc" />
    <path
       style="fill:none;stroke:#000000;stroke-width:0.17033637px;stroke-linecap:butt;stroke-linejoin:miter;stroke-opacity:1"
       d="m 96.796695,138.81773 c 1.372362,-3.00975 9.229755,-3.71423 11.340795,-0.12445"
       id="path897"
       inkscape:connector-curvature="0"
       sodipodi:nodetypes="cc" />
    <path
       sodipodi:nodetypes="cc"
       inkscape:connector-curvature="0"
       id="path899"
       d="m 106.43957,137.15515 c 1.54487,-1.36954 8.57429,-2.30398 11.0444,2.21509"
       style="fill:none;stroke:#000000;stroke-width:0.16583307px;stroke-linecap:butt;stroke-linejoin:miter;stroke-opacity:1" />
  </g>
</svg>
