<?xml version="1.0" encoding="UTF-8" standalone="no"?>
<!-- Created with Inkscape (http://www.inkscape.org/) -->

<svg
   xmlns:dc="http://purl.org/dc/elements/1.1/"
   xmlns:cc="http://creativecommons.org/ns#"
   xmlns:rdf="http://www.w3.org/1999/02/22-rdf-syntax-ns#"
   xmlns:svg="http://www.w3.org/2000/svg"
   xmlns="http://www.w3.org/2000/svg"
   xmlns:xlink="http://www.w3.org/1999/xlink"
   xmlns:sodipodi="http://sodipodi.sourceforge.net/DTD/sodipodi-0.dtd"
   xmlns:inkscape="http://www.inkscape.org/namespaces/inkscape"
   width="744.09448819"
   height="1052.3622047"
   id="svg5380"
   version="1.1"
   inkscape:version="0.48.2 r9819"
   sodipodi:docname="velvet.svg">
  <defs
     id="defs5382">
    <filter
       inkscape:collect="always"
       id="filter5928"
       x="-0.11854597"
       width="1.2370919"
       y="-0.093186912"
       height="1.1863738">
      <feGaussianBlur
         inkscape:collect="always"
         stdDeviation="15.218168"
         id="feGaussianBlur5930" />
    </filter>
    <filter
       inkscape:collect="always"
       id="filter5938">
      <feGaussianBlur
         inkscape:collect="always"
         stdDeviation="7.6090839"
         id="feGaussianBlur5940" />
    </filter>
    <filter
       inkscape:collect="always"
       id="filter5952">
      <feGaussianBlur
         inkscape:collect="always"
         stdDeviation="5.3571025"
         id="feGaussianBlur5954" />
    </filter>
    <filter
       inkscape:collect="always"
       id="filter6019"
       x="-0.14675372"
       width="1.2935074"
       y="-0.18013299"
       height="1.360266">
      <feGaussianBlur
         inkscape:collect="always"
         stdDeviation="27.341615"
         id="feGaussianBlur6021" />
    </filter>
    <filter
       inkscape:collect="always"
       id="filter6037"
       x="-0.20200796"
       width="1.4040159"
       y="-0.39456023"
       height="1.7891205">
      <feGaussianBlur
         inkscape:collect="always"
         stdDeviation="55.191461"
         id="feGaussianBlur6039" />
    </filter>
    <linearGradient
       inkscape:collect="always"
       xlink:href="#linearGradient6588"
       id="linearGradient6728"
       gradientUnits="userSpaceOnUse"
       x1="230.44812"
       y1="602.39667"
       x2="421.23361"
       y2="550.87885" />
    <linearGradient
       inkscape:collect="always"
       id="linearGradient6588">
      <stop
         style="stop-color:#808000;stop-opacity:1;"
         offset="0"
         id="stop6590" />
      <stop
         style="stop-color:#808000;stop-opacity:0;"
         offset="1"
         id="stop6592" />
    </linearGradient>
    <linearGradient
       inkscape:collect="always"
       xlink:href="#linearGradient6652"
       id="linearGradient6730"
       gradientUnits="userSpaceOnUse"
       x1="351.77481"
       y1="576.16833"
       x2="300.52039"
       y2="590.81561" />
    <linearGradient
       inkscape:collect="always"
       id="linearGradient6652">
      <stop
         style="stop-color:#8d8d1d;stop-opacity:1;"
         offset="0"
         id="stop6654" />
      <stop
         style="stop-color:#8d8d1d;stop-opacity:0;"
         offset="1"
         id="stop6656" />
    </linearGradient>
    <linearGradient
       inkscape:collect="always"
       xlink:href="#linearGradient6664"
       id="linearGradient6732"
       gradientUnits="userSpaceOnUse"
       x1="-12.12183"
       y1="766.48901"
       x2="178.67574"
       y2="646.32288" />
    <linearGradient
       id="linearGradient6664">
      <stop
         style="stop-color:#808000;stop-opacity:1;"
         offset="0"
         id="stop6666" />
      <stop
         style="stop-color:#ffffff;stop-opacity:1;"
         offset="1"
         id="stop6668" />
    </linearGradient>
    <linearGradient
       inkscape:collect="always"
       xlink:href="#linearGradient6617"
       id="linearGradient6734"
       gradientUnits="userSpaceOnUse"
       x1="211.31351"
       y1="345.23721"
       x2="203.3033"
       y2="676.45941" />
    <linearGradient
       id="linearGradient6617">
      <stop
         style="stop-color:#8c8c00;stop-opacity:1;"
         offset="0"
         id="stop6619" />
      <stop
         style="stop-color:#8b8d05;stop-opacity:0;"
         offset="1"
         id="stop6621" />
    </linearGradient>
    <linearGradient
       inkscape:collect="always"
       xlink:href="#linearGradient6709"
       id="linearGradient6736"
       gradientUnits="userSpaceOnUse"
       x1="11.946424"
       y1="833.16742"
       x2="-17.55357"
       y2="751.73883" />
    <linearGradient
       id="linearGradient6709">
      <stop
         style="stop-color:#000000;stop-opacity:0.4732143;"
         offset="0"
         id="stop6711" />
      <stop
         style="stop-color:#000000;stop-opacity:0"
         offset="1"
         id="stop6713" />
    </linearGradient>
    <linearGradient
       y2="751.73883"
       x2="-17.55357"
       y1="833.16742"
       x1="11.946424"
       gradientUnits="userSpaceOnUse"
       id="linearGradient6778"
       xlink:href="#linearGradient6709"
       inkscape:collect="always" />
    <filter
       inkscape:collect="always"
       id="filter6872">
      <feGaussianBlur
         inkscape:collect="always"
         stdDeviation="0.56602853"
         id="feGaussianBlur6874" />
    </filter>
    <linearGradient
       inkscape:collect="always"
       xlink:href="#linearGradient6588-1"
       id="linearGradient6892"
       gradientUnits="userSpaceOnUse"
       x1="230.44812"
       y1="602.39667"
       x2="421.23361"
       y2="550.87885"
       gradientTransform="translate(91.428571,-62.857143)" />
    <linearGradient
       inkscape:collect="always"
       id="linearGradient6588-1">
      <stop
         style="stop-color:#808000;stop-opacity:1;"
         offset="0"
         id="stop6590-4" />
      <stop
         style="stop-color:#808000;stop-opacity:0;"
         offset="1"
         id="stop6592-4" />
    </linearGradient>
    <linearGradient
       inkscape:collect="always"
       xlink:href="#linearGradient6652-6"
       id="linearGradient6889"
       gradientUnits="userSpaceOnUse"
       x1="351.77481"
       y1="576.16833"
       x2="300.52039"
       y2="590.81561"
       gradientTransform="translate(91.428571,-62.857143)" />
    <linearGradient
       inkscape:collect="always"
       id="linearGradient6652-6">
      <stop
         style="stop-color:#8d8d1d;stop-opacity:1;"
         offset="0"
         id="stop6654-2" />
      <stop
         style="stop-color:#8d8d1d;stop-opacity:0;"
         offset="1"
         id="stop6656-6" />
    </linearGradient>
    <linearGradient
       inkscape:collect="always"
       xlink:href="#linearGradient6664-8"
       id="linearGradient6884"
       gradientUnits="userSpaceOnUse"
       x1="-12.12183"
       y1="766.48901"
       x2="178.67574"
       y2="646.32288"
       gradientTransform="translate(91.428571,-62.857143)" />
    <linearGradient
       id="linearGradient6664-8">
      <stop
         style="stop-color:#808000;stop-opacity:1;"
         offset="0"
         id="stop6666-2" />
      <stop
         style="stop-color:#ffffff;stop-opacity:1;"
         offset="1"
         id="stop6668-5" />
    </linearGradient>
    <linearGradient
       inkscape:collect="always"
       xlink:href="#linearGradient6709-5"
       id="linearGradient6877"
       gradientUnits="userSpaceOnUse"
       x1="11.946424"
       y1="833.16742"
       x2="-17.55357"
       y2="751.73883"
       gradientTransform="translate(91.428571,-62.857143)" />
    <linearGradient
       id="linearGradient6709-5">
      <stop
         style="stop-color:#000000;stop-opacity:0.4732143;"
         offset="0"
         id="stop6711-1" />
      <stop
         style="stop-color:#000000;stop-opacity:0"
         offset="1"
         id="stop6713-0" />
    </linearGradient>
    <filter
       color-interpolation-filters="sRGB"
       inkscape:collect="always"
       id="filter6929">
      <feGaussianBlur
         inkscape:collect="always"
         stdDeviation="5.8420362"
         id="feGaussianBlur6931" />
    </filter>
    <linearGradient
       y2="751.73883"
       x2="-17.55357"
       y1="833.16742"
       x1="11.946424"
       gradientTransform="translate(91.42857,-62.857137)"
       gradientUnits="userSpaceOnUse"
       id="linearGradient6951"
       xlink:href="#linearGradient6709-3"
       inkscape:collect="always" />
    <linearGradient
       id="linearGradient6709-3">
      <stop
         style="stop-color:#000000;stop-opacity:0.4732143;"
         offset="0"
         id="stop6711-5" />
      <stop
         style="stop-color:#000000;stop-opacity:0"
         offset="1"
         id="stop6713-6" />
    </linearGradient>
    <filter
       color-interpolation-filters="sRGB"
       inkscape:collect="always"
       id="filter7016">
      <feGaussianBlur
         inkscape:collect="always"
         stdDeviation="6.5922044"
         id="feGaussianBlur7018" />
    </filter>
    <linearGradient
       inkscape:collect="always"
       xlink:href="#linearGradient7028"
       id="linearGradient7034"
       x1="322.97583"
       y1="631.1698"
       x2="321.55331"
       y2="596.72296"
       gradientUnits="userSpaceOnUse"
       gradientTransform="matrix(1,0,0,1.0178413,0,-9.3999167)" />
    <linearGradient
       inkscape:collect="always"
       id="linearGradient7028">
      <stop
         style="stop-color:#000000;stop-opacity:1;"
         offset="0"
         id="stop7030" />
      <stop
         style="stop-color:#000000;stop-opacity:0;"
         offset="1"
         id="stop7032" />
    </linearGradient>
    <filter
       color-interpolation-filters="sRGB"
       inkscape:collect="always"
       id="filter7064">
      <feGaussianBlur
         inkscape:collect="always"
         stdDeviation="3.1555896"
         id="feGaussianBlur7066" />
    </filter>
    <linearGradient
       inkscape:collect="always"
       xlink:href="#linearGradient6617-1"
       id="linearGradient6881"
       gradientUnits="userSpaceOnUse"
       x1="211.31351"
       y1="345.23721"
       x2="203.3033"
       y2="676.45941"
       gradientTransform="translate(91.428571,-62.857143)" />
    <linearGradient
       id="linearGradient6617-1">
      <stop
         style="stop-color:#8c8c00;stop-opacity:1;"
         offset="0"
         id="stop6619-5" />
      <stop
         style="stop-color:#8b8d05;stop-opacity:0;"
         offset="1"
         id="stop6621-1" />
    </linearGradient>
    <linearGradient
       y2="676.45941"
       x2="203.3033"
       y1="345.23721"
       x1="211.31351"
       gradientTransform="translate(91.428571,-62.857143)"
       gradientUnits="userSpaceOnUse"
       id="linearGradient7141"
       xlink:href="#linearGradient6617-1"
       inkscape:collect="always" />
    <linearGradient
       inkscape:collect="always"
       xlink:href="#linearGradient6588-1"
       id="linearGradient7274"
       gradientUnits="userSpaceOnUse"
       gradientTransform="translate(91.428571,-62.857143)"
       x1="230.44812"
       y1="602.39667"
       x2="421.23361"
       y2="550.87885" />
    <linearGradient
       inkscape:collect="always"
       xlink:href="#linearGradient6652-6"
       id="linearGradient7276"
       gradientUnits="userSpaceOnUse"
       gradientTransform="translate(91.428571,-62.857143)"
       x1="351.77481"
       y1="576.16833"
       x2="300.52039"
       y2="590.81561" />
    <linearGradient
       inkscape:collect="always"
       xlink:href="#linearGradient6664-8"
       id="linearGradient7278"
       gradientUnits="userSpaceOnUse"
       gradientTransform="translate(91.428571,-62.857143)"
       x1="-12.12183"
       y1="766.48901"
       x2="178.67574"
       y2="646.32288" />
    <linearGradient
       inkscape:collect="always"
       xlink:href="#linearGradient6709-5"
       id="linearGradient7280"
       gradientUnits="userSpaceOnUse"
       gradientTransform="translate(91.428571,-62.857143)"
       x1="11.946424"
       y1="833.16742"
       x2="-17.55357"
       y2="751.73883" />
    <linearGradient
       inkscape:collect="always"
       xlink:href="#linearGradient6709-3"
       id="linearGradient7282"
       gradientUnits="userSpaceOnUse"
       gradientTransform="translate(91.42857,-62.857137)"
       x1="11.946424"
       y1="833.16742"
       x2="-17.55357"
       y2="751.73883" />
    <linearGradient
       inkscape:collect="always"
       xlink:href="#linearGradient7028"
       id="linearGradient7284"
       gradientUnits="userSpaceOnUse"
       gradientTransform="matrix(1,0,0,1.0178413,0,-9.3999167)"
       x1="322.97583"
       y1="631.1698"
       x2="321.55331"
       y2="596.72296" />
    <linearGradient
       inkscape:collect="always"
       xlink:href="#linearGradient6617-1"
       id="linearGradient7286"
       gradientUnits="userSpaceOnUse"
       gradientTransform="translate(91.428571,-62.857143)"
       x1="211.31351"
       y1="345.23721"
       x2="203.3033"
       y2="676.45941" />
    <linearGradient
       inkscape:collect="always"
       xlink:href="#linearGradient6588-1"
       id="linearGradient7316"
       gradientUnits="userSpaceOnUse"
       gradientTransform="translate(91.428571,-62.857143)"
       x1="230.44812"
       y1="602.39667"
       x2="421.23361"
       y2="550.87885" />
    <linearGradient
       inkscape:collect="always"
       xlink:href="#linearGradient6652-6"
       id="linearGradient7318"
       gradientUnits="userSpaceOnUse"
       gradientTransform="translate(91.428571,-62.857143)"
       x1="351.77481"
       y1="576.16833"
       x2="300.52039"
       y2="590.81561" />
    <linearGradient
       inkscape:collect="always"
       xlink:href="#linearGradient6664-8"
       id="linearGradient7320"
       gradientUnits="userSpaceOnUse"
       gradientTransform="translate(91.428571,-62.857143)"
       x1="-12.12183"
       y1="766.48901"
       x2="178.67574"
       y2="646.32288" />
    <linearGradient
       inkscape:collect="always"
       xlink:href="#linearGradient6709-5"
       id="linearGradient7322"
       gradientUnits="userSpaceOnUse"
       gradientTransform="translate(91.428571,-62.857143)"
       x1="11.946424"
       y1="833.16742"
       x2="-17.55357"
       y2="751.73883" />
    <linearGradient
       inkscape:collect="always"
       xlink:href="#linearGradient6709-3"
       id="linearGradient7324"
       gradientUnits="userSpaceOnUse"
       gradientTransform="translate(91.42857,-62.857137)"
       x1="11.946424"
       y1="833.16742"
       x2="-17.55357"
       y2="751.73883" />
    <linearGradient
       inkscape:collect="always"
       xlink:href="#linearGradient7028"
       id="linearGradient7326"
       gradientUnits="userSpaceOnUse"
       gradientTransform="matrix(1,0,0,1.0178413,0,-9.3999167)"
       x1="322.97583"
       y1="631.1698"
       x2="321.55331"
       y2="596.72296" />
    <linearGradient
       inkscape:collect="always"
       xlink:href="#linearGradient6617-1"
       id="linearGradient7328"
       gradientUnits="userSpaceOnUse"
       gradientTransform="translate(91.428571,-62.857143)"
       x1="211.31351"
       y1="345.23721"
       x2="203.3033"
       y2="676.45941" />
    <linearGradient
       inkscape:collect="always"
       xlink:href="#linearGradient6588-1"
       id="linearGradient7358"
       gradientUnits="userSpaceOnUse"
       gradientTransform="translate(91.428571,-62.857143)"
       x1="230.44812"
       y1="602.39667"
       x2="421.23361"
       y2="550.87885" />
    <linearGradient
       inkscape:collect="always"
       xlink:href="#linearGradient6652-6"
       id="linearGradient7360"
       gradientUnits="userSpaceOnUse"
       gradientTransform="translate(91.428571,-62.857143)"
       x1="351.77481"
       y1="576.16833"
       x2="300.52039"
       y2="590.81561" />
    <linearGradient
       inkscape:collect="always"
       xlink:href="#linearGradient6664-8"
       id="linearGradient7362"
       gradientUnits="userSpaceOnUse"
       gradientTransform="translate(91.428571,-62.857143)"
       x1="-12.12183"
       y1="766.48901"
       x2="178.67574"
       y2="646.32288" />
    <linearGradient
       inkscape:collect="always"
       xlink:href="#linearGradient6709-5"
       id="linearGradient7364"
       gradientUnits="userSpaceOnUse"
       gradientTransform="translate(91.428571,-62.857143)"
       x1="11.946424"
       y1="833.16742"
       x2="-17.55357"
       y2="751.73883" />
    <linearGradient
       inkscape:collect="always"
       xlink:href="#linearGradient6709-3"
       id="linearGradient7366"
       gradientUnits="userSpaceOnUse"
       gradientTransform="translate(91.42857,-62.857137)"
       x1="11.946424"
       y1="833.16742"
       x2="-17.55357"
       y2="751.73883" />
    <linearGradient
       inkscape:collect="always"
       xlink:href="#linearGradient7028"
       id="linearGradient7368"
       gradientUnits="userSpaceOnUse"
       gradientTransform="matrix(1,0,0,1.0178413,0,-9.3999167)"
       x1="322.97583"
       y1="631.1698"
       x2="321.55331"
       y2="596.72296" />
    <linearGradient
       inkscape:collect="always"
       xlink:href="#linearGradient6617-1"
       id="linearGradient7370"
       gradientUnits="userSpaceOnUse"
       gradientTransform="translate(91.428571,-62.857143)"
       x1="211.31351"
       y1="345.23721"
       x2="203.3033"
       y2="676.45941" />
    <linearGradient
       inkscape:collect="always"
       xlink:href="#linearGradient6588-1"
       id="linearGradient7400"
       gradientUnits="userSpaceOnUse"
       gradientTransform="translate(91.428571,-62.857143)"
       x1="230.44812"
       y1="602.39667"
       x2="421.23361"
       y2="550.87885" />
    <linearGradient
       inkscape:collect="always"
       xlink:href="#linearGradient6652-6"
       id="linearGradient7402"
       gradientUnits="userSpaceOnUse"
       gradientTransform="translate(91.428571,-62.857143)"
       x1="351.77481"
       y1="576.16833"
       x2="300.52039"
       y2="590.81561" />
    <linearGradient
       inkscape:collect="always"
       xlink:href="#linearGradient6664-8"
       id="linearGradient7404"
       gradientUnits="userSpaceOnUse"
       gradientTransform="translate(91.428571,-62.857143)"
       x1="-12.12183"
       y1="766.48901"
       x2="178.67574"
       y2="646.32288" />
    <linearGradient
       inkscape:collect="always"
       xlink:href="#linearGradient6709-5"
       id="linearGradient7406"
       gradientUnits="userSpaceOnUse"
       gradientTransform="translate(91.428571,-62.857143)"
       x1="11.946424"
       y1="833.16742"
       x2="-17.55357"
       y2="751.73883" />
    <linearGradient
       inkscape:collect="always"
       xlink:href="#linearGradient6709-3"
       id="linearGradient7408"
       gradientUnits="userSpaceOnUse"
       gradientTransform="translate(91.42857,-62.857137)"
       x1="11.946424"
       y1="833.16742"
       x2="-17.55357"
       y2="751.73883" />
    <linearGradient
       inkscape:collect="always"
       xlink:href="#linearGradient7028"
       id="linearGradient7410"
       gradientUnits="userSpaceOnUse"
       gradientTransform="matrix(1,0,0,1.0178413,0,-9.3999167)"
       x1="322.97583"
       y1="631.1698"
       x2="321.55331"
       y2="596.72296" />
    <linearGradient
       inkscape:collect="always"
       xlink:href="#linearGradient6617-1"
       id="linearGradient7412"
       gradientUnits="userSpaceOnUse"
       gradientTransform="translate(91.428571,-62.857143)"
       x1="211.31351"
       y1="345.23721"
       x2="203.3033"
       y2="676.45941" />
  </defs>
  <sodipodi:namedview
     id="base"
     pagecolor="#ffffff"
     bordercolor="#666666"
     borderopacity="1.0"
     inkscape:pageopacity="0.0"
     inkscape:pageshadow="2"
     inkscape:zoom="0.49497475"
     inkscape:cx="525.88485"
     inkscape:cy="870.82769"
     inkscape:document-units="px"
     inkscape:current-layer="layer5"
     showgrid="false"
     inkscape:window-width="1280"
     inkscape:window-height="962"
     inkscape:window-x="-8"
     inkscape:window-y="-8"
     inkscape:window-maximized="1" />
  <metadata
     id="metadata5385">
    <rdf:RDF>
      <cc:Work
         rdf:about="">
        <dc:format>image/svg+xml</dc:format>
        <dc:type
           rdf:resource="http://purl.org/dc/dcmitype/StillImage" />
        <dc:title></dc:title>
      </cc:Work>
    </rdf:RDF>
  </metadata>
  <g
     inkscape:label="Layer 1"
     inkscape:groupmode="layer"
     id="layer1"
     sodipodi:insensitive="true">
    <rect
       style="fill:#800000;fill-opacity:1;fill-rule:nonzero;stroke:none"
       id="rect5388"
       width="721.2489"
       height="494.97476"
       x="16.162441"
       y="9.8847561" />
    <g
       id="g5976"
       transform="matrix(1.1702791,0,0,1.1683089,-70.378128,11.221158)">
      <path
         sodipodi:nodetypes="cccc"
         inkscape:connector-curvature="0"
         id="path5390"
         d="m 328.29958,-11.328448 48.48732,2.0203055 C 218.07202,83.144446 152.03439,145.49186 68.690373,380.61074 107.516,239.48151 156.39512,13.246206 328.29958,-11.328448 z"
         style="fill:#550000;stroke:none;filter:url(#filter5928)" />
      <path
         style="opacity:0.46902651;fill:#ff8080;stroke:none;filter:url(#filter5938)"
         d="m 353.74773,-48.408226 0,6.060916 C 195.03285,50.105278 128.99522,112.45269 45.651205,347.57157 84.476832,206.44234 181.84327,-23.833572 353.74773,-48.408226 z"
         id="path5932"
         inkscape:connector-curvature="0"
         sodipodi:nodetypes="cccc" />
      <path
         sodipodi:nodetypes="cccc"
         inkscape:connector-curvature="0"
         id="path5942"
         d="m 355.89059,-32.69394 0,6.060916 C 197.17571,65.819564 131.13808,128.16698 47.794062,363.28586 86.619689,222.15663 183.98613,-8.1192859 355.89059,-32.69394 z"
         style="opacity:0.51769912;fill:#aa0000;stroke:none;filter:url(#filter5952)" />
    </g>
    <g
       id="g5971"
       transform="matrix(1.2596814,0,0,1.5788024,-211.35948,-15.078508)">
      <path
         transform="matrix(1.4542822,0.38406528,-0.53021415,1.0534221,115.94474,-142.64512)"
         style="fill:#550000;stroke:none;filter:url(#filter5928)"
         d="M 444.01387,11.528695 492.50119,13.549 C 333.78631,106.00159 267.74868,168.349 184.40466,403.46788 223.23029,262.33865 272.10941,36.103349 444.01387,11.528695 z"
         id="path5965"
         inkscape:connector-curvature="0"
         sodipodi:nodetypes="cccc" />
      <path
         transform="matrix(1.4542822,0.38406528,-0.53021415,1.0534221,115.94474,-142.64512)"
         sodipodi:nodetypes="cccc"
         inkscape:connector-curvature="0"
         id="path5967"
         d="m 469.46202,-25.551083 0,6.060916 C 310.74714,72.962421 244.70951,135.30983 161.36549,370.42871 200.19112,229.29948 297.55756,-0.97642913 469.46202,-25.551083 z"
         style="opacity:0.46902651;fill:#ff8080;stroke:none;filter:url(#filter5938)" />
      <path
         transform="matrix(1.4542822,0.38406528,-0.53021415,1.0534221,115.94474,-142.64512)"
         style="opacity:0.51769912;fill:#aa0000;stroke:none;filter:url(#filter5952)"
         d="m 471.60488,-9.8367971 0,6.060916 C 312.89,88.676707 246.85237,151.02412 163.50835,386.143 202.33397,245.01377 299.70042,14.737857 471.60488,-9.8367971 z"
         id="path5969"
         inkscape:connector-curvature="0"
         sodipodi:nodetypes="cccc" />
    </g>
    <g
       id="g5981"
       transform="matrix(0.97497322,0.3581684,-0.22232235,1.570713,83.306651,-32.604369)">
      <path
         sodipodi:nodetypes="cccc"
         inkscape:connector-curvature="0"
         id="path5983"
         d="M 444.01387,11.528695 492.50119,13.549 C 333.78631,106.00159 267.74868,168.349 184.40466,403.46788 223.23029,262.33865 272.10941,36.103349 444.01387,11.528695 z"
         style="fill:#550000;stroke:none;filter:url(#filter5928)"
         transform="matrix(1.4542822,0.38406528,-0.53021415,1.0534221,115.94474,-142.64512)" />
      <path
         style="opacity:0.46902651;fill:#ff8080;stroke:none;filter:url(#filter5938)"
         d="m 469.46202,-25.551083 0,6.060916 C 310.74714,72.962421 244.70951,135.30983 161.36549,370.42871 200.19112,229.29948 297.55756,-0.97642913 469.46202,-25.551083 z"
         id="path5985"
         inkscape:connector-curvature="0"
         sodipodi:nodetypes="cccc"
         transform="matrix(1.4542822,0.38406528,-0.53021415,1.0534221,115.94474,-142.64512)" />
      <path
         sodipodi:nodetypes="cccc"
         inkscape:connector-curvature="0"
         id="path5987"
         d="m 471.60488,-9.8367971 0,6.060916 C 312.89,88.676707 246.85237,151.02412 163.50835,386.143 202.33397,245.01377 299.70042,14.737857 471.60488,-9.8367971 z"
         style="opacity:0.51769912;fill:#aa0000;stroke:none;filter:url(#filter5952)"
         transform="matrix(1.4542822,0.38406528,-0.53021415,1.0534221,115.94474,-142.64512)" />
    </g>
    <path
       style="opacity:0.68141593;fill:#550000;stroke:none;filter:url(#filter6019)"
       d="M 420,-17.637818 C 340,36.647896 207.14286,105.21932 177.14286,152.36218 c -30,47.14286 -111.428574,190 -111.428574,190 0,0 180.000004,-211.42857 231.428574,-227.14286 51.42857,-15.714281 215.71428,-99.999995 215.71428,-99.999995 l -100,-37.142857 z"
       id="path5989"
       inkscape:connector-curvature="0" />
    <path
       style="opacity:0.89380535;fill:#550000;stroke:none;filter:url(#filter6037)"
       d="M 757.14286,140.93361 C 630,143.79075 465.71429,222.36218 385.71429,259.50504 c -80,37.14286 -284.28572,204.28571 -284.28572,204.28571 l 25.71429,12.85715 c 0,0 258.57143,-184.28572 302.85714,-201.42857 44.28571,-17.14286 327.14286,-61.27775 327.14286,-61.27775 z"
       id="path6023"
       inkscape:connector-curvature="0"
       transform="matrix(1,0,0,1.1067833,0,-50.898027)"
       sodipodi:nodetypes="csccscc" />
    <g
       transform="matrix(1.1702791,0,0,1.1683089,-164.66384,-90.207413)"
       id="g6041">
      <path
         style="fill:#550000;stroke:none;filter:url(#filter5928)"
         d="m 328.29958,-11.328448 48.48732,2.0203055 C 218.07202,83.144446 152.03439,145.49186 68.690373,380.61074 107.516,239.48151 156.39512,13.246206 328.29958,-11.328448 z"
         id="path6043"
         inkscape:connector-curvature="0"
         sodipodi:nodetypes="cccc" />
      <path
         sodipodi:nodetypes="cccc"
         inkscape:connector-curvature="0"
         id="path6045"
         d="m 353.74773,-48.408226 0,6.060916 C 195.03285,50.105278 128.99522,112.45269 45.651205,347.57157 84.476832,206.44234 181.84327,-23.833572 353.74773,-48.408226 z"
         style="opacity:0.46902651;fill:#ff8080;stroke:none;filter:url(#filter5938)" />
      <path
         style="opacity:0.51769912;fill:#aa0000;stroke:none;filter:url(#filter5952)"
         d="m 355.89059,-32.69394 0,6.060916 C 197.17571,65.819564 131.13808,128.16698 47.794062,363.28586 86.619689,222.15663 183.98613,-8.1192859 355.89059,-32.69394 z"
         id="path6047"
         inkscape:connector-curvature="0"
         sodipodi:nodetypes="cccc" />
    </g>
  </g>
  <g
     inkscape:groupmode="layer"
     id="layer5"
     inkscape:label="Layer#1">
    <g
       id="g7330"
       transform="matrix(0.67604724,0.2219998,-0.22334974,0.68015813,263.36778,86.982603)">
      <path
         style="fill:#ffffff;stroke:none"
         d="m 228.80932,593.52524 c 29.29442,-38.38579 29.29442,-117.17769 55.55839,-135.36044 26.26396,-18.18274 109.09647,-61.6193 128.28937,-61.6193 19.1929,0 27.78618,30.45341 64.14468,33.84011 5.60364,0.52196 13.55048,0.80963 22.08603,-2.09321 5.2802,-1.79573 10.78568,-6.57618 16.1011,-7.97412 5.79743,-1.52471 11.62991,-0.0896 17.31961,-1.28398 5.69429,-1.19534 14.817,-5.26882 20.04702,-6.23381 12.48498,-2.30361 19.56783,-0.31777 25.96658,3.94806 7.46964,4.97976 16.97642,11.1205 21.37746,17.46962 6.31206,9.10603 5.89666,17.88572 5.89666,17.88572 0,0 -7.55406,-7.3911 -13.90949,-10.92082 -4.96638,-2.75827 -8.36649,-1.76805 -12.35448,-2.21116 -2.07528,-0.23059 -1.09028,10.43403 -1.27186,19.79507 -0.0958,4.93911 -3.01062,16.49975 -3.22048,22.96842 -0.25252,7.78368 0.84464,21.18548 0.0398,29.83483 -2.81217,30.22096 -12.83279,58.46425 -44.03477,78.92456 -61.61931,40.4061 -256.57875,36.36549 -290.92394,43.43656 -34.34518,7.07106 -55.55838,22.72843 -55.55838,22.72843 l -18.18275,-22.72843 c 0,0 37.37564,-12.12183 62.62946,-40.40611 z"
         id="path7332"
         inkscape:connector-curvature="0"
         sodipodi:nodetypes="cssssssssscsssssssccc" />
      <path
         style="fill:url(#linearGradient7358);fill-opacity:1;stroke:none"
         d="m 394.97941,550.59376 c -24.11181,-64.30392 -20.63125,-52.17287 -22.74649,-72.15772 -0.90107,-8.5134 0.0132,-10.92351 0.67369,-18.14713 0.63708,-6.96778 1.0392,-16.95906 3.1448,-22.63282 5.81103,-15.65841 17.91298,-21.82529 32.56506,-19.89739 8.29761,1.09179 17.99539,2.50772 22.88919,5.1764 8.55003,4.66249 21.08013,8.99156 26.25231,14.44695 5.56266,5.86725 12.52897,10.55867 28.1203,10.55867 38.3858,0 66.17986,-25.13126 78.30169,-23.11095 12.12183,2.0203 20.20305,6.06092 20.20305,6.06092 0,0 -23.23351,-1.01016 -24.24366,10.10152 -1.01015,11.11168 -4.53393,58.81659 -10.10152,90.91373 -8.55466,49.31757 -119.42666,113.71438 -155.05842,18.68782 z"
         id="path7334"
         inkscape:connector-curvature="0"
         sodipodi:nodetypes="ssssssssscsss" />
      <path
         style="fill:url(#linearGradient7360);fill-opacity:1;stroke:none"
         d="m 436.39566,553.11914 c 0,0 -13.63705,1.01016 -19.19289,1.01016 -5.55584,0 -10.60661,-2.52539 -12.62691,-2.02031 -2.02031,0.50508 -8.5863,1.51523 -8.5863,1.51523 0,0 -9.09137,-73.74114 5.55584,-75.76144 14.64721,-2.02031 23.73859,6.06091 24.24366,10.10152 0.50508,4.04061 10.6066,65.15484 10.6066,65.15484 z"
         id="path7336"
         inkscape:connector-curvature="0" />
      <path
         style="fill:#ffffff;stroke:none"
         d="m 383.36266,524.83487 c 0,-20.20305 9.09137,-46.46702 13.13198,-33.33503 4.04061,13.13198 0,56.56854 6.06091,70.71068 6.06092,14.14213 12.12183,34.34518 12.12183,34.34518 z"
         id="path7338"
         inkscape:connector-curvature="0" />
      <path
         style="fill:#ffffff;stroke:none"
         d="m 384.37281,513.72319 c -1.01015,-23.2335 16.16244,-64.64976 35.35534,-44.44671 8.3103,8.74768 16.36952,40.93641 23.32523,59.18668 4.26726,11.19637 10.00908,12.73699 9.56824,13.39849 -0.69186,1.03815 -5.3996,0.38227 -8.84449,2.98827 -3.89358,2.94544 -6.59433,9.07685 -7.88654,8.26922 -8.08122,-5.05077 -9.09137,-73.74113 -20.20305,-71.72083 -11.11168,2.02031 -18.18275,20.20305 -18.18275,34.34519 0,14.14213 -13.13198,-2.02031 -13.13198,-2.02031 z"
         id="path7340"
         inkscape:connector-curvature="0"
         sodipodi:nodetypes="csssssssc" />
      <path
         style="fill:url(#linearGradient7362);fill-opacity:1;stroke:none"
         d="m 298.78086,595.55426 -45.69942,-33.84882 c 0,0 -16.69598,25.25381 -24.27212,33.0825 -120.56002,88.23871 -182.990971,53.537 -278.997499,236.60571 l 19.19289,41.41625 C 13.65723,712.64547 172.08904,673.36017 298.78086,595.55426 z"
         id="path7342"
         inkscape:connector-curvature="0"
         sodipodi:nodetypes="cccccc" />
      <path
         inkscape:connector-curvature="0"
         style="fill:#b3b367;fill-opacity:1;stroke:none"
         d="m 383.36607,526.86161 c 1.28091,14.94402 -6.53303,30.02998 -17.13142,42.18996 -14.47583,16.60873 -35.45772,28.19607 -57.61858,30.52879 -38.3858,4.04061 -46.93783,8.45631 -60.12166,16.1829 -13.18382,7.72658 -30.78586,24.33565 -30.78586,24.33565 7.92619,-2.26514 1.25742,-1.2759 29.41736,-6.04853 22.01831,-3.73172 101.66465,-4.62874 177.89641,-14.47002 -21.38286,-6.9257 -50.51085,-18.58163 -41.65625,-92.71875 z"
         id="path7344"
         sodipodi:nodetypes="csszcscc" />
      <path
         inkscape:connector-curvature="0"
         style="fill:url(#linearGradient7364);fill-opacity:1;stroke:none"
         d="m 161.36607,636.39286 c -80.029919,41.51746 -135.197281,49.38405 -211.562499,195 l 19.1875,41.40625 C -0.292219,762.62113 84.273351,709.65005 175.30357,661.98661 l -13.9375,-25.59375 z"
         id="path7346" />
      <path
         style="opacity:0.43805309;fill:none;stroke:#000000;stroke-width:2;stroke-linecap:butt;stroke-linejoin:miter;stroke-miterlimit:4;stroke-opacity:1;stroke-dasharray:none;filter:url(#filter6929)"
         d="M 230.71429,617.36218 C 265,595.93361 318.57143,595.21932 332.85714,587.36218 347.14286,579.50504 360,560.93361 360,534.50504 c 0,-26.42857 -17.14286,-58.57143 -9.28572,-75.71428 7.85715,-17.14286 25,-57.85715 53.57143,-60.00001 28.57143,-2.14286 45.71429,28.57143 70.00001,31.42857 24.28571,2.85715 23.57142,-4.28571 37.14285,-7.85714 13.57143,-3.57143 34.28572,-4.28571 44.28572,-7.85714 10,-3.57143 27.85714,5.35714 37.85714,16.07142 10,10.71429 15.68903,20.85209 11.42857,20.00001 -1.78571,-0.35714 -15,-18.21429 -24.28571,-13.92857 -9.28572,4.28571 -2.85715,19.28571 -4.28572,25.71428 -1.42857,6.42857 -3.57143,19.28572 -3.57143,31.42857 0,12.14286 -0.71428,34.28572 -5,45 -4.28571,10.71429 -13.57143,27.14286 -25,40 -10.18893,11.46255 -15.33165,16.06293 -37.85714,23.57143 -23.57143,7.85715 -24.28572,7.85714 -50,12.85714 -25.71429,5 -24.33521,6.81854 -30.76378,2.53282 -6.42857,-4.28571 -31.16987,-16.05348 -34.7413,-28.19634 C 385.92349,577.41294 380,535.21932 385,520.21932 c 5,-15 -0.71429,-40 17.14285,-52.14286 9.83057,-6.68478 20.71429,5.71429 23.57144,16.42858 2.85714,10.71428 13.57142,38.57143 17.85714,48.57143 4.28571,10 7.85714,10 7.85714,10"
         id="path7348"
         inkscape:connector-curvature="0"
         sodipodi:nodetypes="cssssssssssssssssssssssc" />
      <path
         style="fill:none;stroke:none"
         d="m 215,665.93361 c -90.71429,0 -132.142857,30 -147.142857,42.85714 -15,12.85715 -60.0000001,50.71429 -72.857143,72.14286 -12.857143,21.42857 -40.714286,77.14286 -40.714286,77.14286 l 15,22.14286 z"
         id="path7350"
         inkscape:connector-curvature="0" />
      <path
         inkscape:connector-curvature="0"
         style="opacity:0.91150447;fill:url(#linearGradient7366);fill-opacity:1;stroke:none;filter:url(#filter7016)"
         d="m 159.90625,670.15625 c -63.27158,-2.71588 -80.51824,28.72993 -92.0625,38.625 -15,12.85715 -59.986607,50.72768 -72.84375,72.15625 -9.962486,16.60414 -28.557545,53.09592 -36.59375,69 L -31,872.8125 C -2.022864,768.87421 74.86545,715.84453 159.90625,670.15625 z"
         id="path7352"
         sodipodi:nodetypes="cssccc" />
      <path
         sodipodi:nodetypes="csszccscc"
         id="path7354"
         d="m 383.36607,526.86161 c 1.28091,15.21064 -6.53303,30.56576 -17.13142,42.94269 -14.47583,16.90505 -35.45772,28.69912 -57.61858,31.07346 -38.3858,4.1127 -44.16343,7.80748 -60.12166,16.47162 -15.95823,8.66414 3.70621,-3.95671 -21.24669,14.43017 -4.65003,2.69523 -4.84975,4.77284 -9.53917,10.33967 7.92619,-2.30556 1.25742,-1.29867 29.41736,-6.15645 22.01831,-3.7983 101.66465,-4.71132 177.89641,-14.72818 -21.38286,-7.04927 -50.51085,-18.91315 -41.65625,-94.37298 z"
         style="opacity:0.42477878;fill:url(#linearGradient7368);fill-opacity:1;stroke:none;filter:url(#filter7064)"
         inkscape:connector-curvature="0"
         transform="matrix(1,0,0,0.98761704,0,6.5241038)" />
      <path
         inkscape:connector-curvature="0"
         style="fill:url(#linearGradient7370);fill-opacity:1;stroke:none"
         d="m 377.52232,408.11161 c -32.26971,14.17835 -75.49266,37.83386 -93.15625,50.0625 -26.26397,18.18275 -26.26808,96.95796 -55.5625,135.34375 -7.16894,8.02922 -15.29094,14.76451 -23.28125,20.28125 22.27428,-9.72852 99.8907,-18.63198 126.3125,-30.375 11.97175,-5.32078 17.80354,-14.65828 22.01405,-27.11042 1.80975,-5.35216 5.37882,-10.86796 5.61419,-17.56615 0.20582,-5.85731 -3.02751,-13.64306 -3.55724,-20.2775 -0.66597,-8.34074 0.0334,-23.84349 -1.85225,-32.01468 -0.96521,-4.18256 -4.1364,-12.12182 -4.49197,-15.79925 -2.50145,-25.87036 11.88621,-36.75159 27.96072,-62.5445 z"
         id="path7356"
         sodipodi:nodetypes="csccssssssc" />
    </g>
    <g
       id="g7246"
       transform="matrix(0.7794602,-0.22459952,0.25164648,0.73229518,-94.021898,-46.118705)">
      <path
         style="fill:#ffffff;stroke:none"
         d="m 228.80932,593.52524 c 29.29442,-38.38579 29.29442,-117.17769 55.55839,-135.36044 26.26396,-18.18274 109.09647,-61.6193 128.28937,-61.6193 19.1929,0 27.78618,30.45341 64.14468,33.84011 5.60364,0.52196 13.55048,0.80963 22.08603,-2.09321 5.2802,-1.79573 10.78568,-6.57618 16.1011,-7.97412 5.79743,-1.52471 11.62991,-0.0896 17.31961,-1.28398 5.69429,-1.19534 14.817,-5.26882 20.04702,-6.23381 12.48498,-2.30361 19.56783,-0.31777 25.96658,3.94806 7.46964,4.97976 16.97642,11.1205 21.37746,17.46962 6.31206,9.10603 5.89666,17.88572 5.89666,17.88572 0,0 -7.55406,-7.3911 -13.90949,-10.92082 -4.96638,-2.75827 -8.36649,-1.76805 -12.35448,-2.21116 -2.07528,-0.23059 -1.09028,10.43403 -1.27186,19.79507 -0.0958,4.93911 -3.01062,16.49975 -3.22048,22.96842 -0.25252,7.78368 0.84464,21.18548 0.0398,29.83483 -2.81217,30.22096 -12.83279,58.46425 -44.03477,78.92456 -61.61931,40.4061 -256.57875,36.36549 -290.92394,43.43656 -34.34518,7.07106 -55.55838,22.72843 -55.55838,22.72843 l -18.18275,-22.72843 c 0,0 37.37564,-12.12183 62.62946,-40.40611 z"
         id="path7248"
         inkscape:connector-curvature="0"
         sodipodi:nodetypes="cssssssssscsssssssccc" />
      <path
         style="fill:url(#linearGradient7274);fill-opacity:1;stroke:none"
         d="m 394.97941,550.59376 c -24.11181,-64.30392 -20.63125,-52.17287 -22.74649,-72.15772 -0.90107,-8.5134 0.0132,-10.92351 0.67369,-18.14713 0.63708,-6.96778 1.0392,-16.95906 3.1448,-22.63282 5.81103,-15.65841 17.91298,-21.82529 32.56506,-19.89739 8.29761,1.09179 17.99539,2.50772 22.88919,5.1764 8.55003,4.66249 21.08013,8.99156 26.25231,14.44695 5.56266,5.86725 12.52897,10.55867 28.1203,10.55867 38.3858,0 66.17986,-25.13126 78.30169,-23.11095 12.12183,2.0203 20.20305,6.06092 20.20305,6.06092 0,0 -23.23351,-1.01016 -24.24366,10.10152 -1.01015,11.11168 -4.53393,58.81659 -10.10152,90.91373 -8.55466,49.31757 -119.42666,113.71438 -155.05842,18.68782 z"
         id="path7250"
         inkscape:connector-curvature="0"
         sodipodi:nodetypes="ssssssssscsss" />
      <path
         style="fill:url(#linearGradient7276);fill-opacity:1;stroke:none"
         d="m 436.39566,553.11914 c 0,0 -13.63705,1.01016 -19.19289,1.01016 -5.55584,0 -10.60661,-2.52539 -12.62691,-2.02031 -2.02031,0.50508 -8.5863,1.51523 -8.5863,1.51523 0,0 -9.09137,-73.74114 5.55584,-75.76144 14.64721,-2.02031 23.73859,6.06091 24.24366,10.10152 0.50508,4.04061 10.6066,65.15484 10.6066,65.15484 z"
         id="path7252"
         inkscape:connector-curvature="0" />
      <path
         style="fill:#ffffff;stroke:none"
         d="m 383.36266,524.83487 c 0,-20.20305 9.09137,-46.46702 13.13198,-33.33503 4.04061,13.13198 0,56.56854 6.06091,70.71068 6.06092,14.14213 12.12183,34.34518 12.12183,34.34518 z"
         id="path7254"
         inkscape:connector-curvature="0" />
      <path
         style="fill:#ffffff;stroke:none"
         d="m 384.37281,513.72319 c -1.01015,-23.2335 16.16244,-64.64976 35.35534,-44.44671 8.3103,8.74768 16.36952,40.93641 23.32523,59.18668 4.26726,11.19637 10.00908,12.73699 9.56824,13.39849 -0.69186,1.03815 -5.3996,0.38227 -8.84449,2.98827 -3.89358,2.94544 -6.59433,9.07685 -7.88654,8.26922 -8.08122,-5.05077 -9.09137,-73.74113 -20.20305,-71.72083 -11.11168,2.02031 -18.18275,20.20305 -18.18275,34.34519 0,14.14213 -13.13198,-2.02031 -13.13198,-2.02031 z"
         id="path7256"
         inkscape:connector-curvature="0"
         sodipodi:nodetypes="csssssssc" />
      <path
         style="fill:url(#linearGradient7278);fill-opacity:1;stroke:none"
         d="m 298.78086,595.55426 -45.69942,-33.84882 c 0,0 -16.69598,25.25381 -24.27212,33.0825 -120.56002,88.23871 -182.990971,53.537 -278.997499,236.60571 l 19.19289,41.41625 C 13.65723,712.64547 172.08904,673.36017 298.78086,595.55426 z"
         id="path7258"
         inkscape:connector-curvature="0"
         sodipodi:nodetypes="cccccc" />
      <path
         inkscape:connector-curvature="0"
         style="fill:#b3b367;fill-opacity:1;stroke:none"
         d="m 383.36607,526.86161 c 1.28091,14.94402 -6.53303,30.02998 -17.13142,42.18996 -14.47583,16.60873 -35.45772,28.19607 -57.61858,30.52879 -38.3858,4.04061 -46.93783,8.45631 -60.12166,16.1829 -13.18382,7.72658 -30.78586,24.33565 -30.78586,24.33565 7.92619,-2.26514 1.25742,-1.2759 29.41736,-6.04853 22.01831,-3.73172 101.66465,-4.62874 177.89641,-14.47002 -21.38286,-6.9257 -50.51085,-18.58163 -41.65625,-92.71875 z"
         id="path7260"
         sodipodi:nodetypes="csszcscc" />
      <path
         inkscape:connector-curvature="0"
         style="fill:url(#linearGradient7280);fill-opacity:1;stroke:none"
         d="m 161.36607,636.39286 c -80.029919,41.51746 -135.197281,49.38405 -211.562499,195 l 19.1875,41.40625 C -0.292219,762.62113 84.273351,709.65005 175.30357,661.98661 l -13.9375,-25.59375 z"
         id="path7262" />
      <path
         style="opacity:0.43805309;fill:none;stroke:#000000;stroke-width:2;stroke-linecap:butt;stroke-linejoin:miter;stroke-miterlimit:4;stroke-opacity:1;stroke-dasharray:none;filter:url(#filter6929)"
         d="M 230.71429,617.36218 C 265,595.93361 318.57143,595.21932 332.85714,587.36218 347.14286,579.50504 360,560.93361 360,534.50504 c 0,-26.42857 -17.14286,-58.57143 -9.28572,-75.71428 7.85715,-17.14286 25,-57.85715 53.57143,-60.00001 28.57143,-2.14286 45.71429,28.57143 70.00001,31.42857 24.28571,2.85715 23.57142,-4.28571 37.14285,-7.85714 13.57143,-3.57143 34.28572,-4.28571 44.28572,-7.85714 10,-3.57143 27.85714,5.35714 37.85714,16.07142 10,10.71429 15.68903,20.85209 11.42857,20.00001 -1.78571,-0.35714 -15,-18.21429 -24.28571,-13.92857 -9.28572,4.28571 -2.85715,19.28571 -4.28572,25.71428 -1.42857,6.42857 -3.57143,19.28572 -3.57143,31.42857 0,12.14286 -0.71428,34.28572 -5,45 -4.28571,10.71429 -13.57143,27.14286 -25,40 -10.18893,11.46255 -15.33165,16.06293 -37.85714,23.57143 -23.57143,7.85715 -24.28572,7.85714 -50,12.85714 -25.71429,5 -24.33521,6.81854 -30.76378,2.53282 -6.42857,-4.28571 -31.16987,-16.05348 -34.7413,-28.19634 C 385.92349,577.41294 380,535.21932 385,520.21932 c 5,-15 -0.71429,-40 17.14285,-52.14286 9.83057,-6.68478 20.71429,5.71429 23.57144,16.42858 2.85714,10.71428 13.57142,38.57143 17.85714,48.57143 4.28571,10 7.85714,10 7.85714,10"
         id="path7264"
         inkscape:connector-curvature="0"
         sodipodi:nodetypes="cssssssssssssssssssssssc" />
      <path
         style="fill:none;stroke:none"
         d="m 215,665.93361 c -90.71429,0 -132.142857,30 -147.142857,42.85714 -15,12.85715 -60.0000001,50.71429 -72.857143,72.14286 -12.857143,21.42857 -40.714286,77.14286 -40.714286,77.14286 l 15,22.14286 z"
         id="path7266"
         inkscape:connector-curvature="0" />
      <path
         inkscape:connector-curvature="0"
         style="opacity:0.91150447;fill:url(#linearGradient7282);fill-opacity:1;stroke:none;filter:url(#filter7016)"
         d="m 159.90625,670.15625 c -63.27158,-2.71588 -80.51824,28.72993 -92.0625,38.625 -15,12.85715 -59.986607,50.72768 -72.84375,72.15625 -9.962486,16.60414 -28.557545,53.09592 -36.59375,69 L -31,872.8125 C -2.022864,768.87421 74.86545,715.84453 159.90625,670.15625 z"
         id="path7268"
         sodipodi:nodetypes="cssccc" />
      <path
         sodipodi:nodetypes="csszccscc"
         id="path7270"
         d="m 383.36607,526.86161 c 1.28091,15.21064 -6.53303,30.56576 -17.13142,42.94269 -14.47583,16.90505 -35.45772,28.69912 -57.61858,31.07346 -38.3858,4.1127 -44.16343,7.80748 -60.12166,16.47162 -15.95823,8.66414 3.70621,-3.95671 -21.24669,14.43017 -4.65003,2.69523 -4.84975,4.77284 -9.53917,10.33967 7.92619,-2.30556 1.25742,-1.29867 29.41736,-6.15645 22.01831,-3.7983 101.66465,-4.71132 177.89641,-14.72818 -21.38286,-7.04927 -50.51085,-18.91315 -41.65625,-94.37298 z"
         style="opacity:0.42477878;fill:url(#linearGradient7284);fill-opacity:1;stroke:none;filter:url(#filter7064)"
         inkscape:connector-curvature="0"
         transform="matrix(1,0,0,0.98761704,0,6.5241038)" />
      <path
         inkscape:connector-curvature="0"
         style="fill:url(#linearGradient7286);fill-opacity:1;stroke:none"
         d="m 377.52232,408.11161 c -32.26971,14.17835 -75.49266,37.83386 -93.15625,50.0625 -26.26397,18.18275 -26.26808,96.95796 -55.5625,135.34375 -7.16894,8.02922 -15.29094,14.76451 -23.28125,20.28125 22.27428,-9.72852 99.8907,-18.63198 126.3125,-30.375 11.97175,-5.32078 17.80354,-14.65828 22.01405,-27.11042 1.80975,-5.35216 5.37882,-10.86796 5.61419,-17.56615 0.20582,-5.85731 -3.02751,-13.64306 -3.55724,-20.2775 -0.66597,-8.34074 0.0334,-23.84349 -1.85225,-32.01468 -0.96521,-4.18256 -4.1364,-12.12182 -4.49197,-15.79925 -2.50145,-25.87036 11.88621,-36.75159 27.96072,-62.5445 z"
         id="path7272"
         sodipodi:nodetypes="csccssssssc" />
    </g>
    <g
       transform="matrix(0.70743824,0.07651742,-0.0769827,0.71174002,127.23918,1.8997504)"
       id="g7068">
      <path
         sodipodi:nodetypes="cssssssssscsssssssccc"
         inkscape:connector-curvature="0"
         id="path6076"
         d="m 228.80932,593.52524 c 29.29442,-38.38579 29.29442,-117.17769 55.55839,-135.36044 26.26396,-18.18274 109.09647,-61.6193 128.28937,-61.6193 19.1929,0 27.78618,30.45341 64.14468,33.84011 5.60364,0.52196 13.55048,0.80963 22.08603,-2.09321 5.2802,-1.79573 10.78568,-6.57618 16.1011,-7.97412 5.79743,-1.52471 11.62991,-0.0896 17.31961,-1.28398 5.69429,-1.19534 14.817,-5.26882 20.04702,-6.23381 12.48498,-2.30361 19.56783,-0.31777 25.96658,3.94806 7.46964,4.97976 16.97642,11.1205 21.37746,17.46962 6.31206,9.10603 5.89666,17.88572 5.89666,17.88572 0,0 -7.55406,-7.3911 -13.90949,-10.92082 -4.96638,-2.75827 -8.36649,-1.76805 -12.35448,-2.21116 -2.07528,-0.23059 -1.09028,10.43403 -1.27186,19.79507 -0.0958,4.93911 -3.01062,16.49975 -3.22048,22.96842 -0.25252,7.78368 0.84464,21.18548 0.0398,29.83483 -2.81217,30.22096 -12.83279,58.46425 -44.03477,78.92456 -61.61931,40.4061 -256.57875,36.36549 -290.92394,43.43656 -34.34518,7.07106 -55.55838,22.72843 -55.55838,22.72843 l -18.18275,-22.72843 c 0,0 37.37564,-12.12183 62.62946,-40.40611 z"
         style="fill:#ffffff;stroke:none" />
      <path
         sodipodi:nodetypes="ssssssssscsss"
         inkscape:connector-curvature="0"
         id="path6078"
         d="m 394.97941,550.59376 c -24.11181,-64.30392 -20.63125,-52.17287 -22.74649,-72.15772 -0.90107,-8.5134 0.0132,-10.92351 0.67369,-18.14713 0.63708,-6.96778 1.0392,-16.95906 3.1448,-22.63282 5.81103,-15.65841 17.91298,-21.82529 32.56506,-19.89739 8.29761,1.09179 17.99539,2.50772 22.88919,5.1764 8.55003,4.66249 21.08013,8.99156 26.25231,14.44695 5.56266,5.86725 12.52897,10.55867 28.1203,10.55867 38.3858,0 66.17986,-25.13126 78.30169,-23.11095 12.12183,2.0203 20.20305,6.06092 20.20305,6.06092 0,0 -23.23351,-1.01016 -24.24366,10.10152 -1.01015,11.11168 -4.53393,58.81659 -10.10152,90.91373 -8.55466,49.31757 -119.42666,113.71438 -155.05842,18.68782 z"
         style="fill:url(#linearGradient6892);fill-opacity:1;stroke:none" />
      <path
         inkscape:connector-curvature="0"
         id="path6650"
         d="m 436.39566,553.11914 c 0,0 -13.63705,1.01016 -19.19289,1.01016 -5.55584,0 -10.60661,-2.52539 -12.62691,-2.02031 -2.02031,0.50508 -8.5863,1.51523 -8.5863,1.51523 0,0 -9.09137,-73.74114 5.55584,-75.76144 14.64721,-2.02031 23.73859,6.06091 24.24366,10.10152 0.50508,4.04061 10.6066,65.15484 10.6066,65.15484 z"
         style="fill:url(#linearGradient6889);fill-opacity:1;stroke:none" />
      <path
         inkscape:connector-curvature="0"
         id="path6625"
         d="m 383.36266,524.83487 c 0,-20.20305 9.09137,-46.46702 13.13198,-33.33503 4.04061,13.13198 0,56.56854 6.06091,70.71068 6.06092,14.14213 12.12183,34.34518 12.12183,34.34518 z"
         style="fill:#ffffff;stroke:none" />
      <path
         sodipodi:nodetypes="csssssssc"
         inkscape:connector-curvature="0"
         id="path6648"
         d="m 384.37281,513.72319 c -1.01015,-23.2335 16.16244,-64.64976 35.35534,-44.44671 8.3103,8.74768 16.36952,40.93641 23.32523,59.18668 4.26726,11.19637 10.00908,12.73699 9.56824,13.39849 -0.69186,1.03815 -5.3996,0.38227 -8.84449,2.98827 -3.89358,2.94544 -6.59433,9.07685 -7.88654,8.26922 -8.08122,-5.05077 -9.09137,-73.74113 -20.20305,-71.72083 -11.11168,2.02031 -18.18275,20.20305 -18.18275,34.34519 0,14.14213 -13.13198,-2.02031 -13.13198,-2.02031 z"
         style="fill:#ffffff;stroke:none" />
      <path
         sodipodi:nodetypes="cccccc"
         inkscape:connector-curvature="0"
         id="path6662"
         d="m 298.78086,595.55426 -45.69942,-33.84882 c 0,0 -16.69598,25.25381 -24.27212,33.0825 -120.56002,88.23871 -182.990971,53.537 -278.997499,236.60571 l 19.19289,41.41625 C 13.65723,712.64547 172.08904,673.36017 298.78086,595.55426 z"
         style="fill:url(#linearGradient6884);fill-opacity:1;stroke:none" />
      <path
         sodipodi:nodetypes="csszcscc"
         id="path6076-3"
         d="m 383.36607,526.86161 c 1.28091,14.94402 -6.53303,30.02998 -17.13142,42.18996 -14.47583,16.60873 -35.45772,28.19607 -57.61858,30.52879 -38.3858,4.04061 -46.93783,8.45631 -60.12166,16.1829 -13.18382,7.72658 -30.78586,24.33565 -30.78586,24.33565 7.92619,-2.26514 1.25742,-1.2759 29.41736,-6.04853 22.01831,-3.73172 101.66465,-4.62874 177.89641,-14.47002 -21.38286,-6.9257 -50.51085,-18.58163 -41.65625,-92.71875 z"
         style="fill:#b3b367;fill-opacity:1;stroke:none"
         inkscape:connector-curvature="0" />
      <path
         id="path6662-2"
         d="m 161.36607,636.39286 c -80.029919,41.51746 -135.197281,49.38405 -211.562499,195 l 19.1875,41.40625 C -0.292219,762.62113 84.273351,709.65005 175.30357,661.98661 l -13.9375,-25.59375 z"
         style="fill:url(#linearGradient6877);fill-opacity:1;stroke:none"
         inkscape:connector-curvature="0" />
      <path
         sodipodi:nodetypes="cssssssssssssssssssssssc"
         inkscape:connector-curvature="0"
         id="path6895"
         d="M 230.71429,617.36218 C 265,595.93361 318.57143,595.21932 332.85714,587.36218 347.14286,579.50504 360,560.93361 360,534.50504 c 0,-26.42857 -17.14286,-58.57143 -9.28572,-75.71428 7.85715,-17.14286 25,-57.85715 53.57143,-60.00001 28.57143,-2.14286 45.71429,28.57143 70.00001,31.42857 24.28571,2.85715 23.57142,-4.28571 37.14285,-7.85714 13.57143,-3.57143 34.28572,-4.28571 44.28572,-7.85714 10,-3.57143 27.85714,5.35714 37.85714,16.07142 10,10.71429 15.68903,20.85209 11.42857,20.00001 -1.78571,-0.35714 -15,-18.21429 -24.28571,-13.92857 -9.28572,4.28571 -2.85715,19.28571 -4.28572,25.71428 -1.42857,6.42857 -3.57143,19.28572 -3.57143,31.42857 0,12.14286 -0.71428,34.28572 -5,45 -4.28571,10.71429 -13.57143,27.14286 -25,40 -10.18893,11.46255 -15.33165,16.06293 -37.85714,23.57143 -23.57143,7.85715 -24.28572,7.85714 -50,12.85714 -25.71429,5 -24.33521,6.81854 -30.76378,2.53282 -6.42857,-4.28571 -31.16987,-16.05348 -34.7413,-28.19634 C 385.92349,577.41294 380,535.21932 385,520.21932 c 5,-15 -0.71429,-40 17.14285,-52.14286 9.83057,-6.68478 20.71429,5.71429 23.57144,16.42858 2.85714,10.71428 13.57142,38.57143 17.85714,48.57143 4.28571,10 7.85714,10 7.85714,10"
         style="opacity:0.43805309;fill:none;stroke:#000000;stroke-width:2;stroke-linecap:butt;stroke-linejoin:miter;stroke-miterlimit:4;stroke-opacity:1;stroke-dasharray:none;filter:url(#filter6929)" />
      <path
         inkscape:connector-curvature="0"
         id="path6933"
         d="m 215,665.93361 c -90.71429,0 -132.142857,30 -147.142857,42.85714 -15,12.85715 -60.0000001,50.71429 -72.857143,72.14286 -12.857143,21.42857 -40.714286,77.14286 -40.714286,77.14286 l 15,22.14286 z"
         style="fill:none;stroke:none" />
      <path
         sodipodi:nodetypes="cssccc"
         id="path6662-2-6"
         d="m 159.90625,670.15625 c -63.27158,-2.71588 -80.51824,28.72993 -92.0625,38.625 -15,12.85715 -59.986607,50.72768 -72.84375,72.15625 -9.962486,16.60414 -28.557545,53.09592 -36.59375,69 L -31,872.8125 C -2.022864,768.87421 74.86545,715.84453 159.90625,670.15625 z"
         style="opacity:0.91150447;fill:url(#linearGradient6951);fill-opacity:1;stroke:none;filter:url(#filter7016)"
         inkscape:connector-curvature="0" />
      <path
         transform="matrix(1,0,0,0.98761704,0,6.5241038)"
         inkscape:connector-curvature="0"
         style="opacity:0.42477878;fill:url(#linearGradient7034);fill-opacity:1;stroke:none;filter:url(#filter7064)"
         d="m 383.36607,526.86161 c 1.28091,15.21064 -6.53303,30.56576 -17.13142,42.94269 -14.47583,16.90505 -35.45772,28.69912 -57.61858,31.07346 -38.3858,4.1127 -44.16343,7.80748 -60.12166,16.47162 -15.95823,8.66414 3.70621,-3.95671 -21.24669,14.43017 -4.65003,2.69523 -4.84975,4.77284 -9.53917,10.33967 7.92619,-2.30556 1.25742,-1.29867 29.41736,-6.15645 22.01831,-3.7983 101.66465,-4.71132 177.89641,-14.72818 -21.38286,-7.04927 -50.51085,-18.91315 -41.65625,-94.37298 z"
         id="path7022"
         sodipodi:nodetypes="csszccscc" />
      <path
         sodipodi:nodetypes="csccssssssc"
         id="path6076-6"
         d="m 377.52232,408.11161 c -32.26971,14.17835 -75.49266,37.83386 -93.15625,50.0625 -26.26397,18.18275 -26.26808,96.95796 -55.5625,135.34375 -7.16894,8.02922 -15.29094,14.76451 -23.28125,20.28125 22.27428,-9.72852 99.8907,-18.63198 126.3125,-30.375 11.97175,-5.32078 17.80354,-14.65828 22.01405,-27.11042 1.80975,-5.35216 5.37882,-10.86796 5.61419,-17.56615 0.20582,-5.85731 -3.02751,-13.64306 -3.55724,-20.2775 -0.66597,-8.34074 0.0334,-23.84349 -1.85225,-32.01468 -0.96521,-4.18256 -4.1364,-12.12182 -4.49197,-15.79925 -2.50145,-25.87036 11.88621,-36.75159 27.96072,-62.5445 z"
         style="fill:url(#linearGradient7141);fill-opacity:1;stroke:none"
         inkscape:connector-curvature="0" />
    </g>
    <g
       transform="matrix(0.64688043,-0.4915064,0.49724653,0.59194056,-377.98868,97.598805)"
       id="g7288">
      <path
         sodipodi:nodetypes="cssssssssscsssssssccc"
         inkscape:connector-curvature="0"
         id="path7290"
         d="m 228.80932,593.52524 c 29.29442,-38.38579 29.29442,-117.17769 55.55839,-135.36044 26.26396,-18.18274 109.09647,-61.6193 128.28937,-61.6193 19.1929,0 27.78618,30.45341 64.14468,33.84011 5.60364,0.52196 13.55048,0.80963 22.08603,-2.09321 5.2802,-1.79573 10.78568,-6.57618 16.1011,-7.97412 5.79743,-1.52471 11.62991,-0.0896 17.31961,-1.28398 5.69429,-1.19534 14.817,-5.26882 20.04702,-6.23381 12.48498,-2.30361 19.56783,-0.31777 25.96658,3.94806 7.46964,4.97976 16.97642,11.1205 21.37746,17.46962 6.31206,9.10603 5.89666,17.88572 5.89666,17.88572 0,0 -7.55406,-7.3911 -13.90949,-10.92082 -4.96638,-2.75827 -8.36649,-1.76805 -12.35448,-2.21116 -2.07528,-0.23059 -1.09028,10.43403 -1.27186,19.79507 -0.0958,4.93911 -3.01062,16.49975 -3.22048,22.96842 -0.25252,7.78368 0.84464,21.18548 0.0398,29.83483 -2.81217,30.22096 -12.83279,58.46425 -44.03477,78.92456 -61.61931,40.4061 -256.57875,36.36549 -290.92394,43.43656 -34.34518,7.07106 -55.55838,22.72843 -55.55838,22.72843 l -18.18275,-22.72843 c 0,0 37.37564,-12.12183 62.62946,-40.40611 z"
         style="fill:#ffffff;stroke:none" />
      <path
         sodipodi:nodetypes="ssssssssscsss"
         inkscape:connector-curvature="0"
         id="path7292"
         d="m 394.97941,550.59376 c -24.11181,-64.30392 -20.63125,-52.17287 -22.74649,-72.15772 -0.90107,-8.5134 0.0132,-10.92351 0.67369,-18.14713 0.63708,-6.96778 1.0392,-16.95906 3.1448,-22.63282 5.81103,-15.65841 17.91298,-21.82529 32.56506,-19.89739 8.29761,1.09179 17.99539,2.50772 22.88919,5.1764 8.55003,4.66249 21.08013,8.99156 26.25231,14.44695 5.56266,5.86725 12.52897,10.55867 28.1203,10.55867 38.3858,0 66.17986,-25.13126 78.30169,-23.11095 12.12183,2.0203 20.20305,6.06092 20.20305,6.06092 0,0 -23.23351,-1.01016 -24.24366,10.10152 -1.01015,11.11168 -4.53393,58.81659 -10.10152,90.91373 -8.55466,49.31757 -119.42666,113.71438 -155.05842,18.68782 z"
         style="fill:url(#linearGradient7316);fill-opacity:1;stroke:none" />
      <path
         inkscape:connector-curvature="0"
         id="path7294"
         d="m 436.39566,553.11914 c 0,0 -13.63705,1.01016 -19.19289,1.01016 -5.55584,0 -10.60661,-2.52539 -12.62691,-2.02031 -2.02031,0.50508 -8.5863,1.51523 -8.5863,1.51523 0,0 -9.09137,-73.74114 5.55584,-75.76144 14.64721,-2.02031 23.73859,6.06091 24.24366,10.10152 0.50508,4.04061 10.6066,65.15484 10.6066,65.15484 z"
         style="fill:url(#linearGradient7318);fill-opacity:1;stroke:none" />
      <path
         inkscape:connector-curvature="0"
         id="path7296"
         d="m 383.36266,524.83487 c 0,-20.20305 9.09137,-46.46702 13.13198,-33.33503 4.04061,13.13198 0,56.56854 6.06091,70.71068 6.06092,14.14213 12.12183,34.34518 12.12183,34.34518 z"
         style="fill:#ffffff;stroke:none" />
      <path
         sodipodi:nodetypes="csssssssc"
         inkscape:connector-curvature="0"
         id="path7298"
         d="m 384.37281,513.72319 c -1.01015,-23.2335 16.16244,-64.64976 35.35534,-44.44671 8.3103,8.74768 16.36952,40.93641 23.32523,59.18668 4.26726,11.19637 10.00908,12.73699 9.56824,13.39849 -0.69186,1.03815 -5.3996,0.38227 -8.84449,2.98827 -3.89358,2.94544 -6.59433,9.07685 -7.88654,8.26922 -8.08122,-5.05077 -9.09137,-73.74113 -20.20305,-71.72083 -11.11168,2.02031 -18.18275,20.20305 -18.18275,34.34519 0,14.14213 -13.13198,-2.02031 -13.13198,-2.02031 z"
         style="fill:#ffffff;stroke:none" />
      <path
         sodipodi:nodetypes="cccccc"
         inkscape:connector-curvature="0"
         id="path7300"
         d="m 298.78086,595.55426 -45.69942,-33.84882 c 0,0 -16.69598,25.25381 -24.27212,33.0825 -120.56002,88.23871 -182.990971,53.537 -278.997499,236.60571 l 19.19289,41.41625 C 13.65723,712.64547 172.08904,673.36017 298.78086,595.55426 z"
         style="fill:url(#linearGradient7320);fill-opacity:1;stroke:none" />
      <path
         sodipodi:nodetypes="csszcscc"
         id="path7302"
         d="m 383.36607,526.86161 c 1.28091,14.94402 -6.53303,30.02998 -17.13142,42.18996 -14.47583,16.60873 -35.45772,28.19607 -57.61858,30.52879 -38.3858,4.04061 -46.93783,8.45631 -60.12166,16.1829 -13.18382,7.72658 -30.78586,24.33565 -30.78586,24.33565 7.92619,-2.26514 1.25742,-1.2759 29.41736,-6.04853 22.01831,-3.73172 101.66465,-4.62874 177.89641,-14.47002 -21.38286,-6.9257 -50.51085,-18.58163 -41.65625,-92.71875 z"
         style="fill:#b3b367;fill-opacity:1;stroke:none"
         inkscape:connector-curvature="0" />
      <path
         id="path7304"
         d="m 161.36607,636.39286 c -80.029919,41.51746 -135.197281,49.38405 -211.562499,195 l 19.1875,41.40625 C -0.292219,762.62113 84.273351,709.65005 175.30357,661.98661 l -13.9375,-25.59375 z"
         style="fill:url(#linearGradient7322);fill-opacity:1;stroke:none"
         inkscape:connector-curvature="0" />
      <path
         sodipodi:nodetypes="cssssssssssssssssssssssc"
         inkscape:connector-curvature="0"
         id="path7306"
         d="M 230.71429,617.36218 C 265,595.93361 318.57143,595.21932 332.85714,587.36218 347.14286,579.50504 360,560.93361 360,534.50504 c 0,-26.42857 -17.14286,-58.57143 -9.28572,-75.71428 7.85715,-17.14286 25,-57.85715 53.57143,-60.00001 28.57143,-2.14286 45.71429,28.57143 70.00001,31.42857 24.28571,2.85715 23.57142,-4.28571 37.14285,-7.85714 13.57143,-3.57143 34.28572,-4.28571 44.28572,-7.85714 10,-3.57143 27.85714,5.35714 37.85714,16.07142 10,10.71429 15.68903,20.85209 11.42857,20.00001 -1.78571,-0.35714 -15,-18.21429 -24.28571,-13.92857 -9.28572,4.28571 -2.85715,19.28571 -4.28572,25.71428 -1.42857,6.42857 -3.57143,19.28572 -3.57143,31.42857 0,12.14286 -0.71428,34.28572 -5,45 -4.28571,10.71429 -13.57143,27.14286 -25,40 -10.18893,11.46255 -15.33165,16.06293 -37.85714,23.57143 -23.57143,7.85715 -24.28572,7.85714 -50,12.85714 -25.71429,5 -24.33521,6.81854 -30.76378,2.53282 -6.42857,-4.28571 -31.16987,-16.05348 -34.7413,-28.19634 C 385.92349,577.41294 380,535.21932 385,520.21932 c 5,-15 -0.71429,-40 17.14285,-52.14286 9.83057,-6.68478 20.71429,5.71429 23.57144,16.42858 2.85714,10.71428 13.57142,38.57143 17.85714,48.57143 4.28571,10 7.85714,10 7.85714,10"
         style="opacity:0.43805309;fill:none;stroke:#000000;stroke-width:2;stroke-linecap:butt;stroke-linejoin:miter;stroke-miterlimit:4;stroke-opacity:1;stroke-dasharray:none;filter:url(#filter6929)" />
      <path
         inkscape:connector-curvature="0"
         id="path7308"
         d="m 215,665.93361 c -90.71429,0 -132.142857,30 -147.142857,42.85714 -15,12.85715 -60.0000001,50.71429 -72.857143,72.14286 -12.857143,21.42857 -40.714286,77.14286 -40.714286,77.14286 l 15,22.14286 z"
         style="fill:none;stroke:none" />
      <path
         sodipodi:nodetypes="cssccc"
         id="path7310"
         d="m 159.90625,670.15625 c -63.27158,-2.71588 -80.51824,28.72993 -92.0625,38.625 -15,12.85715 -59.986607,50.72768 -72.84375,72.15625 -9.962486,16.60414 -28.557545,53.09592 -36.59375,69 L -31,872.8125 C -2.022864,768.87421 74.86545,715.84453 159.90625,670.15625 z"
         style="opacity:0.91150447;fill:url(#linearGradient7324);fill-opacity:1;stroke:none;filter:url(#filter7016)"
         inkscape:connector-curvature="0" />
      <path
         transform="matrix(1,0,0,0.98761704,0,6.5241038)"
         inkscape:connector-curvature="0"
         style="opacity:0.42477878;fill:url(#linearGradient7326);fill-opacity:1;stroke:none;filter:url(#filter7064)"
         d="m 383.36607,526.86161 c 1.28091,15.21064 -6.53303,30.56576 -17.13142,42.94269 -14.47583,16.90505 -35.45772,28.69912 -57.61858,31.07346 -38.3858,4.1127 -44.16343,7.80748 -60.12166,16.47162 -15.95823,8.66414 3.70621,-3.95671 -21.24669,14.43017 -4.65003,2.69523 -4.84975,4.77284 -9.53917,10.33967 7.92619,-2.30556 1.25742,-1.29867 29.41736,-6.15645 22.01831,-3.7983 101.66465,-4.71132 177.89641,-14.72818 -21.38286,-7.04927 -50.51085,-18.91315 -41.65625,-94.37298 z"
         id="path7312"
         sodipodi:nodetypes="csszccscc" />
      <path
         sodipodi:nodetypes="csccssssssc"
         id="path7314"
         d="m 377.52232,408.11161 c -32.26971,14.17835 -75.49266,37.83386 -93.15625,50.0625 -26.26397,18.18275 -26.26808,96.95796 -55.5625,135.34375 -7.16894,8.02922 -15.29094,14.76451 -23.28125,20.28125 22.27428,-9.72852 99.8907,-18.63198 126.3125,-30.375 11.97175,-5.32078 17.80354,-14.65828 22.01405,-27.11042 1.80975,-5.35216 5.37882,-10.86796 5.61419,-17.56615 0.20582,-5.85731 -3.02751,-13.64306 -3.55724,-20.2775 -0.66597,-8.34074 0.0334,-23.84349 -1.85225,-32.01468 -0.96521,-4.18256 -4.1364,-12.12182 -4.49197,-15.79925 -2.50145,-25.87036 11.88621,-36.75159 27.96072,-62.5445 z"
         style="fill:url(#linearGradient7328);fill-opacity:1;stroke:none"
         inkscape:connector-curvature="0" />
    </g>
    <g
       id="g7372"
       transform="matrix(0.20271883,-0.9188365,-0.82615757,-0.24412283,549.80619,885.29476)">
      <path
         style="fill:#ffffff;stroke:none"
         d="m 228.80932,593.52524 c 29.29442,-38.38579 29.29442,-117.17769 55.55839,-135.36044 26.26396,-18.18274 109.09647,-61.6193 128.28937,-61.6193 19.1929,0 27.78618,30.45341 64.14468,33.84011 5.60364,0.52196 13.55048,0.80963 22.08603,-2.09321 5.2802,-1.79573 10.78568,-6.57618 16.1011,-7.97412 5.79743,-1.52471 11.62991,-0.0896 17.31961,-1.28398 5.69429,-1.19534 14.817,-5.26882 20.04702,-6.23381 12.48498,-2.30361 19.56783,-0.31777 25.96658,3.94806 7.46964,4.97976 16.97642,11.1205 21.37746,17.46962 6.31206,9.10603 5.89666,17.88572 5.89666,17.88572 0,0 -7.55406,-7.3911 -13.90949,-10.92082 -4.96638,-2.75827 -8.36649,-1.76805 -12.35448,-2.21116 -2.07528,-0.23059 -1.09028,10.43403 -1.27186,19.79507 -0.0958,4.93911 -3.01062,16.49975 -3.22048,22.96842 -0.25252,7.78368 0.84464,21.18548 0.0398,29.83483 -2.81217,30.22096 -12.83279,58.46425 -44.03477,78.92456 -61.61931,40.4061 -256.57875,36.36549 -290.92394,43.43656 -34.34518,7.07106 -55.55838,22.72843 -55.55838,22.72843 l -18.18275,-22.72843 c 0,0 37.37564,-12.12183 62.62946,-40.40611 z"
         id="path7374"
         inkscape:connector-curvature="0"
         sodipodi:nodetypes="cssssssssscsssssssccc" />
      <path
         style="fill:url(#linearGradient7400);fill-opacity:1;stroke:none"
         d="m 394.97941,550.59376 c -24.11181,-64.30392 -20.63125,-52.17287 -22.74649,-72.15772 -0.90107,-8.5134 0.0132,-10.92351 0.67369,-18.14713 0.63708,-6.96778 1.0392,-16.95906 3.1448,-22.63282 5.81103,-15.65841 17.91298,-21.82529 32.56506,-19.89739 8.29761,1.09179 17.99539,2.50772 22.88919,5.1764 8.55003,4.66249 21.08013,8.99156 26.25231,14.44695 5.56266,5.86725 12.52897,10.55867 28.1203,10.55867 38.3858,0 66.17986,-25.13126 78.30169,-23.11095 12.12183,2.0203 20.20305,6.06092 20.20305,6.06092 0,0 -23.23351,-1.01016 -24.24366,10.10152 -1.01015,11.11168 -4.53393,58.81659 -10.10152,90.91373 -8.55466,49.31757 -119.42666,113.71438 -155.05842,18.68782 z"
         id="path7376"
         inkscape:connector-curvature="0"
         sodipodi:nodetypes="ssssssssscsss" />
      <path
         style="fill:url(#linearGradient7402);fill-opacity:1;stroke:none"
         d="m 436.39566,553.11914 c 0,0 -13.63705,1.01016 -19.19289,1.01016 -5.55584,0 -10.60661,-2.52539 -12.62691,-2.02031 -2.02031,0.50508 -8.5863,1.51523 -8.5863,1.51523 0,0 -9.09137,-73.74114 5.55584,-75.76144 14.64721,-2.02031 23.73859,6.06091 24.24366,10.10152 0.50508,4.04061 10.6066,65.15484 10.6066,65.15484 z"
         id="path7378"
         inkscape:connector-curvature="0" />
      <path
         style="fill:#ffffff;stroke:none"
         d="m 383.36266,524.83487 c 0,-20.20305 9.09137,-46.46702 13.13198,-33.33503 4.04061,13.13198 0,56.56854 6.06091,70.71068 6.06092,14.14213 12.12183,34.34518 12.12183,34.34518 z"
         id="path7380"
         inkscape:connector-curvature="0" />
      <path
         style="fill:#ffffff;stroke:none"
         d="m 384.37281,513.72319 c -1.01015,-23.2335 16.16244,-64.64976 35.35534,-44.44671 8.3103,8.74768 16.36952,40.93641 23.32523,59.18668 4.26726,11.19637 10.00908,12.73699 9.56824,13.39849 -0.69186,1.03815 -5.3996,0.38227 -8.84449,2.98827 -3.89358,2.94544 -6.59433,9.07685 -7.88654,8.26922 -8.08122,-5.05077 -9.09137,-73.74113 -20.20305,-71.72083 -11.11168,2.02031 -18.18275,20.20305 -18.18275,34.34519 0,14.14213 -13.13198,-2.02031 -13.13198,-2.02031 z"
         id="path7382"
         inkscape:connector-curvature="0"
         sodipodi:nodetypes="csssssssc" />
      <path
         style="fill:url(#linearGradient7404);fill-opacity:1;stroke:none"
         d="m 298.78086,595.55426 -45.69942,-33.84882 c 0,0 -16.69598,25.25381 -24.27212,33.0825 -120.56002,88.23871 -182.990971,53.537 -278.997499,236.60571 l 19.19289,41.41625 C 13.65723,712.64547 172.08904,673.36017 298.78086,595.55426 z"
         id="path7384"
         inkscape:connector-curvature="0"
         sodipodi:nodetypes="cccccc" />
      <path
         inkscape:connector-curvature="0"
         style="fill:#b3b367;fill-opacity:1;stroke:none"
         d="m 383.36607,526.86161 c 1.28091,14.94402 -6.53303,30.02998 -17.13142,42.18996 -14.47583,16.60873 -35.45772,28.19607 -57.61858,30.52879 -38.3858,4.04061 -46.93783,8.45631 -60.12166,16.1829 -13.18382,7.72658 -30.78586,24.33565 -30.78586,24.33565 7.92619,-2.26514 1.25742,-1.2759 29.41736,-6.04853 22.01831,-3.73172 101.66465,-4.62874 177.89641,-14.47002 -21.38286,-6.9257 -50.51085,-18.58163 -41.65625,-92.71875 z"
         id="path7386"
         sodipodi:nodetypes="csszcscc" />
      <path
         inkscape:connector-curvature="0"
         style="fill:url(#linearGradient7406);fill-opacity:1;stroke:none"
         d="m 161.36607,636.39286 c -80.029919,41.51746 -135.197281,49.38405 -211.562499,195 l 19.1875,41.40625 C -0.292219,762.62113 84.273351,709.65005 175.30357,661.98661 l -13.9375,-25.59375 z"
         id="path7388" />
      <path
         style="opacity:0.43805309;fill:none;stroke:#000000;stroke-width:2;stroke-linecap:butt;stroke-linejoin:miter;stroke-miterlimit:4;stroke-opacity:1;stroke-dasharray:none;filter:url(#filter6929)"
         d="M 230.71429,617.36218 C 265,595.93361 318.57143,595.21932 332.85714,587.36218 347.14286,579.50504 360,560.93361 360,534.50504 c 0,-26.42857 -17.14286,-58.57143 -9.28572,-75.71428 7.85715,-17.14286 25,-57.85715 53.57143,-60.00001 28.57143,-2.14286 45.71429,28.57143 70.00001,31.42857 24.28571,2.85715 23.57142,-4.28571 37.14285,-7.85714 13.57143,-3.57143 34.28572,-4.28571 44.28572,-7.85714 10,-3.57143 27.85714,5.35714 37.85714,16.07142 10,10.71429 15.68903,20.85209 11.42857,20.00001 -1.78571,-0.35714 -15,-18.21429 -24.28571,-13.92857 -9.28572,4.28571 -2.85715,19.28571 -4.28572,25.71428 -1.42857,6.42857 -3.57143,19.28572 -3.57143,31.42857 0,12.14286 -0.71428,34.28572 -5,45 -4.28571,10.71429 -13.57143,27.14286 -25,40 -10.18893,11.46255 -15.33165,16.06293 -37.85714,23.57143 -23.57143,7.85715 -24.28572,7.85714 -50,12.85714 -25.71429,5 -24.33521,6.81854 -30.76378,2.53282 -6.42857,-4.28571 -31.16987,-16.05348 -34.7413,-28.19634 C 385.92349,577.41294 380,535.21932 385,520.21932 c 5,-15 -0.71429,-40 17.14285,-52.14286 9.83057,-6.68478 20.71429,5.71429 23.57144,16.42858 2.85714,10.71428 13.57142,38.57143 17.85714,48.57143 4.28571,10 7.85714,10 7.85714,10"
         id="path7390"
         inkscape:connector-curvature="0"
         sodipodi:nodetypes="cssssssssssssssssssssssc" />
      <path
         style="fill:none;stroke:none"
         d="m 215,665.93361 c -90.71429,0 -132.142857,30 -147.142857,42.85714 -15,12.85715 -60.0000001,50.71429 -72.857143,72.14286 -12.857143,21.42857 -40.714286,77.14286 -40.714286,77.14286 l 15,22.14286 z"
         id="path7392"
         inkscape:connector-curvature="0" />
      <path
         inkscape:connector-curvature="0"
         style="opacity:0.91150447;fill:url(#linearGradient7408);fill-opacity:1;stroke:none;filter:url(#filter7016)"
         d="m 159.90625,670.15625 c -63.27158,-2.71588 -80.51824,28.72993 -92.0625,38.625 -15,12.85715 -59.986607,50.72768 -72.84375,72.15625 -9.962486,16.60414 -28.557545,53.09592 -36.59375,69 L -31,872.8125 C -2.022864,768.87421 74.86545,715.84453 159.90625,670.15625 z"
         id="path7394"
         sodipodi:nodetypes="cssccc" />
      <path
         sodipodi:nodetypes="csszccscc"
         id="path7396"
         d="m 383.36607,526.86161 c 1.28091,15.21064 -6.53303,30.56576 -17.13142,42.94269 -14.47583,16.90505 -35.45772,28.69912 -57.61858,31.07346 -38.3858,4.1127 -44.16343,7.80748 -60.12166,16.47162 -15.95823,8.66414 3.70621,-3.95671 -21.24669,14.43017 -4.65003,2.69523 -4.84975,4.77284 -9.53917,10.33967 7.92619,-2.30556 1.25742,-1.29867 29.41736,-6.15645 22.01831,-3.7983 101.66465,-4.71132 177.89641,-14.72818 -21.38286,-7.04927 -50.51085,-18.91315 -41.65625,-94.37298 z"
         style="opacity:0.42477878;fill:url(#linearGradient7410);fill-opacity:1;stroke:none;filter:url(#filter7064)"
         inkscape:connector-curvature="0"
         transform="matrix(1,0,0,0.98761704,0,6.5241038)" />
      <path
         inkscape:connector-curvature="0"
         style="fill:url(#linearGradient7412);fill-opacity:1;stroke:none"
         d="m 377.52232,408.11161 c -32.26971,14.17835 -75.49266,37.83386 -93.15625,50.0625 -26.26397,18.18275 -26.26808,96.95796 -55.5625,135.34375 -7.16894,8.02922 -15.29094,14.76451 -23.28125,20.28125 22.27428,-9.72852 99.8907,-18.63198 126.3125,-30.375 11.97175,-5.32078 17.80354,-14.65828 22.01405,-27.11042 1.80975,-5.35216 5.37882,-10.86796 5.61419,-17.56615 0.20582,-5.85731 -3.02751,-13.64306 -3.55724,-20.2775 -0.66597,-8.34074 0.0334,-23.84349 -1.85225,-32.01468 -0.96521,-4.18256 -4.1364,-12.12182 -4.49197,-15.79925 -2.50145,-25.87036 11.88621,-36.75159 27.96072,-62.5445 z"
         id="path7398"
         sodipodi:nodetypes="csccssssssc" />
    </g>
  </g>
  <g
     inkscape:groupmode="layer"
     id="layer3"
     inkscape:label="Layer"
     sodipodi:insensitive="true">
    <rect
       style="fill:#ffffff;fill-opacity:1;fill-rule:nonzero;stroke:none"
       id="rect5957"
       width="804.08142"
       height="215.16249"
       x="-34.345188"
       y="-204.26758" />
    <rect
       y="-129.51628"
       x="-117.56635"
       height="679.83264"
       width="137.76942"
       id="rect5959"
       style="fill:#ffffff;fill-opacity:1;fill-rule:nonzero;stroke:none" />
    <rect
       style="fill:#ffffff;fill-opacity:1;fill-rule:nonzero;stroke:none"
       id="rect5961"
       width="194.91228"
       height="679.83264"
       x="735.39105"
       y="-129.51628" />
    <rect
       y="502.8392"
       x="-189.90868"
       height="314.15744"
       width="959.6449"
       id="rect5963"
       style="fill:#ffffff;fill-opacity:1;fill-rule:nonzero;stroke:none" />
  </g>
</svg>
