<?xml version="1.0" encoding="UTF-8" standalone="no"?>
<!-- Created with Inkscape (http://www.inkscape.org/) -->

<svg
   xmlns:dc="http://purl.org/dc/elements/1.1/"
   xmlns:cc="http://creativecommons.org/ns#"
   xmlns:rdf="http://www.w3.org/1999/02/22-rdf-syntax-ns#"
   xmlns:svg="http://www.w3.org/2000/svg"
   xmlns="http://www.w3.org/2000/svg"
   xmlns:sodipodi="http://sodipodi.sourceforge.net/DTD/sodipodi-0.dtd"
   xmlns:inkscape="http://www.inkscape.org/namespaces/inkscape"
   width="744.09448819"
   height="1052.3622047"
   id="svg3781"
   version="1.1"
   inkscape:version="0.48.4 r9939"
   sodipodi:docname="zebrafilter.svg">
  <defs
     id="defs3783">
    <filter
       id="zebra"
       inkscape:menu-tooltip="Draws a black outline around"
       inkscape:menu="ABCs"
       inkscape:label="Black outline"
       color-interpolation-filters="sRGB">
      <feTurbulence
         id="feTurbulence3799"
         result="result1"
         baseFrequency=".05 .007" />
      <feComposite
         id="feComposite3801"
         in2="result1"
         in="SourceGraphic"
         operator="in" />
      <feConvolveMatrix
         id="feConvolveMatrix3803"
         kernelMatrix="2 0 -2"
         divisor=".1" />
      <feGaussianBlur
         id="feGaussianBlur3805"
         stdDeviation=".3" />
    </filter>
  </defs>
  <sodipodi:namedview
     id="base"
     pagecolor="#ffffff"
     bordercolor="#666666"
     borderopacity="1.0"
     inkscape:pageopacity="0.0"
     inkscape:pageshadow="2"
     inkscape:zoom="0.98994949"
     inkscape:cx="375"
     inkscape:cy="624.33034"
     inkscape:document-units="px"
     inkscape:current-layer="layer1"
     showgrid="false"
     inkscape:window-width="1366"
     inkscape:window-height="721"
     inkscape:window-x="-4"
     inkscape:window-y="24"
     inkscape:window-maximized="1" />
  <metadata
     id="metadata3786">
    <rdf:RDF>
      <cc:Work
         rdf:about="">
        <dc:format>image/svg+xml</dc:format>
        <dc:type
           rdf:resource="http://purl.org/dc/dcmitype/StillImage" />
        <dc:title></dc:title>
      </cc:Work>
    </rdf:RDF>
  </metadata>
  <g
     inkscape:label="Layer 1"
     inkscape:groupmode="layer"
     id="layer1">
    <g
       style="font-size:120px;font-style:normal;font-weight:bold;line-height:125%;letter-spacing:0px;word-spacing:0px;fill:#000000;fill-opacity:1;stroke:none;font-family:Sans;-inkscape-font-specification:Sans Bold"
       id="text3811"
       transform="translate(0,54)">
      <path
         d="m 90.971451,631.10553 0,-15.64453 45.117189,-55.72266 -40.019533,0 0,-14.53125 62.871093,0 0,13.47656 -47.05078,57.94922 48.86719,0 0,14.47266 z"
         id="path3816"
         inkscape:connector-curvature="0" />
      <path
         d="m 207.6902,611.30084 16.40625,2.75391 c -2.10943,6.01563 -5.43951,10.59571 -9.99023,13.74023 -4.55083,3.14453 -10.24419,4.7168 -17.08008,4.7168 -10.82034,0 -18.82814,-3.53515 -24.02344,-10.60547 -4.10157,-5.66405 -6.15235,-12.81248 -6.15234,-21.44531 -1e-5,-10.31246 2.6953,-18.38862 8.08593,-24.22852 5.39061,-5.83978 12.20701,-8.7597 20.44922,-8.75976 9.25777,6e-5 16.56245,3.0567 21.91407,9.16992 5.3515,6.11333 7.91009,15.47855 7.67578,28.0957 l -41.25,0 c 0.11716,4.88284 1.44529,8.68166 3.98437,11.39649 2.53904,2.71485 5.7031,4.07227 9.49219,4.07226 2.57809,10e-6 4.74605,-0.70311 6.50391,-2.10937 1.75777,-1.40624 3.08589,-3.67186 3.98437,-6.79688 z m 0.9375,-16.64062 c -0.11723,-4.76559 -1.3477,-8.38863 -3.69141,-10.86914 -2.34378,-2.48042 -5.19534,-3.72066 -8.55468,-3.72071 -3.59378,5e-5 -6.56253,1.30865 -8.90625,3.92578 -2.34378,2.61724 -3.49612,6.17192 -3.45703,10.66407 z"
         id="path3818"
         inkscape:connector-curvature="0" />
      <path
         d="m 237.74879,631.10553 0,-85.89844 16.46485,0 0,30.9375 c 5.07809,-5.78119 11.09371,-8.67181 18.04687,-8.67187 7.57808,6e-5 13.8476,2.7442 18.8086,8.23242 4.96087,5.48833 7.44133,13.36918 7.4414,23.64258 -7e-5,10.62502 -2.52936,18.8086 -7.58789,24.55078 -5.05865,5.74219 -11.20122,8.61328 -18.42773,8.61328 -3.55473,0 -7.06058,-0.88867 -10.51758,-2.66602 -3.45706,-1.77734 -6.43557,-4.40429 -8.93555,-7.88086 l 0,9.14063 z m 16.34766,-32.46094 c -2e-5,6.44534 1.0156,11.21096 3.04688,14.29688 2.85153,4.37501 6.64059,6.56251 11.36718,6.5625 3.63277,10e-6 6.72847,-1.55272 9.28711,-4.65821 2.55855,-3.10545 3.83784,-7.99802 3.83789,-14.67773 -5e-5,-7.10934 -1.28911,-12.23629 -3.86718,-15.38086 -2.57817,-3.14448 -5.87895,-4.71675 -9.90235,-4.7168 -3.94534,5e-5 -7.22659,1.53326 -9.84375,4.59961 -2.61721,3.06645 -3.9258,7.72465 -3.92578,13.97461 z"
         id="path3820"
         inkscape:connector-curvature="0" />
      <path
         d="m 327.57301,631.10553 -16.46484,0 0,-62.22656 15.29297,0 0,8.84765 c 2.61716,-4.17963 4.97067,-6.93353 7.06055,-8.26172 2.08981,-1.32806 4.46285,-1.99212 7.11914,-1.99218 3.74995,6e-5 7.36323,1.03522 10.83984,3.10547 l -5.09766,14.35546 c -2.77347,-1.79682 -5.3516,-2.69526 -7.73437,-2.69531 -2.30472,5e-5 -4.25785,0.63482 -5.85938,1.9043 -1.60159,1.26958 -2.86135,3.5645 -3.77929,6.88476 -0.918,3.32035 -1.37698,10.27347 -1.37696,20.85938 z"
         id="path3822"
         inkscape:connector-curvature="0" />
      <path
         d="m 370.75661,587.86334 -14.94141,-2.69531 c 1.67968,-6.01557 4.5703,-10.46869 8.67188,-13.35938 4.10154,-2.89056 10.19528,-4.33587 18.28125,-4.33593 7.34371,6e-5 12.81245,0.8692 16.40625,2.60742 3.59369,1.73834 6.12299,3.94537 7.58789,6.62109 1.46478,2.67584 2.1972,7.58794 2.19726,14.73633 l -0.17578,19.21875 c -6e-5,5.46877 0.26361,9.50197 0.79102,12.09961 0.52728,2.59766 1.51361,5.38086 2.95898,8.34961 l -16.28906,0 c -0.42974,-1.09375 -0.95708,-2.71484 -1.58203,-4.86328 -0.27348,-0.97656 -0.4688,-1.62109 -0.58594,-1.9336 -2.81254,2.73438 -5.82035,4.78516 -9.02344,6.15235 -3.20315,1.36719 -6.62112,2.05078 -10.2539,2.05078 -6.40627,0 -11.4551,-1.73828 -15.14649,-5.21484 -3.69141,-3.47656 -5.53711,-7.87109 -5.53711,-13.1836 0,-3.5156 0.83984,-6.65036 2.51953,-9.40429 1.67968,-2.75388 4.0332,-4.86325 7.06055,-6.32813 3.02733,-1.46481 7.39256,-2.7441 13.0957,-3.83789 7.69528,-1.44527 13.02731,-2.79293 15.9961,-4.04297 l 0,-1.64062 c -5e-5,-3.16402 -0.7813,-5.41988 -2.34375,-6.76758 -1.56254,-1.34761 -4.51176,-2.02144 -8.84766,-2.02149 -2.92972,5e-5 -5.21487,0.57623 -6.85547,1.72852 -1.64065,1.15239 -2.96877,3.17387 -3.98437,6.06445 z m 22.03125,13.35938 c -2.10942,0.70315 -5.44926,1.54299 -10.01953,2.51953 -4.57035,0.97659 -7.55862,1.93362 -8.96485,2.87109 -2.14846,1.52346 -3.22267,3.45705 -3.22265,5.80078 -2e-5,2.30471 0.85935,4.29689 2.57812,5.97657 1.71873,1.67969 3.90622,2.51954 6.5625,2.51953 2.96872,10e-6 5.80075,-0.97655 8.49609,-2.92969 1.99215,-1.48436 3.30074,-3.30077 3.92579,-5.44922 0.42964,-1.40623 0.64448,-4.08201 0.64453,-8.02734 z"
         id="path3824"
         inkscape:connector-curvature="0" />
      <path
         d="m 431.69411,608.95709 -4.27735,-43.59375 0,-20.15625 17.8125,0 0,20.15625 -4.21875,43.59375 z m -3.57422,22.14844 0,-16.46484 16.46484,0 0,16.46484 z"
         id="path3826"
         inkscape:connector-curvature="0" />
      <path
         d="m 471.77223,608.95709 -4.27734,-43.59375 0,-20.15625 17.8125,0 0,20.15625 -4.21875,43.59375 z m -3.57422,22.14844 0,-16.46484 16.46485,0 0,16.46484 z"
         id="path3828"
         inkscape:connector-curvature="0" />
    </g>
    <rect
       style="fill:#000000;fill-opacity:1;fill-rule:nonzero;stroke:none;filter:url(#zebra)"
       id="rect3789"
       width="420"
       height="297.14285"
       x="106.42857"
       y="215.21931" />
    <g
       style="font-size:120px;font-style:normal;font-weight:bold;line-height:125%;letter-spacing:0px;word-spacing:0px;fill:#000000;fill-opacity:1;stroke:none;filter:url(#zebra);font-family:Sans;-inkscape-font-specification:Sans Bold"
       id="text3807">
      <path
         d="m 87.012062,618.13599 0,-15.64453 45.117188,-55.72266 -40.019532,0 0,-14.53125 62.871092,0 0,13.47656 -47.05078,57.94922 48.86719,0 0,14.47266 z"
         style=""
         id="path3831" />
      <path
         d="m 203.73081,598.3313 16.40625,2.75391 c -2.10943,6.01563 -5.43951,10.5957 -9.99023,13.74023 -4.55083,3.14453 -10.24418,4.71679 -17.08008,4.7168 -10.82034,-10e-6 -18.82814,-3.53516 -24.02344,-10.60547 -4.10157,-5.66405 -6.15235,-12.81248 -6.15234,-21.44531 -1e-5,-10.31246 2.6953,-18.38863 8.08594,-24.22852 5.3906,-5.83978 12.207,-8.7597 20.44921,-8.75977 9.25778,7e-5 16.56246,3.05671 21.91407,9.16993 5.3515,6.11333 7.91009,15.47855 7.67578,28.0957 l -41.25,0 c 0.11717,4.88283 1.44529,8.68166 3.98437,11.39648 2.53904,2.71486 5.7031,4.07228 9.49219,4.07227 2.57809,10e-6 4.74606,-0.70311 6.50391,-2.10938 1.75777,-1.40623 3.08589,-3.67185 3.98437,-6.79687 z m 0.9375,-16.64063 c -0.11723,-4.76558 -1.3477,-8.38862 -3.6914,-10.86914 -2.34379,-2.48042 -5.19535,-3.72065 -8.55469,-3.7207 -3.59378,5e-5 -6.56253,1.30864 -8.90625,3.92578 -2.34377,2.61723 -3.49612,6.17192 -3.45703,10.66406 z"
         style=""
         id="path3833" />
      <path
         d="m 233.78941,618.13599 0,-85.89844 16.46484,0 0,30.9375 c 5.0781,-5.78119 11.09371,-8.67181 18.04687,-8.67188 7.57808,7e-5 13.8476,2.74421 18.8086,8.23243 4.96087,5.48833 7.44134,13.36918 7.4414,23.64257 -6e-5,10.62502 -2.52936,18.80861 -7.58789,24.55079 -5.05865,5.74218 -11.20122,8.61327 -18.42773,8.61328 -3.55473,-10e-6 -7.06058,-0.88868 -10.51758,-2.66602 -3.45706,-1.77734 -6.43557,-4.40429 -8.93555,-7.88086 l 0,9.14063 z m 16.34765,-32.46094 c -2e-5,6.44534 1.0156,11.21096 3.04688,14.29687 2.85153,4.37502 6.64059,6.56252 11.36718,6.5625 3.63277,2e-5 6.72847,-1.55272 9.28711,-4.6582 2.55855,-3.10545 3.83784,-7.99802 3.83789,-14.67773 -5e-5,-7.10934 -1.28911,-12.23629 -3.86718,-15.38086 -2.57817,-3.14448 -5.87895,-4.71675 -9.90235,-4.7168 -3.94534,5e-5 -7.22659,1.53325 -9.84375,4.59961 -2.61721,3.06645 -3.9258,7.72465 -3.92578,13.97461 z"
         style=""
         id="path3835" />
      <path
         d="m 323.61362,618.13599 -16.46484,0 0,-62.22657 15.29297,0 0,8.84766 c 2.61716,-4.17963 4.97067,-6.93353 7.06055,-8.26172 2.08981,-1.32806 4.46285,-1.99212 7.11914,-1.99219 3.74996,7e-5 7.36323,1.03522 10.83984,3.10547 l -5.09766,14.35547 c -2.77347,-1.79683 -5.3516,-2.69526 -7.73437,-2.69531 -2.30472,5e-5 -4.25784,0.63481 -5.85938,1.9043 -1.60159,1.26957 -2.86135,3.56449 -3.77929,6.88476 -0.918,3.32035 -1.37698,10.27347 -1.37696,20.85938 z"
         style=""
         id="path3837" />
      <path
         d="m 366.79722,574.8938 -14.94141,-2.69531 c 1.67968,-6.01558 4.5703,-10.4687 8.67188,-13.35938 4.10154,-2.89056 10.19528,-4.33587 18.28125,-4.33594 7.34371,7e-5 12.81245,0.86921 16.40625,2.60743 3.59369,1.73834 6.12299,3.94537 7.58789,6.62109 1.46478,2.67583 2.1972,7.58794 2.19726,14.73633 l -0.17578,19.21875 c -6e-5,5.46876 0.26361,9.50196 0.79102,12.09961 0.52728,2.59766 1.51361,5.38086 2.95898,8.34961 l -16.28906,0 c -0.42973,-1.09375 -0.95708,-2.71484 -1.58203,-4.86328 -0.27348,-0.97656 -0.4688,-1.62109 -0.58594,-1.9336 -2.81254,2.73438 -5.82035,4.78516 -9.02344,6.15235 -3.20315,1.36718 -6.62112,2.05077 -10.2539,2.05078 -6.40627,-10e-6 -11.45509,-1.73828 -15.14649,-5.21485 -3.69141,-3.47655 -5.53711,-7.87108 -5.53711,-13.18359 0,-3.51561 0.83984,-6.65037 2.51953,-9.4043 1.67968,-2.75388 4.0332,-4.86325 7.06055,-6.32812 3.02733,-1.46481 7.39256,-2.74411 13.0957,-3.83789 7.69528,-1.44528 13.02731,-2.79293 15.9961,-4.04297 l 0,-1.64063 c -4e-5,-3.16401 -0.78129,-5.41987 -2.34375,-6.76758 -1.56254,-1.3476 -4.51176,-2.02143 -8.84766,-2.02148 -2.92971,5e-5 -5.21487,0.57622 -6.85547,1.72852 -1.64064,1.15239 -2.96877,3.17387 -3.98437,6.06445 z m 22.03125,13.35937 c -2.10942,0.70316 -5.44926,1.543 -10.01953,2.51954 -4.57034,0.97658 -7.55862,1.93361 -8.96485,2.87109 -2.14846,1.52346 -3.22267,3.45705 -3.22265,5.80078 -2e-5,2.3047 0.85935,4.29689 2.57812,5.97656 1.71873,1.6797 3.90622,2.51954 6.5625,2.51953 2.96872,1e-5 5.80075,-0.97655 8.4961,-2.92968 1.99214,-1.48436 3.30074,-3.30077 3.92578,-5.44922 0.42964,-1.40623 0.64449,-4.08201 0.64453,-8.02735 z"
         style=""
         id="path3839" />
      <path
         d="m 427.73472,595.98755 -4.27735,-43.59375 0,-20.15625 17.8125,0 0,20.15625 -4.21875,43.59375 z m -3.57422,22.14844 0,-16.46485 16.46484,0 0,16.46485 z"
         style=""
         id="path3841" />
      <path
         d="m 467.81284,595.98755 -4.27734,-43.59375 0,-20.15625 17.8125,0 0,20.15625 -4.21875,43.59375 z m -3.57422,22.14844 0,-16.46485 16.46485,0 0,16.46485 z"
         style=""
         id="path3843" />
    </g>
  </g>
</svg>
