<?xml version="1.0" encoding="UTF-8" standalone="no"?>
<svg
   xmlns:dc="http://purl.org/dc/elements/1.1/"
   xmlns:cc="http://creativecommons.org/ns#"
   xmlns:rdf="http://www.w3.org/1999/02/22-rdf-syntax-ns#"
   xmlns:svg="http://www.w3.org/2000/svg"
   xmlns="http://www.w3.org/2000/svg"
   xmlns:sodipodi="http://sodipodi.sourceforge.net/DTD/sodipodi-0.dtd"
   xmlns:inkscape="http://www.inkscape.org/namespaces/inkscape"
   width="72.779045mm"
   height="400.13828mm"
   viewBox="0 0 72.779045 400.13827"
   version="1.1"
   id="svg8"
   inkscape:version="1.0.1 (3bc2e813f5, 2020-09-07)"
   sodipodi:docname="ukulele_neck_real_size.svg">
  <defs
     id="defs2">
    <marker
       style="overflow:visible"
       id="Arrow1Lend"
       refX="0"
       refY="0"
       orient="auto"
       inkscape:stockid="Arrow1Lend"
       inkscape:isstock="true">
      <path
         transform="matrix(-0.8,0,0,-0.8,-10,0)"
         style="fill-rule:evenodd;stroke:#000000;stroke-width:1pt"
         d="M 0,0 5,-5 -12.5,0 5,5 Z"
         id="path942" />
    </marker>
    <marker
       style="overflow:visible"
       id="Arrow1Lstart"
       refX="0"
       refY="0"
       orient="auto"
       inkscape:stockid="Arrow1Lstart"
       inkscape:isstock="true">
      <path
         transform="matrix(0.8,0,0,0.8,10,0)"
         style="fill-rule:evenodd;stroke:#000000;stroke-width:1pt"
         d="M 0,0 5,-5 -12.5,0 5,5 Z"
         id="path939" />
    </marker>
  </defs>
  <sodipodi:namedview
     id="base"
     pagecolor="#ffffff"
     bordercolor="#666666"
     borderopacity="1.0"
     inkscape:pageopacity="0.0"
     inkscape:pageshadow="2"
     inkscape:zoom="1.8592507"
     inkscape:cx="75.996373"
     inkscape:cy="159.22405"
     inkscape:document-units="mm"
     inkscape:current-layer="layer1"
     inkscape:document-rotation="0"
     showgrid="false"
     inkscape:window-width="1920"
     inkscape:window-height="1001"
     inkscape:window-x="-9"
     inkscape:window-y="-9"
     inkscape:window-maximized="1"
     inkscape:snap-global="true"
     fit-margin-top="0"
     fit-margin-left="0"
     fit-margin-right="0"
     fit-margin-bottom="0" />
  <metadata
     id="metadata5">
    <rdf:RDF>
      <cc:Work
         rdf:about="">
        <dc:format>image/svg+xml</dc:format>
        <dc:type
           rdf:resource="http://purl.org/dc/dcmitype/StillImage" />
        <dc:title></dc:title>
      </cc:Work>
    </rdf:RDF>
  </metadata>
  <g
     inkscape:label="Layer 1"
     inkscape:groupmode="layer"
     id="layer1"
     transform="translate(-91.933947,-26.603753)">
    <path
       id="path953"
       style="fill:none;fill-opacity:1;stroke:#000000;stroke-width:0.5;stroke-linecap:round;stroke-miterlimit:4;stroke-dasharray:none;stroke-dashoffset:0"
       d="m 108.29875,85.91377 h 41.23107 z"
       sodipodi:nodetypes="ccc" />
    <g
       id="g951"
       transform="translate(26.726593,34.67872)">
      <path
         id="circle945"
         style="fill:#000000;fill-opacity:1;stroke:none;stroke-width:4.04035;stroke-linecap:round;stroke-miterlimit:4;stroke-dasharray:none;stroke-dashoffset:0"
         d="M 206.63477 33.550781 A 15.11811 15.11811 0 0 0 191.72266 48.667969 A 15.11811 15.11811 0 0 0 206.83984 63.787109 A 15.11811 15.11811 0 0 0 221.95898 48.667969 A 15.11811 15.11811 0 0 0 206.83984 33.550781 A 15.11811 15.11811 0 0 0 206.63477 33.550781 z M 206.72266 39.208984 A 9.4592304 9.4592304 0 0 1 206.83984 39.208984 A 9.4592304 9.4592304 0 0 1 216.29883 48.667969 A 9.4592304 9.4592304 0 0 1 206.83984 58.126953 A 9.4592304 9.4592304 0 0 1 197.38086 48.667969 A 9.4592304 9.4592304 0 0 1 206.72266 39.208984 z "
         transform="matrix(0.26458333,0,0,0.26458333,65.207354,-8.074967)" />
      <circle
         style="fill:#000000;fill-opacity:1;stroke:none;stroke-width:0.051;stroke-linecap:round;stroke-miterlimit:4;stroke-dasharray:none;stroke-dashoffset:0"
         id="circle949"
         cx="119.93388"
         cy="4.8018084"
         r="0.19125809" />
    </g>
    <g
       id="g943"
       transform="translate(16.272991,48.192391)">
      <path
         id="circle937"
         style="fill:#000000;fill-opacity:1;stroke:none;stroke-width:4.04035;stroke-linecap:round;stroke-miterlimit:4;stroke-dasharray:none;stroke-dashoffset:0"
         d="M 167.33008 84.625 A 15.11811 15.11811 0 0 0 152.21289 99.744141 A 15.11811 15.11811 0 0 0 167.33008 114.86133 A 15.11811 15.11811 0 0 0 182.44922 99.744141 A 15.11811 15.11811 0 0 0 167.33008 84.625 z M 167.21289 90.285156 A 9.4592304 9.4592304 0 0 1 167.33008 90.285156 A 9.4592304 9.4592304 0 0 1 176.78906 99.744141 A 9.4592304 9.4592304 0 0 1 167.33008 109.20312 A 9.4592304 9.4592304 0 0 1 157.87109 99.744141 A 9.4592304 9.4592304 0 0 1 167.21289 90.285156 z "
         transform="matrix(0.26458333,0,0,0.26458333,75.660956,-21.588638)" />
      <circle
         style="fill:#000000;fill-opacity:1;stroke:none;stroke-width:0.051;stroke-linecap:round;stroke-miterlimit:4;stroke-dasharray:none;stroke-dashoffset:0"
         id="circle941"
         cx="119.93388"
         cy="4.8018084"
         r="0.19125809" />
    </g>
    <g
       id="g935"
       transform="translate(5.8193934,34.67872)">
      <path
         id="circle929"
         style="fill:#000000;fill-opacity:1;stroke:none;stroke-width:4.04035;stroke-linecap:round;stroke-miterlimit:4;stroke-dasharray:none;stroke-dashoffset:0"
         d="M 127.61523 33.550781 A 15.11811 15.11811 0 0 0 112.70312 48.667969 A 15.11811 15.11811 0 0 0 127.82031 63.787109 A 15.11811 15.11811 0 0 0 142.93945 48.667969 A 15.11811 15.11811 0 0 0 127.82031 33.550781 A 15.11811 15.11811 0 0 0 127.61523 33.550781 z M 127.70508 39.208984 A 9.4592304 9.4592304 0 0 1 127.82031 39.208984 A 9.4592304 9.4592304 0 0 1 137.28125 48.667969 A 9.4592304 9.4592304 0 0 1 127.82031 58.126953 A 9.4592304 9.4592304 0 0 1 118.36133 48.667969 A 9.4592304 9.4592304 0 0 1 127.70508 39.208984 z "
         transform="matrix(0.26458333,0,0,0.26458333,86.114554,-8.074967)" />
      <circle
         style="fill:#000000;fill-opacity:1;stroke:none;stroke-width:0.051;stroke-linecap:round;stroke-miterlimit:4;stroke-dasharray:none;stroke-dashoffset:0"
         id="circle933"
         cx="119.93388"
         cy="4.8018084"
         r="0.19125809" />
    </g>
    <path
       id="rect1279"
       style="fill:none;fill-opacity:0.569106;stroke:#000000;stroke-width:0.5;stroke-linecap:round;stroke-miterlimit:4;stroke-dasharray:none"
       d="M 92.433955,26.853753 V 422.48914 H 164.43421 V 26.853753 Z M 128.02972,301.59412 c 0.042,-1.1e-4 0.084,-1.1e-4 0.12607,0 13.50616,-1.1e-4 24.45518,10.94867 24.45536,24.45483 1.1e-4,13.50637 -10.94899,24.45547 -24.45536,24.45536 -13.50637,1.1e-4 -24.45547,-10.94899 -24.45536,-24.45536 0,-13.45708 10.87239,-24.38557 24.32929,-24.45483 z"
       sodipodi:nodetypes="cccccccsccc" />
    <path
       id="rect1281"
       style="fill:none;fill-opacity:0.569106;stroke:#666666;stroke-width:0.5;stroke-linecap:round;stroke-miterlimit:4;stroke-dasharray:none;stroke-dashoffset:0"
       d="M 98.434083,416.26978 H 158.43408 Z"
       sodipodi:nodetypes="ccc" />
    <path
       id="rect1283"
       style="fill:none;fill-opacity:1;stroke:#808080;stroke-width:0.5;stroke-linecap:round;stroke-miterlimit:4;stroke-dasharray:none;stroke-dashoffset:0"
       d="m 108.29875,66.269779 h 41.23107 z"
       sodipodi:nodetypes="ccc" />
    <path
       style="fill:none;stroke:#000000;stroke-width:0.5;stroke-linecap:butt;stroke-linejoin:miter;stroke-miterlimit:4;stroke-dasharray:none;stroke-opacity:1"
       d="m 164.50739,44.618131 -14.97757,21.651648 2.54282,178.764951 12.55445,2.895"
       id="path1287"
       sodipodi:nodetypes="cccc" />
    <path
       style="fill:none;stroke:#000000;stroke-width:0.5;stroke-linecap:butt;stroke-linejoin:miter;stroke-miterlimit:4;stroke-dasharray:none;stroke-opacity:1"
       d="m 92.135762,44.523637 15.898768,21.746142 -2.80256,178.764951 -12.554448,2.895"
       id="path1289"
       sodipodi:nodetypes="cccc" />
    <g
       id="g47"
       transform="translate(-4.6342072,48.192391)">
      <path
         id="circle1340"
         style="fill:#000000;fill-opacity:1;stroke:none;stroke-width:4.04035;stroke-linecap:round;stroke-miterlimit:4;stroke-dasharray:none;stroke-dashoffset:0"
         d="M 88.310547 84.625 A 15.11811 15.11811 0 0 0 73.193359 99.744141 A 15.11811 15.11811 0 0 0 88.310547 114.86133 A 15.11811 15.11811 0 0 0 103.42969 99.744141 A 15.11811 15.11811 0 0 0 88.310547 84.625 z M 88.195312 90.285156 A 9.4592304 9.4592304 0 0 1 88.310547 90.285156 A 9.4592304 9.4592304 0 0 1 97.771484 99.744141 A 9.4592304 9.4592304 0 0 1 88.310547 109.20312 A 9.4592304 9.4592304 0 0 1 78.851562 99.744141 A 9.4592304 9.4592304 0 0 1 88.195312 90.285156 z "
         transform="matrix(0.26458333,0,0,0.26458333,96.568154,-21.588638)" />
      <circle
         style="fill:#000000;fill-opacity:1;stroke:none;stroke-width:0.051;stroke-linecap:round;stroke-miterlimit:4;stroke-dasharray:none;stroke-dashoffset:0"
         id="circle927"
         cx="119.93388"
         cy="4.8018084"
         r="0.19125809" />
    </g>
    <rect
       style="fill:none;stroke:#000000;stroke-width:0.499999;stroke-linecap:round;stroke-miterlimit:4;stroke-dasharray:none"
       id="rect907"
       width="37.288628"
       height="3.5028822"
       x="109.78977"
       y="422.98914" />
    <g
       id="g1381"
       transform="translate(763.33963,350.92421)"
       style="fill:#999999">
      <circle
         style="fill:#999999;fill-opacity:1;stroke:none;stroke-width:0.450001;stroke-linecap:round;stroke-miterlimit:4;stroke-dasharray:none;stroke-dashoffset:0"
         id="circle1373"
         cx="-640.10272"
         cy="71.815483"
         r="1.3229166" />
      <circle
         style="fill:#999999;fill-opacity:1;stroke:none;stroke-width:0.450001;stroke-linecap:round;stroke-miterlimit:4;stroke-dasharray:none;stroke-dashoffset:0"
         id="circle1375"
         cx="-629.70837"
         cy="71.815483"
         r="1.3229166" />
      <circle
         style="fill:#999999;fill-opacity:1;stroke:none;stroke-width:0.450001;stroke-linecap:round;stroke-miterlimit:4;stroke-dasharray:none;stroke-dashoffset:0"
         id="circle1377"
         cx="-619.31403"
         cy="71.815483"
         r="1.3229166" />
      <circle
         style="fill:#999999;fill-opacity:1;stroke:none;stroke-width:0.450001;stroke-linecap:round;stroke-miterlimit:4;stroke-dasharray:none;stroke-dashoffset:0"
         id="circle1379"
         cx="-650.49707"
         cy="71.815483"
         r="1.3229166" />
    </g>
    <path
       style="fill:none;stroke:#ff8080;stroke-width:0.539175px;stroke-linecap:butt;stroke-linejoin:miter;stroke-opacity:1"
       d="M 112.84256,52.892734 V 422.68335"
       id="path49"
       sodipodi:nodetypes="cc" />
    <path
       style="fill:none;stroke:#ff8080;stroke-width:0.539175px;stroke-linecap:butt;stroke-linejoin:miter;stroke-opacity:1"
       d="m 123.23691,39.444776 0,383.238574"
       id="path51"
       sodipodi:nodetypes="cc" />
    <path
       style="fill:none;stroke:#ff8080;stroke-width:0.539175px;stroke-linecap:butt;stroke-linejoin:miter;stroke-opacity:1"
       d="M 133.63126,52.892734 V 422.68335"
       id="path53"
       sodipodi:nodetypes="cc" />
    <path
       style="fill:none;stroke:#ff8080;stroke-width:0.539175px;stroke-linecap:butt;stroke-linejoin:miter;stroke-opacity:1"
       d="m 144.0256,39.444776 0,383.238574"
       id="path55"
       sodipodi:nodetypes="cc" />
    <path
       id="path955"
       style="fill:none;fill-opacity:1;stroke:#000000;stroke-width:0.5;stroke-linecap:round;stroke-miterlimit:4;stroke-dasharray:none;stroke-dashoffset:0"
       d="m 108.29875,104.45523 h 41.23107 z"
       sodipodi:nodetypes="ccc" />
    <path
       id="path957"
       style="fill:none;fill-opacity:1;stroke:#000000;stroke-width:0.5;stroke-linecap:round;stroke-miterlimit:4;stroke-dasharray:none;stroke-dashoffset:0"
       d="m 108.29875,121.95603 h 41.23107 z"
       sodipodi:nodetypes="ccc" />
    <path
       id="path959"
       style="fill:none;fill-opacity:1;stroke:#000000;stroke-width:0.5;stroke-linecap:round;stroke-miterlimit:4;stroke-dasharray:none;stroke-dashoffset:0"
       d="m 108.29875,138.47459 h 41.23107 z"
       sodipodi:nodetypes="ccc" />
    <path
       id="path961"
       style="fill:none;fill-opacity:1;stroke:#000000;stroke-width:0.5;stroke-linecap:round;stroke-miterlimit:4;stroke-dasharray:none;stroke-dashoffset:0"
       d="m 108.29875,154.06604 h 41.23107 z"
       sodipodi:nodetypes="ccc" />
    <path
       id="path963"
       style="fill:none;fill-opacity:1;stroke:#000000;stroke-width:0.5;stroke-linecap:round;stroke-miterlimit:4;stroke-dasharray:none;stroke-dashoffset:0"
       d="m 108.29875,168.78241 h 41.23107 z"
       sodipodi:nodetypes="ccc" />
    <path
       id="path965"
       style="fill:none;fill-opacity:1;stroke:#000000;stroke-width:0.5;stroke-linecap:round;stroke-miterlimit:4;stroke-dasharray:none;stroke-dashoffset:0"
       d="m 108.29875,182.6728 h 41.23107 z"
       sodipodi:nodetypes="ccc" />
    <path
       id="path967"
       style="fill:none;fill-opacity:1;stroke:#000000;stroke-width:0.5;stroke-linecap:round;stroke-miterlimit:4;stroke-dasharray:none;stroke-dashoffset:0"
       d="m 108.29875,195.7836 h 41.23107 z"
       sodipodi:nodetypes="ccc" />
    <path
       id="path969"
       style="fill:none;fill-opacity:1;stroke:#000000;stroke-width:0.5;stroke-linecap:round;stroke-miterlimit:4;stroke-dasharray:none;stroke-dashoffset:0"
       d="m 108.29875,208.15853 h 41.23107 z"
       sodipodi:nodetypes="ccc" />
    <path
       id="path971"
       style="fill:none;fill-opacity:1;stroke:#000000;stroke-width:0.5;stroke-linecap:round;stroke-miterlimit:4;stroke-dasharray:none;stroke-dashoffset:0"
       d="m 108.29875,219.83892 h 41.23107 z"
       sodipodi:nodetypes="ccc" />
    <path
       id="path973"
       style="fill:none;fill-opacity:1;stroke:#000000;stroke-width:0.5;stroke-linecap:round;stroke-miterlimit:4;stroke-dasharray:none;stroke-dashoffset:0"
       d="m 108.29875,230.86374 h 41.23107 z"
       sodipodi:nodetypes="ccc" />
    <path
       id="path975"
       style="fill:none;fill-opacity:1;stroke:#000000;stroke-width:0.5;stroke-linecap:round;stroke-miterlimit:4;stroke-dasharray:none;stroke-dashoffset:0"
       d="m 108.29875,241.26978 h 41.23107 z"
       sodipodi:nodetypes="ccc" />
  </g>
</svg>
