<?xml version="1.0" encoding="UTF-8" standalone="no"?>
<svg
   xmlns:dc="http://purl.org/dc/elements/1.1/"
   xmlns:cc="http://creativecommons.org/ns#"
   xmlns:rdf="http://www.w3.org/1999/02/22-rdf-syntax-ns#"
   xmlns:svg="http://www.w3.org/2000/svg"
   xmlns="http://www.w3.org/2000/svg"
   xmlns:sodipodi="http://sodipodi.sourceforge.net/DTD/sodipodi-0.dtd"
   xmlns:inkscape="http://www.inkscape.org/namespaces/inkscape"
   width="744.17786mm"
   height="1300.8192mm"
   viewBox="0 0 744.17786 1300.8192"
   version="1.1"
   id="svg158"
   sodipodi:docname="hot_air_balloon_outlineonly_pdffriendly.svg"
   inkscape:version="1.0.2 (e86c870879, 2021-01-15, custom)">
  <defs
     id="defs152" />
  <sodipodi:namedview
     id="base"
     pagecolor="#ffffff"
     bordercolor="#666666"
     borderopacity="1.0"
     inkscape:pageopacity="0.0"
     inkscape:pageshadow="2"
     inkscape:zoom="0.169986"
     inkscape:cx="421.62193"
     inkscape:cy="1781.7535"
     inkscape:document-units="mm"
     inkscape:current-layer="layer3"
     inkscape:document-rotation="0"
     showgrid="false"
     inkscape:snap-global="false"
     inkscape:window-width="1920"
     inkscape:window-height="986"
     inkscape:window-x="-11"
     inkscape:window-y="-11"
     inkscape:window-maximized="1"
     fit-margin-top="0"
     fit-margin-left="0"
     fit-margin-right="0"
     fit-margin-bottom="0" />
  <metadata
     id="metadata155">
    <rdf:RDF>
      <cc:Work
         rdf:about="">
        <dc:format>image/svg+xml</dc:format>
        <dc:type
           rdf:resource="http://purl.org/dc/dcmitype/StillImage" />
        <dc:title></dc:title>
      </cc:Work>
    </rdf:RDF>
  </metadata>
  <g
     inkscape:label="Layer 1"
     inkscape:groupmode="layer"
     id="layer1"
     transform="translate(-159.44567,-124.62603)" />
  <g
     inkscape:groupmode="layer"
     id="layer2"
     inkscape:label="Layer 2"
     transform="translate(-159.44567,-124.62603)"
     sodipodi:insensitive="true">
    <ellipse
       style="opacity:1;fill:none;fill-opacity:1;stroke:#b3b3b3;stroke-width:1.08152;stroke-linecap:round;stroke-miterlimit:4;stroke-dasharray:none"
       id="path2125"
       cx="1461.4401"
       cy="1449.8712"
       rx="95.531441"
       ry="75.005363"
       transform="matrix(1,0,-0.51875428,0.85492339,0,0)" />
    <path
       style="color:#000000;font-style:normal;font-variant:normal;font-weight:normal;font-stretch:normal;font-size:medium;line-height:normal;font-family:sans-serif;font-variant-ligatures:normal;font-variant-position:normal;font-variant-caps:normal;font-variant-numeric:normal;font-variant-alternates:normal;font-variant-east-asian:normal;font-feature-settings:normal;font-variation-settings:normal;text-indent:0;text-align:start;text-decoration:none;text-decoration-line:none;text-decoration-style:solid;text-decoration-color:#000000;letter-spacing:normal;word-spacing:normal;text-transform:none;writing-mode:lr-tb;direction:ltr;text-orientation:mixed;dominant-baseline:auto;baseline-shift:baseline;text-anchor:start;white-space:normal;shape-padding:0;shape-margin:0;inline-size:0;clip-rule:nonzero;display:inline;overflow:visible;visibility:visible;opacity:1;isolation:auto;mix-blend-mode:normal;color-interpolation:sRGB;color-interpolation-filters:linearRGB;solid-color:#000000;solid-opacity:1;vector-effect:none;fill:#ffffff;fill-opacity:1;fill-rule:nonzero;stroke:#b3b3b3;stroke-width:1;stroke-linecap:round;stroke-linejoin:miter;stroke-miterlimit:4;stroke-dasharray:none;stroke-dashoffset:0;stroke-opacity:1;color-rendering:auto;image-rendering:auto;shape-rendering:auto;text-rendering:auto;enable-background:accumulate;stop-color:#000000;stop-opacity:1"
       d="m 653.36945,1096.5975 a 3.5,3.5 0 0 0 -1.36524,0.3008 3.5,3.5 0 0 0 -1.77343,4.6211 c 12.10294,27.1824 26.09223,55.6412 33.45507,86.5039 a 3.5,3.5 0 0 0 4.2168,2.5918 3.5,3.5 0 0 0 2.5918,-4.2168 c -7.60066,-31.8595 -21.84545,-60.7222 -33.86914,-87.7266 a 3.5,3.5 0 0 0 -3.25586,-2.0742 z"
       id="path2235" />
    <path
       id="ellipse2143"
       style="opacity:1;fill:none;fill-opacity:1;stroke:#b3b3b3;stroke-width:1;stroke-linecap:round;stroke-miterlimit:4;stroke-dasharray:none"
       d="m 854.59953,1298.2442 c 4.71226,11.2455 3.19683,24.8726 -5.71428,39.5584 -23.4035,38.5697 -88.95704,69.8365 -146.41804,69.8365 -40.3418,0 -65.96942,-15.4117 -69.55993,-37.9421 m 54.54637,-74.0428 c 22.01011,-12.6779 48.26906,-21.9727 74.37094,-25.7831"
       sodipodi:nodetypes="cssccc" />
    <ellipse
       style="opacity:1;fill:none;fill-opacity:1;stroke:#b3b3b3;stroke-width:1.08152;stroke-linecap:round;stroke-miterlimit:4;stroke-dasharray:none"
       id="ellipse2148"
       cx="1461.4401"
       cy="1449.8712"
       rx="84.349907"
       ry="66.226318"
       transform="matrix(1,0,-0.51875428,0.85492339,0,0)" />
    <path
       id="ellipse2127"
       style="opacity:1;fill:none;fill-opacity:1;stroke:#b3b3b3;stroke-width:1;stroke-linecap:round;stroke-miterlimit:4;stroke-dasharray:none"
       d="m 607.71346,1273.7578 28.32433,108.5482 c 0.2342,5.2036 1.56105,10.1158 3.95222,14.632 l 0.13196,0.4879 0.10914,-0.04 c 9.53172,17.3852 34.28894,27.5593 67.06199,27.5593 58.55133,0 125.34887,-31.8602 149.19645,-71.1618 8.4801,-13.9755 10.64174,-27.6417 8.37503,-33.6317 l -56.71436,-120.3841"
       sodipodi:nodetypes="cccccsscc" />
    <path
       style="color:#000000;font-style:normal;font-variant:normal;font-weight:normal;font-stretch:normal;font-size:medium;line-height:normal;font-family:sans-serif;font-variant-ligatures:normal;font-variant-position:normal;font-variant-caps:normal;font-variant-numeric:normal;font-variant-alternates:normal;font-variant-east-asian:normal;font-feature-settings:normal;font-variation-settings:normal;text-indent:0;text-align:start;text-decoration:none;text-decoration-line:none;text-decoration-style:solid;text-decoration-color:#000000;letter-spacing:normal;word-spacing:normal;text-transform:none;writing-mode:lr-tb;direction:ltr;text-orientation:mixed;dominant-baseline:auto;baseline-shift:baseline;text-anchor:start;white-space:normal;shape-padding:0;shape-margin:0;inline-size:0;clip-rule:nonzero;display:inline;overflow:visible;visibility:visible;opacity:1;isolation:auto;mix-blend-mode:normal;color-interpolation:sRGB;color-interpolation-filters:linearRGB;solid-color:#000000;solid-opacity:1;vector-effect:none;fill:#ffffff;fill-opacity:1;fill-rule:nonzero;stroke:#b3b3b3;stroke-width:1;stroke-linecap:round;stroke-linejoin:miter;stroke-miterlimit:4;stroke-dasharray:none;stroke-dashoffset:0;stroke-opacity:1;color-rendering:auto;image-rendering:auto;shape-rendering:auto;text-rendering:auto;enable-background:accumulate;stop-color:#000000;stop-opacity:1"
       d="m 802.27734,1017.4512 a 3.5,3.5 0 0 0 -3.41601,2.7168 c 0,0 -24.16425,103.6836 0.39453,181.4531 a 3.5,3.5 0 0 0 4.39062,2.2832 3.5,3.5 0 0 0 2.28516,-4.3906 c -23.61388,-74.7773 -0.24805,-177.7774 -0.24805,-177.7774 a 3.5,3.5 0 0 0 -2.62695,-4.1953 3.5,3.5 0 0 0 -0.7793,-0.09 z"
       id="path2227" />
    <path
       style="color:#000000;font-style:normal;font-variant:normal;font-weight:normal;font-stretch:normal;font-size:medium;line-height:normal;font-family:sans-serif;font-variant-ligatures:normal;font-variant-position:normal;font-variant-caps:normal;font-variant-numeric:normal;font-variant-alternates:normal;font-variant-east-asian:normal;font-feature-settings:normal;font-variation-settings:normal;text-indent:0;text-align:start;text-decoration:none;text-decoration-line:none;text-decoration-style:solid;text-decoration-color:#000000;letter-spacing:normal;word-spacing:normal;text-transform:none;writing-mode:lr-tb;direction:ltr;text-orientation:mixed;dominant-baseline:auto;baseline-shift:baseline;text-anchor:start;white-space:normal;shape-padding:0;shape-margin:0;inline-size:0;clip-rule:nonzero;display:inline;overflow:visible;visibility:visible;opacity:1;isolation:auto;mix-blend-mode:normal;color-interpolation:sRGB;color-interpolation-filters:linearRGB;solid-color:#000000;solid-opacity:1;vector-effect:none;fill:#ffffff;fill-opacity:1;fill-rule:nonzero;stroke:#b3b3b3;stroke-width:1;stroke-linecap:round;stroke-linejoin:miter;stroke-miterlimit:4;stroke-dasharray:none;stroke-dashoffset:0;stroke-opacity:1;color-rendering:auto;image-rendering:auto;shape-rendering:auto;text-rendering:auto;enable-background:accumulate;stop-color:#000000;stop-opacity:1"
       d="m 515.66139,1099.3313 a 3.5,3.5 0 0 0 -2.30664,0.8418 3.5,3.5 0 0 0 -0.38281,4.9355 c 23.94379,27.955 64.53587,82.6987 96.64648,165.4453 a 3.5,3.5 0 0 0 4.5293,1.9961 3.5,3.5 0 0 0 1.99609,-4.5293 C 583.6901,1184.39 542.62668,1128.9715 518.28834,1100.5559 a 3.5,3.5 0 0 0 -2.62695,-1.2246 z"
       id="path2239" />
    <path
       id="path2114"
       style="opacity:1;fill:#ffffff;fill-opacity:1;stroke:#b3b3b3;stroke-width:1;stroke-linecap:round;stroke-miterlimit:4;stroke-dasharray:none"
       d="m 220.85711,331.26448 c -39.45144,64.28329 -60.9114,139.7722 -60.91144,217.60315 1.6e-4,81.40378 28.64869,157.75738 67.3453,227.74007 112.4197,203.31063 268.74015,312.3791 289.23804,327.1519 24.08627,17.3591 105.87268,8.6278 160.49499,-4.387 56.1238,-13.3726 116.87038,-47.5566 126.31755,-77.3516 7.29669,-23.01268 77.002,-241.39755 93.50595,-412.3498 16.50396,-170.95227 2.6505,-287.11248 -67.97313,-360.91881 -44.87905,-46.90156 -94.81818,-78.57392 -158.49045,-88.83705"
       sodipodi:nodetypes="ccsssszsc" />
    <path
       id="ellipse2139"
       style="opacity:1;fill:none;fill-opacity:1;stroke:#b3b3b3;stroke-width:1;stroke-linecap:round;stroke-miterlimit:4;stroke-dasharray:none"
       d="m 824.28456,1234.2157 c 5.22533,10.9622 4.61059,23.9832 -4.24346,38.5749 -22.27163,36.7044 -84.655,66.4592 -139.337,66.4592 -36.6826,0 -60.37807,-13.9848 -65.32507,-34.138"
       sodipodi:nodetypes="cssc" />
    <path
       id="ellipse2141"
       style="opacity:1;fill:none;fill-opacity:1;stroke:#b3b3b3;stroke-width:1;stroke-linecap:round;stroke-miterlimit:4;stroke-dasharray:none"
       d="m 841.02437,1269.8816 c 4.6907,11.0335 4.18013,23.2447 -4.5807,37.6829 -22.90046,37.7406 -87.04506,68.3355 -143.27096,68.3355 -37.4799,0 -61.98022,-13.5947 -67.36794,-33.8386"
       sodipodi:nodetypes="cssc" />
    <path
       style="opacity:1;fill:none;stroke:#b3b3b3;stroke-width:1;stroke-linecap:butt;stroke-linejoin:miter;stroke-miterlimit:4;stroke-dasharray:none;stroke-opacity:1"
       d="m 807.9688,1233.5642 53.45391,111.7186"
       id="path2150" />
    <path
       style="opacity:1;fill:none;stroke:#b3b3b3;stroke-width:1;stroke-linecap:butt;stroke-linejoin:miter;stroke-miterlimit:4;stroke-dasharray:none;stroke-opacity:1"
       d="m 787.38906,1260.0239 50.51393,115.995"
       id="path2152" />
    <path
       style="opacity:1;fill:none;stroke:#b3b3b3;stroke-width:1;stroke-linecap:butt;stroke-linejoin:miter;stroke-miterlimit:4;stroke-dasharray:none;stroke-opacity:1"
       d="m 759.32577,1280.3363 43.29766,119.7368"
       id="path2154" />
    <path
       style="opacity:1;fill:none;stroke:#b3b3b3;stroke-width:1;stroke-linecap:butt;stroke-linejoin:miter;stroke-miterlimit:4;stroke-dasharray:none;stroke-opacity:1"
       d="m 725.91707,1294.5016 38.21954,120.8059"
       id="path2156" />
    <path
       style="opacity:1;fill:none;stroke:#b3b3b3;stroke-width:1;stroke-linecap:butt;stroke-linejoin:miter;stroke-miterlimit:4;stroke-dasharray:none;stroke-opacity:1"
       d="m 625.95825,1294.5016 36.88321,121.6077"
       id="path2158" />
    <path
       style="opacity:1;fill:none;stroke:#b3b3b3;stroke-width:1;stroke-linecap:butt;stroke-linejoin:miter;stroke-miterlimit:4;stroke-dasharray:none;stroke-opacity:1"
       d="m 656.96152,1303.0543 33.4087,120.2713"
       id="path2160" />
    <path
       style="opacity:1;fill:none;stroke:#b3b3b3;stroke-width:1;stroke-linecap:butt;stroke-linejoin:miter;stroke-miterlimit:4;stroke-dasharray:none;stroke-opacity:1"
       d="m 690.90476,1302.2524 33.4087,121.3404"
       id="path2162" />
    <path
       style="opacity:1;fill:none;stroke:#b3b3b3;stroke-width:1;stroke-linecap:butt;stroke-linejoin:miter;stroke-miterlimit:4;stroke-dasharray:none;stroke-opacity:1"
       d="M 751.23515,1070.2209 C 764.20768,766.58104 861.25204,70.383985 539.3202,128.5526 c -57.98341,10.4768 -91.40105,48.87229 -103.07538,64.87226"
       id="path2180"
       sodipodi:nodetypes="csc" />
    <path
       style="opacity:1;fill:none;stroke:#b3b3b3;stroke-width:1;stroke-linecap:butt;stroke-linejoin:miter;stroke-miterlimit:4;stroke-dasharray:none;stroke-opacity:1"
       d="m 549.79711,1112.9056 c 0,0 -309.10554,-385.35415 -336.93475,-669.95634 -11.56928,-118.31604 39.72398,-276.98948 223.51438,-249.39666 0,0 38.39761,198.27876 83.43224,409.6035 14.25914,66.91094 29.18366,135.12978 43.7654,198.77676 15.76798,68.82473 31.13513,132.30351 44.8267,183.0017 17.48282,64.73674 33.83725,109.57044 38.39118,120.22494"
       id="path2182"
       sodipodi:nodetypes="cscsssc" />
    <path
       style="opacity:1;fill:none;stroke:#b3b3b3;stroke-width:1;stroke-linecap:butt;stroke-linejoin:miter;stroke-miterlimit:4;stroke-dasharray:none;stroke-opacity:1"
       d="m 872.38077,313.08793 c -45.97036,-4.27631 -118.66769,26.72694 -118.66769,26.72694 -117.67606,-58.83802 -264.19008,14.4204 -283.3453,24.52934 -1.37958,0.72805 0,0 0,0 -64.51933,-25.83073 -224.36895,-33.40653 -257.19502,81.81153 0,0 -25.00198,-0.50212 -47.45262,31.57022"
       id="path2184"
       sodipodi:nodetypes="ccsccc" />
    <path
       style="opacity:1;fill:none;stroke:#b3b3b3;stroke-width:1;stroke-linecap:butt;stroke-linejoin:miter;stroke-miterlimit:4;stroke-dasharray:none;stroke-opacity:1"
       d="m 200.00661,724.20869 c 0,0 12.25641,-50.94889 76.40111,-56.29427 72.21201,-68.42346 141.47037,-87.65006 243.40126,-64.75832 63.82382,-25.30179 162.97202,-58.47762 253.46066,-12.83234 0,0 72.51388,-35.82985 125.83809,-17.39612"
       id="path2186"
       sodipodi:nodetypes="ccccc" />
    <path
       style="opacity:1;fill:none;stroke:#b3b3b3;stroke-width:1;stroke-linecap:butt;stroke-linejoin:miter;stroke-miterlimit:4;stroke-dasharray:none;stroke-opacity:1"
       d="m 314.32199,909.09897 c 0.2351,3.99666 9.21679,-26.60958 64.298,-43.84659 25.06716,-25.48323 100.40865,-66.80995 184.95439,-63.31952 74.81699,-30.32928 163.31959,-26.03994 204.47956,-14.37992 0,0 66.3051,-18.84779 98.77576,-1.03379"
       id="path2188"
       sodipodi:nodetypes="ccccc" />
    <path
       style="opacity:1;fill:none;stroke:#b3b3b3;stroke-width:1;stroke-linecap:butt;stroke-linejoin:miter;stroke-miterlimit:4;stroke-dasharray:none;stroke-opacity:1"
       d="m 422.29889,1026.6976 c 0,0 25.52423,4.1426 48.50941,-19.9116 79.71772,21.2108 101.76707,-5.6127 137.59278,-21.85144 59.96772,9.18793 101.17098,0.4388 150.12287,-30.39976 0.86442,1.24261 50.42615,-11.10096 75.90455,-36.34866"
       id="path2190"
       sodipodi:nodetypes="ccccc" />
    <path
       style="color:#000000;font-style:normal;font-variant:normal;font-weight:normal;font-stretch:normal;font-size:medium;line-height:normal;font-family:sans-serif;font-variant-ligatures:normal;font-variant-position:normal;font-variant-caps:normal;font-variant-numeric:normal;font-variant-alternates:normal;font-variant-east-asian:normal;font-feature-settings:normal;font-variation-settings:normal;text-indent:0;text-align:start;text-decoration:none;text-decoration-line:none;text-decoration-style:solid;text-decoration-color:#000000;letter-spacing:normal;word-spacing:normal;text-transform:none;writing-mode:lr-tb;direction:ltr;text-orientation:mixed;dominant-baseline:auto;baseline-shift:baseline;text-anchor:start;white-space:normal;shape-padding:0;shape-margin:0;inline-size:0;clip-rule:nonzero;display:inline;overflow:visible;visibility:visible;opacity:1;isolation:auto;mix-blend-mode:normal;color-interpolation:sRGB;color-interpolation-filters:linearRGB;solid-color:#000000;solid-opacity:1;vector-effect:none;fill:#ffffff;fill-opacity:1;fill-rule:nonzero;stroke:#b3b3b3;stroke-width:1;stroke-linecap:round;stroke-linejoin:miter;stroke-miterlimit:4;stroke-dasharray:none;stroke-dashoffset:0;stroke-opacity:1;color-rendering:auto;image-rendering:auto;shape-rendering:auto;text-rendering:auto;enable-background:accumulate;stop-color:#000000;stop-opacity:1"
       d="m 687.96763,1090.067 a 3.5,3.5 0 0 0 -0.77148,0.1035 3.5,3.5 0 0 0 -2.55274,4.2402 c 9.79838,39.4812 23.86124,101.782 40.90235,193.002 a 3.5,3.5 0 0 0 4.08398,2.7988 3.5,3.5 0 0 0 2.79688,-4.084 c -17.06312,-91.3378 -31.15436,-153.7719 -40.99024,-193.4043 a 3.5,3.5 0 0 0 -3.46875,-2.6562 z"
       id="path2231" />
  </g>
  <g
     inkscape:groupmode="layer"
     id="layer3"
     inkscape:label="Layer 3">
    <g
       aria-label="1"
       id="text1991"
       style="font-style:normal;font-weight:normal;font-size:10.5833px;line-height:1.25;font-family:sans-serif;fill:#ececec;fill-opacity:1;stroke:none;stroke-width:0.264583">
      <path
         d="m 59.171486,62.269825 h -4.165107 v -0.785479 h 1.601964 v -5.157292 h -1.601964 v -0.702797 q 0.32556,0 0.697629,-0.05168 0.372069,-0.05684 0.563272,-0.160197 0.23771,-0.12919 0.372069,-0.32556 0.139526,-0.201538 0.160196,-0.537433 h 0.800982 v 6.934955 h 1.570959 z"
         style="stroke-width:0.264583;fill:#ececec;stroke:none"
         id="path2748" />
    </g>
    <g
       aria-label="5"
       id="text2346"
       style="font-style:normal;font-weight:normal;font-size:10.5833px;line-height:1.25;font-family:sans-serif;fill:#ececec;fill-opacity:1;stroke:none;stroke-width:0.264583">
      <path
         d="m 59.548723,207.82553 q 0,0.53744 -0.19637,1.02836 -0.19637,0.49093 -0.537433,0.82682 -0.37207,0.36174 -0.888832,0.55811 -0.511595,0.1912 -1.188554,0.1912 -0.630451,0 -1.214393,-0.13436 -0.583941,-0.12919 -0.987016,-0.31523 v -1.09037 h 0.07235 q 0.423746,0.26872 0.992185,0.45992 0.568439,0.18604 1.116207,0.18604 0.366902,0 0.707965,-0.10335 0.346231,-0.10336 0.614948,-0.36174 0.227375,-0.22221 0.341063,-0.53226 0.118855,-0.31006 0.118855,-0.7183 0,-0.39791 -0.139526,-0.6718 -0.134358,-0.27388 -0.377236,-0.43924 -0.268717,-0.19637 -0.656289,-0.27389 -0.382404,-0.0827 -0.857826,-0.0827 -0.454751,0 -0.878496,0.062 -0.418578,0.062 -0.723468,0.12402 v -3.96357 h 4.630193 v 0.90434 h -3.632841 v 2.04638 q 0.222208,-0.0207 0.454751,-0.031 0.232543,-0.0103 0.403075,-0.0103 0.625283,0 1.095537,0.10852 0.470254,0.10335 0.862993,0.37207 0.41341,0.28422 0.640786,0.7338 0.227376,0.44958 0.227376,1.12654 z"
         style="stroke-width:0.264583;fill:#ececec;stroke:none"
         id="path2751" />
    </g>
    <g
       aria-label="9"
       id="text2338"
       style="font-style:normal;font-weight:normal;font-size:10.5833px;line-height:1.25;font-family:sans-serif;fill:#ececec;fill-opacity:1;stroke:none;stroke-width:0.264583">
      <path
         d="m 59.600399,353.96001 q 0,1.00768 -0.232543,1.82934 -0.227376,0.82165 -0.692462,1.40042 -0.470254,0.58911 -1.178219,0.9095 -0.707965,0.3204 -1.663976,0.3204 -0.268717,0 -0.506427,-0.031 -0.237711,-0.0258 -0.423746,-0.0879 v -0.98702 h 0.05168 q 0.149862,0.0775 0.423746,0.14987 0.273884,0.0672 0.60978,0.0672 1.142045,0 1.787999,-0.68213 0.651121,-0.6873 0.754473,-1.89135 -0.480589,0.28938 -0.904335,0.41341 -0.423745,0.12402 -0.925005,0.12402 -0.475421,0 -0.862993,-0.093 -0.382405,-0.093 -0.769977,-0.36173 -0.454751,-0.31523 -0.687294,-0.80098 -0.227376,-0.48576 -0.227376,-1.16272 0,-1.17822 0.775144,-1.91719 0.775144,-0.73897 1.891352,-0.73897 0.558103,0 1.033525,0.1757 0.475422,0.17053 0.831988,0.51676 0.439248,0.42892 0.676959,1.10587 0.237711,0.6718 0.237711,1.7415 z m -1.043861,-0.22221 q 0,-0.80098 -0.165364,-1.28674 -0.165364,-0.48576 -0.454751,-0.75448 -0.242878,-0.23254 -0.52193,-0.33072 -0.279052,-0.10336 -0.604613,-0.10336 -0.744138,0 -1.178218,0.46509 -0.428913,0.46509 -0.428913,1.30741 0,0.49092 0.139525,0.80098 0.139526,0.31006 0.470254,0.5426 0.232544,0.1602 0.511596,0.21704 0.279051,0.0517 0.620115,0.0517 0.403075,0 0.816485,-0.10852 0.41341,-0.10852 0.775144,-0.31523 0.0052,-0.10852 0.01033,-0.21187 0.01034,-0.10852 0.01034,-0.27388 z"
         style="stroke-width:0.264583;fill:#ececec;stroke:none"
         id="path2754" />
    </g>
    <g
       aria-label="13"
       id="text2330"
       style="font-style:normal;font-weight:normal;font-size:10.5833px;line-height:1.25;font-family:sans-serif;fill:#ececec;fill-opacity:1;stroke:none;stroke-width:0.264583">
      <path
         d="m 59.171486,506.26981 h -4.165107 v -0.78548 h 1.601964 v -5.15729 h -1.601964 v -0.7028 q 0.32556,0 0.697629,-0.0517 0.372069,-0.0568 0.563272,-0.16019 0.23771,-0.1292 0.372069,-0.32557 0.139526,-0.20153 0.160196,-0.53743 h 0.800982 v 6.93496 h 1.570959 z"
         style="stroke-width:0.264583;fill:#ececec;stroke:none"
         id="path2757" />
      <path
         d="m 65.662025,502.56462 q 0.248046,0.22221 0.408243,0.5581 0.160196,0.3359 0.160196,0.86816 0,0.5271 -0.191202,0.96635 -0.191202,0.43925 -0.537433,0.76481 -0.387572,0.36173 -0.91467,0.53743 -0.521931,0.17053 -1.147213,0.17053 -0.640786,0 -1.260901,-0.15503 -0.620116,-0.14986 -1.018023,-0.33072 v -1.08004 h 0.07751 q 0.439248,0.28939 1.033525,0.48059 0.594277,0.1912 1.147213,0.1912 0.325561,0 0.692462,-0.10852 0.366902,-0.10852 0.594277,-0.32039 0.237711,-0.22738 0.351399,-0.50126 0.118855,-0.27388 0.118855,-0.69246 0,-0.41341 -0.134358,-0.68213 -0.129191,-0.27388 -0.361734,-0.42891 -0.232543,-0.1602 -0.563271,-0.21704 -0.330728,-0.062 -0.713133,-0.062 h -0.465086 v -0.85783 h 0.361734 q 0.785479,0 1.250565,-0.32556 0.470254,-0.33073 0.470254,-0.96118 0,-0.27905 -0.118855,-0.48576 -0.118855,-0.21187 -0.330728,-0.34623 -0.222208,-0.13435 -0.475422,-0.18603 -0.253214,-0.0517 -0.573606,-0.0517 -0.490925,0 -1.043861,0.1757 -0.552936,0.1757 -1.043861,0.49609 h -0.05168 v -1.08003 q 0.366902,-0.18087 0.976682,-0.33073 0.614947,-0.15503 1.188554,-0.15503 0.563271,0 0.992184,0.10336 0.428913,0.10335 0.775144,0.33072 0.372069,0.24805 0.563271,0.59945 0.191203,0.3514 0.191203,0.82165 0,0.64079 -0.454752,1.12138 -0.449583,0.47542 -1.064531,0.59944 v 0.0723 q 0.248046,0.0413 0.568439,0.1757 0.320393,0.12919 0.542601,0.32556 z"
         style="stroke-width:0.264583;fill:#ececec;stroke:none"
         id="path2759" />
    </g>
    <g
       aria-label="17"
       id="text2322"
       style="font-style:normal;font-weight:normal;font-size:10.5833px;line-height:1.25;font-family:sans-serif;fill:#ececec;fill-opacity:1;stroke:none;stroke-width:0.264583">
      <path
         d="m 59.171486,654.26984 h -4.165107 v -0.78548 h 1.601964 v -5.15729 h -1.601964 v -0.7028 q 0.32556,0 0.697629,-0.0517 0.372069,-0.0568 0.563272,-0.16019 0.23771,-0.12919 0.372069,-0.32556 0.139526,-0.20154 0.160196,-0.53744 h 0.800982 v 6.93496 h 1.570959 z"
         style="stroke-width:0.264583;fill:#ececec;stroke:none"
         id="path2762" />
      <path
         d="m 66.359655,647.72762 -3.482981,6.54222 h -1.105872 l 3.705188,-6.79027 h -4.382147 v -0.90433 h 5.265812 z"
         style="stroke-width:0.264583;fill:#ececec;stroke:none"
         id="path2764" />
    </g>
    <g
       aria-label="21"
       id="text2314"
       style="font-style:normal;font-weight:normal;font-size:10.5833px;line-height:1.25;font-family:sans-serif;fill:#ececec;fill-opacity:1;stroke:none;stroke-width:0.264583">
      <path
         d="m 59.610734,802.26978 h -5.208968 v -1.08004 q 0.542601,-0.46509 1.085202,-0.93017 0.547768,-0.46509 1.018022,-0.92501 0.992185,-0.96118 1.359086,-1.52445 0.366902,-0.56844 0.366902,-1.22472 0,-0.59945 -0.397907,-0.93534 -0.39274,-0.34107 -1.100705,-0.34107 -0.470254,0 -1.018022,0.16537 -0.547769,0.16536 -1.069699,0.50642 h -0.05168 v -1.0852 q 0.366901,-0.18086 0.976681,-0.33073 0.614948,-0.14986 1.188554,-0.14986 1.183387,0 1.855178,0.57361 0.671792,0.56844 0.671792,1.54512 0,0.43925 -0.113688,0.82165 -0.10852,0.37724 -0.325561,0.7183 -0.201537,0.3204 -0.475421,0.63045 -0.268717,0.31006 -0.656289,0.6873 -0.552936,0.5426 -1.142045,1.05419 -0.58911,0.50643 -1.100705,0.94051 h 4.139269 z"
         style="stroke-width:0.264583;fill:#ececec;stroke:none"
         id="path2767" />
      <path
         d="m 65.899736,802.26978 h -4.165107 v -0.78548 h 1.601964 v -5.1573 h -1.601964 v -0.70279 q 0.32556,0 0.697629,-0.0517 0.372069,-0.0568 0.563272,-0.1602 0.23771,-0.12919 0.372069,-0.32556 0.139526,-0.20153 0.160196,-0.53743 h 0.800982 v 6.93496 h 1.570959 z"
         style="stroke-width:0.264583;fill:#ececec;stroke:none"
         id="path2769" />
    </g>
    <g
       aria-label="25"
       id="text2306"
       style="font-style:normal;font-weight:normal;font-size:10.5833px;line-height:1.25;font-family:sans-serif;fill:#ececec;fill-opacity:1;stroke:none;stroke-width:0.264583">
      <path
         d="m 59.610734,950.26978 h -5.208968 v -1.08004 q 0.542601,-0.46509 1.085202,-0.93017 0.547768,-0.46509 1.018022,-0.92501 0.992185,-0.96118 1.359086,-1.52445 0.366902,-0.56844 0.366902,-1.22472 0,-0.59945 -0.397907,-0.93534 -0.39274,-0.34107 -1.100705,-0.34107 -0.470254,0 -1.018022,0.16537 -0.547769,0.16536 -1.069699,0.50642 h -0.05168 v -1.0852 q 0.366901,-0.18086 0.976681,-0.33073 0.614948,-0.14986 1.188554,-0.14986 1.183387,0 1.855178,0.57361 0.671792,0.56844 0.671792,1.54512 0,0.43925 -0.113688,0.82165 -0.10852,0.37724 -0.325561,0.7183 -0.201537,0.3204 -0.475421,0.63045 -0.268717,0.31006 -0.656289,0.6873 -0.552936,0.5426 -1.142045,1.05419 -0.58911,0.50643 -1.100705,0.94051 h 4.139269 z"
         style="stroke-width:0.264583;fill:#ececec;stroke:none"
         id="path2772" />
      <path
         d="m 66.276973,947.82549 q 0,0.53743 -0.19637,1.02836 -0.19637,0.49092 -0.537433,0.82682 -0.372069,0.36173 -0.888832,0.5581 -0.511595,0.1912 -1.188554,0.1912 -0.630451,0 -1.214393,-0.13436 -0.583941,-0.12919 -0.987016,-0.31522 v -1.09037 h 0.07235 q 0.423746,0.26872 0.992185,0.45992 0.568439,0.18603 1.116207,0.18603 0.366902,0 0.707965,-0.10335 0.346231,-0.10335 0.614948,-0.36173 0.227375,-0.22221 0.341063,-0.53227 0.118855,-0.31006 0.118855,-0.7183 0,-0.39791 -0.139526,-0.67179 -0.134358,-0.27389 -0.377236,-0.43925 -0.268717,-0.19637 -0.656289,-0.27388 -0.382404,-0.0827 -0.857826,-0.0827 -0.454751,0 -0.878496,0.062 -0.418578,0.062 -0.723468,0.12402 v -3.96357 h 4.630193 v 0.90433 h -3.632841 v 2.04638 q 0.222208,-0.0207 0.454751,-0.031 0.232543,-0.0103 0.403075,-0.0103 0.625283,0 1.095537,0.10852 0.470254,0.10336 0.862993,0.37207 0.41341,0.28422 0.640786,0.73381 0.227376,0.44958 0.227376,1.12654 z"
         style="stroke-width:0.264583;fill:#ececec;stroke:none"
         id="path2774" />
    </g>
    <g
       aria-label="29"
       id="text2298"
       style="font-style:normal;font-weight:normal;font-size:10.5833px;line-height:1.25;font-family:sans-serif;fill:#ececec;fill-opacity:1;stroke:none;stroke-width:0.264583">
      <path
         d="m 59.610734,1098.2698 h -5.208968 v -1.0801 q 0.542601,-0.465 1.085202,-0.9301 0.547768,-0.4651 1.018022,-0.925 0.992185,-0.9612 1.359086,-1.5245 0.366902,-0.5684 0.366902,-1.2247 0,-0.5995 -0.397907,-0.9354 -0.39274,-0.341 -1.100705,-0.341 -0.470254,0 -1.018022,0.1653 -0.547769,0.1654 -1.069699,0.5065 h -0.05168 v -1.0852 q 0.366901,-0.1809 0.976681,-0.3308 0.614948,-0.1498 1.188554,-0.1498 1.183387,0 1.855178,0.5736 0.671792,0.5684 0.671792,1.5451 0,0.4393 -0.113688,0.8217 -0.10852,0.3772 -0.325561,0.7183 -0.201537,0.3204 -0.475421,0.6304 -0.268717,0.3101 -0.656289,0.6873 -0.552936,0.5426 -1.142045,1.0542 -0.58911,0.5064 -1.100705,0.9405 h 4.139269 z"
         style="stroke-width:0.264583;fill:#ececec;stroke:none"
         id="path2777" />
      <path
         d="m 66.328649,1093.96 q 0,1.0077 -0.232543,1.8293 -0.227376,0.8217 -0.692462,1.4004 -0.470254,0.5892 -1.178219,0.9095 -0.707965,0.3204 -1.663976,0.3204 -0.268717,0 -0.506427,-0.031 -0.237711,-0.026 -0.423746,-0.088 v -0.987 h 0.05168 q 0.149862,0.078 0.423746,0.1498 0.273884,0.067 0.60978,0.067 1.142045,0 1.787999,-0.6821 0.651121,-0.6873 0.754473,-1.8914 -0.480589,0.2894 -0.904335,0.4134 -0.423745,0.1241 -0.925005,0.1241 -0.475421,0 -0.862993,-0.093 -0.382405,-0.093 -0.769977,-0.3617 -0.454751,-0.3152 -0.687294,-0.801 -0.227376,-0.4857 -0.227376,-1.1627 0,-1.1782 0.775144,-1.9172 0.775144,-0.7389 1.891352,-0.7389 0.558103,0 1.033525,0.1756 0.475422,0.1706 0.831988,0.5168 0.439248,0.4289 0.676959,1.1059 0.237711,0.6718 0.237711,1.7415 z m -1.043861,-0.2222 q 0,-0.801 -0.165364,-1.2868 -0.165364,-0.4857 -0.454751,-0.7544 -0.242878,-0.2326 -0.52193,-0.3308 -0.279052,-0.1033 -0.604613,-0.1033 -0.744138,0 -1.178218,0.4651 -0.428913,0.465 -0.428913,1.3074 0,0.4909 0.139525,0.801 0.139526,0.31 0.470254,0.5426 0.232544,0.1601 0.511596,0.217 0.279051,0.052 0.620115,0.052 0.403075,0 0.816485,-0.1086 0.41341,-0.1085 0.775144,-0.3152 0.0052,-0.1085 0.01033,-0.2118 0.01034,-0.1086 0.01034,-0.2739 z"
         style="stroke-width:0.264583;fill:#ececec;stroke:none"
         id="path2779" />
    </g>
    <g
       aria-label="33"
       id="text2290"
       style="font-style:normal;font-weight:normal;font-size:10.5833px;line-height:1.25;font-family:sans-serif;fill:#ececec;fill-opacity:1;stroke:none;stroke-width:0.264583">
      <path
         d="m 58.933775,1242.5646 q 0.248046,0.2222 0.408243,0.5581 0.160196,0.3359 0.160196,0.8682 0,0.527 -0.191202,0.9663 -0.191202,0.4392 -0.537433,0.7648 -0.387572,0.3617 -0.91467,0.5374 -0.521931,0.1706 -1.147213,0.1706 -0.640786,0 -1.260901,-0.1551 -0.620116,-0.1498 -1.018023,-0.3307 v -1.08 h 0.07751 q 0.439248,0.2894 1.033525,0.4806 0.594277,0.1912 1.147213,0.1912 0.325561,0 0.692462,-0.1085 0.366902,-0.1086 0.594277,-0.3204 0.237711,-0.2274 0.351399,-0.5013 0.118855,-0.2739 0.118855,-0.6925 0,-0.4134 -0.134358,-0.6821 -0.129191,-0.2739 -0.361734,-0.4289 -0.232543,-0.1602 -0.563271,-0.217 -0.330728,-0.062 -0.713133,-0.062 h -0.465086 v -0.8578 h 0.361734 q 0.785479,0 1.250565,-0.3255 0.470254,-0.3308 0.470254,-0.9612 0,-0.2791 -0.118855,-0.4858 -0.118856,-0.2118 -0.330728,-0.3462 -0.222208,-0.1344 -0.475422,-0.186 -0.253214,-0.052 -0.573606,-0.052 -0.490925,0 -1.043861,0.1757 -0.552936,0.1757 -1.043861,0.4961 h -0.05168 v -1.0801 q 0.366902,-0.1808 0.976682,-0.3307 0.614947,-0.155 1.188554,-0.155 0.563271,0 0.992184,0.1033 0.428913,0.1034 0.775144,0.3308 0.372069,0.248 0.563271,0.5994 0.191203,0.3514 0.191203,0.8217 0,0.6407 -0.454752,1.1213 -0.449583,0.4755 -1.064531,0.5995 v 0.072 q 0.248046,0.041 0.568439,0.1757 0.320393,0.1292 0.542601,0.3256 z"
         style="stroke-width:0.264583;fill:#ececec;stroke:none"
         id="path2782" />
      <path
         d="m 65.662025,1242.5646 q 0.248046,0.2222 0.408243,0.5581 0.160196,0.3359 0.160196,0.8682 0,0.527 -0.191202,0.9663 -0.191202,0.4392 -0.537433,0.7648 -0.387572,0.3617 -0.91467,0.5374 -0.521931,0.1706 -1.147213,0.1706 -0.640786,0 -1.260901,-0.1551 -0.620116,-0.1498 -1.018023,-0.3307 v -1.08 h 0.07751 q 0.439248,0.2894 1.033525,0.4806 0.594277,0.1912 1.147213,0.1912 0.325561,0 0.692462,-0.1085 0.366902,-0.1086 0.594277,-0.3204 0.237711,-0.2274 0.351399,-0.5013 0.118855,-0.2739 0.118855,-0.6925 0,-0.4134 -0.134358,-0.6821 -0.129191,-0.2739 -0.361734,-0.4289 -0.232543,-0.1602 -0.563271,-0.217 -0.330728,-0.062 -0.713133,-0.062 h -0.465086 v -0.8578 h 0.361734 q 0.785479,0 1.250565,-0.3255 0.470254,-0.3308 0.470254,-0.9612 0,-0.2791 -0.118855,-0.4858 -0.118855,-0.2118 -0.330728,-0.3462 -0.222208,-0.1344 -0.475422,-0.186 -0.253214,-0.052 -0.573606,-0.052 -0.490925,0 -1.043861,0.1757 -0.552936,0.1757 -1.043861,0.4961 h -0.05168 v -1.0801 q 0.366902,-0.1808 0.976682,-0.3307 0.614947,-0.155 1.188554,-0.155 0.563271,0 0.992184,0.1033 0.428913,0.1034 0.775144,0.3308 0.372069,0.248 0.563271,0.5994 0.191203,0.3514 0.191203,0.8217 0,0.6407 -0.454752,1.1213 -0.449583,0.4755 -1.064531,0.5995 v 0.072 q 0.248046,0.041 0.568439,0.1757 0.320393,0.1292 0.542601,0.3256 z"
         style="stroke-width:0.264583;fill:#ececec;stroke:none"
         id="path2784" />
    </g>
    <g
       aria-label="2"
       id="text2282"
       style="font-style:normal;font-weight:normal;font-size:10.5833px;line-height:1.25;font-family:sans-serif;fill:#ececec;fill-opacity:1;stroke:none;stroke-width:0.264583">
      <path
         d="m 269.61072,62.269825 h -5.20897 v -1.080034 q 0.5426,-0.465086 1.0852,-0.930173 0.54777,-0.465086 1.01803,-0.925005 0.99218,-0.961179 1.35908,-1.52445 0.3669,-0.568439 0.3669,-1.224727 0,-0.599445 -0.3979,-0.935341 -0.39274,-0.341063 -1.10071,-0.341063 -0.47025,0 -1.01802,0.165364 -0.54777,0.165364 -1.0697,0.506427 h -0.0517 v -1.085201 q 0.3669,-0.180867 0.97668,-0.330729 0.61495,-0.149861 1.18856,-0.149861 1.18339,0 1.85518,0.573607 0.67179,0.568439 0.67179,1.54512 0,0.439249 -0.11369,0.821653 -0.10852,0.377237 -0.32556,0.7183 -0.20154,0.320393 -0.47542,0.630451 -0.26872,0.310057 -0.65629,0.687294 -0.55294,0.542601 -1.14205,1.054196 -0.58911,0.506427 -1.1007,0.940508 h 4.13927 z"
         style="stroke-width:0.264583;fill:#ececec;stroke:none"
         id="path2787" />
    </g>
    <g
       aria-label="6"
       id="text2274"
       style="font-style:normal;font-weight:normal;font-size:10.5833px;line-height:1.25;font-family:sans-serif;fill:#ececec;fill-opacity:1;stroke:none;stroke-width:0.264583">
      <path
         d="m 269.72441,207.77386 q 0,1.17305 -0.77515,1.91719 -0.76997,0.73897 -1.89135,0.73897 -0.56844,0 -1.03352,-0.1757 -0.46509,-0.1757 -0.82166,-0.52193 -0.44441,-0.42892 -0.68729,-1.13688 -0.23771,-0.70796 -0.23771,-1.70532 0,-1.02319 0.21704,-1.81383 0.22221,-0.79065 0.7028,-1.4056 0.45475,-0.58394 1.17305,-0.9095 0.7183,-0.33073 1.67431,-0.33073 0.30489,0 0.51159,0.0258 0.20671,0.0258 0.41858,0.093 v 0.98701 h -0.0517 q -0.14469,-0.0775 -0.43924,-0.14469 -0.28939,-0.0724 -0.59428,-0.0724 -1.11104,0 -1.7725,0.69763 -0.66145,0.69246 -0.76997,1.87585 0.43408,-0.26355 0.85266,-0.39791 0.42374,-0.13952 0.97668,-0.13952 0.49092,0 0.86299,0.093 0.37724,0.0879 0.76998,0.36173 0.45475,0.31522 0.68212,0.79581 0.23255,0.48059 0.23255,1.16789 z m -1.04903,0.0413 q 0,-0.48059 -0.1447,-0.79582 -0.13952,-0.31522 -0.46508,-0.54776 -0.23771,-0.16537 -0.5271,-0.21704 -0.28939,-0.0517 -0.60461,-0.0517 -0.43925,0 -0.81649,0.10335 -0.37723,0.10335 -0.77514,0.32039 -0.0103,0.11369 -0.0155,0.22221 -0.005,0.10335 -0.005,0.26355 0,0.81649 0.16536,1.29191 0.17053,0.47025 0.46509,0.74414 0.23771,0.22737 0.51159,0.33589 0.27906,0.10335 0.60462,0.10335 0.7493,0 1.17822,-0.45475 0.42891,-0.45992 0.42891,-1.31774 z"
         style="stroke-width:0.264583;fill:#ececec;stroke:none"
         id="path2790" />
    </g>
    <g
       aria-label="10"
       id="text2266"
       style="font-style:normal;font-weight:normal;font-size:10.5833px;line-height:1.25;font-family:sans-serif;fill:#ececec;fill-opacity:1;stroke:none;stroke-width:0.264583">
      <path
         d="m 269.17147,358.26981 h -4.16511 v -0.78548 h 1.60197 v -5.15729 h -1.60197 v -0.7028 q 0.32556,0 0.69763,-0.0517 0.37207,-0.0568 0.56327,-0.16019 0.23772,-0.1292 0.37207,-0.32557 0.13953,-0.20153 0.1602,-0.53743 h 0.80098 v 6.93496 h 1.57096 z"
         style="stroke-width:0.264583;fill:#ececec;stroke:none"
         id="path2793" />
      <path
         d="m 276.32863,354.41992 q 0,2.07222 -0.65112,3.04374 -0.64595,0.96634 -2.0102,0.96634 -1.38493,0 -2.02571,-0.98185 -0.63562,-0.98185 -0.63562,-3.01789 0,-2.05155 0.64595,-3.02823 0.64595,-0.98185 2.01538,-0.98185 1.38492,0 2.02054,0.99735 0.64078,0.99219 0.64078,3.00239 z m -1.35908,2.34611 q 0.18086,-0.41858 0.24288,-0.98185 0.0672,-0.56844 0.0672,-1.36426 0,-0.78548 -0.0672,-1.36425 -0.062,-0.57877 -0.24805,-0.98185 -0.18087,-0.39791 -0.49609,-0.59944 -0.31006,-0.20154 -0.80098,-0.20154 -0.48576,0 -0.80615,0.20154 -0.31523,0.20153 -0.50126,0.60978 -0.1757,0.3824 -0.24288,0.99735 -0.062,0.61495 -0.062,1.34875 0,0.80615 0.0568,1.34875 0.0568,0.5426 0.24288,0.97151 0.17053,0.40308 0.48059,0.61495 0.31522,0.21187 0.83199,0.21187 0.48575,0 0.80615,-0.20153 0.32039,-0.20154 0.49609,-0.60978 z"
         style="stroke-width:0.264583;fill:#ececec;stroke:none"
         id="path2795" />
    </g>
    <g
       aria-label="14"
       id="text2258"
       style="font-style:normal;font-weight:normal;font-size:10.5833px;line-height:1.25;font-family:sans-serif;fill:#ececec;fill-opacity:1;stroke:none;stroke-width:0.264583">
      <path
         d="m 269.17147,506.26981 h -4.16511 v -0.78548 h 1.60197 v -5.15729 h -1.60197 v -0.7028 q 0.32556,0 0.69763,-0.0517 0.37207,-0.0568 0.56327,-0.16019 0.23772,-0.1292 0.37207,-0.32557 0.13953,-0.20153 0.1602,-0.53743 h 0.80098 v 6.93496 h 1.57096 z"
         style="stroke-width:0.264583;fill:#ececec;stroke:none"
         id="path2798" />
      <path
         d="m 276.51467,504.10457 h -1.14205 v 2.16524 h -0.99218 v -2.16524 h -3.68452 v -1.18855 l 3.72586,-4.34081 h 0.95084 v 4.70254 h 1.14205 z m -2.13423,-0.82682 v -3.47265 l -2.98172,3.47265 z"
         style="stroke-width:0.264583;fill:#ececec;stroke:none"
         id="path2800" />
    </g>
    <g
       aria-label="18"
       id="text2250"
       style="font-style:normal;font-weight:normal;font-size:10.5833px;line-height:1.25;font-family:sans-serif;fill:#ececec;fill-opacity:1;stroke:none;stroke-width:0.264583">
      <path
         d="m 269.17147,654.26984 h -4.16511 v -0.78548 h 1.60197 v -5.15729 h -1.60197 v -0.7028 q 0.32556,0 0.69763,-0.0517 0.37207,-0.0568 0.56327,-0.16019 0.23772,-0.12919 0.37207,-0.32556 0.13953,-0.20154 0.1602,-0.53744 h 0.80098 v 6.93496 h 1.57096 z"
         style="stroke-width:0.264583;fill:#ececec;stroke:none"
         id="path2803" />
      <path
         d="m 276.39581,652.12527 q 0,0.99735 -0.78031,1.65881 -0.77514,0.66146 -1.95336,0.66146 -1.25057,0 -1.99471,-0.64596 -0.73897,-0.64595 -0.73897,-1.65364 0,-0.64078 0.37207,-1.15755 0.37207,-0.52193 1.04903,-0.82682 v -0.031 q -0.62011,-0.33073 -0.91984,-0.72347 -0.29455,-0.39274 -0.29455,-0.98185 0,-0.86816 0.71313,-1.44693 0.71313,-0.57878 1.81384,-0.57878 1.15238,0 1.83967,0.55294 0.6873,0.55293 0.6873,1.40559 0,0.52193 -0.32556,1.02836 -0.32556,0.50126 -0.95601,0.78548 v 0.031 q 0.72346,0.31006 1.10587,0.76481 0.3824,0.45475 0.3824,1.15755 z m -1.22472,-3.75686 q 0,-0.55294 -0.42892,-0.8785 -0.42374,-0.33073 -1.0852,-0.33073 -0.65112,0 -1.0697,0.31006 -0.41341,0.31006 -0.41341,0.83716 0,0.37206 0.20671,0.64595 0.21187,0.26872 0.63561,0.48059 0.19121,0.093 0.54777,0.24288 0.36174,0.14986 0.7028,0.24804 0.5116,-0.34106 0.70797,-0.70796 0.19637,-0.3669 0.19637,-0.84749 z m 0.16019,3.85505 q 0,-0.47543 -0.21187,-0.75964 -0.20671,-0.28939 -0.81649,-0.57878 -0.24287,-0.11369 -0.53226,-0.21187 -0.28939,-0.0982 -0.76998,-0.27389 -0.46508,0.25322 -0.7493,0.6873 -0.27906,0.43408 -0.27906,0.98185 0,0.69763 0.48059,1.15238 0.48059,0.45475 1.21956,0.45475 0.75448,0 1.20406,-0.38757 0.45475,-0.38757 0.45475,-1.06453 z"
         style="stroke-width:0.264583;fill:#ececec;stroke:none"
         id="path2805" />
    </g>
    <g
       aria-label="22"
       id="text2242"
       style="font-style:normal;font-weight:normal;font-size:10.5833px;line-height:1.25;font-family:sans-serif;fill:#ececec;fill-opacity:1;stroke:none;stroke-width:0.264583">
      <path
         d="m 269.61072,802.26978 h -5.20897 v -1.08004 q 0.5426,-0.46509 1.0852,-0.93017 0.54777,-0.46509 1.01803,-0.92501 0.99218,-0.96118 1.35908,-1.52445 0.3669,-0.56844 0.3669,-1.22472 0,-0.59945 -0.3979,-0.93534 -0.39274,-0.34107 -1.10071,-0.34107 -0.47025,0 -1.01802,0.16537 -0.54777,0.16536 -1.0697,0.50642 h -0.0517 v -1.0852 q 0.3669,-0.18086 0.97668,-0.33073 0.61495,-0.14986 1.18856,-0.14986 1.18339,0 1.85518,0.57361 0.67179,0.56844 0.67179,1.54512 0,0.43925 -0.11369,0.82165 -0.10852,0.37724 -0.32556,0.7183 -0.20154,0.3204 -0.47542,0.63045 -0.26872,0.31006 -0.65629,0.6873 -0.55294,0.5426 -1.14205,1.05419 -0.58911,0.50643 -1.1007,0.94051 h 4.13927 z"
         style="stroke-width:0.264583;fill:#ececec;stroke:none"
         id="path2808" />
      <path
         d="M 276.33897,802.26978 H 271.13 v -1.08004 q 0.5426,-0.46509 1.0852,-0.93017 0.54777,-0.46509 1.01803,-0.92501 0.99218,-0.96118 1.35908,-1.52445 0.3669,-0.56844 0.3669,-1.22472 0,-0.59945 -0.3979,-0.93534 -0.39274,-0.34107 -1.10071,-0.34107 -0.47025,0 -1.01802,0.16537 -0.54777,0.16536 -1.0697,0.50642 h -0.0517 v -1.0852 q 0.3669,-0.18086 0.97668,-0.33073 0.61495,-0.14986 1.18856,-0.14986 1.18339,0 1.85518,0.57361 0.67179,0.56844 0.67179,1.54512 0,0.43925 -0.11369,0.82165 -0.10852,0.37724 -0.32556,0.7183 -0.20154,0.3204 -0.47542,0.63045 -0.26872,0.31006 -0.65629,0.6873 -0.55294,0.5426 -1.14205,1.05419 -0.58911,0.50643 -1.1007,0.94051 h 4.13927 z"
         style="stroke-width:0.264583;fill:#ececec;stroke:none"
         id="path2810" />
    </g>
    <g
       aria-label="26"
       id="text2234"
       style="font-style:normal;font-weight:normal;font-size:10.5833px;line-height:1.25;font-family:sans-serif;fill:#ececec;fill-opacity:1;stroke:none;stroke-width:0.264583">
      <path
         d="m 269.61072,950.26978 h -5.20897 v -1.08004 q 0.5426,-0.46509 1.0852,-0.93017 0.54777,-0.46509 1.01803,-0.92501 0.99218,-0.96118 1.35908,-1.52445 0.3669,-0.56844 0.3669,-1.22472 0,-0.59945 -0.3979,-0.93534 -0.39274,-0.34107 -1.10071,-0.34107 -0.47025,0 -1.01802,0.16537 -0.54777,0.16536 -1.0697,0.50642 h -0.0517 v -1.0852 q 0.3669,-0.18086 0.97668,-0.33073 0.61495,-0.14986 1.18856,-0.14986 1.18339,0 1.85518,0.57361 0.67179,0.56844 0.67179,1.54512 0,0.43925 -0.11369,0.82165 -0.10852,0.37724 -0.32556,0.7183 -0.20154,0.3204 -0.47542,0.63045 -0.26872,0.31006 -0.65629,0.6873 -0.55294,0.5426 -1.14205,1.05419 -0.58911,0.50643 -1.1007,0.94051 h 4.13927 z"
         style="stroke-width:0.264583;fill:#ececec;stroke:none"
         id="path2813" />
      <path
         d="m 276.45266,947.77381 q 0,1.17305 -0.77515,1.91719 -0.76997,0.73897 -1.89135,0.73897 -0.56844,0 -1.03352,-0.1757 -0.46509,-0.1757 -0.82166,-0.52193 -0.44441,-0.42891 -0.68729,-1.13688 -0.23771,-0.70796 -0.23771,-1.70531 0,-1.02319 0.21704,-1.81384 0.22221,-0.79065 0.7028,-1.40559 0.45475,-0.58395 1.17305,-0.90951 0.7183,-0.33072 1.67431,-0.33072 0.30489,0 0.51159,0.0258 0.20671,0.0258 0.41858,0.093 v 0.98702 h -0.0517 q -0.14469,-0.0775 -0.43924,-0.1447 -0.28939,-0.0723 -0.59428,-0.0723 -1.11104,0 -1.7725,0.69763 -0.66145,0.69246 -0.76997,1.87585 0.43408,-0.26355 0.85266,-0.39791 0.42374,-0.13953 0.97668,-0.13953 0.49092,0 0.86299,0.093 0.37724,0.0879 0.76998,0.36173 0.45475,0.31523 0.68212,0.79582 0.23255,0.48059 0.23255,1.16788 z m -1.04903,0.0413 q 0,-0.48059 -0.1447,-0.79581 -0.13952,-0.31523 -0.46508,-0.54777 -0.23771,-0.16536 -0.5271,-0.21704 -0.28939,-0.0517 -0.60461,-0.0517 -0.43925,0 -0.81649,0.10336 -0.37723,0.10335 -0.77514,0.32039 -0.0103,0.11369 -0.0155,0.22221 -0.005,0.10335 -0.005,0.26355 0,0.81648 0.16536,1.2919 0.17053,0.47026 0.46509,0.74414 0.23771,0.22738 0.51159,0.3359 0.27906,0.10335 0.60462,0.10335 0.7493,0 1.17822,-0.45475 0.42891,-0.45992 0.42891,-1.31775 z"
         style="stroke-width:0.264583;fill:#ececec;stroke:none"
         id="path2815" />
    </g>
    <g
       aria-label="30"
       id="text2226"
       style="font-style:normal;font-weight:normal;font-size:10.5833px;line-height:1.25;font-family:sans-serif;fill:#ececec;fill-opacity:1;stroke:none;stroke-width:0.264583">
      <path
         d="m 268.93376,1094.5646 q 0.24805,0.2222 0.40824,0.5581 0.1602,0.3359 0.1602,0.8682 0,0.527 -0.1912,0.9663 -0.19121,0.4392 -0.53744,0.7648 -0.38757,0.3617 -0.91467,0.5374 -0.52193,0.1706 -1.14721,0.1706 -0.64079,0 -1.2609,-0.1551 -0.62012,-0.1498 -1.01802,-0.3307 v -1.08 h 0.0775 q 0.43925,0.2894 1.03353,0.4806 0.59427,0.1912 1.14721,0.1912 0.32556,0 0.69246,-0.1085 0.3669,-0.1086 0.59428,-0.3204 0.23771,-0.2274 0.3514,-0.5013 0.11885,-0.2739 0.11885,-0.6925 0,-0.4134 -0.13436,-0.6821 -0.12919,-0.2739 -0.36173,-0.4289 -0.23254,-0.1602 -0.56327,-0.217 -0.33073,-0.062 -0.71313,-0.062 h -0.46509 v -0.8578 h 0.36173 q 0.78548,0 1.25057,-0.3255 0.47025,-0.3308 0.47025,-0.9612 0,-0.2791 -0.11885,-0.4858 -0.11886,-0.2118 -0.33073,-0.3462 -0.22221,-0.1344 -0.47542,-0.186 -0.25321,-0.052 -0.57361,-0.052 -0.49092,0 -1.04386,0.1757 -0.55293,0.1757 -1.04386,0.4961 h -0.0517 v -1.0801 q 0.36691,-0.1808 0.97669,-0.3307 0.61494,-0.155 1.18855,-0.155 0.56327,0 0.99218,0.1033 0.42892,0.1034 0.77515,0.3308 0.37207,0.248 0.56327,0.5994 0.1912,0.3514 0.1912,0.8217 0,0.6407 -0.45475,1.1213 -0.44958,0.4755 -1.06453,0.5995 v 0.072 q 0.24805,0.041 0.56844,0.1757 0.32039,0.1292 0.5426,0.3256 z"
         style="stroke-width:0.264583;fill:#ececec;stroke:none"
         id="path2818" />
      <path
         d="m 276.32863,1094.4199 q 0,2.0722 -0.65112,3.0437 -0.64595,0.9664 -2.0102,0.9664 -1.38493,0 -2.02571,-0.9819 -0.63562,-0.9818 -0.63562,-3.0179 0,-2.0515 0.64595,-3.0282 0.64595,-0.9818 2.01538,-0.9818 1.38492,0 2.02054,0.9973 0.64078,0.9922 0.64078,3.0024 z m -1.35908,2.3461 q 0.18086,-0.4186 0.24288,-0.9819 0.0672,-0.5684 0.0672,-1.3642 0,-0.7855 -0.0672,-1.3643 -0.062,-0.5787 -0.24805,-0.9818 -0.18087,-0.3979 -0.49609,-0.5995 -0.31006,-0.2015 -0.80098,-0.2015 -0.48576,0 -0.80615,0.2015 -0.31523,0.2016 -0.50126,0.6098 -0.1757,0.3824 -0.24288,0.9974 -0.062,0.6149 -0.062,1.3487 0,0.8062 0.0568,1.3488 0.0568,0.5426 0.24288,0.9715 0.17053,0.4031 0.48059,0.6149 0.31522,0.2119 0.83199,0.2119 0.48575,0 0.80615,-0.2015 0.32039,-0.2016 0.49609,-0.6098 z"
         style="stroke-width:0.264583;fill:#ececec;stroke:none"
         id="path2820" />
    </g>
    <g
       aria-label="34"
       id="text2218"
       style="font-style:normal;font-weight:normal;font-size:10.5833px;line-height:1.25;font-family:sans-serif;fill:#ececec;fill-opacity:1;stroke:none;stroke-width:0.264583">
      <path
         d="m 268.93376,1242.5646 q 0.24805,0.2222 0.40824,0.5581 0.1602,0.3359 0.1602,0.8682 0,0.527 -0.1912,0.9663 -0.19121,0.4392 -0.53744,0.7648 -0.38757,0.3617 -0.91467,0.5374 -0.52193,0.1706 -1.14721,0.1706 -0.64079,0 -1.2609,-0.1551 -0.62012,-0.1498 -1.01802,-0.3307 v -1.08 h 0.0775 q 0.43925,0.2894 1.03353,0.4806 0.59427,0.1912 1.14721,0.1912 0.32556,0 0.69246,-0.1085 0.3669,-0.1086 0.59428,-0.3204 0.23771,-0.2274 0.3514,-0.5013 0.11885,-0.2739 0.11885,-0.6925 0,-0.4134 -0.13436,-0.6821 -0.12919,-0.2739 -0.36173,-0.4289 -0.23254,-0.1602 -0.56327,-0.217 -0.33073,-0.062 -0.71313,-0.062 h -0.46509 v -0.8578 h 0.36173 q 0.78548,0 1.25057,-0.3255 0.47025,-0.3308 0.47025,-0.9612 0,-0.2791 -0.11885,-0.4858 -0.11886,-0.2118 -0.33073,-0.3462 -0.22221,-0.1344 -0.47542,-0.186 -0.25321,-0.052 -0.57361,-0.052 -0.49092,0 -1.04386,0.1757 -0.55293,0.1757 -1.04386,0.4961 h -0.0517 v -1.0801 q 0.36691,-0.1808 0.97669,-0.3307 0.61494,-0.155 1.18855,-0.155 0.56327,0 0.99218,0.1033 0.42892,0.1034 0.77515,0.3308 0.37207,0.248 0.56327,0.5994 0.1912,0.3514 0.1912,0.8217 0,0.6407 -0.45475,1.1213 -0.44958,0.4755 -1.06453,0.5995 v 0.072 q 0.24805,0.041 0.56844,0.1757 0.32039,0.1292 0.5426,0.3256 z"
         style="stroke-width:0.264583;fill:#ececec;stroke:none"
         id="path2823" />
      <path
         d="m 276.51467,1244.1045 h -1.14205 v 2.1653 h -0.99218 v -2.1653 h -3.68452 v -1.1885 l 3.72586,-4.3408 h 0.95084 v 4.7025 h 1.14205 z m -2.13423,-0.8268 v -3.4726 l -2.98172,3.4726 z"
         style="stroke-width:0.264583;fill:#ececec;stroke:none"
         id="path2825" />
    </g>
    <g
       aria-label="3"
       id="text2210"
       style="font-style:normal;font-weight:normal;font-size:10.5833px;line-height:1.25;font-family:sans-serif;fill:#ececec;fill-opacity:1;stroke:none;stroke-width:0.264583">
      <path
         d="m 478.93376,58.564637 q 0.24805,0.222208 0.40824,0.558103 0.1602,0.335896 0.1602,0.868162 0,0.527098 -0.1912,0.966346 -0.19121,0.439248 -0.53744,0.764809 -0.38757,0.361733 -0.91467,0.537433 -0.52193,0.170531 -1.14721,0.170531 -0.64079,0 -1.2609,-0.155028 -0.62012,-0.149862 -1.01802,-0.330729 V 60.86423 h 0.0775 q 0.43925,0.289388 1.03353,0.48059 0.59427,0.191202 1.14721,0.191202 0.32556,0 0.69246,-0.10852 0.3669,-0.10852 0.59428,-0.320393 0.23771,-0.227376 0.3514,-0.50126 0.11885,-0.273884 0.11885,-0.692462 0,-0.41341 -0.13436,-0.682127 -0.12919,-0.273884 -0.36173,-0.428913 -0.23254,-0.160196 -0.56327,-0.21704 -0.33073,-0.06201 -0.71313,-0.06201 h -0.46509 V 57.66547 h 0.36173 q 0.78548,0 1.25057,-0.325561 0.47025,-0.330728 0.47025,-0.961179 0,-0.279051 -0.11885,-0.485756 -0.11886,-0.211873 -0.33073,-0.346231 -0.22221,-0.134359 -0.47542,-0.186035 -0.25321,-0.05168 -0.57361,-0.05168 -0.49092,0 -1.04386,0.175699 -0.55293,0.175699 -1.04386,0.496092 h -0.0517 v -1.080034 q 0.36691,-0.180867 0.97669,-0.330728 0.61494,-0.155029 1.18855,-0.155029 0.56327,0 0.99218,0.103353 0.42892,0.103352 0.77515,0.330728 0.37207,0.248046 0.56327,0.599445 0.1912,0.351398 0.1912,0.821652 0,0.640786 -0.45475,1.121375 -0.44958,0.475422 -1.06453,0.599445 v 0.07235 q 0.24805,0.04134 0.56844,0.175699 0.32039,0.129191 0.5426,0.325561 z"
         style="stroke-width:0.264583;fill:#ececec;stroke:none"
         id="path2828" />
    </g>
    <g
       aria-label="7"
       id="text2202"
       style="font-style:normal;font-weight:normal;font-size:10.5833px;line-height:1.25;font-family:sans-serif;fill:#ececec;fill-opacity:1;stroke:none;stroke-width:0.264583">
      <path
         d="m 479.63139,203.72761 -3.48298,6.54221 h -1.10587 l 3.70519,-6.79026 h -4.38215 v -0.90434 h 5.26581 z"
         style="stroke-width:0.264583;fill:#ececec;stroke:none"
         id="path2831" />
    </g>
    <g
       aria-label="11"
       id="text2194"
       style="font-style:normal;font-weight:normal;font-size:10.5833px;line-height:1.25;font-family:sans-serif;fill:#ececec;fill-opacity:1;stroke:none;stroke-width:0.264583">
      <path
         d="m 479.17147,358.26981 h -4.16511 v -0.78548 h 1.60197 v -5.15729 h -1.60197 v -0.7028 q 0.32556,0 0.69763,-0.0517 0.37207,-0.0568 0.56327,-0.16019 0.23772,-0.1292 0.37207,-0.32557 0.13953,-0.20153 0.1602,-0.53743 h 0.80098 v 6.93496 h 1.57096 z"
         style="stroke-width:0.264583;fill:#ececec;stroke:none"
         id="path2834" />
      <path
         d="m 485.89972,358.26981 h -4.16511 v -0.78548 h 1.60197 v -5.15729 h -1.60197 v -0.7028 q 0.32556,0 0.69763,-0.0517 0.37207,-0.0568 0.56327,-0.16019 0.23772,-0.1292 0.37207,-0.32557 0.13953,-0.20153 0.1602,-0.53743 h 0.80098 v 6.93496 h 1.57096 z"
         style="stroke-width:0.264583;fill:#ececec;stroke:none"
         id="path2836" />
    </g>
    <g
       aria-label="15"
       id="text2186"
       style="font-style:normal;font-weight:normal;font-size:10.5833px;line-height:1.25;font-family:sans-serif;fill:#ececec;fill-opacity:1;stroke:none;stroke-width:0.264583">
      <path
         d="m 479.17147,506.26981 h -4.16511 v -0.78548 h 1.60197 v -5.15729 h -1.60197 v -0.7028 q 0.32556,0 0.69763,-0.0517 0.37207,-0.0568 0.56327,-0.16019 0.23772,-0.1292 0.37207,-0.32557 0.13953,-0.20153 0.1602,-0.53743 h 0.80098 v 6.93496 h 1.57096 z"
         style="stroke-width:0.264583;fill:#ececec;stroke:none"
         id="path2839" />
      <path
         d="m 486.27696,503.82552 q 0,0.53743 -0.19637,1.02836 -0.19637,0.49092 -0.53744,0.82682 -0.37206,0.36173 -0.88883,0.5581 -0.51159,0.1912 -1.18855,0.1912 -0.63045,0 -1.21439,-0.13436 -0.58395,-0.12919 -0.98702,-0.31522 v -1.09037 h 0.0723 q 0.42374,0.26872 0.99218,0.45992 0.56844,0.18603 1.11621,0.18603 0.3669,0 0.70796,-0.10335 0.34623,-0.10335 0.61495,-0.36173 0.22738,-0.22221 0.34106,-0.53227 0.11886,-0.31006 0.11886,-0.7183 0,-0.39791 -0.13953,-0.67179 -0.13436,-0.27388 -0.37723,-0.43925 -0.26872,-0.19637 -0.65629,-0.27388 -0.38241,-0.0827 -0.85783,-0.0827 -0.45475,0 -0.87849,0.062 -0.41858,0.062 -0.72347,0.12402 v -3.96357 h 4.63019 v 0.90433 h -3.63284 v 2.04638 q 0.22221,-0.0207 0.45475,-0.031 0.23254,-0.0103 0.40308,-0.0103 0.62528,0 1.09553,0.10852 0.47026,0.10336 0.863,0.37207 0.41341,0.28422 0.64078,0.73381 0.22738,0.44958 0.22738,1.12654 z"
         style="stroke-width:0.264583;fill:#ececec;stroke:none"
         id="path2841" />
    </g>
    <g
       aria-label="19"
       id="text2178"
       style="font-style:normal;font-weight:normal;font-size:10.5833px;line-height:1.25;font-family:sans-serif;fill:#ececec;fill-opacity:1;stroke:none;stroke-width:0.264583">
      <path
         d="m 479.17147,654.26984 h -4.16511 v -0.78548 h 1.60197 v -5.15729 h -1.60197 v -0.7028 q 0.32556,0 0.69763,-0.0517 0.37207,-0.0568 0.56327,-0.16019 0.23772,-0.12919 0.37207,-0.32556 0.13953,-0.20154 0.1602,-0.53744 h 0.80098 v 6.93496 h 1.57096 z"
         style="stroke-width:0.264583;fill:#ececec;stroke:none"
         id="path2844" />
      <path
         d="m 486.32863,649.96004 q 0,1.00768 -0.23254,1.82934 -0.22738,0.82165 -0.69246,1.40042 -0.47026,0.58911 -1.17822,0.9095 -0.70797,0.3204 -1.66398,0.3204 -0.26871,0 -0.50642,-0.031 -0.23771,-0.0258 -0.42375,-0.0879 v -0.98701 h 0.0517 q 0.14986,0.0775 0.42374,0.14986 0.27389,0.0672 0.60978,0.0672 1.14205,0 1.788,-0.68213 0.65112,-0.6873 0.75447,-1.89135 -0.48058,0.28938 -0.90433,0.41341 -0.42375,0.12402 -0.925,0.12402 -0.47543,0 -0.863,-0.093 -0.3824,-0.093 -0.76998,-0.36173 -0.45475,-0.31523 -0.68729,-0.80098 -0.22737,-0.48576 -0.22737,-1.16272 0,-1.17822 0.77514,-1.91719 0.77514,-0.73897 1.89135,-0.73897 0.5581,0 1.03353,0.1757 0.47542,0.17053 0.83198,0.51676 0.43925,0.42892 0.67696,1.10588 0.23771,0.67179 0.23771,1.74149 z m -1.04386,-0.22221 q 0,-0.80098 -0.16536,-1.28674 -0.16537,-0.48576 -0.45475,-0.75447 -0.24288,-0.23255 -0.52193,-0.33073 -0.27905,-0.10336 -0.60461,-0.10336 -0.74414,0 -1.17822,0.46509 -0.42892,0.46509 -0.42892,1.30741 0,0.49093 0.13953,0.80098 0.13953,0.31006 0.47025,0.5426 0.23255,0.1602 0.5116,0.21704 0.27905,0.0517 0.62011,0.0517 0.40308,0 0.81649,-0.10852 0.41341,-0.10852 0.77514,-0.31523 0.005,-0.10852 0.0103,-0.21187 0.0103,-0.10852 0.0103,-0.27388 z"
         style="stroke-width:0.264583;fill:#ececec;stroke:none"
         id="path2846" />
    </g>
    <g
       aria-label="23"
       id="text2170"
       style="font-style:normal;font-weight:normal;font-size:10.5833px;line-height:1.25;font-family:sans-serif;fill:#ececec;fill-opacity:1;stroke:none;stroke-width:0.264583">
      <path
         d="m 479.61072,802.26978 h -5.20897 v -1.08004 q 0.5426,-0.46509 1.0852,-0.93017 0.54777,-0.46509 1.01803,-0.92501 0.99218,-0.96118 1.35908,-1.52445 0.3669,-0.56844 0.3669,-1.22472 0,-0.59945 -0.3979,-0.93534 -0.39274,-0.34107 -1.10071,-0.34107 -0.47025,0 -1.01802,0.16537 -0.54777,0.16536 -1.0697,0.50642 h -0.0517 v -1.0852 q 0.3669,-0.18086 0.97668,-0.33073 0.61495,-0.14986 1.18856,-0.14986 1.18339,0 1.85518,0.57361 0.67179,0.56844 0.67179,1.54512 0,0.43925 -0.11369,0.82165 -0.10852,0.37724 -0.32556,0.7183 -0.20154,0.3204 -0.47542,0.63045 -0.26872,0.31006 -0.65629,0.6873 -0.55294,0.5426 -1.14205,1.05419 -0.58911,0.50643 -1.1007,0.94051 h 4.13927 z"
         style="stroke-width:0.264583;fill:#ececec;stroke:none"
         id="path2849" />
      <path
         d="m 485.66201,798.56459 q 0.24805,0.2222 0.40824,0.5581 0.1602,0.3359 0.1602,0.86816 0,0.5271 -0.1912,0.96635 -0.19121,0.43925 -0.53744,0.76481 -0.38757,0.36173 -0.91467,0.53743 -0.52193,0.17053 -1.14721,0.17053 -0.64079,0 -1.2609,-0.15503 -0.62012,-0.14986 -1.01802,-0.33073 v -1.08003 h 0.0775 q 0.43925,0.28939 1.03353,0.48059 0.59427,0.1912 1.14721,0.1912 0.32556,0 0.69246,-0.10852 0.3669,-0.10852 0.59428,-0.32039 0.23771,-0.22738 0.3514,-0.50126 0.11885,-0.27388 0.11885,-0.69246 0,-0.41341 -0.13436,-0.68213 -0.12919,-0.27388 -0.36173,-0.42891 -0.23254,-0.1602 -0.56327,-0.21704 -0.33073,-0.062 -0.71313,-0.062 h -0.46509 v -0.85783 h 0.36173 q 0.78548,0 1.25057,-0.32556 0.47025,-0.33073 0.47025,-0.96118 0,-0.27905 -0.11885,-0.48576 -0.11886,-0.21187 -0.33073,-0.34623 -0.22221,-0.13436 -0.47542,-0.18603 -0.25321,-0.0517 -0.57361,-0.0517 -0.49092,0 -1.04386,0.1757 -0.55293,0.1757 -1.04386,0.49609 h -0.0517 v -1.08003 q 0.36691,-0.18087 0.97669,-0.33073 0.61494,-0.15503 1.18855,-0.15503 0.56327,0 0.99218,0.10336 0.42892,0.10335 0.77515,0.33072 0.37207,0.24805 0.56327,0.59945 0.1912,0.3514 0.1912,0.82165 0,0.64079 -0.45475,1.12138 -0.44958,0.47542 -1.06453,0.59944 v 0.0723 q 0.24805,0.0413 0.56844,0.1757 0.32039,0.12919 0.5426,0.32556 z"
         style="stroke-width:0.264583;fill:#ececec;stroke:none"
         id="path2851" />
    </g>
    <g
       aria-label="27"
       id="text2162"
       style="font-style:normal;font-weight:normal;font-size:10.5833px;line-height:1.25;font-family:sans-serif;fill:#ececec;fill-opacity:1;stroke:none;stroke-width:0.264583">
      <path
         d="m 479.61072,950.26978 h -5.20897 v -1.08004 q 0.5426,-0.46509 1.0852,-0.93017 0.54777,-0.46509 1.01803,-0.92501 0.99218,-0.96118 1.35908,-1.52445 0.3669,-0.56844 0.3669,-1.22472 0,-0.59945 -0.3979,-0.93534 -0.39274,-0.34107 -1.10071,-0.34107 -0.47025,0 -1.01802,0.16537 -0.54777,0.16536 -1.0697,0.50642 h -0.0517 v -1.0852 q 0.3669,-0.18086 0.97668,-0.33073 0.61495,-0.14986 1.18856,-0.14986 1.18339,0 1.85518,0.57361 0.67179,0.56844 0.67179,1.54512 0,0.43925 -0.11369,0.82165 -0.10852,0.37724 -0.32556,0.7183 -0.20154,0.3204 -0.47542,0.63045 -0.26872,0.31006 -0.65629,0.6873 -0.55294,0.5426 -1.14205,1.05419 -0.58911,0.50643 -1.1007,0.94051 h 4.13927 z"
         style="stroke-width:0.264583;fill:#ececec;stroke:none"
         id="path2854" />
      <path
         d="m 486.35964,943.72756 -3.48298,6.54222 h -1.10587 l 3.70519,-6.79027 h -4.38215 v -0.90433 h 5.26581 z"
         style="stroke-width:0.264583;fill:#ececec;stroke:none"
         id="path2856" />
    </g>
    <g
       aria-label="31"
       id="text2154"
       style="font-style:normal;font-weight:normal;font-size:10.5833px;line-height:1.25;font-family:sans-serif;fill:#ececec;fill-opacity:1;stroke:none;stroke-width:0.264583">
      <path
         d="m 478.93376,1094.5646 q 0.24805,0.2222 0.40824,0.5581 0.1602,0.3359 0.1602,0.8682 0,0.527 -0.1912,0.9663 -0.19121,0.4392 -0.53744,0.7648 -0.38757,0.3617 -0.91467,0.5374 -0.52193,0.1706 -1.14721,0.1706 -0.64079,0 -1.2609,-0.1551 -0.62012,-0.1498 -1.01802,-0.3307 v -1.08 h 0.0775 q 0.43925,0.2894 1.03353,0.4806 0.59427,0.1912 1.14721,0.1912 0.32556,0 0.69246,-0.1085 0.3669,-0.1086 0.59428,-0.3204 0.23771,-0.2274 0.3514,-0.5013 0.11885,-0.2739 0.11885,-0.6925 0,-0.4134 -0.13436,-0.6821 -0.12919,-0.2739 -0.36173,-0.4289 -0.23254,-0.1602 -0.56327,-0.217 -0.33073,-0.062 -0.71313,-0.062 h -0.46509 v -0.8578 h 0.36173 q 0.78548,0 1.25057,-0.3255 0.47025,-0.3308 0.47025,-0.9612 0,-0.2791 -0.11885,-0.4858 -0.11886,-0.2118 -0.33073,-0.3462 -0.22221,-0.1344 -0.47542,-0.186 -0.25321,-0.052 -0.57361,-0.052 -0.49092,0 -1.04386,0.1757 -0.55293,0.1757 -1.04386,0.4961 h -0.0517 v -1.0801 q 0.36691,-0.1808 0.97669,-0.3307 0.61494,-0.155 1.18855,-0.155 0.56327,0 0.99218,0.1033 0.42892,0.1034 0.77515,0.3308 0.37207,0.248 0.56327,0.5994 0.1912,0.3514 0.1912,0.8217 0,0.6407 -0.45475,1.1213 -0.44958,0.4755 -1.06453,0.5995 v 0.072 q 0.24805,0.041 0.56844,0.1757 0.32039,0.1292 0.5426,0.3256 z"
         style="stroke-width:0.264583;fill:#ececec;stroke:none"
         id="path2859" />
      <path
         d="m 485.89972,1098.2698 h -4.16511 v -0.7855 h 1.60197 v -5.1573 h -1.60197 v -0.7028 q 0.32556,0 0.69763,-0.052 0.37207,-0.057 0.56327,-0.1602 0.23772,-0.1292 0.37207,-0.3255 0.13953,-0.2016 0.1602,-0.5375 h 0.80098 v 6.935 h 1.57096 z"
         style="stroke-width:0.264583;fill:#ececec;stroke:none"
         id="path2861" />
    </g>
    <g
       aria-label="35"
       id="text2146"
       style="font-style:normal;font-weight:normal;font-size:10.5833px;line-height:1.25;font-family:sans-serif;fill:#ececec;fill-opacity:1;stroke:none;stroke-width:0.264583">
      <path
         d="m 478.93376,1242.5646 q 0.24805,0.2222 0.40824,0.5581 0.1602,0.3359 0.1602,0.8682 0,0.527 -0.1912,0.9663 -0.19121,0.4392 -0.53744,0.7648 -0.38757,0.3617 -0.91467,0.5374 -0.52193,0.1706 -1.14721,0.1706 -0.64079,0 -1.2609,-0.1551 -0.62012,-0.1498 -1.01802,-0.3307 v -1.08 h 0.0775 q 0.43925,0.2894 1.03353,0.4806 0.59427,0.1912 1.14721,0.1912 0.32556,0 0.69246,-0.1085 0.3669,-0.1086 0.59428,-0.3204 0.23771,-0.2274 0.3514,-0.5013 0.11885,-0.2739 0.11885,-0.6925 0,-0.4134 -0.13436,-0.6821 -0.12919,-0.2739 -0.36173,-0.4289 -0.23254,-0.1602 -0.56327,-0.217 -0.33073,-0.062 -0.71313,-0.062 h -0.46509 v -0.8578 h 0.36173 q 0.78548,0 1.25057,-0.3255 0.47025,-0.3308 0.47025,-0.9612 0,-0.2791 -0.11885,-0.4858 -0.11886,-0.2118 -0.33073,-0.3462 -0.22221,-0.1344 -0.47542,-0.186 -0.25321,-0.052 -0.57361,-0.052 -0.49092,0 -1.04386,0.1757 -0.55293,0.1757 -1.04386,0.4961 h -0.0517 v -1.0801 q 0.36691,-0.1808 0.97669,-0.3307 0.61494,-0.155 1.18855,-0.155 0.56327,0 0.99218,0.1033 0.42892,0.1034 0.77515,0.3308 0.37207,0.248 0.56327,0.5994 0.1912,0.3514 0.1912,0.8217 0,0.6407 -0.45475,1.1213 -0.44958,0.4755 -1.06453,0.5995 v 0.072 q 0.24805,0.041 0.56844,0.1757 0.32039,0.1292 0.5426,0.3256 z"
         style="stroke-width:0.264583;fill:#ececec;stroke:none"
         id="path2864" />
      <path
         d="m 486.27696,1243.8255 q 0,0.5374 -0.19637,1.0283 -0.19637,0.491 -0.53744,0.8269 -0.37206,0.3617 -0.88883,0.5581 -0.51159,0.1912 -1.18855,0.1912 -0.63045,0 -1.21439,-0.1344 -0.58395,-0.1292 -0.98702,-0.3152 v -1.0904 h 0.0723 q 0.42374,0.2687 0.99218,0.4599 0.56844,0.1861 1.11621,0.1861 0.3669,0 0.70796,-0.1034 0.34623,-0.1033 0.61495,-0.3617 0.22738,-0.2222 0.34106,-0.5323 0.11886,-0.31 0.11886,-0.7183 0,-0.3979 -0.13953,-0.6718 -0.13436,-0.2739 -0.37723,-0.4392 -0.26872,-0.1964 -0.65629,-0.2739 -0.38241,-0.083 -0.85783,-0.083 -0.45475,0 -0.87849,0.062 -0.41858,0.062 -0.72347,0.124 v -3.9635 h 4.63019 v 0.9043 h -3.63284 v 2.0464 q 0.22221,-0.021 0.45475,-0.031 0.23254,-0.01 0.40308,-0.01 0.62528,0 1.09553,0.1085 0.47026,0.1033 0.863,0.372 0.41341,0.2843 0.64078,0.7338 0.22738,0.4496 0.22738,1.1266 z"
         style="stroke-width:0.264583;fill:#ececec;stroke:none"
         id="path2866" />
    </g>
    <g
       aria-label="4"
       id="text2138"
       style="font-style:normal;font-weight:normal;font-size:10.5833px;line-height:1.25;font-family:sans-serif;fill:#ececec;fill-opacity:1;stroke:none;stroke-width:0.264583">
      <path
         d="m 689.78642,60.104589 h -1.14205 v 2.165236 h -0.99218 v -2.165236 h -3.68452 v -1.188554 l 3.72586,-4.340806 h 0.95084 v 4.70254 h 1.14205 z m -2.13423,-0.82682 v -3.472645 l -2.98172,3.472645 z"
         style="stroke-width:0.264583;fill:#ececec;stroke:none"
         id="path2869" />
    </g>
    <g
       aria-label="8"
       id="text2130"
       style="font-style:normal;font-weight:normal;font-size:10.5833px;line-height:1.25;font-family:sans-serif;fill:#ececec;fill-opacity:1;stroke:none;stroke-width:0.264583">
      <path
         d="m 689.66756,208.12526 q 0,0.99735 -0.78031,1.6588 -0.77514,0.66146 -1.95336,0.66146 -1.25057,0 -1.99471,-0.64595 -0.73897,-0.64596 -0.73897,-1.65364 0,-0.64079 0.37207,-1.15755 0.37207,-0.52193 1.04903,-0.82682 v -0.031 q -0.62011,-0.33073 -0.91984,-0.72347 -0.29455,-0.39274 -0.29455,-0.98184 0,-0.86817 0.71313,-1.44694 0.71313,-0.57877 1.81384,-0.57877 1.15238,0 1.83967,0.55293 0.6873,0.55294 0.6873,1.4056 0,0.52193 -0.32556,1.02835 -0.32556,0.50126 -0.95601,0.78548 v 0.031 q 0.72346,0.31006 1.10587,0.76481 0.3824,0.45475 0.3824,1.15755 z m -1.22472,-3.75687 q 0,-0.55293 -0.42892,-0.8785 -0.42374,-0.33072 -1.0852,-0.33072 -0.65112,0 -1.0697,0.31005 -0.41341,0.31006 -0.41341,0.83716 0,0.37207 0.20671,0.64595 0.21187,0.26872 0.63561,0.48059 0.19121,0.093 0.54777,0.24288 0.36174,0.14986 0.7028,0.24805 0.5116,-0.34107 0.70797,-0.70797 0.19637,-0.3669 0.19637,-0.84749 z m 0.16019,3.85505 q 0,-0.47542 -0.21187,-0.75964 -0.20671,-0.28939 -0.81649,-0.57877 -0.24287,-0.11369 -0.53226,-0.21188 -0.28939,-0.0982 -0.76998,-0.27388 -0.46508,0.25321 -0.7493,0.68729 -0.27906,0.43408 -0.27906,0.98185 0,0.69763 0.48059,1.15238 0.48059,0.45475 1.21956,0.45475 0.75448,0 1.20406,-0.38757 0.45475,-0.38757 0.45475,-1.06453 z"
         style="stroke-width:0.264583;fill:#ececec;stroke:none"
         id="path2872" />
    </g>
    <g
       aria-label="12"
       id="text2122"
       style="font-style:normal;font-weight:normal;font-size:10.5833px;line-height:1.25;font-family:sans-serif;fill:#ececec;fill-opacity:1;stroke:none;stroke-width:0.264583">
      <path
         d="m 689.17147,358.26981 h -4.16511 v -0.78548 h 1.60197 v -5.15729 h -1.60197 v -0.7028 q 0.32556,0 0.69763,-0.0517 0.37207,-0.0568 0.56327,-0.16019 0.23772,-0.1292 0.37207,-0.32557 0.13953,-0.20153 0.1602,-0.53743 h 0.80098 v 6.93496 h 1.57096 z"
         style="stroke-width:0.264583;fill:#ececec;stroke:none"
         id="path2875" />
      <path
         d="M 696.33897,358.26981 H 691.13 v -1.08004 q 0.5426,-0.46508 1.0852,-0.93017 0.54777,-0.46509 1.01803,-0.92501 0.99218,-0.96117 1.35908,-1.52445 0.3669,-0.56843 0.3669,-1.22472 0,-0.59945 -0.3979,-0.93534 -0.39274,-0.34107 -1.10071,-0.34107 -0.47025,0 -1.01802,0.16537 -0.54777,0.16536 -1.0697,0.50642 h -0.0517 v -1.0852 q 0.3669,-0.18086 0.97668,-0.33073 0.61495,-0.14986 1.18856,-0.14986 1.18339,0 1.85518,0.57361 0.67179,0.56844 0.67179,1.54512 0,0.43925 -0.11369,0.82165 -0.10852,0.37724 -0.32556,0.7183 -0.20154,0.3204 -0.47542,0.63045 -0.26872,0.31006 -0.65629,0.6873 -0.55294,0.5426 -1.14205,1.05419 -0.58911,0.50643 -1.1007,0.94051 h 4.13927 z"
         style="stroke-width:0.264583;fill:#ececec;stroke:none"
         id="path2877" />
    </g>
    <g
       aria-label="16"
       id="text2114"
       style="font-style:normal;font-weight:normal;font-size:10.5833px;line-height:1.25;font-family:sans-serif;fill:#ececec;fill-opacity:1;stroke:none;stroke-width:0.264583">
      <path
         d="m 689.17147,506.26981 h -4.16511 v -0.78548 h 1.60197 v -5.15729 h -1.60197 v -0.7028 q 0.32556,0 0.69763,-0.0517 0.37207,-0.0568 0.56327,-0.16019 0.23772,-0.1292 0.37207,-0.32557 0.13953,-0.20153 0.1602,-0.53743 h 0.80098 v 6.93496 h 1.57096 z"
         style="stroke-width:0.264583;fill:#ececec;stroke:none"
         id="path2880" />
      <path
         d="m 696.45266,503.77384 q 0,1.17305 -0.77515,1.91719 -0.76997,0.73897 -1.89135,0.73897 -0.56844,0 -1.03352,-0.1757 -0.46509,-0.1757 -0.82166,-0.52193 -0.44441,-0.42891 -0.68729,-1.13688 -0.23771,-0.70796 -0.23771,-1.70531 0,-1.02319 0.21704,-1.81384 0.22221,-0.79065 0.7028,-1.40559 0.45475,-0.58395 1.17305,-0.90951 0.7183,-0.33072 1.67431,-0.33072 0.30489,0 0.51159,0.0258 0.20671,0.0258 0.41858,0.093 v 0.98702 h -0.0517 q -0.14469,-0.0775 -0.43924,-0.1447 -0.28939,-0.0723 -0.59428,-0.0723 -1.11104,0 -1.7725,0.69763 -0.66145,0.69246 -0.76997,1.87585 0.43408,-0.26355 0.85266,-0.39791 0.42374,-0.13953 0.97668,-0.13953 0.49092,0 0.86299,0.093 0.37724,0.0879 0.76998,0.36173 0.45475,0.31523 0.68212,0.79582 0.23255,0.48059 0.23255,1.16788 z m -1.04903,0.0413 q 0,-0.48059 -0.1447,-0.79581 -0.13952,-0.31523 -0.46508,-0.54777 -0.23771,-0.16536 -0.5271,-0.21704 -0.28939,-0.0517 -0.60461,-0.0517 -0.43925,0 -0.81649,0.10336 -0.37723,0.10335 -0.77514,0.32039 -0.0103,0.11369 -0.0155,0.22221 -0.005,0.10335 -0.005,0.26355 0,0.81648 0.16536,1.2919 0.17053,0.47026 0.46509,0.74414 0.23771,0.22738 0.51159,0.3359 0.27906,0.10335 0.60462,0.10335 0.7493,0 1.17822,-0.45475 0.42891,-0.45992 0.42891,-1.31775 z"
         style="stroke-width:0.264583;fill:#ececec;stroke:none"
         id="path2882" />
    </g>
    <g
       aria-label="20"
       id="text2106"
       style="font-style:normal;font-weight:normal;font-size:10.5833px;line-height:1.25;font-family:sans-serif;fill:#ececec;fill-opacity:1;stroke:none;stroke-width:0.264583">
      <path
         d="m 689.61072,654.26984 h -5.20897 v -1.08004 q 0.5426,-0.46508 1.0852,-0.93017 0.54777,-0.46509 1.01803,-0.92501 0.99218,-0.96117 1.35908,-1.52445 0.3669,-0.56843 0.3669,-1.22472 0,-0.59945 -0.3979,-0.93534 -0.39274,-0.34107 -1.10071,-0.34107 -0.47025,0 -1.01802,0.16537 -0.54777,0.16536 -1.0697,0.50642 h -0.0517 v -1.0852 q 0.3669,-0.18086 0.97668,-0.33073 0.61495,-0.14986 1.18856,-0.14986 1.18339,0 1.85518,0.57361 0.67179,0.56844 0.67179,1.54512 0,0.43925 -0.11369,0.82165 -0.10852,0.37724 -0.32556,0.7183 -0.20154,0.3204 -0.47542,0.63045 -0.26872,0.31006 -0.65629,0.6873 -0.55294,0.5426 -1.14205,1.05419 -0.58911,0.50643 -1.1007,0.94051 h 4.13927 z"
         style="stroke-width:0.264583;fill:#ececec;stroke:none"
         id="path2885" />
      <path
         d="m 696.32863,650.41995 q 0,2.07222 -0.65112,3.04374 -0.64595,0.96634 -2.0102,0.96634 -1.38493,0 -2.02571,-0.98185 -0.63562,-0.98185 -0.63562,-3.01789 0,-2.05155 0.64595,-3.02823 0.64595,-0.98185 2.01538,-0.98185 1.38492,0 2.02054,0.99735 0.64078,0.99219 0.64078,3.00239 z m -1.35908,2.34611 q 0.18086,-0.41858 0.24288,-0.98185 0.0672,-0.56844 0.0672,-1.36426 0,-0.78547 -0.0672,-1.36425 -0.062,-0.57877 -0.24805,-0.98185 -0.18087,-0.39791 -0.49609,-0.59944 -0.31006,-0.20154 -0.80098,-0.20154 -0.48576,0 -0.80615,0.20154 -0.31523,0.20153 -0.50126,0.60978 -0.1757,0.3824 -0.24288,0.99735 -0.062,0.61495 -0.062,1.34875 0,0.80615 0.0568,1.34875 0.0568,0.5426 0.24288,0.97151 0.17053,0.40308 0.48059,0.61495 0.31522,0.21187 0.83199,0.21187 0.48575,0 0.80615,-0.20153 0.32039,-0.20154 0.49609,-0.60978 z"
         style="stroke-width:0.264583;fill:#ececec;stroke:none"
         id="path2887" />
    </g>
    <g
       aria-label="24"
       id="text2098"
       style="font-style:normal;font-weight:normal;font-size:10.5833px;line-height:1.25;font-family:sans-serif;fill:#ececec;fill-opacity:1;stroke:none;stroke-width:0.264583">
      <path
         d="m 689.61072,802.26978 h -5.20897 v -1.08004 q 0.5426,-0.46509 1.0852,-0.93017 0.54777,-0.46509 1.01803,-0.92501 0.99218,-0.96118 1.35908,-1.52445 0.3669,-0.56844 0.3669,-1.22472 0,-0.59945 -0.3979,-0.93534 -0.39274,-0.34107 -1.10071,-0.34107 -0.47025,0 -1.01802,0.16537 -0.54777,0.16536 -1.0697,0.50642 h -0.0517 v -1.0852 q 0.3669,-0.18086 0.97668,-0.33073 0.61495,-0.14986 1.18856,-0.14986 1.18339,0 1.85518,0.57361 0.67179,0.56844 0.67179,1.54512 0,0.43925 -0.11369,0.82165 -0.10852,0.37724 -0.32556,0.7183 -0.20154,0.3204 -0.47542,0.63045 -0.26872,0.31006 -0.65629,0.6873 -0.55294,0.5426 -1.14205,1.05419 -0.58911,0.50643 -1.1007,0.94051 h 4.13927 z"
         style="stroke-width:0.264583;fill:#ececec;stroke:none"
         id="path2890" />
      <path
         d="m 696.51467,800.10454 h -1.14205 v 2.16524 h -0.99218 v -2.16524 h -3.68452 v -1.18855 l 3.72586,-4.34081 h 0.95084 v 4.70254 h 1.14205 z m -2.13423,-0.82682 v -3.47265 l -2.98172,3.47265 z"
         style="stroke-width:0.264583;fill:#ececec;stroke:none"
         id="path2892" />
    </g>
    <g
       aria-label="28"
       id="text2090"
       style="font-style:normal;font-weight:normal;font-size:10.5833px;line-height:1.25;font-family:sans-serif;fill:#ececec;fill-opacity:1;stroke:none;stroke-width:0.264583">
      <path
         d="m 689.61072,950.26978 h -5.20897 v -1.08004 q 0.5426,-0.46509 1.0852,-0.93017 0.54777,-0.46509 1.01803,-0.92501 0.99218,-0.96118 1.35908,-1.52445 0.3669,-0.56844 0.3669,-1.22472 0,-0.59945 -0.3979,-0.93534 -0.39274,-0.34107 -1.10071,-0.34107 -0.47025,0 -1.01802,0.16537 -0.54777,0.16536 -1.0697,0.50642 h -0.0517 v -1.0852 q 0.3669,-0.18086 0.97668,-0.33073 0.61495,-0.14986 1.18856,-0.14986 1.18339,0 1.85518,0.57361 0.67179,0.56844 0.67179,1.54512 0,0.43925 -0.11369,0.82165 -0.10852,0.37724 -0.32556,0.7183 -0.20154,0.3204 -0.47542,0.63045 -0.26872,0.31006 -0.65629,0.6873 -0.55294,0.5426 -1.14205,1.05419 -0.58911,0.50643 -1.1007,0.94051 h 4.13927 z"
         style="stroke-width:0.264583;fill:#ececec;stroke:none"
         id="path2895" />
      <path
         d="m 696.39581,948.12521 q 0,0.99735 -0.78031,1.65881 -0.77514,0.66145 -1.95336,0.66145 -1.25057,0 -1.99471,-0.64595 -0.73897,-0.64595 -0.73897,-1.65364 0,-0.64078 0.37207,-1.15755 0.37207,-0.52193 1.04903,-0.82682 v -0.031 q -0.62011,-0.33073 -0.91984,-0.72347 -0.29455,-0.39274 -0.29455,-0.98185 0,-0.86816 0.71313,-1.44694 0.71313,-0.57877 1.81384,-0.57877 1.15238,0 1.83967,0.55294 0.6873,0.55293 0.6873,1.40559 0,0.52193 -0.32556,1.02836 -0.32556,0.50126 -0.95601,0.78548 v 0.031 q 0.72346,0.31006 1.10587,0.76481 0.3824,0.45475 0.3824,1.15755 z m -1.22472,-3.75686 q 0,-0.55294 -0.42892,-0.8785 -0.42374,-0.33073 -1.0852,-0.33073 -0.65112,0 -1.0697,0.31006 -0.41341,0.31006 -0.41341,0.83715 0,0.37207 0.20671,0.64596 0.21187,0.26871 0.63561,0.48059 0.19121,0.093 0.54777,0.24288 0.36174,0.14986 0.7028,0.24804 0.5116,-0.34106 0.70797,-0.70796 0.19637,-0.36691 0.19637,-0.84749 z m 0.16019,3.85505 q 0,-0.47543 -0.21187,-0.75965 -0.20671,-0.28938 -0.81649,-0.57877 -0.24287,-0.11369 -0.53226,-0.21187 -0.28939,-0.0982 -0.76998,-0.27389 -0.46508,0.25322 -0.7493,0.6873 -0.27906,0.43408 -0.27906,0.98185 0,0.69763 0.48059,1.15238 0.48059,0.45475 1.21956,0.45475 0.75448,0 1.20406,-0.38757 0.45475,-0.38758 0.45475,-1.06453 z"
         style="stroke-width:0.264583;fill:#ececec;stroke:none"
         id="path2897" />
    </g>
    <g
       aria-label="32"
       id="text2082"
       style="font-style:normal;font-weight:normal;font-size:10.5833px;line-height:1.25;font-family:sans-serif;fill:#ececec;fill-opacity:1;stroke:none;stroke-width:0.264583">
      <path
         d="m 688.93376,1094.5646 q 0.24805,0.2222 0.40824,0.5581 0.1602,0.3359 0.1602,0.8682 0,0.527 -0.1912,0.9663 -0.19121,0.4392 -0.53744,0.7648 -0.38757,0.3617 -0.91467,0.5374 -0.52193,0.1706 -1.14721,0.1706 -0.64079,0 -1.2609,-0.1551 -0.62012,-0.1498 -1.01802,-0.3307 v -1.08 h 0.0775 q 0.43925,0.2894 1.03353,0.4806 0.59427,0.1912 1.14721,0.1912 0.32556,0 0.69246,-0.1085 0.3669,-0.1086 0.59428,-0.3204 0.23771,-0.2274 0.3514,-0.5013 0.11885,-0.2739 0.11885,-0.6925 0,-0.4134 -0.13436,-0.6821 -0.12919,-0.2739 -0.36173,-0.4289 -0.23254,-0.1602 -0.56327,-0.217 -0.33073,-0.062 -0.71313,-0.062 h -0.46509 v -0.8578 h 0.36173 q 0.78548,0 1.25057,-0.3255 0.47025,-0.3308 0.47025,-0.9612 0,-0.2791 -0.11885,-0.4858 -0.11886,-0.2118 -0.33073,-0.3462 -0.22221,-0.1344 -0.47542,-0.186 -0.25321,-0.052 -0.57361,-0.052 -0.49092,0 -1.04386,0.1757 -0.55293,0.1757 -1.04386,0.4961 h -0.0517 v -1.0801 q 0.36691,-0.1808 0.97669,-0.3307 0.61494,-0.155 1.18855,-0.155 0.56327,0 0.99218,0.1033 0.42892,0.1034 0.77515,0.3308 0.37207,0.248 0.56327,0.5994 0.1912,0.3514 0.1912,0.8217 0,0.6407 -0.45475,1.1213 -0.44958,0.4755 -1.06453,0.5995 v 0.072 q 0.24805,0.041 0.56844,0.1757 0.32039,0.1292 0.5426,0.3256 z"
         style="stroke-width:0.264583;fill:#ececec;stroke:none"
         id="path2900" />
      <path
         d="M 696.33897,1098.2698 H 691.13 v -1.0801 q 0.5426,-0.465 1.0852,-0.9301 0.54777,-0.4651 1.01803,-0.925 0.99218,-0.9612 1.35908,-1.5245 0.3669,-0.5684 0.3669,-1.2247 0,-0.5995 -0.3979,-0.9354 -0.39274,-0.341 -1.10071,-0.341 -0.47025,0 -1.01802,0.1653 -0.54777,0.1654 -1.0697,0.5065 h -0.0517 v -1.0852 q 0.3669,-0.1809 0.97668,-0.3308 0.61495,-0.1498 1.18856,-0.1498 1.18339,0 1.85518,0.5736 0.67179,0.5684 0.67179,1.5451 0,0.4393 -0.11369,0.8217 -0.10852,0.3772 -0.32556,0.7183 -0.20154,0.3204 -0.47542,0.6304 -0.26872,0.3101 -0.65629,0.6873 -0.55294,0.5426 -1.14205,1.0542 -0.58911,0.5064 -1.1007,0.9405 h 4.13927 z"
         style="stroke-width:0.264583;fill:#ececec;stroke:none"
         id="path2902" />
    </g>
    <g
       aria-label="36"
       id="text2074"
       style="font-style:normal;font-weight:normal;font-size:10.5833px;line-height:1.25;font-family:sans-serif;fill:#ececec;fill-opacity:1;stroke:none;stroke-width:0.264583">
      <path
         d="m 688.93376,1242.5646 q 0.24805,0.2222 0.40824,0.5581 0.1602,0.3359 0.1602,0.8682 0,0.527 -0.1912,0.9663 -0.19121,0.4392 -0.53744,0.7648 -0.38757,0.3617 -0.91467,0.5374 -0.52193,0.1706 -1.14721,0.1706 -0.64079,0 -1.2609,-0.1551 -0.62012,-0.1498 -1.01802,-0.3307 v -1.08 h 0.0775 q 0.43925,0.2894 1.03353,0.4806 0.59427,0.1912 1.14721,0.1912 0.32556,0 0.69246,-0.1085 0.3669,-0.1086 0.59428,-0.3204 0.23771,-0.2274 0.3514,-0.5013 0.11885,-0.2739 0.11885,-0.6925 0,-0.4134 -0.13436,-0.6821 -0.12919,-0.2739 -0.36173,-0.4289 -0.23254,-0.1602 -0.56327,-0.217 -0.33073,-0.062 -0.71313,-0.062 h -0.46509 v -0.8578 h 0.36173 q 0.78548,0 1.25057,-0.3255 0.47025,-0.3308 0.47025,-0.9612 0,-0.2791 -0.11885,-0.4858 -0.11886,-0.2118 -0.33073,-0.3462 -0.22221,-0.1344 -0.47542,-0.186 -0.25321,-0.052 -0.57361,-0.052 -0.49092,0 -1.04386,0.1757 -0.55293,0.1757 -1.04386,0.4961 h -0.0517 v -1.0801 q 0.36691,-0.1808 0.97669,-0.3307 0.61494,-0.155 1.18855,-0.155 0.56327,0 0.99218,0.1033 0.42892,0.1034 0.77515,0.3308 0.37207,0.248 0.56327,0.5994 0.1912,0.3514 0.1912,0.8217 0,0.6407 -0.45475,1.1213 -0.44958,0.4755 -1.06453,0.5995 v 0.072 q 0.24805,0.041 0.56844,0.1757 0.32039,0.1292 0.5426,0.3256 z"
         style="stroke-width:0.264583;fill:#ececec;stroke:none"
         id="path2905" />
      <path
         d="m 696.45266,1243.7738 q 0,1.1731 -0.77515,1.9172 -0.76997,0.739 -1.89135,0.739 -0.56844,0 -1.03352,-0.1757 -0.46509,-0.1757 -0.82166,-0.522 -0.44441,-0.4289 -0.68729,-1.1368 -0.23771,-0.708 -0.23771,-1.7054 0,-1.0231 0.21704,-1.8138 0.22221,-0.7906 0.7028,-1.4056 0.45475,-0.5839 1.17305,-0.9095 0.7183,-0.3307 1.67431,-0.3307 0.30489,0 0.51159,0.026 0.20671,0.026 0.41858,0.093 v 0.9871 h -0.0517 q -0.14469,-0.078 -0.43924,-0.1447 -0.28939,-0.072 -0.59428,-0.072 -1.11104,0 -1.7725,0.6976 -0.66145,0.6925 -0.76997,1.8759 0.43408,-0.2636 0.85266,-0.3979 0.42374,-0.1395 0.97668,-0.1395 0.49092,0 0.86299,0.093 0.37724,0.088 0.76998,0.3617 0.45475,0.3152 0.68212,0.7958 0.23255,0.4806 0.23255,1.1679 z m -1.04903,0.041 q 0,-0.4806 -0.1447,-0.7959 -0.13952,-0.3152 -0.46508,-0.5477 -0.23771,-0.1654 -0.5271,-0.2171 -0.28939,-0.052 -0.60461,-0.052 -0.43925,0 -0.81649,0.1033 -0.37723,0.1034 -0.77514,0.3204 -0.0103,0.1137 -0.0155,0.2222 -0.005,0.1034 -0.005,0.2636 0,0.8164 0.16536,1.2919 0.17053,0.4702 0.46509,0.7441 0.23771,0.2274 0.51159,0.3359 0.27906,0.1033 0.60462,0.1033 0.7493,0 1.17822,-0.4547 0.42891,-0.4599 0.42891,-1.3177 z"
         style="stroke-width:0.264583;fill:#ececec;stroke:none"
         id="path2907" />
    </g>
  </g>
</svg>
