<?xml version="1.0" encoding="UTF-8" standalone="no"?>
<svg
   xmlns:dc="http://purl.org/dc/elements/1.1/"
   xmlns:cc="http://creativecommons.org/ns#"
   xmlns:rdf="http://www.w3.org/1999/02/22-rdf-syntax-ns#"
   xmlns:svg="http://www.w3.org/2000/svg"
   xmlns="http://www.w3.org/2000/svg"
   xmlns:xlink="http://www.w3.org/1999/xlink"
   xmlns:sodipodi="http://sodipodi.sourceforge.net/DTD/sodipodi-0.dtd"
   xmlns:inkscape="http://www.inkscape.org/namespaces/inkscape"
   width="210mm"
   height="297mm"
   viewBox="0 0 210 297"
   version="1.1"
   id="svg158"
   sodipodi:docname="hot_air_balloon_tiling_example_5_nogrid.svg"
   inkscape:version="1.0.2 (e86c870879, 2021-01-15, custom)">
  <defs
     id="defs152" />
  <sodipodi:namedview
     id="base"
     pagecolor="#ffffff"
     bordercolor="#666666"
     borderopacity="1.0"
     inkscape:pageopacity="0.0"
     inkscape:pageshadow="2"
     inkscape:zoom="0.13647867"
     inkscape:cx="2379.6632"
     inkscape:cy="3025.5234"
     inkscape:document-units="mm"
     inkscape:current-layer="layer2"
     inkscape:document-rotation="0"
     showgrid="false"
     inkscape:snap-global="true"
     inkscape:window-width="1920"
     inkscape:window-height="986"
     inkscape:window-x="-11"
     inkscape:window-y="-11"
     inkscape:window-maximized="1" />
  <metadata
     id="metadata155">
    <rdf:RDF>
      <cc:Work
         rdf:about="">
        <dc:format>image/svg+xml</dc:format>
        <dc:type
           rdf:resource="http://purl.org/dc/dcmitype/StillImage" />
        <dc:title></dc:title>
      </cc:Work>
    </rdf:RDF>
  </metadata>
  <g
     inkscape:label="Layer 1"
     inkscape:groupmode="layer"
     id="layer1"
     sodipodi:insensitive="true">
    <rect
       style="opacity:1;fill:#ffffff;fill-opacity:1;stroke:none;stroke-width:1;stroke-linecap:round;stroke-miterlimit:4;stroke-dasharray:none"
       id="rect160"
       width="148"
       height="210"
       x="-11.468997"
       y="10.889946"
       inkscape:tile-cx="62.531002"
       inkscape:tile-cy="115.88994"
       inkscape:tile-w="148"
       inkscape:tile-h="210"
       inkscape:tile-x0="-11.468997"
       inkscape:tile-y0="10.889946" />
    <use
       x="0"
       y="0"
       inkscape:tiled-clone-of="#rect160"
       xlink:href="#rect160"
       transform="translate(148,210)"
       id="use1180"
       style="opacity:1;fill:#ffffff;fill-opacity:1;stroke:#000000"
       width="100%"
       height="100%" />
    <use
       x="0"
       y="0"
       inkscape:tiled-clone-of="#rect160"
       xlink:href="#rect160"
       transform="translate(148,419.99999)"
       id="use1182"
       style="opacity:1;fill:#ffffff;fill-opacity:1;stroke:#000000"
       width="100%"
       height="100%" />
    <use
       x="0"
       y="0"
       inkscape:tiled-clone-of="#rect160"
       xlink:href="#rect160"
       transform="translate(148,629.99999)"
       id="use1184"
       style="opacity:1;fill:#ffffff;fill-opacity:1;stroke:#000000"
       width="100%"
       height="100%" />
    <use
       x="0"
       y="0"
       inkscape:tiled-clone-of="#rect160"
       xlink:href="#rect160"
       transform="translate(295.99999)"
       id="use1192"
       style="opacity:1;fill:#ffffff;fill-opacity:1;stroke:#000000;stroke-width:1;stroke-miterlimit:4;stroke-dasharray:1, 3;stroke-dashoffset:0"
       width="100%"
       height="100%" />
    <use
       x="0"
       y="0"
       inkscape:tiled-clone-of="#rect160"
       xlink:href="#rect160"
       transform="translate(295.99999,210)"
       id="use1194"
       style="opacity:1;fill:#ffffff;fill-opacity:1;stroke:#000000"
       width="100%"
       height="100%" />
    <use
       x="0"
       y="0"
       inkscape:tiled-clone-of="#rect160"
       xlink:href="#rect160"
       transform="translate(295.99999,419.99999)"
       id="use1196"
       style="opacity:1;fill:#ffffff;fill-opacity:1;stroke:#000000"
       width="100%"
       height="100%" />
    <use
       x="0"
       y="0"
       inkscape:tiled-clone-of="#rect160"
       xlink:href="#rect160"
       transform="translate(295.99999,629.99999)"
       id="use1198"
       style="opacity:1;fill:#ffffff;fill-opacity:1;stroke:#000000"
       width="100%"
       height="100%" />
    <use
       x="0"
       y="0"
       inkscape:tiled-clone-of="#rect160"
       xlink:href="#rect160"
       transform="translate(295.99999,839.99998)"
       id="use1200"
       style="opacity:1;fill:#ffffff;fill-opacity:1;stroke:#000000"
       width="100%"
       height="100%" />
    <use
       x="0"
       y="0"
       inkscape:tiled-clone-of="#rect160"
       xlink:href="#rect160"
       transform="translate(443.99999)"
       id="use1206"
       style="opacity:1;fill:#ffffff;fill-opacity:1;stroke:#000000"
       width="100%"
       height="100%" />
    <use
       x="0"
       y="0"
       inkscape:tiled-clone-of="#rect160"
       xlink:href="#rect160"
       transform="translate(443.99999,210)"
       id="use1208"
       style="opacity:1;fill:#ffffff;fill-opacity:1;stroke:#000000"
       width="100%"
       height="100%" />
    <use
       x="0"
       y="0"
       inkscape:tiled-clone-of="#rect160"
       xlink:href="#rect160"
       transform="translate(443.99999,419.99999)"
       id="use1210"
       style="opacity:1;fill:#ffffff;fill-opacity:1;stroke:#000000"
       width="100%"
       height="100%" />
    <use
       x="0"
       y="0"
       inkscape:tiled-clone-of="#rect160"
       xlink:href="#rect160"
       transform="translate(443.99999,629.99999)"
       id="use1212"
       style="opacity:1;fill:#ffffff;fill-opacity:1;stroke:#000000"
       width="100%"
       height="100%" />
    <use
       x="0"
       y="0"
       inkscape:tiled-clone-of="#rect160"
       xlink:href="#rect160"
       transform="translate(443.99999,839.99998)"
       id="use1214"
       style="opacity:1;fill:#ffffff;fill-opacity:1;stroke:#000000"
       width="100%"
       height="100%" />
    <use
       x="0"
       y="0"
       inkscape:tiled-clone-of="#rect160"
       xlink:href="#rect160"
       transform="translate(443.99999,1050)"
       id="use1216"
       style="opacity:1;fill:#ffffff;fill-opacity:1;stroke:#000000"
       width="100%"
       height="100%" />
    <use
       x="0"
       y="0"
       inkscape:tiled-clone-of="#rect160"
       xlink:href="#rect160"
       transform="translate(591.99999)"
       id="use1220"
       style="opacity:1;fill:#ffffff;fill-opacity:1;stroke:#000000"
       width="100%"
       height="100%" />
    <use
       x="0"
       y="0"
       inkscape:tiled-clone-of="#rect160"
       xlink:href="#rect160"
       transform="translate(591.99999,210)"
       id="use1222"
       style="opacity:1;fill:#ffffff;fill-opacity:1;stroke:#000000"
       width="100%"
       height="100%" />
    <use
       x="0"
       y="0"
       inkscape:tiled-clone-of="#rect160"
       xlink:href="#rect160"
       transform="translate(591.99999,419.99999)"
       id="use1224"
       style="opacity:1;fill:#ffffff;fill-opacity:1;stroke:#000000"
       width="100%"
       height="100%" />
    <use
       x="0"
       y="0"
       inkscape:tiled-clone-of="#rect160"
       xlink:href="#rect160"
       transform="translate(591.99999,629.99999)"
       id="use1226"
       style="opacity:1;fill:#ffffff;fill-opacity:1;stroke:#000000"
       width="100%"
       height="100%" />
    <use
       x="0"
       y="0"
       inkscape:tiled-clone-of="#rect160"
       xlink:href="#rect160"
       transform="translate(591.99999,839.99998)"
       id="use1228"
       style="opacity:1;fill:#ffffff;fill-opacity:1;stroke:#000000"
       width="100%"
       height="100%" />
    <use
       x="0"
       y="0"
       inkscape:tiled-clone-of="#rect160"
       xlink:href="#rect160"
       transform="translate(591.99999,1050)"
       id="use1230"
       style="opacity:1;fill:#ffffff;fill-opacity:1;stroke:#000000"
       width="100%"
       height="100%" />
    <use
       x="0"
       y="0"
       inkscape:tiled-clone-of="#rect160"
       xlink:href="#rect160"
       transform="translate(591.99999,1260)"
       id="use1232"
       style="opacity:1;fill:#ffffff;fill-opacity:1;stroke:#000000"
       width="100%"
       height="100%" />
    <use
       x="0"
       y="0"
       inkscape:tiled-clone-of="#rect160"
       xlink:href="#rect160"
       transform="translate(739.99998)"
       id="use1234"
       style="opacity:1;fill:#ffffff;fill-opacity:1;stroke:#000000"
       width="100%"
       height="100%" />
    <use
       x="0"
       y="0"
       inkscape:tiled-clone-of="#rect160"
       xlink:href="#rect160"
       transform="translate(739.99998,210)"
       id="use1236"
       style="opacity:1;fill:#ffffff;fill-opacity:1;stroke:#000000"
       width="100%"
       height="100%" />
    <use
       x="0"
       y="0"
       inkscape:tiled-clone-of="#rect160"
       xlink:href="#rect160"
       transform="translate(739.99998,419.99999)"
       id="use1238"
       style="opacity:1;fill:#ffffff;fill-opacity:1;stroke:#000000"
       width="100%"
       height="100%" />
    <use
       x="0"
       y="0"
       inkscape:tiled-clone-of="#rect160"
       xlink:href="#rect160"
       transform="translate(739.99998,629.99999)"
       id="use1240"
       style="opacity:1;fill:#ffffff;fill-opacity:1;stroke:#000000"
       width="100%"
       height="100%" />
    <use
       x="0"
       y="0"
       inkscape:tiled-clone-of="#rect160"
       xlink:href="#rect160"
       transform="translate(739.99998,839.99998)"
       id="use1242"
       style="opacity:1;fill:#ffffff;fill-opacity:1;stroke:#000000"
       width="100%"
       height="100%" />
    <use
       x="0"
       y="0"
       inkscape:tiled-clone-of="#rect160"
       xlink:href="#rect160"
       transform="translate(739.99998,1050)"
       id="use1244"
       style="opacity:1;fill:#ffffff;fill-opacity:1;stroke:#000000"
       width="100%"
       height="100%" />
    <use
       x="0"
       y="0"
       inkscape:tiled-clone-of="#rect160"
       xlink:href="#rect160"
       transform="translate(739.99998,1260)"
       id="use1246"
       style="opacity:1;fill:#ffffff;fill-opacity:1;stroke:#000000"
       width="100%"
       height="100%" />
    <use
       x="0"
       y="0"
       inkscape:tiled-clone-of="#rect160"
       xlink:href="#rect160"
       transform="translate(887.99998,210)"
       id="use1250"
       style="opacity:1;fill:#ffffff;fill-opacity:1;stroke:#000000"
       width="100%"
       height="100%" />
    <use
       x="0"
       y="0"
       inkscape:tiled-clone-of="#rect160"
       xlink:href="#rect160"
       transform="translate(887.99998,419.99999)"
       id="use1252"
       style="opacity:1;fill:#ffffff;fill-opacity:1;stroke:#000000"
       width="100%"
       height="100%" />
    <use
       x="0"
       y="0"
       inkscape:tiled-clone-of="#rect160"
       xlink:href="#rect160"
       transform="translate(887.99998,629.99999)"
       id="use1254"
       style="opacity:1;fill:#ffffff;fill-opacity:1;stroke:#000000"
       width="100%"
       height="100%" />
    <use
       x="0"
       y="0"
       xlink:href="#rect160"
       id="use3079"
       transform="translate(148)"
       width="100%"
       height="100%"
       style="opacity:1" />
    <use
       x="0"
       y="0"
       xlink:href="#rect160"
       id="use3135"
       transform="translate(148,840)"
       width="100%"
       height="100%" />
    <path
       style="opacity:1;fill:#ffb761;fill-opacity:1;stroke:none;stroke-width:21.3802;stroke-linecap:round;stroke-miterlimit:4;stroke-dasharray:none;stroke-dashoffset:0"
       d="m 1408.1375,647.5561 c -199.6048,0.59967 -391.1207,115.82463 -489.23874,288.9772 -114.5387,189.933 -128.81006,419.3542 -119.54711,635.6643 1.65435,28.0454 3.65779,57.4686 7.68979,84.3667 63.05224,-136.5849 194.66116,-234.1832 335.93506,-278.7041 200.1026,-48.6782 408.8016,-27.7856 611.0467,-5.7738 -37.0974,-202.7318 -73.611,-407.20145 -106.5522,-611.22749 -2.4021,-61.01461 -66.2141,-88.6317 -117.214,-101.07208 -39.8775,-9.74285 -81.158,-12.79001 -122.1195,-12.23073 z"
       id="path3439"
       transform="scale(0.26458333)" />
    <path
       style="opacity:1;fill:#7cff61;fill-opacity:1;stroke:none;stroke-width:21.3802;stroke-linecap:round;stroke-miterlimit:4;stroke-dasharray:none;stroke-dashoffset:0"
       d="m 2442.259,1206.6124 c -232.7354,-2.2442 -457.1427,77.1093 -665.1113,174.9868 -12.9821,14.5487 3.5019,40.786 2.1435,58.259 55.3051,275.627 115.5726,550.5352 183.8256,823.2269 4.6267,25.3555 35.3569,-7.3981 49.6743,-5.6568 206.7946,-81.7219 430.5771,-133.2868 653.8082,-107.0748 87.2228,7.2205 170.639,39.0991 250.8576,69.5981 11.1568,-48.8945 0.6872,-102.1355 3.074,-152.3878 -3.3283,-257.9552 -20.1303,-516.9209 -68.6913,-770.3754 -35.4151,-30.0823 -85.392,-39.2727 -127.8317,-56.9884 -90.5796,-30.61 -186.9812,-34.4752 -281.7489,-33.5876 z"
       id="path3441"
       transform="scale(0.26458333)" />
    <path
       style="opacity:1;fill:#7cff61;fill-opacity:1;stroke:none;stroke-width:21.3802;stroke-linecap:round;stroke-miterlimit:4;stroke-dasharray:none;stroke-dashoffset:0"
       d="m 2602.1204,664.88021 c 144.5989,169.76325 204.0934,390.77429 255.2987,602.97429 16.5684,11.0188 39.3167,-12.1177 56.6017,-13.7555 118.5942,-44.7469 244.0082,-69.6699 369.629,-82.0685 -70.8185,-156.8149 -196.4256,-284.90202 -335.5664,-383.60547 -102.4968,-68.40201 -226.1655,-104.36266 -345.963,-123.54482 z"
       id="path3443"
       transform="scale(0.26458333)" />
    <path
       style="opacity:1;fill:#619dff;fill-opacity:1;stroke:none;stroke-width:21.3802;stroke-linecap:round;stroke-miterlimit:4;stroke-dasharray:none;stroke-dashoffset:0"
       d="m 3150.9347,2186.0879 c -74.2544,-0.3788 -147.1226,18.2278 -215.8665,44.7576 -4.1356,244.8243 -10.7851,490.0961 -24.1189,734.3304 14.4079,8.2403 36.5068,-9.7504 53.0609,-8.4495 90.3672,-17.061 184.6007,-18.4536 275.6553,-5.8252 12.8816,2.5448 40.5154,20.7349 38.7694,-6.0988 50.027,-231.1782 90.7237,-464.8993 112.662,-700.4114 -73.1525,-43.3682 -155.1946,-63.1455 -240.1622,-58.3031 z"
       id="path3445"
       transform="scale(0.26458333)" />
    <path
       style="opacity:1;fill:#7cff61;fill-opacity:1;stroke:none;stroke-width:21.3802;stroke-linecap:round;stroke-miterlimit:4;stroke-dasharray:none;stroke-dashoffset:0"
       d="m 1668.6952,2252.2134 c -210.7454,-6.3966 -410.1821,92.1609 -566.4035,227.6 -13.6567,17.1272 -46.2023,28.6591 -45.8294,53.022 51.5186,137.5187 123.9977,266.3937 189.393,397.7168 58.6529,110.622 119.2062,221.0326 185.4841,326.924 196.6562,-150.444 444.585,-221.5684 689.7385,-232.7045 11.5105,0.3379 32.8865,-3.7145 20.3955,-20.2851 -64.1505,-236.433 -119.244,-475.3495 -185.3724,-711.1837 -5.699,-25.8524 -43.3876,-13.3304 -61.6368,-23.1212 -74.235,-14.7587 -150.2511,-18.1068 -225.769,-17.9683 z"
       id="path3447"
       transform="scale(0.26458333)" />
    <path
       style="opacity:1;fill:#ffb761;fill-opacity:1;stroke:none;stroke-width:21.3802;stroke-linecap:round;stroke-miterlimit:4;stroke-dasharray:none;stroke-dashoffset:0"
       d="m 790.59016,1686.2297 c -65.0948,17.0411 -113.33066,67.649 -158.5466,114.3303 -32.6259,199.0198 -31.82743,404.4362 17.76476,600.6515 25.80254,107.8454 61.50836,214.4928 106.34353,315.1954 46.1148,-109.4312 156.07167,-183.2126 272.58965,-195.0399 7.1573,-21.1463 -15.3304,-45.1497 -18.7825,-66.0372 -102.0557,-244.2474 -175.58276,-500.8371 -210.28694,-763.4322 -0.96575,-4.212 -4.78598,-6.9407 -9.0819,-5.6679 z"
       id="path3449"
       transform="scale(0.26458333)" />
    <path
       style="opacity:1;fill:#7cff61;fill-opacity:1;stroke:none;stroke-width:21.3802;stroke-linecap:round;stroke-miterlimit:4;stroke-dasharray:none;stroke-dashoffset:0"
       d="m 1427.5055,3279.6285 c -90.1044,25.3929 -178.3116,75.3399 -231.4669,154.2487 122.6966,156.4814 259.2437,301.4984 401.4377,440.2403 64.651,5.422 126.4811,-29.8997 170.5454,-74.3236 -116.2584,-171.1587 -228.8643,-346.1797 -339.3008,-520.2206 z"
       id="path3451"
       transform="scale(0.26458333)" />
    <path
       style="opacity:1;fill:#619dff;fill-opacity:1;stroke:none;stroke-width:21.3802;stroke-linecap:round;stroke-miterlimit:4;stroke-dasharray:none;stroke-dashoffset:0"
       d="m 2606.4625,2948.9787 c -147.3895,1.9107 -295.4858,28.1687 -432.672,82.3559 -25.4893,9.1931 2.7861,40.0457 1.1128,57.3524 55.3664,203.0592 109.9525,406.6112 170.9461,607.9467 106.843,23.3421 219.9129,24.4243 326.1972,-1.9666 61.9982,-24.383 126.9016,-47.6356 181.4834,-85.9467 18.5333,-70.8188 13.6841,-146.4035 21.8482,-219.0423 7.1103,-135.9403 22.2146,-272.2883 21.672,-408.1835 -93.0126,-26.6221 -193.9312,-33.0211 -290.5877,-32.5159 z"
       id="path3453"
       transform="scale(0.26458333)" />
    <path
       style="opacity:1;fill:#ff61ff;fill-opacity:1;stroke:none;stroke-width:21.3802;stroke-linecap:round;stroke-miterlimit:4;stroke-dasharray:none;stroke-dashoffset:0"
       d="m 3136.3506,3497.1633 c -68.664,40.8639 -138.6939,82.0039 -216.7462,103.0496 -17.4048,9.6484 -57.4003,3.3619 -50.255,34.2074 -9.9805,134.0693 -20.1079,269.2061 -24.371,402.9836 59.8169,-38.1117 125.7806,-76.7848 163.8057,-138.4935 12.7246,-30.7671 5.1042,-76.4854 38.1617,-94.6087 29.6826,-67.9746 42.2277,-142.9696 66.0371,-213.3252 6.9991,-30.8876 22.2593,-64.0805 25.8205,-94.0121 -0.8194,-0.043 -1.6601,-0.1337 -2.4528,0.1989 z"
       id="path3455"
       transform="scale(0.26458333)" />
    <path
       style="opacity:1;fill:#619dff;fill-opacity:1;stroke:none;stroke-width:21.3802;stroke-linecap:round;stroke-miterlimit:4;stroke-dasharray:none;stroke-dashoffset:0"
       d="m 2254.8647,3751.3019 c -89.6408,48.8901 -188.5826,83.8851 -291.9246,82.0354 -55.445,3.1341 -111.7396,-11.6954 -165.5183,-14.2526 87.9305,132.7184 186.3801,258.7011 283.7377,384.6329 126.0032,-5.1779 255.2675,-2.4454 377.7386,-35.8635 16.8918,-12.3749 -2.1334,-39.0623 -2.1655,-55.2759 -37.6764,-134.8184 -78.7128,-269.2986 -118.6282,-403.084 -27.7466,13.9359 -55.4932,27.8718 -83.2397,41.8077 z"
       id="path3457"
       transform="scale(0.26458333)" />
    <path
       style="opacity:1;fill:#fbff61;fill-opacity:1;stroke:none;stroke-width:21.3802;stroke-linecap:round;stroke-miterlimit:4;stroke-dasharray:none;stroke-dashoffset:0"
       d="m 1391.885,1356.8947 c -151.0502,-0.6054 -308.5464,29.4834 -429.90051,124.7689 -65.27618,50.9379 -127.08486,117.1903 -149.37459,198.6551 3.82497,112.2411 31.3025,222.7934 57.45686,331.6925 44.4336,172.2098 106.68883,339.9049 174.78354,503.5553 134.5072,-120.957 291.2651,-227.4778 472.7782,-258.7238 143.8217,-29.1545 292.4451,-13.1933 434.9149,14.2085 -62.2471,-277.4974 -128.8075,-554.7762 -184.2768,-834.029 -6.3671,-21.8527 -6.7767,-60.2447 -39.1911,-57.5222 -111.5348,-15.4924 -224.584,-22.9858 -337.1905,-22.6053 z"
       id="path3459"
       transform="scale(0.26458333)" />
    <path
       style="opacity:1;fill:#fbff61;fill-opacity:1;stroke:none;stroke-width:21.3802;stroke-linecap:round;stroke-miterlimit:4;stroke-dasharray:none;stroke-dashoffset:0"
       d="m 2161.858,480.17066 c -173.2581,-2.53529 -345.1096,70.58755 -461.2414,199.62601 -16.4585,24.7417 -60.1977,40.70979 -43.6991,76.13459 32.6386,204.74254 65.8188,409.82294 108.1542,612.68594 16.469,12.7985 37.6149,-16.0474 55.1389,-17.232 264.8124,-123.0225 567.8698,-195.557 858.2,-132.1554 58.3565,10.8299 113.2901,38.8842 168.9433,54.7345 -40.0002,-192.1898 -99.0358,-385.52622 -210.7179,-549.26727 -95.1843,-130.99176 -240.7365,-237.88611 -407.6691,-242.54868 -22.3435,-1.32212 -44.723,-2.15405 -67.1089,-1.97769 z"
       id="path3461"
       transform="scale(0.26458333)" />
    <path
       style="opacity:1;fill:#61f1ff;fill-opacity:1;stroke:none;stroke-width:21.3802;stroke-linecap:round;stroke-miterlimit:4;stroke-dasharray:none;stroke-dashoffset:0"
       d="m 3232.7823,1188.2829 c -128.6036,9.9381 -254.0482,49.3264 -372.5127,97.3708 54.2461,308.4659 73.4106,623.0338 72.5006,935.5133 130.0165,-47.0461 281.0748,-66.883 411.2267,-10.1094 26.2893,16.3814 54.1294,30.0116 50.3798,-11.7363 17.4866,-266.0002 26.4091,-537.2861 -31.6926,-799.2438 -16.5518,-73.8078 -41.7534,-145.5241 -70.1402,-215.3744 -19.9206,1.1933 -39.8411,2.3865 -59.7616,3.5798 z"
       id="path3463"
       transform="scale(0.26458333)" />
    <path
       style="opacity:1;fill:#61f1ff;fill-opacity:1;stroke:none;stroke-width:21.3802;stroke-linecap:round;stroke-miterlimit:4;stroke-dasharray:none;stroke-dashoffset:0"
       d="m 2530.4264,2150.39 c -189.7983,3.9878 -374.1723,61.1391 -549.2342,130.3618 -25.1933,12.1194 2.7701,44.354 1.0216,63.4801 56.234,223.3133 109.9132,447.5779 173.5233,668.8394 7.7991,24.8415 34.6038,-5.6414 50.2267,-4.7398 160.5501,-52.5385 330.3864,-76.6655 499.2235,-64.4724 66.3463,-0.4259 131.4079,16.1208 196.7353,21.9576 15.0134,-243.3976 17.4469,-487.513 21.3458,-731.1484 -123.2162,-55.6951 -257.1322,-87.8618 -392.842,-84.2783 z"
       id="path3465"
       transform="scale(0.26458333)" />
    <path
       style="opacity:1;fill:#61f1ff;fill-opacity:1;stroke:none;stroke-width:21.3802;stroke-linecap:round;stroke-miterlimit:4;stroke-dasharray:none;stroke-dashoffset:0"
       d="m 2092.6942,3036.1628 c -196.9433,7.86 -391.5789,68.0748 -562.1057,166.1038 -27.0686,21.9988 -69.22,33.4456 -84.2341,66.7553 6.5881,45.7091 44.9481,80.66 64.7724,121.3179 89.1192,138.4829 175.6982,279.3632 274.5615,411.0341 104.92,28.6573 219.5947,31.5427 324.783,1.6793 75.8375,-30.8381 154.0586,-61.3978 222.9264,-105.2926 -60.1584,-220.7415 -123.3412,-441.0056 -183.3174,-661.653 -19.1287,0.03 -38.2578,-0.065 -57.3861,0.055 z"
       id="path3467"
       transform="scale(0.26458333)" />
    <path
       style="opacity:1;fill:#7761ff;fill-opacity:1;stroke:none;stroke-width:21.3802;stroke-linecap:round;stroke-miterlimit:4;stroke-dasharray:none;stroke-dashoffset:0"
       d="m 3121.8328,2948.5589 c -71.1624,1.5847 -142.8956,10.2973 -210.8835,31.5104 -14.7327,207.7814 -25.597,416.5302 -42.0397,623.7566 99.609,-24.6182 200.268,-64.1111 276.5892,-134.6154 25.3185,-62.9219 36.5539,-132.1779 55.2339,-197.7466 22.9581,-99.3762 51.9073,-198.4304 66.5211,-299.1506 -44.671,-22.3329 -96.4252,-24.0415 -145.421,-23.7544 z"
       id="path3469"
       transform="scale(0.26458333)" />
    <path
       style="opacity:1;fill:#7761ff;fill-opacity:1;stroke:none;stroke-width:21.3802;stroke-linecap:round;stroke-miterlimit:4;stroke-dasharray:none;stroke-dashoffset:0"
       d="m 2824.406,3638.4741 c -114.1137,69.6804 -250.6657,95.5181 -382.943,79.9942 -30.866,-2.018 -62.2453,-6.1334 -92.4316,-10.0679 43.4639,147.7403 82.3592,297.465 136.3722,441.7428 19.1687,27.5232 55.7767,-0.726 81.1449,-1.8596 13.8824,-1.2454 27.8566,-5.794 17.9716,-21.9831 -3.2628,-19.4439 -25.711,-56.6062 4.8613,-64.5788 26.7615,10.1212 22.9983,50.9329 35.4548,71.7051 71.1588,-26.0589 141.7021,-54.362 209.5246,-88.0679 8.3787,-142.3463 15.606,-285.8188 26.2513,-427.3909 -12.0687,6.8354 -24.1374,13.6708 -36.2061,20.5061 z"
       id="path3471"
       transform="scale(0.26458333)" />
    <path
       style="opacity:1;fill:#fbff61;fill-opacity:1;stroke:none;stroke-width:21.3802;stroke-linecap:round;stroke-miterlimit:4;stroke-dasharray:none;stroke-dashoffset:0"
       d="m 1019.2619,2532.8354 c -109.84208,12.4981 -214.61907,86.8803 -253.13322,191.9353 8.22507,47.5231 39.49114,89.4986 58.4807,133.6525 102.94984,198.3608 225.98512,386.9423 362.92182,563.1017 57.0811,-58.8007 120.7583,-113.8919 200.0449,-139.7861 10.1827,-6.6067 42.9192,-12.3361 25.2128,-29.9085 -131.6305,-229.6944 -258.8087,-462.4298 -365.4085,-704.9743 -4.6733,-11.8154 -16.0928,-16.1154 -28.1185,-14.0206 z"
       id="path3473"
       transform="scale(0.26458333)" />
    <path
       style="opacity:1;fill:#61f1ff;fill-opacity:1;stroke:none;stroke-width:21.3802;stroke-linecap:round;stroke-miterlimit:4;stroke-dasharray:none;stroke-dashoffset:0"
       d="m 1775.8882,3813.9913 c -36.8403,19.6995 -67.4755,52.9216 -110.3086,62.0597 -14.3678,8.9387 -72.1557,3.2679 -40.1593,23.5134 79.8497,66.6406 154.0045,142.1058 242.2482,197.6011 59.5049,17.7032 87.22,92.0284 153.828,95.7788 10.3445,-0.3499 32.454,10.6545 38.9469,4.2326 -95.1963,-126.8051 -189.5657,-254.6708 -282.6217,-382.9978 -0.6217,-0.2014 -1.2817,-0.2807 -1.9335,-0.1878 z"
       id="path3475"
       transform="scale(0.26458333)" />
    <path
       style="opacity:1;fill:#ff5f5f;fill-opacity:1;stroke:none;stroke-width:21.3802;stroke-linecap:round;stroke-miterlimit:4;stroke-dasharray:none;stroke-dashoffset:0"
       d="m 764.93544,1391.7418 c -59.66237,120.6875 -100.62351,251.5329 -126.57211,382.821 33.79957,-23.9102 61.52094,-61.1888 101.43667,-78.7651 15.9439,-14.1143 49.50708,-8.1195 56.66798,-30.3945 -4.54,-105.4056 -5.20255,-212.4693 -9.77796,-316.9165 -7.25153,14.4184 -14.50305,28.8367 -21.75458,43.2551 z"
       id="path3477"
       transform="scale(0.26458333)" />
  </g>
  <g
     inkscape:groupmode="layer"
     id="layer2"
     inkscape:label="Layer 2">
    <path
       id="ellipse2127"
       style="opacity:1;fill:none;fill-opacity:1;stroke:#000000;stroke-width:1;stroke-linecap:round;stroke-miterlimit:4;stroke-dasharray:none"
       d="m 607.71346,1273.7578 28.32433,108.5482 c 0.2342,5.2036 1.56105,10.1158 3.95222,14.632 l 0.13196,0.4879 0.10914,-0.04 c 9.53172,17.3852 34.28894,27.5593 67.06199,27.5593 58.55133,0 125.34887,-31.8602 149.19645,-71.1618 8.4801,-13.9755 10.64174,-27.6417 8.37503,-33.6317 l -56.71436,-120.3841"
       sodipodi:nodetypes="cccccsscc" />
    <ellipse
       style="opacity:1;fill:none;fill-opacity:1;stroke:#000000;stroke-width:1.08152;stroke-linecap:round;stroke-miterlimit:4;stroke-dasharray:none"
       id="path2125"
       cx="1461.4401"
       cy="1449.8712"
       rx="95.531441"
       ry="75.005363"
       transform="matrix(1,0,-0.51875428,0.85492339,0,0)" />
    <path
       id="path2114"
       style="opacity:1;fill:none;fill-opacity:1;stroke:#000000;stroke-width:1;stroke-linecap:round;stroke-miterlimit:4;stroke-dasharray:none"
       d="m 210.71344,348.76149 c -32.97209,60.29776 -50.76774,129.23088 -50.76777,200.10614 1.6e-4,81.40378 28.64869,157.75738 67.3453,227.74007 112.4197,203.31063 268.74015,312.3791 289.23804,327.1519 24.08627,17.3591 105.87268,8.6278 160.49499,-4.387 56.1238,-13.3726 116.87038,-47.5566 126.31755,-77.3516 7.29669,-23.01268 77.002,-241.39755 93.50595,-412.3498 16.50396,-170.95227 2.6505,-287.11248 -67.97313,-360.91881 -44.9821,-47.00925 -79.70628,-64.59409 -143.588,-74.78221"
       sodipodi:nodetypes="ccsssszsc" />
    <path
       id="ellipse2139"
       style="opacity:1;fill:none;fill-opacity:1;stroke:#000000;stroke-width:1;stroke-linecap:round;stroke-miterlimit:4;stroke-dasharray:none"
       d="m 824.28456,1234.2157 c 5.22533,10.9622 4.61059,23.9832 -4.24346,38.5749 -22.27163,36.7044 -84.655,66.4592 -139.337,66.4592 -36.6826,0 -60.37807,-13.9848 -65.32507,-34.138"
       sodipodi:nodetypes="cssc" />
    <path
       id="ellipse2141"
       style="opacity:1;fill:none;fill-opacity:1;stroke:#000000;stroke-width:1;stroke-linecap:round;stroke-miterlimit:4;stroke-dasharray:none"
       d="m 841.02437,1269.8816 c 4.6907,11.0335 4.18013,23.2447 -4.5807,37.6829 -22.90046,37.7406 -87.04506,68.3355 -143.27096,68.3355 -37.4799,0 -61.98022,-13.5947 -67.36794,-33.8386"
       sodipodi:nodetypes="cssc" />
    <path
       id="ellipse2143"
       style="opacity:1;fill:none;fill-opacity:1;stroke:#000000;stroke-width:1;stroke-linecap:round;stroke-miterlimit:4;stroke-dasharray:none"
       d="m 854.59953,1298.2442 c 4.71226,11.2455 3.19683,24.8726 -5.71428,39.5584 -23.4035,38.5697 -88.95704,69.8365 -146.41804,69.8365 -40.3418,0 -65.96942,-15.4117 -69.55993,-37.9421 m 54.54637,-74.0428 c 22.01011,-12.6779 48.26906,-21.9727 74.37094,-25.7831"
       sodipodi:nodetypes="cssccc" />
    <ellipse
       style="opacity:1;fill:none;fill-opacity:1;stroke:#000000;stroke-width:1.08152;stroke-linecap:round;stroke-miterlimit:4;stroke-dasharray:none"
       id="ellipse2148"
       cx="1461.4401"
       cy="1449.8712"
       rx="84.349907"
       ry="66.226318"
       transform="matrix(1,0,-0.51875428,0.85492339,0,0)" />
    <path
       style="opacity:1;fill:none;stroke:#000000;stroke-width:1;stroke-linecap:butt;stroke-linejoin:miter;stroke-miterlimit:4;stroke-dasharray:none;stroke-opacity:1"
       d="m 807.9688,1233.5642 53.45391,111.7186"
       id="path2150" />
    <path
       style="opacity:1;fill:none;stroke:#000000;stroke-width:1;stroke-linecap:butt;stroke-linejoin:miter;stroke-miterlimit:4;stroke-dasharray:none;stroke-opacity:1"
       d="m 787.38906,1260.0239 50.51393,115.995"
       id="path2152" />
    <path
       style="opacity:1;fill:none;stroke:#000000;stroke-width:1;stroke-linecap:butt;stroke-linejoin:miter;stroke-miterlimit:4;stroke-dasharray:none;stroke-opacity:1"
       d="m 759.32577,1280.3363 43.29766,119.7368"
       id="path2154" />
    <path
       style="opacity:1;fill:none;stroke:#000000;stroke-width:1;stroke-linecap:butt;stroke-linejoin:miter;stroke-miterlimit:4;stroke-dasharray:none;stroke-opacity:1"
       d="m 725.91707,1294.5016 38.21954,120.8059"
       id="path2156" />
    <path
       style="opacity:1;fill:none;stroke:#000000;stroke-width:1;stroke-linecap:butt;stroke-linejoin:miter;stroke-miterlimit:4;stroke-dasharray:none;stroke-opacity:1"
       d="m 625.95825,1294.5016 36.88321,121.6077"
       id="path2158" />
    <path
       style="opacity:1;fill:none;stroke:#000000;stroke-width:1;stroke-linecap:butt;stroke-linejoin:miter;stroke-miterlimit:4;stroke-dasharray:none;stroke-opacity:1"
       d="m 656.96152,1303.0543 33.4087,120.2713"
       id="path2160" />
    <path
       style="opacity:1;fill:none;stroke:#000000;stroke-width:1;stroke-linecap:butt;stroke-linejoin:miter;stroke-miterlimit:4;stroke-dasharray:none;stroke-opacity:1"
       d="m 690.90476,1302.2524 33.4087,121.3404"
       id="path2162" />
    <path
       id="path2180"
       style="opacity:1;fill:none;stroke:#000000;stroke-width:3.77953;stroke-linecap:butt;stroke-linejoin:miter;stroke-miterlimit:4;stroke-dasharray:none;stroke-opacity:1"
       d="M 2839.3145,4044.9297 C 2886.4293,2942.1432 3226.956,469.32514 2173.8281,472.89844 c -42.8101,0.14525 -87.9238,4.38086 -135.4531,12.96875 -219.1965,39.60576 -345.4607,184.72859 -389.5586,245.17773"
       sodipodi:nodetypes="cssc"
       transform="scale(0.26458333)" />
    <path
       style="opacity:1;fill:none;stroke:#000000;stroke-width:1;stroke-linecap:butt;stroke-linejoin:miter;stroke-miterlimit:4;stroke-dasharray:none;stroke-opacity:1"
       d="m 549.38285,1112.8655 c 0,0 -310.40576,-383.88284 -336.40273,-668.60506 C 177.32989,135.35418 420.98486,149.07899 436.24933,193.4223 491.15394,573.61838 656.4814,1103.5027 656.4814,1103.5027"
       id="path2182"
       sodipodi:nodetypes="cccc" />
    <path
       style="opacity:1;fill:none;stroke:#000000;stroke-width:1;stroke-linecap:butt;stroke-linejoin:miter;stroke-miterlimit:4;stroke-dasharray:none;stroke-opacity:1"
       d="m 872.38077,313.08793 c -45.97036,-4.27631 -118.66769,26.72694 -118.66769,26.72694 -126.15121,-63.0756 -285.44385,25.65789 -285.44385,25.65789 0,0 -121.87489,-21.38156 -182.81234,6.41447 -60.93745,27.79603 -72.47677,72.37321 -72.47677,72.37321 0,0 -24.80934,1.39318 -47.25998,33.46552"
       id="path2184"
       sodipodi:nodetypes="cccscc" />
    <path
       style="opacity:1;fill:none;stroke:#000000;stroke-width:1;stroke-linecap:butt;stroke-linejoin:miter;stroke-miterlimit:4;stroke-dasharray:none;stroke-opacity:1"
       d="m 200.00661,724.20869 c 0,0 12.25641,-50.94889 76.40111,-56.29427 72.21201,-68.42346 142.31546,-87.57749 244.24635,-64.68575 63.82382,-25.30179 162.12693,-58.55019 252.61557,-12.90491 0,0 69.49007,-32.80604 125.08214,3.01459"
       id="path2186"
       sodipodi:nodetypes="ccccc" />
    <path
       style="opacity:1;fill:none;stroke:#000000;stroke-width:1;stroke-linecap:butt;stroke-linejoin:miter;stroke-miterlimit:4;stroke-dasharray:none;stroke-opacity:1"
       d="m 314.32199,909.09897 c 0.2351,3.99666 7.88044,-25.80777 62.96165,-43.04478 25.06716,-25.48323 108.77397,-67.43594 193.31971,-63.94551 74.81699,-30.32928 156.29062,-26.21576 197.45059,-14.55574 0,0 63.57895,-19.27542 98.56195,-1.78215"
       id="path2188"
       sodipodi:nodetypes="ccccc" />
    <path
       style="opacity:1;fill:none;stroke:#000000;stroke-width:1;stroke-linecap:butt;stroke-linejoin:miter;stroke-miterlimit:4;stroke-dasharray:none;stroke-opacity:1"
       d="m 422.29889,1026.6976 c 0,0 23.51971,3.7417 46.50489,-20.3125 79.71772,21.2108 114.91431,-10.48821 150.74002,-26.72696 59.96772,9.18793 90.02826,5.71522 138.98015,-25.12334 0.86442,1.24261 50.42615,-11.10096 75.90455,-36.34866"
       id="path2190"
       sodipodi:nodetypes="ccccc" />
    <path
       style="color:#000000;font-style:normal;font-variant:normal;font-weight:normal;font-stretch:normal;font-size:medium;line-height:normal;font-family:sans-serif;font-variant-ligatures:normal;font-variant-position:normal;font-variant-caps:normal;font-variant-numeric:normal;font-variant-alternates:normal;font-variant-east-asian:normal;font-feature-settings:normal;font-variation-settings:normal;text-indent:0;text-align:start;text-decoration:none;text-decoration-line:none;text-decoration-style:solid;text-decoration-color:#000000;letter-spacing:normal;word-spacing:normal;text-transform:none;writing-mode:lr-tb;direction:ltr;text-orientation:mixed;dominant-baseline:auto;baseline-shift:baseline;text-anchor:start;white-space:normal;shape-padding:0;shape-margin:0;inline-size:0;clip-rule:nonzero;display:inline;overflow:visible;visibility:visible;opacity:1;isolation:auto;mix-blend-mode:normal;color-interpolation:sRGB;color-interpolation-filters:linearRGB;solid-color:#000000;solid-opacity:1;vector-effect:none;fill:#ffffff;fill-opacity:1;fill-rule:nonzero;stroke:#000000;stroke-width:1;stroke-linecap:round;stroke-linejoin:miter;stroke-miterlimit:4;stroke-dasharray:none;stroke-dashoffset:0;stroke-opacity:1;color-rendering:auto;image-rendering:auto;shape-rendering:auto;text-rendering:auto;enable-background:accumulate;stop-color:#000000;stop-opacity:1"
       d="m 804.91992,1009.5938 a 3.5,3.5 0 0 0 -3.43359,2.6933 c 0,0 -26.83198,111.4292 -2.23047,189.334 a 3.5,3.5 0 0 0 4.39062,2.2832 3.5,3.5 0 0 0 2.28516,-4.3906 c -23.57115,-74.642 2.36524,-185.6114 2.36524,-185.6114 a 3.5,3.5 0 0 0 -2.59766,-4.2128 3.5,3.5 0 0 0 -0.7793,-0.096 z"
       id="path3065" />
    <path
       style="color:#000000;font-style:normal;font-variant:normal;font-weight:normal;font-stretch:normal;font-size:medium;line-height:normal;font-family:sans-serif;font-variant-ligatures:normal;font-variant-position:normal;font-variant-caps:normal;font-variant-numeric:normal;font-variant-alternates:normal;font-variant-east-asian:normal;font-feature-settings:normal;font-variation-settings:normal;text-indent:0;text-align:start;text-decoration:none;text-decoration-line:none;text-decoration-style:solid;text-decoration-color:#000000;letter-spacing:normal;word-spacing:normal;text-transform:none;writing-mode:lr-tb;direction:ltr;text-orientation:mixed;dominant-baseline:auto;baseline-shift:baseline;text-anchor:start;white-space:normal;shape-padding:0;shape-margin:0;inline-size:0;clip-rule:nonzero;display:inline;overflow:visible;visibility:visible;opacity:1;isolation:auto;mix-blend-mode:normal;color-interpolation:sRGB;color-interpolation-filters:linearRGB;solid-color:#000000;solid-opacity:1;vector-effect:none;fill:#ffffff;fill-opacity:1;fill-rule:nonzero;stroke:#000000;stroke-width:1;stroke-linecap:round;stroke-linejoin:miter;stroke-miterlimit:4;stroke-dasharray:none;stroke-dashoffset:0;stroke-opacity:1;color-rendering:auto;image-rendering:auto;shape-rendering:auto;text-rendering:auto;enable-background:accumulate;stop-color:#000000;stop-opacity:1"
       d="m 684.9707,1076.0449 a 3.5,3.5 0 0 0 -1.36718,0.2969 3.5,3.5 0 0 0 -1.79493,4.6113 c 0,0 2.57112,5.7492 9.56055,34.7344 6.98943,28.9852 18.25655,80.8457 35.31055,172.1348 a 3.5,3.5 0 0 0 4.08398,2.7968 3.5,3.5 0 0 0 2.79688,-4.0839 c -17.06832,-91.3657 -28.35319,-143.3203 -35.38672,-172.4883 -7.03354,-29.1681 -9.95703,-35.9102 -9.95703,-35.9102 a 3.5,3.5 0 0 0 -3.2461,-2.0918 z"
       id="path3069" />
    <path
       style="color:#000000;font-style:normal;font-variant:normal;font-weight:normal;font-stretch:normal;font-size:medium;line-height:normal;font-family:sans-serif;font-variant-ligatures:normal;font-variant-position:normal;font-variant-caps:normal;font-variant-numeric:normal;font-variant-alternates:normal;font-variant-east-asian:normal;font-feature-settings:normal;font-variation-settings:normal;text-indent:0;text-align:start;text-decoration:none;text-decoration-line:none;text-decoration-style:solid;text-decoration-color:#000000;letter-spacing:normal;word-spacing:normal;text-transform:none;writing-mode:lr-tb;direction:ltr;text-orientation:mixed;dominant-baseline:auto;baseline-shift:baseline;text-anchor:start;white-space:normal;shape-padding:0;shape-margin:0;inline-size:0;clip-rule:nonzero;display:inline;overflow:visible;visibility:visible;opacity:1;isolation:auto;mix-blend-mode:normal;color-interpolation:sRGB;color-interpolation-filters:linearRGB;solid-color:#000000;solid-opacity:1;vector-effect:none;fill:#ffffff;fill-opacity:1;fill-rule:nonzero;stroke:#000000;stroke-width:1;stroke-linecap:round;stroke-linejoin:miter;stroke-miterlimit:4;stroke-dasharray:none;stroke-dashoffset:0;stroke-opacity:1;color-rendering:auto;image-rendering:auto;shape-rendering:auto;text-rendering:auto;enable-background:accumulate;stop-color:#000000;stop-opacity:1"
       d="m 495.64258,1085.2129 a 3.5,3.5 0 0 0 -2.81446,1.4668 3.5,3.5 0 0 0 0.81446,4.8808 c 0,0 16.04794,11.4081 38.875,39.7383 22.82706,28.3303 52.20673,73.419 78.16992,140.3242 a 3.5,3.5 0 0 0 4.5293,1.9961 3.5,3.5 0 0 0 1.99609,-4.5293 c -26.22388,-67.5769 -55.98123,-113.3124 -79.24414,-142.1836 -23.26291,-28.8711 -40.25977,-41.0429 -40.25977,-41.0429 a 3.5,3.5 0 0 0 -2.0664,-0.6504 z"
       id="path3077" />
    <path
       style="color:#000000;font-style:normal;font-variant:normal;font-weight:normal;font-stretch:normal;font-size:medium;line-height:normal;font-family:sans-serif;font-variant-ligatures:normal;font-variant-position:normal;font-variant-caps:normal;font-variant-numeric:normal;font-variant-alternates:normal;font-variant-east-asian:normal;font-feature-settings:normal;font-variation-settings:normal;text-indent:0;text-align:start;text-decoration:none;text-decoration-line:none;text-decoration-style:solid;text-decoration-color:#000000;letter-spacing:normal;word-spacing:normal;text-transform:none;writing-mode:lr-tb;direction:ltr;text-orientation:mixed;dominant-baseline:auto;baseline-shift:baseline;text-anchor:start;white-space:normal;shape-padding:0;shape-margin:0;inline-size:0;clip-rule:nonzero;display:inline;overflow:visible;visibility:visible;opacity:1;isolation:auto;mix-blend-mode:normal;color-interpolation:sRGB;color-interpolation-filters:linearRGB;solid-color:#000000;solid-opacity:1;vector-effect:none;fill:#ffffff;fill-opacity:1;fill-rule:nonzero;stroke:#000000;stroke-width:1;stroke-linecap:round;stroke-linejoin:miter;stroke-miterlimit:4;stroke-dasharray:none;stroke-dashoffset:0;stroke-opacity:1;color-rendering:auto;image-rendering:auto;shape-rendering:auto;text-rendering:auto;enable-background:accumulate;stop-color:#000000;stop-opacity:1"
       d="m 656.42188,1100.0039 a 3.5,3.5 0 0 0 -1.36329,0.3008 3.5,3.5 0 0 0 -1.77539,4.6211 c 12.03753,27.0354 22.88853,53.3884 30.29492,84.4336 a 3.5,3.5 0 0 0 4.2168,2.5918 3.5,3.5 0 0 0 2.5918,-4.2168 c -7.55711,-31.677 -18.61792,-58.5049 -30.70703,-85.6563 a 3.5,3.5 0 0 0 -3.25781,-2.0742 z"
       id="path3073" />
    <path
       style="opacity:1;fill:#c87137;fill-opacity:1;stroke-width:7.55906;stroke-linecap:round"
       d="m 2480.441,4160.4474 c -9.7044,0.2174 -11.0284,12.5763 -6.0429,18.9766 35.5086,84.8787 71.7269,169.7828 96.6214,258.5398 6.7249,20.8077 10.0737,43.1954 19.9879,62.7493 8.4259,8.0012 18.0563,-5.3672 14.7305,-13.7032 -24.8931,-106.1406 -65.5434,-207.8604 -109.0643,-307.5606 -4.0908,-6.6891 -6.2315,-19.1637 -16.2326,-19.0019 z"
       id="path4620"
       transform="scale(0.26458333)" />
    <path
       style="opacity:1;fill:#c87137;fill-opacity:1;stroke-width:7.55906;stroke-linecap:round"
       d="m 2588.1754,4069.6388 c -6.4372,2.6859 -14.06,9.4989 -8.0047,16.6382 28.9466,89.8873 47.3043,182.8108 68.1001,274.8439 35.7039,163.6241 66.5194,328.245 98.8929,492.5336 2.4592,7.6857 2.072,23.1478 14.0586,21.3008 13.3365,-3.903 5.786,-20.2554 5.2068,-29.6311 -41.0626,-219.4151 -83.429,-438.7382 -135.6795,-655.8065 -10.1696,-37.9998 -18.1555,-76.941 -32.7383,-113.5312 -1.8553,-3.6247 -5.6819,-6.4064 -9.8359,-6.3477 z"
       id="path4622"
       transform="scale(0.26458333)" />
    <path
       style="opacity:1;fill:#c87137;fill-opacity:1;stroke-width:7.55906;stroke-linecap:round"
       d="m 1870.3942,4104.6467 c -8.9372,1.6083 -9.1005,13.5351 -2.5782,18.3085 100.9684,83.8563 181.929,189.0616 252.1694,299.3016 75.1934,118.4216 135.5562,245.5392 188.2056,375.3586 1.7495,7.4595 7.7973,17.6612 16.7383,12.7461 11.2813,-7.0072 0.7147,-21.2232 -1.5841,-30.2265 -80.4587,-202.1626 -185.6911,-396.6706 -328.2976,-562.0053 -35.6944,-39.8419 -72.4633,-79.7612 -116.0675,-111.0612 -2.6151,-1.4072 -5.5327,-2.7878 -8.5859,-2.4218 z"
       id="path4624"
       transform="scale(0.26458333)" />
    <path
       style="opacity:1;fill:#c87137;fill-opacity:1;stroke-width:7.55906;stroke-linecap:round"
       d="m 3041.691,3818.9513 c -12.0628,2.0066 -10.4241,18.6078 -14.184,27.3425 -22.1371,106.0842 -36.1405,214.0019 -41.5326,322.2483 -3.9235,124.9998 -1.0274,252.9636 38.2518,372.8546 3.1462,10.8923 22.8424,5.6717 18.8203,-5.8047 -15.2494,-56.1941 -27.1061,-113.4526 -31.4835,-171.6373 -14.492,-174.8563 4.3926,-350.8457 38.2287,-522.4328 1.3581,-8.4794 5.3447,-22.8067 -8.1007,-22.5706 z"
       id="path4628"
       transform="scale(0.26458333)" />
    <path
       style="opacity:1;fill:#550000;fill-opacity:1;stroke-width:7.55906;stroke-linecap:round"
       d="m 2782.3317,5031.7404 c -42.4593,9.3934 -84.5179,21.26 -127.6962,27.3785 -5.2668,6.3487 5.2727,22.0187 5.8156,31.7331 10.1472,33.3532 16.5877,68.096 29.5368,100.4665 5.8892,5.3255 15.7114,-0.9118 22.7266,-0.3476 37.8145,-7.1786 76.2059,-13.6187 112.6132,-26.2656 2.2214,-5.7822 -4.2518,-13.6404 -4.6517,-19.913 -12.2733,-37.5933 -23.0408,-76.3422 -37.0162,-113.0206 -0.4388,-0.096 -0.8865,-0.026 -1.3281,-0.031 z"
       id="path4630"
       transform="scale(0.26458333)" />
    <path
       style="opacity:1;fill:#550000;fill-opacity:1;stroke-width:7.55906;stroke-linecap:round"
       d="m 2857.8746,4845.6623 c -35.3158,19.454 -73.7228,32.5149 -110.3828,48.7812 12.6825,43.0023 26.5766,86.3445 40.6328,128.6836 43.2502,-14.9179 85.7379,-32.9405 126.0664,-54.1133 -15.9669,-42.6703 -30.6928,-86.3945 -47.0781,-128.5312 -3.0794,1.7266 -6.1589,3.4531 -9.2383,5.1797 z"
       id="path4632"
       transform="scale(0.26458333)" />
    <path
       style="opacity:1;fill:#550000;fill-opacity:1;stroke-width:7.55906;stroke-linecap:round"
       d="m 3030.1949,4896.6037 c -33.4367,26.6798 -68.4969,51.3151 -105.3164,73.0742 -7.8281,6.0411 3.4758,16.1026 3.5002,23.338 13.7234,36.8796 26.0162,74.9108 41.078,110.9433 20.5505,-7.6469 38.5226,-21.942 57.2425,-33.4115 20.1453,-14.7865 42.6451,-27.8218 59.4332,-46.362 -17.3172,-42.9408 -35.8609,-85.5466 -55.3007,-127.5781 l -0.4532,-0.086 z"
       id="path4634"
       transform="scale(0.26458333)" />
    <path
       style="opacity:1;fill:#550000;fill-opacity:1;stroke-width:7.55906;stroke-linecap:round"
       d="m 2964.6207,5115.7521 c -28.3606,10.6953 -54.9098,26.1357 -83.7615,35.8884 -15.0962,6.5474 -32.5068,9.9011 -46.1604,18.7054 11.5558,37.5441 23.2047,75.5506 35.3164,112.6211 46.2073,-15.5682 92.4251,-32.6097 135.2188,-56.0938 2.4541,-6.4444 -4.9897,-14.6033 -5.703,-21.4282 -11.1776,-29.8526 -20.8686,-60.872 -33.8165,-89.728 -0.3637,-0.041 -0.7333,-0.041 -1.0938,0.035 z"
       id="path4636"
       transform="scale(0.26458333)" />
    <path
       style="opacity:1;fill:#550000;fill-opacity:1;stroke-width:7.55906;stroke-linecap:round"
       d="m 3168.5504,4934.1935 c -18.7065,35.2162 -46.4989,64.506 -74.5469,92.2344 15.8344,35.5688 30.616,72.4771 47.1016,107.2188 30.2701,-31.0337 60.0188,-64.1291 78.3359,-103.8165 2.9926,-18.2467 -10.9763,-34.1043 -16.8917,-50.3671 -9.432,-18.705 -17.7319,-39.1073 -27.8231,-56.7696 -2.0586,3.8334 -4.1172,7.6667 -6.1758,11.5 z"
       id="path4638"
       transform="scale(0.26458333)" />
    <path
       style="opacity:1;fill:#550000;fill-opacity:1;stroke-width:7.55906;stroke-linecap:round"
       d="m 3053.527,4670.6467 c -16.8064,28.3486 -36.4965,55.2253 -60.1171,78.4335 -10.6652,8.1889 -17.6053,17.2883 -7.4479,29.2912 15.7882,35.4585 30.5352,72.2139 46.9634,106.8729 30.9101,-28.4202 57.2628,-61.8078 76.9805,-98.8437 -18.7034,-38.5235 -35.6069,-78.6324 -56.2461,-115.8125 z"
       id="path4642"
       transform="scale(0.26458333)" />
    <path
       style="opacity:1;fill:#550000;fill-opacity:1;stroke-width:7.55906;stroke-linecap:round"
       d="m 3130.4215,4703.8654 c -0.4477,26.9319 -2.7789,53.9758 -13.5655,78.9581 -0.4876,10.9635 9.4931,21.2237 12.8771,31.9209 15.2777,29.7105 27.1664,61.5079 44.7587,89.8632 5.1825,0.7281 4.6639,-9.3068 6.8008,-12.625 9.0817,-33.5309 6.534,-70.0984 -9.4874,-101.1707 -13.3067,-28.9982 -26.728,-59.6752 -41.3837,-86.9465 z"
       id="path4644"
       transform="scale(0.26458333)" />
    <path
       style="opacity:1;fill:#550000;fill-opacity:1;stroke-width:7.55906;stroke-linecap:round"
       d="m 3242.4215,4941.1193 c -0.6372,27.4993 -2.6059,55.356 -13.4102,80.9805 8.8492,17.612 16.5478,37.1862 26.1094,53.5859 7.6103,-25.1696 18.0151,-52.1661 12.3945,-78.7539 -6.841,-19.0429 -15.5982,-39.019 -25.0937,-55.8125 z"
       id="path4646"
       transform="scale(0.26458333)" />
    <path
       style="opacity:1;fill:#550000;fill-opacity:1;stroke-width:7.55906;stroke-linecap:round"
       d="m 3138.6363,5144.8928 c -31.5625,22.9427 -62.0521,47.7015 -95.9368,67.3735 -9.4738,5.9372 -19.8516,10.9226 -28.9772,17.0483 7.7785,18.9993 13.1661,39.5521 21.6054,57.9688 43.7779,-21.956 84.3559,-50.5825 121.7071,-82.2266 5.7969,-3.2474 6.1398,-8.9347 2.4271,-14.0108 -6.8424,-15.2122 -12.3741,-32.1592 -20.8256,-46.1532 z"
       id="path4648"
       transform="scale(0.26458333)" />
    <path
       style="opacity:1;fill:#550000;fill-opacity:1;stroke-width:7.55906;stroke-linecap:round"
       d="m 2863.6168,5291.7482 c -43.9219,9.9001 -87.7061,21.251 -132.543,26.5547 -6.1225,-0.2966 -9.5247,4.8236 -5.1596,10.2366 6.0572,16.4755 7.0497,35.7653 16.7612,50.5017 46.5671,-5.0845 93.3697,-13.8988 138.0469,-28.5313 8.0609,-1.9812 -0.6915,-11.7074 -0.3281,-16.5859 -4.8508,-13.9472 -8.025,-29.1667 -14.6563,-42.1602 -0.6985,-0.1462 -1.418,-0.053 -2.1211,-0.016 z"
       id="path4650"
       transform="scale(0.26458333)" />
    <path
       style="opacity:1;fill:#550000;fill-opacity:1;stroke-width:7.55906;stroke-linecap:round"
       d="m 2603.8317,4925.4435 c -38.017,3.5744 -76.5628,0.6335 -114.4336,5.0743 -4.9114,3.9812 3.6081,12.4397 2.8384,17.6545 10.2188,36.2631 19.8239,72.9347 30.4584,108.9353 39.8717,2.4054 80.2896,2.886 119.9219,-2.3047 3.3468,-3.8305 -2.4642,-11.3855 -2.3469,-16.3137 -10.0703,-38.1516 -20.2256,-76.7219 -31.3953,-114.2957 -1.681,0.4167 -3.362,0.8334 -5.0429,1.25 z"
       id="path4652"
       transform="scale(0.26458333)" />
    <path
       style="opacity:1;fill:#550000;fill-opacity:1;stroke-width:7.55906;stroke-linecap:round"
       d="m 2411.4371,5033.7873 c 13.7627,42.6083 24.2202,86.4529 40.4766,128.168 8.026,10.26 23.1905,11.2174 34.4961,16.3046 21.9507,6.2463 44.4957,13.941 67.3437,14.5039 -7.603,-34.4533 -18.8379,-69.4231 -27.8984,-104.039 -3.984,-8.0208 -2.5275,-19.8154 -8.9649,-26.2188 -24.288,-6.1335 -49.6832,-8.5447 -73.3671,-17.3286 -10.8086,-2.8909 -21.7387,-9.4107 -32.086,-11.3901 z"
       id="path4654"
       transform="scale(0.26458333)" />
    <path
       style="opacity:1;fill:#550000;fill-opacity:1;stroke-width:7.55906;stroke-linecap:round"
       d="m 2624.5817,5201.4709 c -20.2306,0.6282 -41.5433,-1.0347 -61.1954,1.5039 9.9865,37.4397 20.22,75.0488 31.0274,112.1211 40.1017,2.5771 80.5259,1.6294 120.6055,-0.211 -7.0629,-37.9856 -19.7077,-75.4752 -29.293,-113.1367 -20.1629,-0.6779 -40.8257,-0.088 -61.1445,-0.2773 z"
       id="path4656"
       transform="scale(0.26458333)" />
    <path
       style="opacity:1;fill:#550000;fill-opacity:1;stroke-width:7.55906;stroke-linecap:round"
       d="m 2492.5074,5295.217 c -0.362,9.9087 5.6357,21.2808 7.7119,31.4456 5.3041,10.4911 2.4747,28.4858 17.4436,30.1677 28.3309,10.5628 58.2621,18.8424 88.2234,21.7382 -4.5864,-19.5983 -10.8659,-40.0103 -16.414,-59.5937 -33.2421,-4.0632 -65.271,-13.5484 -96.9649,-23.7578 z"
       id="path4658"
       transform="scale(0.26458333)" />
    <path
       style="opacity:1;fill:#550000;fill-opacity:1;stroke-width:7.55906;stroke-linecap:round"
       d="m 2309.6442,4849.5412 c 8.8657,37.3507 17.2551,75.6951 30.6835,111.9609 13.7167,23.5924 34.0453,44.6255 58.586,56.9102 2.3437,-4.146 -3.0867,-12.231 -3.3814,-17.4379 -10.2452,-35.9975 -21.2755,-71.813 -32.2163,-107.5777 -20.1947,-11.5391 -36.7423,-27.8499 -53.1836,-43.8985 l -0.1797,-0.031 z"
       id="path4660"
       transform="scale(0.26458333)" />
    <path
       style="opacity:1;fill:#550000;fill-opacity:1;stroke-width:7.55906;stroke-linecap:round"
       d="m 2378.2496,5111.2912 c 5.1918,28.4201 14.1079,57.0009 21.4571,85.2617 11.5624,33.3766 38.9699,58.8105 67.53,78.124 3.6245,0.98 9.3574,7.0943 12.4817,5.0049 -10.1194,-36.441 -20.0207,-73.1815 -33.3008,-108.6015 -6.0596,-10.4865 -19.9806,-12.5236 -28.1819,-21.1129 -15.3224,-10.6755 -27.4036,-25.0483 -39.7595,-38.6996 z"
       id="path4662"
       transform="scale(0.26458333)" />
    <path
       style="opacity:1;fill:#aa4400;fill-opacity:1;stroke-width:5.34506;stroke-linecap:round"
       d="m 2668.846,4492.1284 c -32.8445,7.1799 -64.5306,19.3404 -95.6274,32.0103 -73.9543,31.8634 -145.3373,76.2504 -194.7808,141.0099 -17.8626,24.6176 -33.8071,52.407 -37.7446,83.0132 -1.1197,19.7789 -1.7003,40.501 7.7368,58.5987 18.7232,41.5626 61.9372,65.5908 104.1822,77.1935 47.1593,12.5208 97.0641,16.0427 145.3282,10.0378 42.6355,-22.6917 86.3055,-43.5234 131.8273,-59.7894 4.5957,-1.2246 9.838,-4.6845 6.264,-10.1663 -21.217,-110.5188 -41.6977,-221.2202 -65.3185,-331.2475 -0.2698,-0.7419 -1.2349,-0.6585 -1.8672,-0.6602 z"
       id="path4664"
       transform="scale(0.26458333)" />
    <path
       style="opacity:1;fill:#aa4400;fill-opacity:1;stroke-width:5.34506;stroke-linecap:round"
       d="m 2805.8148,4473.8154 c -34.8461,0.073 -69.7846,2.6763 -103.8259,10.3442 7.9966,47.8079 18.7515,95.6302 27.7326,143.4539 12.6444,63.1043 24.1298,126.4554 36.9317,189.5161 0.057,4.8135 4.1021,5.1933 7.4219,2.8726 35.3923,-9.7624 71.3893,-17.4651 107.6404,-23.1992 52.5504,-36.125 103.9482,-80.1232 129.5138,-140.0789 15.7016,-35.9042 15.4847,-80.9385 -9.1409,-112.9166 -30.5204,-40.5717 -81.6708,-58.4401 -130.0459,-66.2908 -21.8709,-3.8574 -44.0916,-3.9784 -66.2277,-3.7013 z"
       id="path4666"
       transform="scale(0.26458333)" />
    <path
       style="opacity:1;fill:#c87137;fill-opacity:1;stroke-width:5.34506;stroke-linecap:round"
       d="m 2738.7731,4895.7281 c -39.8546,11.167 -80.1021,21.4294 -121.0672,27.4667 -4.3169,1.4451 0.3909,7.9727 -0.012,11.0209 10.0132,39.8624 20.9856,79.6104 32.4645,119.0094 6.4411,2.9828 14.3368,-2.0243 21.1992,-1.9309 37.1064,-6.3767 74.3008,-14.0714 109.8752,-26.439 -3.694,-19.9921 -11.3458,-39.6643 -16.9676,-59.3705 -7.8323,-22.7325 -13.3083,-46.4627 -23.0889,-68.4363 -0.5289,-0.7964 -1.3999,-1.4508 -2.403,-1.3203 z"
       id="path4668"
       transform="scale(0.26458333)" />
    <path
       style="opacity:1;fill:#c87137;fill-opacity:1;stroke-width:5.34506;stroke-linecap:round"
       d="m 2892.9113,4985.2268 c -33.5208,16.8693 -68.9925,30.2868 -103.9861,42.9816 14.4817,43.8516 26.7343,88.5119 42.8269,131.7926 2.7499,6.4719 10.4054,-1.1804 14.9709,-1.2127 38.6685,-13.9321 77.5131,-28.444 113.4215,-48.6107 7.3546,-2.8626 0.1975,-10.2446 -0.4022,-15.0903 -14.5871,-40.3576 -28.6116,-81.4803 -43.9936,-121.2018 -7.6125,3.7804 -15.2249,7.5609 -22.8374,11.3413 z"
       id="path4670"
       transform="scale(0.26458333)" />
    <path
       style="opacity:1;fill:#c87137;fill-opacity:1;stroke-width:5.34506;stroke-linecap:round"
       d="m 2974.7562,4766.9766 c -25.0632,19.5783 -50.0749,39.4832 -77.5088,55.7846 -8.0283,5.4429 -17.4699,9.7354 -24.4803,16.274 15.0557,42.2499 29.2687,84.9338 46.5475,126.3125 13.4494,-5.3729 25.7568,-14.8137 38.4387,-22.1941 24.2958,-15.5496 47.7094,-32.8094 69.1244,-52.0908 -1.1222,-12.0816 -8.4838,-23.05 -12.438,-34.4546 -13.1986,-29.8169 -25.5132,-60.5347 -39.6835,-89.6316 z"
       id="path4672"
       transform="scale(0.26458333)" />
    <path
       style="opacity:1;fill:#c87137;fill-opacity:1;stroke-width:5.34506;stroke-linecap:round"
       d="m 3087.6971,5031.3351 c -34.7594,28.5752 -71.8926,54.3269 -111.2229,76.282 -4.484,1.9075 -6.9648,6.1558 -3.1135,10.4995 12.9826,35.1952 24.991,71.3488 38.5793,105.9493 43.958,-24.3945 86.6883,-52.0227 123.6194,-86.2642 -9.3445,-27.0495 -22.1753,-53.2777 -33.3851,-79.7667 -4.7337,-8.6736 -6.9748,-19.5699 -13.9303,-26.6888 -0.1791,-0.039 -0.3664,-0.051 -0.5469,-0.011 z"
       id="path4674"
       transform="scale(0.26458333)" />
    <path
       style="opacity:1;fill:#c87137;fill-opacity:1;stroke-width:5.34506;stroke-linecap:round"
       d="m 3106.8664,4801.9094 c -18.4394,33.8909 -45.0175,62.505 -72.1664,89.3661 18.8818,42.5808 36.6235,85.8667 56.3421,127.9587 5.8651,-0.261 9.2381,-7.805 13.7356,-10.9579 27.0753,-27.1111 51.3266,-57.6519 67.8192,-92.3598 -19.846,-41.3859 -39.6986,-82.769 -59.4854,-124.1828 -2.7594,1.9302 -4.0871,7.1272 -6.2451,10.1757 z"
       id="path4676"
       transform="scale(0.26458333)" />
    <path
       style="opacity:1;fill:#c87137;fill-opacity:1;stroke-width:5.34506;stroke-linecap:round"
       d="m 3072.8866,4581.1457 c 1.7304,26.8942 -4.132,53.4672 -14.5577,78.1789 -3.3865,7.9965 5.7724,15.4513 7.6998,23.2049 15.257,32.0105 30.511,64.0225 45.7653,96.0343 8.2622,-13.4919 10.8302,-31.2689 13.3052,-47.2684 3.5197,-30.2146 -8.2301,-59.2034 -21.1705,-85.7983 -9.8473,-21.6197 -20.1832,-43.016 -30.2798,-64.5227 z"
       id="path4678"
       transform="scale(0.26458333)" />
    <path
       style="opacity:1;fill:#c87137;fill-opacity:1;stroke-width:5.34506;stroke-linecap:round"
       d="m 3192.07,4834.1684 c -2.2918,7.8482 0.3123,17.1339 -0.7513,25.4834 -0.7001,19.4506 -6.1271,38.43 -13.5317,56.3117 15.7152,32.9492 31.4299,65.8988 47.1441,98.8486 6.9737,-12.0055 9.8345,-27.7669 11.3745,-42.0729 1.8393,-22.3803 1.0677,-45.8899 -9.9743,-66.0626 -10.9129,-24.3062 -21.0934,-49.2842 -33.9713,-72.4972 l -0.091,-0.019 z"
       id="path4680"
       transform="scale(0.26458333)" />
    <path
       style="opacity:1;fill:#c87137;fill-opacity:1;stroke-width:5.34506;stroke-linecap:round"
       d="m 3225.6713,5029.8657 c -10.4113,18.9728 -20.8053,38.1717 -34.4709,55.1291 -14.5074,19.525 -31.8226,36.8771 -48.418,54.4227 8.3828,18.3272 15.3257,37.4975 25.0056,55.1405 13.5508,-10.6223 24.8022,-24.701 36.7169,-37.3292 19.274,-22.482 35.2693,-47.873 47.8874,-74.5815 -8.7818,-17.5722 -16.4617,-35.8177 -26.2238,-52.8369 h -0.3922 z"
       id="path4682"
       transform="scale(0.26458333)" />
    <path
       style="opacity:1;fill:#c87137;fill-opacity:1;stroke-width:5.34506;stroke-linecap:round"
       d="m 2991.0776,5239.7991 c -38.6787,18.9473 -79.2134,35.145 -119.9761,48.1799 6.6439,19.6635 11.8561,40.2956 19.3488,59.4108 13.6121,-1.1029 26.3227,-8.1262 39.3852,-11.9518 33.5275,-13.0683 67.3064,-26.2903 98.6608,-44.045 3.64,-3.6016 -2.6077,-9.557 -2.6215,-13.8392 -5.6535,-15.4902 -10.6998,-31.7558 -17.1085,-46.6129 -5.8962,2.9527 -11.7924,5.9054 -17.6887,8.8582 z"
       id="path4684"
       transform="scale(0.26458333)" />
    <path
       style="opacity:1;fill:#c87137;fill-opacity:1;stroke-width:5.34506;stroke-linecap:round"
       d="m 2828.1862,5170.4556 c -35.0014,8.5243 -69.8222,18.298 -105.5686,23.383 -10.0516,2.1718 -20.9334,2.3723 -30.6434,5.2079 -0.4871,11.5704 5.2742,22.9149 7.4214,34.2508 7.6284,26.5449 14.046,53.8641 22.5837,79.9 17.3228,0.8625 34.6054,-4.1178 51.7532,-6.4029 29.9244,-6.1001 60.3283,-11.4526 89.0936,-21.8786 3.1385,-2.9043 -2.2469,-8.4607 -1.8368,-12.0319 -10.5472,-34.1862 -20.3247,-68.8726 -32.5241,-102.3979 -0.09,-0.03 -0.1853,-0.038 -0.279,-0.03 z"
       id="path4686"
       transform="scale(0.26458333)" />
    <path
       style="opacity:1;fill:#c87137;fill-opacity:1;stroke-width:5.34506;stroke-linecap:round"
       d="m 2642.5071,5060.274 c -36.1577,3.1727 -72.441,3.8796 -108.7176,2.6406 -2.921,0.8104 -12.2511,-2.3138 -8.8613,3.8414 11.7902,42.5605 23.0629,85.5101 35.7645,127.6667 33.8458,4.7823 68.2953,2.5365 102.3643,1.7975 6.3421,-1.0157 14.3806,0.5227 19.8326,-2.6648 -11.0546,-44.689 -23.6359,-89.2942 -36.2558,-133.3918 -1.3756,0.037 -2.7511,0.074 -4.1267,0.1104 z"
       id="path4688"
       transform="scale(0.26458333)" />
    <path
       style="opacity:1;fill:#c87137;fill-opacity:1;stroke-width:5.34506;stroke-linecap:round"
       d="m 2370.8787,4897.2859 c 1.2454,10.7697 6.2353,22.2242 8.929,33.177 9.5898,31.8756 19.0861,63.8717 29.02,95.5855 33.7133,14.8042 69.4464,26.9429 106.3394,29.6488 3.6484,-1.8366 -2.0164,-8.1291 -1.4014,-11.213 -10.9151,-39.1683 -21.1786,-78.7158 -32.9789,-117.5136 -36.9466,-5.0676 -73.9283,-12.8344 -107.7012,-29.0908 -0.722,-0.1759 -1.4378,-0.627 -2.2069,-0.5939 z"
       id="path4690"
       transform="scale(0.26458333)" />
    <path
       style="opacity:1;fill:#c87137;fill-opacity:1;stroke-width:5.34506;stroke-linecap:round"
       d="m 2454.3007,5172.367 c -0.6102,6.2458 3.7268,13.7643 4.8867,20.323 9.7291,31.4158 18.6412,63.251 30.1206,94.0267 25.3195,12.0755 53.0062,18.7063 80.3754,24.4062 6.1321,0.7219 12.8472,2.9767 18.7052,1.7706 -10.7292,-38.1233 -20.8671,-76.6293 -31.9772,-114.5099 -34.9964,-2.9017 -68.6681,-13.9529 -101.445,-25.9641 -0.2202,-0.026 -0.4418,-0.079 -0.6657,-0.052 z"
       id="path4692"
       transform="scale(0.26458333)" />
    <path
       style="opacity:1;fill:#c87137;fill-opacity:1;stroke-width:5.34506;stroke-linecap:round"
       d="m 2342.5834,4976.4184 c 2.355,16.3307 8.2156,32.9555 12.0182,49.3161 8.5979,31.5129 14.7707,65.2981 36.2878,91.1526 14.158,17.9655 32.6008,32.6946 52.7108,43.2796 -5.7043,-24.6786 -14.38,-49.4103 -21.4788,-74.0108 -6.5262,-19.4545 -11.1387,-39.8748 -19.7682,-58.4612 -22.363,-13.745 -43.7692,-30.1061 -59.4743,-51.2708 l -0.2292,-0.019 z"
       id="path4694"
       transform="scale(0.26458333)" />
    <path
       style="opacity:1;fill:#c87137;fill-opacity:1;stroke-width:5.34506;stroke-linecap:round"
       d="m 2408.0543,5227.375 c -3.1605,8.1609 1.0651,17.8859 3.0356,26.1546 8.0788,28.4874 26.1844,53.1839 49.5042,71.1707 12.145,9.2637 24.9981,18.883 39.4697,23.8385 2.5753,-3.5025 -2.2051,-9.1147 -2.276,-13.1222 -4.9604,-15.5214 -9.089,-31.5451 -15.3547,-46.5233 -28.5604,-14.4126 -54.7381,-34.1911 -73.0254,-60.767 -0.358,-0.3491 -0.7909,-0.8497 -1.3534,-0.7513 z"
       id="path4696"
       transform="scale(0.26458333)" />
    <path
       style="opacity:1;fill:#c87137;fill-opacity:1;stroke-width:5.34506;stroke-linecap:round"
       d="m 2596.5148,5319.854 c -2.178,2.7033 1.936,8.4887 1.9792,12.1279 4.3284,15.6962 8.47,31.5863 13.2429,47.0675 23.1098,4.7308 47.0764,3.7481 70.5775,4.0657 16.9401,-1.313 34.5888,0.2684 51.1084,-3.6984 -2.5454,-17.8431 -8.5839,-35.6226 -13.2223,-53.218 -0.6386,-3.7242 -1.9055,-8.016 -6.7286,-6.1789 -36.4345,2.3155 -73.0197,3.6584 -109.4226,0.1068 -2.5092,-0.1312 -5.0211,-0.2907 -7.5345,-0.2726 z"
       id="path4698"
       transform="scale(0.26458333)" />
    <path
       style="opacity:1;fill:#4d4d4d;fill-opacity:1;stroke-width:5.34506;stroke-linecap:round"
       d="m 2726.2744,4840.4964 c -39.3218,14.9836 -78.556,30.9673 -114.9518,52.2486 11.9075,0.07 26.0295,-3.6768 38.7196,-5.527 31.4903,-5.7717 62.9807,-13.5187 92.9846,-24.1826 -1.4639,-8.8962 -2.3586,-18.462 -5.2453,-26.7374 -3.8357,1.3995 -7.6714,2.7989 -11.5071,4.1984 z"
       id="path4700"
       transform="scale(0.26458333)" />
    <path
       style="opacity:1;fill:#4d4d4d;fill-opacity:1;stroke-width:5.34506;stroke-linecap:round"
       d="m 2866.9859,4803.8705 c -32.42,5.7962 -65.0454,12.1264 -96.2991,22.5887 -4.7035,3.5 0.3734,10.7123 0.086,15.4155 0.6809,3.4717 1.0138,11.3616 6.6181,8.2119 30.943,-12.4187 61.0515,-27.2633 89.6396,-44.4097 1.0408,-0.3785 1.6712,-2.1691 -0.044,-1.8064 z"
       id="path4702"
       transform="scale(0.26458333)" />
    <path
       style="opacity:1;fill:#550000;fill-opacity:1;stroke-width:3.77953;stroke-linecap:round"
       d="m 2824.7032,4444.9085 c -40.8278,-0.5768 -81.4848,4.5121 -121.4719,12.3955 -7.0675,-0.4386 -8.9257,3.2477 -6.0228,9.6001 1.4475,3.9629 0.8336,9.8094 3.8775,12.7778 17.0015,-1.4225 33.7037,-5.7797 50.7487,-7.1285 60.7772,-6.3164 124.0717,-5.3054 181.9416,16.1819 35.6326,13.3618 70.326,37.0084 85.4464,73.2239 6.1003,13.6172 8.4763,28.4527 7.5747,43.3145 0.9826,30.1346 -12.1469,58.649 -27.6235,83.7851 -34.8084,53.877 -86.7722,94.2198 -141.6778,126.127 -26.8712,15.7305 -55.4643,28.6121 -83.8984,40.8496 0.9359,7.6164 1.8159,18.0424 -6.6133,21.875 -8.3484,5.5066 -20.7408,-0.2227 -22.5254,-10.0332 -3.9541,-1.9338 -8.7394,2.3182 -12.7734,2.7051 -46.2477,14.5919 -94.0973,24.7977 -142.4573,28.5302 -50.7667,2.3257 -102.8624,2.076 -151.4118,-14.7177 -37.1192,-12.1784 -73.9488,-34.1288 -92.2047,-70.043 -8.139,-15.4777 -11.9864,-32.919 -10.8688,-50.3613 -0.6561,-31.6696 13.8447,-61.0837 30.2552,-87.266 27.4538,-40.5833 64.9409,-73.4891 105.1854,-101.0153 58.0697,-38.9919 123.0778,-67.3723 190.4454,-85.6718 5.0827,-1.145 12.1523,-1.4731 8.6171,-8.2579 -1.5138,-4.9797 -1.2714,-11.4828 -4.8769,-15.4023 -17.9992,4.625 -36.2008,9.7804 -53.5566,16.0254 0.4503,7.4389 2.2114,16.5349 -4.8965,21.5527 -7.5697,6.6982 -20.3983,2.563 -23.8184,-6.5273 0.3226,-5.064 -6.1937,-2.3369 -8.6641,-1.2988 -34.4764,14.045 -68.0718,30.4702 -100.1351,49.4019 -57.6559,35.0357 -112.2249,78.5458 -148.9448,135.9346 -7.7093,12.5784 -15.0035,25.6317 -20.0021,39.5131 10.5812,26.1961 22.6801,52.0175 30.7383,79.0859 2.266,11.6158 -12.7619,20.7693 -22.1563,14.2305 -8.1106,-4.5637 -8.712,-15.2749 -12.7309,-22.7851 -2.144,-4.4463 -3.2765,-9.9 -6.2886,-13.6973 -1.6299,4.4439 0.7364,10.0949 0.9512,14.871 5.1282,37.914 30.822,70.381 62.7195,90.1851 44.9603,28.1747 98.5895,38.9084 150.9443,41.7261 78.9378,3.4823 158.0204,-9.6314 232.916,-34.2559 86.5846,-28.4252 169.737,-71.251 237.2864,-133.0841 38.2557,-35.7504 72.7201,-79.0311 85.499,-130.7723 6.1361,-26.3022 5.6419,-55.0845 -6.4531,-79.6953 -3.0554,-5.7742 -4.8146,-13.2047 -9.582,-17.6289 -1.7998,5.1868 2.1384,12.2425 -2.336,17.0273 -6.5859,9.5594 -24.1207,7.849 -26.7421,-4.147 -6.1294,-17.4338 -9.8848,-35.5775 -15.1446,-53.2436 -4.6738,-8.1518 -15.1785,-9.963 -22.6837,-14.6234 -37.9157,-17.9688 -79.8754,-25.8656 -121.4893,-28.7818 -11.692,-0.4623 -23.3968,-0.5274 -35.0965,-0.4815 z"
       id="path4704"
       transform="scale(0.26458333)" />
  </g>
  <g
     inkscape:groupmode="layer"
     id="layer4"
     inkscape:label="Layer 3" />
</svg>
