<?xml version="1.0" encoding="UTF-8" standalone="no"?>
<svg
   xmlns:dc="http://purl.org/dc/elements/1.1/"
   xmlns:cc="http://creativecommons.org/ns#"
   xmlns:rdf="http://www.w3.org/1999/02/22-rdf-syntax-ns#"
   xmlns:svg="http://www.w3.org/2000/svg"
   xmlns="http://www.w3.org/2000/svg"
   xmlns:xlink="http://www.w3.org/1999/xlink"
   xmlns:sodipodi="http://sodipodi.sourceforge.net/DTD/sodipodi-0.dtd"
   xmlns:inkscape="http://www.inkscape.org/namespaces/inkscape"
   width="210mm"
   height="297mm"
   viewBox="0 0 210 297"
   version="1.1"
   id="svg158"
   sodipodi:docname="hot_air_balloon.svg"
   inkscape:version="1.0.1 (3bc2e813f5, 2020-09-07)">
  <defs
     id="defs152" />
  <sodipodi:namedview
     id="base"
     pagecolor="#ffffff"
     bordercolor="#666666"
     borderopacity="1.0"
     inkscape:pageopacity="0.0"
     inkscape:pageshadow="2"
     inkscape:zoom="0.12374369"
     inkscape:cx="1481.3712"
     inkscape:cy="2823.0859"
     inkscape:document-units="mm"
     inkscape:current-layer="layer2"
     inkscape:document-rotation="0"
     showgrid="false"
     inkscape:snap-global="false"
     inkscape:window-width="1920"
     inkscape:window-height="1001"
     inkscape:window-x="-9"
     inkscape:window-y="-9"
     inkscape:window-maximized="1" />
  <metadata
     id="metadata155">
    <rdf:RDF>
      <cc:Work
         rdf:about="">
        <dc:format>image/svg+xml</dc:format>
        <dc:type
           rdf:resource="http://purl.org/dc/dcmitype/StillImage" />
      </cc:Work>
    </rdf:RDF>
  </metadata>
  <g
     inkscape:label="Layer 1"
     inkscape:groupmode="layer"
     id="layer1"
     sodipodi:insensitive="true">
    <rect
       style="opacity:0.254269;fill:#ffffff;fill-opacity:1;stroke:#000000;stroke-width:4.91541;stroke-linecap:round"
       id="rect160"
       width="148"
       height="210"
       x="-11.468997"
       y="10.889946"
       inkscape:tile-cx="62.531002"
       inkscape:tile-cy="115.88994"
       inkscape:tile-w="148"
       inkscape:tile-h="210"
       inkscape:tile-x0="-11.468997"
       inkscape:tile-y0="10.889946" />
    <use
       x="0"
       y="0"
       inkscape:tiled-clone-of="#rect160"
       xlink:href="#rect160"
       transform="translate(148,210)"
       id="use1180"
       style="opacity:0.254269;fill:#ffffff;fill-opacity:1;stroke:#000000"
       width="100%"
       height="100%" />
    <use
       x="0"
       y="0"
       inkscape:tiled-clone-of="#rect160"
       xlink:href="#rect160"
       transform="translate(148,419.99999)"
       id="use1182"
       style="opacity:0.254269;fill:#ffffff;fill-opacity:1;stroke:#000000"
       width="100%"
       height="100%" />
    <use
       x="0"
       y="0"
       inkscape:tiled-clone-of="#rect160"
       xlink:href="#rect160"
       transform="translate(148,629.99999)"
       id="use1184"
       style="opacity:0.254269;fill:#ffffff;fill-opacity:1;stroke:#000000"
       width="100%"
       height="100%" />
    <use
       x="0"
       y="0"
       inkscape:tiled-clone-of="#rect160"
       xlink:href="#rect160"
       transform="translate(295.99999)"
       id="use1192"
       style="opacity:0.254269;fill:#ffffff;fill-opacity:1;stroke:#000000"
       width="100%"
       height="100%" />
    <use
       x="0"
       y="0"
       inkscape:tiled-clone-of="#rect160"
       xlink:href="#rect160"
       transform="translate(295.99999,210)"
       id="use1194"
       style="opacity:0.254269;fill:#ffffff;fill-opacity:1;stroke:#000000"
       width="100%"
       height="100%" />
    <use
       x="0"
       y="0"
       inkscape:tiled-clone-of="#rect160"
       xlink:href="#rect160"
       transform="translate(295.99999,419.99999)"
       id="use1196"
       style="opacity:0.254269;fill:#ffffff;fill-opacity:1;stroke:#000000"
       width="100%"
       height="100%" />
    <use
       x="0"
       y="0"
       inkscape:tiled-clone-of="#rect160"
       xlink:href="#rect160"
       transform="translate(295.99999,629.99999)"
       id="use1198"
       style="opacity:0.254269;fill:#ffffff;fill-opacity:1;stroke:#000000"
       width="100%"
       height="100%" />
    <use
       x="0"
       y="0"
       inkscape:tiled-clone-of="#rect160"
       xlink:href="#rect160"
       transform="translate(295.99999,839.99998)"
       id="use1200"
       style="opacity:0.254269;fill:#ffffff;fill-opacity:1;stroke:#000000"
       width="100%"
       height="100%" />
    <use
       x="0"
       y="0"
       inkscape:tiled-clone-of="#rect160"
       xlink:href="#rect160"
       transform="translate(443.99999)"
       id="use1206"
       style="opacity:0.254269;fill:#ffffff;fill-opacity:1;stroke:#000000"
       width="100%"
       height="100%" />
    <use
       x="0"
       y="0"
       inkscape:tiled-clone-of="#rect160"
       xlink:href="#rect160"
       transform="translate(443.99999,210)"
       id="use1208"
       style="opacity:0.254269;fill:#ffffff;fill-opacity:1;stroke:#000000"
       width="100%"
       height="100%" />
    <use
       x="0"
       y="0"
       inkscape:tiled-clone-of="#rect160"
       xlink:href="#rect160"
       transform="translate(443.99999,419.99999)"
       id="use1210"
       style="opacity:0.254269;fill:#ffffff;fill-opacity:1;stroke:#000000"
       width="100%"
       height="100%" />
    <use
       x="0"
       y="0"
       inkscape:tiled-clone-of="#rect160"
       xlink:href="#rect160"
       transform="translate(443.99999,629.99999)"
       id="use1212"
       style="opacity:0.254269;fill:#ffffff;fill-opacity:1;stroke:#000000"
       width="100%"
       height="100%" />
    <use
       x="0"
       y="0"
       inkscape:tiled-clone-of="#rect160"
       xlink:href="#rect160"
       transform="translate(443.99999,839.99998)"
       id="use1214"
       style="opacity:0.254269;fill:#ffffff;fill-opacity:1;stroke:#000000"
       width="100%"
       height="100%" />
    <use
       x="0"
       y="0"
       inkscape:tiled-clone-of="#rect160"
       xlink:href="#rect160"
       transform="translate(443.99999,1050)"
       id="use1216"
       style="opacity:0.254269;fill:#ffffff;fill-opacity:1;stroke:#000000"
       width="100%"
       height="100%" />
    <use
       x="0"
       y="0"
       inkscape:tiled-clone-of="#rect160"
       xlink:href="#rect160"
       transform="translate(591.99999)"
       id="use1220"
       style="opacity:0.254269;fill:#ffffff;fill-opacity:1;stroke:#000000"
       width="100%"
       height="100%" />
    <use
       x="0"
       y="0"
       inkscape:tiled-clone-of="#rect160"
       xlink:href="#rect160"
       transform="translate(591.99999,210)"
       id="use1222"
       style="opacity:0.254269;fill:#ffffff;fill-opacity:1;stroke:#000000"
       width="100%"
       height="100%" />
    <use
       x="0"
       y="0"
       inkscape:tiled-clone-of="#rect160"
       xlink:href="#rect160"
       transform="translate(591.99999,419.99999)"
       id="use1224"
       style="opacity:0.254269;fill:#ffffff;fill-opacity:1;stroke:#000000"
       width="100%"
       height="100%" />
    <use
       x="0"
       y="0"
       inkscape:tiled-clone-of="#rect160"
       xlink:href="#rect160"
       transform="translate(591.99999,629.99999)"
       id="use1226"
       style="opacity:0.254269;fill:#ffffff;fill-opacity:1;stroke:#000000"
       width="100%"
       height="100%" />
    <use
       x="0"
       y="0"
       inkscape:tiled-clone-of="#rect160"
       xlink:href="#rect160"
       transform="translate(591.99999,839.99998)"
       id="use1228"
       style="opacity:0.254269;fill:#ffffff;fill-opacity:1;stroke:#000000"
       width="100%"
       height="100%" />
    <use
       x="0"
       y="0"
       inkscape:tiled-clone-of="#rect160"
       xlink:href="#rect160"
       transform="translate(591.99999,1050)"
       id="use1230"
       style="opacity:0.254269;fill:#ffffff;fill-opacity:1;stroke:#000000"
       width="100%"
       height="100%" />
    <use
       x="0"
       y="0"
       inkscape:tiled-clone-of="#rect160"
       xlink:href="#rect160"
       transform="translate(591.99999,1260)"
       id="use1232"
       style="opacity:0.254269;fill:#ffffff;fill-opacity:1;stroke:#000000"
       width="100%"
       height="100%" />
    <use
       x="0"
       y="0"
       inkscape:tiled-clone-of="#rect160"
       xlink:href="#rect160"
       transform="translate(739.99998)"
       id="use1234"
       style="opacity:0.254269;fill:#ffffff;fill-opacity:1;stroke:#000000"
       width="100%"
       height="100%" />
    <use
       x="0"
       y="0"
       inkscape:tiled-clone-of="#rect160"
       xlink:href="#rect160"
       transform="translate(739.99998,210)"
       id="use1236"
       style="opacity:0.254269;fill:#ffffff;fill-opacity:1;stroke:#000000"
       width="100%"
       height="100%" />
    <use
       x="0"
       y="0"
       inkscape:tiled-clone-of="#rect160"
       xlink:href="#rect160"
       transform="translate(739.99998,419.99999)"
       id="use1238"
       style="opacity:0.254269;fill:#ffffff;fill-opacity:1;stroke:#000000"
       width="100%"
       height="100%" />
    <use
       x="0"
       y="0"
       inkscape:tiled-clone-of="#rect160"
       xlink:href="#rect160"
       transform="translate(739.99998,629.99999)"
       id="use1240"
       style="opacity:0.254269;fill:#ffffff;fill-opacity:1;stroke:#000000"
       width="100%"
       height="100%" />
    <use
       x="0"
       y="0"
       inkscape:tiled-clone-of="#rect160"
       xlink:href="#rect160"
       transform="translate(739.99998,839.99998)"
       id="use1242"
       style="opacity:0.254269;fill:#ffffff;fill-opacity:1;stroke:#000000"
       width="100%"
       height="100%" />
    <use
       x="0"
       y="0"
       inkscape:tiled-clone-of="#rect160"
       xlink:href="#rect160"
       transform="translate(739.99998,1050)"
       id="use1244"
       style="opacity:0.254269;fill:#ffffff;fill-opacity:1;stroke:#000000"
       width="100%"
       height="100%" />
    <use
       x="0"
       y="0"
       inkscape:tiled-clone-of="#rect160"
       xlink:href="#rect160"
       transform="translate(739.99998,1260)"
       id="use1246"
       style="opacity:0.254269;fill:#ffffff;fill-opacity:1;stroke:#000000"
       width="100%"
       height="100%" />
    <use
       x="0"
       y="0"
       inkscape:tiled-clone-of="#rect160"
       xlink:href="#rect160"
       transform="translate(887.99998,210)"
       id="use1250"
       style="opacity:0.254269;fill:#ffffff;fill-opacity:1;stroke:#000000"
       width="100%"
       height="100%" />
    <use
       x="0"
       y="0"
       inkscape:tiled-clone-of="#rect160"
       xlink:href="#rect160"
       transform="translate(887.99998,419.99999)"
       id="use1252"
       style="opacity:0.254269;fill:#ffffff;fill-opacity:1;stroke:#000000"
       width="100%"
       height="100%" />
    <use
       x="0"
       y="0"
       inkscape:tiled-clone-of="#rect160"
       xlink:href="#rect160"
       transform="translate(887.99998,629.99999)"
       id="use1254"
       style="opacity:0.254269;fill:#ffffff;fill-opacity:1;stroke:#000000"
       width="100%"
       height="100%" />
  </g>
  <g
     inkscape:groupmode="layer"
     id="layer2"
     inkscape:label="Layer 2">
    <path
       id="ellipse2127"
       style="opacity:1;fill:none;fill-opacity:1;stroke:#000000;stroke-width:2;stroke-linecap:round;stroke-miterlimit:4;stroke-dasharray:none"
       d="m 808.15022,1199.7676 -200.43676,73.9902 28.32433,108.5482 c 0.2342,5.2036 1.56105,10.1158 3.95222,14.632 l 0.13196,0.4879 0.10914,-0.04 c 9.53172,17.3852 34.28894,27.5593 67.06199,27.5593 58.55133,0 125.34887,-31.8602 149.19645,-71.1618 8.4801,-13.9755 10.64174,-27.6417 8.37503,-33.6317 z"
       sodipodi:nodetypes="ccccccsscc" />
    <ellipse
       style="opacity:1;fill:#ffffff;fill-opacity:1;stroke:#000000;stroke-width:1.08152;stroke-linecap:round;stroke-miterlimit:4;stroke-dasharray:none"
       id="path2125"
       cx="1461.4401"
       cy="1449.8712"
       rx="95.531441"
       ry="75.005363"
       transform="matrix(1,0,-0.51875428,0.85492339,0,0)" />
    <g
       id="g2106"
       transform="matrix(0.61983789,-0.12309725,0.12309725,0.61983789,1162.797,475.37559)"
       style="opacity:1">
      <path
         style="fill:none;stroke:#000000;stroke-width:1;stroke-linecap:butt;stroke-linejoin:miter;stroke-miterlimit:4;stroke-dasharray:none;stroke-opacity:1"
         d="m 719.66666,988.78571 c 0,0 31.75,125.48809 24.19048,151.19049 -7.55954,25.7024 -96.76191,122.4643 -146.65476,125.4881 -49.89287,3.0238 -211.66666,-39.3096 -222.24999,-46.8691 -10.58334,-7.5595 -15.11906,-193.5238 -10.58334,-210.1547 4.5357,-16.631 179.91667,78.619 208.64285,66.5238 28.72618,-12.0953 133.04761,-116.4167 146.65476,-86.17859 z"
         id="path2100" />
      <path
         style="fill:none;stroke:#000000;stroke-width:1;stroke-linecap:butt;stroke-linejoin:miter;stroke-miterlimit:4;stroke-dasharray:none;stroke-opacity:1"
         d="M 720.55865,988.89724 C 702.38431,948.27226 571.95677,901.23284 533.46998,911.92362 494.98316,922.6144 363.48656,989.96631 363.48656,1008.1406"
         id="path2102" />
    </g>
    <path
       style="opacity:1;fill:none;stroke:#000000;stroke-width:4;stroke-linecap:butt;stroke-linejoin:miter;stroke-miterlimit:4;stroke-dasharray:none;stroke-opacity:1"
       d="m 802.59325,1200.5674 c -24.08633,-76.2734 -0.32056,-179.6155 -0.32056,-179.6155"
       id="path2108"
       sodipodi:nodetypes="cc" />
    <path
       style="opacity:1;fill:none;stroke:#000000;stroke-width:4;stroke-linecap:butt;stroke-linejoin:miter;stroke-miterlimit:4;stroke-dasharray:none;stroke-opacity:1"
       d="M 730.12023,1290.1722 C 695.99792,1107.5175 673.78782,1040.6306 673.78782,1040.6306"
       id="path2110"
       sodipodi:nodetypes="cc" />
    <path
       style="opacity:1;fill:none;stroke:#000000;stroke-width:4;stroke-linecap:butt;stroke-linejoin:miter;stroke-miterlimit:4;stroke-dasharray:none;stroke-opacity:1"
       d="M 613.95007,1270.356 C 561.763,1135.8738 495.14743,1080.7745 495.14743,1080.7745"
       id="path2112"
       sodipodi:nodetypes="cc" />
    <path
       id="path2114"
       style="opacity:1;fill:#666666;fill-opacity:1;stroke:#000000;stroke-width:1;stroke-linecap:round;stroke-miterlimit:4;stroke-dasharray:none"
       d="m 545.6139,164.55499 c -9.12684,1.81168 -26.88987,-14.75527 -36.10695,-14.03516 -26.96113,2.10641 -44.92125,38.79957 -70.56089,46.81764 -59.87138,18.72308 -123.53456,21.51802 -168.47627,69.08928 -70.76736,74.90797 -110.52407,176.50499 -110.52412,282.44088 1.6e-4,81.40378 28.64869,157.75738 67.3453,227.74007 112.4197,203.31063 268.74015,312.3791 289.23804,327.1519 24.08627,17.3591 105.87268,8.6278 160.49499,-4.387 C 733.1478,1086 793.89438,1051.816 803.34155,1022.021 810.63824,999.00832 880.34355,780.62345 896.8475,609.6712 913.35146,438.71893 899.498,322.55872 828.87437,248.75239 758.25075,174.94607 675.0966,138.85262 545.6139,164.55499 Z"
       sodipodi:nodetypes="sssscsssszss" />
    <path
       id="ellipse2139"
       style="opacity:1;fill:none;fill-opacity:1;stroke:#000000;stroke-width:0.999996;stroke-linecap:round;stroke-miterlimit:4;stroke-dasharray:none"
       d="m 824.28456,1234.2157 c 5.22533,10.9622 4.61059,23.9832 -4.24346,38.5749 -22.27163,36.7044 -84.655,66.4592 -139.337,66.4592 -36.6826,0 -60.37807,-13.9848 -65.32507,-34.138"
       sodipodi:nodetypes="cssc" />
    <path
       id="ellipse2141"
       style="opacity:1;fill:none;fill-opacity:1;stroke:#000000;stroke-width:0.999996;stroke-linecap:round;stroke-miterlimit:4;stroke-dasharray:none"
       d="m 841.02437,1269.8816 c 4.6907,11.0335 4.18013,23.2447 -4.5807,37.6829 -22.90046,37.7406 -87.04506,68.3355 -143.27096,68.3355 -37.4799,0 -61.98022,-13.5947 -67.36794,-33.8386"
       sodipodi:nodetypes="cssc" />
    <path
       id="ellipse2143"
       style="opacity:1;fill:none;fill-opacity:1;stroke:#000000;stroke-width:0.999996;stroke-linecap:round;stroke-miterlimit:4;stroke-dasharray:none"
       d="m 854.59953,1298.2442 c 4.71226,11.2455 3.19683,24.8726 -5.71428,39.5584 -23.4035,38.5697 -88.95704,69.8365 -146.41804,69.8365 -40.3418,0 -65.96942,-15.4117 -69.55993,-37.9421 m 54.54637,-74.0428 c 22.01011,-12.6779 48.26906,-21.9727 74.37094,-25.7831"
       sodipodi:nodetypes="cssccc" />
    <ellipse
       style="opacity:1;fill:none;fill-opacity:1;stroke:#000000;stroke-width:0.954937;stroke-linecap:round;stroke-miterlimit:4;stroke-dasharray:none"
       id="ellipse2148"
       cx="1461.4401"
       cy="1449.8712"
       rx="84.349907"
       ry="66.226318"
       transform="matrix(1,0,-0.51875428,0.85492339,0,0)" />
    <path
       style="opacity:1;fill:none;stroke:#000000;stroke-width:4;stroke-linecap:butt;stroke-linejoin:miter;stroke-miterlimit:4;stroke-dasharray:none;stroke-opacity:1"
       d="m 687.35718,1190.4174 c -7.48175,-31.3611 -21.59778,-60.0206 -33.6611,-87.114"
       id="path2137"
       sodipodi:nodetypes="cc" />
    <path
       style="opacity:1;fill:none;stroke:#000000;stroke-width:1;stroke-linecap:butt;stroke-linejoin:miter;stroke-miterlimit:4;stroke-dasharray:none;stroke-opacity:1"
       d="m 807.9688,1233.5642 53.45391,111.7186"
       id="path2150" />
    <path
       style="opacity:1;fill:none;stroke:#000000;stroke-width:1;stroke-linecap:butt;stroke-linejoin:miter;stroke-miterlimit:4;stroke-dasharray:none;stroke-opacity:1"
       d="m 787.38906,1260.0239 50.51393,115.995"
       id="path2152" />
    <path
       style="opacity:1;fill:none;stroke:#000000;stroke-width:1;stroke-linecap:butt;stroke-linejoin:miter;stroke-miterlimit:4;stroke-dasharray:none;stroke-opacity:1"
       d="m 759.32577,1280.3363 43.29766,119.7368"
       id="path2154" />
    <path
       style="opacity:1;fill:none;stroke:#000000;stroke-width:1;stroke-linecap:butt;stroke-linejoin:miter;stroke-miterlimit:4;stroke-dasharray:none;stroke-opacity:1"
       d="m 725.91707,1294.5016 38.21954,120.8059"
       id="path2156" />
    <path
       style="opacity:1;fill:none;stroke:#000000;stroke-width:1;stroke-linecap:butt;stroke-linejoin:miter;stroke-miterlimit:4;stroke-dasharray:none;stroke-opacity:1"
       d="m 625.95825,1294.5016 36.88321,121.6077"
       id="path2158" />
    <path
       style="opacity:1;fill:none;stroke:#000000;stroke-width:1;stroke-linecap:butt;stroke-linejoin:miter;stroke-miterlimit:4;stroke-dasharray:none;stroke-opacity:1"
       d="m 656.96152,1303.0543 33.4087,120.2713"
       id="path2160" />
    <path
       style="opacity:1;fill:none;stroke:#000000;stroke-width:1;stroke-linecap:butt;stroke-linejoin:miter;stroke-miterlimit:4;stroke-dasharray:none;stroke-opacity:1"
       d="m 690.90476,1302.2524 33.4087,121.3404"
       id="path2162" />
    <path
       style="opacity:1;fill:#808080;stroke:#000000;stroke-width:0.264583px;stroke-linecap:butt;stroke-linejoin:miter;stroke-opacity:1"
       d="M 751.23515,1070.2209 C 764.20768,766.58104 861.25204,70.38398 539.3202,128.5526 c -73.83063,13.34017 -107.83257,71.94517 -107.83257,71.94517 3.72605,429.81457 224.11954,903.36303 224.11954,903.36303"
       id="path2180"
       sodipodi:nodetypes="cscc" />
    <path
       style="opacity:1;fill:#4d4d4d;stroke:#000000;stroke-width:0.264583px;stroke-linecap:butt;stroke-linejoin:miter;stroke-opacity:1"
       d="m 550.1312,1113.7074 c 0,0 -502.499373,-621.31251 -283.69099,-869.13378 20.07159,-22.73298 32.81594,-44.40136 106.74574,-57.18034 73.92983,-12.77899 67.20023,18.40049 67.20023,18.40049 54.90461,380.19608 216.09522,897.70893 216.09522,897.70893"
       id="path2182"
       sodipodi:nodetypes="csscc" />
    <path
       style="opacity:1;fill:none;stroke:#000000;stroke-width:0.264583px;stroke-linecap:butt;stroke-linejoin:miter;stroke-opacity:1"
       d="m 872.38077,313.08793 c -45.97036,-4.27631 -118.66769,26.72694 -118.66769,26.72694 -126.15121,-63.0756 -285.44385,25.65789 -285.44385,25.65789 0,0 -121.87489,-21.38156 -182.81234,6.41447 -60.93745,27.79603 -74.83547,74.83547 -74.83547,74.83547 0,0 -22.45064,-1.06908 -44.90128,31.00326"
       id="path2184" />
    <path
       style="opacity:1;fill:none;stroke:#000000;stroke-width:0.264583px;stroke-linecap:butt;stroke-linejoin:miter;stroke-opacity:1"
       d="m 200.00661,724.20869 c 0,0 12.25641,-50.94889 76.40111,-56.29427 72.21201,-68.42346 142.31546,-87.57749 244.24635,-64.68575 63.82382,-25.30179 162.12693,-58.55019 252.61557,-12.90491 0,0 69.49007,-32.80604 125.08214,3.01459"
       id="path2186"
       sodipodi:nodetypes="ccccc" />
    <path
       style="opacity:1;fill:none;stroke:#000000;stroke-width:0.264583px;stroke-linecap:butt;stroke-linejoin:miter;stroke-opacity:1"
       d="m 314.32199,909.09897 c 0.2351,3.99666 7.88044,-25.80777 62.96165,-43.04478 25.06716,-25.48323 108.77397,-67.43594 193.31971,-63.94551 74.81699,-30.32928 156.29062,-26.21576 197.45059,-14.55574 0,0 68.44326,-29.00403 95.56853,13.9333"
       id="path2188"
       sodipodi:nodetypes="ccccc" />
    <path
       style="opacity:1;fill:none;stroke:#000000;stroke-width:0.264583px;stroke-linecap:butt;stroke-linejoin:miter;stroke-opacity:1"
       d="m 422.29889,1026.6976 c 0,0 23.51971,3.7417 46.50489,-20.3125 79.71772,21.2108 114.91431,-10.48821 150.74002,-26.72696 59.96772,9.18793 90.02826,5.71522 138.98015,-25.12334 0.86442,1.24261 50.42615,-11.10096 75.90455,-36.34866"
       id="path2190"
       sodipodi:nodetypes="ccccc" />
  </g>
</svg>
