<?xml version="1.0" encoding="UTF-8" standalone="no"?>
<svg
   xmlns:dc="http://purl.org/dc/elements/1.1/"
   xmlns:cc="http://creativecommons.org/ns#"
   xmlns:rdf="http://www.w3.org/1999/02/22-rdf-syntax-ns#"
   xmlns:svg="http://www.w3.org/2000/svg"
   xmlns="http://www.w3.org/2000/svg"
   xmlns:sodipodi="http://sodipodi.sourceforge.net/DTD/sodipodi-0.dtd"
   xmlns:inkscape="http://www.inkscape.org/namespaces/inkscape"
   width="160mm"
   height="160.34917mm"
   viewBox="0 0 160 160.34917"
   version="1.1"
   id="svg1127"
   inkscape:version="1.0.2 (e86c870879, 2021-01-15, custom)"
   sodipodi:docname="earth_filled.svg"
   inkscape:export-filename="C:\Users\erihak\svg\planets\earth.png"
   inkscape:export-xdpi="300"
   inkscape:export-ydpi="300">
  <defs
     id="defs1121" />
  <sodipodi:namedview
     id="base"
     pagecolor="#ffffff"
     bordercolor="#666666"
     borderopacity="1.0"
     inkscape:pageopacity="1"
     inkscape:pageshadow="2"
     inkscape:zoom="1.2921665"
     inkscape:cx="306.97796"
     inkscape:cy="305.39558"
     inkscape:document-units="mm"
     inkscape:current-layer="layer1"
     inkscape:document-rotation="0"
     showgrid="false"
     inkscape:window-width="1920"
     inkscape:window-height="986"
     inkscape:window-x="-11"
     inkscape:window-y="-11"
     inkscape:window-maximized="1"
     fit-margin-top="0"
     fit-margin-left="0"
     fit-margin-right="0"
     fit-margin-bottom="0" />
  <metadata
     id="metadata1124">
    <rdf:RDF>
      <cc:Work
         rdf:about="">
        <dc:format>image/svg+xml</dc:format>
        <dc:type
           rdf:resource="http://purl.org/dc/dcmitype/StillImage" />
        <dc:title></dc:title>
      </cc:Work>
    </rdf:RDF>
  </metadata>
  <g
     inkscape:label="Layer 1"
     inkscape:groupmode="layer"
     id="layer1"
     transform="translate(-35,-15)">
    <path
       style="fill:#cccccc;stroke-width:0.159761;stroke:#e6e6e6;stroke-opacity:1"
       d="m 111.32236,175.20328 c -14.376199,-0.65401 -28.564149,-5.29796 -40.535329,-13.26788 -10.25759,-6.82908 -18.97011,-16.10513 -25.02645,-26.6452 -14.287,-24.86415 -14.35085,-54.966149 -0.16966,-79.987309 5.49936,-9.70304 13.71409,-18.77572 23.02853,-25.43366 15.98618,-11.4269 36.183799,-16.643267 55.493869,-14.33222 15.80423,1.89147 30.14871,8.08253 42.41657,18.30693 2.15091,1.79264 6.44356,6.01201 8.52705,8.38152 7.11274,8.08911 12.58492,17.68182 15.99949,28.04698 3.36566,10.21673 4.62822,21.63999 3.58978,32.479599 -2.30808,24.09311 -15.29954,45.79112 -35.44587,59.20082 -10.50203,6.99029 -22.87518,11.48164 -35.42587,12.85928 -2.10617,0.23118 -8.10852,0.5773 -9.24681,0.53319 -0.30754,-0.012 -1.74992,-0.0758 -3.2053,-0.14205 z m 0.96995,-2.19419 c -1.64005,-1.35278 -2.49317,-2.2707 -3.44553,-3.70727 -0.5534,-0.83475 -1.43984,-2.07708 -1.96986,-2.76073 -1.20833,-1.55853 -1.30288,-1.988 -0.83428,-3.78947 0.51917,-1.99593 0.57988,-2.96673 0.27205,-4.35035 -0.54549,-2.45187 -1.87591,-4.60597 -4.53172,-7.33734 -1.51345,-1.55652 -1.68902,-1.80166 -2.045959,-2.85668 -0.21475,-0.63474 -0.49679,-1.73776 -0.62677,-2.45117 -0.12998,-0.71341 -0.37777,-2.07724 -0.55066,-3.03074 -0.41951,-2.31376 -0.69377,-2.68202 -2.27847,-3.05947 -0.64043,-0.15253 -1.95523,-0.58438 -2.92179,-0.95966 -2.60149,-1.01006 -3.5069,-1.11782 -7.34314,-0.87394 -3.71512,0.23617 -8.70282,0.12716 -10.42821,-0.22794 -0.63592,-0.13087 -1.4749,-0.37892 -1.8644,-0.55121 -2.74349,-1.21358 -6.21135,-4.76198 -7.85785,-8.04036 -0.39249,-0.7815 -1.67993,-2.85846 -2.86097,-4.61545 -1.60842,-2.39279 -2.22921,-3.45957 -2.47351,-4.25054 -0.46485,-1.50499 -0.7034,-5.21017 -0.58962,-9.15773 0.142,-4.92682 0.58507,-6.8945 2.1278,-9.44971 1.12684,-1.866359 2.99772,-4.303249 4.71082,-6.136009 1.64313,-1.75789 2.40414,-3.00855 2.7607,-4.537 0.1285,-0.55084 0.42039,-1.38324 0.64865,-1.84977 1.13271,-2.31519 4.14236,-5.68385 5.86173,-6.56098 0.79023,-0.40313 1.05135,-0.44364 3.56856,-0.55371 2.71901,-0.11889 4.27562,-0.36194 6.07091,-0.9479 2.5431,-0.83005 5.99806,-1.1999 9.98507,-1.06889 4.474029,0.14701 5.696039,0.52518 6.415039,1.98525 0.31843,0.64665 0.37515,1.00661 0.37713,2.39336 l 0.002,1.63224 0.63672,0.6656 c 0.91229,0.95369 3.43185,2.55593 6.40221,4.0713 4.33688,2.21252 4.85411,2.18554 7.23148,-0.37723 2.25011,-2.42559 2.2642,-2.42934 4.83413,-1.28862 2.67986,1.18952 6.93718,1.87926 11.82467,1.91574 3.92387,0.0293 4.82723,-0.28872 5.62306,-1.97952 0.42416,-0.90117 1.07877,-3.42852 1.4042,-5.42138 0.29196,-1.78798 0.29811,-1.78369 -2.40819,-1.68291 -1.18958,0.0443 -3.27509,0.16694 -4.63446,0.27253 -3.09546,0.24044 -4.7102,0.17753 -4.99247,-0.19452 -0.41141,-0.54228 -1.12568,-0.65261 -4.84483,-0.74832 -3.17556,-0.0817 -3.74219,-0.13436 -4.12112,-0.38278 -0.67554,-0.4429 -0.82105,-0.90748 -0.6113,-1.95188 0.21303,-1.06077 1.24073,-3.31045 1.82913,-4.00408 0.62092,-0.73197 2.06285,-1.42682 3.94902,-1.903 3.41638,-0.86248 3.54919,-0.99684 3.68472,-3.72774 0.0763,-1.53702 0.18028,-2.20765 0.42994,-2.77207 0.77329,-1.74813 2.91856,-4.35448 4.06673,-4.94078 1.43161,-0.73103 2.59751,-0.19806 3.55573,1.62543 0.6609,1.25768 0.77052,1.24862 0.94292,-0.0779 0.22274,-1.71393 1.54387,-3.04839 3.01792,-3.04839 0.67823,0 0.84445,0.0681 1.23574,0.50599 0.29575,0.33099 0.51729,0.82828 0.64057,1.43785 0.33448,1.65366 1.1514,2.71584 3.59407,4.67306 2.69535,2.15968 3.05727,2.70885 2.5021,3.79662 -0.70215,1.37574 -1.50546,1.72786 -3.93995,1.72701 -1.67425,-4.5e-4 -2.13978,-0.0647 -3.6745,-0.50616 -0.96656,-0.27803 -2.04776,-0.55094 -2.40267,-0.60647 -0.95163,-0.14891 -2.87876,0.30539 -5.17421,1.21974 -2.66116,1.06004 -4.0609,1.8097 -4.66619,2.4991 -0.46922,0.5344 -0.49205,0.61967 -0.40042,1.49616 0.12469,1.1931 0.40811,1.85686 1.13759,2.66431 1.17501,1.3006 3.54868,1.69772 7.83139,1.31019 1.14229,-0.10336 2.62611,-0.22898 3.29734,-0.27915 l 1.22047,-0.0912 0.0922,0.62072 c 0.49313,3.31788 0.0763,6.37147 -1.29483,9.48619 -0.94543,2.14761 -1.75487,2.6098 -5.06946,2.89461 -3.98302,0.34226 -7.34216,-0.18177 -12.59582,-1.96492 -1.82961,-0.62099 -3.38076,-1.06596 -3.44702,-0.98881 -0.0663,0.0771 -1.04366,1.23662 -2.172,2.57662 -1.12834,1.34 -2.11326,2.43635 -2.18872,2.43635 -0.23031,0 -9.29268,-4.55142 -10.70629,-5.37705 -1.6678,-0.97409 -3.18418,-2.44645 -3.44857,-3.34845 -0.10601,-0.36168 -0.19275,-1.31898 -0.19275,-2.12734 0,-0.80837 -0.0727,-1.60567 -0.16164,-1.77179 -0.26182,-0.48923 -1.191049,-0.6337 -4.082029,-0.63464 -4.33071,-0.001 -8.97749,0.50536 -12.36581,1.34861 -2.12378,0.52854 -3.51135,0.73097 -5.29178,0.77198 -1.48752,0.0343 -1.559,0.0533 -2.47629,0.65895 -2.14964,1.41931 -4.1197,3.93626 -4.68393,5.98414 -0.55043,1.99786 -1.67258,3.709 -4.5721,6.97189 -2.14939,2.41875 -3.36822,4.085069 -4.09001,5.591639 -1.12533,2.34886 -1.4103,4.12129 -1.4147,8.79905 -0.005,5.06077 0.34401,7.98398 1.1774,9.86841 0.55267,1.24969 5.97909,9.5724 7.13137,10.93767 1.17193,1.38855 2.80396,2.77112 3.91052,3.3128 1.22554,0.59991 2.9843,0.75521 7.18852,0.63472 2.02097,-0.0579 4.50126,-0.17098 5.51175,-0.25124 3.84709,-0.30557 5.06041,-0.16091 6.40982,0.76426 1.18995,0.81584 2.29362,1.30028 4.04988,1.77765 0.92902,0.25252 1.83316,0.58947 2.00919,0.74877 0.40209,0.36389 0.84312,1.84541 1.27484,4.28246 0.677999,3.82734 1.196749,4.99311 3.103289,6.97389 1.68116,1.74663 2.67348,3.17955 3.69447,5.3349 1.21097,2.55638 1.44938,4.55242 0.71555,5.99084 -0.23725,0.46505 -0.32834,0.94903 -0.32834,1.74446 0,1.43396 0.21353,2.03068 1.03988,2.9059 0.37333,0.39541 1.22383,1.55478 1.89,2.57639 0.85866,1.31678 1.59672,2.2178 2.53559,3.09543 l 1.32438,1.23798 3.19521,-0.10173 c 3.93756,-0.12536 6.11668,-0.33233 6.88676,-0.65409 0.32361,-0.13521 1.27892,-0.74099 2.12292,-1.34619 0.844,-0.60519 2.01978,-1.36595 2.61283,-1.69058 1.24634,-0.68223 1.65733,-1.13898 1.90311,-2.11507 0.097,-0.38526 0.37941,-0.90349 0.62755,-1.15163 0.24813,-0.24814 1.6518,-1.08493 3.11927,-1.85954 3.35396,-1.77042 3.98617,-2.26309 4.73658,-3.69113 0.66103,-1.25793 1.31407,-3.58993 1.46835,-5.24347 0.3077,-3.2977 0.59156,-4.12561 1.98126,-5.7784 0.98863,-1.1758 4.40266,-4.53184 6.49358,-6.3833 6.03567,-5.34442 9.44696,-9.43409 11.57714,-13.87935 0.82818,-1.72825 1.44582,-3.2751 1.30769,-3.2751 -0.0623,0 -1.26147,0.28349 -2.6648,0.62998 -2.34047,0.57787 -5.40989,1.28715 -5.57019,1.28715 -0.0366,0 -0.59133,-0.7369 -1.23277,-1.63755 -0.64144,-0.90065 -2.19946,-3.02783 -3.46228,-4.72707 -3.85714,-5.19013 -4.47657,-6.31311 -5.38979,-9.77125 -1.42283,-5.38788 -2.44539,-7.85761 -4.47445,-10.80696 -1.48359,-2.156469 -2.31227,-3.901699 -2.31227,-4.869699 0,-1.24443 0.57585,-1.57522 2.07401,-1.19142 2.70443,0.69285 4.26058,2.35372 5.35927,5.719909 0.67717,2.0747 1.13316,2.8572 1.97452,3.38833 0.81249,0.5129 1.17634,1.1335 1.79082,3.0544 0.61821,1.93259 1.72355,4.1825 3.033,6.17363 1.89545,2.88221 2.38353,4.26542 2.38353,6.75479 0,1.43622 0.0426,1.69327 0.3441,2.07656 0.3034,0.38572 0.41812,0.42559 0.97042,0.33728 1.309,-0.20932 3.93169,-1.6743 8.11139,-4.53086 4.13276,-2.82449 6.99796,-5.38079 8.48684,-7.57191 0.65459,-0.96331 2.69643,-5.17206 2.69643,-5.558 0,-0.10095 -0.70095,-1.01665 -1.55767,-2.03487 -0.85672,-1.01823 -1.66609,-1.98502 -1.79859,-2.14843 -0.22785,-0.28099 -0.34922,-0.20099 -2.23666,1.47437 -1.09765,0.97432 -2.18987,1.91164 -2.42717,2.08293 l -0.43143,0.31144 -1.11509,-1.88439 c -0.61329,-1.03642 -1.28869,-2.36268 -1.50087,-2.94725 -0.22699,-0.625339 -0.86135,-1.728919 -1.54104,-2.680939 -1.33817,-1.87429 -2.0895,-3.2325 -2.0895,-3.77729 0,-0.88586 1.28745,-1.4529 2.69341,-1.18626 1.15552,0.21914 1.56471,0.47162 2.67955,1.6534 1.15269,1.2219 2.36844,2.05859 3.53455,2.43252 0.7524,0.24126 0.91299,0.24506 1.54633,0.0366 0.87129,-0.28684 1.50961,-0.0761 1.93122,0.63766 0.58244,0.98601 0.93815,1.07323 4.46973,1.09609 1.8705,0.0121 3.47886,0.098 3.87935,0.20725 0.45365,0.1237 1.04133,0.51027 1.7444,1.14743 0.58316,0.528479 1.26261,1.065489 1.50989,1.193369 0.57549,0.29759 0.9343,0.99531 0.9343,1.81677 0,0.79673 0.18664,0.81979 0.64412,0.0796 0.41519,-0.67179 0.7952,-0.66861 0.98512,0.008 0.074,0.2636 0.15104,4.81075 0.17125,10.10477 0.0202,5.29401 0.083,9.62553 0.1396,9.6256 0.32943,3.2e-4 1.42038,-3.57881 2.1426,-7.02937 0.27381,-1.30825 0.87651,-3.23678 1.74747,-5.59163 1.81979,-4.92032 2.78434,-8.09557 2.98468,-9.82531 0.25661,-2.215649 0.0618,-10.289709 -0.32965,-13.659579 -1.61266,-13.88436 -6.7334,-26.87895 -14.98974,-38.03857 -7.07466,-9.56242 -16.70268,-17.70459 -27.28492,-23.07419 -2.18933,-1.1109 -3.36544,-1.64378 -6.7499,-3.05823 -0.28558,-0.11934 -0.51922,-0.18112 -0.51922,-0.13727 0,0.13501 1.78918,0.99161 3.37003,1.61346 2.56599,1.00938 5.89611,2.77705 5.89611,3.12974 0,0.0893 -0.66501,-0.19075 -1.47779,-0.62242 -2.13861,-1.13582 -2.20312,-1.12595 -0.85711,0.13108 1.40479,1.31192 1.60306,1.84815 0.62466,1.68938 -0.70345,-0.11416 -1.99245,-0.74923 -2.08514,-1.02732 -0.0413,-0.12382 0.10194,-0.19895 0.38715,-0.20308 l 0.45265,-0.007 -0.71541,-0.64659 c -1.11124,-1.00432 -3.09072,-2.25981 -6.0235,-3.8204 -2.80258,-1.49132 -3.61349,-1.78181 -2.53047,-0.90648 0.34968,0.28262 0.85293,0.71619 1.11832,0.96348 0.78801,0.73426 -0.05,0.2454 -1.86224,-1.08632 -1.56466,-1.1498 -1.59189,-1.16196 -4.12789,-1.84517 -1.40406,-0.37826 -2.60126,-0.6393 -2.66047,-0.5801 -0.2647,0.26472 2.69234,2.83524 3.60995,3.13808 1.33558,0.44078 1.47189,1.21543 0.19037,1.08179 -0.98915,-0.10315 -3.00337,-1.3409 -4.25286,-2.6134 -0.52721,-0.53691 -1.24613,-1.18026 -1.59761,-1.42965 -0.35147,-0.24939 -0.74688,-0.57434 -0.87868,-0.72212 -0.40901,-0.45857 -6.19731,-1.25032 -11.06346,-1.51331 -1.81661,-0.0982 -2.03695,-0.0821 -2.03695,0.14877 0,0.32966 -0.35863,0.32945 -0.99683,-4.6e-4 l -0.50168,-0.25942 -0.46445,0.57895 c -0.25544,0.31843 -0.59246,0.57895 -0.74891,0.57895 -0.39932,0 -0.69746,-0.41396 -0.59109,-0.82072 0.0896,-0.34252 0.0857,-0.34294 -2.09798,-0.2333 -2.81302,0.14123 -6.11469,0.48484 -8.73791,0.90937 -1.71968,0.2783 -2.22887,0.42753 -2.960479,0.86759 -0.48597,0.29231 -1.09706,0.58108 -1.35797,0.64171 -0.26091,0.0606 -0.85383,0.29767 -1.3176,0.52676 -0.694,0.34282 -0.89702,0.38292 -1.14727,0.22664 -0.25676,-0.16036 -0.37769,-0.1211 -0.77751,0.25238 -0.71981,0.6724 -5.01039,3.32565 -6.08219,3.76117 -0.96996,0.39413 -2.08507,0.67157 -4.88926,1.21649 -1.37457,0.2671 -2.00457,0.51299 -4.51265,1.76127 -1.60326,0.79796 -3.29558,1.57638 -3.7607,1.72982 -1.67556,0.55278 -3.898,1.99631 -8.58513,5.57627 -1.40929,1.07639 -2.64017,1.95707 -2.73531,1.95707 -0.10052,0 -0.1441,-0.1967 -0.10403,-0.46967 l 0.0689,-0.46968 -0.64663,0.50962 c -1.23119,0.97032 -6.16491,5.90477 -7.75523,7.7564 -10.13017,11.79463 -16.3825,25.38791 -18.52806,40.28213 -0.62531,4.34083 -0.73067,6.04877 -0.71943,11.66255 0.009,4.602239 0.0676,5.978329 0.35375,8.339189 1.41171,11.6462 4.9469,22.04555 10.84601,31.90537 1.26795,2.11926 1.91741,3.00593 3.39363,4.63307 2.88013,3.17461 4.17212,4.80026 5.24002,6.59331 0.86214,1.44756 1.32424,1.99125 3.51475,4.13539 9.98099,9.76972 21.64771,16.37892 35.35299,20.0275 4.726549,1.25827 11.838509,2.28611 17.014559,2.45896 l 0.47928,0.016 z m -5.60049,-91.792539 c -0.73545,-0.26302 -2.01937,-1.14878 -2.22671,-1.53621 -0.21902,-0.40924 -0.20466,-1.01638 0.0296,-1.25061 0.4989,-0.4989 1.54199,-0.0577 2.25049,0.95194 0.8213,1.17038 1.51758,0.54198 1.87062,-1.68825 0.31724,-2.00411 -4.5e-4,-2.78552 -1.44096,-3.5424 -1.50768,-0.79226 -3.02823,-2.12731 -4.69116,-4.11884 -1.62391,-1.94478 -2.15481,-2.33857 -3.152159,-2.33799 -0.8035,4.5e-4 -3.20146,0.61205 -4.36886,1.11425 -2.33173,1.0031 -6.44899,4.0029 -7.85409,5.72243 -0.40958,0.50123 -0.94468,1.35539 -1.18911,1.89814 -0.52985,1.17648 -1.5085,2.01793 -3.63638,3.12661 -2.02416,1.05463 -3.37212,1.45811 -4.52277,1.35377 -1.58401,-0.14364 -4.20413,-1.67749 -4.94731,-2.89623 -0.41695,-0.68376 -0.38722,-1.83511 0.10394,-4.02504 0.53967,-2.40618 1.78459,-6.95162 1.94895,-7.11599 0.0719,-0.0719 1.67419,-0.20625 3.56068,-0.2986 3.71119,-0.18166 5.16704,-0.35508 5.53338,-0.65911 0.44125,-0.36621 0.69575,-1.08754 0.79378,-2.24983 0.13858,-1.64318 -0.1329,-2.75769 -0.98942,-4.06177 -0.55148,-0.83963 -0.70955,-1.22773 -0.70955,-1.74203 0,-0.92105 0.35738,-1.1966 1.75032,-1.3495 1.03797,-0.11394 1.17678,-0.17498 1.75656,-0.7724 0.42719,-0.4402 0.89604,-0.72783 1.45875,-0.89494 1.52929,-0.45415 3.48429,-1.61881 7.49573,-4.46547 2.37415,-1.68479 4.22753,-2.72635 5.160129,-2.8999 0.8884,-0.16532 1.07055,-0.42613 1.07055,-1.53284 0,-1.98627 0.66507,-3.23366 1.99488,-3.74152 0.66078,-0.25235 0.74441,-0.25341 1.10978,-0.014 0.49689,0.32557 0.66565,1.1498 0.42837,2.09214 -0.2664,1.05796 -0.22793,1.80676 0.10153,1.97644 0.15377,0.0792 0.72511,0.1824 1.26964,0.22934 0.54453,0.047 1.22059,0.20036 1.50234,0.34092 0.78801,0.39311 1.21985,0.31698 2.8487,-0.50224 1.48782,-0.74829 1.5306,-0.7589 3.39138,-0.84094 2.28871,-0.10091 2.38135,-0.164 2.54932,-1.73602 0.22052,-2.06381 1.14368,-3.15835 2.5175,-2.98484 l 0.69889,0.0883 -0.0964,-0.48217 c -0.1593,-0.79652 -0.90971,-2.18142 -1.65524,-3.05484 -0.9397,-1.10088 -1.3236,-1.89764 -1.3236,-2.74702 0,-0.88837 0.23872,-1.44363 1.34898,-3.13772 0.80313,-1.22548 1.11211,-2.08039 0.75188,-2.08039 -0.68332,0 -3.41152,3.00447 -4.26279,4.69447 -0.6817,1.35335 -0.72556,2.13345 -0.1546,2.74952 0.72854,0.78611 0.37927,2.60435 -0.58854,3.06376 -0.3465,0.16449 -0.46484,0.37726 -0.61673,1.10892 -0.26003,1.25255 -1.46201,2.51772 -3.23509,3.40518 -2.48972,1.24614 -3.19692,0.75404 -4.02062,-2.79769 -0.48761,-2.10251 -0.71766,-2.26164 -2.4177,-1.67238 -1.25691,0.43567 -2.76773,0.57103 -3.14916,0.28215 -0.24136,-0.1828 -0.288,-0.45639 -0.28606,-1.67821 0.003,-1.67372 0.0803,-2.08471 0.58477,-3.0947 0.67157,-1.34461 3.90879,-4.0143 5.51428,-4.54756 0.71562,-0.23769 0.78596,-0.30524 0.78596,-0.75488 0,-0.37318 0.16753,-0.65436 0.6857,-1.15085 0.74767,-0.71639 3.78285,-2.94658 4.5502,-3.34339 0.26293,-0.13597 0.52143,-0.42003 0.57444,-0.63124 0.0922,-0.36734 0.63896,-0.72565 3.03475,-1.98874 0.38036,-0.20053 1.15191,-0.44194 1.71457,-0.53646 0.56266,-0.0945 1.18388,-0.24768 1.3805,-0.34033 0.53045,-0.24997 2.34543,0.12176 3.39386,0.6951 0.47946,0.2622 1.36308,0.57917 1.96361,0.70438 1.44178,0.30062 3.9607,1.21832 5.98449,2.1803 1.27406,0.6056 1.65592,0.86223 1.73159,1.16371 0.27407,1.09201 -0.23038,1.3651 -2.52734,1.36826 -0.94459,0.001 -1.71743,0.0676 -1.71743,0.14731 0,0.21105 1.59559,1.61241 1.83589,1.61241 0.11205,0 0.2387,-0.13374 0.28145,-0.29719 0.0597,-0.22843 0.27484,-0.31614 0.92956,-0.37905 0.89755,-0.0863 1.03443,-0.19269 1.80132,-1.40065 0.19593,-0.30862 0.5136,-0.58204 0.70897,-0.61022 0.44469,-0.0641 0.44375,-0.17249 -0.006,-0.6695 -1.3947,-1.54169 -1.47074,-1.85938 -0.40423,-1.68884 0.91578,0.14644 1.80011,0.64534 2.29577,1.29517 0.48909,0.64124 0.73031,0.65272 0.79586,0.0379 0.0584,-0.54775 0.66793,-1.36883 1.2346,-1.66311 0.39372,-0.20446 0.50582,-0.20261 0.94319,0.0156 1.45389,0.7253 1.97331,-0.3849 0.60403,-1.29105 -0.34984,-0.23151 -0.63607,-0.49107 -0.63607,-0.57679 0,-0.28175 0.85931,0.0381 1.77573,0.661 0.65868,0.4477 0.89217,0.54152 0.87868,0.35309 -0.0249,-0.34812 0.97949,-0.28342 2.21867,0.14292 1.28582,0.44239 1.29038,0.39215 0.0233,-0.25802 -1.67984,-0.86199 -1.15288,-0.81236 0.71492,0.0673 2.69951,1.27141 3.13641,1.87101 0.7791,1.06924 -0.64586,-0.21967 -1.48044,-0.39941 -1.85462,-0.39941 -0.62342,0 -0.68455,0.0368 -0.73089,0.43935 -0.0517,0.44976 -0.11582,0.46803 -0.94744,0.27014 -0.3208,-0.0763 -0.51688,-1.2e-4 -0.84584,0.32886 -0.30562,0.30562 -0.50627,0.39133 -0.70073,0.29933 -0.14985,-0.0709 -0.58583,-0.12915 -0.96881,-0.12944 -0.58365,-4.5e-4 -0.77107,0.0831 -1.15827,0.51646 -0.25406,0.28435 -0.46193,0.62548 -0.46193,0.75808 0,0.32321 -0.59733,0.52972 -1.25048,0.43231 -0.36023,-0.0537 -0.78261,-0.33032 -1.31042,-0.85813 -0.42837,-0.42838 -0.81823,-0.77886 -0.86636,-0.77886 -0.22026,0 -0.0281,0.32374 0.71133,1.1982 0.43934,0.51961 0.7988,1.0246 0.7988,1.1222 0,0.0976 -0.37533,0.2445 -0.83405,0.32644 -0.76861,0.13728 -0.84216,0.18939 -0.93756,0.66419 -0.1442,0.71763 -0.52519,1.24788 -1.29986,1.80904 -1.08861,0.78858 -1.2467,0.77489 -2.63849,-0.22845 -1.64224,-1.18393 -3.07687,-2.56771 -3.07687,-2.96787 0,-0.50614 0.67304,-0.56973 1.96794,-0.18593 1.80059,0.53367 3.05933,0.3888 2.95579,-0.34018 -0.0683,-0.48102 -1.67684,-1.27229 -4.5691,-2.24763 -1.73809,-0.58613 -2.4412,-0.74763 -3.25497,-0.74763 -0.91132,0 -1.08525,-0.0506 -1.4253,-0.41459 -0.99301,-1.06292 -2.11177,-1.10838 -4.85739,-0.19736 -1.65468,0.54903 -2.02253,0.73708 -2.71594,1.3884 -0.44111,0.41434 -1.58951,1.32578 -2.552,2.0254 -2.78041,2.02108 -4.08131,3.38667 -4.08131,4.28426 0,0.4902 -0.88513,1.17126 -1.99701,1.53658 -2.16525,0.71142 -3.12334,1.4206 -3.90793,2.89264 -0.67161,1.26005 -0.87014,2.98892 -0.40257,3.50558 0.43052,0.47571 0.94994,0.38861 2.40175,-0.40278 0.72539,-0.3954 1.45844,-0.71892 1.629,-0.71892 0.51233,0 0.8139,0.49968 1.45717,2.4144 0.33704,1.00323 0.73196,2.0545 0.87761,2.33615 0.48687,0.94151 1.13112,1.01281 2.43556,0.26957 0.72809,-0.41485 0.99129,-0.7612 1.38924,-1.82811 0.14813,-0.39717 0.66512,-1.21878 1.14884,-1.82582 0.98491,-1.23596 1.07102,-1.64256 0.55998,-2.64428 -0.37762,-0.7402 -0.41484,-1.85904 -0.0879,-2.64162 0.12742,-0.30496 0.91806,-1.26183 1.75699,-2.12638 0.98004,-1.00998 1.60172,-1.79259 1.73903,-2.18922 0.29047,-0.839 0.86132,-1.22728 1.93529,-1.31635 1.77744,-0.1474 2.1254,0.64577 1.04124,2.37339 -1.69638,2.7032 -2.22347,4.36224 -1.62135,5.10326 l 0.32301,0.39752 3.16827,-0.0107 c 3.54163,-0.012 4.15398,-0.14262 4.09512,-0.87341 -0.0542,-0.67263 0.0988,-1.08728 0.44141,-1.196 0.47508,-0.15079 1.92494,0.60653 2.60744,1.36196 0.6999,0.77472 0.85632,1.31152 0.52809,1.81244 -0.22584,0.34467 -0.38794,0.3809 -2.13444,0.477 -2.25093,0.12385 -4.58795,0.48502 -5.50009,0.84998 l -0.65966,0.26394 0.11839,0.73431 c 0.0651,0.40387 0.12712,1.19241 0.13782,1.75231 0.0164,0.85525 -0.0319,1.05225 -0.30192,1.23234 -0.28003,0.18678 -0.42603,0.16074 -1.13498,-0.20241 -1.3594,-0.69632 -2.11821,-0.25591 -1.78961,1.03868 0.21392,0.84279 -0.008,1.43471 -0.79956,2.12942 -0.86928,0.76324 -1.81351,1.10616 -3.47985,1.26382 -1.48824,0.1408 -1.95721,0.28174 -2.49387,0.74948 -0.98536,0.85883 -5.69846,0.32436 -7.5111,-0.85178 -0.32762,-0.21258 -0.66969,-0.38651 -0.76016,-0.38651 -0.0905,0 -0.27388,0.2696 -0.4076,0.59911 -0.31553,0.77749 -1.13065,1.34285 -2.921369,2.02621 -1.79469,0.68488 -2.56465,1.16582 -3.24769,2.02857 -0.96155,1.21455 -1.53215,1.69328 -2.15818,1.81072 -0.7261,0.13622 -1.61464,0.64328 -2.68546,1.53251 -1.03809,0.86204 -1.75796,1.2177 -3.07674,1.52009 -0.9551,0.219 -1.18789,0.35242 -1.98783,1.13931 -0.80763,0.79445 -0.95953,0.88056 -1.39843,0.79277 l -0.49238,-0.0985 0.2229,0.51533 c 0.1226,0.28343 0.42837,0.94669 0.6795,1.4739 0.42926,0.90118 0.456,1.07813 0.44649,2.95558 -0.008,1.68071 -0.0673,2.14272 -0.37143,2.91696 -0.90869,2.31354 -2.38254,2.76484 -6.64794,2.03563 -1.02796,-0.17573 -2.03363,-0.31952 -2.23484,-0.31952 -0.73296,0 -1.0121,0.46743 -1.66964,2.79582 -0.34739,1.23016 -0.84473,2.84774 -1.1052,3.59463 -0.86967,2.49376 -0.81542,2.98665 0.43795,3.97934 3.23216,2.55992 7.77311,1.5054 10.42651,-2.42129 0.86056,-1.2735 2.3445,-2.75034 3.57112,-3.55401 1.1987,-0.78538 2.34984,-1.92365 2.76572,-2.73478 0.64283,-1.25381 1.71024,-1.8581 4.07753,-2.30838 0.89324,-0.16991 2.14426,-0.46309 2.78004,-0.65152 1.12964,-0.33479 1.17299,-0.33609 1.903979,-0.0569 0.56459,0.21562 1.20179,0.74641 2.59843,2.16453 2.05211,2.08366 3.79549,3.53286 5.60979,4.66318 1.06736,0.66497 2.33308,1.23936 2.73102,1.23936 0.49993,0 -0.36551,-1.19896 -2.69093,-3.72799 -0.87539,-0.95204 -1.82631,-2.11822 -2.11315,-2.59151 -1.59311,-2.62862 -1.747,-4.86377 -0.33488,-4.86377 0.97429,0 3.61671,2.23356 6.89589,5.8289 3.68712,4.0426 7.21443,8.532091 7.21443,9.627911 0,1.50693 -3.07423,-1.225731 -4.27506,-3.634491 -0.24093,-0.48328 -0.73096,-1.27409 -1.08896,-1.75737 -2.32579,-3.13972 -7.74655,-8.78686 -8.4346,-8.78686 -0.3092,0 -0.12358,1.1707 0.32719,2.06368 0.57075,1.13065 2.1149,3.07365 3.07222,3.86576 0.38383,0.3176 1.19909,0.89872 1.81168,1.29139 1.22848,0.78743 2.09235,1.6711 2.25078,2.30236 0.13768,0.54852 -0.17558,1.56157 -0.78505,2.53877 -1.43086,2.29421 -3.28072,4.51366 -4.1383,4.96513 -0.52628,0.27704 -1.29595,0.28095 -2.05244,0.0104 z m -3.01509,-36.48218 c 0.15696,-0.41285 0.0663,-1.29689 -0.11445,-1.11613 -0.14096,0.14096 -0.36457,1.2814 -0.27853,1.4206 0.13329,0.21567 0.22108,0.14766 0.39298,-0.30447 z m 20.67624,-7.86968 c -0.26361,-0.051 -0.69496,-0.0589 -0.95857,-0.0176 l -0.47928,0.0751 0.47928,0.0927 c 0.26361,0.051 0.69496,0.0589 0.95857,0.0176 l 0.47928,-0.0751 z m 4.20167,-0.67552 c 0.0726,-0.37723 -0.66811,-0.82653 -1.15941,-0.70322 -0.48535,0.12182 -0.39106,0.48473 0.21185,0.8153 0.51815,0.28411 0.87948,0.24137 0.94756,-0.11208 z m 33.39498,43.56261 c -0.90393,-0.47073 -2.54204,-1.95875 -3.04273,-2.76394 -0.32253,-0.51869 -0.36506,-0.79179 -0.36506,-2.34445 0,-1.65361 -0.0302,-1.81868 -0.51072,-2.79582 -0.28091,-0.57114 -1.12871,-2.00899 -1.88403,-3.19522 -2.43025,-3.81674 -2.73137,-4.82376 -1.93137,-6.45894 1.12625,-2.30197 3.67634,-3.43883 5.13678,-2.29005 0.95962,0.75485 1.14432,2.36469 0.43267,3.77126 l -0.43418,0.85813 0.554,1.04516 c 0.73475,1.38618 1.98937,2.71449 2.69774,2.85616 1.10329,0.22066 2.5737,2.3787 2.11797,3.10843 -0.27804,0.4452 -0.23563,0.89456 0.27274,2.89039 0.25332,0.99447 0.50809,2.14121 0.56616,2.54834 0.14348,1.00581 -0.16353,2.12638 -0.7407,2.70356 -0.40239,0.40239 -0.58979,0.46928 -1.29681,0.46292 -0.5528,-0.005 -1.07348,-0.13607 -1.57246,-0.39593 z m 1.95771,-1.8121 0.36842,-0.29832 -0.3467,-1.33922 c -0.19068,-0.73658 -0.52823,-1.94048 -0.75012,-2.67536 -0.41533,-1.37555 -0.52501,-2.64377 -0.24367,-2.81765 0.29249,-0.18077 0.16516,-0.35839 -0.32756,-0.45692 -0.9493,-0.18987 -2.96339,-2.59962 -3.99455,-4.77929 -0.61332,-1.29642 -0.61131,-2.05273 0.009,-3.23113 0.2636,-0.50112 0.47928,-0.97572 0.47928,-1.05467 0,-0.22475 -1.86947,-0.16805 -2.44148,0.0741 -2.07592,0.87863 -1.65819,3.77057 1.08778,7.53081 1.83993,2.51955 1.90245,2.68968 1.90804,5.19224 0.005,2.00185 0.0335,2.20727 0.40423,2.85981 0.5267,0.92711 1.23438,1.29397 2.49604,1.29397 0.72198,0 1.08122,-0.0793 1.35173,-0.29833 z m -65.735239,-1.8241 c -0.37685,-0.27557 -0.49637,-1.3163 -0.27156,-2.36459 0.36253,-1.69043 1.39345,-2.08066 2.561429,-0.96958 0.86241,0.82038 0.86482,1.32851 0.0109,2.29858 -0.564579,0.64139 -1.470429,1.24089 -1.874999,1.24089 -0.0798,0 -0.27137,-0.0924 -0.4258,-0.2053 z m 69.015789,-11.14253 c -0.66813,-0.58662 -1.05826,-1.64397 -1.05505,-2.85942 0.003,-1.19104 0.26065,-1.67505 0.92537,-1.73944 0.41579,-0.0403 0.62997,0.0585 1.06043,0.48893 0.66643,0.66644 0.94107,1.62222 0.85491,2.97527 -0.0527,0.82831 -0.13499,1.079 -0.43333,1.32057 -0.50181,0.40634 -0.71048,0.37765 -1.35233,-0.18591 z m 0.98609,-1.77411 c 0.0769,-0.40357 -0.65821,-1.17211 -0.99681,-1.04217 -0.21624,0.083 -0.25626,0.20975 -0.1721,0.54508 0.0603,0.24033 0.18747,0.5307 0.28256,0.64527 0.23099,0.27832 0.82401,0.17919 0.88635,-0.14818 z m -84.297519,-9.0863 c -1.40572,-0.29781 -1.46422,-0.68799 -0.27454,-1.83108 0.66263,-0.63668 0.89118,-0.97979 0.97065,-1.45719 0.17844,-1.07179 0.43563,-1.55261 1.35039,-2.52457 1.09732,-1.16595 0.78067,-1.01486 -2.06941,0.98734 -2.49051,1.74961 -4.06039,2.56704 -4.45527,2.31985 -0.14555,-0.0911 -0.28016,-0.43012 -0.30934,-0.77907 -0.0704,-0.84194 0.99639,-2.92947 2.14657,-4.20047 0.91639,-1.01263 2.62307,-2.25877 3.09356,-2.25877 0.15365,0 0.55325,0.21766 0.88801,0.4837 0.33477,0.26603 0.66009,0.42779 0.72294,0.35946 0.0628,-0.0683 0.2246,-0.67675 0.35945,-1.35203 0.13486,-0.67528 0.36596,-1.48229 0.51358,-1.79336 0.55809,-1.1761 4.37742,-4.24798 5.28158,-4.24798 0.21231,0 0.38602,0.0476 0.38602,0.10583 0,0.0582 -0.23365,0.47061 -0.51922,0.91644 -0.4646,0.72532 -0.51557,0.91961 -0.48448,1.84684 0.0264,0.78898 -0.0403,1.16337 -0.27958,1.569 -0.42667,0.72315 -0.4021,1.76142 0.0847,3.57835 0.21945,0.81913 0.39918,1.78997 0.3994,2.15743 3.2e-4,0.57418 0.0734,0.71803 0.51963,1.02328 1.07223,0.73346 1.17773,1.27277 0.46773,2.39118 -0.79538,1.25292 -2.12321,2.05377 -4.0729,2.45649 -1.55823,0.32187 -3.81446,0.44106 -4.71944,0.24933 z m 6.16734,-1.77712 c 0.2853,-0.0897 0.62679,-0.31729 0.75886,-0.50585 0.52351,-0.74741 0.13073,-3.82957 -0.79811,-6.26279 -0.72864,-1.90877 -0.81779,-2.42588 -0.5085,-2.94947 0.36642,-0.6203 0.33752,-1.02656 -0.11003,-1.54688 -0.37394,-0.43472 -0.38413,-0.43669 -0.81181,-0.15646 -0.96516,0.6324 -1.63163,3.38169 -0.95574,3.94263 0.43456,0.36065 0.70839,1.06846 0.70839,1.83108 0,1.11908 -0.56645,1.98437 -1.57588,2.40725 -0.49214,0.20618 -0.52906,0.26896 -0.43808,0.74492 0.25465,1.33226 0.28137,1.85243 0.11145,2.16993 -0.19296,0.36054 -0.1736,0.37215 0.94395,0.56649 0.54087,0.0941 2.03886,-0.0408 2.6755,-0.24085 z m -8.95872,-2.25255 c 2.00428,-0.97724 3.06998,-2.26298 3.33377,-4.02205 0.0885,-0.58999 0.0639,-0.73368 -0.12574,-0.73368 -0.50552,0 -4.43359,4.55164 -4.43359,5.13741 0,0.20217 0.0778,0.17793 1.22556,-0.38168 z m 0.49751,-18.52183 c -0.18525,-0.14403 -0.2887,-0.49092 -0.31952,-1.0714 l -0.0456,-0.85841 0.93845,-0.52397 c 0.68497,-0.38244 0.85758,-0.54112 0.63904,-0.58748 -0.24265,-0.0515 -0.19754,-0.11753 0.23799,-0.34854 0.29556,-0.15678 0.8237,-0.38606 1.17365,-0.50953 0.59904,-0.21136 0.64114,-0.20589 0.7194,0.0934 0.0457,0.17483 0.0927,0.31753 0.10443,0.31713 0.0117,-4.6e-4 0.45266,-0.17844 0.97987,-0.39561 1.0099,-0.41602 2.27264,-0.5227 2.80632,-0.23708 0.40554,0.21704 0.39845,0.88419 -0.0166,1.56501 -0.24102,0.39532 -0.66197,0.68868 -1.63695,1.14077 -2.7338,1.26764 -5.02374,1.84859 -5.58047,1.41574 z m 3.14965,-1.10102 c 1.97571,-0.66334 3.11534,-1.26814 3.11534,-1.65332 0,-0.55652 -1.5187,-0.55514 -3.02379,0.003 -1.22983,0.45586 -2.56785,1.49435 -2.56785,1.99302 0,0.43205 0.28831,0.39218 2.4763,-0.34244 z m 50.273889,-5.90332 c -0.54881,-0.33809 -0.64462,-0.83118 -0.17893,-0.92086 0.33125,-0.0638 1.34809,0.63674 1.34809,0.92873 0,0.3587 -0.58044,0.35479 -1.16916,-0.008 z m -6.10335,147.760449 c 7.61305,-1.37621 14.1997,-3.55863 20.97488,-6.94982 7.9118,-3.96011 14.20554,-8.51245 20.49118,-14.82152 6.46636,-6.49048 10.77839,-12.50915 14.77675,-20.62519 3.26529,-6.62802 5.49124,-13.21254 6.77805,-20.05001 0.44433,-2.36089 0.92379,-5.60805 0.84039,-5.69145 -0.029,-0.029 -0.2175,0.46692 -0.41895,1.10196 -0.20148,0.63505 -0.86632,2.59247 -1.47744,4.34985 -0.61112,1.75737 -1.39654,4.36236 -1.74539,5.78888 -0.34884,1.42651 -0.88954,3.33166 -1.20155,4.23367 -0.67531,1.95231 -1.89449,4.59558 -2.11968,4.59558 -0.27483,0 -0.32211,-1.11517 -0.4164,-9.82015 -0.0772,-7.13176 -0.12921,-8.51952 -0.33055,-8.8268 -0.13139,-0.20054 -0.33987,-0.36461 -0.46327,-0.36461 -0.33645,0 -0.86451,-0.75531 -1.04773,-1.49865 -0.43661,-1.77136 -0.46476,-1.82722 -1.01165,-2.00771 -0.29025,-0.0958 -0.77417,-0.43301 -1.07538,-0.74937 -0.3012,-0.31636 -0.7849,-0.67694 -1.07488,-0.80128 -1.8832,-0.807539 -8.33951,-0.459839 -8.33951,0.44912 0,0.35302 0.64254,1.18837 1.43288,1.86283 1.54531,1.31874 1.83376,2.765 0.98196,4.92349 -0.53813,1.36363 -2.15144,3.8719 -3.49284,5.43045 -3.53901,4.11191 -13.73955,11.34751 -16.93267,12.01094 -0.48916,0.10163 -0.60149,0.19501 -0.60149,0.49998 0,0.22622 0.1798,0.50862 0.45319,0.71177 0.3891,0.28913 0.66027,0.33413 1.91714,0.31814 2.27817,-0.029 4.80786,-0.77959 6.92037,-2.0534 0.51369,-0.30977 1.10578,-0.56339 1.31572,-0.56362 0.36192,-3.2e-4 0.37702,0.0392 0.29117,0.76412 -0.16278,1.37451 -1.8718,4.66649 -4.49649,8.66137 -2.32107,3.53276 -4.94114,6.57306 -7.7217,8.96015 -5.12883,4.40306 -8.79475,8.09164 -9.70606,9.76602 -0.37159,0.68272 -0.4438,1.0608 -0.57211,2.99545 -0.15326,2.31058 -0.62276,4.55547 -1.26505,6.04849 -0.57752,1.3425 -1.29141,1.86682 -5.9081,4.33927 -2.68653,1.43875 -3.03546,1.74551 -3.03546,2.66854 0,0.88008 -0.21872,1.09594 -2.08903,2.06193 -0.8146,0.42071 -1.81012,1.01761 -2.21227,1.32644 -0.40215,0.30882 -1.12659,0.80157 -1.60986,1.095 l -0.87869,0.53351 0.71892,-0.0987 c 0.39541,-0.0543 1.90362,-0.31289 3.3516,-0.57464 z m 8.1512,-3.15364 c 0,-0.374 0.29348,-0.7562 2.4165,-3.14696 2.05842,-2.31804 2.37834,-2.58593 5.67765,-4.75415 1.42032,-0.9334 3.00196,-2.0449 3.51474,-2.47 0.51281,-0.42511 1.04941,-0.81693 1.19246,-0.87071 0.61264,-0.23033 0.82462,0.76813 0.35721,1.68248 -0.38283,0.74891 -2.95727,3.48149 -4.92283,5.22524 -3.2219,2.8583 -6.11239,4.63207 -7.54829,4.63207 -0.56436,0 -0.68744,-0.0533 -0.68744,-0.29797 z m 2.44198,-0.58764 c 2.26466,-1.13463 7.8724,-6.1583 9.52985,-8.53725 0.38976,-0.55944 0.60544,-0.95417 0.47928,-0.87717 -1.6053,0.97967 -5.72956,3.62931 -6.50047,4.17624 -0.62168,0.44104 -1.205,1.03079 -1.54446,1.56143 -0.3,0.469 -1.05295,1.26274 -1.67321,1.76389 -1.13103,0.91383 -1.7744,1.72203 -1.7744,2.22898 0,0.32668 0.34884,0.25235 1.48341,-0.31612 z m 46.34683,-42.15982 c -0.22236,-0.57944 1.11668,-4.18434 1.74625,-4.70118 1.06337,-0.87295 -0.154,3.58263 -1.26368,4.62513 -0.34385,0.32303 -0.3853,0.32956 -0.48257,0.0761 z m 1.29876,-2.07133 c 0.14701,-0.38493 0.23901,-0.83352 0.20447,-0.99685 -0.0398,-0.18788 -0.17121,0.0258 -0.35786,0.58171 -0.16227,0.48328 -0.33272,0.98035 -0.37879,1.1046 -0.0503,0.13577 -0.0142,0.18292 0.0906,0.11816 0.0959,-0.0593 0.29461,-0.42269 0.44161,-0.80762 z m -131.240619,21.9618 c -0.25237,-0.47155 -1.94075,-2.53891 -2.87894,-3.52513 -0.45974,-0.48328 -0.76802,-0.77085 -0.68507,-0.63905 0.48555,0.77152 3.5141,4.47331 3.65976,4.47331 0.0384,0 -0.005,-0.13911 -0.0957,-0.30913 z m 96.420249,-24.59911 c -0.49173,-3.0929 -1.34156,-5.41548 -2.83132,-7.73787 -1.06318,-1.65742 -1.73847,-3.14481 -2.36865,-5.21726 -0.62551,-2.05705 -1.10986,-2.92381 -1.91942,-3.43486 -0.80244,-0.50656 -1.33014,-1.42529 -1.94013,-3.37781 -0.83825,-2.683129 -1.69844,-4.051079 -2.54738,-4.051079 -0.42034,0 -0.46508,0.0511 -0.46508,0.53118 0,0.77437 0.63591,2.520829 1.67396,4.597339 1.87561,3.75197 2.62021,5.75512 2.947,7.92825 0.31475,2.09303 1.18188,3.86862 3.76587,7.71124 1.01923,1.51569 2.29905,3.34015 2.84402,4.05436 1.16631,1.52847 1.23135,1.45089 0.84113,-1.00349 z m 14.66293,-19.20346 c 0.58911,-0.26841 0.82856,-0.86568 0.78772,-1.96484 -0.0473,-1.273439 0.072,-1.442749 0.98328,-1.395579 0.81945,0.0424 1.77158,-0.33311 2.0196,-0.79655 0.19381,-0.36213 0.25856,-0.34745 -1.60876,-0.36462 -1.40102,-0.0129 -1.59144,-0.0543 -2.47629,-0.53849 -0.52722,-0.2885 -1.67283,-1.17422 -2.54583,-1.96827 -1.56411,-1.42267 -2.42054,-2.01998 -2.61602,-1.8245 -0.15649,0.15649 0.38975,1.57262 1.51126,3.91791 1.30809,2.735499 2.35617,4.419269 2.99224,4.807119 0.59042,0.36003 0.47665,0.34477 0.9528,0.12782 z M 121.1885,79.890211 c 0.54063,-0.25655 1.00606,-0.90827 0.79756,-1.11677 -0.14104,-0.14103 -1.46207,0.38044 -1.90409,0.75163 -0.30995,0.26029 -0.32758,0.32718 -0.12243,0.46463 0.33615,0.22522 0.58757,0.20487 1.22896,-0.0995 z m 5.86734,0.008 c 0.30238,-0.11604 0.33124,-0.69624 0.053,-1.0657 -0.10984,-0.14585 -0.7022,-0.53824 -1.31636,-0.87197 -0.62598,-0.34016 -1.14072,-0.73173 -1.17141,-0.89113 -0.0301,-0.15638 0.1916,-0.58653 0.4927,-0.95588 1.32626,-1.62679 1.23264,-2.37566 -0.29699,-2.37566 -1.53754,0 -2.03683,1.32038 -1.14749,3.03456 0.58198,1.12174 1.64703,2.36059 2.43604,2.83362 0.74797,0.44841 0.63433,0.41348 0.9505,0.29216 z m 5.12542,-8.90198 c 1.4059,-0.65909 2.93663,-1.32162 3.40162,-1.47228 1.2638,-0.40948 2.69277,-0.24552 5.545,0.63624 1.38728,0.42888 2.87798,0.78115 3.54,0.83656 1.0795,0.0903 1.16678,0.0725 1.55767,-0.31839 0.49088,-0.49089 0.5345,-1.12149 0.12092,-1.74868 -0.16006,-0.24276 -1.26586,-1.39304 -2.45731,-2.55617 -2.13318,-2.0825 -2.84116,-3.04346 -2.84116,-3.85638 0,-0.52287 -0.19391,-0.6206 -1.2313,-0.6206 -0.57977,0 -0.95262,0.0842 -1.12174,0.25333 -0.23127,0.23126 -0.22332,0.32555 0.0913,1.08257 0.34904,0.8399 0.43916,1.66869 0.21909,2.01479 -0.0663,0.10434 -0.31074,0.262 -0.54311,0.35034 -0.78257,0.29753 -1.5342,-0.0695 -2.92778,-1.42976 -1.38313,-1.35004 -2.27776,-1.86287 -2.78045,-1.59385 -1.27399,0.68183 -2.72953,4.06261 -3.27848,7.61498 -0.30294,1.96033 -0.30861,2.19636 -0.0501,2.08877 0.10983,-0.0457 1.34998,-0.62238 2.75588,-1.28147 z M 67.959241,33.321761 c 3.56645,-2.78616 7.6472,-5.24343 9.50386,-5.72287 0.39541,-0.1021 1.11433,-0.42401 1.59761,-0.71535 2.09418,-1.26246 4.19846,-2.08399 5.96942,-2.33054 0.62698,-0.0873 1.66126,-0.31203 2.29841,-0.49944 0.95011,-0.27945 1.12543,-0.38054 0.97481,-0.56204 -0.1428,-0.17206 -0.11618,-0.2716 0.11962,-0.44732 0.41989,-0.31291 2.53317,-1.19328 3.15025,-1.31236 l 0.50802,-0.098 -0.31838,0.38385 -0.31838,0.38385 0.44672,-0.39531 c 0.38671,-0.34221 0.41383,-0.41937 0.20186,-0.57436 -0.21456,-0.15689 -0.20058,-0.22064 0.11296,-0.51519 0.1968,-0.18488 0.84756,-0.59143 1.44615,-0.90343 0.59859,-0.31201 1.04328,-0.56729 0.9882,-0.56729 -0.25599,0 -3.08336,0.85325 -4.95849,1.49639 -5.71076,1.95869 -11.27063,4.61217 -16.37257,7.81391 -1.88754,1.18453 -6.00973,4.11451 -6.93682,4.93056 -0.68788,0.6055 -1.03741,1.25597 -0.67488,1.25597 0.10267,0 1.1204,-0.72945 2.26163,-1.621 z m 80.489849,-8.09098 c -0.46465,-0.39663 -1.68614,-1.17327 -1.48175,-0.94212 0.14781,0.16718 1.82365,1.3737 1.90895,1.37435 0.0439,3.3e-4 -0.14831,-0.19416 -0.4272,-0.43223 z m -57.885589,-2.74938 c 0.21302,-0.13767 0.21302,-0.15487 0,-0.15487 -0.1318,0 -0.34747,0.0697 -0.47928,0.15487 -0.21301,0.13766 -0.21301,0.15486 0,0.15486 0.13181,0 0.34748,-0.0697 0.47928,-0.15486 z m 45.372139,-0.37716 c 0,-0.0317 -0.48247,-0.36966 -1.07215,-0.75102 -0.5897,-0.38136 -1.56978,-1.18219 -2.17798,-1.77961 -0.60818,-0.59743 -1.2041,-1.08624 -1.32424,-1.08624 -0.5321,0 -0.045,0.68153 0.90481,1.26595 0.44487,0.27373 0.76819,0.56349 0.71849,0.6439 -0.0497,0.0804 0.16829,0.3435 0.48443,0.58463 0.8899,0.67877 2.46664,1.39622 2.46664,1.12239 z m -38.981689,-2.88754 c 1.35457,-0.24655 2.07689,-0.49281 2.07689,-0.70807 0,-0.0805 -0.59311,-0.01 -1.31803,0.15675 -0.72491,0.16673 -1.65951,0.38058 -2.07689,0.47521 -1.56917,0.35578 -0.54384,0.41499 1.31803,0.0761 z m 17.493829,-2.16718 c 0.1825,-0.20166 0.21689,-0.31952 0.0932,-0.31952 -0.19887,0 -0.65239,0.38078 -0.65239,0.54775 0,0.19293 0.28229,0.0777 0.55916,-0.22823 z"
       id="path3525"
       sodipodi:nodetypes="csssssscscsscccsssssssssssscssssssscsssssccsssssssssssssssscssssscsscsssscsssccssscsssssccscsssscsssssssssssssssscssssssssssssssssssssssssssssssssssscssssssscsscsssssscssscssssssssssccsssssscsssssssccsscssscsssssscssccscsccsssssscccscsscssssssssssssssssssssssssscsssscccssssssssssssccsssssssssssscssccsccsssscsssssscssccssssssssssssscsssssssscsssssssssscsssssssccscsssscccssscsssssssssssscssccssssssssssssssssssssssssssssccsssssscsscscsscssscsssscssssssssccssscscscscsscccssssccscsccsscssscsscssssssssscsssccscssssscssssssssssccscssssccscssscsssssscscscccssccssssssssssscssssscssssssssscssssssssssscsssssssssssscscsssscsssssscssssscsssccssssssssssssssssssssssssssssssssscssssscsscssssssscsscsscccssssssccccsssssssssccsssscssscsssssssssssssssssss" />
    <path
       style="fill:none;stroke:#e6e6e6;stroke-width:0.264583px;stroke-linecap:butt;stroke-linejoin:miter;stroke-opacity:1"
       d="m 60.497269,117.85454 c 0,0 23.654642,-2.72133 30.981301,-2.30266 7.326659,0.41866 19.46798,5.44266 25.11997,5.44266 5.652,0 11.72266,-9.00132 22.81731,-1.46533 11.09466,7.53599 15.3094,8.70982 14.23465,13.18798 l -2.51199,10.46666"
       id="path1356"
       sodipodi:nodetypes="cssssc" />
    <path
       style="fill:none;stroke:#e6e6e6;stroke-width:0.264583px;stroke-linecap:butt;stroke-linejoin:miter;stroke-opacity:1"
       d="m 141.49157,79.792451 c 13.41493,1.847463 22.62559,14.407448 22.62559,14.407448"
       id="path1358" />
    <path
       style="fill:none;stroke:#e6e6e6;stroke-width:0.264583px;stroke-linecap:butt;stroke-linejoin:miter;stroke-opacity:1"
       d="m 111.78388,26.585307 c 0,0 3.14,-0.209335 7.32666,0.418666 4.18666,0.627999 8.37333,1.465331 8.37333,1.465331"
       id="path1360" />
    <path
       style="fill:#ffff00;stroke:#e6e6e6;stroke-width:0.79118;stroke-opacity:1"
       d="m 442.3059,474.87578 c -0.0202,-0.34296 1.60122,-7.28557 3.60305,-15.42802 3.9727,-16.15895 4.50433,-22.0282 2.36802,-26.14373 -2.17311,-4.18643 -8.01401,-9.29322 -18.6666,-16.32049 -47.02635,-31.0222 -48.77641,-31.96581 -62.50324,-33.70109 -10.57929,-1.33739 -19.63184,0.89597 -37.2726,9.19555 -13.21223,6.21605 -18.8888,7.78994 -25.51423,7.07405 -7.4262,-0.8024 -20.283,-3.80148 -42.452,-9.90269 -31.44697,-8.65462 -36.75878,-9.6595 -53.34353,-10.09142 -18.16947,-0.4732 -53.69243,1.96043 -95.72358,6.55789 -8.89453,0.97291 -11.14877,1.01089 -11.69651,0.19707 -0.37317,-0.55446 -0.56471,-10.0869 -0.42565,-21.1832 0.24599,-19.62858 0.31185,-20.34656 2.43106,-26.50454 2.59783,-7.54877 8.04462,-15.8323 17.94814,-27.29572 8.99548,-10.41235 14.4607,-18.44838 16.23786,-23.87602 3.11635,-9.51775 8.67462,-17.30938 16.49047,-23.1165 4.47069,-3.32169 4.92732,-3.4749 11.8677,-3.98186 3.96996,-0.28998 13.27064,-1.7403 20.66818,-3.22292 18.81162,-3.77024 31.26717,-4.83956 51.96359,-4.46112 7.9467,0.1453 8.5617,0.7559 8.5617,8.5004 0,7.60789 1.08399,10.02775 6.90622,15.41706 3.94313,3.64994 8.53316,6.32079 26.27646,15.28976 17.92566,9.06116 21.69781,10.70207 22.6966,9.87315 0.65882,-0.54677 4.43793,-4.84594 8.39802,-9.5537 3.96009,-4.70776 7.47793,-8.55956 7.81743,-8.55956 0.3395,0 5.1739,1.44908 10.74311,3.22019 18.58562,5.91054 24.87365,7.19163 37.48527,7.63708 13.18601,0.46574 21.50339,-0.59275 25.42523,-3.23568 6.83069,-4.60321 12.48498,-23.77526 11.37553,-38.57114 l -0.51129,-6.81856 4.17425,0.74027 c 6.59066,1.1688 19.58576,5.7495 27.23263,9.59935 13.79771,6.94651 28.68698,18.01234 40.80936,30.32985 l 5.3204,5.40603 -3.49126,0.0747 c -4.71116,0.10081 -7.54512,2.03074 -7.54512,5.13822 0,2.92948 0.45954,3.83672 6.84978,13.52305 2.7792,4.21271 5.61047,9.01913 6.29174,10.68094 1.68606,4.11283 10.07929,19.2109 10.68878,19.22739 0.26977,0.007 4.50959,-3.44079 9.42184,-7.66244 l 8.93135,-7.67572 3.05649,3.52203 c 1.68106,1.93711 4.62597,5.50744 6.54424,7.93407 l 3.48776,4.41207 -3.36761,7.47667 c -4.02117,8.92771 -7.61808,14.67621 -12.70352,20.30251 -11.27282,12.47172 -49.55087,38.16323 -56.8598,38.16323 -2.75251,0 -3.70292,-2.00735 -3.70292,-7.82085 0,-9.49377 -1.93854,-14.94572 -9.72309,-27.34516 -4.60683,-7.33791 -9.05616,-16.69419 -11.58663,-24.36499 -1.40391,-4.25577 -2.66768,-6.2589 -6.24654,-9.90106 -3.5593,-3.62225 -4.88017,-5.70817 -6.39113,-10.09286 -4.44019,-12.8851 -8.82212,-18.82343 -16.47534,-22.32719 -5.91645,-2.70865 -10.10306,-3.18649 -12.09827,-1.38085 -3.54287,3.20626 -1.41856,9.55165 8.5396,25.50805 6.56252,10.51543 9.88839,18.48364 14.44409,34.60559 3.74995,13.2705 5.61556,17.93226 9.78458,24.44948 3.76362,5.88348 27.9201,38.83908 29.32176,40.00235 0.83554,0.69344 4.29605,0.15094 14.80415,-2.32082 7.54254,-1.77418 14.33713,-3.41942 15.09907,-3.65609 1.2195,-0.37879 1.28438,-0.16342 0.54196,1.79901 -3.83819,10.14556 -11.75208,23.36871 -19.80113,33.08534 -5.96543,7.20134 -16.45887,18.37356 -16.50588,17.57358 z"
       id="path5555"
       transform="matrix(0.26458333,0,0,0.26458333,35,15)" />
    <path
       style="fill:#008000;stroke:#e6e6e6;stroke-width:0.79118;stroke-opacity:1"
       d="m 571.93426,374.42607 c -0.0487,-16.20931 -0.31572,-32.85019 -0.59338,-36.97975 -0.44046,-6.55086 -0.69815,-7.54513 -2.02092,-7.79735 -0.90479,-0.17251 -2.09399,0.46231 -2.94934,1.57443 l -1.43324,1.8635 -0.0176,-2.69385 c -0.0195,-2.98483 -2.683,-5.96046 -10.86522,-12.13847 l -4.45645,-3.36483 -12.32527,-0.52343 c -6.77891,-0.28789 -13.33042,-0.55491 -14.55892,-0.59338 -1.56326,-0.049 -3.10674,-1.04337 -5.14267,-3.31323 l -2.90904,-3.24328 -4.6382,0.5235 c -7.94671,0.89689 -12.6275,-2.29066 -34.12963,-23.2418 -10.8579,-10.57967 -15.37283,-14.34136 -25.15037,-20.95445 -13.44667,-9.09472 -27.7577,-15.41021 -41.20647,-18.18449 -5.29227,-1.09172 -7.60845,-1.15298 -15.42801,-0.40809 -14.56869,1.38782 -26.68582,1.24088 -31.51483,-0.38216 -6.38973,-2.1476 -10.50109,-7.95239 -10.51562,-14.84691 -0.009,-4.26595 9.36499,-9.93618 24.79132,-14.99603 8.60319,-2.82186 12.05227,-2.8586 22.51113,-0.23983 6.51991,1.63252 9.61248,1.99454 15.06288,1.7633 7.87035,-0.33391 10.78056,-1.4929 13.35623,-5.31913 3.0783,-4.5729 2.53514,-6.15011 -4.2511,-12.34409 -14.571,-13.29936 -15.83443,-14.78726 -17.60519,-20.73316 -0.90394,-3.03526 -2.3873,-6.19177 -3.29636,-7.01445 -2.11481,-1.91388 -6.88053,-1.84376 -10.2854,0.15134 -2.61327,1.53125 -5.87066,6.84567 -6.68975,10.91431 l -0.46432,2.30637 -1.61517,-2.70196 c -5.77006,-9.65252 -11.7561,-10.16086 -19.80018,-1.68145 -4.75659,5.01401 -8.8863,10.74218 -10.20135,14.14985 -0.4745,1.22958 -1.20053,5.79592 -1.61341,10.14741 -0.9437,9.94601 -1.49167,10.55854 -12.29685,13.74568 -4.42289,1.3046 -9.45155,3.09129 -11.1748,3.97042 -3.22354,1.64453 -6.85698,5.39418 -8.30361,8.5692 -0.45148,0.99089 -1.03075,1.78641 -1.28726,1.76784 -0.25651,-0.0186 -2.47265,-2.77781 -4.92476,-6.13165 -5.94528,-8.13158 -18.46209,-22.61718 -26.87699,-31.10452 -13.08864,-13.20132 -20.91237,-17.30276 -22.92219,-12.01654 -1.7673,4.64835 1.93637,14.15591 8.57004,21.9999 2.20379,2.60586 6.37251,7.53742 9.26382,10.95902 2.8913,3.4216 5.09584,6.38216 4.89896,6.57904 -0.63632,0.63632 -9.47249,-4.21599 -14.75931,-8.10496 -2.82847,-2.08062 -9.14793,-7.5485 -14.04324,-12.15085 -9.81251,-9.22529 -13.19426,-11.27147 -17.0848,-10.33742 -1.37342,0.32973 -6.49679,1.51873 -11.38526,2.64221 -10.23044,2.3512 -12.78844,3.49223 -15.36484,6.8537 -4.65265,6.07038 -6.92633,8.38968 -12.88317,13.14169 -3.50832,2.79872 -9.06328,8.37212 -12.34435,12.38534 -9.17,11.2162 -17.06495,15.49124 -26.95278,14.59464 -7.59727,-0.6889 -15.73923,-6.08641 -15.73923,-10.43394 0,-2.78239 8.5848,-29.91882 9.87235,-31.20637 1.03363,-1.03363 2.40108,-1.02114 11.67063,0.10654 12.79716,1.55683 17.11584,1.00246 20.9209,-2.68556 3.64574,-3.53358 5.00839,-8.22663 4.99921,-17.21755 -0.007,-6.39936 -0.31308,-8.22901 -1.97795,-11.80533 -2.31182,-4.96605 -2.39824,-5.65749 -0.70706,-5.65749 0.69473,0 2.82734,-1.37685 4.73913,-3.05968 2.03345,-1.78991 5.03887,-3.48271 7.24203,-4.07906 4.96408,-1.34366 7.33862,-2.57647 13.02394,-6.76176 2.60469,-1.91747 6.11314,-3.89896 7.79655,-4.40332 1.99845,-0.59875 5.06261,-2.86749 8.82867,-6.53682 4.87903,-4.75375 6.89469,-6.08898 13.07936,-8.66428 6.72259,-2.79929 10.46234,-5.58663 11.44308,-8.52886 0.22169,-0.66505 1.6119,-0.34436 4.62497,1.06687 9.26867,4.34119 21.46234,5.11453 28.55823,1.81121 2.32775,-1.08362 5.31177,-1.9737 6.63118,-1.97795 3.83009,-0.0123 10.35839,-1.97368 13.31691,-4.00089 4.05272,-2.77696 5.45053,-5.60457 4.82677,-9.76401 -0.67244,-4.48418 0.2629,-5.02057 5.59451,-3.20829 3.63556,1.23576 4.39118,1.27931 5.54743,0.3197 1.14202,-0.94779 1.26215,-2.05302 0.81806,-7.526266 l -0.52054,-6.415334 2.9973,-0.892671 c 3.5855,-1.067852 11.7893,-2.270487 20.2176,-2.963794 8.72631,-0.717823 10.35106,-2.804739 6.54469,-8.406326 -2.46408,-3.626215 -9.42476,-7.314567 -11.60353,-6.148522 -0.81429,0.435794 -1.50777,1.224865 -1.54106,1.753491 -0.15604,2.477507 -0.71265,4.022752 -1.66703,4.627927 -0.57286,0.36326 -6.61097,0.665924 -13.41801,0.672588 -10.56318,0.01034 -12.4468,-0.171239 -12.85668,-1.239364 -1.27328,-3.318099 0.16586,-7.9146 5.05787,-16.154487 3.49206,-5.881872 4.08472,-8.167206 2.64941,-10.216387 -0.87447,-1.248493 -2.0051,-1.651317 -4.63484,-1.651317 -4.7637,0 -7.00207,1.199589 -9.05538,4.852949 -0.96062,1.709194 -3.6286,5.143831 -5.92885,7.632526 -8.61042,9.315819 -9.4989,11.811117 -7.01322,19.69662 l 1.33474,4.234273 -3.19974,4.538249 c -1.75985,2.496037 -4.15171,6.417416 -5.31523,8.714176 -1.66905,3.294649 -2.86849,4.541759 -5.68354,5.909419 -4.75439,2.30986 -5.66673,1.62883 -8.83694,-6.596506 -5.30791,-13.771752 -5.67762,-14.048247 -13.70584,-10.250296 -2.80038,1.324794 -5.67107,2.408996 -6.3793,2.40934 -3.83038,0.0018 -3.87975,-6.716345 -0.10048,-13.673856 2.41721,-4.450028 6.44704,-7.447056 13.61283,-10.124021 5.2511,-1.961683 6.9099,-3.34398 8.44997,-7.041467 1.39042,-3.338163 5.36267,-7.588327 11.65502,-12.470421 l 4.63834,-3.598785 10.39409,0.471344 c 5.86789,0.266093 16.59555,1.545086 24.63533,2.937118 7.83268,1.356176 15.40177,2.666982 16.8202,2.912902 1.41842,0.245921 4.08866,1.766007 5.93385,3.37797 5.81999,5.084352 10.24907,7.93617 12.32542,7.93617 3.01195,0 7.003,-3.123178 9.0431,-7.076631 1.35594,-2.627643 2.44838,-3.68057 4.32259,-4.166225 3.24919,-0.841949 3.86328,-1.941021 2.14525,-3.839424 -0.76279,-0.842879 -0.99669,-1.532506 -0.51978,-1.532506 0.47691,0 1.08715,0.356031 1.35608,0.79118 1.02959,1.665901 7.51622,0.687666 7.51622,-1.133504 0,-0.530315 0.87594,-1.787108 1.94652,-2.792873 1.58215,-1.486349 2.53719,-1.749439 5.1019,-1.405439 2.03505,0.272958 3.66143,0.03947 4.58071,-0.657629 0.78394,-0.594469 2.76046,-1.092176 4.39227,-1.106015 2.12588,-0.01803 2.96692,-0.368618 2.96692,-1.236764 0,-2.056225 2.02273,-2.149803 8.75397,-0.404984 3.56359,0.923728 6.66284,1.495937 6.88719,1.271575 0.22437,-0.224362 -0.0878,-1.008479 -0.69378,-1.742483 -1.73101,-2.096833 0.25836,-1.102388 5.63081,2.814737 3.06886,2.237544 4.45897,3.704286 3.86102,4.073847 -2.21323,1.367848 1.68597,4.47878 7.39843,5.902752 3.64209,0.907884 3.71367,-1.572547 0.15066,-5.221396 -3.56913,-3.655123 -3.25379,-3.809698 2.16755,-1.062497 2.68614,1.361173 4.21575,1.75944 4.56805,1.189395 1.0847,-1.755073 25.13385,13.80118 41.97649,27.15259 12.82868,10.169489 36.41165,33.749102 46.51163,46.505012 33.76481,42.64372 54.83568,92.51827 62.27581,147.4062 1.73939,12.83198 2.56615,51.46059 1.24511,58.1753 -1.25841,6.39638 -4.29539,16.1753 -10.27597,33.08804 -2.66986,7.55022 -6.09292,18.73143 -7.60681,24.84715 -3.15527,12.74653 -5.81376,21.95047 -6.34021,21.95047 -0.19915,0 -0.40194,-13.26216 -0.45065,-29.47146 z M 491.17985,244.5508 c 3.6047,-3.54476 3.77319,-7.83572 0.77967,-19.8556 -1.00016,-4.01595 -1.41064,-7.55535 -1.12302,-9.68336 0.75906,-5.61618 -2.23552,-10.5661 -8.27102,-13.67163 -3.42016,-1.75981 -8.00562,-6.69851 -10.18402,-10.96853 -1.59812,-3.13259 -1.5983,-3.15476 -0.0517,-6.56289 3.75436,-8.27291 -0.0878,-16.51627 -7.67042,-16.45679 -7.44115,0.0584 -16.06067,9.11276 -16.06067,16.87097 0,3.67731 1.55091,7.11412 8.00057,17.72919 8.42371,13.86402 9.40412,16.0856 9.41411,21.33217 0.015,7.90716 0.74651,10.29832 4.39001,14.35076 8.07023,8.97604 15.99787,11.61486 20.77646,6.91571 z m 13.9404,-54.53472 c 2.12158,-1.55133 2.58678,-8.32536 0.87886,-12.79747 -1.34642,-3.52557 -4.42448,-6.71926 -6.47598,-6.71926 -2.5052,0 -4.2448,3.05917 -4.2448,7.46471 0,5.1622 0.98297,8.02065 3.75867,10.93023 2.2969,2.40768 3.9163,2.7063 6.08325,1.12179 z"
       id="path5557"
       transform="matrix(0.26458333,0,0,0.26458333,35,15)" />
    <path
       style="fill:#008000;stroke:#e6e6e6;stroke-width:0.79118;stroke-opacity:1"
       d="m 293.22433,593.79498 c -2.72536,-2.83627 -6.80912,-7.91596 -9.07502,-11.2882 -2.2659,-3.37224 -5.12495,-7.28858 -6.35343,-8.70298 -1.22849,-1.4144 -2.64185,-3.34931 -3.14082,-4.29978 -1.2874,-2.45239 -1.12411,-10.61394 0.27957,-13.97343 4.23332,-10.13177 -2.7392,-27.12098 -18.07134,-44.03254 -5.37155,-5.92489 -7.90673,-11.85161 -10.67814,-24.96323 -3.56487,-16.86554 -3.27379,-16.41282 -12.384,-19.26051 -4.19539,-1.31141 -10.71989,-4.09162 -14.49888,-6.17824 l -6.87088,-3.79387 -14.63684,0.39505 c -8.05026,0.21728 -21.93547,0.39529 -30.85603,0.39559 -15.8294,5.3e-4 -16.32497,-0.0491 -20.62015,-2.06353 -8.00297,-3.75342 -14.11074,-10.48562 -26.4803,-29.18755 -6.18792,-9.35571 -12.35675,-18.9863 -13.70852,-21.40131 -2.19247,-3.91697 -5.54212,-15.36476 -4.73263,-16.17426 0.38734,-0.38733 43.17584,-4.69882 63.16806,-6.36498 21.60285,-1.8004 48.12989,-2.37628 56.20916,-1.22025 8.39698,1.20149 24.29527,5.0082 44.48788,10.65225 19.10033,5.33874 31.61464,8.188 38.94968,8.86807 7.51423,0.69669 12.69143,-0.74047 27.0917,-7.52049 15.88965,-7.48127 21.79326,-9.03799 32.56933,-8.58822 14.33967,0.59851 15.79038,1.2918 51.83216,24.77074 20.13781,13.1185 28.69414,19.80274 30.96142,24.18719 1.91794,3.70888 1.31088,9.33382 -2.88248,26.70898 l -4.02369,16.6721 -13.29226,12.38091 c -15.17768,14.13709 -22.59115,22.22915 -24.67499,26.93362 -0.79667,1.79856 -1.82888,6.07094 -2.29382,9.49417 -1.33121,9.80153 -3.88648,20.08748 -6.13602,24.69984 -2.51251,5.15154 -5.07437,7.33596 -15.01724,12.80477 -14.34772,7.89157 -15.11486,8.47819 -17.42577,13.3253 -1.93832,4.06561 -2.86727,4.9424 -10.82329,10.21562 -15.02044,9.95548 -14.01068,9.52756 -24.56106,10.40872 -5.20283,0.43454 -13.48639,0.8952 -18.40792,1.02369 l -8.94823,0.23363 z"
       id="path5559"
       transform="matrix(0.26458333,0,0,0.26458333,35,15)" />
    <path
       style="fill:#000080;stroke:#e6e6e6;stroke-width:0.79118;stroke-opacity:1"
       d="m 277.30817,597.67609 c -33.21512,-3.36541 -60.68324,-10.19355 -89.321,-22.20374 C 155.83863,561.98978 128.3605,544.12609 100.82183,518.80568 89.716349,508.59474 86.806032,505.31023 81.377456,496.86121 78.085856,491.73818 75.306411,488.28407 60.285089,470.64897 53.75251,462.97969 46.509761,451.17648 38.46095,435.08305 22.886666,403.9426 12.913289,370.15377 8.7153929,334.30803 7.3682688,322.80496 7.6123361,280.45851 9.0917936,269.00129 15.532972,219.11951 29.972917,179.81023 56.610393,139.64332 68.379512,121.89654 79.877408,107.95802 96.095415,91.776912 108.11693,79.782743 110.40899,77.816314 110.62175,79.314316 c 0.33252,2.341145 0.75833,2.099848 14.69686,-8.32827 15.32706,-11.466953 20.6026,-14.771535 31.25302,-19.576775 5.04907,-2.278031 12.3025,-5.629696 16.11875,-7.448144 4.51662,-2.15218 10.45428,-4.102753 17.01037,-5.588063 5.53947,-1.254987 11.49588,-2.789761 13.23647,-3.410609 3.70717,-1.322298 13.72198,-7.14448 20.80639,-12.09595 2.74053,-1.915424 5.79442,-3.482588 6.78642,-3.482588 1.85853,0 9.65311,-2.94828 14.99562,-5.672053 5.08405,-2.592004 30.86624,-6.1956514 44.32663,-6.1956514 5.19374,0 5.91125,0.1804254 6.27682,1.5783676 0.67981,2.5995928 2.80403,2.8005188 5.21251,0.4930411 2.00055,-1.9166421 2.40325,-2.0127483 4.85395,-1.1584289 2.0317,0.7082547 2.74612,0.7104877 2.97984,0.00931 0.6146,-1.8437965 25.34021,-0.2231732 41.27129,2.7050976 7.25651,1.33381 8.23621,1.922907 18.42984,11.081992 8.58992,7.718137 18.4057,11.486913 18.4057,7.066884 0,-1.062075 -1.22238,-2.209724 -3.81127,-3.578254 -3.93618,-2.080735 -12.77515,-9.391542 -12.13209,-10.034594 0.19986,-0.199863 4.04689,0.62357 8.54896,1.829852 6.95953,1.864734 9.28073,2.939639 15.49725,7.176508 7.90611,5.388414 10.54323,6.381573 6.92957,2.609728 -1.2507,-1.305448 -1.99516,-2.373541 -1.65437,-2.373541 1.01856,0 14.0338,7.268218 13.66882,7.633201 -0.18514,0.185131 -2.20934,-0.40156 -4.49824,-1.303759 -3.85828,-1.520793 -6.46804,-1.552593 -4.03546,-0.04917 0.6956,0.429907 -0.0827,0.765074 -2.25837,0.972559 -2.4037,0.229229 -4.12198,-0.155253 -6.22697,-1.393338 -1.59896,-0.94046 -3.70828,-1.955509 -4.68737,-2.255664 -2.67092,-0.818814 -2.28523,1.467043 0.59339,3.516797 1.30545,0.929561 2.37354,2.377929 2.37354,3.218596 0,1.79173 -0.0821,1.804437 -4.02605,0.622815 -3.71571,-1.113255 -6.42349,0.328353 -8.39935,4.47179 l -1.28634,2.697487 -2.62518,-2.304934 c -4.0923,-3.593095 -11.35439,-5.146435 -11.35439,-2.428675 0,0.433665 1.06809,2.004973 2.37354,3.491795 2.40081,2.734378 3.02009,4.472369 1.59359,4.472369 -0.42898,0 -1.72644,1.43023 -2.88325,3.178289 -1.2902,1.949618 -2.90028,3.338101 -4.16492,3.591687 -1.1339,0.227369 -3.10344,0.952765 -4.37676,1.61199 -2.22425,1.151538 -2.40605,1.107667 -4.63124,-1.117513 l -2.3161,-2.316105 6.21359,-0.578737 c 7.93736,-0.739289 9.14583,-1.3715 8.83114,-4.619972 -0.21993,-2.270306 -0.86752,-2.843961 -6.5649,-5.815347 -3.47649,-1.813118 -10.4191,-4.60551 -15.42801,-6.205315 -5.00892,-1.599805 -10.88728,-3.620886 -13.06302,-4.491292 -9.4441,-3.778101 -11.76567,-4.048872 -19.14315,-2.232713 -7.30111,1.797357 -17.13081,6.79518 -19.45745,9.892965 -0.77831,1.036286 -3.62656,3.381201 -6.32944,5.210922 -9.25055,6.262194 -14.89245,11.255825 -15.36037,13.59544 -0.34704,1.735204 -1.37411,2.655991 -4.73723,4.247002 -8.83451,4.179391 -19.16789,14.090219 -20.79361,19.943315 -1.12079,4.035201 -1.03169,13.832211 0.13642,15.000325 1.33542,1.335418 7.22412,1.17984 12.61702,-0.333332 2.51443,-0.705511 5.07847,-1.08826 5.69791,-0.850566 0.62436,0.239593 1.92232,3.445717 2.91275,7.194913 2.98924,11.31549 5.74959,14.137 11.79342,12.05473 7.92108,-2.72903 15.11624,-9.01159 16.60641,-14.500156 0.44975,-1.656471 1.85176,-3.982074 3.11559,-5.168014 3.2324,-3.033187 3.82754,-6.975092 1.67622,-11.102478 -2.17509,-4.173008 -1.6863,-6.846995 2.41014,-13.184983 3.46231,-5.356869 12.31481,-14.887161 13.0995,-14.10247 0.27198,0.271977 -1.41216,3.799026 -3.74252,7.837886 -5.56749,9.649274 -5.69663,12.818211 -0.79403,19.48328 1.82945,2.487119 4.38666,6.65822 5.68271,9.269115 l 2.35644,4.747082 -2.57635,0.221997 c -1.41699,0.122095 -3.37386,0.625396 -4.3486,1.118436 -2.21281,1.119291 -4.63588,6.183625 -5.31978,11.118605 -0.32327,2.33266 -1.02696,4.01543 -1.85691,4.44053 -0.73503,0.37646 -4.17506,0.91361 -7.64453,1.19366 -4.65005,0.37533 -8.00276,1.23702 -12.7553,3.27828 l -6.44717,2.76911 -5.04626,-1.18949 c -2.77544,-0.65421 -6.06101,-1.38417 -7.30125,-1.62213 l -2.255,-0.43265 0.54208,-6.12379 c 0.4733,-5.34685 0.35028,-6.36066 -0.96969,-7.99075 -1.27256,-1.57154 -1.96033,-1.7828 -4.34668,-1.33512 -5.55297,1.04174 -9.30845,7.29169 -9.30845,15.49131 0,2.79077 -0.29408,3.33958 -2.17575,4.06042 -6.30402,2.41498 -14.26804,6.91512 -22.92671,12.95492 -5.32094,3.71159 -9.84961,6.74835 -10.0637,6.74835 -0.21409,0 0.49008,-1.2958 1.56484,-2.87954 2.57062,-3.78802 2.47845,-6.38186 -0.33208,-9.34609 -1.72239,-1.81658 -2.61603,-3.9721 -3.6237,-8.74065 -2.15657,-10.20542 -2.32012,-13.34831 -0.91002,-17.48672 0.70491,-2.06879 1.284,-5.21115 1.28686,-6.983014 0.003,-1.88293 0.65839,-4.207845 1.57715,-5.595116 2.06112,-3.112179 1.99257,-4.351492 -0.2407,-4.351492 -2.64486,0 -8.80326,4.163911 -14.98506,10.131942 -5.42597,5.23833 -6.10503,6.5365 -8.07207,15.43142 l -0.49172,2.22355 -2.81696,-1.74098 c -2.65048,-1.63808 -2.96901,-1.66847 -5.38969,-0.51413 -1.41499,0.67477 -4.76267,3.25435 -7.43928,5.73242 -8.45101,7.82414 -13.39599,20.86972 -8.19048,21.60768 2.19385,0.31102 8.0782,-2.65161 15.55698,-7.83253 3.03163,-2.10017 5.60748,-3.72309 5.72409,-3.60649 0.1166,0.11662 -0.49467,1.59813 -1.35839,3.29227 -0.86371,1.69413 -1.57039,3.70514 -1.57039,4.4689 0,0.76377 -1.60214,3.19259 -3.56031,5.39739 -1.95818,2.2048 -3.56032,4.34465 -3.56032,4.75525 0,1.16138 3.2637,2.92705 6.43648,3.48216 2.62001,0.4584 12.78605,-0.34496 18.53448,-1.46467 1.38677,-0.27012 0.0902,0.6717 -3.2135,2.33425 -3.04604,1.5329 -6.74801,3.67123 -8.2266,4.75185 -1.47859,1.08062 -3.50258,1.96476 -4.49778,1.96476 -2.35374,0 -6.06934,1.42596 -6.82912,2.62084 -1.28856,2.0265 -0.49242,5.65895 2.34533,10.70068 2.78564,4.94915 2.96693,5.68426 2.96693,12.03105 0,8.49857 -1.14387,10.62896 -6.0866,11.33596 -1.87416,0.26808 -9.10406,0.85419 -16.06645,1.30248 -6.96239,0.44829 -13.22801,0.99136 -13.9236,1.20682 -2.07845,0.6438 -9.39635,28.585 -9.62239,36.7402 -0.15033,5.42351 1.03714,7.56714 6.36299,11.48661 9.44291,6.94934 16.97348,7.52925 28.14752,2.16758 10.61045,-5.09126 13.47156,-7.38786 17.23794,-13.83678 5.11871,-8.76444 14.13124,-16.80109 27.97134,-24.94259 5.50956,-3.24102 17.66594,-7.32338 21.64817,-7.26989 3.29154,0.0442 5.02973,1.39048 13.89093,10.75886 4.57397,4.83576 10.19787,9.96765 12.49755,11.4042 7.53849,4.70906 8.53334,5.99092 8.52832,10.9887 -0.006,5.20835 -1.1461,9.78297 -2.77747,11.13688 -0.96971,0.80478 -1.71963,0.40918 -4.33706,-2.28791 -2.30599,-2.37615 -3.80133,-3.26094 -5.51122,-3.26094 -2.67608,0 -4.37173,2.28098 -3.57104,4.80373 1.20888,3.80887 8.2353,7.97339 13.58934,8.05434 3.19138,0.0483 3.87147,-0.31754 7.85898,-4.22688 7.42476,-7.27921 15.29675,-20.13645 15.31916,-25.02064 0.008,-1.75139 -4.8354,-6.51114 -11.16375,-10.97085 -8.67682,-6.11472 -16.34399,-15.81519 -17.72613,-22.42702 l -0.56693,-2.71208 3.0607,2.43644 c 5.27726,4.20093 21.19231,21.35945 27.7219,29.88787 1.33266,1.74059 3.60583,5.27065 5.05151,7.84456 1.44568,2.57391 4.65113,6.84629 7.12321,9.49416 3.87304,4.14844 4.44442,5.15242 4.13111,7.25879 -0.26783,1.80066 0.14336,3.03383 1.56124,4.68221 l 1.92482,2.23775 14.92106,0.69256 c 13.05161,0.6058 15.25845,0.90108 17.61395,2.35686 2.61263,1.6147 3.19143,1.64427 19.42179,0.9923 9.20089,-0.36961 18.86508,-0.68894 21.47598,-0.70963 l 4.74708,-0.0377 -0.0294,3.9559 c -0.0385,5.17529 -3.26138,18.40846 -5.40477,22.19205 -3.42676,6.04907 -4.24859,6.29121 -21.32826,6.28428 -19.9093,-0.008 -33.04694,-2.10781 -44.28528,-7.07794 -7.84072,-3.46753 -9.18009,-3.08689 -17.51698,4.97829 -3.97559,3.84603 -8.20721,7.23846 -9.4036,7.53873 -3.17401,0.79663 -7.1983,-0.53534 -17.42347,-5.76685 -11.00455,-5.63026 -19.65909,-11.09469 -23.65814,-14.93765 -2.89924,-2.78607 -2.96693,-2.98341 -2.96693,-8.64981 0,-8.9294 -2.50773,-13.14216 -9.09857,-15.28477 -4.17751,-1.35807 -20.57452,-2.06779 -32.43839,-1.40406 -9.38715,0.52517 -14.95449,1.49537 -26.50454,4.61879 -3.33441,0.90171 -10.94602,1.96095 -17.37529,2.41796 -14.31609,1.01763 -16.50997,1.9173 -24.5056,10.04938 -7.84036,7.97415 -12.85225,15.64121 -15.42484,23.59651 -2.41368,7.46389 -4.79772,11.37937 -11.38746,18.70241 -5.95038,6.61254 -13.1713,16.11542 -16.99559,22.36654 -6.448012,10.53985 -7.985243,18.85493 -7.971572,43.11933 0.0144,25.49719 0.497534,27.36197 11.355532,43.8268 3.12627,4.7406 7.65003,12.03924 10.05279,16.21919 5.64537,9.82094 9.24188,14.45718 16.86411,21.73941 13.2334,12.64312 16.63919,13.51437 52.137,13.33729 l 26.41835,-0.13178 11.9539,4.0241 c 6.57464,2.21324 12.54843,4.33561 13.27509,4.71637 1.68901,0.88499 2.60953,3.78344 4.62099,14.55007 3.0034,16.0761 3.98785,18.4326 10.79839,25.84832 11.28096,12.28337 16.06312,20.24923 17.81654,29.67775 0.74706,4.01713 0.62955,5.78096 -0.82611,12.39989 -0.95805,4.35624 -1.47413,8.64557 -1.18513,9.84991 0.79043,3.29386 15.12033,22.93776 20.45088,28.03476 l 4.7594,4.55088 -4.35149,-0.10117 c -2.39332,-0.0556 -7.19974,-0.38976 -10.68093,-0.74248 z M 244.53615,230.41243 c 3.57429,-2.40872 6.41852,-6.71705 5.82101,-8.81748 -0.25767,-0.90576 -1.53721,-2.64635 -2.84343,-3.86798 -2.97032,-2.77795 -6.53687,-2.6738 -8.71255,0.25442 -2.16522,2.91412 -2.79829,9.69797 -1.14105,12.22724 1.62267,2.47651 3.42431,2.52991 6.87602,0.2038 z M 186.2298,62.078735 c 12.85353,-3.970052 18.68537,-7.951371 18.68537,-12.756248 0,-3.951447 -4.74344,-4.604975 -12.85668,-1.771328 -1.6907,0.590499 -2.96692,0.711006 -2.96692,0.280152 0,-1.902934 -8.3772,0.639051 -9.20366,2.792767 -0.2375,0.618918 -1.64613,1.84177 -3.13029,2.717447 -2.90552,1.714299 -3.48569,4.219064 -1.92688,8.319031 0.97928,2.575713 4.04915,2.688332 11.39906,0.418179 z M 382.93074,36.451717 c 0,-1.475412 -3.75592,-4.408916 -5.64497,-4.408916 -2.07594,0 -1.89327,2.782489 0.28275,4.306629 2.21355,1.55043 5.36222,1.610492 5.36222,0.102287 z"
       id="path5561"
       transform="matrix(0.26458333,0,0,0.26458333,35,15)" />
    <path
       style="fill:#000080;stroke:#e6e6e6;stroke-width:0.79118;stroke-opacity:1"
       d="m 346.95214,593.21317 c 1.75166,-1.29228 6.12658,-4.04638 9.72205,-6.12025 7.74348,-4.46644 8.85058,-5.46626 8.85058,-7.99299 0,-3.11272 3.75649,-6.27437 14.36351,-12.08906 13.56459,-7.43601 16.99882,-9.92018 18.91991,-13.68581 2.41318,-4.73024 4.43544,-13.48537 5.44318,-23.56568 0.60913,-6.09296 1.42389,-9.98959 2.5505,-12.19794 2.17852,-4.27024 16.99233,-19.38196 32.37393,-33.02496 12.77245,-11.32879 20.7507,-19.96414 28.66796,-31.02915 13.70093,-19.14817 24.02167,-39.88911 21.23538,-42.6754 -0.63876,-0.63876 -3.17486,0.21294 -9.40324,3.15792 -11.81494,5.5865 -23.96061,7.92866 -29.06203,5.60429 -2.31516,-1.05486 -2.75587,-3.8289 -0.60829,-3.8289 4.24819,0 21.82319,-10.42662 38.16958,-22.64464 24.41721,-18.25051 39.72238,-37.01087 40.91382,-50.15025 0.4973,-5.48435 -0.76002,-8.26781 -6.31237,-13.97435 -6.00946,-6.17634 -5.08033,-6.96253 9.29161,-7.86225 9.70422,-0.6075 16.33038,0.49536 19.70884,3.28034 1.34431,1.10817 3.55691,2.72079 4.91687,3.58361 1.90915,1.21124 2.76565,2.61292 3.75823,6.15043 0.90478,3.22461 2.06674,5.27329 3.92299,6.91668 l 2.63744,2.33501 0.52554,20.95249 c 0.28905,11.52387 0.52628,26.15944 0.52717,32.5235 0.002,13.37689 0.46431,16.81123 2.17523,16.15469 0.86391,-0.33152 1.01887,-0.0858 0.5962,0.94561 -0.31409,0.76645 -0.75607,2.90667 -0.98216,4.75605 -0.34191,2.79673 -0.18511,3.36252 0.93191,3.36252 1.80154,0 1.32934,1.36789 -4.50646,13.05447 -17.6963,35.43796 -39.10623,63.22103 -69.41932,90.08358 -37.33384,33.08408 -82.72864,56.01294 -131.73152,66.53742 -6.96239,1.49533 -14.61706,2.96039 -17.01038,3.25569 l -4.35149,0.53692 z m 49.92767,-11.72091 c 7.47567,-3.89659 15.89353,-10.39837 25.52336,-19.71372 11.36534,-10.99418 14.32782,-14.84406 14.32782,-18.61968 0,-4.82511 -1.6782,-4.63924 -9.38888,1.03983 -3.75667,2.76686 -10.65499,7.61079 -15.32959,10.76429 -11.20297,7.55756 -26.70824,23.73147 -26.70824,27.86 0,2.51329 5.38936,1.89372 11.57553,-1.33072 z"
       id="path5563"
       transform="matrix(0.26458333,0,0,0.26458333,35,15)" />
    <path
       style="fill:#000080;stroke:#e6e6e6;stroke-width:0.79118;stroke-opacity:1"
       d="m 440.501,406.26935 c -5.2715,-6.73865 -18.039,-26.33474 -20.45173,-31.39015 -1.2925,-2.70819 -2.90761,-7.34484 -3.58913,-10.30367 -2.52215,-10.94983 -4.52519,-16.71981 -9.53389,-27.46345 -6.62752,-14.21601 -8.17191,-18.197 -8.17191,-21.06485 0,-2.72597 0.95764,-2.96897 3.13189,-0.79472 2.0243,2.0243 4.09189,6.1731 6.70395,13.45208 2.73628,7.62511 4.86653,11.35692 7.66325,13.42463 2.7396,2.02547 3.98563,4.3531 7.13064,13.32029 2.23885,6.3835 5.37013,12.84868 11.58588,23.92143 3.22156,5.73891 6.11288,14.56786 7.62642,23.28805 0.6748,3.88788 1.14428,7.14063 1.04328,7.22835 -0.10099,0.0877 -1.51339,-1.54038 -3.13865,-3.61799 z"
       id="path5565"
       transform="matrix(0.26458333,0,0,0.26458333,35,15)" />
    <path
       style="fill:#000080;stroke:#e6e6e6;stroke-width:0.79118;stroke-opacity:1"
       d="m 493.30803,326.95525 c -1.58663,-1.84938 -5.1498,-7.99092 -7.91814,-13.64786 -5.0855,-10.39192 -6.66897,-14.65557 -5.42755,-14.6142 0.37354,0.0125 3.88344,2.71394 7.79978,6.00332 9.27307,7.78856 12.02913,9.16387 19.31733,9.6396 5.16058,0.33685 5.69176,0.51132 4.41009,1.4485 -0.80146,0.58604 -3.18764,1.29508 -5.30264,1.57564 -4.41895,0.58619 -5.3703,1.76037 -5.3703,6.62807 0,7.01681 -3.01276,8.20726 -7.50857,2.96693 z"
       id="path5567"
       transform="matrix(0.26458333,0,0,0.26458333,35,15)" />
    <path
       style="fill:#000080;stroke:#e6e6e6;stroke-width:0.79118;stroke-opacity:1"
       d="m 477.3387,237.38642 c -4.21615,-1.83393 -5.13328,-4.14798 -5.73776,-14.47708 -0.59184,-10.11328 -0.68061,-10.36308 -6.81588,-19.18042 -5.92481,-8.51488 -8.38602,-13.81569 -8.86443,-19.09167 -0.38779,-4.27656 -0.26567,-4.70109 2.00556,-6.97233 2.06458,-2.06457 3.00865,-2.41849 6.45133,-2.41849 h 4.03284 l -1.59844,3.1332 c -2.29229,4.49327 -2.05868,9.14402 0.74038,14.73978 3.01681,6.03111 9.22202,13.71053 12.71975,15.74168 2.55519,1.48381 2.72886,1.83662 2.53662,5.15318 -0.12839,2.21508 0.80835,7.14758 2.47922,13.05447 l 2.68558,9.49416 -1.68803,0.96094 c -2.22838,1.26854 -5.84209,1.21303 -8.94674,-0.13742 z"
       id="path5569"
       transform="matrix(0.26458333,0,0,0.26458333,35,15)" />
    <path
       style="fill:#000080;stroke:#e6e6e6;stroke-width:0.79118;stroke-opacity:1"
       d="m 357.21911,211.56237 c 1.43971,-10.63141 5.53991,-22.7737 9.39854,-27.8327 3.90058,-5.11401 3.38948,-5.27078 15.54784,4.76903 8.23705,6.80177 14.63819,2.88386 10.6975,-6.54756 -1.05619,-2.52782 -1.02975,-2.79992 0.34357,-3.5349 3.19421,-1.70948 7.13014,-0.67089 7.13014,1.88147 0,2.46284 1.57585,4.49254 11.61851,14.96469 7.09883,7.40243 8.95218,9.79837 8.95218,11.57304 0,1.23089 -0.54041,2.68649 -1.2009,3.23465 -1.76825,1.46752 -8.72779,0.57476 -19.36979,-2.48473 -6.41481,-1.84421 -10.73217,-2.61586 -14.63683,-2.6161 -5.1399,-3.1e-4 -6.30655,0.35799 -16.2192,4.98117 -5.87451,2.73983 -11.16677,5.18481 -11.76058,5.43329 -0.87395,0.36571 -0.9694,-0.36233 -0.50098,-3.82135 z"
       id="path5571"
       transform="matrix(0.26458333,0,0,0.26458333,35,15)" />
    <path
       style="fill:#008000;stroke:#e6e6e6;stroke-width:0.79118;stroke-opacity:1;fill-opacity:1"
       d="m 195.40108,141.11166 c -0.79148,-11.18021 -0.85352,-10.7826 1.95315,-12.51722 4.69721,-2.90304 6.16116,-10.70181 2.84969,-15.18082 -0.89001,-1.2038 -1.61037,-3.36024 -1.60081,-4.79209 0.0199,-2.97721 2.29314,-8.43352 4.1558,-9.974737 1.07322,-0.888022 1.44081,-0.764787 2.48858,0.834311 1.00864,1.539386 1.06251,2.318236 0.30006,4.338196 -1.01526,2.68974 -0.78233,3.97816 2.88367,15.95063 1.11677,3.64713 2.24846,8.98759 2.51488,11.8677 0.41784,4.51698 0.26484,5.50707 -1.1134,7.20512 -1.41829,1.74741 -2.31759,2.00126 -8.00475,2.25952 -3.52382,0.16003 -6.41591,0.16425 -6.42687,0.009 z"
       id="path5573"
       transform="matrix(0.26458333,0,0,0.26458333,35,15)" />
    <path
       style="fill:#008000;stroke:#e6e6e6;stroke-width:0.79118;stroke-opacity:1;fill-opacity:1"
       d="m 170.89442,132.846 c 0,-0.86877 7.65344,-10.08727 11.40757,-13.7403 3.2323,-3.14527 3.62486,-3.3353 3.62486,-1.75475 0,4.81449 -4.77489,10.79169 -11.23676,14.06617 -2.08762,1.05788 -3.79567,1.70087 -3.79567,1.42888 z"
       id="path5575"
       transform="matrix(0.26458333,0,0,0.26458333,35,15)" />
    <path
       style="fill:#008000;fill-opacity:1;stroke:#e6e6e6;stroke-width:0.79118;stroke-opacity:1"
       d="m 390.05136,580.92194 c 0,-0.52648 2.22737,-3.10008 4.94972,-5.7191 2.72235,-2.61902 6.33581,-6.46553 8.02991,-8.54779 1.6941,-2.08226 5.96429,-5.68103 9.48932,-7.99726 13.7182,-9.014 17.88124,-11.51623 17.88124,-10.74767 0,1.2993 -17.27464,18.25524 -24.12455,23.67946 -9.31487,7.37616 -16.22564,11.35097 -16.22564,9.33236 z"
       id="path5577"
       transform="matrix(0.26458333,0,0,0.26458333,35,15)" />
    <path
       style="fill:#008000;fill-opacity:1;stroke:#e6e6e6;stroke-width:0.79118;stroke-opacity:1"
       d="m 578.86091,403.51127 c -0.30586,-0.79706 -1.0106,-1.17278 -1.70209,-0.90743 -1.48658,0.57046 -1.4843,0.54169 0.31879,-4.03281 0.8244,-2.09149 2.79705,-8.60224 4.38368,-14.46833 4.13293,-15.28029 11.87612,-38.62382 12.15929,-36.65686 0.63559,4.41489 -8.52644,41.79168 -13.13293,53.57618 -1.1227,2.87214 -1.63728,3.50415 -2.02674,2.48925 z"
       id="path5579"
       transform="matrix(0.26458333,0,0,0.26458333,35,15)" />
    <path
       style="fill:#008000;fill-opacity:1;stroke:#e6e6e6;stroke-width:0.79118;stroke-opacity:1"
       d=""
       id="path5581"
       transform="matrix(0.26458333,0,0,0.26458333,35,15)" />
    <path
       style="fill:#008000;fill-opacity:1;stroke:#e6e6e6;stroke-width:0.279724;stroke-opacity:1"
       d="m 179.13345,60.130946 c -0.35517,-0.574681 0.1491,-1.382474 1.84067,-2.948567 3.71594,-3.440306 9.13394,-5.72251 14.15315,-5.961679 2.35778,-0.11235 2.98567,-0.05447 3.57122,0.329199 0.57604,0.377437 0.65693,0.565561 0.42749,0.994266 -0.72655,1.357572 -6.54294,4.007444 -13.81768,6.295157 -4.61777,1.452165 -5.90874,1.722203 -6.17485,1.291624 z"
       id="path5583"
       transform="matrix(0.26458333,0,0,0.26458333,35,15)" />
    <path
       style="fill:#008000;fill-opacity:1;stroke:#e6e6e6;stroke-width:0.279724;stroke-opacity:1"
       d="m 344.39675,243.62109 c -6.20561,-4.15057 -11.48728,-13.20737 -10.27291,-17.61559 0.69261,-2.51423 3.32793,-3.92221 6.58058,-3.51582 3.54628,0.44308 3.80482,2.3795 0.86065,6.44609 -2.28548,3.15676 -3.23576,4.73846 -3.23576,5.38577 0,0.98687 1.23327,2.01107 5.39381,4.47941 3.82382,2.26857 4.6733,3.12155 4.67523,4.69448 0.002,1.95033 -1.21626,1.9886 -4.0016,0.12566 z"
       id="path5585"
       transform="matrix(0.26458333,0,0,0.26458333,35,15)" />
    <path
       style="fill:#008000;fill-opacity:1;stroke:#e6e6e6;stroke-width:0.279724;stroke-opacity:1"
       d="m 321.6444,246.1407 c -0.33042,-0.13332 -0.684,-0.37709 -0.78575,-0.54172 -0.2456,-0.39739 -0.11775,-0.37892 0.90346,0.13053 0.78938,0.39379 0.98658,0.38566 2.35071,-0.097 0.81897,-0.28976 1.72996,-0.63046 2.02444,-0.75712 0.36616,-0.1575 0.47501,-0.13258 0.34434,0.0789 -0.23048,0.37292 -3.08398,1.47146 -3.75742,1.44654 -0.26346,-0.01 -0.74936,-0.12681 -1.07978,-0.26012 z"
       id="path5587"
       transform="matrix(0.26458333,0,0,0.26458333,35,15)" />
    <path
       style="fill:#008000;fill-opacity:1;stroke:#e6e6e6;stroke-width:0.279724;stroke-opacity:1"
       d=""
       id="path5589"
       transform="matrix(0.26458333,0,0,0.26458333,35,15)" />
  </g>
</svg>
