<?xml version="1.0" encoding="UTF-8" standalone="no"?>
<svg
   xmlns:dc="http://purl.org/dc/elements/1.1/"
   xmlns:cc="http://creativecommons.org/ns#"
   xmlns:rdf="http://www.w3.org/1999/02/22-rdf-syntax-ns#"
   xmlns:svg="http://www.w3.org/2000/svg"
   xmlns="http://www.w3.org/2000/svg"
   xmlns:sodipodi="http://sodipodi.sourceforge.net/DTD/sodipodi-0.dtd"
   xmlns:inkscape="http://www.inkscape.org/namespaces/inkscape"
   width="210mm"
   height="297mm"
   viewBox="0 0 210 297"
   version="1.1"
   id="svg1700"
   inkscape:version="1.0.1 (3bc2e813f5, 2020-09-07)"
   sodipodi:docname="jupiter_booklet_page.svg">
  <defs
     id="defs1694" />
  <sodipodi:namedview
     id="base"
     pagecolor="#ffffff"
     bordercolor="#666666"
     borderopacity="1.0"
     inkscape:pageopacity="0.0"
     inkscape:pageshadow="2"
     inkscape:zoom="0.49497475"
     inkscape:cx="379.75261"
     inkscape:cy="550.69329"
     inkscape:document-units="mm"
     inkscape:current-layer="layer1"
     inkscape:document-rotation="0"
     showgrid="false"
     inkscape:window-width="1920"
     inkscape:window-height="1001"
     inkscape:window-x="-9"
     inkscape:window-y="-9"
     inkscape:window-maximized="1" />
  <metadata
     id="metadata1697">
    <rdf:RDF>
      <cc:Work
         rdf:about="">
        <dc:format>image/svg+xml</dc:format>
        <dc:type
           rdf:resource="http://purl.org/dc/dcmitype/StillImage" />
        <dc:title></dc:title>
      </cc:Work>
    </rdf:RDF>
  </metadata>
  <g
     inkscape:label="Layer 1"
     inkscape:groupmode="layer"
     id="layer1">
    <path
       style="fill:#000000;stroke-width:0.424105"
       d="M 107.95515,174.61934 C 72.534978,171.70208 43.690297,146.00242 36.134333,110.62935 35.079989,105.69347 35,104.58628 35,94.928435 35,85.27059 35.07996,84.163413 36.134333,79.227522 38.376441,68.731169 42.439773,59.05249 48.255766,50.354858 76.164316,8.6184754 135.45407,2.8290067 171.06093,38.363297 c 6.68847,6.674854 11.39263,13.305754 15.54802,21.916242 10.63046,22.027586 10.63046,47.270211 0,69.297801 -12.5329,25.96972 -37.34895,42.86888 -66.1815,45.06804 -6.25615,0.47719 -6.36518,0.47695 -12.4723,-0.026 z m 11.7916,-1.23983 c 19.92223,-1.4364 38.19057,-9.95251 51.61837,-24.06282 5.18436,-5.44787 10.92002,-13.25014 9.74056,-13.25014 -0.26214,0 -1.77144,0.65208 -3.35403,1.44906 -1.58261,0.79698 -4.01113,1.77677 -5.39673,2.17731 -3.58584,1.03655 -6.30538,2.30893 -9.85108,4.60897 -3.14501,2.04014 -11.13257,5.56448 -15.35781,6.77632 -1.28291,0.36795 -5.67238,1.22263 -9.7544,1.89929 -4.80419,0.79638 -8.39408,1.63754 -10.17849,2.38492 -1.51618,0.63503 -3.42465,1.30428 -4.24105,1.48719 -10.90694,2.44374 -33.169574,5.07779 -42.965584,5.08359 -3.454319,0.002 -6.183346,0.16102 -6.06452,0.35327 0.118816,0.19228 2.585958,1.52946 5.482522,2.97156 9.136338,4.54864 19.453579,7.38573 29.477092,8.10576 2.49048,0.17891 4.62356,0.35122 4.74019,0.38294 0.11663,0.0317 2.86387,-0.13354 6.10496,-0.36722 z M 91.918511,160.86172 c 9.810459,-1.02307 22.461509,-2.67731 26.176369,-3.4228 5.47606,-1.09889 6.22089,-1.30536 9.11825,-2.52772 1.76516,-0.7447 5.2736,-1.58174 9.75439,-2.32719 3.84875,-0.64031 8.23823,-1.48727 9.75439,-1.88215 3.65941,-0.95305 11.20515,-4.14288 14.28228,-6.03759 4.81633,-2.96558 6.93621,-3.99316 11.20009,-5.4291 2.37277,-0.79907 4.92537,-1.81349 5.67242,-2.25425 0.74705,-0.44077 2.04625,-1.02845 2.8871,-1.30596 1.35488,-0.44715 1.76902,-0.97233 3.63955,-4.61561 1.9325,-3.76394 4.72833,-10.27471 4.72947,-11.01377 2.7e-4,-0.16888 -2.03011,-0.2412 -4.51194,-0.16072 -5.30565,0.17204 -6.64071,0.64484 -11.33806,4.01524 -3.55728,2.55238 -8.59587,4.61705 -13.6086,5.57643 -4.1081,0.78625 -13.18776,3.78253 -18.04155,5.95372 -2.21595,0.99121 -4.69695,1.94084 -5.51335,2.11026 -0.8164,0.16942 -4.06081,1.17526 -7.20978,2.23521 -7.5558,2.54333 -10.82331,2.81606 -14.41691,1.20335 -7.65417,-3.43499 -19.403119,-3.22218 -33.509326,0.60699 -10.385926,2.81927 -12.577319,3.15384 -20.460564,3.12378 -3.673808,-0.0141 -6.679644,0.0322 -6.679644,0.10269 0,0.0706 1.061922,1.32815 2.359833,2.79484 3.269806,3.69498 9.082957,8.84118 13.096829,11.59423 l 3.3697,2.31122 h 6.502786 c 3.57654,0 9.312357,-0.293 12.746267,-0.6511 z M 71.423935,143.5054 c 1.824407,-0.34907 6.010399,-1.39183 9.302182,-2.31725 8.007169,-2.25106 9.915438,-2.55703 17.859973,-2.8636 7.81882,-0.30173 11.20449,0.13276 15.68382,2.01274 4.32478,1.81512 6.00688,1.68911 14.95742,-1.12046 4.14048,-1.29972 8.95949,-2.94741 10.70891,-3.66155 5.99768,-2.44834 16.17711,-5.82921 19.43294,-6.45421 5.88911,-1.13052 9.81057,-2.7912 14.49541,-6.13863 4.01928,-2.87185 4.77548,-3.12344 10.32056,-3.4337 3.6422,-0.20377 5.12206,-0.44623 5.39403,-0.88372 0.41418,-0.66631 2.52189,-9.19477 2.52189,-10.20441 0,-1.09158 -5.63225,-0.17645 -8.69412,1.41264 -4.40394,2.2856 -12.98379,4.9242 -17.69901,5.44305 -4.4045,0.48467 -11.64486,2.77771 -17.71371,5.61 -3.59206,1.67639 -4.06674,1.85268 -6.51586,2.41996 -3.06354,0.7096 -6.60697,2.67016 -8.67933,4.80227 -1.71708,1.76657 -1.95277,1.87565 -3.64114,1.68535 -1.40693,-0.15858 -2.63936,0.13354 -5.58592,1.32402 -2.07937,0.84012 -4.73491,1.72217 -5.9012,1.9601 -2.57373,0.52506 -22.603771,1.09543 -22.169143,0.63128 0.169609,-0.18114 3.127737,-0.29357 6.573623,-0.2499 10.15141,0.1287 15.63614,-0.52281 20.22012,-2.40182 2.85035,-1.16841 4.50904,-1.5916 6.35309,-1.62095 2.41042,-0.0385 2.55518,-0.10624 4.24103,-1.98798 0.96,-1.07154 2.50884,-2.31648 3.44186,-2.76654 1.57009,-0.75735 2.66821,-1.13105 7.84594,-2.67008 1.04966,-0.31199 2.49847,-0.90897 3.2196,-1.32659 1.2069,-0.69894 10.28013,-4.19536 13.00914,-5.01313 0.64516,-0.19333 3.03075,-0.57063 5.3013,-0.83843 4.89357,-0.57718 13.55936,-3.25576 17.35665,-5.36492 2.02321,-1.12376 3.30436,-1.51535 5.5829,-1.70637 1.62642,-0.13635 3.13579,-0.36474 3.35414,-0.50754 0.41744,-0.27298 1.02367,-3.86451 0.65231,-3.86451 -0.11838,0 -1.86554,0.77621 -3.8826,1.7249 -4.81394,2.26417 -12.78866,4.17693 -20.84361,4.9994 -3.24672,0.33152 -3.8577,0.54299 -6.1495,2.12843 -1.65244,1.14313 -4.77512,2.56505 -8.9062,4.05546 -3.49885,1.26235 -7.69748,2.8036 -9.33028,3.42503 -4.6482,1.76905 -6.70804,1.46481 -13.79201,-2.03707 -5.98177,-2.95703 -8.86626,-3.8063 -11.14859,-3.28242 -0.74463,0.17092 -3.45319,1.36169 -6.01902,2.64615 -2.56583,1.28446 -5.95716,2.76107 -7.53628,3.28134 -2.2395,0.73783 -3.00925,1.21299 -3.49887,2.15981 -1.09661,2.12059 -0.84493,2.81158 1.12006,3.07515 0.96127,0.12892 1.94085,0.42749 2.17684,0.66348 0.72631,0.72631 -0.007,1.75744 -1.26065,1.77342 -1.65867,0.0212 -2.77174,0.75691 -4.417936,2.92041 -0.784743,1.03134 -3.393417,2.61645 -3.731362,2.72797 -0.337935,0.11153 2.090622,-1.61418 3.331105,-3.04039 1.813683,-2.08523 2.592063,-2.65969 3.974223,-2.93303 2.27484,-0.44986 2.49456,-1.26395 0.43379,-1.60718 -2.52767,-0.42099 -2.67789,-0.5236 -2.67789,-1.82925 0,-2.00704 1.35304,-3.23285 4.96591,-4.49898 1.81727,-0.63685 5.30116,-2.20717 7.74197,-3.48961 6.60266,-3.4691 7.86799,-3.36751 17.56339,1.41006 6.41731,3.16226 7.97815,3.35384 12.77532,1.56809 1.6328,-0.60781 5.28136,-1.92296 8.1079,-2.92255 5.62108,-1.98784 7.8878,-3.04091 10.71585,-4.97836 1.55312,-1.06401 2.49276,-1.33747 5.70167,-1.65934 7.34756,-0.737 15.81136,-2.76905 20.53155,-4.92938 4.15418,-1.90128 4.34316,-2.04531 4.34707,-3.31302 0.002,-0.72892 0.12343,-1.921971 0.26927,-2.651198 l 0.26518,-1.325889 -1.4469,0.604552 c -2.25261,0.941204 -7.90815,2.256085 -11.05418,2.570045 -2.60328,0.2598 -14.28963,3.9723 -24.07813,7.64909 -4.24927,1.59613 -9.83736,1.85909 -17.71209,0.83347 -9.43144,-1.22837 -10.64404,-1.0156 -24.23392,4.25214 -4.56536,1.76964 -7.23114,2.33391 -17.004476,3.59936 -8.765141,1.13491 -16.105857,2.73915 -18.867252,4.12327 -1.16925,0.58608 -3.461839,2.35102 -5.09464,3.9221 -1.632802,1.57106 -3.61494,3.18945 -4.404742,3.5964 -5.217678,2.6885 -13.042037,4.47543 -19.59623,4.47543 h -4.250046 l 1.068324,1.80246 c 0.587582,0.99134 2.237584,3.46369 3.666686,5.49408 l 2.598352,3.69167 2.612895,0.17918 c 4.32199,0.29637 12.210694,-0.0845 15.740644,-0.7598 z m 38.506955,-13.64842 c -1.74003,-0.38473 -1.19629,-1.98883 1.48436,-4.37913 3.54137,-3.15777 6.27577,-4.38087 9.78014,-4.37465 6.02654,0.0108 8.64977,1.15362 9.05312,3.94439 0.12459,0.86193 -0.0843,1.05428 -1.45878,1.34354 -0.88228,0.18568 -2.21821,0.65609 -2.96872,1.04536 -2.95376,1.53202 -12.9924,3.06118 -15.89012,2.42049 z m 9.65412,-1.15693 c 2.68561,-0.54782 5.68385,-1.40462 6.66274,-1.90401 0.97889,-0.4994 2.16909,-0.90799 2.6449,-0.90799 1.1003,0 1.14494,-1.25686 0.0909,-2.5586 -0.59896,-0.73968 -1.57402,-1.0834 -4.30722,-1.51831 -4.05297,-0.64492 -6.24241,-0.32639 -9.32035,1.35598 -2.33045,1.2738 -5.95519,4.58188 -5.95519,5.43492 0,1.35536 3.83906,1.39231 10.18425,0.0981 z m -62.109551,3.32087 c 4.304409,-0.75063 9.370739,-2.38034 11.88951,-3.82454 0.956174,-0.54825 3.174738,-2.33811 4.930139,-3.97746 4.87019,-4.54822 7.640232,-5.45191 23.442779,-7.64792 11.702663,-1.62626 13.400603,-2.03261 20.292723,-4.85645 9.3561,-3.83336 12.47081,-4.27231 21.26948,-2.99752 2.33258,0.33796 6.24494,0.61647 8.69414,0.61891 4.03819,0.004 4.84827,-0.1367 8.69414,-1.51039 12.70718,-4.53883 21.49118,-7.34332 23.74985,-7.58266 3.89045,-0.412278 8.67786,-1.487861 10.97837,-2.466508 l 2.07218,-0.881513 -0.28938,-5.208274 c -0.15915,-2.864553 -0.47458,-6.312837 -0.70094,-7.662855 -0.22636,-1.350027 -0.51687,-3.122552 -0.64554,-3.938954 -0.29563,-1.875377 -1.33047,-5.961051 -1.5707,-6.201296 -0.0998,-0.09981 -1.38698,-0.393824 -2.86037,-0.653356 -3.36522,-0.592779 -4.54132,-0.21293 -9.04235,2.92044 -4.86745,3.388433 -6.24384,3.913947 -10.27992,3.924901 -3.82449,0.01038 -5.79159,0.575383 -11.83529,3.399413 -5.68236,2.65518 -10.57019,4.446864 -14.84366,5.441078 -4.07604,0.948277 -9.54235,1.636266 -9.54235,1.200982 0,-0.144908 0.95425,-0.747016 2.12053,-1.338025 1.47056,-0.745185 2.12053,-1.332338 2.12053,-1.915611 0,-0.704254 -0.28775,-0.841059 -1.76906,-0.841059 -0.97297,0 -2.07263,0.274732 -2.44367,0.610526 -0.4027,0.364443 -2.35577,0.782526 -4.84515,1.037214 -3.63435,0.371823 -4.77869,0.705888 -8.90111,2.598493 -7.32314,3.362056 -7.47457,3.451358 -9.77497,5.76391 -1.19097,1.197271 -2.82021,2.395018 -3.62054,2.661674 -2.41313,0.804026 -5.033831,2.53382 -5.797541,3.82667 -0.680724,1.15238 -1.093268,1.29203 -7.543842,2.55345 -4.785638,0.93584 -7.838445,1.78888 -10.221093,2.85609 -5.197238,2.32786 -7.114145,2.92899 -13.999969,4.39032 -3.498867,0.74253 -7.029537,1.6471 -7.845937,2.01016 -0.816401,0.36306 -3.297405,0.79465 -5.513352,0.9591 -3.606156,0.26762 -7.888325,0.80358 -12.975162,1.62399 l -1.736402,0.28006 0.676132,2.10456 c 0.622303,1.93696 0.811244,2.13412 2.37256,2.47567 0.933036,0.20409 4.463697,0.27772 7.845935,0.16361 6.126784,-0.20671 6.176157,-0.21643 13.359279,-2.63227 l 7.209779,-2.4248 8.057974,-0.33786 c 7.111441,-0.29819 12.429238,-0.9155 16.540067,-1.92005 0.699773,-0.171 4.050978,-1.42773 7.447112,-2.79273 6.49799,-2.61171 15.01006,-5.02668 17.71759,-5.02668 0.8828,0 2.82255,-0.47712 4.31054,-1.06026 1.48801,-0.58314 2.99179,-1.06026 3.34174,-1.06026 0.34995,0 1.93215,-0.78299 3.51598,-1.73996 l 2.87975,-1.73996 7.20612,-0.34804 c 3.96337,-0.19142 7.4018,-0.46897 7.64094,-0.61679 0.23915,-0.14781 0.83537,-1.199767 1.32489,-2.337705 0.90544,-2.104761 2.18588,-2.97195 4.38822,-2.97195 1.72266,0 5.75892,-1.26532 7.34317,-2.302015 2.0382,-1.333734 9.42238,-3.226042 14.24303,-3.650006 4.7266,-0.415682 7.91821,-1.903788 11.89127,-5.544373 1.5641,-1.433217 2.94559,-2.504094 3.06997,-2.379708 0.40334,0.403349 -6.26501,5.788449 -8.55551,6.909075 -1.57987,0.772958 -3.19058,1.154875 -5.55336,1.316762 -4.63265,0.317401 -12.94962,2.441262 -15.07955,3.850783 -1.14998,0.761034 -3.14936,1.428519 -5.99781,2.002352 l -4.27276,0.860771 -1.05953,2.21388 c -0.58274,1.217622 -1.35318,2.329424 -1.71209,2.470654 -0.35892,0.14123 -3.70613,0.40391 -7.43823,0.58372 -7.0945,0.3418 -7.8868,0.54762 -11.45082,2.97461 -0.69978,0.47652 -1.66883,0.86767 -2.15343,0.8692 -0.48462,0.002 -2.05531,0.47992 -3.49043,1.06307 -1.43513,0.58313 -3.26416,1.06026 -4.06452,1.06026 -2.88536,0 -10.78598,2.2185 -17.64635,4.95512 -8.650853,3.45085 -12.920434,4.29926 -23.961888,4.76146 l -8.057983,0.3373 -7.421825,2.48244 -7.421825,2.48243 -7.688954,0.0185 -7.688956,0.0185 0.387883,1.06028 c 0.21334,0.58313 1.273035,2.921 2.354883,5.19527 l 1.966999,4.13501 h 4.112231 c 2.261729,0 5.796796,-0.29377 7.855704,-0.6528 z M 46.845372,115.62951 c 1.399546,-0.23606 4.357674,-0.58206 6.573621,-0.76893 2.215937,-0.18686 5.177538,-0.72118 6.581316,-1.18739 1.40378,-0.4662 5.254308,-1.42597 8.556734,-2.13279 3.302434,-0.70683 7.163616,-1.77555 8.580412,-2.37494 1.416805,-0.59938 3.74323,-1.58343 5.169842,-2.18679 1.426612,-0.60335 5.471082,-1.65401 8.987703,-2.33482 6.254676,-1.21089 6.42165,-1.27156 7.671258,-2.78756 0.815156,-0.98892 2.417582,-2.076509 4.428172,-3.005448 2.11613,-0.977727 3.86372,-2.186012 5.32199,-3.679668 1.51007,-1.54671 2.91056,-2.500536 4.59909,-3.132299 1.33532,-0.499605 3.95555,-1.67649 5.82274,-2.615295 2.89822,-1.457194 4.03195,-1.775155 7.74938,-2.173347 2.61808,-0.280426 4.63317,-0.713395 5.05333,-1.085762 0.44709,-0.396225 1.36374,-0.571587 2.54461,-0.486804 1.64223,0.117917 1.84579,0.247598 1.84579,1.175899 0,0.716247 -0.46538,1.361772 -1.48436,2.058918 l -1.48436,1.015536 1.90847,-0.293297 c 7.45414,-1.145556 12.45593,-2.728028 20.80415,-6.582089 6.56743,-3.03193 7.82012,-3.386611 11.97152,-3.389581 3.98195,-0.0026 4.92111,-0.367951 10.17659,-3.956146 5.04398,-3.443801 6.30063,-3.728049 11.23832,-2.542081 1.02127,0.245301 0.94719,-0.02809 -2.52081,-9.302027 -0.38482,-1.02905 -0.6553,-1.166286 -2.29856,-1.166286 -2.25377,0 -5.85128,1.303081 -7.26551,2.631695 -0.9992,0.938699 -1.37531,0.980796 -11.07344,1.239394 -5.5215,0.147242 -10.06197,0.290711 -10.08995,0.318828 -0.0279,0.02812 -0.27225,1.176477 -0.54285,2.551906 -0.95111,4.8344 -1.83921,5.509647 -9.16071,6.965087 -10.05076,1.997986 -10.90654,2.317957 -17.84343,6.671512 -3.84501,2.413105 -5.01366,2.947318 -6.44762,2.947318 -1.02217,0 -3.83468,0.771784 -6.75462,1.85353 -2.75175,1.019448 -6.07245,1.983907 -7.37934,2.143249 -1.30689,0.159335 -3.308,0.570139 -4.44691,0.912896 -1.37002,0.412319 -2.86322,0.533548 -4.412618,0.358246 -2.13801,-0.241878 -3.264483,0.03319 -12.941354,3.160174 -5.829729,1.883821 -12.008015,3.846126 -13.729533,4.360686 -1.721527,0.514543 -4.584226,1.682836 -6.361565,2.596186 -2.840761,1.45983 -3.759119,1.70724 -7.594373,2.04588 -3.496921,0.30878 -4.855442,0.6339 -6.84474,1.6381 -2.843699,1.43549 -10.399167,3.11662 -13.068178,2.90772 -1.437109,-0.11249 -1.763798,-0.0125 -1.62674,0.49813 0.09437,0.35139 0.495422,2.16566 0.89133,4.03172 0.395908,1.86606 0.80996,3.54363 0.920109,3.72795 0.213933,0.35795 3.811613,0.075 7.975094,-0.62721 z m -2.016646,-8.81888 c 2.156457,-0.4552 5.114585,-1.4007 6.573622,-2.10111 2.053215,-0.98566 3.611368,-1.36455 6.89384,-1.67641 3.696524,-0.35119 4.75833,-0.64827 8.270039,-2.31387 2.215938,-1.051026 6.414577,-2.582108 9.330288,-3.402407 2.91572,-0.820292 8.354852,-2.577454 12.086973,-3.904814 6.38219,-2.269867 7.039304,-2.418136 11.051328,-2.49365 2.346114,-0.04418 4.526284,-0.241359 4.844814,-0.438229 0.31854,-0.196861 2.041,-0.591997 3.8277,-0.878084 1.7867,-0.286078 5.37873,-1.303995 7.98229,-2.262026 2.60356,-0.958032 5.41211,-1.741885 6.24122,-1.741885 1.69016,0 2.78644,-0.500643 6.89067,-3.146793 4.33109,-2.792402 7.96197,-4.489746 11.06301,-5.171692 5.71593,-1.256971 8.37149,-1.785898 10.31196,-2.053914 2.72995,-0.377066 4.24604,-2.130177 5.0002,-5.782014 0.30876,-1.49502 0.64344,-2.813653 0.74374,-2.93028 0.10031,-0.116627 4.69912,-0.307475 10.21957,-0.424103 l 10.03717,-0.212055 1.69641,-1.342959 c 1.79399,-1.420194 4.18532,-2.255645 6.4676,-2.259559 0.7581,-0.0013 1.37834,-0.197977 1.37834,-0.437057 0,-0.584607 -2.86748,-6.269012 -3.89904,-7.729317 -0.45312,-0.641457 -1.18661,-1.166287 -1.62997,-1.166287 -0.44335,0 -2.16555,0.879426 -3.82712,1.954285 -5.31979,3.441359 -9.49037,5.133583 -13.19586,5.354273 -2.94568,0.175439 -3.61114,0.394367 -6.99772,2.302119 -4.9201,2.771632 -5.66103,3.035746 -9.77311,3.4838 -2.76631,0.301413 -3.74911,0.601211 -4.76039,1.452168 -1.58358,1.332487 -4.88065,2.100876 -14.01905,3.267165 -7.98942,1.019654 -10.2729,1.471085 -11.5837,2.289988 -0.51007,0.318652 -2.64501,0.791735 -4.74433,1.0513 -5.1771,0.640104 -8.7331,1.576516 -12.464775,3.282388 -1.723968,0.788084 -3.775568,1.432869 -4.559116,1.432869 -0.873488,0 -1.424637,0.209654 -1.424637,0.541906 0,0.298046 -0.333984,0.863938 -0.74219,1.257516 -0.408195,0.393603 -1.097783,1.092802 -1.532401,1.55379 -0.875016,0.928097 -4.015069,1.735314 -6.758504,1.737408 -0.979863,8.52e-4 -4.835119,0.981021 -8.56724,2.178377 -6.327535,2.030031 -7.186527,2.198788 -12.723122,2.499548 -3.265602,0.177404 -6.605425,0.519189 -7.421824,0.759527 -1.526467,0.449379 -9.973412,1.334101 -15.797887,1.654651 -6.787438,0.37355 -2.892867,0.911993 8.270028,1.143351 6.356264,0.131749 13.285788,0.348859 15.398943,0.482472 4.464534,0.282291 9.149501,-0.592133 10.631381,-1.984282 0.694287,-0.65225 2.029593,-1.012028 5.398067,-1.454428 4.719192,-0.619804 6.89283,-1.3002 7.853184,-2.458199 0.396075,-0.477585 1.243061,-0.701854 2.650654,-0.701854 1.72569,0 2.068597,-0.129323 2.068597,-0.780133 0,-1.233412 1.847113,-1.7645 6.13693,-1.7645 3.562892,0 4.101182,-0.104495 5.175312,-1.004725 1.03785,-0.86982 1.82528,-1.044508 5.86398,-1.300941 7.64658,-0.485502 9.91369,-0.952976 11.53807,-2.379205 1.32137,-1.160179 1.67258,-1.252579 4.76067,-1.252579 2.94729,0 3.70545,-0.176374 6.5355,-1.520357 3.15828,-1.499862 4.94458,-1.656797 4.94458,-0.434399 0,1.564532 -12.41933,8.157958 -16.43558,8.725656 -1.36642,0.19314 -3.1417,0.751875 -3.94509,1.241632 -0.80339,0.489765 -1.90835,0.891199 -2.45548,0.892068 -0.54715,8.43e-4 -1.57584,0.415325 -2.286,0.920998 -1.06539,0.758634 -2.3747,1.015926 -7.48728,1.471348 -3.40786,0.303569 -7.532033,0.828853 -9.164834,1.167302 -1.632801,0.33845 -3.958002,0.715507 -5.167119,0.83791 -1.209118,0.122394 -5.015877,1.286547 -8.459475,2.586986 -6.469302,2.443083 -9.018358,3.24224 -13.716935,4.300375 -1.510005,0.340067 -3.203825,0.946268 -3.764039,1.347116 -3.131765,2.240895 -3.003436,2.208425 -8.758234,2.215595 l -5.513351,0.007 -4.590161,2.32795 c -3.246875,1.64669 -5.077518,2.32794 -6.255533,2.32794 -1.569526,0 -2.176118,0.62021 -1.382648,1.41368 0.513061,0.51306 3.686746,0.28201 7.667065,-0.55819 z m -0.173569,-3.6489 3.886631,-2.06273 6.185721,-0.22258 6.185729,-0.22257 1.504588,-1.321838 c 0.840994,-0.738854 2.227875,-1.448513 3.144567,-1.609065 2.813259,-0.492718 7.812412,-1.973361 12.666696,-3.751607 8.267315,-3.028527 10.505268,-3.707749 12.267284,-3.723154 0.950491,-0.0088 2.873236,-0.292513 4.272783,-0.631558 1.399546,-0.339037 5.216482,-0.83631 8.482084,-1.105032 4.87327,-0.401025 6.25505,-0.667902 7.7094,-1.488975 0.97456,-0.550206 2.12116,-1.000368 2.54799,-1.000368 0.42684,0 1.63336,-0.449958 2.68117,-0.999899 1.04779,-0.54995 2.92659,-1.115808 4.17509,-1.257473 1.24849,-0.141673 3.08184,-0.733363 4.0741,-1.314857 0.99226,-0.581502 2.75727,-1.432979 3.92227,-1.89218 1.16499,-0.459201 3.21335,-1.602075 4.5519,-2.539739 1.33853,-0.937655 2.65523,-1.795941 2.92597,-1.907305 0.34942,-0.143733 0.32195,-0.321588 -0.0947,-0.612968 -0.73304,-0.512688 -2.58054,-0.0097 -4.64888,1.265575 -1.22335,0.754318 -2.41783,1.0059 -5.66985,1.194198 -3.57356,0.206914 -4.23987,0.367235 -5.02396,1.208856 -1.36451,1.464641 -2.34912,1.694373 -9.61229,2.242826 -5.98105,0.451634 -6.81706,0.610466 -7.88885,1.498797 -1.05823,0.877114 -1.6394,0.993644 -4.95561,0.993644 -4.348228,0 -5.932531,0.45023 -5.932531,1.685922 0,0.757442 -0.273298,0.858703 -2.317651,0.858703 -1.851374,0 -2.405325,0.16382 -2.753427,0.814239 -0.579255,1.082367 -2.358248,1.623557 -7.531019,2.291068 -3.364602,0.434186 -4.65615,0.798136 -5.922871,1.669027 -2.135539,1.468199 -6.202677,2.14446 -10.995184,1.828216 -2.074629,-0.136898 -8.877195,-0.3564 -15.116831,-0.487773 L 36.030733,92.322264 v 3.997555 c 0,2.198651 0.124858,5.192081 0.277452,6.652061 l 0.277452,2.6545 2.091449,-0.20095 c 1.409158,-0.1354 3.359376,-0.87388 5.978091,-2.2637 z m 3.250475,-13.305139 c 2.91572,-0.276868 6.064694,-0.694568 6.997722,-0.928249 0.933028,-0.233682 4.368279,-0.575441 7.633881,-0.759468 4.74757,-0.26754 6.617391,-0.566394 9.330288,-1.491273 6.076448,-2.071576 10.121675,-3.091179 13.221453,-3.332505 3.35173,-0.260935 5.635088,-1.198667 5.961912,-2.448437 0.116773,-0.446535 0.476326,-0.811873 0.799005,-0.811873 0.322682,0 0.586688,-0.381696 0.586688,-0.848199 0,-0.679997 0.282744,-0.848217 1.425708,-0.848217 0.78414,0 2.678029,-0.567833 4.208659,-1.261848 3.718862,-1.686211 7.795832,-2.778834 12.635122,-3.38622 2.19779,-0.275847 4.47311,-0.755262 5.05624,-1.065386 1.79708,-0.955682 4.17801,-1.43377 11.66287,-2.341874 8.64935,-1.049394 12.26003,-1.892313 14.09645,-3.290847 1.05905,-0.806535 2.17517,-1.129509 4.8772,-1.411348 3.10401,-0.32376 4.08466,-0.664303 8.59313,-2.98409 4.59156,-2.362541 5.4003,-2.638854 8.27003,-2.825485 2.74419,-0.178467 3.76291,-0.49738 7.42182,-2.323413 2.33258,-1.164106 5.21503,-2.760796 6.40546,-3.5482 1.19043,-0.787409 2.47866,-1.43165 2.86272,-1.43165 0.38404,0 0.69415,-0.143133 0.68911,-0.318077 -0.005,-0.174943 -1.27174,-2.005691 -2.81489,-4.068336 C 152.55399,14.351701 105.67795,6.2637026 70.807264,29.666545 c -10.94085,7.342761 -19.882185,17.31771 -25.85903,28.848334 -2.205909,4.255671 -4.676474,9.977072 -4.676474,10.829907 0,0.475458 17.439833,-0.310854 20.690978,-0.932892 1.732977,-0.331582 4.79168,-1.103348 6.797109,-1.715038 2.005428,-0.61169 5.372257,-1.277899 7.481841,-1.48047 2.846646,-0.273338 4.946511,-0.802827 8.144139,-2.05357 4.685161,-1.832585 8.185836,-3.50745 9.988588,-4.778935 1.971261,-1.390337 5.833153,-2.472421 11.997355,-3.361598 3.99288,-0.575973 6.42359,-1.142584 7.42182,-1.730061 1.78469,-1.050346 5.41879,-2.046524 7.46579,-2.046524 1.02575,0 2.23607,-0.507645 3.90226,-1.636725 3.26428,-2.212 5.34492,-3.232337 9.2748,-4.548311 1.82547,-0.611278 4.65495,-1.655079 6.28775,-2.319548 1.63282,-0.664475 5.15477,-1.612433 7.8266,-2.106576 6.52103,-1.206038 12.04289,-3.035449 14.81176,-4.907185 1.25475,-0.848195 2.15154,-1.332117 1.99286,-1.075382 -0.66526,1.076407 -4.07583,2.984528 -7.21206,4.034956 -1.84909,0.619317 -6.04772,1.675287 -9.3303,2.3466 -3.28258,0.671312 -7.01799,1.685113 -8.3009,2.252892 -1.28292,0.567773 -3.64805,1.457133 -5.25585,1.976351 -3.26305,1.053746 -7.55136,3.153227 -10.436,5.109286 -1.33219,0.903341 -2.42073,1.29605 -3.60489,1.300519 -1.99863,0.0076 -4.84091,0.817466 -7.20978,2.054447 -1.07792,0.562875 -3.85499,1.19814 -7.61701,1.74242 -7.020539,1.015712 -9.272083,1.70579 -12.711604,3.89599 -1.415152,0.901134 -5.054014,2.611732 -8.086361,3.801336 -4.412243,1.730947 -6.275662,2.234278 -9.330298,2.520243 -2.09931,0.196529 -5.796195,0.939536 -8.215276,1.65114 -6.093784,1.792547 -8.237691,2.074336 -18.308174,2.406427 l -8.80387,0.290309 -0.893607,3.010456 c -1.117483,3.764656 -2.413682,10.516446 -2.80565,14.614376 l -0.298603,3.121837 3.334579,-0.210804 c 1.834019,-0.115934 5.720164,-0.437301 8.635876,-0.714161 z M 108.44652,46.309489 c -0.4082,-0.11838 -0.74218,-0.582936 -0.74218,-1.032347 0,-0.71431 0.31444,-0.817113 2.49924,-0.817113 1.83033,0 2.56459,-0.170269 2.74337,-0.636157 0.31028,-0.808601 0.95795,-0.819216 1.26436,-0.02074 0.42827,1.116065 -1.0781,2.344232 -3.11414,2.539007 -1.04966,0.100411 -2.24245,0.08571 -2.65065,-0.03265 z m 5.07566,-1.314364 c 0.2841,-0.363029 0.38401,-0.870498 0.22201,-1.127705 -0.1852,-0.294044 -0.34915,-0.192128 -0.44162,0.274531 -0.12025,0.606812 -0.60553,0.742183 -2.6606,0.742183 -1.38244,0 -2.51352,0.176851 -2.51352,0.393008 0,1.055096 4.53282,0.818097 5.39373,-0.282017 z"
       id="path2283"
       sodipodi:nodetypes="ssssssssssssssssssssscsssssssssssssssssssssssssssscsssssssssssssssssssssssssssssssssssssssssssssssssssssssssssssscscsssssssssscsscssssssssssssssssssssssscssscssssssssssssssssssssssssscsssscssssssscsssssssssssscsssscsssscccccsscsssssssssssssssssssscsscssssssssssssssssssssssssscsssssssssssssssscsssssssssssssssssscssssssssssssssssssssssssssssccsssccccccssscsssssssssssssssssssssssscsscsscsssssssssssssssssssscssssssssssssssssssssssssssssssscsscssssssssssssssss" />
  </g>
</svg>
