<?xml version="1.0" encoding="UTF-8" standalone="no"?>
<svg
   xmlns:dc="http://purl.org/dc/elements/1.1/"
   xmlns:cc="http://creativecommons.org/ns#"
   xmlns:rdf="http://www.w3.org/1999/02/22-rdf-syntax-ns#"
   xmlns:svg="http://www.w3.org/2000/svg"
   xmlns="http://www.w3.org/2000/svg"
   xmlns:sodipodi="http://sodipodi.sourceforge.net/DTD/sodipodi-0.dtd"
   xmlns:inkscape="http://www.inkscape.org/namespaces/inkscape"
   width="159.5818mm"
   height="160mm"
   viewBox="0 0 159.5818 160"
   version="1.1"
   id="svg1700"
   inkscape:version="1.0.2 (e86c870879, 2021-01-15, custom)"
   sodipodi:docname="jupiter_filled.svg">
  <defs
     id="defs1694" />
  <sodipodi:namedview
     id="base"
     pagecolor="#ffffff"
     bordercolor="#666666"
     borderopacity="1.0"
     inkscape:pageopacity="0.0"
     inkscape:pageshadow="2"
     inkscape:zoom="0.89568701"
     inkscape:cx="-129.97811"
     inkscape:cy="273.13964"
     inkscape:document-units="mm"
     inkscape:current-layer="layer1"
     inkscape:document-rotation="0"
     showgrid="false"
     inkscape:window-width="1920"
     inkscape:window-height="986"
     inkscape:window-x="-11"
     inkscape:window-y="-11"
     inkscape:window-maximized="1"
     fit-margin-top="0"
     fit-margin-left="0"
     fit-margin-right="0"
     fit-margin-bottom="0" />
  <metadata
     id="metadata1697">
    <rdf:RDF>
      <cc:Work
         rdf:about="">
        <dc:format>image/svg+xml</dc:format>
        <dc:type
           rdf:resource="http://purl.org/dc/dcmitype/StillImage" />
        <dc:title></dc:title>
      </cc:Work>
    </rdf:RDF>
  </metadata>
  <g
     inkscape:label="Layer 1"
     inkscape:groupmode="layer"
     id="layer1"
     transform="translate(-35,-15)">
    <path
       id="path2283"
       style="fill:#e6e6e6;stroke-width:0.424105"
       d="m 113.19141,14.482422 c -15.763446,0.268375 -31.436194,5.220864 -44.398039,14.215914 -14.168128,9.749507 -24.906599,24.242183 -30.43632,40.502746 -1.590943,4.7406 -2.863439,9.607146 -3.569942,14.560637 -0.458355,4.538163 -0.267084,9.111462 -0.311893,13.666011 0.01186,4.17965 -0.01256,8.4051 0.973157,12.49454 3.145161,15.63292 10.816166,30.36819 22.054547,41.70926 11.16347,11.36734 25.812418,19.24658 41.456186,22.27142 4.928674,0.96898 9.948694,1.4391 14.964494,1.62212 3.70959,-0.0538 7.41561,-0.38073 11.09739,-0.82567 15.39636,-1.98736 30.20417,-8.49286 41.96591,-18.64775 16.39793,-14.04163 26.768,-34.89067 27.98429,-56.451788 C 195.86622,84.992634 192.5504,70.20471 185.69592,57.290527 181.8947,49.904231 176.81597,43.20763 170.86199,37.42464 160.46095,27.193544 147.22384,19.868499 133.00008,16.588244 126.51823,15.066425 119.84756,14.378675 113.19141,14.482422 Z m 1.96484,2.357422 c 9.74006,0.08235 19.41989,1.985889 28.51625,5.628037 6.80449,2.72372 13.28281,6.468378 19.0482,10.96376 0.32908,0.318023 0.99251,0.692417 1.13282,0.978515 -1.64786,0.598855 -2.99547,1.785432 -4.64886,2.382292 -4.39507,1.891323 -9.11377,2.80989 -13.78095,3.744512 -2.72441,0.600411 -5.38824,1.443723 -7.964,2.515211 -3.98304,1.537231 -8.20687,2.593957 -11.81343,4.965125 -1.87113,1.081996 -3.61827,2.81281 -5.92958,2.720808 -2.66883,0.244255 -5.29386,1.043052 -7.65019,2.314551 -3.64258,1.264308 -7.54636,1.399002 -11.29394,2.216843 -2.943858,0.617212 -5.984553,1.337789 -8.442492,3.166049 -3.584359,2.07848 -7.449414,3.634497 -11.339844,5.037109 -2.368861,0.855865 -4.879111,1.122818 -7.362711,1.416621 -3.04369,0.410708 -5.984591,1.293924 -8.935238,2.110533 -2.450568,0.672366 -4.950618,1.166194 -7.493524,1.28991 -5.217972,0.366826 -10.44695,0.675458 -15.696289,0.659153 -0.792255,0.202374 -0.518835,-0.388501 -0.318878,-0.864889 2.730664,-6.92283 6.193933,-13.622948 10.634765,-19.580078 7.926949,-10.723538 18.684381,-19.362269 30.86343,-24.832435 7.236863,-3.249321 14.937495,-5.39239 22.843161,-6.306251 3.21192,-0.378445 6.389,-0.539639 9.6313,-0.525376 z m 50.4707,18.978515 c 5.45358,4.706736 10.30962,10.210158 14.27539,16.171875 -1.84369,0.436698 -3.31005,1.792135 -4.94538,2.618187 -2.79447,1.532276 -5.58203,3.142499 -8.59969,4.197406 -2.41843,0.722671 -5.07062,0.273808 -7.40419,1.354656 -3.14092,1.284789 -5.9964,3.16935 -9.15685,4.29229 -2.67927,0.945867 -5.78388,0.368128 -8.2571,1.932645 -2.25357,1.697314 -5.19809,2.026738 -7.86169,2.543917 -5.16487,0.882324 -10.42681,1.162357 -15.54463,2.312853 -1.49318,0.281454 -2.75951,1.210075 -4.26739,1.43073 -2.98064,0.615972 -6.03365,0.810511 -9.00968,1.585067 -2.8181,0.642391 -5.510413,1.710715 -8.154568,2.859203 -1.170118,0.445358 -2.389559,0.78449 -3.648438,0.789062 -0.791578,0.03016 -1.218155,0.788167 -1.171875,1.511719 -0.154605,0.290459 -0.665378,0.175982 -0.857421,0.509765 -0.52404,0.515272 -0.524715,1.412928 -1.296345,1.709849 -2.488237,1.395131 -5.45414,1.007123 -8.143005,1.69424 -4.026651,0.793355 -7.874974,2.247098 -11.795026,3.422083 -4.19055,1.007328 -8.541136,0.790093 -12.795393,1.335731 -2.11516,0.2318 -4.186649,0.753596 -6.311158,0.932939 -4.693164,0.526315 -9.426463,0.902633 -14.161027,1.192268 0.439409,-5.416694 1.387842,-10.755563 2.738971,-15.985754 0.330886,-1.233001 0.711483,-2.45171 1.071576,-3.676356 6.039242,-0.252486 12.095429,-0.259426 18.117188,-0.818359 3.54886,-0.320762 6.956292,-1.396886 10.378089,-2.324984 2.724094,-0.701629 5.509078,-1.110381 8.300695,-1.420083 3.755064,-0.606888 7.269446,-2.160421 10.75068,-3.629981 2.24367,-0.9701 4.417281,-2.091667 6.488004,-3.389236 2.723607,-1.560479 5.614098,-2.095074 8.689953,-2.610716 3.3055,-0.553763 6.70363,-0.841574 9.86434,-2.016912 2.4509,-1.240369 5.13087,-2.164326 7.90469,-2.178061 2.31174,-0.253149 3.99427,-2.023343 6.00386,-3.004638 3.00223,-1.70893 6.22474,-2.985307 9.49196,-4.052866 2.3072,-0.825855 4.52466,-1.903529 6.92665,-2.448651 5.56038,-1.461201 11.31962,-2.256117 16.67569,-4.423872 1.86596,-0.766214 3.75959,-1.520315 5.45898,-2.621094 0.0814,0.06836 0.16276,0.136719 0.24414,0.205078 z m -52.11523,6.867188 c -0.55852,0.02787 -0.88301,0.543079 -1.09766,0.986328 -1.4907,0.556171 -3.17879,-0.04083 -4.66797,0.521484 -1.15124,0.674373 -0.41264,2.619303 0.82618,2.681641 1.93552,0.146134 4.21447,0.130792 5.66837,-1.359561 0.93984,-0.813919 0.6856,-2.797559 -0.72892,-2.829892 z m -3.39063,2.738281 c 0.18436,-0.0065 0.55301,-0.0095 0,0 z m 70.14258,8.058594 c 1.29816,0.557873 1.74632,2.047485 2.44689,3.158972 0.87211,1.637047 1.7357,3.285402 2.43006,5.007044 -1.19252,0.174527 -2.42977,0.102005 -3.59431,0.486046 -2.0911,0.508988 -3.85548,1.795887 -5.47027,3.163131 -1.75156,0.159588 -3.58426,0.09351 -5.36704,0.166264 -4.92324,0.135883 -9.85782,0.126868 -14.76955,0.502918 -0.68862,0.07425 -0.61679,0.968629 -0.83176,1.468372 -0.55874,2.238918 -0.78227,4.879985 -2.74385,6.404063 -1.46441,1.077968 -3.38505,0.89486 -5.07021,1.347041 -3.01957,0.619293 -6.06093,1.173943 -9.03755,1.979564 -4.52486,1.369103 -8.454,4.078878 -12.43971,6.530669 -1.254,0.75432 -2.6238,1.460362 -4.13084,1.3913 -3.77084,0.599195 -7.23261,2.339336 -10.92359,3.259254 -0.51981,0.154385 0.50015,-0.192926 0.68368,-0.364821 0.84335,-0.643154 1.84634,-1.024695 2.90008,-1.097473 1.5112,-0.358375 2.73559,-1.421628 4.27344,-1.716797 1.49845,-0.355652 3.04023,-0.550135 4.46764,-1.166946 4.17199,-1.62537 8.20011,-3.665115 11.92397,-6.155851 0.77754,-0.626807 1.87433,-1.19203 2.06347,-2.257281 0.0588,-1.092144 -1.18582,-1.534709 -2.08689,-1.305371 -2.99869,0.461359 -5.46144,2.773421 -8.58059,2.702493 -1.7474,0.149221 -3.6328,-0.252082 -5.27002,0.528659 -1.05991,0.65563 -1.91153,1.673796 -3.17511,1.97023 -3.16862,0.898843 -6.46027,0.915246 -9.73388,1.194835 -1.794,0.199985 -3.80113,0.04821 -5.34421,1.13991 -0.70391,0.666504 -1.60283,1.103447 -2.59109,1.07197 -2.626896,0.189396 -5.364046,-0.208557 -7.895846,0.676621 -0.794774,0.247751 -1.368881,1.00472 -1.377053,1.809715 -1.494781,0.306127 -3.34646,-0.226879 -4.539062,0.988281 -1.263065,1.305482 -3.19764,1.515911 -4.886381,1.884314 -2.511182,0.513941 -5.16059,0.498256 -7.556979,1.478968 -0.828568,0.453367 -1.497308,1.183239 -2.448363,1.41422 -3.593702,1.236527 -7.454487,1.047818 -11.189016,0.828822 -6.403203,-0.262094 -12.813033,-0.306869 -19.216136,-0.565308 4.577005,-0.346976 9.165196,-0.693741 13.693359,-1.462891 2.010941,-0.484964 4.074935,-0.554512 6.183169,-0.735551 3.438766,-0.223398 6.935754,-0.288978 10.247152,-1.353276 4.097182,-1.179585 8.108954,-2.713294 12.333351,-3.411173 2.327516,-0.06177 4.758107,-0.344884 6.818359,-1.503906 0.870631,-0.679887 1.597926,-1.538532 2.369141,-2.328125 0.297369,-0.328353 0.447988,-0.799602 0.613281,-1.158203 0.98186,-0.150481 1.993879,-0.194011 2.9375,-0.560547 2.519574,-0.813584 4.847644,-2.137391 7.422484,-2.800877 3.22386,-0.990471 6.59565,-1.272079 9.90369,-1.839748 1.19054,-0.204647 2.35443,-0.542165 3.40717,-1.140269 2.79429,-0.909336 5.77633,-1.142503 8.64976,-1.576629 4.49252,-0.637502 9.04977,-1.029266 13.4307,-2.261441 1.25978,-0.338709 2.38962,-0.999265 3.40357,-1.803581 1.88212,-0.961707 4.07995,-0.807479 6.11272,-1.194319 4.06808,-0.563228 7.28382,-3.366608 10.98045,-4.90462 1.87157,-0.741265 4.10688,-0.425737 6.14243,-0.973491 4.44173,-0.997997 8.33783,-3.472126 12.14598,-5.856656 0.73833,-0.384974 1.46695,-0.88277 2.28581,-1.058525 z m 4.38672,9.74414 c 0.63537,0.02217 1.59675,-0.119661 1.75199,0.718113 1.0422,2.883242 2.22051,5.676974 3.0566,8.623684 -0.44593,0.01306 -1.14877,-0.245287 -1.70009,-0.313943 -2.07824,-0.467431 -4.32195,-0.299037 -6.19765,0.763451 -3.24698,1.65581 -5.94933,4.269216 -9.36155,5.611753 -2.14925,0.757551 -4.31566,0.372741 -6.57875,0.584511 -3.75799,0.293456 -7.09634,2.225759 -10.49146,3.687996 -5.42129,2.505145 -10.987,4.622716 -16.88002,5.684231 -0.91295,0.175696 -1.79453,0.324998 -2.70258,0.46833 1.01782,-0.683713 1.73546,-2.119006 1.05859,-3.265626 -0.6848,-0.744354 -1.83729,-0.58006 -2.75663,-0.658214 -0.87503,-0.02475 -1.74994,0.213993 -2.45357,0.732041 -3.52389,1.164453 -7.4415,0.655936 -10.83704,2.302694 -2.71148,1.290291 -5.36311,2.602483 -8.18157,3.692172 -1.96079,0.826307 -3.45183,2.374748 -4.96493,3.812373 -1.72767,1.601662 -3.92696,2.491881 -5.96791,3.597928 -1.34038,0.731329 -2.520065,1.724574 -3.473117,2.915534 -1.103473,0.97786 -2.67502,1.0412 -4.002554,1.39072 -4.054577,0.82399 -8.167545,1.53264 -12.05273,2.99386 -2.866143,1.18157 -5.667751,2.56292 -8.698383,3.28657 -4.68763,1.27289 -9.499815,2.07536 -14.155172,3.5357 -4.254485,1.09043 -8.684897,1.03745 -12.991392,1.82538 -2.21036,0.3253 -4.507909,0.71625 -6.783363,0.6377 -0.664355,-2.42722 -1.100382,-4.90927 -1.685547,-7.35547 1.843019,0.11935 3.691059,-0.0387 5.504284,-0.38842 3.408848,-0.63522 6.828065,-1.46518 9.942887,-3.02955 3.849926,-1.60317 8.316044,-0.59913 12.065124,-2.55455 3.082662,-1.5937 6.307631,-2.910004 9.651768,-3.843889 6.483562,-2.015436 13.000494,-4.220884 19.443359,-6.160157 1.707129,-0.492089 3.536411,-0.976761 5.2676,-0.676874 1.931646,0.238427 3.833986,-0.241007 5.679326,-0.752551 2.13589,-0.486108 4.33721,-0.65832 6.42036,-1.374338 3.52554,-0.977034 6.87476,-2.634248 10.44152,-3.150812 2.33259,0.02316 4.27178,-1.479202 6.20009,-2.592182 3.37506,-2.083796 6.6895,-4.351468 10.59948,-5.330668 4.16093,-1.174965 8.48822,-1.636771 12.62657,-2.887738 1.76509,-0.496268 3.45609,-1.667415 4.02431,-3.485843 0.5926,-1.56579 0.78456,-3.277001 1.16457,-4.873994 6.04062,-0.264118 12.09367,-0.25902 18.12877,-0.628492 1.18084,-0.05902 2.41425,-0.345817 3.22865,-1.267992 1.92552,-1.352467 4.31241,-2.157165 6.66016,-2.273438 z m 1.04688,10.314454 c 1.41717,0.140074 2.86824,0.382334 4.21484,0.789062 0.7239,2.286516 1.24614,4.650464 1.60937,6.998047 -1.62775,0.362611 -3.07995,1.251953 -4.24433,2.431753 -2.62995,2.351793 -5.87154,4.107724 -9.4101,4.528438 -4.55642,0.435411 -9.09091,1.31381 -13.42764,2.803008 -1.72164,0.510751 -3.13393,1.681092 -4.84752,2.211751 -1.6133,0.556517 -3.46634,1.13507 -5.26974,1.125307 -1.78404,0.0473 -3.36063,1.25594 -4.05067,2.872399 -0.41589,0.82043 -0.72134,1.788142 -1.33789,2.476563 -4.87523,0.550586 -9.77578,0.620296 -14.68554,0.904296 -2.07575,1.17783 -4.03272,2.63079 -6.27785,3.47029 -2.72249,0.52988 -5.21425,2.12287 -8.0396,2.14196 -3.51385,0.37165 -6.90602,1.45479 -10.27373,2.47628 -4.6503,1.41184 -9.09292,3.403 -13.664682,5.04038 -2.191033,0.72555 -4.616367,1.04385 -6.937613,1.37423 -6.124284,0.7988 -12.350259,0.8735 -18.556528,1.17069 -4.37541,1.42527 -8.697006,3.02588 -13.118499,4.30355 -3.140185,0.82167 -6.4205,0.67825 -9.637281,0.79696 -1.985542,-0.0387 -4.012465,0.11454 -5.96297,-0.32317 -1.184081,-0.18681 -1.255787,-1.57723 -1.621516,-2.47609 -0.280847,-0.65452 -0.505325,-1.27446 0.456245,-1.16683 4.816914,-0.78808 9.653497,-1.41325 14.527554,-1.79289 1.807996,-0.18883 3.609251,-0.51515 5.307013,-1.17803 6.182067,-1.83129 12.72712,-2.43746 18.65336,-5.09936 2.437769,-1.09494 4.911795,-2.13382 7.523459,-2.7419 3.578547,-0.95613 7.328022,-1.39803 10.917557,-2.42576 0.932583,-0.23624 1.636295,-0.92621 2.082187,-1.75176 1.521514,-1.7456 3.706654,-2.708538 5.817974,-3.532691 1.9845,-1.027844 3.41201,-2.788244 5.09007,-4.209687 2.26826,-1.629274 4.92777,-2.591445 7.42186,-3.813381 2.58401,-1.207011 5.24208,-2.408784 8.12456,-2.632705 2.01692,-0.274585 4.13671,-0.317782 6.01804,-1.163288 0.99226,-0.677718 2.32296,-0.686111 3.46679,-0.488282 0.075,0.758961 -0.89043,1.076748 -1.40854,1.435749 -0.91884,0.553453 -2.03485,0.919537 -2.73403,1.755657 -0.37371,0.579458 0.46554,1.017615 0.99023,0.925782 3.21409,-0.119167 6.39372,-0.737999 9.52467,-1.445107 5.95672,-1.429833 11.55291,-3.981121 17.09479,-6.531769 2.4755,-1.103694 5.05707,-2.085048 7.74187,-2.163749 2.31317,-0.04647 4.85354,0.03644 7.02394,-1.050674 3.29614,-1.519926 5.94376,-4.146005 9.25535,-5.630967 0.83661,-0.341738 1.74363,-0.479734 2.64454,-0.414062 z m -50.6836,2.289062 c 0.47792,0.03049 -0.52946,0.403101 -0.69582,0.593192 -2.27306,1.594507 -4.62293,3.119554 -7.23467,4.103339 -2.0112,0.858262 -3.82739,2.206874 -6.02325,2.583853 -2.09041,0.259279 -4.13572,0.860418 -5.99421,1.861181 -1.06873,0.573435 -2.3297,0.494495 -3.38724,1.100108 -1.28126,0.694259 -2.62727,1.30853 -4.09768,1.4503 -4.68117,0.605223 -9.437869,0.725775 -14.047597,1.817793 -1.528349,0.359391 -3.105067,0.298078 -4.644531,0.552734 -3.870932,0.905134 -7.574628,2.446117 -11.308567,3.748792 -4.132302,1.485904 -8.332836,2.821944 -12.640049,3.694237 -1.66187,0.487271 -2.987566,1.645002 -4.233025,2.795253 -4.102202,0.14809 -8.204381,0.29689 -12.30664,0.44336 -2.949095,1.47313 -5.755513,3.35529 -8.978403,4.18617 -0.77526,0.18195 -1.576924,0.19583 -2.365347,0.28844 -0.505135,-4.04127 -0.516378,-8.119473 -0.496094,-12.185549 9.265338,0.19822 18.534107,0.342508 27.791406,0.78734 3.114828,-0.007 6.406902,-0.232744 9.163218,-1.821284 1.969606,-1.42979 4.467224,-1.500172 6.759873,-1.863518 2.101092,-0.347347 4.33025,-0.483474 6.232068,-1.523348 0.645062,-0.26296 0.772863,-1.088715 1.401091,-1.325283 1.347938,-0.343093 2.826286,0.125262 4.123047,-0.429688 0.764017,-0.32534 0.1991,-1.411646 0.951172,-1.703125 1.937534,-0.727831 4.069445,-0.477906 6.099609,-0.560547 1.470439,-0.0124 3.108359,-0.05824 4.224999,-1.163499 1.28221,-0.982271 3.01111,-0.855426 4.53278,-1.079274 3.39732,-0.351165 6.84356,-0.374038 10.19641,-1.063686 1.241,-0.218508 2.25528,-1.000587 3.089,-1.902165 1.20107,-0.714207 2.69073,-0.549837 4.03264,-0.711212 2.26413,-0.153087 4.69844,-0.186434 6.63636,-1.531548 0.99069,-0.548863 2.06323,-1.107005 3.21945,-1.142366 z m 56.96094,8.271484 c 0.57878,4.139358 0.71821,8.291594 0.96289,12.453126 -3.64088,1.714114 -7.68738,2.503741 -11.68146,3.05363 -3.13857,0.345557 -6.11714,1.483412 -9.12784,2.371612 -6.05196,1.92 -12.0105,4.11749 -18.01687,6.15874 -2.89222,0.91722 -5.97649,0.66495 -8.96308,0.57751 -2.9846,-0.11814 -5.87497,-0.54684 -8.85333,-0.92126 -3.74133,-0.45104 -7.58463,-0.32008 -11.2051,0.7926 -5.82204,1.6622 -11.16841,4.77527 -17.16988,5.84892 -7.952361,1.54308 -16.080224,2.0879 -23.97203,3.95404 -3.241172,0.74133 -6.375794,2.13323 -8.846897,4.39673 -2.115494,1.83861 -4.103898,3.90052 -6.579327,5.26102 -3.004413,1.473 -6.283851,2.39492 -9.508014,3.13536 -3.894365,0.83149 -7.87137,1.01101 -11.902344,0.96094 -0.582172,-0.0649 -1.420214,0.27526 -1.527309,-0.5418 -1.362694,-2.92139 -2.832727,-5.79812 -4.031285,-8.79218 4.928852,-0.0286 9.869557,0.0131 14.791016,-0.0625 4.958956,-1.63893 9.904221,-3.35182 14.871397,-4.94559 6.668119,-0.35323 13.390689,-0.29611 19.987564,-1.44357 5.077172,-0.84411 9.869719,-2.85207 14.625409,-4.67725 4.46256,-1.58812 8.95514,-3.08791 13.63282,-3.83008 1.4735,-0.0656 2.94013,-0.26698 4.33398,-0.77344 1.66142,-0.56915 3.27791,-1.35409 5.04297,-1.5371 2.04411,-0.59773 3.51839,-2.34036 5.58203,-2.91602 2.37216,-0.70024 4.87869,-0.66199 7.36706,-0.83135 2.56721,-0.17093 5.15729,-0.20676 7.69935,-0.61982 1.24546,-0.88322 1.78595,-2.418915 2.45974,-3.732218 0.23374,-0.616371 0.494,-1.198682 1.25415,-1.138887 3.36981,-0.740308 6.95996,-1.116255 9.92922,-3.019362 3.22031,-1.44618 6.69985,-2.215626 10.14738,-2.906115 2.24353,-0.499979 4.55434,-0.500445 6.80957,-0.906453 2.93278,-0.541 5.39895,-2.335916 7.93857,-3.785141 1.28911,-0.786039 2.57277,-1.584085 3.80902,-2.451279 0.0469,0.289062 0.0937,0.578125 0.14063,0.867187 z m -83.61328,4.841797 c -1.72259,0.301213 -3.4817,0.596812 -5.14844,1.16211 -2.7249,0.428331 -5.759613,0.08886 -8.580602,0.648013 -3.579839,0.827287 -6.953026,2.29606 -10.444225,3.401424 -3.736896,1.290999 -7.546525,2.354188 -11.312136,3.550093 -2.999624,0.968957 -5.895123,2.216262 -8.754635,3.534511 -3.540143,1.59312 -7.511217,0.95052 -11.142004,2.24628 -1.811449,0.69542 -3.545036,1.57262 -5.437555,2.06916 -2.97093,0.86494 -6.04611,1.49008 -9.147202,1.55247 -0.301502,4.4e-4 -1.180476,-0.0357 -0.949219,-0.43945 0.913122,-0.30593 1.927088,-0.10846 2.834718,-0.49381 3.234372,-1.09112 6.176411,-2.86672 9.239501,-4.34604 3.310259,-0.0513 6.629295,0.10156 9.933594,-0.125 1.869297,-0.1108 3.312125,-1.39487 4.80624,-2.361123 2.568531,-1.19044 5.43585,-1.449713 8.113744,-2.316102 5.74321,-1.611483 11.142811,-4.303652 16.976614,-5.606994 2.674367,-0.288236 5.335548,-0.923232 7.925196,-1.282117 3.960911,-0.621516 7.980521,-0.75673 11.937971,-1.388737 -0.28385,0.0651 -0.56771,0.130208 -0.85156,0.195312 z m 84.33398,9.75 c -0.23756,1.10556 -0.22366,2.245781 -0.3457,3.359371 -0.66595,0.87965 -1.85042,1.15578 -2.7832,1.67942 -5.19776,2.48713 -10.91241,3.77138 -16.53349,4.75761 -2.67797,0.5146 -5.41954,0.59538 -8.09235,1.12253 -2.20515,0.44468 -3.81385,2.15332 -5.80448,3.08002 -4.31103,2.18377 -8.98069,3.51769 -13.48648,5.2269 -2.7151,0.90718 -5.49904,2.41079 -8.44844,1.7761 -3.34953,-0.80317 -6.26186,-2.62709 -9.3774,-4.01744 -2.81327,-1.25205 -5.82876,-2.76421 -9.00159,-2.23137 -3.21525,0.60149 -5.9296,2.56904 -8.88859,3.84842 -2.11188,1.03541 -4.33109,1.81743 -6.5039,2.70508 -1.6219,0.69868 -3.33839,1.94959 -3.449221,3.87109 -0.115167,0.88417 0.04846,2.04389 1.066411,2.30274 0.86993,0.33884 2.04551,0.31949 2.77734,0.6582 -1.05208,0.41031 -2.30279,0.44414 -3.24414,1.24414 -1.573341,1.24504 -2.68764,2.9698 -4.31259,4.16368 -0.716907,0.55928 -1.437096,1.12117 -1.839756,1.96132 0.83444,-0.0393 1.624471,0.27389 2.478912,0.20877 6.289994,0.0394 12.584134,-0.16473 18.860434,-0.57103 2.78231,-0.10215 5.37048,-1.24551 7.94715,-2.18788 1.79736,-0.67536 3.59299,-1.55672 5.59228,-1.29014 1.07647,0.2166 2.20582,-0.1236 2.94284,-0.94698 1.58805,-1.68817 3.4319,-3.1412 5.52561,-4.15103 1.79331,-0.96645 3.74986,-1.39929 5.68841,-1.89516 2.92732,-0.93173 5.5727,-2.50206 8.43142,-3.57455 4.86403,-1.92913 9.89968,-3.57099 15.12191,-4.14671 5.0746,-0.8894 10.02838,-2.44025 14.77236,-4.43943 1.75925,-0.81531 3.44122,-1.72527 5.31311,-2.14055 1.45095,-0.33333 2.96445,-0.72663 4.45642,-0.49031 -0.58262,3.22919 -1.37899,6.37703 -2.32564,9.51697 -0.17018,0.59247 -1.00024,0.45425 -1.48514,0.60265 -2.91088,0.43317 -6.14514,0.19081 -9.10936,0.98063 -3.01466,0.9078 -5.26768,3.25644 -7.97443,4.75656 -3.14417,1.9228 -6.68842,3.18043 -10.32808,3.93421 -3.83117,0.72909 -7.6109,2.0589 -11.33936,3.28953 -3.86699,1.26916 -7.63816,2.80153 -11.4484,4.22526 -4.94863,1.70553 -9.90844,3.41712 -14.98959,4.68833 -2.04437,0.4862 -4.34635,0.68778 -6.41618,-0.0863 -2.40092,-0.90437 -4.77392,-1.96066 -7.3349,-2.33647 -4.75413,-0.7492 -9.591469,-0.37691 -14.372858,-0.14588 -4.443284,0.17294 -8.780838,1.23041 -13.03638,2.4524 -3.79784,1.00876 -7.579928,2.14454 -11.46812,2.75287 -4.618588,0.54949 -9.222159,0.74553 -13.876641,0.54843 -0.876224,-0.0477 -1.794724,-0.12051 -2.694136,-0.17917 -2.295046,-3.29165 -4.664891,-6.49921 -6.695313,-9.94922 3.819686,0.0616 7.659908,-0.039 11.419867,-0.77205 4.195192,-0.78891 8.38122,-1.95947 12.148493,-4.00334 2.884313,-1.95125 5.075446,-4.67474 7.962242,-6.58431 2.159488,-1.48184 4.803799,-1.95588 7.295251,-2.60083 6.475667,-1.52607 13.109877,-2.14907 19.670855,-3.17317 3.64717,-0.52097 7.22927,-1.46483 10.63736,-2.86886 4.31542,-1.60144 8.58073,-3.47867 13.12994,-4.31737 5.01612,-0.82855 10.0151,0.58327 15.01827,0.83031 4.76499,0.32892 9.70417,0.13896 14.16825,-1.72557 6.76486,-2.47047 13.61342,-4.85895 20.58753,-6.74963 2.22012,-0.60661 4.53874,-0.681 6.77446,-1.22264 2.46663,-0.549007 4.95599,-1.103147 7.28904,-2.09574 -0.0234,0.116536 -0.0469,0.233073 -0.0703,0.349609 z m -0.5,5.810551 c -0.11458,0.78674 -0.22921,1.58788 -0.52539,2.33007 -2.52999,0.54568 -5.2548,0.31138 -7.6099,1.55158 -2.46015,1.33763 -5.04265,2.43842 -7.70781,3.30067 -4.03745,1.34391 -8.18183,2.43137 -12.41666,2.86065 -1.9235,0.25416 -3.85386,0.55501 -5.65789,1.30203 -3.74642,1.36189 -7.50779,2.7174 -11.12922,4.38742 -3.0733,1.60548 -6.56796,2.10551 -9.76022,3.41905 -2.31337,0.80227 -4.16942,2.61343 -5.72476,4.35108 -0.84089,1.10596 -2.32299,0.86555 -3.538,0.94262 -3.64079,0.17614 -6.77176,2.32507 -10.3141,2.95718 -5.64218,1.20146 -11.51144,1.05395 -17.33519,1.04042 -0.969541,-0.0122 -1.938569,0.0262 -2.907811,0.0436 1.144479,-0.71266 2.056781,-1.70203 2.872721,-2.76051 0.82658,-1.03668 2.07053,-1.78266 3.43001,-1.69261 1.07753,-0.0469 2.21119,-1.17962 1.63477,-2.26953 -0.59921,-0.99771 -1.9364,-1.00898 -2.95538,-1.23616 -0.50304,-0.0524 -1.35535,-0.25313 -1.07914,-0.9473 0.28908,-1.13803 0.96025,-2.25812 2.14027,-2.63268 2.16064,-0.80453 4.33384,-1.5868 6.41631,-2.58678 2.9422,-1.28759 5.7353,-2.95143 8.79697,-3.94535 2.52392,-0.4312 4.95704,0.71002 7.23682,1.64216 3.60558,1.52897 7.0376,3.73286 10.9364,4.57321 2.72561,0.63155 5.43912,-0.36552 7.94528,-1.34676 4.96418,-1.92921 10.09539,-3.45076 14.88795,-5.79798 2.08282,-0.89735 3.72109,-2.77123 6.05425,-3.0589 3.22856,-0.42513 6.47751,-0.72789 9.67548,-1.36412 5.2073,-0.98317 10.38884,-2.36052 15.14606,-4.74481 0.50428,-0.22622 1.00573,-0.45822 1.51553,-0.67172 -0.009,0.11784 -0.0182,0.23568 -0.0273,0.35352 z m -5.82031,15.87695 c 0.70564,0.0186 1.41374,-0.005 2.11719,0.0625 -1.47623,4.04357 -3.31315,7.98531 -5.29141,11.77306 -0.67582,1.19622 -1.31002,2.71963 -2.8123,3.03429 -1.93097,0.68219 -3.64157,1.85542 -5.59735,2.48472 -3.34509,1.24725 -6.88746,2.29286 -10.03161,4.11249 -2.58375,1.38906 -4.87497,3.03323 -7.54913,4.20504 -3.48162,1.60971 -7.00943,3.12063 -10.7275,4.16197 -5.22506,1.25348 -10.67171,1.84866 -15.9274,3.11722 -2.07541,0.42615 -4.00036,1.31401 -5.97762,2.0389 -2.95245,0.91134 -6.00796,1.45749 -9.05087,1.97241 -8.27525,1.25573 -16.640589,2.26627 -24.952045,3.11334 -5.785918,0.51683 -11.592077,0.56917 -17.408939,0.52758 -0.711613,9.1e-4 -1.201128,-0.71455 -1.818306,-1.01823 -4.835077,-3.19771 -9.289406,-7.06586 -13.392064,-11.24411 -1.069797,-1.10331 -2.06087,-2.27861 -3.065021,-3.44079 5.751318,-0.16279 11.579211,0.31075 17.244141,-0.94141 5.989165,-1.2491 11.826926,-3.25426 17.835937,-4.22656 5.851508,-0.98714 11.828077,-1.45654 17.657357,-0.55055 2.61503,0.37685 5.14032,1.19923 7.55095,2.26308 3.51396,1.3488 7.34734,0.44514 10.81947,-0.5732 3.73732,-1.13892 7.41573,-2.48301 11.19683,-3.47527 3.48809,-1.22871 6.72659,-2.89037 10.23017,-4.06524 4.04772,-1.43962 8.29422,-2.86045 12.45372,-3.73812 5.36572,-1.05961 10.55932,-3.1898 14.93516,-6.50079 2.04305,-1.48257 4.3653,-2.72408 6.9329,-2.88174 1.53677,-0.16082 3.08406,-0.18384 4.62774,-0.21059 z m -65.83984,0.20703 c -3.36528,0.0697 -6.41747,1.81874 -8.88789,3.98758 -1.26405,1.14806 -2.75957,2.30883 -3.22735,4.02805 -0.23436,1.08939 0.86314,1.82017 1.83355,1.84486 3.39023,0.27775 6.7839,-0.29992 10.11372,-0.88588 2.23313,-0.43481 4.46447,-0.99165 6.50729,-2.01435 1.09832,-0.53453 2.37826,-0.55757 3.44974,-1.13018 0.84539,-0.66694 0.40382,-1.90397 0.0695,-2.73758 -0.94849,-2.00038 -3.32316,-2.6188 -5.33677,-2.88524 -1.49816,-0.18879 -3.01273,-0.24121 -4.52175,-0.20726 z m 0.80273,1.44336 c 2.11951,0.0745 4.26733,0.33924 6.28861,0.99568 0.87919,0.31746 1.66496,1.2843 1.54342,2.23674 -0.70291,0.1672 -1.47983,0.28124 -2.15965,0.61178 -2.48634,1.20069 -5.139,1.79219 -7.83001,2.36415 -2.69067,0.49479 -5.3972,1.04509 -8.15682,0.80532 -0.35656,-0.0922 -0.89107,-0.0857 -1.08789,-0.4375 1.00319,-1.57505 2.54553,-2.72473 3.99165,-3.87373 2.13414,-1.58265 4.70676,-2.75641 7.41069,-2.70244 z m 59.01758,15.07031 c -2.24609,3.69455 -5.05068,7.01707 -7.90234,10.25426 -10.6491,11.89921 -25.04925,20.21605 -40.61497,23.69642 -4.65715,1.06686 -9.43413,1.67643 -14.23031,1.94011 -1.87276,0.11268 -3.72813,0.34552 -5.60415,0.0764 -5.20331,-0.32095 -10.40367,-0.91689 -15.470275,-2.17912 -5.765074,-1.38323 -11.267781,-3.35541 -16.605457,-5.97725 -1.509973,-0.74932 -3.013675,-1.51362 -4.488515,-2.33039 3.552742,-0.17888 7.217337,-0.0717 10.805321,-0.35656 10.128954,-0.68811 20.222076,-1.91268 30.234836,-3.58131 2.58639,-0.48833 5.21059,-0.85771 7.73674,-1.60786 2.24591,-0.72197 4.3238,-1.76094 6.65178,-2.22943 5.55811,-1.34336 11.2861,-1.8728 16.81531,-3.33939 4.49578,-1.43868 8.83571,-3.3509 13.02567,-5.51772 2.62955,-1.42993 5.05743,-3.23719 7.85421,-4.35543 2.54974,-1.11052 5.30282,-1.66147 7.81869,-2.86251 1.39257,-0.58367 2.70762,-1.33764 4.11018,-1.89979 -0.0456,0.0898 -0.0911,0.17969 -0.13672,0.26953 z" />
    <path
       id="path6212"
       style="fill:#68584a;fill-opacity:1;stroke-width:1.18024"
       d="m 192.45117,102.61133 c -1.4475,0.28769 -2.74312,1.11028 -4.11495,1.64443 -4.54837,2.05101 -9.44183,3.13645 -14.3235,4.02041 -3.25489,0.61523 -6.58733,0.80976 -9.81429,1.55068 -2.08751,0.893 -3.86602,2.37735 -5.97394,3.24141 -4.82575,2.13948 -9.83012,3.84362 -14.78184,5.66315 -1.51767,0.56773 -3.09764,1.02635 -4.65983,0.97864 -2.11083,0.11266 -3.98092,-0.82098 -5.82871,-1.60278 -3.42717,-1.45442 -6.69538,-3.33228 -10.28809,-4.36508 -1.97983,-0.49653 -4.15919,-0.55511 -6.02347,0.38335 -4.21944,1.87768 -8.35008,3.96244 -12.66072,5.63197 -1.62442,0.63747 -3.33817,1.68285 -3.77727,3.4986 -0.398793,0.97482 -0.229658,2.31292 0.84058,2.76977 0.88073,0.47096 1.90054,0.53894 2.82205,0.89795 -0.8215,0.22114 -1.712,0.29355 -2.46875,0.74609 -1.17074,0.50523 -2.014603,1.46401 -2.797607,2.43044 -1.687274,1.83874 -3.958223,2.97007 -5.958255,4.41917 6.728204,-0.10409 13.469512,0.0514 20.185512,-0.42525 3.37017,-0.24077 6.70596,-0.929 9.85993,-2.15206 2.05678,-0.71399 4.05365,-1.48695 6.26746,-1.50788 1.38557,-0.009 2.78151,-0.44602 3.75753,-1.46706 1.6931,-1.60622 3.39473,-3.3567 5.68392,-4.07775 3.33268,-1.22883 6.83461,-2.00687 10.03507,-3.58521 3.97184,-1.69364 7.99042,-3.30531 12.11683,-4.58362 4.11398,-0.9037 8.3584,-1.19083 12.39336,-2.45934 4.10996,-1.18461 8.12476,-2.69639 11.98204,-4.54799 2.25798,-1.12726 4.8671,-0.84432 7.23832,-1.52935 1.11622,-0.56017 1.20951,-2.00008 1.43706,-3.08636 0.14483,-0.95168 0.1281,-2.39899 -1.14844,-2.48633 z m -70.67383,19.49414 c 2.0168,0.0423 4.1769,0.11941 6.04102,1.06445 0.70995,0.42388 1.28235,1.12015 1.44531,1.94141 -1.97441,0.86776 -4.04597,1.5035 -6.08443,2.2052 -3.73897,1.0042 -7.74056,1.65158 -11.67172,1.69072 -0.53165,-0.0231 -1.08199,-0.033 -1.58564,-0.21623 0.98447,-1.79389 2.69312,-3.0513 4.28906,-4.27344 1.61181,-1.16565 3.51325,-2.19314 5.58315,-2.29959 0.65769,-0.0796 1.32151,-0.0976 1.98325,-0.11252 z" />
    <path
       id="path6214"
       style="fill:#ee673a;fill-opacity:1;stroke-width:1.18024"
       d="m 121.03125,120.57031 c -4.06979,0.0925 -7.72976,2.39295 -10.54031,5.18718 -0.75156,0.86352 -1.83459,1.63437 -2.04758,2.82454 0.0419,1.3191 1.54276,1.85978 2.65692,1.95823 2.58645,0.20553 5.16555,-0.32167 7.71069,-0.7199 3.25459,-0.57893 6.42069,-1.56501 9.48981,-2.77739 0.76233,-0.20169 1.70497,-0.26151 2.10352,-1.07031 0.77125,-1.53595 -0.38836,-3.37132 -1.79964,-4.05926 -1.92804,-0.90451 -4.10185,-1.11573 -6.19841,-1.31965 -0.45805,-0.0263 -0.91621,-0.0323 -1.375,-0.0234 z" />
    <path
       id="path6242"
       style="fill:#e16e47;fill-opacity:1;stroke-width:0.834554"
       d="m 184.83789,72.068359 c -2.6211,0.07131 -4.7421,1.831133 -6.86214,3.161903 -2.37781,1.503246 -4.69667,3.494944 -7.62809,3.687707 -3.04848,0.224652 -6.19171,0.190202 -9.07478,1.356141 -4.68965,1.783954 -9.11561,4.156869 -13.85463,5.787892 -3.7784,1.404499 -7.77567,2.328518 -11.73075,2.85206 0.94476,-0.609714 1.83704,-1.864547 1.18164,-2.984374 -0.72189,-1.107601 -2.22415,-0.828746 -3.34956,-0.79129 -0.9802,-0.01895 -1.80764,0.505814 -2.68164,0.849757 -3.31546,0.853448 -6.85948,0.723371 -10.0511,2.082843 -3.08276,1.288653 -6.13718,2.665098 -9.09615,4.218052 -2.9809,1.463295 -4.82977,4.53968 -7.9689,5.743187 -2.26181,0.96381 -4.482446,2.285803 -5.89211,4.358783 -1.092811,0.71131 -2.480999,0.77734 -3.722372,1.10563 -4.706506,0.99283 -9.503966,1.81237 -13.921761,3.79827 -3.092165,1.38411 -6.322928,2.52788 -9.59248,3.237 -4.124259,0.97203 -8.288199,1.78912 -12.335255,3.05988 -3.493498,0.79178 -7.061608,0.84738 -10.598646,1.36846 -2.830018,0.37612 -5.678167,0.67913 -8.478997,1.23239 -0.98306,0.17862 -1.057577,1.38106 -0.719786,2.12992 0.492315,1.3764 0.76479,3.05273 2.063055,3.92548 1.672145,0.87908 3.637714,0.52956 5.451952,0.62629 3.138614,-0.0406 6.291016,0.0272 9.417346,-0.27353 3.71194,-0.63899 7.222953,-2.07547 10.803586,-3.19916 1.577466,-0.49302 3.127634,-1.13224 4.722234,-1.53349 6.71824,-0.34468 13.473966,-0.41839 20.134178,-1.43847 2.722415,-0.39826 5.406648,-1.0587 7.949219,-2.12305 6.376997,-2.47411 12.799497,-4.98104 19.537107,-6.28711 2.0627,-0.23242 4.13354,-0.50648 6.08985,-1.23633 1.45313,-0.52719 2.95052,-0.93243 4.41186,-1.41719 2.00499,-0.89547 3.83572,-2.17554 5.76028,-3.18542 4.70914,-0.25515 9.42958,-0.40081 14.12278,-0.87004 1.35963,-0.11291 1.7756,-1.620883 2.37057,-2.610496 0.5716,-0.9861 0.92506,-2.183016 2.1567,-2.487007 1.65835,-0.429566 3.4097,-0.411909 5.04695,-0.961041 2.71615,-0.670153 5.01084,-2.389351 7.69967,-3.129578 3.8142,-1.146211 7.79036,-1.879659 11.77417,-2.327484 3.47103,-0.474059 6.76371,-1.960461 9.45513,-4.196692 1.41811,-1.186348 2.78164,-2.431132 4.64044,-2.846866 0.88414,-0.168785 1.20802,-1.183169 0.91692,-1.956464 -0.44089,-2.585221 -1.08635,-5.242543 -1.86133,-7.791016 -2.06952,-0.449775 -4.1469,-1.019934 -6.28516,-0.935547 z" />
    <path
       id="path6244"
       style="fill:#6c5353;fill-opacity:1;stroke-width:0.834554"
       d="m 192.11719,81.425781 c -0.98455,0.201651 -1.68129,1.041683 -2.55437,1.494043 -2.5305,1.566823 -5.04069,3.206375 -7.75856,4.433062 -2.51004,1.012198 -5.2812,0.860544 -7.90192,1.391255 -4.46232,0.755654 -8.93333,1.849505 -12.96731,3.957941 -2.99249,1.317726 -6.25757,1.600324 -9.40573,2.446356 -0.60784,0.54148 -0.78065,1.443345 -1.21104,2.128139 -0.46057,0.853778 -0.84739,1.816708 -1.57217,2.475376 -4.4429,0.520637 -8.94588,0.419437 -13.37178,1.088697 -2.28643,0.35882 -4.20522,1.74734 -6.15165,2.89373 -1.24255,0.52619 -2.6186,0.63878 -3.86861,1.16134 -2.04829,0.78247 -4.17685,1.35591 -6.36895,1.52546 -4.58676,0.72428 -9.00663,2.23112 -13.37763,3.75898 -4.98107,1.82365 -9.964848,3.93893 -15.211954,4.75432 -6.408431,0.99293 -12.875639,1.04616 -19.342661,1.34951 -1.851964,0.47839 -3.65846,1.20066 -5.492995,1.77249 -3.242514,1.05905 -6.471279,2.20288 -9.72236,3.20911 -4.836499,0.0303 -9.677874,-0.0774 -14.51122,0.097 -0.82964,-0.10341 -1.721791,0.67762 -1.350597,1.53174 1.428717,3.72155 3.324241,7.24564 4.930567,10.89278 5.802496,-0.14798 11.704191,-0.16206 17.315267,-1.84137 3.333324,-0.99069 6.789153,-2.00912 9.519638,-4.26415 3.103127,-2.35953 5.703692,-5.56167 9.495313,-6.8643 3.986468,-1.43341 8.224028,-1.94635 12.383657,-2.63525 5.473145,-0.88115 11.008245,-1.43919 16.416635,-2.67445 6.62461,-1.58287 12.59508,-5.31747 19.38918,-6.27606 3.30129,-0.22243 6.54786,-0.0231 9.81013,0.45563 4.37624,0.46573 8.82232,0.96926 13.20924,0.35776 3.14311,-0.63008 6.1172,-1.88481 9.1531,-2.88564 5.87128,-2.00996 11.71316,-4.1629 17.75193,-5.62588 3.17572,-0.68891 6.43579,-0.96623 9.55905,-1.902341 1.68695,-0.496649 3.40118,-1.025858 4.93436,-1.894731 0.95909,-0.719949 0.49662,-2.027316 0.52734,-3.035156 -0.29678,-4.180796 -0.40005,-8.403799 -1.20741,-12.52388 -0.11045,-0.47864 -0.57691,-0.763743 -1.04649,-0.751511 z" />
    <path
       id="path6246"
       style="fill:#cc9f80;fill-opacity:1;stroke-width:0.834554"
       d="m 193.3125,96.638672 c -1.44813,0.324237 -2.80187,1.012453 -4.25975,1.337863 -3.2369,0.951175 -6.58315,1.409566 -9.89064,2.027375 -6.17908,1.53896 -12.19269,3.66863 -18.19786,5.77058 -2.74518,0.95021 -5.45955,2.05598 -8.26113,2.57121 -2.00335,0.35998 -4.23407,0.37829 -6.33627,0.35425 -5.23749,-0.0511 -10.5003,-1.39588 -15.81315,-1.05746 -3.36809,0.10296 -6.52307,1.42955 -9.68108,2.46867 -4.89438,1.68557 -9.6517,3.92325 -14.81695,4.68026 -8.108601,1.34445 -16.361646,2.02821 -24.291476,4.28585 -2.233191,0.59199 -4.307157,1.68321 -6.068404,3.17772 -2.170599,1.67422 -3.999954,3.77962 -6.314931,5.26259 -3.390837,1.89466 -7.165312,2.91555 -10.924424,3.6983 -3.09719,0.65873 -6.26399,0.8657 -9.424794,0.831 -1.444302,0.0167 -2.892725,-0.0313 -4.334375,0.0195 -0.554214,0.37097 -0.192232,0.93229 0.09938,1.36499 2.306019,4.03786 5.091178,7.77331 7.720931,11.6018 2.610588,0.18902 5.222429,0.39599 7.841957,0.26849 4.576389,-0.0476 9.178314,-0.29832 13.643106,-1.37319 6.739336,-1.46912 13.288816,-4.02722 20.238655,-4.3714 4.503444,-0.25387 9.164884,-0.57498 13.632964,0.009 3.19919,0.34478 6.06401,1.93553 9.15155,2.70373 3.34905,0.73354 6.70762,-0.42652 9.90213,-1.32849 6.0291,-1.76775 11.95887,-3.9212 17.8123,-6.14556 5.53833,-2.00785 11.08718,-3.93784 16.83747,-5.17438 4.22149,-0.88093 8.1921,-2.72133 11.74904,-5.1382 1.90848,-1.1831 3.65145,-2.66138 5.77481,-3.33838 3.29052,-0.80589 6.74586,-0.46267 10.04883,-1.19141 1.2627,-0.24516 1.59822,-1.62329 1.90407,-2.67901 0.74867,-2.68572 1.45166,-5.39387 1.93573,-8.14079 0.25377,-0.84969 -0.15142,-1.95456 -1.14253,-2.02394 -3.48934,-0.39846 -6.86699,0.91972 -9.97013,2.36808 -5.3691,2.35895 -11.03351,4.07772 -16.87841,4.91852 -7.15803,1.14128 -13.8856,3.97758 -20.44527,6.95223 -2.03536,0.86224 -4.27892,1.10413 -6.28845,2.05012 -2.67315,1.10502 -5.01289,2.8626 -7.08181,4.86144 -0.57985,0.65397 -1.46729,0.66641 -2.27148,0.55859 -2.79282,-0.0669 -5.30085,1.36638 -7.8846,2.19153 -1.94084,0.69887 -3.96794,1.32651 -6.08384,1.34386 -5.51815,0.33881 -11.12268,0.52348 -16.683122,0.5502 -0.981063,0.15543 0.272416,-0.57733 0.482471,-0.89313 1.046816,-0.96425 1.952181,-2.10649 3.105901,-2.94072 1.0977,-0.55348 2.53897,-0.50469 3.40694,-1.45487 0.69807,-0.85163 -0.0472,-2.03509 -1.00586,-2.24414 -0.86934,-0.34663 -1.83711,-0.32972 -2.69727,-0.69921 -0.12649,-0.92525 0.24883,-1.84997 1.02271,-2.38559 1.41909,-1.08352 3.21926,-1.48005 4.81301,-2.23902 3.50141,-1.45451 6.8243,-3.31227 10.34738,-4.71439 2.04643,-0.78549 4.362,-0.39155 6.2868,0.39152 3.91282,1.49469 7.53212,3.67742 11.48734,5.06173 2.28777,0.74929 4.80379,0.66327 7.05377,-0.18068 4.78711,-1.64518 9.55671,-3.34118 14.26722,-5.19252 2.48742,-0.96052 4.72641,-2.41672 7.00768,-3.76971 2.13451,-0.95388 4.48037,-0.87268 6.75729,-1.27516 7.44219,-1.05907 14.94278,-2.71572 21.62673,-6.27236 0.83606,-0.42628 1.58923,-1.14467 1.63867,-2.13672 0.17005,-1.41112 0.29442,-2.811328 0.52929,-4.218746 0.0425,-0.592388 -0.3544,-1.174431 -0.99218,-1.101562 l -0.043,-0.0039 z" />
    <path
       id="path6250"
       style="fill:#c8b7b7;fill-opacity:1;stroke-width:0.834554"
       d="m 165.1719,34.583301 c -1.44705,0.948111 -3.03999,1.639788 -4.6286,2.311123 -1.85736,0.77124 -3.75055,1.466275 -5.70091,1.96465 -2.67466,0.720148 -5.35356,1.333449 -8.0546,1.938594 -2.82744,0.634241 -5.65578,1.329346 -8.34489,2.426187 -1.62406,0.648198 -3.27354,1.228908 -4.92015,1.816248 -3.3238,1.221108 -6.53081,2.769307 -9.52132,4.668213 -0.97126,0.595935 -1.96109,1.261367 -3.11979,1.403059 -0.91288,0.120177 -1.83641,0.165087 -2.73951,0.35605 -1.71331,0.319159 -3.35542,0.930632 -4.93943,1.645941 -0.84983,0.355955 -1.69864,0.73628 -2.60826,0.913125 -2.86464,0.642522 -5.77376,1.051473 -8.66751,1.535168 -2.257504,0.388644 -4.531003,0.862282 -6.611797,1.853337 -1.684126,0.774841 -3.231097,1.80857 -4.893527,2.626125 -2.438683,1.233953 -4.969769,2.294395 -7.515254,3.256399 -2.17152,0.823873 -4.411321,1.498113 -6.717586,1.812179 -1.129728,0.163409 -2.271344,0.240794 -3.391908,0.466616 -2.634543,0.480518 -5.233241,1.136068 -7.81513,1.843085 -0.803698,0.21159 -1.628759,0.419309 -2.41836,0.593868 -0.575318,0.130847 -1.203369,0.255945 -1.752541,0.355566 -0.672404,0.11929 -1.397841,0.226359 -2.044319,0.306443 -2.150878,0.258302 -4.311845,0.360489 -6.465991,0.461806 -3.569817,0.153861 -7.132833,0.292772 -10.701573,0.368329 -0.673092,0.0076 -1.346255,0.003 -2.019379,0.0044 -0.725922,2.561879 -1.478774,5.118174 -2.054668,7.71924 -0.944892,4.138126 -1.588289,8.343082 -1.961049,12.570772 -0.04843,0.503746 -0.09686,1.007494 -0.145269,1.511242 5.844158,-0.427059 11.698161,-0.80441 17.507094,-1.594361 1.582821,-0.220951 3.153149,-0.529431 4.74507,-0.685101 2.980509,-0.322755 5.980933,-0.412266 8.961435,-0.732452 1.589416,-0.162745 3.154659,-0.511082 4.678304,-0.988163 2.823917,-0.879443 5.58496,-1.817814 8.461462,-2.531824 0.383503,-0.0923 0.826321,-0.198443 1.234634,-0.286914 0.552682,-0.118698 1.17041,-0.242033 1.753862,-0.34008 2.0926,-0.376116 4.248528,-0.463076 6.280705,-1.130522 0.919967,-0.305017 1.818651,-0.837433 2.309998,-1.701271 0.155726,-0.2897 0.296426,-0.623879 0.618903,-0.76522 0.428318,-0.18202 0.835638,-0.52673 0.894386,-1.014801 0.03764,-0.159547 0.0064,-0.330761 0.04728,-0.486939 0.260032,-0.146752 0.602149,-0.163804 0.858493,-0.205068 0.953884,-0.08909 1.89339,-0.304329 2.789193,-0.644417 1.43818,-0.526632 2.840336,-1.146135 4.281542,-1.665092 0.31753,-0.11376 0.69552,-0.251711 1.03982,-0.364942 1.92096,-0.657011 3.89988,-1.131207 5.89671,-1.490758 0.48036,-0.08427 1.01529,-0.177884 1.51782,-0.257754 1.87645,-0.308523 3.77263,-0.530979 5.61677,-1.007219 0.70482,-0.173976 1.3653,-0.476956 2.03327,-0.753237 1.54912,-0.584253 3.19838,-0.822378 4.82457,-1.088062 4.50237,-0.684151 9.05632,-1.12205 13.54502,-1.946214 2.08894,-0.402389 4.22108,-0.863253 6.07285,-1.957599 0.6518,-0.405794 1.30132,-0.84092 2.05013,-1.04852 1.09524,-0.314499 2.23772,-0.401759 3.35843,-0.586676 1.25021,-0.17344 2.5116,-0.358791 3.69509,-0.817687 1.84664,-0.699685 3.59255,-1.631207 5.36953,-2.486208 1.13811,-0.552677 2.28096,-1.096229 3.43947,-1.605036 0.19463,-0.07789 0.45707,-0.200832 0.68625,-0.274876 2.02291,-0.595915 4.1691,-0.504259 6.20938,-1.017362 1.23954,-0.294312 2.37855,-0.883449 3.528,-1.414722 2.15023,-1.039453 4.28389,-2.118582 6.34667,-3.323638 1.10322,-0.651269 2.17294,-1.373211 3.3494,-1.889331 0.48018,-0.21771 1.10007,-0.224332 1.43712,-0.682646 0.19662,-0.274452 0.1255,-0.636474 -0.0503,-0.901473 -0.6609,-1.11701 -1.44134,-2.157796 -2.20188,-3.207845 -2.80951,-3.800438 -5.95396,-7.35047 -9.3524,-10.633579 -1.21379,-1.173842 -2.48749,-2.282894 -3.74432,-3.41 -0.11214,0.06994 -0.22427,0.139871 -0.33641,0.209807 z" />
    <path
       id="path6827"
       style="fill:#867160;fill-opacity:1;stroke-width:2.36048"
       d="M 113.43555,15.533203 C 99.891637,15.714746 86.408443,19.424426 74.720893,26.281699 63.29754,32.871992 53.574947,42.377083 46.763894,53.673505 c -2.850742,4.710517 -5.220327,9.70643 -7.227775,14.82914 -0.407547,0.754429 0.128737,1.729049 0.998482,1.737642 3.561933,0.20723 7.137005,-0.04834 10.698764,-0.196125 4.964163,-0.248229 9.954072,-0.656479 14.768588,-1.958224 3.613233,-0.934483 7.274405,-1.668784 10.953866,-2.276547 6.121692,-1.263409 11.932918,-3.755647 17.322958,-6.885599 3.288728,-1.713684 6.962983,-2.239191 10.518103,-2.933558 3.5588,-0.653295 7.12545,-1.394582 10.50081,-2.727299 2.58131,-0.923275 5.42543,-0.953878 7.88466,-2.238414 2.24941,-1.163703 4.38764,-2.544435 6.73903,-3.510567 6.66651,-2.901783 13.60577,-5.139527 20.73074,-6.648487 3.58403,-0.801326 7.13949,-1.835178 10.41537,-3.527098 1.80268,-0.871388 3.59278,-1.770167 5.38954,-2.654775 -2.94473,-2.431763 -5.9601,-4.790205 -9.2413,-6.755407 -7.36132,-4.549786 -15.35952,-8.145171 -23.796,-10.150939 -6.53134,-1.58784 -13.26257,-2.337738 -19.98418,-2.244045 z m -0.55078,29.201172 c -1.19185,0.691767 -2.6662,0.911679 -4.02735,0.753906 1.38857,-0.236824 2.87465,-0.189018 4.15625,-0.867187 l -0.0751,0.06601 z" />
    <path
       id="path6829"
       style="fill:#867160;fill-opacity:1;stroke-width:1.18024"
       d="m 134.57428,74.958096 c -0.96666,0.02168 -1.8323,0.512654 -2.68649,0.91127 -1.16131,0.587703 -2.36422,1.136716 -3.65863,1.348219 -1.86436,0.342659 -3.77488,0.265769 -5.64349,0.570614 -0.87943,0.135524 -1.72969,0.480255 -2.41929,1.048731 -0.57398,0.482542 -1.17112,0.975508 -1.90449,1.189884 -1.05732,0.331248 -2.16809,0.430766 -3.26316,0.562462 -0.51114,0.05192 -1.0764,0.110477 -1.60887,0.158216 -2.48616,0.239281 -4.98142,0.390289 -7.46017,0.701357 -1.04021,0.14274 -2.11954,0.326832 -3.00182,0.936427 -0.53273,0.361349 -1.07012,0.773715 -1.72881,0.858586 -1.01931,0.163967 -2.030316,0.170558 -3.056394,0.22302 -1.530117,0.07578 -3.07123,0.09271 -4.583985,0.35687 -0.668579,0.128209 -1.416632,0.370424 -1.755598,1.013709 -0.180986,0.299738 -0.174326,0.66735 -0.338312,0.973719 -1.1547,0.212582 -2.337716,0.168011 -3.497072,0.337365 -0.494567,0.06438 -0.938681,0.339751 -1.242071,0.731621 -0.502078,0.652041 -1.273831,1.010658 -2.04494,1.23785 -0.483717,0.150622 -1.031333,0.273124 -1.492415,0.370004 -2.160177,0.452882 -4.363169,0.657881 -6.524151,1.104842 -1.265269,0.275542 -2.565828,0.606658 -3.624141,1.38884 -1.360397,0.872045 -2.9817,1.201732 -4.562972,1.398802 -0.71519,0.08644 -1.494041,0.137885 -2.23855,0.164915 -2.014942,0.06206 -4.030776,-0.01337 -6.045672,-0.0436 -8.217694,-0.173659 -16.429366,-0.419563 -24.642433,-0.693068 0.0052,2.314371 -0.02037,4.629957 0.09442,6.942339 0.08543,1.92448 0.175133,3.85082 0.376478,5.76716 0.07164,0.43705 0.07234,0.94427 0.403982,1.27879 0.397433,0.33417 0.949409,0.20345 1.420838,0.17004 1.375703,-0.11048 2.713969,-0.49863 3.979578,-1.03885 2.154507,-0.91059 4.212386,-2.02763 6.304442,-3.0696 0.259921,-0.11486 0.504758,-0.28919 0.774153,-0.36669 3.057902,-0.0945 6.117162,-0.15026 9.173457,-0.2871 0.998729,-0.068 2.021527,-0.0787 2.982721,-0.38889 0.805189,-0.26532 1.342201,-0.960823 2.027257,-1.42088 0.780344,-0.578766 1.70906,-0.90083 2.630339,-1.177407 0.136213,-0.03785 0.377423,-0.109477 0.520769,-0.149913 1.80109,-0.489058 3.616894,-0.924443 5.399331,-1.480611 3.423822,-1.051433 6.800998,-2.247818 10.185617,-3.417308 2.447123,-0.843621 4.886507,-1.740498 7.41749,-2.304772 0.752629,-0.165941 1.51973,-0.263813 2.29072,-0.270703 1.644116,-0.129614 3.261146,-0.578911 4.873557,-0.810067 2.673736,-0.416541 5.403397,-0.695738 8.109547,-0.963655 1.56238,-0.167701 3.14208,-0.275161 4.6693,-0.665734 0.86883,-0.21232 1.66202,-0.632788 2.46975,-1.002487 0.70663,-0.314307 1.44441,-0.54732 2.18677,-0.759408 1.00911,-0.318516 1.98066,-0.739862 2.95825,-1.141155 1.3738,-0.518967 2.79829,-0.890453 4.23503,-1.187654 2.06395,-0.45329 3.95439,-1.430017 5.85326,-2.321994 2.54746,-1.241139 5.03269,-2.61216 7.43363,-4.11753 0.62822,-0.420172 1.29355,-0.805778 1.83118,-1.342996 0.24762,-0.233246 0.31753,-0.661887 0.053,-0.908614 -0.33382,-0.31156 -0.82456,-0.349054 -1.25771,-0.401031 -0.12406,-0.01089 -0.24867,-0.01568 -0.3732,-0.01393 z" />
    <path
       id="path6831"
       style="fill:#dab6ac;fill-opacity:1;stroke-width:1.18024"
       d="m 180.13477,52.054688 c -1.61894,0.232456 -2.94452,1.315034 -4.34307,2.083079 -4.00421,2.472143 -8.32203,4.832955 -13.11201,5.166921 -2.15921,0.177484 -4.24051,0.874699 -6.11265,1.954793 -2.63729,1.414125 -5.24077,3.089101 -8.26795,3.506146 -2.44785,0.494127 -5.16764,0.435755 -7.26598,1.975433 -2.13819,1.421022 -4.81109,1.650695 -7.24467,2.123568 -5.12801,0.875521 -10.32598,1.327682 -15.4247,2.368168 -1.58684,0.328569 -3.0247,1.176833 -4.60502,1.39725 -4.06518,0.847355 -8.25418,1.195396 -12.17318,2.650529 -2.686861,0.958821 -5.208931,2.203207 -8.034759,2.7038 -0.83738,0.149769 -1.516182,0.721431 -1.837987,1.501813 -1.157226,1.511453 -2.732622,2.862856 -4.694956,3.077585 -2.675049,0.334656 -5.361546,0.663958 -7.956322,1.427159 -4.760467,1.256624 -9.399893,3.181999 -14.367941,3.465848 -3.942162,0.309745 -7.895335,0.551676 -11.793981,1.246773 -4.971311,0.732004 -10.015941,1.071898 -15.051761,1.450241 -1.178674,0.05555 -2.327937,0.301787 -3.402415,0.797303 -0.450214,0.222416 -1.763947,0.441582 -0.654683,0.669866 1.211001,0.47587 2.41815,1.009924 3.742416,1.027198 7.480336,0.410537 14.97378,0.551345 22.4601,0.832558 3.664832,0.05297 7.412058,0.331369 10.998937,-0.588141 1.425562,-0.343312 2.63105,-1.190816 3.908909,-1.856216 2.074626,-0.747678 4.322252,-0.812463 6.47229,-1.249623 2.184245,-0.404121 4.488316,-0.871996 6.222316,-2.362911 1.246941,-0.755347 2.817629,-0.230863 4.107422,-0.800781 0.615651,-0.296025 0.663896,-1.026443 0.970703,-1.533203 1.340288,-0.55215 2.768904,-0.446439 4.145684,-0.570831 1.653848,-0.116519 3.329438,-0.05448 4.971508,-0.245575 1.38456,-0.802462 2.73711,-1.871941 4.41215,-1.897459 3.91424,-0.446949 7.90646,-0.420032 11.74998,-1.356082 1.37974,-0.307058 2.49025,-1.196231 3.63274,-1.964986 1.50364,-0.617641 3.18964,-0.442313 4.77739,-0.642802 1.18202,-0.158152 2.45572,0.05764 3.51997,-0.579222 1.72563,-0.718138 3.40466,-1.61261 5.2437,-2.008668 -2.01454,1.639186 -4.38218,2.876212 -6.62748,4.096531 -3.17677,1.672022 -6.5457,2.972118 -10.03536,3.817781 -1.60923,0.396753 -3.07683,1.189298 -4.64184,1.704828 -1.91037,0.220274 -3.40278,1.699807 -5.33521,1.866514 -5.24813,0.739274 -10.557872,1.035171 -15.763152,2.073217 -2.278439,0.384023 -4.585877,0.664977 -6.77168,1.453412 -6.06824,1.891024 -11.957436,4.367913 -18.158262,5.8226 -2.171051,0.513404 -4.308249,1.275057 -6.126297,2.599028 -1.8131,1.25899 -4.133435,0.94891 -6.218055,1.03394 -2.085406,0.01 -4.17083,0.009 -6.256255,0.009 -3.051898,1.47004 -5.961656,3.14505 -9.14259,4.31955 -1.20413,0.51813 -2.703176,0.21977 -3.755847,1.07303 -0.916765,0.94676 -0.08281,2.48991 1.066391,2.7517 1.674815,0.34008 3.402962,-0.0387 5.074534,-0.24744 3.497843,-0.49052 6.87784,-1.56933 10.131471,-2.92197 3.813536,-1.59135 8.137408,-1.00892 11.9474,-2.62234 2.749525,-1.12585 5.465951,-2.41273 8.275927,-3.304417 5.616196,-1.823415 11.271673,-3.524064 16.846317,-5.475448 2.753851,-0.948119 5.57054,-1.862724 8.509522,-1.937898 2.672466,-0.07929 5.440346,-0.380705 8.076356,-1.040279 4.2711,-0.800826 8.37871,-2.231331 12.52797,-3.489588 1.5924,-0.52173 3.24428,-0.794954 4.87887,-1.129916 2.52431,-0.741293 4.61544,-2.435824 6.87217,-3.723902 3.15445,-1.863242 6.43046,-3.678117 10.06731,-4.378855 3.34823,-0.839687 6.75065,-1.431991 10.13218,-2.108483 1.93058,-0.414778 3.68122,-1.686996 4.4571,-3.533035 0.78887,-1.62396 1.02011,-3.435828 1.58961,-5.133051 6.58047,-0.304884 13.16917,-0.392603 19.7539,-0.576172 1.93478,-1.515943 3.97218,-3.172522 6.51445,-3.428259 1.12468,-0.263992 2.52356,-0.03741 3.40157,-0.923304 0.53534,-0.896752 -0.23392,-1.871442 -0.53255,-2.722402 -1.13706,-2.348983 -2.18641,-4.811104 -3.903,-6.806895 -0.4879,-0.494351 -1.12052,-0.937213 -1.84765,-0.886718 z" />
    <path
       id="path6833"
       style="fill:#bd7e6b;fill-opacity:1;stroke-width:1.18024"
       d="m 184.52524,62.326827 c -1.87422,0.06158 -3.70595,0.618014 -5.39032,1.421178 -0.89372,0.426701 -1.7361,0.956786 -2.51514,1.56727 -0.58939,0.314745 -1.27417,0.365683 -1.92602,0.446664 -2.07616,0.150257 -4.15767,0.212643 -6.23724,0.299201 -3.32693,0.123659 -6.64036,0.238872 -9.97073,0.296678 -0.87975,0.01165 -1.75961,0.0054 -2.63942,0.007 -0.33029,1.559107 -0.59387,3.125303 -1.01687,4.6634 -0.22921,0.845302 -0.5923,1.678107 -1.2256,2.300899 -0.57132,0.643892 -1.34043,1.071578 -2.14706,1.348475 -1.60669,0.554607 -3.27747,0.891146 -4.9339,1.259255 -2.88251,0.627444 -5.79204,1.159182 -8.61998,2.010604 -1.92482,0.572553 -3.76079,1.410631 -5.50426,2.402041 -2.46925,1.38612 -4.81996,2.977536 -7.32804,4.29519 -0.87647,0.457745 -1.81336,0.826182 -2.80341,0.931116 -2.13764,0.293608 -4.20554,0.946057 -6.24262,1.637969 -1.28879,0.457229 -2.60019,0.928013 -3.896,1.314554 -1.54608,0.467476 -3.11515,0.875392 -4.70885,1.133027 -1.39549,0.256506 -2.77268,0.600022 -4.16103,0.89009 -0.72725,0.141539 -1.49657,0.228108 -2.21524,0.273384 -1.303062,0.0904 -2.610749,0.04826 -3.914288,0.118687 -1.517346,0.118102 -2.97212,0.602665 -4.424323,1.026363 -3.914957,1.200769 -7.810153,2.465142 -11.714646,3.700032 -3.261262,1.046667 -6.533293,2.06181 -9.768097,3.188607 -1.65636,0.569328 -3.273477,1.246929 -4.852569,2.003569 -1.577763,0.73877 -3.184245,1.47722 -4.914641,1.77197 -2.253922,0.40175 -4.557452,0.46738 -6.797232,0.95877 -1.024969,0.21299 -2.019214,0.56496 -2.94659,1.05079 -1.251002,0.5785 -2.587386,1.00278 -3.893648,1.37221 -1.754616,0.48897 -3.552819,0.88012 -5.337959,1.15245 -0.663384,0.0998 -1.285729,0.17858 -1.954307,0.23559 -1.13994,0.0987 -2.293465,0.0797 -3.421979,0.28556 -0.234003,0.0423 -0.436771,0.20085 -0.503144,0.43283 -0.04648,0.17287 0.04675,0.36587 0.06348,0.54482 0.431716,2.00167 0.84758,4.00819 1.364626,5.99003 0.179944,0.59241 0.306182,1.22309 0.653755,1.74549 0.347414,0.43866 0.965142,0.4425 1.476912,0.447 1.534941,-0.0494 3.054909,-0.29338 4.575882,-0.48914 2.747936,-0.38802 5.511606,-0.74741 8.264201,-1.02052 2.523734,-0.26877 5.030929,-0.70702 7.484334,-1.36043 2.636446,-0.71077 5.286652,-1.36258 7.954568,-1.96966 3.54022,-0.80695 7.068627,-1.73266 10.433007,-3.11606 1.1708,-0.48162 2.333027,-0.98557 3.522639,-1.42037 0.178409,-0.063 0.420396,-0.1511 0.623218,-0.22375 0.198358,-0.0675 0.470556,-0.16185 0.698796,-0.23665 4.095533,-1.3406 8.363427,-1.96016 12.523132,-3.05069 0.660355,-0.19709 1.379005,-0.30283 1.937385,-0.73753 0.493908,-0.34387 0.900763,-0.7904 1.278434,-1.25425 0.878144,-0.90356 1.973704,-1.55561 3.058304,-2.17945 1.42995,-0.794988 2.95127,-1.441579 4.26787,-2.427218 1.09154,-0.793226 2.06863,-1.75215 3.06567,-2.630337 0.93526,-0.831159 1.97045,-1.561388 3.12335,-2.058098 0.88641,-0.380471 1.77893,-0.74667 2.6554,-1.150425 1.78161,-0.791598 3.52428,-1.668105 5.31784,-2.432714 1.24214,-0.538958 2.55504,-0.902488 3.89268,-1.107276 2.01847,-0.336891 4.06974,-0.491624 6.06163,-0.977238 0.55311,-0.137266 1.09083,-0.344088 1.57385,-0.648322 0.66779,-0.213317 1.38292,-0.215678 2.07773,-0.20688 0.3837,0.02052 0.7788,0.03235 1.14378,0.162954 0.1758,0.381027 0.13817,0.849855 -0.0331,1.226799 -0.47506,0.615407 -1.17671,0.993606 -1.69964,1.560113 -0.20275,0.217884 -0.32482,0.557342 -0.14805,0.825365 0.0519,0.130318 0.21625,0.20116 0.33905,0.246737 0.47013,0.04577 0.93774,-0.08276 1.40203,-0.143775 2.24125,-0.389588 4.47084,-0.849177 6.6847,-1.372488 4.44804,-1.089758 8.68038,-2.880702 12.86658,-4.706258 2.17966,-0.947057 4.33543,-1.955366 6.56166,-2.790558 1.05129,-0.390562 2.14178,-0.685252 3.25803,-0.810945 0.22202,-0.02443 0.52067,-0.05801 0.77322,-0.076 1.96099,-0.151646 3.93451,-0.186973 5.88155,-0.485894 0.67696,-0.115993 1.30134,-0.426773 1.91979,-0.712912 2.7199,-1.34507 5.12157,-3.225773 7.74047,-4.743288 1.03375,-0.597739 2.15656,-1.108134 3.3639,-1.189535 1.34537,-0.114118 2.71906,-0.03935 4.02692,0.286197 0.42751,0.07615 0.86282,0.194373 1.29934,0.142518 0.31313,-0.05047 0.48309,-0.383532 0.46641,-0.680165 -0.0373,-0.924718 -0.3863,-1.798259 -0.66278,-2.671053 -0.76569,-2.204429 -1.57889,-4.39433 -2.49868,-6.539439 -0.20366,-0.419351 -0.35441,-0.938414 -0.82208,-1.138304 -0.58613,-0.268189 -1.25921,-0.212232 -1.88667,-0.215831 z" />
    <path
       id="path6842"
       style="fill:#c8b7b7;fill-opacity:1;stroke-width:1.18024"
       d="m 189.11772,119.42463 c -2.37652,0.0982 -4.75776,0.12211 -7.12872,0.32321 -1.47481,0.1401 -2.9852,0.32407 -4.33826,0.96535 -2.55726,1.37674 -4.89717,3.11379 -7.42113,4.5477 -0.49711,0.28289 -0.96226,0.53612 -1.48102,0.80099 -1.77791,0.9152 -3.68765,1.60593 -5.59569,2.14413 -2.14434,0.61036 -4.32544,1.08044 -6.47041,1.68879 -5.52916,1.53446 -10.94626,3.45085 -16.2694,5.58843 -3.05037,1.16954 -6.17828,2.18454 -9.3035,3.17449 -2.26609,0.70416 -4.5303,1.41846 -6.82187,2.03613 -0.65781,0.17275 -1.36581,0.34125 -1.98711,0.46641 -1.78236,0.36446 -3.64895,0.53016 -5.43527,0.0973 -0.15017,-0.0355 -0.28674,-0.0692 -0.40748,-0.10272 -0.95131,-0.26484 -1.85265,-0.63621 -2.79358,-0.95119 -2.08971,-0.73264 -4.21837,-1.43356 -6.43639,-1.63365 -2.12503,-0.2019 -4.26308,-0.15581 -6.395,-0.1582 -3.573641,0.0111 -7.161354,0.12552 -10.692721,0.71504 -4.433298,0.72441 -8.755534,1.97206 -13.104492,3.07262 -1.559992,0.39235 -3.150503,0.78732 -4.736595,1.10969 -1.005615,0.2045 -2.08298,0.39048 -3.099155,0.51832 -1.068032,0.13653 -2.103051,0.22134 -3.178606,0.2829 -3.771109,0.20627 -7.561873,0.14145 -11.341386,0.39283 -0.274276,0.0295 -0.58071,0.0279 -0.812741,0.18553 -0.08675,0.1346 -0.173712,0.26905 -0.260578,0.40358 0.323631,0.59841 0.820025,1.07561 1.247963,1.59769 1.491929,1.74983 3.073819,3.42198 4.74336,5.00331 3.419681,3.24339 7.090979,6.22254 10.971416,8.89801 0.624771,0.43816 1.249654,0.87617 1.874354,1.31443 4.516601,-0.0123 9.03705,0.0582 13.54891,-0.19371 5.534755,-0.30127 11.040199,-0.97441 16.539391,-1.64808 4.7878,-0.60084 9.57819,-1.19586 14.34021,-1.97905 3.34779,-0.56503 6.70775,-1.2334 9.86514,-2.51608 2.76584,-1.09852 5.70461,-1.6475 8.61285,-2.22109 3.44604,-0.66809 6.91613,-1.2153 10.34131,-1.98748 1.8791,-0.41889 3.7108,-1.02358 5.50328,-1.72189 4.03268,-1.5317 7.97919,-3.32571 11.66272,-5.58044 2.27312,-1.37185 4.69652,-2.5895 7.19107,-3.55493 1.85087,-0.70086 3.72296,-1.34555 5.56224,-2.07713 1.05719,-0.42342 2.12707,-0.83187 3.11352,-1.40702 0.78278,-0.40978 1.62074,-0.69797 2.4153,-1.08129 0.83229,-0.40748 1.55972,-1.03671 2.03304,-1.83817 0.91078,-1.46943 1.6746,-3.02384 2.43757,-4.57341 1.45562,-3.01294 2.82499,-6.07233 3.96021,-9.22183 0.11227,-0.30248 0.22458,-0.60495 0.33687,-0.90743 -0.26321,0.009 -0.52641,0.0186 -0.78962,0.0279 z" />
    <path
       id="path6844"
       style="fill:#867160;fill-opacity:1;stroke-width:1.18024"
       d="m 180.95117,135.18359 c -2.10876,0.62622 -4.04297,1.74214 -6.10558,2.50799 -3.51215,1.42318 -7.24489,2.36634 -10.49291,4.38161 -3.15666,1.91144 -6.38881,3.70988 -9.79764,5.13774 -3.32217,1.47414 -6.74143,2.84942 -10.26004,3.48163 -5.43449,1.15941 -11.00432,1.79834 -16.34361,3.42278 -2.33031,0.8238 -4.65393,1.69458 -7.09012,2.16391 -6.40648,1.31659 -12.8852,2.15795 -19.36406,2.97006 -8.782485,1.03343 -17.588588,1.77444 -26.440508,1.85785 -0.797089,-0.009 -1.833379,0.33147 -1.839905,1.27761 0.236267,1.14194 1.581824,1.40798 2.433368,1.96841 4.44304,2.30165 8.957877,4.51433 13.741772,6.02106 6.818557,2.27403 13.931003,3.62378 21.103453,4.07631 4.00611,0.39112 8.03745,-0.004 12.03102,-0.35691 15.62006,-1.67164 30.82474,-7.83544 42.89316,-17.94601 3.80315,-3.34138 7.42935,-6.90301 10.69787,-10.77212 2.02383,-2.55729 4.12968,-5.09079 5.73204,-7.94243 0.4697,-0.69317 0.48959,-1.85143 -0.41979,-2.18894 -0.1575,-0.0265 -0.31745,-0.081 -0.47852,-0.0605 z" />
    <path
       id="path6847"
       style="fill:#c8b7b7;fill-opacity:1;stroke-width:1.18024"
       d="m 113.50586,42.849609 c -0.59955,0.01719 -0.79707,0.653667 -1.19216,0.942161 -1.43357,0.428877 -3.12048,-0.197678 -4.41939,0.688781 -0.83988,0.641288 -0.37479,1.974619 0.56467,2.238199 1.45576,0.395272 3.06184,0.181004 4.45313,-0.367188 1.11801,-0.445323 2.27801,-1.735357 1.68164,-2.984374 -0.19379,-0.39211 -0.67177,-0.574247 -1.08789,-0.517579 z" />
  </g>
</svg>
