<?xml version="1.0" encoding="UTF-8" standalone="no"?>
<svg
   xmlns:dc="http://purl.org/dc/elements/1.1/"
   xmlns:cc="http://creativecommons.org/ns#"
   xmlns:rdf="http://www.w3.org/1999/02/22-rdf-syntax-ns#"
   xmlns:svg="http://www.w3.org/2000/svg"
   xmlns="http://www.w3.org/2000/svg"
   xmlns:sodipodi="http://sodipodi.sourceforge.net/DTD/sodipodi-0.dtd"
   xmlns:inkscape="http://www.inkscape.org/namespaces/inkscape"
   width="160mm"
   height="160mm"
   viewBox="0 0 160 160"
   version="1.1"
   id="svg4764"
   inkscape:version="1.0.2 (e86c870879, 2021-01-15, custom)"
   sodipodi:docname="mars_filled.svg">
  <defs
     id="defs4758" />
  <sodipodi:namedview
     id="base"
     pagecolor="#ffffff"
     bordercolor="#666666"
     borderopacity="1.0"
     inkscape:pageopacity="0.0"
     inkscape:pageshadow="2"
     inkscape:zoom="0.7"
     inkscape:cx="-178.63142"
     inkscape:cy="488.27036"
     inkscape:document-units="mm"
     inkscape:current-layer="g5379"
     inkscape:document-rotation="0"
     showgrid="false"
     inkscape:snap-global="false"
     inkscape:window-width="1920"
     inkscape:window-height="986"
     inkscape:window-x="-11"
     inkscape:window-y="-11"
     inkscape:window-maximized="1"
     fit-margin-top="0"
     fit-margin-left="0"
     fit-margin-right="0"
     fit-margin-bottom="0" />
  <metadata
     id="metadata4761">
    <rdf:RDF>
      <cc:Work
         rdf:about="">
        <dc:format>image/svg+xml</dc:format>
        <dc:type
           rdf:resource="http://purl.org/dc/dcmitype/StillImage" />
        <dc:title></dc:title>
      </cc:Work>
    </rdf:RDF>
  </metadata>
  <g
     inkscape:label="Layer 1"
     inkscape:groupmode="layer"
     id="layer1"
     transform="translate(-35,-15)">
    <g
       id="g5379"
       transform="matrix(1.0228226,0,0,1.0228226,-6.3759694,-13.254246)">
      <path
         id="path5341"
         style="fill:none;fill-opacity:1;stroke:#e6e6e6;stroke-width:3.77953;stroke-miterlimit:4;stroke-dasharray:none"
         d="m 409.3457,419.56641 c -3.65329,-0.0251 -6.18435,1.51564 -6.8164,4.15039 -0.66807,2.78471 0.063,5.22684 3.875,12.96289 2.37105,4.81179 2.8474,6.55518 2.83984,10.36328 -0.007,2.88264 -0.7675,8.55539 -1.30469,9.73437 -0.59255,1.30054 -2.08912,1.82227 -5.22851,1.82227 -1.59576,0 -3.19903,-0.18181 -3.79688,-0.43164 -1.7625,-0.73644 -4.3444,-4.12269 -7.11914,-9.33594 -1.57349,-2.95638 -3.13092,-8.36021 -3.53711,-12.27539 -0.2894,-2.78948 -0.6585,-3.63643 -2.51758,-5.7832 -2.49917,-2.88582 -2.85757,-3.77762 -2.40429,-5.96094 0.312,-1.50289 0.28874,-1.88159 -0.14844,-2.54883 -0.95422,-1.45629 -2.92854,-0.72715 -3.72852,1.37695 -0.17888,0.47048 -0.48012,1.58031 -0.66796,2.4668 -0.31042,1.46389 -1.6534,4.57947 -2.14454,4.97266 -0.10992,0.088 -0.62331,0.73544 -1.13867,1.43945 -2.00373,2.73717 -4.81617,5.66717 -6.03906,6.29102 -1.12116,0.57365 -1.74289,0.63796 -4.99023,0.53515 l -3.70899,-0.11718 -4.16015,-1.95899 c -2.288,-1.07766 -4.87977,-2.18012 -5.75977,-2.44922 -0.88,-0.26914 -2.60784,-0.91663 -3.83984,-1.43945 -1.232,-0.52286 -2.81553,-1.12636 -3.51954,-1.3418 -0.704,-0.21535 -2.16493,-0.80836 -3.24609,-1.3164 -1.08116,-0.50801 -2.32365,-0.92383 -2.75976,-0.92383 -0.43612,0 -2.28656,0.43208 -4.11329,0.95898 -1.82672,0.52691 -3.92178,0.95899 -4.65429,0.95899 -3.36416,0.005 -9.40578,-1.79896 -14.50782,-4.33203 -1.14399,-0.56795 -2.67544,-1.21161 -3.40429,-1.42969 -1.19284,-0.35714 -1.9763,-0.81545 -2.53321,-1.53516 -24.76106,5.26399 -37.74736,4.39587 -42.60156,-1.67187 -6.06092,-7.57614 -16.2577,12.62481 -35.85937,17.67773 -19.60167,5.05297 -12.12352,14.14299 -31.31641,15.6582 -13.61803,1.0751 -21.89834,10.79069 -33.31641,15.08399 0.49979,3.05803 0.96944,4.9414 1.83399,7.43164 0.36662,1.056 1.24796,4.19741 1.95703,6.98047 2.13692,8.3873 6.58688,20.44574 10.82813,29.33984 3.37099,7.06908 4.65886,10.00522 5.61328,12.79492 1.3309,3.89023 2.46554,6.23133 5.19726,10.72266 1.49943,2.46527 4.346,7.57734 6.32422,11.36133 4.31331,8.25063 4.73836,8.96104 9.41602,15.69336 8.6155,12.39987 9.54284,13.59699 15.25781,19.66797 3.1479,3.34397 7.68738,8.31103 10.08594,11.03906 6.99525,7.95606 5.2344,6.26004 21.34765,20.57617 6.69286,5.94641 8.92341,7.78123 13.32813,10.95899 1.936,1.39668 6.09934,4.54745 9.25,7.00195 17.90957,13.95235 39.41995,27.1706 53.79101,33.05469 1.93601,0.79268 5.82463,2.62833 8.64063,4.07812 2.816,1.44979 6.05522,2.87058 7.19922,3.1582 1.144,0.28766 3.5193,0.865 5.27929,1.28321 1.76001,0.4182 7.88157,2.15496 13.60157,3.85937 15.70754,4.68038 22.66063,6.28068 37.67968,8.67188 10.67664,1.6998 15.79334,2.22792 33.67969,3.47656 h 0.002 c 5.0479,0.35236 25.55623,-0.10202 33.11915,-0.73438 32.32716,-2.703 60.84282,-9.82358 82.0039,-20.47656 2.41799,-1.21727 4.68001,-2.42829 5.02734,-2.68945 0.5935,-0.44519 0.55627,-0.47474 -0.63867,-0.47852 -0.69932,-0.002 -2.7684,0.41457 -4.59765,0.92578 -6.73009,1.88077 -17.84667,3.47334 -28.83399,4.13086 -6.17828,0.36975 -14.45033,1.235 -23.07812,2.41407 -7.33353,1.00221 -13.10854,1.3421 -28.12305,1.65429 -16.15283,0.33551 -28.22028,0.26709 -32.04297,-0.17968 -1.69576,-0.1982 -4.57612,-0.71407 -6.40039,-1.14649 -1.87241,-0.44383 -5.33759,-0.933 -7.95703,-1.125 -2.55197,-0.18701 -6.36652,-0.70975 -8.47852,-1.16016 -2.112,-0.45044 -5.63981,-1.15243 -7.83984,-1.56054 -6.42845,-1.19252 -11.09435,-3.8004 -11.85547,-6.62696 -0.5393,-2.00284 -0.0781,-3.69975 1.25196,-4.60351 1.06469,-0.72355 1.44186,-0.7832 5.05664,-0.7832 3.33188,0 4.28562,-0.1222 6.48632,-0.83203 1.41891,-0.45771 3.40799,-1.36744 4.41993,-2.02149 1.01193,-0.65405 3.93904,-2.27665 6.5039,-3.60742 3.61266,-1.87434 5.34819,-2.57591 7.70703,-3.11328 2.51585,-0.57313 3.69683,-1.07508 6.79688,-2.88672 4.17486,-2.4398 5.13597,-2.75515 9.84375,-3.23828 1.79697,-0.18456 3.41542,-0.42757 3.5957,-0.53907 0.18032,-0.11138 3.86086,-0.30376 8.17969,-0.42773 6.75931,-0.19412 8.18606,-0.32438 10.25195,-0.9375 2.98689,-0.88645 4.75247,-1.76966 7.20508,-3.60156 3.9089,-2.91969 5.19021,-3.17185 11.21875,-2.21094 7.65899,1.22094 10.25878,1.43746 14.48633,1.20313 6.03534,-0.33468 8.39895,-0.69496 17.06836,-2.59961 7.80389,-1.71338 7.95743,-1.73487 12.80078,-1.67969 4.62958,0.0527 5.0431,0.005 7.46094,-0.8457 1.40798,-0.49527 4.07192,-1.5865 5.91992,-2.42579 1.848,-0.83928 3.93661,-1.69642 4.64062,-1.90429 0.70402,-0.20803 4.52047,-0.49215 8.48047,-0.63086 6.61633,-0.23165 7.60224,-0.34435 12.16016,-1.39453 5.96296,-1.37394 6.60045,-1.46604 12.32031,-1.80469 3.34481,-0.19809 5.20913,-0.4835 7.35938,-1.125 2.75814,-0.82303 3.08276,-0.84989 7.67968,-0.64844 3.72348,0.16324 5.30338,0.10067 7.04102,-0.27539 1.23197,-0.26664 3.14504,-0.56504 4.25195,-0.66406 2.58104,-0.23116 6.42051,-1.21492 9.58008,-2.45313 l 2.48633,-0.97461 9.49023,-0.13281 c 11.85782,-0.16603 11.58622,-0.0855 18.375,-5.49804 4.81542,-3.83925 6.91382,-5.90104 10.29102,-10.11915 5.94739,-7.42835 11.10158,-12.91481 16.95898,-18.05078 3.5895,-3.1474 10.75282,-11.64631 15.21875,-18.05468 5.78177,-8.29645 9.50233,-14.89958 16.3711,-29.06446 2.77368,-5.72001 7.25284,-14.8643 9.95312,-20.32031 4.96868,-10.03933 7.22689,-15.5242 8.47852,-20.58008 0.37867,-1.52961 1.16078,-4.29262 1.73633,-6.14062 1.0264,-3.29556 2.92696,-10.29366 3.20703,-11.80664 0.0781,-0.42172 0.79073,-2.94132 1.58398,-5.59961 0.79325,-2.6583 1.66172,-5.98459 1.92969,-7.39258 0.26793,-1.40799 0.56207,-2.92132 0.6543,-3.36133 0.29427,-1.40398 0.22334,-4.93178 -0.11719,-5.75976 -0.18104,-0.44006 -0.33827,-0.6106 -0.34961,-0.37891 -0.0128,0.26759 -0.2451,0.35015 -0.63477,0.22656 -0.43608,-0.13841 -0.67278,-0.009 -0.8164,0.44336 -0.11124,0.35036 -0.38973,0.56463 -0.61914,0.47656 -0.26665,-0.10235 -0.68089,0.45277 -1.14649,1.53711 -0.4007,0.93302 -1.04898,1.99428 -1.4414,2.35938 -0.39247,0.36495 -0.97152,1.44534 -1.28711,2.40039 -0.31556,0.95508 -1.21225,3.2477 -1.99219,5.0957 -0.77995,1.848 -2.11583,5.23152 -2.96875,7.51953 -1.47526,3.95755 -2.94569,7.59858 -3.84571,9.52149 -0.22658,0.484 -0.6667,0.8789 -0.97851,0.8789 -0.31177,0 -0.88941,0.46903 -1.2832,1.04102 -0.39383,0.57203 -1.19073,1.63433 -1.77149,2.36133 l -1.05664,1.32226 -2.07812,-0.55859 c -2.65108,-0.71172 -3.47349,-1.26375 -4.50586,-3.02539 -1.20926,-2.06347 -4.82419,-4.38062 -7.51563,-4.81836 -1.15385,-0.18769 -1.69306,-0.51932 -2.71875,-1.66406 -3.73534,-4.16913 -3.94111,-4.34107 -4.875,-4.1211 -0.48725,0.11482 -1.67851,0.75207 -2.64648,1.41602 -3.88041,2.66139 -4.83006,2.52266 -8.70313,-1.25781 -3.09256,-3.01864 -4.27,-3.63195 -8.25586,-4.30274 -1.67198,-0.28142 -3.7733,-0.78093 -4.66992,-1.10937 -3.28841,-1.20507 -5.17857,-1.3493 -10.44726,-0.80274 -6.87103,0.71275 -7.91758,0.93967 -11.22852,2.43164 -4.00071,1.80272 -5.80599,1.94964 -9.36914,0.76563 -2.50231,-0.83142 -2.82336,-0.86882 -4.42773,-0.50977 -2.50576,0.56077 -3.92152,1.75898 -6.19532,5.24219 -3.46889,5.31394 -3.71255,5.34489 -17.34179,2.25195 -6.00144,-1.36191 -8.5476,-1.47455 -10.50196,-0.46289 -1.5168,0.7852 -2.29387,1.88834 -5.55859,7.88086 -3.08651,5.6654 -4.85982,7.51953 -7.19141,7.51953 -1.25764,0 -1.9505,-0.51363 -6.02929,-4.48633 -3.95403,-3.85122 -4.9313,-4.47265 -7.03907,-4.47265 -2.53648,0 -4.72909,1.56094 -6.73633,4.79883 -2.14805,3.4651 -5.271,5.72224 -8.65624,6.2539 -2.07172,0.32538 -5.7033,-0.62801 -8.24805,-2.16601 -2.48081,-1.49938 -3.40174,-1.62173 -7.95313,-1.06055 -2.8001,0.3453 -4.5439,-0.27952 -6.27148,-2.24219 -1.93557,-2.19893 -2.6556,-4.43704 -2.89258,-9.00195 -0.22261,-4.28897 -0.51153,-5.00074 -2.59961,-6.42188 -1.41222,-0.96113 -3.07487,-0.92573 -4.91992,0.10547 -1.40648,0.78618 -1.62724,0.81517 -4.61133,0.60352 -3.0477,-0.21611 -3.16367,-0.20033 -4.10742,0.59375 -0.53386,0.44923 -1.38171,1.41078 -1.88477,2.13672 -1.41974,2.04861 -3.19478,2.92115 -6.32812,3.10937 -4.3166,0.2592 -6.85807,-0.26173 -10.68359,-2.1914 l -3.33985,-1.6836 -4.06445,-0.19336 c -2.81926,-0.13315 -4.36022,-0.3503 -5.0332,-0.70898 -1.18341,-0.63088 -3.60829,-3.18064 -4.76172,-5.00781 -0.46764,-0.74083 -1.31315,-1.62954 -1.87891,-1.97461 -1.83787,-1.12109 -2.91728,-1.12662 -6.13672,-0.0273 -5.34875,1.82627 -12.96974,2.14191 -16.92187,0.69922 -0.99561,-0.36344 -2.56734,-0.93989 -3.49219,-1.27929 -1.56828,-0.57574 -1.83123,-0.58618 -3.91016,-0.1504 -2.60213,0.54543 -3.56619,0.4009 -5.83398,-0.88086 -0.9165,-0.51802 -2.87271,-1.34974 -4.34571,-1.84765 -4.09285,-1.38346 -6.00683,-2.87009 -9.49023,-7.36524 -2.62443,-3.38675 -3.00101,-4.48384 -3.03125,-8.81835 l -0.0273,-3.83985 -1.47657,-2.08008 c -1.9816,-2.78978 -2.09557,-3.03812 -3.00976,-6.55664 -0.52494,-2.02121 -0.79297,-3.92081 -0.79297,-5.625 0,-2.5118 -1.35513,-8.846 -2.27344,-10.62695 -1.28058,-2.48357 -3.45015,-4.04934 -5.63086,-4.06445 z"
         transform="scale(0.26458333)"
         sodipodi:nodetypes="csscssssssssscssccccsssssscsccssscsssssssssssssssssssssscsssscsssssssssssssssssssscsssssssssscccsssssssssssssscssssssssssscccsssscsscsssssssssssssssssssssssccccsssscssssccccssc" />
      <path
         style="fill:none;stroke:#e6e6e6;stroke-width:1;stroke-linecap:butt;stroke-linejoin:miter;stroke-miterlimit:4;stroke-dasharray:none;stroke-opacity:1"
         d="m 114.84288,28.80819 c -15.177856,3.140246 -19.364843,5.233744 -20.411595,7.327242 -1.046754,2.093498 -6.106039,5.059285 -8.025078,5.757118 -1.919047,0.69783 -13.607735,3.489162 -15.526765,5.059285 -1.919048,1.570123 -8.54846,6.978325 4.361444,4.186993 12.909904,-2.791329 20.411606,-4.884827 27.564394,-7.327241 7.15278,-2.442412 16.2246,-5.757119 18.84146,-7.5017 2.61687,-1.744582 8.54845,-5.059285 8.54845,-5.059285 0,0 -5.05928,-3.838079 -15.35231,-2.442412 z"
         id="path5360" />
      <path
         style="fill:none;stroke:#e6e6e6;stroke-width:1;stroke-linecap:butt;stroke-linejoin:miter;stroke-miterlimit:4;stroke-dasharray:none;stroke-opacity:1"
         d="m 98.75575,69.015204 c 3.48917,-5.408202 1.046742,-6.280493 5.93158,-6.978325 4.88482,-0.697833 8.7229,-1.221207 7.67616,-2.79133 -1.04676,-1.570124 -11.86317,-0.174459 -13.084365,0.348916 -1.221207,0.523374 -4.187,1.046749 -6.106038,1.046749 -1.919039,0 -4.361454,4.361453 -4.186998,6.803867 0.174464,2.442413 -6.629412,2.965787 -6.629412,2.965787 0,0 -2.61687,0.697834 -2.61687,7.32724 0,6.629412 1.919047,10.81641 4.361462,7.327244 2.442405,-3.489166 4.361444,-6.629412 6.629403,-5.408205 2.26795,1.221207 5.408205,-1.221207 6.280495,-3.489157 0.872296,-2.267958 1.744583,-7.152786 1.744583,-7.152786 z"
         id="path5362" />
      <path
         style="fill:none;stroke:#e6e6e6;stroke-width:1;stroke-linecap:butt;stroke-linejoin:miter;stroke-miterlimit:4;stroke-dasharray:none;stroke-opacity:1"
         d="m 131.0305,56.105304 c 1.74459,-7.152786 1.74459,-11.16532 3.48916,-9.944114 1.74459,1.221205 3.48916,3.314704 4.187,4.884826 0.69783,1.570126 1.39566,2.791332 -3.14025,5.059288 -4.5359,2.267954 -6.10603,1.919038 -4.53591,0 z"
         id="path5364"
         sodipodi:nodetypes="csssc" />
      <path
         style="fill:none;stroke:#e6e6e6;stroke-width:1;stroke-linecap:butt;stroke-linejoin:miter;stroke-miterlimit:4;stroke-dasharray:none;stroke-opacity:1"
         d="m 142.37028,49.301435 c 0.69783,-3.489162 5.4082,-2.965787 6.45496,-0.697831 1.04674,2.267954 0.34891,6.629408 -1.74459,5.582661 -2.09351,-1.046751 -4.53591,-2.442415 -4.01254,-4.535913 0.52338,-2.093498 -0.69783,-0.348917 -0.69783,-0.348917 z"
         id="path5366" />
      <path
         style="fill:none;stroke:#e6e6e6;stroke-width:1;stroke-linecap:butt;stroke-linejoin:miter;stroke-miterlimit:4;stroke-dasharray:none;stroke-opacity:1"
         d="m 129.76516,85.066859 c -3.08401,0.863517 -2.83729,-1.97377 -2.09712,-3.20738 0.74016,-1.233601 2.71392,-2.960651 4.07088,-2.220491 1.35697,0.74017 0.98689,2.960652 1.97377,3.700821 0.98688,0.740161 0.12336,2.467211 -1.60368,2.713931 -1.72705,0.24672 -3.20737,0.123356 -2.34385,-0.986881 z"
         id="path5368" />
      <circle
         style="fill:none;fill-opacity:1;stroke:#e6e6e6;stroke-width:1.4;stroke-linecap:round;stroke-miterlimit:4;stroke-dasharray:none"
         id="path5370"
         cx="118.66766"
         cy="105.83873"
         r="77.514931" />
      <path
         style="fill:#ee673a;stroke-width:8.07199;fill-opacity:1"
         d="m 405.74638,398.72189 c -1.52079,-0.88246 -5.30389,-1.78529 -8.40689,-2.00632 -7.02831,-0.5006 -8.1387,-1.60411 -9.14217,-9.08554 -1.07147,-7.98841 -4.53813,-10.17666 -13.80419,-8.71358 -3.83648,0.60577 -7.5247,2.08288 -8.19603,3.2825 -1.90691,3.40744 -7.84298,4.19961 -13.56238,1.8099 -2.85257,-1.19189 -7.06726,-2.16706 -9.36596,-2.16706 -2.72291,0 -5.45047,-1.36912 -7.82648,-3.92857 -3.46179,-3.72903 -4.34718,-3.93847 -17.43179,-4.12357 -18.57643,-0.26278 -22.80291,-0.89299 -29.49906,-4.39863 -6.47583,-3.39029 -10.71428,-9.60035 -10.71428,-15.69822 0,-2.2752 -0.70486,-4.84158 -1.56635,-5.70307 -0.8615,-0.8615 -2.45447,-6.22736 -3.53994,-11.92416 -2.31028,-12.12487 -4.90441,-15.65235 -11.51076,-15.65235 -3.50607,0 -5.36694,0.94818 -7.12415,3.63004 -2.26442,3.45593 -2.19747,4.0914 1.39564,13.24966 2.07577,5.29078 3.77413,12.33584 3.77413,15.65567 0,5.3797 -0.36429,6.03606 -3.35002,6.03606 -1.84251,0 -4.38942,-1.14853 -5.6598,-2.55229 -3.11021,-3.43674 -6.70447,-12.27963 -6.70447,-16.49489 0,-1.88357 -1.22274,-4.97911 -2.7172,-6.87901 -1.49445,-1.8999 -2.94088,-5.04016 -3.21428,-6.97837 -0.8501,-6.02666 -5.70386,-4.49973 -9.23289,2.90456 -6.19963,13.00751 -9.1197,13.63171 -27.47427,5.87294 -8.93474,-3.77686 -11.61314,-4.30542 -18.00843,-3.55377 -6.26841,0.73673 -8.9201,0.25133 -16.01093,-2.93085 -7.53361,-3.38088 -9.21914,-3.64768 -14.84871,-2.35027 -3.49274,0.80495 -11.56731,1.47925 -17.94349,1.49845 -9.46451,0.0286 -12.25996,-0.48966 -15.22533,-2.82222 -5.60334,-4.40758 -9.48927,-3.49594 -20.542635,4.81934 -5.612317,4.22206 -14.816154,9.4388 -20.452973,11.59275 -5.636817,2.15394 -13.044798,6.33623 -16.46218,9.29394 -4.866018,4.21151 -8.149553,5.71873 -15.141703,6.95037 -9.039173,1.59222 -13.876373,3.58596 -25.68029,10.58463 l -6.526742,3.86979 -2.454405,-13.19828 C 7.7890994,338.25342 6.3912423,322.9032 6.3794169,301.55782 6.3411193,232.42989 30.803832,165.42473 75.492966,112.25075 87.873272,97.519876 104.94,80.491664 104.94,82.870176 c 0,0.913074 -0.64285,2.057443 -1.42857,2.543041 -0.78571,0.485599 -1.42857,2.429492 -1.42857,4.319762 0,8.652225 12.93125,8.301857 55.69046,-1.508916 38.22396,-8.770193 66.66833,-17.006609 100.77258,-29.179926 41.35016,-14.7597 52.77482,-20.220407 89.15519,-42.61398 l 3.47537,-2.13923 -3.27648,-2.65314 c -1.80208,-1.459228 -3.04458,-2.6530311 -2.76109,-2.6528964 0.28347,1.345e-4 5.65826,0.9781428 11.94397,2.1733514 78.2849,14.885628 147.51743,60.799089 191.91339,127.272658 24.27477,36.34633 40.04673,77.76962 46.71687,122.6966 4.8409,32.60613 1.88471,96.42857 -4.46649,96.42857 -2.72817,0 -6.19481,5.70612 -12.02091,19.78648 -6.14904,14.86085 -8.07512,16.37291 -14.24396,11.18217 -2.50067,-2.10419 -5.43903,-3.82579 -6.52967,-3.82579 -1.09064,0 -2.67109,-1.28571 -3.51209,-2.85714 -1.64098,-3.0662 -7.03264,-3.8245 -9.51842,-1.33872 -1.0722,1.0722 -3.06662,0.46782 -6.78648,-2.05655 -8.00138,-5.42989 -18.57787,-7.34237 -28.83678,-5.21437 -4.63636,0.96171 -12.14683,1.89491 -16.68993,2.07377 -7.43841,0.29285 -8.65729,0.80085 -12.25157,5.10621 l -3.99137,4.78103 -8.34383,-1.67569 c -14.75193,-2.96261 -15.85363,-2.64587 -21.5004,6.18146 -2.76439,4.32143 -5.40367,7.85714 -5.86509,7.85714 -0.46141,0 -3.03547,-1.92857 -5.7201,-4.28571 -6.55924,-5.7591 -10.20665,-5.45123 -16.9246,1.42857 -5.82504,5.96539 -8.1531,6.69909 -12.76505,4.02296 z M 171.76073,221.84179 c 2.63912,-3.53572 7.08279,-9.21487 9.87482,-12.62034 l 5.07641,-6.19178 8.26153,0.95886 c 9.03333,1.04843 12.29481,-0.0231 19.02263,-6.24987 5.60793,-5.19026 7.66834,-9.62386 11.00868,-23.68849 1.58685,-6.68147 4.79235,-16.17954 7.12335,-21.10682 2.331,-4.92729 4.23868,-9.74746 4.2393,-10.71149 0.003,-3.34638 6.50895,-5.84248 21.14955,-8.11326 17.49929,-2.71417 23.13729,-5.18027 23.13729,-10.12038 0,-5.91809 -4.1962,-6.90619 -25.61899,-6.03262 -10.94668,0.44638 -23.11117,1.80724 -27.95244,3.12709 -4.71428,1.28523 -12.97444,2.89165 -18.35591,3.56982 -6.72775,0.84784 -10.78013,2.16842 -12.97153,4.22713 -4.3618,4.0977 -9.52563,14.81705 -10.44702,21.68646 -0.90435,6.74246 -3.87545,8.69699 -17.2076,11.31992 -11.01662,2.1674 -15.06874,6.3632 -17.52438,18.14577 -1.81867,8.72628 -1.0473,28.80137 1.43447,37.33241 4.00936,13.78219 11.52781,15.48292 19.74984,4.46759 z m 185.15442,5.77804 c 1.97434,-0.75064 4.63778,-2.96434 5.91874,-4.91936 2.2199,-3.38798 2.11774,-3.99725 -2.18007,-13.00252 -5.50572,-11.53619 -8.79973,-13.52316 -16.42229,-9.90603 -6.46947,3.06997 -10.70754,9.55954 -10.71475,16.40701 -0.006,5.50244 2.04655,8.5 5.81974,8.5 1.31807,0 3.19678,0.96429 4.17491,2.14286 2.02375,2.43846 8.10766,2.79161 13.40372,0.77804 z M 367.7017,112.58682 c 15.75645,-7.96392 19.21965,-14.292876 13.6814,-25.002639 -4.08134,-7.892467 -15.46942,-18.599535 -19.78252,-18.599535 -4.86859,0 -5.64735,1.776535 -10.21136,23.294393 -1.96752,9.276201 -4.26809,18.156581 -5.11239,19.734171 -1.13315,2.11732 -1.06557,3.43411 0.25815,5.02907 2.45751,2.96113 9.37325,1.50541 21.16672,-4.45546 z m 50.0391,-7.85773 c 3.00922,-1.61048 5.77063,-8.585023 5.77063,-14.574933 0,-15.185033 -16.04581,-23.859266 -27.03324,-14.613948 -4.85853,4.088175 -5.01376,4.732078 -2.94033,12.19666 1.64872,5.935571 6.95986,11.75925 14.2321,15.605501 5.92569,3.13407 6.54496,3.2202 9.97084,1.38672 z"
         id="path5613"
         transform="matrix(0.25867959,0,0,0.25867959,40.452733,27.623799)" />
      <path
         style="fill:#9f593f;fill-opacity:1;stroke-width:8.07199"
         d="M 274.22572,597.42247 C 233.3812,593.26069 187.83355,578.7174 154.59283,559.22392 124.98343,541.85995 84.612179,506.12513 65.912431,480.728 45.751661,453.34659 30.463041,424.02793 20.524759,393.68905 c -2.678758,-8.17753 -4.868371,-15.31351 -4.865807,-15.85775 0.0026,-0.54423 5.306137,-4.01227 11.785714,-7.70676 8.246489,-4.70193 14.469556,-7.14415 20.742105,-8.14014 8.83494,-1.40286 14.189985,-4.14072 19.421244,-9.92943 1.467407,-1.62377 5.967407,-4.03024 10,-5.34772 9.962869,-3.25492 12.90816,-4.86471 24.244205,-13.25098 l 9.76936,-7.22725 4.15521,3.07208 c 5.25994,3.88885 17.74663,4.93546 31.81219,2.66644 9.71902,-1.56785 10.84468,-1.45556 20.01678,1.99681 7.51886,2.83009 11.22723,3.46538 16.38359,2.80671 5.44127,-0.69507 8.60257,-0.0454 17.21857,3.53824 16.60223,6.90546 22.4877,5.92468 29.60194,-4.93302 l 2.48946,-3.7994 2.5743,3.34674 c 1.41586,1.84071 2.6027,4.95388 2.63743,6.91817 0.0813,4.60003 5.02993,15.51027 8.9095,19.64286 3.57378,3.80685 11.21413,4.31553 14.56027,0.96938 3.45927,-3.45927 2.8747,-15.73483 -1.22513,-25.72671 -2.9207,-7.11818 -3.16439,-8.77057 -1.53934,-10.43802 2.56577,-2.63272 6.19535,-1.08157 6.9995,2.99132 1.05681,5.35272 4.65235,19.87166 6.9344,28.00134 3.72467,13.26907 10.93711,18.19216 31.78975,21.69918 7.1599,1.20416 11.82579,1.26038 16.42858,0.19798 6.1062,-1.40942 6.6469,-1.2724 10.7823,2.73228 2.53502,2.45489 5.89352,4.2161 8.03981,4.2161 2.02736,0 5.99396,0.96429 8.81469,2.14286 7.0788,2.95771 15.10127,2.73093 18.6997,-0.52862 1.62207,-1.46931 5.68135,-3.08405 9.02064,-3.58831 5.79204,-0.87464 6.07143,-0.7496 6.07143,2.71736 0,6.14532 3.7907,13.37698 7.40585,14.12842 5.98096,1.24319 13.20988,2.44329 19.42898,3.22546 5.62138,0.70699 6.51647,0.34995 10.9755,-4.37798 2.67021,-2.83127 5.61682,-5.14776 6.548,-5.14776 0.93118,0 3.88958,1.92857 6.57421,4.28572 2.68464,2.35714 5.54391,4.28571 6.35394,4.28571 3.33783,0 7.15196,-3.27035 9.7473,-8.35762 4.32806,-8.48371 5.26107,-8.85367 16.42593,-6.51333 11.56307,2.42383 13.98163,1.89907 18.1358,-3.93492 2.77244,-3.89354 3.6614,-4.26114 8.45202,-3.49509 3.24467,0.51885 7.73721,0.0152 11.40412,-1.27861 10.81229,-3.8148 26.09609,-2.07939 32.20149,3.65633 2.67094,2.50923 4.44574,2.99908 8.48896,2.34295 5.18963,-0.84216 10.39103,1.61967 19.05068,9.01671 7.47186,6.38243 13.19845,2.25325 19.57909,-14.11756 2.25906,-5.79606 4.31214,-9.92398 4.56241,-9.17316 0.25027,0.75081 -1.8245,9.35018 -4.6106,19.10971 -5.54135,19.41103 -24.31548,59.86993 -35.79213,77.13326 -6.35398,9.55776 -38.99964,45.38806 -46.9744,51.55684 -3.28121,2.53815 -6.83128,3.44043 -16.42857,4.17545 -6.73358,0.5157 -16.10001,1.63591 -20.8143,2.48934 -4.71428,0.85344 -15.32143,2.29667 -23.57143,3.20717 -28.88924,3.18837 -40.75978,5.1121 -46.24588,7.49457 -3.04239,1.32125 -7.86382,2.40236 -10.71429,2.40249 -2.85048,1.4e-4 -10.29194,0.97793 -16.5366,2.17286 -7.87081,1.50611 -15.10195,1.89171 -23.57143,1.25692 -11.01495,-0.82555 -12.7471,-0.60235 -17.59788,2.26768 -4.00896,2.37194 -8.92476,3.47055 -19.28572,4.31011 -12.74147,1.03246 -15.34018,1.79506 -31.0482,9.11136 -9.42857,4.39153 -19.15342,7.9934 -21.6108,8.00414 -5.58158,0.0244 -8.2925,3.07871 -7.06685,7.96204 1.3587,5.41346 9.74674,8.48666 32.96337,12.07702 17.23776,2.66575 23.35414,2.96374 44.28571,2.15755 13.35715,-0.51445 28.46429,-1.48288 33.57143,-2.15207 5.10714,-0.66918 14.75,-1.5681 21.42857,-1.99758 l 12.14286,-0.78089 -12.6306,4.17122 c -26.6652,8.80608 -71.98559,13.11868 -103.79797,9.87722 z"
         id="path6190"
         transform="matrix(0.25867959,0,0,0.25867959,40.452733,27.623799)" />
      <path
         style="fill:#b96b4d;fill-opacity:1;stroke-width:8.07199"
         d="m 159.3182,221.43872 c -5.67587,-8.74645 -6.36116,-37.79636 -1.12943,-47.87765 2.46939,-4.75841 3.41526,-5.2978 12.10137,-6.90093 14.04095,-2.59143 19.639,-6.33072 19.66382,-13.13468 0.0174,-4.76594 5.80778,-17.3226 9.42642,-20.44151 1.48636,-1.28109 6.46638,-2.78221 11.06671,-3.33581 4.60033,-0.5536 11.35033,-1.88434 15,-2.9572 13.98128,-4.10993 44.36365,-6.34245 48.73022,-3.58073 3.0436,1.92498 -1.92824,3.51104 -19.9069,6.35048 -14.53735,2.29594 -21.47326,4.95604 -21.47326,8.23556 0,0.88158 -2.1949,6.17033 -4.87756,11.75278 -2.68265,5.58245 -6.26631,16.07241 -7.96368,23.31103 -3.50135,14.93182 -7.08665,21.16211 -14.32727,24.89691 -4.2543,2.19442 -5.84881,2.33966 -10.38891,0.94626 -8.10115,-2.48631 -13.44828,0.74984 -22.65817,13.71305 -4.20286,5.91565 -8.44385,11.07861 -9.42443,11.47326 -0.98058,0.39465 -2.7081,-0.70822 -3.83893,-2.45082 z"
         id="path6192"
         transform="matrix(0.25867959,0,0,0.25867959,40.452733,27.623799)" />
      <path
         style="fill:#b96b4d;fill-opacity:1;stroke-width:8.07199"
         d="m 351.94512,112.06466 c 0.40984,-0.66314 2.38531,-8.85956 4.38994,-18.214286 4.89349,-22.835743 4.30555,-21.796143 9.5454,-16.878277 7.22866,6.784472 12.63097,15.027373 12.63097,19.272469 0,4.628034 -4.25505,8.131254 -16.40013,13.502384 -8.27405,3.65918 -11.44156,4.38132 -10.16618,2.31771 z"
         id="path6194"
         transform="matrix(0.25867959,0,0,0.25867959,40.452733,27.623799)" />
      <path
         style="fill:#b96b4d;fill-opacity:1;stroke-width:8.07199"
         d="m 408.17021,97.466979 c -6.58448,-3.476362 -9.26719,-7.705595 -8.93289,-14.082493 0.28578,-5.451288 4.0959,-7.893969 10.00124,-6.411824 7.10508,1.783263 11.07903,11.481607 7.99513,19.511984 -1.77576,4.624024 -2.0994,4.659104 -9.06348,0.982333 z"
         id="path6196"
         transform="matrix(0.25867959,0,0,0.25867959,40.452733,27.623799)" />
      <path
         style="fill:#b96b4d;fill-opacity:1;stroke-width:8.07199"
         d="m 349.456,221.04253 c 0.69955,-1.82298 -0.15229,-2.14748 -4.68769,-1.78571 -5.11688,0.40815 -5.57741,0.13932 -5.99594,-3.50014 -0.3278,-2.85045 0.72978,-5.12538 3.81868,-8.21429 6.38476,-6.38476 8.96277,-5.62755 13.42182,3.94226 3.51291,7.53923 3.633,8.36103 1.46139,10 -3.51101,2.64983 -9.08678,2.34239 -8.01826,-0.44212 z"
         id="path6198"
         transform="matrix(0.25867959,0,0,0.25867959,40.452733,27.623799)" />
      <path
         style="fill:#c8b7b7;fill-opacity:1;stroke-width:8.07199"
         d="m 283.51143,581.7257 c -3.92857,-0.67381 -11.16872,-1.90506 -16.08922,-2.73611 -4.92051,-0.83104 -10.54551,-2.2396 -12.50001,-3.13013 -5.2107,-2.37416 -4.5133,-5.44624 1.23638,-5.44624 2.84253,0 11.65639,-3.23879 21.67855,-7.96611 15.63968,-7.37703 17.84722,-8.02318 29.85285,-8.73791 9.78904,-0.58278 14.44583,-1.57805 19.01322,-4.0636 5.46698,-2.97511 7.32236,-3.2163 19.28572,-2.50709 9.37167,0.55557 16.51426,0.10539 24.46103,-1.54172 6.17333,-1.27954 13.44702,-2.32643 16.16374,-2.32643 2.71673,0 7.95154,-1.23736 11.63291,-2.74968 3.68138,-1.51232 11.1934,-3.09044 16.6934,-3.50693 5.5,-0.41649 14.82143,-1.44903 20.71429,-2.29453 5.89286,-0.8455 14.33781,-1.78509 18.76656,-2.08798 4.42875,-0.30289 11.82161,-1.6081 16.42857,-2.90046 4.60697,-1.29236 11.81307,-2.14965 16.01358,-1.90509 l 7.63728,0.44467 -12.63728,9.4985 c -18.07081,13.58249 -28.83285,20.25053 -48.63488,30.13367 -13.1316,6.55394 -17.88839,8.31376 -19.30167,7.14083 -1.3612,-1.12969 -4.13956,-1.03023 -10.13163,0.36267 -4.54086,1.05556 -16.42654,2.6548 -26.41261,3.55387 -9.98607,0.89908 -22.65649,2.21688 -28.15649,2.92846 -12.38881,1.60284 -56.05088,1.49477 -65.71429,-0.16266 z"
         id="path6200"
         transform="matrix(0.25867959,0,0,0.25867959,40.452733,27.623799)" />
      <path
         style="fill:#c8b7b7;fill-opacity:1;stroke-width:8.07199"
         d="m 108.51676,90.446743 c -1.7566,-1.110486 -1.00111,-2.509216 4.23942,-7.848929 7.28857,-7.426508 12.04001,-9.450817 44.32668,-18.884971 12.17857,-3.558576 24.71429,-7.769694 27.85714,-9.35804 10.14882,-5.129042 22.10537,-14.257979 25.17102,-19.2183 5.36012,-8.672853 24.75593,-16.302549 62.89606,-24.741309 27.223,-6.023274 51.26505,-5.2884378 65.15945,1.991574 l 3.74097,1.960097 -4.91231,2.529013 c -2.70179,1.390957 -11.01947,6.222436 -18.48376,10.736619 -25.37188,15.344186 -86.09617,36.90602 -144.28571,51.232633 -30.59004,7.531449 -56.91989,13.043929 -61.97285,12.974783 -0.87922,-0.01203 -2.56047,-0.629957 -3.73611,-1.37317 z"
         id="path6202"
         transform="matrix(0.25867959,0,0,0.25867959,40.452733,27.623799)" />
      <path
         style="fill:#c8b7b7;fill-opacity:1;stroke-width:8.07199"
         d="m 121.93194,67.800266 c 2.36166,-3.821242 34.50163,-23.648512 52.29378,-32.260226 19.13981,-9.264012 44.2831,-18.404659 55.08638,-20.026226 l 5.6279,-0.844747 -5.07811,1.986403 c -11.50125,4.498943 -18.08279,8.863652 -26.97617,17.889901 -12.30129,12.485076 -19.80918,16.251052 -50.7159,25.439209 -14.19068,4.218703 -27.02677,8.070817 -28.52463,8.560251 -1.83664,0.60013 -2.39448,0.357695 -1.71325,-0.744565 z"
         id="path6204"
         transform="matrix(0.25867959,0,0,0.25867959,40.452733,27.623799)" />
    </g>
  </g>
</svg>
