<?xml version="1.0" encoding="UTF-8" standalone="no"?>
<svg
   xmlns:dc="http://purl.org/dc/elements/1.1/"
   xmlns:cc="http://creativecommons.org/ns#"
   xmlns:rdf="http://www.w3.org/1999/02/22-rdf-syntax-ns#"
   xmlns:svg="http://www.w3.org/2000/svg"
   xmlns="http://www.w3.org/2000/svg"
   xmlns:sodipodi="http://sodipodi.sourceforge.net/DTD/sodipodi-0.dtd"
   xmlns:inkscape="http://www.inkscape.org/namespaces/inkscape"
   width="160mm"
   height="160mm"
   viewBox="0 0 160 160"
   version="1.1"
   id="svg4764"
   inkscape:version="1.0.2 (e86c870879, 2021-01-15, custom)"
   sodipodi:docname="mars.svg">
  <defs
     id="defs4758" />
  <sodipodi:namedview
     id="base"
     pagecolor="#ffffff"
     bordercolor="#666666"
     borderopacity="1.0"
     inkscape:pageopacity="0.0"
     inkscape:pageshadow="2"
     inkscape:zoom="0.7"
     inkscape:cx="96.368575"
     inkscape:cy="488.27036"
     inkscape:document-units="mm"
     inkscape:current-layer="g5379"
     inkscape:document-rotation="0"
     showgrid="false"
     inkscape:snap-global="false"
     inkscape:window-width="1920"
     inkscape:window-height="986"
     inkscape:window-x="-11"
     inkscape:window-y="-11"
     inkscape:window-maximized="1"
     fit-margin-top="0"
     fit-margin-left="0"
     fit-margin-right="0"
     fit-margin-bottom="0" />
  <metadata
     id="metadata4761">
    <rdf:RDF>
      <cc:Work
         rdf:about="">
        <dc:format>image/svg+xml</dc:format>
        <dc:type
           rdf:resource="http://purl.org/dc/dcmitype/StillImage" />
        <dc:title></dc:title>
      </cc:Work>
    </rdf:RDF>
  </metadata>
  <g
     inkscape:label="Layer 1"
     inkscape:groupmode="layer"
     id="layer1"
     transform="translate(-35,-15)">
    <g
       id="g5379"
       transform="matrix(1.0228226,0,0,1.0228226,-6.3759694,-13.254246)">
      <path
         id="path5341"
         style="fill:none;fill-opacity:1;stroke:#e6e6e6;stroke-width:3.77953;stroke-miterlimit:4;stroke-dasharray:none"
         d="m 409.3457,419.56641 c -3.65329,-0.0251 -6.18435,1.51564 -6.8164,4.15039 -0.66807,2.78471 0.063,5.22684 3.875,12.96289 2.37105,4.81179 2.8474,6.55518 2.83984,10.36328 -0.007,2.88264 -0.7675,8.55539 -1.30469,9.73437 -0.59255,1.30054 -2.08912,1.82227 -5.22851,1.82227 -1.59576,0 -3.19903,-0.18181 -3.79688,-0.43164 -1.7625,-0.73644 -4.3444,-4.12269 -7.11914,-9.33594 -1.57349,-2.95638 -3.13092,-8.36021 -3.53711,-12.27539 -0.2894,-2.78948 -0.6585,-3.63643 -2.51758,-5.7832 -2.49917,-2.88582 -2.85757,-3.77762 -2.40429,-5.96094 0.312,-1.50289 0.28874,-1.88159 -0.14844,-2.54883 -0.95422,-1.45629 -2.92854,-0.72715 -3.72852,1.37695 -0.17888,0.47048 -0.48012,1.58031 -0.66796,2.4668 -0.31042,1.46389 -1.6534,4.57947 -2.14454,4.97266 -0.10992,0.088 -0.62331,0.73544 -1.13867,1.43945 -2.00373,2.73717 -4.81617,5.66717 -6.03906,6.29102 -1.12116,0.57365 -1.74289,0.63796 -4.99023,0.53515 l -3.70899,-0.11718 -4.16015,-1.95899 c -2.288,-1.07766 -4.87977,-2.18012 -5.75977,-2.44922 -0.88,-0.26914 -2.60784,-0.91663 -3.83984,-1.43945 -1.232,-0.52286 -2.81553,-1.12636 -3.51954,-1.3418 -0.704,-0.21535 -2.16493,-0.80836 -3.24609,-1.3164 -1.08116,-0.50801 -2.32365,-0.92383 -2.75976,-0.92383 -0.43612,0 -2.28656,0.43208 -4.11329,0.95898 -1.82672,0.52691 -3.92178,0.95899 -4.65429,0.95899 -3.36416,0.005 -9.40578,-1.79896 -14.50782,-4.33203 -1.14399,-0.56795 -2.67544,-1.21161 -3.40429,-1.42969 -1.19284,-0.35714 -1.9763,-0.81545 -2.53321,-1.53516 -24.76106,5.26399 -37.74736,4.39587 -42.60156,-1.67187 -6.06092,-7.57614 -16.2577,12.62481 -35.85937,17.67773 -19.60167,5.05297 -12.12352,14.14299 -31.31641,15.6582 -13.61803,1.0751 -21.89834,10.79069 -33.31641,15.08399 0.49979,3.05803 0.96944,4.9414 1.83399,7.43164 0.36662,1.056 1.24796,4.19741 1.95703,6.98047 2.13692,8.3873 6.58688,20.44574 10.82813,29.33984 3.37099,7.06908 4.65886,10.00522 5.61328,12.79492 1.3309,3.89023 2.46554,6.23133 5.19726,10.72266 1.49943,2.46527 4.346,7.57734 6.32422,11.36133 4.31331,8.25063 4.73836,8.96104 9.41602,15.69336 8.6155,12.39987 9.54284,13.59699 15.25781,19.66797 3.1479,3.34397 7.68738,8.31103 10.08594,11.03906 6.99525,7.95606 5.2344,6.26004 21.34765,20.57617 6.69286,5.94641 8.92341,7.78123 13.32813,10.95899 1.936,1.39668 6.09934,4.54745 9.25,7.00195 17.90957,13.95235 39.41995,27.1706 53.79101,33.05469 1.93601,0.79268 5.82463,2.62833 8.64063,4.07812 2.816,1.44979 6.05522,2.87058 7.19922,3.1582 1.144,0.28766 3.5193,0.865 5.27929,1.28321 1.76001,0.4182 7.88157,2.15496 13.60157,3.85937 15.70754,4.68038 22.66063,6.28068 37.67968,8.67188 10.67664,1.6998 15.79334,2.22792 33.67969,3.47656 h 0.002 c 5.0479,0.35236 25.55623,-0.10202 33.11915,-0.73438 32.32716,-2.703 60.84282,-9.82358 82.0039,-20.47656 2.41799,-1.21727 4.68001,-2.42829 5.02734,-2.68945 0.5935,-0.44519 0.55627,-0.47474 -0.63867,-0.47852 -0.69932,-0.002 -2.7684,0.41457 -4.59765,0.92578 -6.73009,1.88077 -17.84667,3.47334 -28.83399,4.13086 -6.17828,0.36975 -14.45033,1.235 -23.07812,2.41407 -7.33353,1.00221 -13.10854,1.3421 -28.12305,1.65429 -16.15283,0.33551 -28.22028,0.26709 -32.04297,-0.17968 -1.69576,-0.1982 -4.57612,-0.71407 -6.40039,-1.14649 -1.87241,-0.44383 -5.33759,-0.933 -7.95703,-1.125 -2.55197,-0.18701 -6.36652,-0.70975 -8.47852,-1.16016 -2.112,-0.45044 -5.63981,-1.15243 -7.83984,-1.56054 -6.42845,-1.19252 -11.09435,-3.8004 -11.85547,-6.62696 -0.5393,-2.00284 -0.0781,-3.69975 1.25196,-4.60351 1.06469,-0.72355 1.44186,-0.7832 5.05664,-0.7832 3.33188,0 4.28562,-0.1222 6.48632,-0.83203 1.41891,-0.45771 3.40799,-1.36744 4.41993,-2.02149 1.01193,-0.65405 3.93904,-2.27665 6.5039,-3.60742 3.61266,-1.87434 5.34819,-2.57591 7.70703,-3.11328 2.51585,-0.57313 3.69683,-1.07508 6.79688,-2.88672 4.17486,-2.4398 5.13597,-2.75515 9.84375,-3.23828 1.79697,-0.18456 3.41542,-0.42757 3.5957,-0.53907 0.18032,-0.11138 3.86086,-0.30376 8.17969,-0.42773 6.75931,-0.19412 8.18606,-0.32438 10.25195,-0.9375 2.98689,-0.88645 4.75247,-1.76966 7.20508,-3.60156 3.9089,-2.91969 5.19021,-3.17185 11.21875,-2.21094 7.65899,1.22094 10.25878,1.43746 14.48633,1.20313 6.03534,-0.33468 8.39895,-0.69496 17.06836,-2.59961 7.80389,-1.71338 7.95743,-1.73487 12.80078,-1.67969 4.62958,0.0527 5.0431,0.005 7.46094,-0.8457 1.40798,-0.49527 4.07192,-1.5865 5.91992,-2.42579 1.848,-0.83928 3.93661,-1.69642 4.64062,-1.90429 0.70402,-0.20803 4.52047,-0.49215 8.48047,-0.63086 6.61633,-0.23165 7.60224,-0.34435 12.16016,-1.39453 5.96296,-1.37394 6.60045,-1.46604 12.32031,-1.80469 3.34481,-0.19809 5.20913,-0.4835 7.35938,-1.125 2.75814,-0.82303 3.08276,-0.84989 7.67968,-0.64844 3.72348,0.16324 5.30338,0.10067 7.04102,-0.27539 1.23197,-0.26664 3.14504,-0.56504 4.25195,-0.66406 2.58104,-0.23116 6.42051,-1.21492 9.58008,-2.45313 l 2.48633,-0.97461 9.49023,-0.13281 c 11.85782,-0.16603 11.58622,-0.0855 18.375,-5.49804 4.81542,-3.83925 6.91382,-5.90104 10.29102,-10.11915 5.94739,-7.42835 11.10158,-12.91481 16.95898,-18.05078 3.5895,-3.1474 10.75282,-11.64631 15.21875,-18.05468 5.78177,-8.29645 9.50233,-14.89958 16.3711,-29.06446 2.77368,-5.72001 7.25284,-14.8643 9.95312,-20.32031 4.96868,-10.03933 7.22689,-15.5242 8.47852,-20.58008 0.37867,-1.52961 1.16078,-4.29262 1.73633,-6.14062 1.0264,-3.29556 2.92696,-10.29366 3.20703,-11.80664 0.0781,-0.42172 0.79073,-2.94132 1.58398,-5.59961 0.79325,-2.6583 1.66172,-5.98459 1.92969,-7.39258 0.26793,-1.40799 0.56207,-2.92132 0.6543,-3.36133 0.29427,-1.40398 0.22334,-4.93178 -0.11719,-5.75976 -0.18104,-0.44006 -0.33827,-0.6106 -0.34961,-0.37891 -0.0128,0.26759 -0.2451,0.35015 -0.63477,0.22656 -0.43608,-0.13841 -0.67278,-0.009 -0.8164,0.44336 -0.11124,0.35036 -0.38973,0.56463 -0.61914,0.47656 -0.26665,-0.10235 -0.68089,0.45277 -1.14649,1.53711 -0.4007,0.93302 -1.04898,1.99428 -1.4414,2.35938 -0.39247,0.36495 -0.97152,1.44534 -1.28711,2.40039 -0.31556,0.95508 -1.21225,3.2477 -1.99219,5.0957 -0.77995,1.848 -2.11583,5.23152 -2.96875,7.51953 -1.47526,3.95755 -2.94569,7.59858 -3.84571,9.52149 -0.22658,0.484 -0.6667,0.8789 -0.97851,0.8789 -0.31177,0 -0.88941,0.46903 -1.2832,1.04102 -0.39383,0.57203 -1.19073,1.63433 -1.77149,2.36133 l -1.05664,1.32226 -2.07812,-0.55859 c -2.65108,-0.71172 -3.47349,-1.26375 -4.50586,-3.02539 -1.20926,-2.06347 -4.82419,-4.38062 -7.51563,-4.81836 -1.15385,-0.18769 -1.69306,-0.51932 -2.71875,-1.66406 -3.73534,-4.16913 -3.94111,-4.34107 -4.875,-4.1211 -0.48725,0.11482 -1.67851,0.75207 -2.64648,1.41602 -3.88041,2.66139 -4.83006,2.52266 -8.70313,-1.25781 -3.09256,-3.01864 -4.27,-3.63195 -8.25586,-4.30274 -1.67198,-0.28142 -3.7733,-0.78093 -4.66992,-1.10937 -3.28841,-1.20507 -5.17857,-1.3493 -10.44726,-0.80274 -6.87103,0.71275 -7.91758,0.93967 -11.22852,2.43164 -4.00071,1.80272 -5.80599,1.94964 -9.36914,0.76563 -2.50231,-0.83142 -2.82336,-0.86882 -4.42773,-0.50977 -2.50576,0.56077 -3.92152,1.75898 -6.19532,5.24219 -3.46889,5.31394 -3.71255,5.34489 -17.34179,2.25195 -6.00144,-1.36191 -8.5476,-1.47455 -10.50196,-0.46289 -1.5168,0.7852 -2.29387,1.88834 -5.55859,7.88086 -3.08651,5.6654 -4.85982,7.51953 -7.19141,7.51953 -1.25764,0 -1.9505,-0.51363 -6.02929,-4.48633 -3.95403,-3.85122 -4.9313,-4.47265 -7.03907,-4.47265 -2.53648,0 -4.72909,1.56094 -6.73633,4.79883 -2.14805,3.4651 -5.271,5.72224 -8.65624,6.2539 -2.07172,0.32538 -5.7033,-0.62801 -8.24805,-2.16601 -2.48081,-1.49938 -3.40174,-1.62173 -7.95313,-1.06055 -2.8001,0.3453 -4.5439,-0.27952 -6.27148,-2.24219 -1.93557,-2.19893 -2.6556,-4.43704 -2.89258,-9.00195 -0.22261,-4.28897 -0.51153,-5.00074 -2.59961,-6.42188 -1.41222,-0.96113 -3.07487,-0.92573 -4.91992,0.10547 -1.40648,0.78618 -1.62724,0.81517 -4.61133,0.60352 -3.0477,-0.21611 -3.16367,-0.20033 -4.10742,0.59375 -0.53386,0.44923 -1.38171,1.41078 -1.88477,2.13672 -1.41974,2.04861 -3.19478,2.92115 -6.32812,3.10937 -4.3166,0.2592 -6.85807,-0.26173 -10.68359,-2.1914 l -3.33985,-1.6836 -4.06445,-0.19336 c -2.81926,-0.13315 -4.36022,-0.3503 -5.0332,-0.70898 -1.18341,-0.63088 -3.60829,-3.18064 -4.76172,-5.00781 -0.46764,-0.74083 -1.31315,-1.62954 -1.87891,-1.97461 -1.83787,-1.12109 -2.91728,-1.12662 -6.13672,-0.0273 -5.34875,1.82627 -12.96974,2.14191 -16.92187,0.69922 -0.99561,-0.36344 -2.56734,-0.93989 -3.49219,-1.27929 -1.56828,-0.57574 -1.83123,-0.58618 -3.91016,-0.1504 -2.60213,0.54543 -3.56619,0.4009 -5.83398,-0.88086 -0.9165,-0.51802 -2.87271,-1.34974 -4.34571,-1.84765 -4.09285,-1.38346 -6.00683,-2.87009 -9.49023,-7.36524 -2.62443,-3.38675 -3.00101,-4.48384 -3.03125,-8.81835 l -0.0273,-3.83985 -1.47657,-2.08008 c -1.9816,-2.78978 -2.09557,-3.03812 -3.00976,-6.55664 -0.52494,-2.02121 -0.79297,-3.92081 -0.79297,-5.625 0,-2.5118 -1.35513,-8.846 -2.27344,-10.62695 -1.28058,-2.48357 -3.45015,-4.04934 -5.63086,-4.06445 z"
         transform="scale(0.26458333)"
         sodipodi:nodetypes="csscssssssssscssccccsssssscsccssscsssssssssssssssssssssscsssscsssssssssssssssssssscsssssssssscccsssssssssssssscssssssssssscccsssscsscsssssssssssssssssssssssccccsssscssssccccssc" />
      <path
         style="fill:none;stroke:#e6e6e6;stroke-width:1;stroke-linecap:butt;stroke-linejoin:miter;stroke-miterlimit:4;stroke-dasharray:none;stroke-opacity:1"
         d="m 114.84288,28.80819 c -15.177856,3.140246 -19.364843,5.233744 -20.411595,7.327242 -1.046754,2.093498 -6.106039,5.059285 -8.025078,5.757118 -1.919047,0.69783 -13.607735,3.489162 -15.526765,5.059285 -1.919048,1.570123 -8.54846,6.978325 4.361444,4.186993 12.909904,-2.791329 20.411606,-4.884827 27.564394,-7.327241 7.15278,-2.442412 16.2246,-5.757119 18.84146,-7.5017 2.61687,-1.744582 8.54845,-5.059285 8.54845,-5.059285 0,0 -5.05928,-3.838079 -15.35231,-2.442412 z"
         id="path5360" />
      <path
         style="fill:none;stroke:#e6e6e6;stroke-width:1;stroke-linecap:butt;stroke-linejoin:miter;stroke-miterlimit:4;stroke-dasharray:none;stroke-opacity:1"
         d="m 98.75575,69.015204 c 3.48917,-5.408202 1.046742,-6.280493 5.93158,-6.978325 4.88482,-0.697833 8.7229,-1.221207 7.67616,-2.79133 -1.04676,-1.570124 -11.86317,-0.174459 -13.084365,0.348916 -1.221207,0.523374 -4.187,1.046749 -6.106038,1.046749 -1.919039,0 -4.361454,4.361453 -4.186998,6.803867 0.174464,2.442413 -6.629412,2.965787 -6.629412,2.965787 0,0 -2.61687,0.697834 -2.61687,7.32724 0,6.629412 1.919047,10.81641 4.361462,7.327244 2.442405,-3.489166 4.361444,-6.629412 6.629403,-5.408205 2.26795,1.221207 5.408205,-1.221207 6.280495,-3.489157 0.872296,-2.267958 1.744583,-7.152786 1.744583,-7.152786 z"
         id="path5362" />
      <path
         style="fill:none;stroke:#e6e6e6;stroke-width:1;stroke-linecap:butt;stroke-linejoin:miter;stroke-miterlimit:4;stroke-dasharray:none;stroke-opacity:1"
         d="m 131.0305,56.105304 c 1.74459,-7.152786 1.74459,-11.16532 3.48916,-9.944114 1.74459,1.221205 3.48916,3.314704 4.187,4.884826 0.69783,1.570126 1.39566,2.791332 -3.14025,5.059288 -4.5359,2.267954 -6.10603,1.919038 -4.53591,0 z"
         id="path5364"
         sodipodi:nodetypes="csssc" />
      <path
         style="fill:none;stroke:#e6e6e6;stroke-width:1;stroke-linecap:butt;stroke-linejoin:miter;stroke-miterlimit:4;stroke-dasharray:none;stroke-opacity:1"
         d="m 142.37028,49.301435 c 0.69783,-3.489162 5.4082,-2.965787 6.45496,-0.697831 1.04674,2.267954 0.34891,6.629408 -1.74459,5.582661 -2.09351,-1.046751 -4.53591,-2.442415 -4.01254,-4.535913 0.52338,-2.093498 -0.69783,-0.348917 -0.69783,-0.348917 z"
         id="path5366" />
      <path
         style="fill:none;stroke:#e6e6e6;stroke-width:1;stroke-linecap:butt;stroke-linejoin:miter;stroke-miterlimit:4;stroke-dasharray:none;stroke-opacity:1"
         d="m 129.76516,85.066859 c -3.08401,0.863517 -2.83729,-1.97377 -2.09712,-3.20738 0.74016,-1.233601 2.71392,-2.960651 4.07088,-2.220491 1.35697,0.74017 0.98689,2.960652 1.97377,3.700821 0.98688,0.740161 0.12336,2.467211 -1.60368,2.713931 -1.72705,0.24672 -3.20737,0.123356 -2.34385,-0.986881 z"
         id="path5368" />
      <circle
         style="fill:none;fill-opacity:1;stroke:#e6e6e6;stroke-width:1.4;stroke-linecap:round;stroke-miterlimit:4;stroke-dasharray:none"
         id="path5370"
         cx="118.66766"
         cy="105.83873"
         r="77.514931" />
    </g>
  </g>
</svg>
