<?xml version="1.0" encoding="UTF-8" standalone="no"?>
<svg
   xmlns:dc="http://purl.org/dc/elements/1.1/"
   xmlns:cc="http://creativecommons.org/ns#"
   xmlns:rdf="http://www.w3.org/1999/02/22-rdf-syntax-ns#"
   xmlns:svg="http://www.w3.org/2000/svg"
   xmlns="http://www.w3.org/2000/svg"
   xmlns:sodipodi="http://sodipodi.sourceforge.net/DTD/sodipodi-0.dtd"
   xmlns:inkscape="http://www.inkscape.org/namespaces/inkscape"
   width="210mm"
   height="297mm"
   viewBox="0 0 210 297"
   version="1.1"
   id="svg3533"
   inkscape:version="1.0.1 (3bc2e813f5, 2020-09-07)"
   sodipodi:docname="saturn_booklet_page.svg">
  <defs
     id="defs3527" />
  <sodipodi:namedview
     id="base"
     pagecolor="#ffffff"
     bordercolor="#666666"
     borderopacity="1.0"
     inkscape:pageopacity="0.0"
     inkscape:pageshadow="2"
     inkscape:zoom="0.49497475"
     inkscape:cx="217.43249"
     inkscape:cy="458.8825"
     inkscape:document-units="mm"
     inkscape:current-layer="layer1"
     inkscape:document-rotation="0"
     showgrid="false"
     inkscape:window-width="1566"
     inkscape:window-height="1030"
     inkscape:window-x="128"
     inkscape:window-y="0"
     inkscape:window-maximized="0" />
  <metadata
     id="metadata3530">
    <rdf:RDF>
      <cc:Work
         rdf:about="">
        <dc:format>image/svg+xml</dc:format>
        <dc:type
           rdf:resource="http://purl.org/dc/dcmitype/StillImage" />
        <dc:title></dc:title>
      </cc:Work>
    </rdf:RDF>
  </metadata>
  <g
     inkscape:label="Layer 1"
     inkscape:groupmode="layer"
     id="layer1">
    <path
       style="fill:#000000;stroke-width:0.330773"
       d="m 39.269791,133.96684 c -1.678561,-0.50904 -3.304525,-1.86042 -3.871716,-3.2179 -0.332498,-0.79577 -0.454702,-1.95599 -0.374115,-3.55184 0.102491,-2.02961 0.342306,-2.81567 1.669649,-5.47272 0.852483,-1.70649 2.77995,-4.73355 4.283261,-6.72681 4.543048,-6.02368 15.487644,-16.857522 26.573978,-26.305062 2.118476,-1.80531 3.609007,-3.31783 3.567909,-3.62053 -0.03883,-0.28593 -0.29931,-2.02746 -0.578853,-3.87006 -3.574139,-23.558755 11.141056,-45.32298 34.553636,-51.10589 2.80855,-0.693712 3.89776,-0.775755 10.25395,-0.77237 6.64287,0.0035 7.34791,0.06332 10.69668,0.906899 4.9689,1.251707 9.45376,3.113825 13.33027,5.534748 0.54879,0.342729 1.26651,0.01529 5.3165,-2.42552 28.63557,-17.257832 46.04435,-22.516912 49.67943,-15.007838 1.54738,3.196467 0.25694,7.719126 -4.02982,14.123465 -5.01948,7.499008 -16.38495,19.460652 -27.8144,29.273375 -2.3099,1.983157 -3.40953,3.142587 -3.29399,3.473112 1.22256,3.497474 1.35572,11.903693 0.27673,17.470119 -2.58958,13.35937 -11.38662,25.234302 -23.27418,31.417312 -8.19781,4.26389 -16.98278,5.93065 -26.61935,5.05048 -5.79071,-0.52891 -9.88091,-1.61321 -14.262502,-3.78095 l -3.621391,-1.79163 -4.755595,2.78652 c -14.400872,8.43814 -27.458543,14.48976 -36.339326,16.84156 -3.653199,0.96744 -9.428146,1.35941 -11.366755,0.77153 z m 8.585335,-1.28432 c 15.094457,-3.07606 42.910877,-18.2596 73.611654,-40.180812 41.46122,-29.60445 69.86419,-57.033595 72.27191,-69.793994 0.38354,-2.032674 0.36258,-2.240166 -0.37477,-3.71045 -1.13323,-2.259656 -2.60093,-2.931817 -6.23878,-2.857161 -7.82443,0.160574 -21.50011,6.038681 -40.70989,17.497995 -2.89712,1.72824 -5.2675,3.193959 -5.2675,3.257151 0,0.06319 0.37516,0.360712 0.8337,0.661156 0.81852,0.536316 0.9224,0.49554 5.70582,-2.239716 16.2907,-9.315333 27.08175,-13.044208 31.90555,-11.025037 4.09761,1.715201 3.15168,7.582987 -2.44578,15.171471 -4.31642,5.851785 -14.19709,16.171271 -22.603,23.606835 -29.28244,25.90217 -71.68668,53.745012 -92.367727,60.649122 -7.998213,2.67011 -12.60765,2.38732 -14.152522,-0.86826 -2.204672,-4.646 4.539109,-14.61077 18.919271,-27.955572 l 5.676893,-5.26816 -0.497529,-1.46017 -0.497527,-1.46016 -3.003313,2.56116 C 54.087128,101.66266 44.542229,111.40607 39.572942,118.92071 c -5.772249,8.7289 -4.501638,14.30075 3.283388,14.39822 0.97201,0.0121 3.221468,-0.27422 4.998796,-0.63641 z m 10.3128,-8.90284 c 14.341257,-3.66789 42.598854,-20.24489 71.568164,-41.984692 32.62145,-24.480513 55.25676,-49.028613 50.9189,-55.221773 -2.88842,-4.123796 -14.68086,-0.565826 -32.64593,9.849808 l -4.21956,2.446384 0.98755,1.0189 0.98756,1.0189 5.05126,-2.502802 c 10.25223,-5.079781 15.64353,-5.899139 17.55246,-2.667581 0.74789,1.266077 0.71174,2.584432 -0.13275,4.841547 -4.44857,11.889851 -34.4001,38.114709 -67.11131,58.761097 -18.743008,11.830052 -33.571901,17.953662 -37.969537,15.679552 -4.483901,-2.31871 -1.921849,-8.7417 7.282169,-18.256192 3.538004,-3.65735 3.54653,-3.6701 3.152515,-4.71397 -0.217295,-0.57568 -0.480715,-1.04669 -0.585376,-1.04669 -0.104659,0 -2.416379,2.05608 -5.137149,4.56908 -10.725794,9.906722 -17.463056,18.251242 -18.838551,23.332732 -0.511399,1.88926 -0.515276,2.1758 -0.04468,3.30211 0.344573,0.82467 0.875607,1.38985 1.602707,1.70576 1.527818,0.66381 4.684462,0.60877 7.581556,-0.13217 z m 64.480964,-6.18847 c 9.072,-1.55462 16.8941,-5.68522 23.64406,-12.48564 8.57418,-8.638292 12.77468,-18.784482 12.82268,-30.97281 0.0163,-4.131344 -0.50509,-8.269316 -1.04187,-8.269316 -0.12499,0 -2.30994,1.722145 -4.85544,3.826991 -16.29831,13.476853 -41.36968,31.564375 -56.824445,40.995485 -1.764483,1.07676 -3.20815,2.07055 -3.20815,2.20843 0,0.47067 5.451635,2.88233 8.434705,3.73129 4.14378,1.1793 6.13591,1.41325 12.42837,1.45954 3.71082,0.0273 6.48959,-0.13231 8.60009,-0.49397 z m -50.446281,-4.57876 c 3.274288,-1.09375 11.016735,-4.46241 12.11915,-5.27291 0.504277,-0.37074 0.295146,-0.6876 -2.00331,-3.03523 -2.832162,-2.89274 -4.832926,-5.483062 -6.69073,-8.662232 l -1.223997,-2.09458 -3.854516,4.23316 c -5.870857,6.447572 -8.456105,10.556732 -8.456105,13.440682 0,1.07497 0.830538,2.18454 1.984635,2.65142 1.026942,0.41544 4.912744,-0.18732 8.124873,-1.26031 z m 17.819712,-8.34166 C 109.65056,93.599018 133.81308,75.952717 150.22492,60.703819 l 4.7858,-4.446689 -0.66277,-1.546193 c -0.95543,-2.228928 -3.44433,-6.321468 -5.15866,-8.482478 l -1.47854,-1.863784 -4.3334,4.00976 c -17.9407,16.600779 -45.264764,36.275823 -64.001382,46.085013 -1.318956,0.69051 -2.398101,1.36254 -2.398101,1.4934 0,1.20776 8.195381,10.595622 9.249728,10.595622 0.256266,0 1.963893,-0.84495 3.794726,-1.87768 z M 80.31909,93.437888 C 96.915656,84.442318 119.84064,68.38849 135.69,54.662952 c 5.05971,-4.381709 11.41165,-10.316676 11.41165,-10.662534 0,-0.158566 -0.40932,-0.729528 -0.90962,-1.268803 l -0.90962,-0.980503 -4.63082,4.321467 C 124.53796,61.109779 99.167523,79.377039 79.454,90.136158 l -4.357558,2.37824 0.675107,1.39391 c 0.371308,0.76664 0.77249,1.3939 0.891514,1.3939 0.119026,0 1.764239,-0.83895 3.656027,-1.86432 z m -2.045646,-3.1366 C 97.127687,80.230239 123.61739,61.235681 140.28852,45.833112 l 4.59853,-4.248605 -1.62157,-1.476123 c -4.78163,-4.352735 -13.0701,-8.156497 -20.41703,-9.369815 l -2.30044,-0.37991 -0.66869,0.965683 c -1.15269,1.664632 -6.87016,7.169789 -10.32035,9.937109 -11.485329,9.212123 -28.85152,21.098242 -35.462569,24.272004 -2.699458,1.295928 -2.599634,1.080033 -2.936334,6.35056 -0.250739,3.924976 0.246446,9.317003 1.206476,13.084373 0.717059,2.81389 2.243048,7.02609 2.545398,7.02609 0.105407,0 1.618083,-0.76193 3.361503,-1.69319 z m -0.01909,-27.566856 c 7.852733,-4.661936 21.368734,-14.111564 29.981522,-20.961404 4.57966,-3.642258 11.41165,-10.278135 11.41165,-11.084083 0,-0.481605 -0.49704,-0.548779 -4.05196,-0.547611 -12.56596,0.0041 -23.798392,4.805418 -32.408208,13.852861 -5.417312,5.692667 -9.220706,12.706997 -10.991617,20.271045 l -0.438954,1.874912 1.370139,-0.587574 c 0.75358,-0.323165 3.060913,-1.591331 5.127412,-2.818146 z m 80.794112,-10.95382 c 6.77078,-7.632037 9.50641,-12.583305 8.40667,-15.21537 -1.31836,-3.155245 -7.04415,-1.895089 -18.63665,4.101626 l -2.08706,1.079623 1.72997,1.887219 c 2.0533,2.239945 5.03718,6.715801 6.39155,9.587421 0.53375,1.131675 0.99784,2.05759 1.03131,2.05759 0.0335,0 1.45737,-1.57415 3.16421,-3.498109 z"
       id="path4110" />
  </g>
</svg>
