<?xml version="1.0" encoding="UTF-8" standalone="no"?>
<svg
   xmlns:dc="http://purl.org/dc/elements/1.1/"
   xmlns:cc="http://creativecommons.org/ns#"
   xmlns:rdf="http://www.w3.org/1999/02/22-rdf-syntax-ns#"
   xmlns:svg="http://www.w3.org/2000/svg"
   xmlns="http://www.w3.org/2000/svg"
   xmlns:sodipodi="http://sodipodi.sourceforge.net/DTD/sodipodi-0.dtd"
   xmlns:inkscape="http://www.inkscape.org/namespaces/inkscape"
   width="160mm"
   height="119.24345mm"
   viewBox="0 0 160 119.24345"
   version="1.1"
   id="svg3533"
   inkscape:version="1.0.2 (e86c870879, 2021-01-15, custom)"
   sodipodi:docname="saturn_filled.svg">
  <defs
     id="defs3527" />
  <sodipodi:namedview
     id="base"
     pagecolor="#ffffff"
     bordercolor="#666666"
     borderopacity="1.0"
     inkscape:pageopacity="0.0"
     inkscape:pageshadow="2"
     inkscape:zoom="1.2018264"
     inkscape:cx="142.18932"
     inkscape:cy="206.30874"
     inkscape:document-units="mm"
     inkscape:current-layer="layer1"
     inkscape:document-rotation="0"
     showgrid="false"
     inkscape:window-width="1920"
     inkscape:window-height="986"
     inkscape:window-x="-11"
     inkscape:window-y="-11"
     inkscape:window-maximized="1"
     fit-margin-top="0"
     fit-margin-left="0"
     fit-margin-right="0"
     fit-margin-bottom="0" />
  <metadata
     id="metadata3530">
    <rdf:RDF>
      <cc:Work
         rdf:about="">
        <dc:format>image/svg+xml</dc:format>
        <dc:type
           rdf:resource="http://purl.org/dc/dcmitype/StillImage" />
        <dc:title></dc:title>
      </cc:Work>
    </rdf:RDF>
  </metadata>
  <g
     inkscape:label="Layer 1"
     inkscape:groupmode="layer"
     id="layer1"
     transform="translate(-35,-15)">
    <path
       id="path847"
       style="fill:#d5c2a9;fill-opacity:1;stroke-width:0.220151"
       d="m 187.292,15.725537 c -2.71708,0.09467 -5.3838,0.718402 -7.98608,1.469678 -4.47094,1.324018 -8.78387,3.13158 -12.99506,5.122792 -4.65316,2.204232 -9.14984,4.717856 -13.63802,7.23611 -3.31176,1.874489 -6.62017,3.758147 -9.86666,5.744562 -0.58632,0.374301 -1.20043,0.716264 -1.73048,1.169778 -0.28259,0.263751 -0.20014,0.727481 0.0715,0.968123 0.34883,0.342525 0.7953,0.582405 1.25414,0.742755 0.60119,0.171067 1.17067,-0.187684 1.69341,-0.436289 1.96063,-1.001953 3.87303,-2.095181 5.79766,-3.164109 4.73272,-2.635734 9.55416,-5.132577 14.56399,-7.203248 2.79954,-1.137303 5.66094,-2.168227 8.63028,-2.762323 0.42905,-0.08397 0.85231,-0.154479 1.26711,-0.211356 0.89895,-0.121141 1.80888,-0.186282 2.71559,-0.131258 0.14707,0.0085 0.38008,0.02725 0.55985,0.05019 1.15988,0.137032 2.38371,0.49571 3.18035,1.401131 0.75268,0.85081 0.91676,2.051478 0.8193,3.1458 -0.15222,1.636218 -0.74429,3.193314 -1.43204,4.672598 -0.20264,0.43216 -0.44392,0.906941 -0.68072,1.345908 -0.60857,1.133091 -1.31583,2.250573 -2.03384,3.290502 -0.85026,1.225752 -1.7683,2.418372 -2.70137,3.560922 -2.76466,3.369278 -5.75909,6.524442 -8.79677,9.641694 -4.2094,4.314902 -8.52315,8.51907 -13.04262,12.506164 -4.88753,4.314864 -9.95359,8.422256 -15.06314,12.469907 -10.19014,8.029665 -20.70693,15.645519 -31.51882,22.816312 -7.814959,5.17008 -15.794474,10.12678 -24.004291,14.66136 -4.804635,2.63887 -9.696903,5.15672 -14.746512,7.31496 -2.837061,1.20736 -5.735,2.28511 -8.709813,3.1022 -1.643904,0.45156 -3.344314,0.6943 -5.049688,0.70021 -0.856989,-0.006 -1.723735,0.0527 -2.572169,-0.0944 -0.611667,-0.14384 -1.17383,-0.45894 -1.682295,-0.82109 -0.835149,-0.60153 -1.361512,-1.57374 -1.467994,-2.59165 -0.164391,-1.46727 0.234562,-2.93605 0.831524,-4.26608 0.974762,-2.18493 2.287087,-4.19951 3.665945,-6.1476 0.919576,-1.28059 1.901579,-2.56085 2.918122,-3.78402 1.747589,-2.00011 3.609035,-3.89683 5.460354,-5.80018 3.371469,-3.435244 6.790349,-6.826448 10.338522,-10.079868 0.573339,-0.531346 1.146585,-1.062799 1.719998,-1.594069 -0.308787,-0.910715 -0.526266,-1.858121 -0.946713,-2.726965 -0.114411,-0.245563 -0.312505,-0.461587 -0.591725,-0.500886 -0.142438,-0.04033 -0.285424,0.08796 -0.410718,0.153273 -1.109644,0.836444 -2.154346,1.755384 -3.216423,2.650856 -5.734545,4.927248 -11.366832,9.982004 -16.712183,15.331519 -3.516835,3.54203 -6.93029,7.20536 -9.946786,11.18831 -1.761255,2.35719 -3.415273,4.82754 -4.569031,7.54563 -0.672748,1.62838 -1.193649,3.38319 -1.060287,5.16318 0.09054,1.3091 0.654867,2.60539 1.660716,3.46801 1.171979,1.02867 2.742993,1.44788 4.265058,1.58475 1.207577,0.14469 2.427236,0.0536 3.626101,-0.12333 1.734703,-0.23203 3.463188,-0.52737 5.156112,-0.97641 3.785141,-0.97416 7.451377,-2.35754 11.052238,-3.86638 6.233001,-2.63854 12.269602,-5.71759 18.200354,-8.97336 9.259496,-5.10402 18.253969,-10.67687 27.072794,-16.50623 11.29702,-7.479766 22.29867,-15.401726 33.03634,-23.662976 9.45523,-7.294872 18.70228,-14.87012 27.51778,-22.929736 5.44342,-4.99701 10.73832,-10.170964 15.62311,-15.720115 2.82698,-3.234856 5.53626,-6.591135 7.83621,-10.225948 1.3674,-2.167431 2.52726,-4.485482 3.2606,-6.94682 0.29394,-1.061498 0.55614,-2.171341 0.41411,-3.278441 -0.15553,-0.816649 -0.52886,-1.58109 -0.98193,-2.272913 -0.58204,-0.872456 -1.38506,-1.654521 -2.40818,-1.968853 -1.16853,-0.399689 -2.42036,-0.481248 -3.64679,-0.45229 z" />
    <path
       id="path22"
       style="fill:#af8b5c;fill-opacity:1;stroke:none;stroke-width:0.220151"
       d="m 176.13477,23.953125 c -4.44982,0.234397 -8.66548,1.886897 -12.74997,3.545606 -6.62022,2.81911 -12.87562,6.400537 -19.12015,9.951679 -0.69052,0.306336 -1.59764,0.957712 -1.15918,1.823028 0.59942,0.990997 1.51843,1.767382 2.35547,2.548828 0.68413,0.161468 1.26091,-0.496035 1.89953,-0.684637 4.32271,-2.035319 8.5372,-4.303266 13.0724,-5.685386 1.7557,-0.59286 3.65022,-0.476229 5.47338,-0.409274 1.33289,0.266497 2.17177,1.726978 1.90854,3.03627 -0.37068,2.974914 -2.17342,5.56873 -3.83592,7.924773 -4.2599,5.680165 -9.3614,10.659823 -14.4944,15.540545 -10.86391,10.141254 -22.75314,19.11339 -34.88894,27.664733 -10.41959,7.227698 -21.119461,14.1249 -32.496496,19.76016 -4.265312,2.04372 -8.581347,3.99353 -13.230467,5.07676 -1.829569,0.33578 -3.88788,0.79664 -5.622193,-0.11965 -1.452702,-0.81501 -1.446148,-2.7366 -0.950891,-4.12551 1.165628,-3.52066 3.628218,-6.40686 5.982304,-9.19888 2.016916,-2.435453 4.402548,-4.567319 6.22026,-7.162717 0.422177,-0.960778 -0.08615,-2.092627 -0.707031,-2.855469 -0.577242,-0.644694 -1.536684,-0.337374 -2.041595,0.235468 -4.157438,3.626565 -8.12416,7.475039 -11.97989,11.420778 -3.820498,4.06066 -7.636338,8.24351 -10.302734,13.17969 -0.878452,1.79021 -1.759206,3.71772 -1.712891,5.75196 0.18126,1.80522 1.482168,3.48942 3.305764,3.85525 3.300542,0.81192 6.699725,-0.14739 9.862578,-1.09965 7.345551,-2.37166 14.214184,-5.96582 20.99374,-9.60807 13.489733,-7.39755 26.366542,-15.868282 38.883232,-24.801547 14.92004,-10.714942 29.36951,-22.159264 42.5439,-34.984186 5.46048,-5.419337 10.84203,-11.006634 15.1604,-17.401268 1.59524,-2.493272 3.23598,-5.152172 3.54277,-8.160004 0.11839,-1.308493 -0.1493,-2.789636 -1.28281,-3.605331 -1.26239,-1.172639 -2.95801,-1.483998 -4.62871,-1.413949 z" />
    <path
       style="fill:#f9eeda;fill-opacity:1;stroke-width:0.832067"
       d="m 183.75217,336.73738 c -8.91153,-9.0838 -21.41554,-24.13419 -23.66514,-28.48444 -1.45035,-2.80466 -2.29292,-2.15143 14.5529,-11.28267 54.04661,-29.29587 124.80333,-78.00311 185.96696,-128.01521 18.40668,-15.05072 29.78407,-24.88369 48.58507,-41.98987 8.87395,-8.07401 16.40875,-14.68001 16.74399,-14.68001 2.04902,0 16.74835,21.97114 23.07982,34.49751 l 4.4328,8.76997 -5.64956,5.26071 c -51.86746,48.29761 -102.03968,88.16845 -163.74228,130.12267 -33.51241,22.78651 -86.49504,54.73349 -90.7939,54.74606 -0.4034,8.4e-4 -4.6832,-4.02394 -9.51066,-8.94472 z"
       id="path849"
       transform="matrix(0.26458333,0,0,0.26458333,35,15)" />
    <path
       style="fill:#ccae96;fill-opacity:1;stroke-width:0.832067"
       d="m 154.65443,298.22065 c -1.4241,-2.82112 -2.47115,-5.21066 -2.32677,-5.31009 0.14437,-0.0994 6.9603,-3.83778 15.14651,-8.30746 41.85079,-22.85057 92.04946,-55.48392 137.83416,-89.60377 40.64323,-30.28831 65.01442,-50.36348 96.79114,-79.72935 7.71891,-7.13329 14.33238,-13.08353 14.69661,-13.22277 0.36422,-0.13924 2.03414,1.54358 3.71092,3.73959 l 3.04869,3.99274 -7.76049,7.51716 C 353.38265,177.75233 242.43691,258.46271 167.39793,297.99982 l -10.15424,5.35014 z"
       id="path851"
       transform="matrix(0.26458333,0,0,0.26458333,35,15)" />
    <path
       id="path853"
       style="fill:#d3c1b3;fill-opacity:1;stroke-width:0.220151"
       d="m 120.78029,30.033191 c -0.39023,-0.0073 -0.75858,0.220917 -0.92385,0.574781 -0.57333,0.885182 -1.3184,1.64208 -2.03301,2.412348 -2.19287,2.278294 -4.52632,4.417114 -6.91489,6.487744 -0.81529,0.696528 -1.67304,1.42056 -2.52418,2.104386 -5.17238,4.126556 -10.506637,8.031872 -15.938604,11.820536 -4.615442,3.204831 -9.29014,6.330195 -14.106276,9.226973 -1.669831,0.999077 -3.381846,1.975498 -5.13406,2.852719 -0.718812,0.364995 -1.466307,0.819385 -1.809983,1.585145 -0.401301,0.874948 -0.428299,1.858531 -0.49114,2.803252 -0.09668,2.52898 -0.166497,5.063006 -0.05084,7.592595 0.118631,2.48535 0.467892,4.963273 1.087578,7.373956 0.534247,1.980927 1.141762,3.944011 1.854464,5.868312 0.236337,0.647343 0.550151,1.261772 0.837227,1.887231 2.215864,-1.106744 4.430117,-2.21805 6.591818,-3.428196 5.625542,-3.127256 11.075443,-6.560677 16.446701,-10.104188 7.246095,-4.797333 14.335535,-9.830716 21.266705,-15.072328 5.52043,-4.181764 10.9484,-8.489702 16.18201,-13.025951 2.8593,-2.497622 5.68628,-5.033264 8.43715,-7.650115 0.48504,-0.482383 1.00598,-0.936442 1.42842,-1.47633 0.13387,-0.182271 0.1605,-0.449186 0.0222,-0.635621 -0.33382,-0.489601 -0.81507,-0.855312 -1.25045,-1.250302 -1.79032,-1.516444 -3.67398,-2.934785 -5.71269,-4.102488 -3.56384,-2.059452 -7.40975,-3.617905 -11.37578,-4.70992 -1.80812,-0.487319 -3.64341,-0.891071 -5.50305,-1.120692 -0.12808,-0.012 -0.25686,-0.01789 -0.38549,-0.01385 z" />
    <path
       id="path855"
       style="fill:#5e6e86;fill-opacity:1;stroke-width:0.220151"
       d="m 157.5119,64.656917 c -0.51417,0.09313 -0.92319,0.454728 -1.34665,0.736261 -1.78212,1.317667 -3.49372,2.727412 -5.22712,4.107894 -9.9643,8.008927 -20.14625,15.733006 -30.54846,23.166837 -7.24116,5.165707 -14.56359,10.182361 -22.07734,14.938241 -1.334117,0.85403 -2.695779,1.66449 -4.027903,2.52135 -0.726432,0.4609 -1.409729,0.98348 -2.07219,1.53133 -0.170437,0.13672 -0.340871,0.27345 -0.511307,0.41017 2.134645,1.01156 4.238431,2.09989 6.457449,2.92007 2.670151,1.00358 5.436531,1.78997 8.270201,2.15532 1.5078,0.14449 3.02476,0.15372 4.53816,0.18407 2.85511,0.0298 5.71262,0.0346 8.56525,-0.10046 1.34073,-0.0667 2.66532,-0.30775 3.98224,-0.55569 7.15591,-1.42548 13.9078,-4.75322 19.45769,-9.48135 1.70241,-1.51386 3.33176,-3.11235 4.86101,-4.80137 3.1327,-3.468791 5.77163,-7.40428 7.62743,-11.701108 1.36301,-3.141456 2.32815,-6.452357 2.91367,-9.825003 0.36277,-2.384777 0.46778,-4.800391 0.51289,-7.209483 0.0226,-2.307042 -0.003,-4.622382 -0.28362,-6.915036 -0.0914,-0.589968 -0.16142,-1.199385 -0.40596,-1.748801 -0.13147,-0.241726 -0.41498,-0.374771 -0.68544,-0.333242 z" />
    <path
       style="fill:#89827d;fill-opacity:1;stroke-width:0.832067"
       d="m 139.69311,191.82817 c 0,-2.06066 4.57841,-17.91326 7.19997,-24.92966 22.25377,-59.56061 75.7823,-101.364048 138.58698,-108.230365 10.56819,-1.1554 32.83507,-1.165156 33.5461,-0.0147 0.86492,1.39946 -1.43919,4.212507 -12.27211,14.982842 -20.19656,20.079877 -45.69043,40.345423 -88.2929,70.185633 -36.14482,25.31705 -78.76804,51.29435 -78.76804,48.00625 z"
       id="path857"
       transform="matrix(0.26458333,0,0,0.26458333,35,15)" />
  </g>
</svg>
