<?xml version="1.0" encoding="UTF-8" standalone="no"?>
<svg
   xmlns:dc="http://purl.org/dc/elements/1.1/"
   xmlns:cc="http://creativecommons.org/ns#"
   xmlns:rdf="http://www.w3.org/1999/02/22-rdf-syntax-ns#"
   xmlns:svg="http://www.w3.org/2000/svg"
   xmlns="http://www.w3.org/2000/svg"
   xmlns:sodipodi="http://sodipodi.sourceforge.net/DTD/sodipodi-0.dtd"
   xmlns:inkscape="http://www.inkscape.org/namespaces/inkscape"
   width="210mm"
   height="297mm"
   viewBox="0 0 210 297"
   version="1.1"
   id="svg4118"
   sodipodi:docname="venus_booklet_page.svg"
   inkscape:version="1.0.1 (3bc2e813f5, 2020-09-07)">
  <defs
     id="defs4112" />
  <sodipodi:namedview
     id="base"
     pagecolor="#ffffff"
     bordercolor="#666666"
     borderopacity="1.0"
     inkscape:pageopacity="0.0"
     inkscape:pageshadow="2"
     inkscape:zoom="0.35"
     inkscape:cx="403.30569"
     inkscape:cy="466.21662"
     inkscape:document-units="mm"
     inkscape:current-layer="layer1"
     inkscape:document-rotation="0"
     showgrid="false"
     inkscape:window-width="1566"
     inkscape:window-height="1030"
     inkscape:window-x="192"
     inkscape:window-y="0"
     inkscape:window-maximized="0" />
  <metadata
     id="metadata4115">
    <rdf:RDF>
      <cc:Work
         rdf:about="">
        <dc:format>image/svg+xml</dc:format>
        <dc:type
           rdf:resource="http://purl.org/dc/dcmitype/StillImage" />
      </cc:Work>
    </rdf:RDF>
  </metadata>
  <g
     inkscape:label="Layer 1"
     inkscape:groupmode="layer"
     id="layer1">
    <g
       id="g4756"
       transform="matrix(1.0003845,0,0,1.0003845,-75.134806,-64.921747)">
      <path
         style="fill:none;stroke:#000000;stroke-width:0.774298"
         d="m 186.5291,234.50743 c -3.3761,-0.41374 -3.67654,-0.54804 -1.44982,-0.64809 4.44192,-0.1996 6.06745,-3.92704 1.73821,-3.98584 -3.04343,-0.0414 -2.96031,-6.50192 0.10162,-7.897 1.27306,-0.58006 2.32237,-0.4705 4.04992,0.42285 2.56345,1.3256 9.56447,0.73634 11.2475,-0.94672 0.48542,-0.48541 1.64131,-0.88257 2.56866,-0.88257 0.92734,0 2.11984,-0.52265 2.64998,-1.16143 0.80687,-0.97224 0.68788,-1.16146 -0.73039,-1.16146 -4.04388,0 -6.29615,-3.90483 -4.68958,-8.13045 0.7564,-1.98946 3.48753,-2.69978 4.03744,-1.05008 0.22142,0.66422 0.70822,0.66422 1.94937,0 2.68092,-1.43481 4.07895,-1.09044 4.07895,1.0047 0,1.03953 -0.34844,2.1054 -0.77429,2.3686 -3.12421,1.93086 1.36146,6.79065 4.64558,5.03303 0.79584,-0.42592 2.66885,-0.77438 4.16224,-0.77438 1.49339,0 2.93059,-0.34845 3.19378,-0.77432 0.2632,-0.42586 -0.2225,-0.77429 -1.07936,-0.77429 -1.14067,0 -1.77383,-0.7776 -2.36427,-2.90361 -1.30326,-4.69281 -1.17408,-4.94114 2.34922,-4.51644 2.7974,0.33718 3.61334,0.0264 7.03822,-2.68081 2.13069,-1.68421 4.16906,-3.0622 4.52968,-3.0622 0.36065,0 0.7649,-1.13241 0.89835,-2.51648 0.19169,-1.98789 0.77122,-2.74911 2.7591,-3.62408 2.74967,-1.21024 3.61542,-4.88651 1.35503,-5.75392 -1.539,-0.59057 -1.48095,-2.56144 0.10162,-3.44703 1.13445,-0.63488 1.08445,-0.94823 -0.49144,-3.07977 -2.88548,-3.90283 -1.36107,-5.37183 5.03569,-4.85266 2.96699,0.24082 3.09719,0.39729 3.09719,3.72227 0,3.58731 1.14088,3.85546 3.15962,0.74263 0.88605,-1.36629 2.06617,-2.38113 2.62249,-2.25523 0.55633,0.12587 1.74776,-0.4438 2.64762,-1.26604 0.89987,-0.82221 2.3515,-1.71092 3.22585,-1.97487 2.87014,-0.8665 6.514,-10.55019 5.49604,-14.60601 -0.24226,-0.96528 -1.50012,-2.38101 -2.79524,-3.14605 -2.54023,-1.50054 -3.05673,-3.1913 -1.19333,-3.90635 1.94709,-0.74715 1.46275,-5.98575 -0.83714,-9.0547 -2.08189,-2.77802 -2.22956,-11.59308 -0.28011,-16.72049 1.11804,-2.94068 4.41048,-2.46606 5.78958,0.83463 2.62815,6.29002 4.43927,14.64515 3.50046,16.14843 -0.73283,1.17342 -0.63851,1.86119 0.48309,3.52294 1.15649,1.71342 1.37131,3.51454 1.26215,10.58213 -0.30391,19.67578 -8.31065,37.89092 -22.82308,51.9219 -9.04144,8.74148 -10.89988,9.97577 -12.10791,8.0414 -1.17826,-1.88671 -1.17283,-3.45248 0.0192,-5.36021 0.78683,-1.2599 0.67587,-1.87243 -0.66428,-3.66741 -2.09249,-2.80267 -5.95975,-3.05462 -6.33494,-0.41273 -0.13607,0.95819 -0.7253,1.74216 -1.30933,1.74216 -1.79154,0 -2.1511,1.56683 -0.722,3.14599 1.7489,1.9325 2.62877,1.91222 2.11595,-0.0487 -0.28164,-1.07699 -0.0237,-1.5486 0.84679,-1.5486 1.32041,0 1.73325,1.93394 0.56673,2.65486 -1.37803,0.85168 -1.39936,5.05215 -0.0331,6.51865 1.4988,1.60876 -1.18693,3.33498 -9.88221,6.35157 l -4.01878,1.39423 0.62962,-1.68455 c 0.42352,-1.13315 1.2849,-1.68454 2.63154,-1.68454 1.10106,0 2.62621,-0.65543 3.38918,-1.45651 1.34337,-1.41044 1.32603,-1.43734 -0.5485,-0.85062 -1.06465,0.33324 -3.73992,0.6506 -5.94501,0.70528 -2.59133,0.0643 -4.52976,0.57044 -5.48105,1.43134 -0.80947,0.73256 -1.8635,1.33195 -2.34226,1.33195 -2.18669,0 -4.82127,1.85707 -4.4215,3.11664 0.65607,2.06711 -6.72978,2.74528 -16.65357,1.52915 z m 56.83187,-24.88242 c 2.02873,-0.92435 3.09164,-2.65061 2.36048,-3.83364 -0.46203,-0.7476 -4.56419,1.0721 -5.37524,2.38442 -1.17137,1.89532 0.38923,2.64549 3.01476,1.44922 z m -64.57485,23.72097 c 0,-0.21294 0.17417,-0.38715 0.38716,-0.38715 0.21292,0 0.38715,0.17417 0.38715,0.38715 0,0.21293 -0.17417,0.38714 -0.38715,0.38714 -0.21293,0 -0.38716,-0.17417 -0.38716,-0.38714 z m -13.89457,-8.9324 c -2.36391,-1.31848 -2.81117,-1.35747 -3.93247,-0.34271 -1.90722,1.72603 -3.50879,1.41294 -8.2337,-1.60955 -5.35434,-3.42512 -4.97593,-3.8076 3.86459,-3.90601 3.90354,-0.0435 7.63982,-0.31624 8.30283,-0.60618 1.69287,-0.7403 6.4769,5.85615 5.18446,7.14859 -1.18946,1.18946 -2.02393,1.07938 -5.18571,-0.68414 z m 64.99824,-1.90777 c 0,-0.21293 0.17417,-0.38714 0.38714,-0.38714 0.21294,0 0.38715,0.17417 0.38715,0.38714 0,0.21294 -0.17417,0.38715 -0.38715,0.38715 -0.21293,0 -0.38714,-0.17417 -0.38714,-0.38715 z m -35.61772,-6.96868 c 0,-0.21294 0.17418,-0.38715 0.38717,-0.38715 0.21293,0 0.38714,0.17418 0.38714,0.38715 0,0.21293 -0.17417,0.38714 -0.38714,0.38714 -0.21294,0 -0.38717,-0.17417 -0.38717,-0.38714 z m -5.61365,-2.77207 c -1.95659,-1.13961 -1.84774,-5.35805 0.13818,-5.35805 3.15879,0 5.3764,4.69813 2.70202,5.72439 -1.46412,0.56184 -1.18488,0.59785 -2.84028,-0.36634 z m 30.39119,-9.08219 c 0,-0.41578 0.55177,-0.96771 1.22616,-1.22649 0.75408,-0.28937 1.10807,-0.11643 0.91946,0.44949 -0.38582,1.15745 -2.14562,1.79473 -2.14562,0.777 z m -45.29643,-9.43894 c -0.8338,-1.34912 0.4021,-2.50011 1.60902,-1.49845 0.59619,0.49479 0.89304,1.20859 0.65966,1.58619 -0.56484,0.91392 -1.67618,0.87094 -2.26868,-0.0878 z m -22.48647,-3.14869 c -0.2807,-0.4542 -0.3163,-1.01991 -0.0791,-1.25711 0.63698,-0.63697 2.82098,0.35736 2.82098,1.28432 0,1.05091 -2.08837,1.03019 -2.74188,-0.0271 z m 69.05234,0.28855 c -0.872,-0.872 -0.53108,-1.78563 0.66631,-1.78563 0.6388,0 1.16143,0.32787 1.16143,0.72858 0,0.97639 -1.20913,1.67566 -1.82774,1.05705 z m 2.9774,-11.88867 c -0.27681,-0.87215 -0.13356,-2.03128 0.31838,-2.57582 0.58272,-0.70212 0.54951,-1.71113 -0.11412,-3.46957 -0.87368,-2.31462 -0.78954,-2.59624 1.26528,-4.23468 3.14748,-2.50972 2.50002,-4.49801 -1.80613,-5.54647 -2.88908,-0.70343 -3.53577,-1.21288 -4.04776,-3.18876 -0.993,-3.83214 -3.96556,-4.89365 -6.2539,-2.23329 -2.49057,2.89544 -6.38439,1.94447 -6.38439,-1.55922 0,-1.2013 -0.43555,-2.33083 -0.96789,-2.51004 -0.53231,-0.17918 -0.96786,-0.69242 -0.96786,-1.14042 0,-1.33895 -3.83564,-4.47649 -5.47251,-4.47649 -0.97618,0 -1.98425,0.97098 -2.81356,2.71004 -1.91213,4.0098 -4.1027,2.62001 -4.1027,-2.60294 0,-1.54985 -0.64124,-2.82199 -1.93575,-3.84024 -1.91221,-1.50417 -2.66067,-5.019 -1.25389,-5.88845 1.15661,-0.71482 1.4961,-4.34342 0.62281,-6.657 -0.67452,-1.78705 -0.55116,-2.71876 0.65712,-4.96238 1.84056,-3.41774 4.57703,-3.80612 5.34201,-0.75818 0.41097,1.63738 0.7067,1.83502 1.61627,1.08014 0.80412,-0.66736 0.90277,-1.31727 0.35525,-2.34033 -1.04825,-1.95865 -0.96176,-2.29158 0.59698,-2.29853 1.61162,-0.008 3.30293,-3.2646 2.76436,-5.32408 -0.72938,-2.78911 1.84941,-6.41019 3.83477,-5.38473 0.94853,0.48992 2.31445,1.17533 3.03541,1.52313 1.7876,0.86238 6.79675,-1.2923 8.83373,-3.79981 1.48965,-1.83378 1.82139,-1.92278 3.92269,-1.05239 1.71675,0.71111 2.86046,0.73596 4.53688,0.0986 2.93567,-1.11614 5.21334,-0.48235 6.17339,1.71783 0.99543,2.28124 5.80725,3.04406 5.80725,0.92062 0,-1.43628 -0.33886,-1.87197 -5.75576,-7.40077 -4.18043,-4.26679 -4.20463,-4.415835 -1.23275,-7.597259 l 2.30309,-2.465457 3.21334,1.802848 c 3.96114,2.22241 12.87162,10.287618 13.35884,12.091598 1.47189,5.44968 1.44518,5.58435 -1.10834,5.58435 -1.71608,0 -3.08152,0.71442 -4.72211,2.47069 -1.97732,2.11673 -2.51951,2.3386 -3.78449,1.5486 -2.09526,-1.30852 -2.27182,-1.19965 -2.27182,1.4008 0,1.27758 0.37523,2.32289 0.83386,2.32289 1.07939,0 4.91265,3.86007 5.57466,5.61366 0.949,2.51377 3.53397,1.63863 4.10191,-1.38871 0.2922,-1.55763 0.89315,-2.60366 1.39009,-2.41969 0.48147,0.17822 0.79175,0.70565 0.68952,1.17203 -0.1022,0.46638 0.50754,1.21906 1.35503,1.67262 1.6363,0.87574 2.19851,6.27724 0.87119,8.3704 -1.56232,2.46378 -4.57876,3.21068 -6.58695,1.63104 -3.83537,-3.01692 -3.99037,-0.36286 -0.17436,2.98754 4.95932,4.35435 5.32023,8.17381 0.61744,6.53441 -2.26714,-0.79033 -6.60181,-0.28825 -8.69843,1.00753 -0.59113,0.36534 -1.35676,0.0966 -1.92031,-0.67416 -0.68546,-0.93742 -1.58991,-1.15118 -3.36688,-0.79579 -2.68544,0.53709 -3.26466,2.50692 -1.23297,4.19309 0.65818,0.54624 0.99677,1.51416 0.75241,2.15092 -0.24435,0.63676 0.2464,1.89295 1.09057,2.79153 1.79299,1.90855 1.2756,3.10386 -1.65366,3.82047 -2.56212,0.62682 -4.06446,-1.53909 -3.34373,-4.82059 0.27681,-1.26036 -0.006,-3.04534 -0.69076,-4.36602 -0.91529,-1.76423 -0.96221,-2.47738 -0.22314,-3.39132 0.73931,-0.91422 0.73114,-1.03426 -0.0389,-0.57154 -2.52411,1.51676 -7.41007,-3.14855 -5.59187,-5.33932 0.98008,-1.18094 0.31099,-2.98493 -0.84267,-2.27194 -0.99145,0.61275 -0.90293,3.82514 0.20752,7.53147 0.88372,2.94961 0.82795,3.1784 -1.16146,4.76469 -2.7121,2.16256 -2.63804,3.20127 0.30131,4.22593 1.3151,0.45843 2.57525,1.53782 2.80035,2.39864 0.2678,1.02403 1.05393,1.5651 2.27389,1.5651 1.28946,0 2.09772,0.61313 2.62034,1.98773 0.57773,1.51956 1.12035,1.87203 2.30372,1.49643 1.70022,-0.53963 2.04647,0.35345 0.67049,1.72943 -0.65382,0.65382 -0.33292,1.34595 1.25882,2.71511 l 2.13632,1.83759 -1.22441,5.3763 c -1.30741,5.74087 -3.15207,8.08636 -6.35973,8.08636 -1.13178,0 -1.98423,-0.58746 -2.30107,-1.58577 z m -12.76411,-23.83701 c 0,-1.00821 -0.92047,-1.67873 -1.66924,-1.21596 -0.80079,0.49492 -0.11028,1.86119 0.94063,1.86119 0.40074,0 0.72861,-0.29036 0.72861,-0.64523 z m 4.16274,-14.48289 c 0.26478,-0.69002 -0.0479,-1.38446 -0.7435,-1.6514 -1.44591,-0.55485 -3.02807,0.82154 -2.29949,2.0004 0.7598,1.22937 2.51454,1.02814 3.04299,-0.349 z M 233.935,126.80969 c -1.38658,-1.2389 -3.204,-2.25255 -4.03873,-2.25255 -0.83472,0 -2.62915,-0.67595 -3.98766,-1.50211 -2.66493,-1.62064 -6.12426,-0.75512 -7.09524,1.77524 -0.55967,1.45842 3.6708,2.33808 5.78996,1.20393 1.65032,-0.88322 5.28267,0.13838 6.74488,1.89699 0.4045,0.48653 1.71925,0.94004 2.92166,1.00782 l 2.18618,0.12317 z m -42.73548,51.80377 c 0.0135,-0.55932 0.52269,-1.67482 1.13143,-2.4789 0.81804,-1.08053 0.89708,-1.85392 0.30291,-2.96412 -1.16632,-2.17931 -0.27325,-3.92356 1.68991,-3.30048 1.04359,0.33122 2.1578,0.0135 3.17484,-0.90776 1.52582,-1.38084 1.6057,-1.37026 3.04172,0.40314 2.06495,2.55012 1.86135,3.4122 -1.19456,5.05791 -1.52174,0.8195 -2.77003,2.14351 -2.90361,3.0797 -0.27216,1.90726 -5.28766,2.96968 -5.24264,1.11051 z m 14.00202,-1.11898 c -1.34326,-0.94083 -1.51958,-1.4304 -0.8192,-2.27432 1.06929,-1.28844 3.8271,-0.14723 3.8271,1.58363 0,1.72458 -1.15364,1.98948 -3.0079,0.69069 z m 28.99006,-0.98952 c -0.61838,-1.00058 0.36734,-3.24401 1.19939,-2.72977 0.92202,0.56983 0.89246,3.4342 -0.0354,3.4342 -0.40073,0 -0.92451,-0.31699 -1.16396,-0.70443 z m -71.08503,-1.68049 c -0.74527,-0.43409 -1.94725,-1.90434 -2.67108,-3.26723 -1.02047,-1.92143 -1.38144,-2.17152 -1.60719,-1.11349 -0.41192,1.93067 -1.72251,0.8577 -1.72251,-1.41019 0,-2.06922 -2.06677,-2.61075 -3.70637,-0.97114 -1.95636,1.95635 -7.13379,-6.25068 -7.13379,-11.30818 0,-3.60875 2.52112,-7.4168 5.50147,-8.30974 2.11273,-0.63299 3.0158,-1.33875 3.0158,-2.35682 0,-1.23157 -0.2455,-1.32189 -1.60911,-0.59212 -2.68959,1.43943 -3.55549,0.41317 -4.02558,-4.7711 -0.52812,-5.82422 0.004,-7.00523 4.2939,-9.52934 1.80209,-1.06034 3.71503,-2.63921 4.25096,-3.50864 1.25099,-2.02939 2.78175,-1.99858 5.63845,0.11336 3.34097,2.47009 3.06424,4.47358 -0.61207,4.43128 -7.97735,-0.0918 -10.9867,1.64999 -7.5649,4.37845 1.95448,1.55843 2.13017,2.08415 1.7686,5.29192 -0.30464,2.70281 -0.14434,3.56159 0.6649,3.56159 1.35107,0 1.40276,2.24239 0.0635,2.7563 -1.44758,0.55549 -1.50157,8.34706 -0.0702,10.14859 1.0936,1.37649 1.15642,1.37644 2.06834,-0.002 2.80053,-4.23463 2.6207,-4.16561 4.92385,-1.88983 l 2.13353,2.10819 -1.70341,1.81321 c -2.02122,2.15148 -2.12049,3.12148 -0.48668,4.7553 2.40755,2.40754 4.34011,1.57176 3.74166,-1.6182 -0.46018,-2.45293 -0.35645,-2.76764 0.76983,-2.33544 0.7159,0.27471 2.00018,0.0697 2.85392,-0.45583 1.33806,-0.82347 1.74762,-0.6982 2.96751,0.90772 1.84601,2.43009 3.93628,1.70723 3.93628,-1.36128 0,-2.05256 1.3225,-3.13645 3.90595,-3.20123 1.05651,-0.0266 5.9972,7.61911 6.44179,9.96848 1.19493,6.31445 -6.26221,6.58254 -7.6113,0.27364 -0.29674,-1.38777 -0.86532,-2.32189 -1.26347,-2.07582 -0.39818,0.24608 -0.52791,0.76457 -0.28834,1.1522 0.63726,1.03113 -1.13607,3.97924 -2.18358,3.63006 -0.49174,-0.16397 -1.09219,-1.14329 -1.33432,-2.17636 -0.57516,-2.45394 -3.52671,-2.99027 -4.23174,-0.76896 -0.277,0.87274 -0.27042,1.96414 0.0154,2.42534 0.57916,0.93713 -2.6398,4.74945 -3.5403,4.19292 -0.31571,-0.19511 -1.00459,0.16417 -1.53086,0.79816 -1.10988,1.33732 -2.16427,1.41958 -4.05801,0.31659 z m 73.75188,-14.64964 c 0,-0.42586 0.369,-0.77429 0.82,-0.77429 0.45101,0 0.60465,0.34843 0.34146,0.77429 -0.2632,0.42587 -0.6322,0.7743 -0.82,0.7743 -0.18784,0 -0.34146,-0.34843 -0.34146,-0.7743 z m -60.90233,-5.06632 c -0.62702,-1.63404 0.41956,-2.51624 1.31165,-1.10563 0.94791,1.49884 0.92889,2.30046 -0.0545,2.30046 -0.43923,0 -1.00494,-0.53767 -1.25709,-1.19483 z m -10.33306,-0.78661 c 0,-0.66394 0.35412,-0.98829 0.78694,-0.72079 0.43279,0.26748 0.58645,0.8107 0.34143,1.20715 -0.66374,1.07398 -1.12837,0.87371 -1.12837,-0.48636 z m 8.22241,-5.98546 c -1.90155,-1.39046 -0.95817,-5.19616 1.28807,-5.19616 1.59054,0 1.59002,-0.01 -0.091,-1.79961 -1.76595,-1.87978 -1.54425,-2.84618 0.65291,-2.84618 2.26685,0 4.02252,8.05002 2.16154,9.91102 -1.19433,1.19433 -2.30996,1.17512 -4.01151,-0.0691 z m 82.37044,-21.84357 c -0.53016,-0.63879 -1.45055,-1.16144 -2.04532,-1.16144 -0.75568,0 -0.94052,-0.56132 -0.61365,-1.86364 0.25726,-1.02498 0.0774,-2.59293 -0.39963,-3.48433 -2.08514,-3.89611 1.85091,-6.19711 4.09686,-2.39501 0.7547,1.27759 1.11256,2.3229 0.79523,2.3229 -0.3173,0 0.18572,0.71043 1.1177,1.57876 1.96386,1.82963 1.91498,1.61221 0.93945,4.17806 -0.84708,2.228 -2.44493,2.5667 -3.89064,0.8247 z M 140.47936,116.0738 c -0.77872,-1.26001 0.32621,-3.90543 1.63122,-3.90543 0.80301,0 1.08521,0.63778 0.91571,2.0696 -0.25887,2.18668 -1.69177,3.21952 -2.54693,1.83583 z m 37.94228,-2.21099 c -8.06988,-5.57918 -3.13283,-12.27525 10.21157,-13.84981 3.1696,-0.373996 3.26454,-0.32052 3.23088,1.81996 -0.0192,1.2129 0.20172,4.38299 0.49065,7.04464 l 0.52533,4.83936 -2.9819,0.0274 c -1.64006,0.015 -3.85301,0.5254 -4.91766,1.13401 -2.61604,1.49546 -3.01649,1.43346 -6.55887,-1.01559 z m -32.63996,-8.75991 c 0.26616,-1.33083 0.48395,-2.84313 0.48395,-3.36068 0,-0.51754 1.26325,-1.839812 2.80725,-2.938378 l 2.80725,-1.997393 1.83854,1.838534 c 2.40047,2.400477 2.35734,2.636617 -1.09774,6.010417 -3.95925,3.8661 -7.57022,4.10237 -6.83925,0.4475 z m 21.38998,-3.38755 c 0,-0.70977 0.37456,-1.16564 0.83238,-1.01304 0.4578,0.1526 0.83236,0.60847 0.83236,1.01304 0,0.40457 -0.37456,0.86044 -0.83236,1.01304 -0.45782,0.15259 -0.83238,-0.30327 -0.83238,-1.01304 z m 39.29561,-15.632549 c -2.2806,-0.595983 -1.504,-1.54281 0.96788,-1.180018 1.27759,0.187511 2.3229,0.649817 2.3229,1.027344 0,0.712817 -0.97436,0.75802 -3.29078,0.152674 z"
         id="path4750" />
      <circle
         style="fill:none;stroke:#000000;stroke-width:1.5;stroke-linecap:round;stroke-miterlimit:4;stroke-dasharray:none"
         id="path4752"
         cx="189.88231"
         cy="159.68086"
         r="79.039833" />
    </g>
    <g
       id="g7664"
       transform="translate(5.7236932)"
       style="stroke-width:0.3;stroke-miterlimit:4;stroke-dasharray:none">
      <path
         style="fill:none;stroke:#000000;stroke-width:0.3;stroke-linecap:butt;stroke-linejoin:miter;stroke-miterlimit:4;stroke-dasharray:none;stroke-opacity:1"
         d="M 189.27631,246.31449 H 29.276312"
         id="path6602"
         sodipodi:nodetypes="cc" />
    </g>
    <text
       xml:space="preserve"
       style="font-style:normal;font-weight:normal;font-size:10.5833px;line-height:1.25;font-family:sans-serif;fill:#000000;fill-opacity:1;stroke:none;stroke-width:0.264583"
       x="9.1938505"
       y="17.854794"
       id="text6608"><tspan
         sodipodi:role="line"
         id="tspan6606"
         x="9.1938505"
         y="17.854794"
         style="stroke-width:0.264583">2.</tspan></text>
  </g>
</svg>
