<?xml version="1.0" encoding="UTF-8" standalone="no"?>
<svg
   xmlns:dc="http://purl.org/dc/elements/1.1/"
   xmlns:cc="http://creativecommons.org/ns#"
   xmlns:rdf="http://www.w3.org/1999/02/22-rdf-syntax-ns#"
   xmlns:svg="http://www.w3.org/2000/svg"
   xmlns="http://www.w3.org/2000/svg"
   xmlns:sodipodi="http://sodipodi.sourceforge.net/DTD/sodipodi-0.dtd"
   xmlns:inkscape="http://www.inkscape.org/namespaces/inkscape"
   width="210mm"
   height="297mm"
   viewBox="0 0 210 297"
   version="1.1"
   id="svg8"
   inkscape:version="1.0.1 (3bc2e813f5, 2020-09-07)"
   sodipodi:docname="siffror_2020.svg">
  <defs
     id="defs2">
    <marker
       id="Arrow2Sstart"
       inkscape:isstock="true"
       inkscape:stockid="Arrow2Sstart"
       orient="auto"
       refX="0"
       refY="0"
       style="overflow:visible">
      <path
         d="M 8.72,4.03 -2.21,0.02 8.72,-4 c -1.75,2.37 -1.74,5.62 0,8.03 z"
         id="Arrow2SstartPath"
         style="fill:#000000;fill-opacity:1;stroke:#000000;stroke-opacity:1"
         transform="matrix(0.3,0,0,0.3,-0.69,0)" />
    </marker>
    <marker
       id="Arrow2Send"
       inkscape:isstock="true"
       inkscape:stockid="Arrow2Send"
       orient="auto"
       refX="0"
       refY="0"
       style="overflow:visible">
      <path
         d="M 8.72,4.03 -2.21,0.02 8.72,-4 c -1.75,2.37 -1.74,5.62 0,8.03 z"
         id="Arrow2SendPath"
         style="fill:#000000;fill-opacity:1;stroke:#000000;stroke-opacity:1"
         transform="matrix(-0.3,0,0,-0.3,0.69,0)" />
    </marker>
  </defs>
  <sodipodi:namedview
     id="base"
     pagecolor="#ffffff"
     bordercolor="#666666"
     borderopacity="1.0"
     inkscape:pageopacity="0.0"
     inkscape:pageshadow="2"
     inkscape:zoom="0.60455153"
     inkscape:cx="-2.5606819"
     inkscape:cy="457.60931"
     inkscape:document-units="mm"
     inkscape:current-layer="layer1"
     inkscape:document-rotation="0"
     showgrid="false"
     inkscape:snap-global="true"
     inkscape:window-width="1920"
     inkscape:window-height="1001"
     inkscape:window-x="-9"
     inkscape:window-y="-9"
     inkscape:window-maximized="1" />
  <metadata
     id="metadata5">
    <rdf:RDF>
      <cc:Work
         rdf:about="">
        <dc:format>image/svg+xml</dc:format>
        <dc:type
           rdf:resource="http://purl.org/dc/dcmitype/StillImage" />
        <dc:title></dc:title>
      </cc:Work>
    </rdf:RDF>
  </metadata>
  <g
     inkscape:label="Layer 1"
     inkscape:groupmode="layer"
     id="layer1">
    <path
       style="fill:none;stroke:#000000;stroke-width:0.264583px;stroke-linecap:butt;stroke-linejoin:miter;stroke-opacity:1"
       d="m 824.70932,192.09099 v 53.29464 H 970.23015 V 205.41465 H 871.29488 L 972.30902,121.03147 V 62.63414 L 950.03366,37.876703 h -97.9463 l -26.62209,25.702382 v 36.663695 h 38.1756 V 79.076106 l 64.19831,0.15337 0.0576,21.013304 z"
       id="path833"
       sodipodi:nodetypes="cccccccccccccccc" />
    <path
       id="path835"
       style="fill:none;stroke:#000000;stroke-width:0.097343px;stroke-linecap:butt;stroke-linejoin:miter;stroke-opacity:1"
       d="m 530.58456,233.86 -11.0057,11.00195 v 16.23438 h 18.10922 v -6.81446 h 19.19726 v 4.73438 l -37.30648,38.12305 v 17.61132 h 56.46859 V 295.8893 h -27.85351 l 28.19531,-28.20313 v -22.78515 l -11.07422,-11.19336 h -34.57617 z"
       sodipodi:nodetypes="ccccccccccccccccc" />
    <path
       style="fill:none;stroke:#000000;stroke-width:0.264583px;stroke-linecap:butt;stroke-linejoin:miter;stroke-opacity:1"
       d="m 903.36887,378.62513 27.02529,-27.0253 h 89.21904 l 26.7419,27.0253 v 57.19647 l -84.78715,84.78711 h 83.85995 V 560.3692 H 902.61291 v -39.76049 l 102.24259,-103.619 v -20.97768 h -63.68901 v 18.52084 h -38.93155 z"
       id="path839"
       sodipodi:nodetypes="cccccccccccccccc" />
    <path
       id="path845"
       style="fill:none;stroke:#000000;stroke-width:0.097343px;stroke-linecap:butt;stroke-linejoin:miter;stroke-opacity:1"
       d="m 410.67155,192.25586 c -3.67136,3.66295 -7.33871,7.33345 -11.00586,11.00195 -0.17492,5.41138 -0.34428,10.82294 -0.51757,16.23438 6.20898,0 12.41796,0 18.62695,0 0,-2.27149 0,-4.54297 0,-6.81446 6.39909,0 12.79818,0 19.19726,0 0,1.57813 0,3.15625 0,4.73438 -12.53842,12.70766 -25.07671,25.41547 -37.61523,38.12305 0,5.87044 0,11.74088 0,17.61132 18.92578,0 37.85156,0 56.77734,0 0,-6.2871 0,-12.57421 0,-18.86132 -9.2845,0 -18.56901,0 -27.85351,0 9.39811,-9.40136 18.7988,-18.80017 28.19531,-28.20313 0,-7.59505 0,-15.1901 0,-22.78515 -3.6894,-3.73309 -7.38152,-7.46353 -11.07422,-11.19336 -11.52539,0 -23.05078,0 -34.57617,0 -0.0514,0.0508 -0.10286,0.10156 -0.1543,0.15234 z" />
    <path
       id="path847"
       style="fill:none;stroke:#000000;stroke-width:0.0973431px;stroke-linecap:butt;stroke-linejoin:miter;stroke-opacity:1"
       d="m 429.98509,200.53846 -11.16004,11.15435 v 58.7344 l 11.00605,11.00192 34.73017,0.15243 11.07426,-11.19362 v -58.65637 l -11.07426,-11.19311 z m 6.47557,17.75033 21.53357,0.03 v 45.48198 l -21.53357,0.0305 z" />
    <path
       style="fill:none;stroke:#000000;stroke-width:0.264583px;stroke-linecap:butt;stroke-linejoin:miter;stroke-opacity:1"
       d="m 344.30063,198.31322 h 17.72068"
       id="path855" />
    <path
       style="fill:none;stroke:#000000;stroke-width:0.264583px;stroke-linecap:butt;stroke-linejoin:miter;stroke-opacity:1"
       d="M 333.28233,182.53933 V 164.81865"
       id="path857" />
    <path
       id="path860"
       style="fill:none;stroke:#000000;stroke-width:0.0973431px;stroke-linecap:butt;stroke-linejoin:miter;stroke-opacity:1"
       d="m 347.77306,190.10987 -11.16005,11.15436 v 58.73439 l 11.00605,11.00193 34.73018,0.15242 11.07426,-11.19362 v -58.65637 l -11.07426,-11.19311 z m 6.47557,17.75034 21.53357,0.03 v 45.48198 l -21.53357,0.0305 z" />
    <path
       id="path862"
       style="fill:none;stroke:#000000;stroke-width:0.097343px;stroke-linecap:butt;stroke-linejoin:miter;stroke-opacity:1"
       d="m 296.66448,188.80061 -9.72852,9.26289 v 11.15898 h 8.55757 l 0.38752,60.46875 h 18.77459 l 0.3418,-80.89062 z"
       sodipodi:nodetypes="cccccccc" />
    <path
       id="path866"
       style="fill:none;stroke:#000000;stroke-width:0.0973431px;stroke-linecap:butt;stroke-linejoin:miter;stroke-opacity:1"
       d="m 344.72001,18.387105 -11.16006,11.154353 v 58.7344 l 11.00606,11.00193 34.73018,0.15242 11.07426,-11.19362 V 29.580218 L 379.29619,18.387105 Z m 6.47557,17.750333 21.53357,0.03 v 45.48197 l -21.53357,0.0305 z" />
    <path
       id="path870"
       style="fill:none;stroke:#000000;stroke-width:0.097343px;stroke-linecap:butt;stroke-linejoin:miter;stroke-opacity:1"
       d="m 476.87759,18.539676 -9.72852,9.26289 v 11.15898 h 8.55757 l 0.38752,60.468751 h 18.77459 l 0.3418,-80.890621 z"
       sodipodi:nodetypes="cccccccc" />
    <path
       id="path872"
       style="fill:none;stroke:#000000;stroke-width:0.097343px;stroke-linecap:butt;stroke-linejoin:miter;stroke-opacity:1"
       d="m 266.76545,29.541627 v 13.469738 h 19.52689 v -4.900513 h 17.77959 v 4.925564 l -37.30648,37.532561 v 18.86132 h 56.46859 v -18.86132 h -27.85351 l 28.19531,-28.20313 v -22.78515 l -11.07422,-11.19336 h -34.57617 z"
       sodipodi:nodetypes="cccccccccccccccc" />
    <path
       id="path874"
       style="fill:none;stroke:#000000;stroke-width:0.097343px;stroke-linecap:butt;stroke-linejoin:miter;stroke-opacity:1"
       d="m 411.70687,18.539676 -11.0057,11.001951 v 16.23438 h 18.10922 v -6.81446 h 19.19726 v 6.839511 l -37.30648,34.767919 v 18.86132 h 56.46859 v -18.86132 h -27.85351 l 28.19531,-28.20313 v -22.78515 l -11.07422,-11.19336 h -34.57617 z"
       sodipodi:nodetypes="ccccccccccccccccc" />
    <path
       style="fill:none;stroke:#000000;stroke-width:0.264583px;stroke-linecap:butt;stroke-linejoin:miter;stroke-opacity:1"
       d="M 266.72734,42.785763 H 286.3763"
       id="path922" />
    <path
       style="fill:none;stroke:#000000;stroke-width:0.264583px;stroke-linecap:butt;stroke-linejoin:miter;stroke-opacity:1"
       d="m 0,-13.622385 h 16 35 16 22 40 28 19 19 38 19 52 5 19 5 19 13"
       id="path924"
       sodipodi:nodetypes="ccccccccccccccccc" />
    <path
       style="fill:none;stroke:#000000;stroke-width:0.264583px;stroke-linecap:butt;stroke-linejoin:miter;stroke-opacity:1"
       d="m 0,-19.443564 h 16 35 16 22 40 28 19 19 38 19 52 5 19 5 19 13"
       id="path928"
       sodipodi:nodetypes="ccccccccccccccccc" />
    <path
       id="path930"
       style="fill:none;stroke:#000000;stroke-width:0.292029px;stroke-linecap:butt;stroke-linejoin:miter;stroke-opacity:1"
       d="m -209.0403,33.608888 v 40.409214 h 58.58067 V 59.316563 h 53.33877 V 74.093255 L -209.0403,186.69093 v 56.58396 h 169.40578 v -56.58396 h -83.56054 l 84.58594,-84.60939 V 33.726098 L -71.83179,0.1460145 H -175.5603 Z"
       sodipodi:nodetypes="cccccccccccccccc" />
    <path
       id="path932"
       style="fill:none;stroke:#000000;stroke-width:0.292029px;stroke-linecap:butt;stroke-linejoin:miter;stroke-opacity:1"
       d="m -392.89827,-59.325926 -33.48017,33.463061 V 150.34034 l 33.01817,33.00579 104.19054,0.45726 33.22278,-33.58086 V -25.746585 l -33.22278,-33.579341 z m 19.42671,53.2510007 64.60071,0.09 V 130.46099 l -64.60071,0.0915 z" />
    <path
       style="fill:none;stroke:#000000;stroke-width:0.292029px;stroke-linecap:butt;stroke-linejoin:miter;stroke-opacity:1"
       d="m -265.85284,404.13603 64.60071,0.09 v 136.44591 l -64.60071,0.0915 z"
       id="path938" />
    <path
       style="fill:none;stroke:#000000;stroke-width:0.292029px;stroke-linecap:butt;stroke-linejoin:miter;stroke-opacity:1"
       d="m -285.27955,350.88502 -33.48017,33.46307 v 176.2032 l 33.01817,33.00579 104.19054,0.45726 33.22278,-33.58086 V 384.46437 l -33.22278,-33.57935 z"
       id="path934" />
    <path
       id="path940"
       style="fill:none;stroke:#000000;stroke-width:0.292029px;stroke-linecap:butt;stroke-linejoin:miter;stroke-opacity:1"
       d="M 33.626014,0.1460145 0.1460145,33.608888 V 74.018102 H 33.626014 V 243.24338 H 90.3053 L 91.3307,0.1460145 Z"
       sodipodi:nodetypes="cccccccc" />
  </g>
</svg>
